<?xml version="1.0" encoding="UTF-8" standalone="no"?>
<!-- Created with Inkscape (http://www.inkscape.org/) -->

<svg
   width="62.784847mm"
   height="37.464699mm"
   viewBox="0 0 62.784847 37.464699"
   version="1.1"
   id="svg5"
   xml:space="preserve"
   sodipodi:docname="dis2.svg"
   inkscape:version="1.2.2 (b0a8486541, 2022-12-01)"
   inkscape:export-filename="växt2.svg"
   inkscape:export-xdpi="96"
   inkscape:export-ydpi="96"
   xmlns:inkscape="http://www.inkscape.org/namespaces/inkscape"
   xmlns:sodipodi="http://sodipodi.sourceforge.net/DTD/sodipodi-0.dtd"
   xmlns="http://www.w3.org/2000/svg"
   xmlns:svg="http://www.w3.org/2000/svg"><sodipodi:namedview
     id="namedview7"
     pagecolor="#ffffff"
     bordercolor="#eeeeee"
     borderopacity="1"
     inkscape:showpageshadow="0"
     inkscape:pageopacity="0"
     inkscape:pagecheckerboard="0"
     inkscape:deskcolor="#505050"
     inkscape:document-units="mm"
     showgrid="false"
     inkscape:zoom="4.4246155"
     inkscape:cx="153.91168"
     inkscape:cy="51.981918"
     inkscape:window-width="1920"
     inkscape:window-height="1048"
     inkscape:window-x="0"
     inkscape:window-y="0"
     inkscape:window-maximized="1"
     inkscape:current-layer="layer1" /><defs
     id="defs2" /><g
     inkscape:label="Lager 1"
     inkscape:groupmode="layer"
     id="layer1"
     transform="translate(-32.017888,-23.055812)"><g
       aria-label="Dis"
       id="text2189-22-0-9-3"
       style="font-size:30.3333px;line-height:1.25;font-family:Ubuntu;-inkscape-font-specification:Ubuntu;stroke-width:0.535047"><path
         d="m 38.084548,48.035586 q -1.273998,0 -2.911997,-0.121334 -1.637998,-0.091 -3.154663,-0.424666 v -20.41431 q 1.516665,-0.303333 3.21533,-0.424667 1.698665,-0.121333 2.972663,-0.121333 3.548996,0 6.218327,1.122332 2.66933,1.122332 4.155662,3.48833 1.486331,2.365997 1.486331,6.127326 0,3.609663 -1.486331,6.005994 -1.455999,2.39633 -4.155662,3.579329 -2.699664,1.182999 -6.33966,1.182999 z m 0.242667,-3.548997 q 3.761329,0 5.581327,-1.910997 1.850331,-1.941332 1.850331,-5.308328 0,-3.488329 -1.789665,-5.338661 -1.759331,-1.850331 -5.52066,-1.850331 -0.758333,0 -1.334665,0.03033 -0.546,0.03033 -0.940333,0.091 V 44.39559 q 0.303333,0.03033 0.788666,0.06067 0.515666,0.03033 1.364999,0.03033 z"
         style="font-weight:bold;-inkscape-font-specification:'Ubuntu Bold'"
         id="path246" /><path
         d="M 53.8882,47.792919 V 31.89827 h 3.943329 v 15.894649 z m 1.971664,-18.412313 q -0.970665,0 -1.698665,-0.636999 -0.727999,-0.667333 -0.727999,-1.789665 0,-1.122332 0.727999,-1.759331 0.728,-0.667333 1.698665,-0.667333 1.000999,0 1.698665,0.667333 0.727999,0.636999 0.727999,1.759331 0,1.122332 -0.727999,1.789665 -0.697666,0.636999 -1.698665,0.636999 z"
         style="font-weight:bold;-inkscape-font-specification:'Ubuntu Bold'"
         id="path248" /><path
         d="m 66.567515,48.187252 q -2.092998,0 -3.457996,-0.364 -1.334665,-0.333666 -1.850331,-0.576332 l 0.727999,-3.245663 q 0.940332,0.363999 2.092998,0.667332 1.182998,0.273 2.517663,0.273 1.334666,0 1.971665,-0.303333 0.667333,-0.303333 0.667333,-1.152665 0,-0.485333 -0.333667,-0.818999 -0.303333,-0.333667 -0.970665,-0.667333 -0.637,-0.333666 -1.668332,-0.727999 -1.334665,-0.515666 -2.396331,-1.091999 -1.031332,-0.606666 -1.637998,-1.546998 -0.576332,-0.940333 -0.576332,-2.426664 0,-1.455999 0.727999,-2.487331 0.758332,-1.061665 2.092997,-1.637998 1.364999,-0.606666 3.245664,-0.606666 1.486331,0 2.76033,0.273 1.273998,0.272999 1.971664,0.545999 l -0.727999,3.12433 q -0.667332,-0.242666 -1.607665,-0.485333 -0.909999,-0.242666 -2.153664,-0.242666 -1.122332,0 -1.759331,0.363999 -0.637,0.333667 -0.637,1.091999 0,0.455 0.242667,0.788666 0.242666,0.333666 0.818999,0.636999 0.576332,0.303333 1.607665,0.697666 1.850331,0.667333 2.911996,1.364999 1.061666,0.697665 1.546999,1.607664 0.485332,0.909999 0.485332,2.274998 0,1.546998 -0.788665,2.57833 -0.758333,1.031333 -2.244664,1.577332 -1.486332,0.515666 -3.57933,0.515666 z"
         style="font-weight:bold;-inkscape-font-specification:'Ubuntu Bold'"
         id="path250" /></g><path
       id="path6414"
       style="fill:none;stroke:#000000;stroke-width:2;stroke-linecap:round;stroke-linejoin:round"
       d="m 82.27577,48.4102 a 5.954,5.954 0 0 1 2.77412,6.69732 5.954,5.954 0 0 1 -5.75112,4.41299 5.954,5.954 0 0 1 -5.75113,-4.41299 5.954,5.954 0 0 1 2.77413,-6.69732" /><path
       style="fill:none;stroke:#000000;stroke-width:2;stroke-linecap:round;stroke-linejoin:round;stroke-dasharray:none;stroke-opacity:1"
       d="M 82.275769,48.41019 V 27.0322"
       id="path6530" /><path
       style="fill:none;stroke:#000000;stroke-width:2;stroke-linecap:round;stroke-linejoin:round;stroke-dasharray:none;stroke-opacity:1"
       d="M 76.321769,48.41019 V 27.0322"
       id="path6530-1" /><path
       id="path6628"
       style="fill:none;stroke:#000000;stroke-width:2;stroke-linecap:round;stroke-linejoin:round"
       d="m 76.32177,27.03221 a 2.977,2.977 0 0 1 1.4885,-2.57816 2.977,2.977 0 0 1 2.977,0 2.977,2.977 0 0 1 1.4885,2.57816" /><path
       id="path6695"
       style="stroke-width:2.70916;stroke-linecap:round;stroke-linejoin:round"
       d="m 82.908909,53.61581 a 3.6101427,3.6101427 0 0 1 -3.61014,3.61015 3.6101427,3.6101427 0 0 1 -3.61015,-3.61015 3.6101427,3.6101427 0 0 1 3.61015,-3.61014 3.6101427,3.6101427 0 0 1 3.61014,3.61014 z" /><path
       style="fill:#000000;fill-opacity:1;stroke:#000000;stroke-width:2;stroke-linecap:round;stroke-linejoin:round;stroke-dasharray:none;stroke-opacity:1"
       d="M 79.298769,52.96036 V 34.09511"
       id="path6763" /><path
       style="fill:none;fill-opacity:1;stroke:#000000;stroke-width:1.512;stroke-linecap:round;stroke-linejoin:round;stroke-dasharray:none;stroke-opacity:1"
       d="m 84.771199,34.25379 c 0,0 1.01342,-0.636502 1.54592,-0.636502 0.5325,0 1.01342,0.636502 1.54592,0.636502 0.53251,0 1.01343,-0.636502 1.54593,-0.636502 0.5325,0 1.01342,0.636502 1.54592,0.636502 0.5325,0 1.01342,-0.636502 1.54592,-0.636502 0.5325,0 1.01342,0.636502 1.54592,0.636502"
       id="path6938"
       sodipodi:nodetypes="czzzzzc" /><path
       style="fill:none;fill-opacity:1;stroke:#000000;stroke-width:1.512;stroke-linecap:round;stroke-linejoin:round;stroke-dasharray:none;stroke-opacity:1"
       d="m 84.771199,37.2715 c 0,0 1.01342,-0.636502 1.54592,-0.636502 0.5325,0 1.01342,0.636502 1.54592,0.636502 0.53251,0 1.01343,-0.636502 1.54593,-0.636502 0.5325,0 1.01342,0.636502 1.545919,0.636502 0.5325,0 1.01342,-0.636502 1.54592,-0.636502 0.5325,0 1.01342,0.636502 1.54592,0.636502"
       id="path6938-3"
       sodipodi:nodetypes="czzzzzc" /><path
       style="fill:none;fill-opacity:1;stroke:#000000;stroke-width:1.512;stroke-linecap:round;stroke-linejoin:round;stroke-dasharray:none;stroke-opacity:1"
       d="m 84.771199,40.28921 c 0,0 1.01342,-0.636502 1.54592,-0.636502 0.5325,0 1.01342,0.636502 1.54592,0.636502 0.53251,0 1.01343,-0.636502 1.54593,-0.636502 0.5325,0 1.01342,0.636502 1.54592,0.636502 0.5325,0 1.01342,-0.636502 1.54592,-0.636502 0.5325,0 1.01342,0.636502 1.54592,0.636502"
       id="path6938-6"
       sodipodi:nodetypes="czzzzzc" /><path
       style="fill:none;fill-opacity:1;stroke:#000000;stroke-width:1.512;stroke-linecap:round;stroke-linejoin:round;stroke-dasharray:none;stroke-opacity:1"
       d="m 84.771199,43.30692 c 0,0 1.01342,-0.636503 1.54592,-0.636503 0.5325,0 1.01342,0.636503 1.54592,0.636503 0.53251,0 1.01343,-0.636503 1.54593,-0.636503 0.5325,0 1.013415,0.636503 1.545915,0.636503 0.5325,0 1.01342,-0.636503 1.54592,-0.636503 0.5325,0 1.01342,0.636503 1.54592,0.636503"
       id="path6938-7"
       sodipodi:nodetypes="czzzzzc" /></g></svg>
