<?xml version="1.0" encoding="UTF-8" standalone="no"?>
<svg
   width="210mm"
   height="297mm"
   viewBox="0 0 210 297"
   version="1.1"
   id="svg960"
   inkscape:version="1.2.2 (b0a8486541, 2022-12-01)"
   sodipodi:docname="ping_PCB.svg"
   xmlns:inkscape="http://www.inkscape.org/namespaces/inkscape"
   xmlns:sodipodi="http://sodipodi.sourceforge.net/DTD/sodipodi-0.dtd"
   xmlns="http://www.w3.org/2000/svg"
   xmlns:svg="http://www.w3.org/2000/svg"
   xmlns:rdf="http://www.w3.org/1999/02/22-rdf-syntax-ns#"
   xmlns:cc="http://creativecommons.org/ns#"
   xmlns:dc="http://purl.org/dc/elements/1.1/">
  <defs
     id="defs954" />
  <sodipodi:namedview
     id="base"
     pagecolor="#ffffff"
     bordercolor="#666666"
     borderopacity="1.0"
     inkscape:pageopacity="0.0"
     inkscape:pageshadow="2"
     inkscape:zoom="22.4"
     inkscape:cx="18.214286"
     inkscape:cy="26.964286"
     inkscape:document-units="mm"
     inkscape:current-layer="layer1"
     inkscape:document-rotation="0"
     showgrid="false"
     inkscape:window-width="1920"
     inkscape:window-height="1048"
     inkscape:window-x="0"
     inkscape:window-y="0"
     inkscape:window-maximized="1"
     inkscape:showpageshadow="2"
     inkscape:pagecheckerboard="0"
     inkscape:deskcolor="#d1d1d1" />
  <metadata
     id="metadata957">
    <rdf:RDF>
      <cc:Work
         rdf:about="">
        <dc:format>image/svg+xml</dc:format>
        <dc:type
           rdf:resource="http://purl.org/dc/dcmitype/StillImage" />
      </cc:Work>
    </rdf:RDF>
  </metadata>
  <g
     inkscape:label="Lager 1"
     inkscape:groupmode="layer"
     id="layer1">
    <path
       style="color:#000000;fill:#000000;fill-opacity:1;stroke:none;stroke-width:0.026;stroke-linecap:round;stroke-linejoin:round;stroke-dasharray:none"
       d="M 8.7449038,7.1192824 C 8.7271614,6.9359023 8.6135239,6.7853143 8.4677662,6.6850412 8.2243704,6.5175985 7.8807639,6.4389746 7.495934,6.3810774 7.6109505,6.069917 7.5572183,5.773279 7.3824927,5.5792295 7.1956982,5.3717766 6.8995235,5.2820708 6.6037185,5.3407341 6.5381786,5.2419804 6.4570007,5.1655315 6.3670993,5.1149165 6.2408271,5.0438243 6.1057698,5.019748 5.9795633,5.012226 a 0.16876737,0.16876737 0 0 0 -0.011968,0.00416 0.16876737,0.16876737 0 0 0 -0.012019,-0.00385 C 5.8340022,5.0226127 5.7016364,5.0463972 5.5764081,5.1165392 5.4872548,5.1664751 5.4059666,5.2422664 5.3402452,5.3407848 5.0443223,5.2819806 4.7480335,5.3716938 4.5611668,5.5792295 4.3864326,5.7732909 4.3326809,6.0699486 4.4477255,6.3811281 4.0629388,6.439024 3.7193681,6.5176138 3.4759947,6.6850412 3.3302371,6.7853143 3.2165998,6.9359024 3.1988571,7.1192824 3.1811147,7.3026625 3.250314,7.4935659 3.3887204,7.7008909 a 0.16878424,0.16878424 0 0 0 0.011309,0.015061 c 0.221912,0.2633625 0.4687646,0.398414 0.7123424,0.420042 0.2435775,0.021628 0.4666387,-0.065852 0.6553933,-0.1869218 0.043909,-0.028164 0.086224,-0.058792 0.1274884,-0.090469 -0.08561,0.3607148 -0.050035,0.6514314 0.086057,0.8610786 C 5.097459,8.898607 5.2897583,9.0023377 5.490554,9.011272 5.652424,9.018472 5.8177361,8.966966 5.9701312,8.869179 6.1226315,8.966987 6.2881107,9.0184669 6.4501648,9.011272 6.65118,9.0023477 6.8437485,8.8988683 6.9604221,8.7200367 7.0972048,8.5103835 7.1333676,8.2193624 7.0479499,7.8582483 c 0.041418,0.031814 0.083963,0.062549 0.1280462,0.090824 0.1887546,0.1210698 0.411816,0.2085499 0.6553934,0.1869218 C 8.074967,8.1143662 8.3218206,7.979315 8.5437318,7.7159522 a 0.16878424,0.16878424 0 0 0 0.011309,-0.015061 C 8.6934474,7.4935659 8.7626461,7.3026627 8.7449038,7.1192824 Z M 8.4089411,7.1517883 C 8.4158749,7.2234547 8.3876724,7.3399647 8.279475,7.5047902 8.1008271,7.714191 7.9447179,7.7870632 7.8015205,7.7997782 7.6566359,7.8126429 7.5075608,7.7607558 7.3582527,7.6649873 7.1337395,7.5209815 6.9504158,7.3077927 6.8006308,7.131859 6.9855535,7.0314055 7.1671252,6.8972785 7.3198642,6.697364 7.7421449,6.7577716 8.1061178,6.8459405 8.276483,6.9631422 8.368364,7.0263511 8.4018766,7.0787715 8.4089411,7.1517883 Z M 7.2313222,6.0504901 C 7.2325788,6.1139792 7.2164898,6.1869935 7.18269,6.2683968 6.9789358,6.1328522 6.766277,6.0132569 6.5373373,5.930862 6.4622592,5.9038459 6.3797551,5.8840888 6.2973205,5.8668643 6.3906297,5.7882798 6.4933903,5.7276375 6.5784644,5.6965249 a 0.16878424,0.16878424 0 0 0 5.19e-5,0 c 0.2206195,-0.080705 0.4383463,-0.018938 0.5531593,0.108573 0.057407,0.063755 0.097639,0.1438891 0.099648,0.2453922 z m -0.2341343,0.50544 C 6.848177,6.7254545 6.6729453,6.8275558 6.4718182,6.9171977 6.3125296,6.9624316 6.1542925,6.9952809 5.9718044,6.996206 5.7892988,6.9952809 5.6310919,6.9624327 5.4717906,6.9171977 5.2706739,6.827555 5.0954336,6.7254545 4.9464209,6.5559301 5.1024356,6.4522325 5.2590447,6.3587869 5.4179857,6.2912676 5.540194,6.4137243 5.7114724,6.5162655 5.9673925,6.5215478 a 0.16876737,0.16876737 0 0 0 0.0035,-5.071e-4 0.16876737,0.16876737 0 0 0 0.00355,5.071e-4 C 6.2286808,6.5162397 6.4016419,6.4144166 6.5253694,6.2911662 6.6843836,6.3586945 6.8410815,6.4521816 6.9971879,6.5559301 Z M 6.7531648,8.2121628 C 6.7544864,8.3583509 6.7229752,8.4662916 6.677757,8.5355997 6.617466,8.6280105 6.5381352,8.669472 6.4352048,8.6740417 6.3322743,8.6786116 6.2037359,8.638204 6.0782475,8.5335205 a 0.16876737,0.16876737 0 0 0 -0.048277,-0.015061 0.16876737,0.16876737 0 0 0 -0.05989,-0.018712 0.16876737,0.16876737 0 0 0 -0.059839,0.018712 0.16876737,0.16876737 0 0 0 -0.048277,0.015061 C 5.7364069,8.638257 5.6080523,8.6786018 5.5055643,8.6740417 5.4030763,8.6694816 5.324359,8.6282211 5.2644318,8.535904 5.1506961,8.3606957 5.1297256,7.9346399 5.5010509,7.2701994 c 0.1438451,0.034681 0.2960593,0.062799 0.4699927,0.063592 a 0.16876737,0.16876737 0 0 0 7.608e-4,-1.039e-4 0.16876737,0.16876737 0 0 0 7.607e-4,1.039e-4 c 0.1739608,-7.945e-4 0.326224,-0.028898 0.4700943,-0.063592 0.224521,0.4018099 0.3084838,0.718216 0.3105054,0.9419634 z M 6.2750077,5.4680196 C 6.1694634,5.5275238 6.063585,5.606279 5.9705874,5.7073264 5.8784591,5.6067549 5.7737063,5.5281542 5.6689056,5.4686281 c 0.022868,-0.022686 0.046235,-0.042916 0.072466,-0.057608 0.060816,-0.034064 0.1388501,-0.051618 0.2297225,-0.060194 0.091353,0.00656 0.169322,0.023811 0.2304324,0.058217 0.026531,0.014937 0.050271,0.035629 0.073481,0.058976 z M 6.0791095,6.173668 c -0.03179,0.00474 -0.064306,0.00905 -0.1082687,0.010091 -0.044845,-0.00104 -0.077708,-0.0053 -0.1096377,-0.00999 0.036904,-0.00503 0.07499,-0.012053 0.1092322,-0.014757 0.033889,0.00267 0.071949,0.0097 0.1086742,0.014656 z M 5.6448176,5.8669657 C 5.5629641,5.884205 5.4811203,5.9039488 5.4063221,5.930862 5.1773795,6.0132494 4.9646937,6.1328156 4.7609697,6.2683461 4.6731553,6.0568221 4.7186797,5.9087239 4.8119852,5.8050979 4.9267961,5.6775879 5.144521,5.6158193 5.3651446,5.6965249 c 0.08495,0.031066 0.1869626,0.091661 0.279673,0.1704408 z M 5.1430795,7.1319096 C 4.9932998,7.3078366 4.8099976,7.5209965 4.5855082,7.6649873 4.4362002,7.7607555 4.2871254,7.8126429 4.1422405,7.7997782 3.9990427,7.7870632 3.8429347,7.714191 3.6642858,7.5047902 3.5560888,7.3399647 3.527886,7.2234547 3.53482,7.1517883 3.5418843,7.0787715 3.5753971,7.0263511 3.667278,6.9631422 3.8376146,6.84596 4.2015033,6.7578219 4.623694,6.6974148 4.7764584,6.8973514 4.9581362,7.0314551 5.1430795,7.1319096 Z"
       id="path914-7-7-0-1-1" />
    <path
       style="fill:#000000;fill-opacity:1;stroke:none;stroke-width:0.026;stroke-linecap:round;stroke-linejoin:round;stroke-dasharray:none"
       d="m 6.2352435,6.1540445 c -0.00835,-0.00847 -0.02252,-0.00633 -0.033284,-0.00985 -0.075307,-0.01272 -0.1508993,-0.025519 -0.2272199,-0.029988 -0.049465,9.845e-4 -0.09855,0.00887 -0.1475182,0.015416 -0.038408,0.00628 -0.077202,0.01157 -0.1149507,0.020986 -0.00968,0.00447 -0.00299,0.0157 0.00459,0.017996 0.042027,0.024027 0.088049,0.040637 0.1358106,0.048661 0.094799,0.017901 0.1938714,0.014323 0.2867129,-0.012185 0.032998,-0.010142 0.065434,-0.023632 0.094289,-0.04267 0.00253,-0.00228 0.00236,-0.00534 0.00157,-0.00837 z"
       id="path868" />
    <path
       style="fill:#000000;fill-opacity:1;stroke:none;stroke-width:0.026;stroke-linecap:round;stroke-linejoin:round;stroke-dasharray:none"
       d="M 6.3416156,5.4750089 C 6.3223824,5.446413 6.2957268,5.423643 6.2699848,5.4010774 6.196548,5.3435376 6.1035825,5.3186285 6.0122529,5.3086418 c -0.049634,-0.00805 -0.099547,0.00299 -0.1482731,0.011829 -0.085234,0.016994 -0.1687397,0.053736 -0.2296319,0.117181 -0.011007,0.011967 -0.02317,0.023688 -0.031962,0.037213 -0.00214,0.011033 0.013457,0.012624 0.020049,0.01832 0.1295498,0.070356 0.2458047,0.1640405 0.3433297,0.2747587 0.010906,0.00673 0.016491,-0.00963 0.023736,-0.015336 0.054513,-0.058594 0.1127803,-0.113669 0.1774688,-0.1608265 0.05418,-0.040384 0.1115486,-0.077054 0.1715365,-0.1080871 0.00296,-0.00249 0.00378,-0.00486 0.00311,-0.00868 z"
       id="path870" />
  </g>
</svg>
