%TF.GenerationSoftware,KiCad,Pcbnew,8.0.7*%
%TF.CreationDate,2025-01-25T18:23:14+01:00*%
%TF.ProjectId,termometer2,7465726d-6f6d-4657-9465-72322e6b6963,rev?*%
%TF.SameCoordinates,Original*%
%TF.FileFunction,Paste,Top*%
%TF.FilePolarity,Positive*%
%FSLAX46Y46*%
G04 Gerber Fmt 4.6, Leading zero omitted, Abs format (unit mm)*
G04 Created by KiCad (PCBNEW 8.0.7) date 2025-01-25 18:23:14*
%MOMM*%
%LPD*%
G01*
G04 APERTURE LIST*
G04 Aperture macros list*
%AMRoundRect*
0 Rectangle with rounded corners*
0 $1 Rounding radius*
0 $2 $3 $4 $5 $6 $7 $8 $9 X,Y pos of 4 corners*
0 Add a 4 corners polygon primitive as box body*
4,1,4,$2,$3,$4,$5,$6,$7,$8,$9,$2,$3,0*
0 Add four circle primitives for the rounded corners*
1,1,$1+$1,$2,$3*
1,1,$1+$1,$4,$5*
1,1,$1+$1,$6,$7*
1,1,$1+$1,$8,$9*
0 Add four rect primitives between the rounded corners*
20,1,$1+$1,$2,$3,$4,$5,0*
20,1,$1+$1,$4,$5,$6,$7,0*
20,1,$1+$1,$6,$7,$8,$9,0*
20,1,$1+$1,$8,$9,$2,$3,0*%
G04 Aperture macros list end*
%ADD10RoundRect,0.218750X-0.218750X-0.256250X0.218750X-0.256250X0.218750X0.256250X-0.218750X0.256250X0*%
%ADD11RoundRect,0.218750X0.218750X0.256250X-0.218750X0.256250X-0.218750X-0.256250X0.218750X-0.256250X0*%
%ADD12RoundRect,0.225000X0.250000X-0.225000X0.250000X0.225000X-0.250000X0.225000X-0.250000X-0.225000X0*%
%ADD13RoundRect,0.200000X0.200000X0.275000X-0.200000X0.275000X-0.200000X-0.275000X0.200000X-0.275000X0*%
%ADD14RoundRect,0.200000X-0.275000X0.200000X-0.275000X-0.200000X0.275000X-0.200000X0.275000X0.200000X0*%
%ADD15RoundRect,0.040000X-0.040000X-0.605000X0.040000X-0.605000X0.040000X0.605000X-0.040000X0.605000X0*%
%ADD16RoundRect,0.062500X-0.387500X-0.062500X0.387500X-0.062500X0.387500X0.062500X-0.387500X0.062500X0*%
%ADD17RoundRect,0.200000X0.275000X-0.200000X0.275000X0.200000X-0.275000X0.200000X-0.275000X-0.200000X0*%
%ADD18RoundRect,0.100000X0.100000X-0.712500X0.100000X0.712500X-0.100000X0.712500X-0.100000X-0.712500X0*%
%ADD19RoundRect,0.225000X-0.225000X-0.250000X0.225000X-0.250000X0.225000X0.250000X-0.225000X0.250000X0*%
%ADD20R,0.900000X0.800000*%
%ADD21RoundRect,0.150000X-0.150000X0.512500X-0.150000X-0.512500X0.150000X-0.512500X0.150000X0.512500X0*%
%ADD22RoundRect,0.225000X-0.250000X0.225000X-0.250000X-0.225000X0.250000X-0.225000X0.250000X0.225000X0*%
%ADD23RoundRect,0.200000X-0.200000X-0.275000X0.200000X-0.275000X0.200000X0.275000X-0.200000X0.275000X0*%
%ADD24RoundRect,0.150000X0.150000X-0.512500X0.150000X0.512500X-0.150000X0.512500X-0.150000X-0.512500X0*%
%ADD25R,1.550000X1.300000*%
%ADD26RoundRect,0.150000X-0.512500X-0.150000X0.512500X-0.150000X0.512500X0.150000X-0.512500X0.150000X0*%
%ADD27RoundRect,0.062500X0.062500X-0.325000X0.062500X0.325000X-0.062500X0.325000X-0.062500X-0.325000X0*%
%ADD28RoundRect,0.112500X-0.112500X0.187500X-0.112500X-0.187500X0.112500X-0.187500X0.112500X0.187500X0*%
%ADD29RoundRect,0.225000X0.225000X0.250000X-0.225000X0.250000X-0.225000X-0.250000X0.225000X-0.250000X0*%
%ADD30RoundRect,0.150000X0.587500X0.150000X-0.587500X0.150000X-0.587500X-0.150000X0.587500X-0.150000X0*%
%ADD31RoundRect,0.150000X-0.825000X-0.150000X0.825000X-0.150000X0.825000X0.150000X-0.825000X0.150000X0*%
%ADD32RoundRect,0.232500X0.232500X-0.232500X0.232500X0.232500X-0.232500X0.232500X-0.232500X-0.232500X0*%
%ADD33RoundRect,0.062500X0.062500X-0.375000X0.062500X0.375000X-0.062500X0.375000X-0.062500X-0.375000X0*%
%ADD34RoundRect,0.062500X0.375000X-0.062500X0.375000X0.062500X-0.375000X0.062500X-0.375000X-0.062500X0*%
G04 APERTURE END LIST*
D10*
%TO.C,D1*%
X100997500Y-48500000D03*
X102572500Y-48500000D03*
%TD*%
D11*
%TO.C,D2*%
X102572500Y-50500000D03*
X100997500Y-50500000D03*
%TD*%
D12*
%TO.C,C10*%
X116050000Y-198525000D03*
X116050000Y-196975000D03*
%TD*%
D13*
%TO.C,R13*%
X116825000Y-186500000D03*
X115175000Y-186500000D03*
%TD*%
D11*
%TO.C,D50*%
X102572500Y-132500000D03*
X100997500Y-132500000D03*
%TD*%
D14*
%TO.C,RV11*%
X114250000Y-210775000D03*
X114250000Y-212425000D03*
%TD*%
D10*
%TO.C,D16*%
X100997500Y-120500000D03*
X102572500Y-120500000D03*
%TD*%
D15*
%TO.C,U5*%
X108400000Y-191300000D03*
D16*
X106975000Y-190550000D03*
X106975000Y-191050000D03*
X106975000Y-191550000D03*
X106975000Y-192050000D03*
X109825000Y-192050000D03*
X109825000Y-191550000D03*
X109825000Y-191050000D03*
X109825000Y-190550000D03*
%TD*%
D11*
%TO.C,D8*%
X102572500Y-142500000D03*
X100997500Y-142500000D03*
%TD*%
D17*
%TO.C,R9*%
X104000000Y-222435000D03*
X104000000Y-220785000D03*
%TD*%
D11*
%TO.C,D85*%
X102572500Y-222500000D03*
X100997500Y-222500000D03*
%TD*%
D12*
%TO.C,C14*%
X95000000Y-214075000D03*
X95000000Y-212525000D03*
%TD*%
D13*
%TO.C,R20*%
X89075000Y-220200000D03*
X87425000Y-220200000D03*
%TD*%
D11*
%TO.C,D25*%
X102572500Y-58500000D03*
X100997500Y-58500000D03*
%TD*%
D18*
%TO.C,U7*%
X111225000Y-115612500D03*
X111875000Y-115612500D03*
X112525000Y-115612500D03*
X113175000Y-115612500D03*
X113175000Y-111387500D03*
X112525000Y-111387500D03*
X111875000Y-111387500D03*
X111225000Y-111387500D03*
%TD*%
D19*
%TO.C,C9*%
X113175000Y-193500000D03*
X114725000Y-193500000D03*
%TD*%
%TO.C,C7*%
X111475000Y-190800000D03*
X113025000Y-190800000D03*
%TD*%
D20*
%TO.C,Y1*%
X105050000Y-200050000D03*
X106450000Y-200050000D03*
X106450000Y-198950000D03*
X105050000Y-198950000D03*
%TD*%
D10*
%TO.C,D22*%
X100997500Y-164500000D03*
X102572500Y-164500000D03*
%TD*%
D11*
%TO.C,D38*%
X102572500Y-128500000D03*
X100997500Y-128500000D03*
%TD*%
D10*
%TO.C,D51*%
X100997500Y-134500000D03*
X102572500Y-134500000D03*
%TD*%
D11*
%TO.C,D37*%
X102572500Y-98500000D03*
X100997500Y-98500000D03*
%TD*%
D14*
%TO.C,RV2*%
X111750000Y-203075000D03*
X111750000Y-204725000D03*
%TD*%
D17*
%TO.C,RV4*%
X108500000Y-184575000D03*
X108500000Y-182925000D03*
%TD*%
%TO.C,R15*%
X112595000Y-209225000D03*
X112595000Y-207575000D03*
%TD*%
D11*
%TO.C,D15*%
X102572500Y-90500000D03*
X100997500Y-90500000D03*
%TD*%
D10*
%TO.C,D54*%
X100997500Y-176500000D03*
X102572500Y-176500000D03*
%TD*%
D14*
%TO.C,RV1*%
X110250000Y-220802500D03*
X110250000Y-222452500D03*
%TD*%
D21*
%TO.C,U8*%
X112450000Y-50062500D03*
X111500000Y-50062500D03*
X110550000Y-50062500D03*
X110550000Y-52337500D03*
X111500000Y-52337500D03*
X112450000Y-52337500D03*
%TD*%
D19*
%TO.C,C4*%
X115225000Y-188500000D03*
X116775000Y-188500000D03*
%TD*%
D22*
%TO.C,C15*%
X89212500Y-212015000D03*
X89212500Y-213565000D03*
%TD*%
D10*
%TO.C,D86*%
X100997500Y-208500000D03*
X102572500Y-208500000D03*
%TD*%
%TO.C,D62*%
X100997500Y-212500000D03*
X102572500Y-212500000D03*
%TD*%
D11*
%TO.C,D27*%
X102572500Y-94500000D03*
X100997500Y-94500000D03*
%TD*%
%TO.C,D45*%
X102572500Y-174500000D03*
X100997500Y-174500000D03*
%TD*%
D14*
%TO.C,RV7*%
X104250000Y-185675000D03*
X104250000Y-187325000D03*
%TD*%
%TO.C,RV12*%
X106200000Y-226275000D03*
X106200000Y-227925000D03*
%TD*%
D17*
%TO.C,RV9*%
X112250000Y-189150000D03*
X112250000Y-187500000D03*
%TD*%
D22*
%TO.C,C8*%
X92000000Y-215825000D03*
X92000000Y-217375000D03*
%TD*%
D10*
%TO.C,D34*%
X100997500Y-60500000D03*
X102572500Y-60500000D03*
%TD*%
%TO.C,D40*%
X100997500Y-152500000D03*
X102572500Y-152500000D03*
%TD*%
%TO.C,D48*%
X100997500Y-100500000D03*
X102572500Y-100500000D03*
%TD*%
D11*
%TO.C,D87*%
X102572500Y-210500000D03*
X100997500Y-210500000D03*
%TD*%
D17*
%TO.C,R26*%
X114900000Y-204725000D03*
X114900000Y-203075000D03*
%TD*%
D11*
%TO.C,D33*%
X102572500Y-170500000D03*
X100997500Y-170500000D03*
%TD*%
%TO.C,D41*%
X102572500Y-154500000D03*
X100997500Y-154500000D03*
%TD*%
D23*
%TO.C,R6*%
X113350000Y-221750000D03*
X115000000Y-221750000D03*
%TD*%
D10*
%TO.C,D20*%
X100997500Y-160500000D03*
X102572500Y-160500000D03*
%TD*%
%TO.C,D30*%
X100997500Y-148500000D03*
X102572500Y-148500000D03*
%TD*%
%TO.C,D11*%
X91912500Y-195500000D03*
X93487500Y-195500000D03*
%TD*%
%TO.C,D26*%
X100997500Y-92500000D03*
X102572500Y-92500000D03*
%TD*%
D11*
%TO.C,D60*%
X102572500Y-136500000D03*
X100997500Y-136500000D03*
%TD*%
D17*
%TO.C,R7*%
X104000000Y-211825000D03*
X104000000Y-210175000D03*
%TD*%
D23*
%TO.C,R18*%
X94175000Y-219600000D03*
X95825000Y-219600000D03*
%TD*%
D24*
%TO.C,U2*%
X107750000Y-218887500D03*
X108700000Y-218887500D03*
X109650000Y-218887500D03*
X109650000Y-216612500D03*
X107750000Y-216612500D03*
%TD*%
D11*
%TO.C,D49*%
X102572500Y-102500000D03*
X100997500Y-102500000D03*
%TD*%
D22*
%TO.C,C1*%
X90500000Y-215825000D03*
X90500000Y-217375000D03*
%TD*%
D11*
%TO.C,D19*%
X102572500Y-146500000D03*
X100997500Y-146500000D03*
%TD*%
%TO.C,D81*%
X102572500Y-114500000D03*
X100997500Y-114500000D03*
%TD*%
D13*
%TO.C,R24*%
X92575000Y-210000000D03*
X90925000Y-210000000D03*
%TD*%
%TO.C,R14*%
X99575000Y-223500000D03*
X97925000Y-223500000D03*
%TD*%
D11*
%TO.C,D55*%
X102572500Y-178500000D03*
X100997500Y-178500000D03*
%TD*%
D23*
%TO.C,R5*%
X113350000Y-223500000D03*
X115000000Y-223500000D03*
%TD*%
D10*
%TO.C,D39*%
X100997500Y-130500000D03*
X102572500Y-130500000D03*
%TD*%
D25*
%TO.C,SW3*%
X115075000Y-174150001D03*
X107125000Y-174150001D03*
X115075000Y-169650001D03*
X107125000Y-169650001D03*
%TD*%
D10*
%TO.C,D74*%
X100997500Y-204500000D03*
X102572500Y-204500000D03*
%TD*%
%TO.C,D29*%
X100997500Y-126500000D03*
X102572500Y-126500000D03*
%TD*%
%TO.C,D9*%
X100997500Y-156500000D03*
X102572500Y-156500000D03*
%TD*%
%TO.C,D80*%
X100997500Y-112500000D03*
X102572500Y-112500000D03*
%TD*%
D17*
%TO.C,RV5*%
X106400000Y-184525000D03*
X106400000Y-182875000D03*
%TD*%
D10*
%TO.C,D90*%
X100997500Y-80500000D03*
X102572500Y-80500000D03*
%TD*%
D12*
%TO.C,C3*%
X110300000Y-203025000D03*
X110300000Y-201475000D03*
%TD*%
D19*
%TO.C,C6*%
X104975000Y-201750000D03*
X106525000Y-201750000D03*
%TD*%
D10*
%TO.C,D32*%
X100997500Y-168500000D03*
X102572500Y-168500000D03*
%TD*%
D11*
%TO.C,D89*%
X102572500Y-190500000D03*
X100997500Y-190500000D03*
%TD*%
%TO.C,D53*%
X102572500Y-198500000D03*
X100997500Y-198500000D03*
%TD*%
%TO.C,D31*%
X102572500Y-150500000D03*
X100997500Y-150500000D03*
%TD*%
D10*
%TO.C,D68*%
X100997500Y-72500000D03*
X102572500Y-72500000D03*
%TD*%
D14*
%TO.C,R25*%
X116400000Y-203075000D03*
X116400000Y-204725000D03*
%TD*%
D19*
%TO.C,C5*%
X104725000Y-197250000D03*
X106275000Y-197250000D03*
%TD*%
D10*
%TO.C,D42*%
X100997500Y-192500000D03*
X102572500Y-192500000D03*
%TD*%
D11*
%TO.C,D75*%
X102572500Y-206500000D03*
X100997500Y-206500000D03*
%TD*%
D13*
%TO.C,R16*%
X95575000Y-210000000D03*
X93925000Y-210000000D03*
%TD*%
D11*
%TO.C,D13*%
X102572500Y-54500000D03*
X100997500Y-54500000D03*
%TD*%
D12*
%TO.C,C12*%
X106200000Y-217075000D03*
X106200000Y-215525000D03*
%TD*%
D26*
%TO.C,U4*%
X90962500Y-211600000D03*
X90962500Y-212550000D03*
X90962500Y-213500000D03*
X93237500Y-213500000D03*
X93237500Y-211600000D03*
%TD*%
D11*
%TO.C,D6*%
X102572500Y-118500000D03*
X100997500Y-118500000D03*
%TD*%
D17*
%TO.C,R12*%
X106200000Y-224925000D03*
X106200000Y-223275000D03*
%TD*%
D11*
%TO.C,D91*%
X102572500Y-82500000D03*
X100997500Y-82500000D03*
%TD*%
D10*
%TO.C,D46*%
X100997500Y-64500000D03*
X102572500Y-64500000D03*
%TD*%
%TO.C,D14*%
X100997500Y-88500000D03*
X102572500Y-88500000D03*
%TD*%
D27*
%TO.C,U3*%
X87750000Y-218750000D03*
X88250000Y-218750000D03*
X88750000Y-218750000D03*
X88750000Y-216775000D03*
X88250000Y-216775000D03*
X87750000Y-216775000D03*
%TD*%
D10*
%TO.C,D82*%
X100997500Y-224500000D03*
X102572500Y-224500000D03*
%TD*%
%TO.C,D72*%
X100997500Y-216500000D03*
X102572500Y-216500000D03*
%TD*%
%TO.C,D36*%
X100997500Y-96500000D03*
X102572500Y-96500000D03*
%TD*%
D11*
%TO.C,D59*%
X102572500Y-106500000D03*
X100997500Y-106500000D03*
%TD*%
D10*
%TO.C,D52*%
X100997500Y-196500000D03*
X102572500Y-196500000D03*
%TD*%
%TO.C,D24*%
X100997500Y-56500000D03*
X102572500Y-56500000D03*
%TD*%
%TO.C,D56*%
X100997500Y-68500000D03*
X102572500Y-68500000D03*
%TD*%
D23*
%TO.C,R8*%
X97925000Y-195500000D03*
X99575000Y-195500000D03*
%TD*%
D10*
%TO.C,D61*%
X100997500Y-138500000D03*
X102572500Y-138500000D03*
%TD*%
D11*
%TO.C,D35*%
X102572500Y-62500000D03*
X100997500Y-62500000D03*
%TD*%
%TO.C,D17*%
X102572500Y-122500000D03*
X100997500Y-122500000D03*
%TD*%
D22*
%TO.C,C16*%
X108500000Y-201475000D03*
X108500000Y-203025000D03*
%TD*%
D11*
%TO.C,D4*%
X102572500Y-86500000D03*
X100997500Y-86500000D03*
%TD*%
D13*
%TO.C,R10*%
X99575000Y-215500000D03*
X97925000Y-215500000D03*
%TD*%
D12*
%TO.C,C17*%
X109000000Y-51775000D03*
X109000000Y-50225000D03*
%TD*%
D10*
%TO.C,D18*%
X100997500Y-144500000D03*
X102572500Y-144500000D03*
%TD*%
%TO.C,D76*%
X100997500Y-184500000D03*
X102572500Y-184500000D03*
%TD*%
D14*
%TO.C,RV10*%
X104000000Y-223785000D03*
X104000000Y-225435000D03*
%TD*%
D10*
%TO.C,D44*%
X100997500Y-172500000D03*
X102572500Y-172500000D03*
%TD*%
D11*
%TO.C,D69*%
X102572500Y-74500000D03*
X100997500Y-74500000D03*
%TD*%
%TO.C,D71*%
X102572500Y-110500000D03*
X100997500Y-110500000D03*
%TD*%
D10*
%TO.C,D5*%
X100997500Y-116500000D03*
X102572500Y-116500000D03*
%TD*%
D14*
%TO.C,RV6*%
X104250000Y-192175000D03*
X104250000Y-193825000D03*
%TD*%
D11*
%TO.C,D43*%
X102572500Y-194500000D03*
X100997500Y-194500000D03*
%TD*%
%TO.C,D21*%
X102572500Y-162500000D03*
X100997500Y-162500000D03*
%TD*%
D10*
%TO.C,D12*%
X100997500Y-52500000D03*
X102572500Y-52500000D03*
%TD*%
D11*
%TO.C,D67*%
X102572500Y-182500000D03*
X100997500Y-182500000D03*
%TD*%
%TO.C,D83*%
X102572500Y-226500000D03*
X100997500Y-226500000D03*
%TD*%
D12*
%TO.C,C13*%
X113350000Y-204675000D03*
X113350000Y-203125000D03*
%TD*%
D10*
%TO.C,D84*%
X100997500Y-220500000D03*
X102572500Y-220500000D03*
%TD*%
D11*
%TO.C,D47*%
X102572500Y-66500000D03*
X100997500Y-66500000D03*
%TD*%
%TO.C,D77*%
X102572500Y-186500000D03*
X100997500Y-186500000D03*
%TD*%
D23*
%TO.C,R17*%
X96425000Y-211500000D03*
X98075000Y-211500000D03*
%TD*%
D28*
%TO.C,D93*%
X108500000Y-220600000D03*
X108500000Y-222700000D03*
%TD*%
D11*
%TO.C,D10*%
X102572500Y-158500000D03*
X100997500Y-158500000D03*
%TD*%
D13*
%TO.C,R2*%
X105575000Y-113500000D03*
X103925000Y-113500000D03*
%TD*%
D14*
%TO.C,RV8*%
X104000000Y-213175000D03*
X104000000Y-214825000D03*
%TD*%
D11*
%TO.C,D65*%
X102572500Y-202500000D03*
X100997500Y-202500000D03*
%TD*%
D10*
%TO.C,D88*%
X100997500Y-188500000D03*
X102572500Y-188500000D03*
%TD*%
%TO.C,D58*%
X100997500Y-104500000D03*
X102572500Y-104500000D03*
%TD*%
%TO.C,D70*%
X100997500Y-108500000D03*
X102572500Y-108500000D03*
%TD*%
D29*
%TO.C,C21*%
X112275000Y-54300000D03*
X110725000Y-54300000D03*
%TD*%
D11*
%TO.C,D57*%
X102572500Y-70500000D03*
X100997500Y-70500000D03*
%TD*%
D10*
%TO.C,D66*%
X100997500Y-180500000D03*
X102572500Y-180500000D03*
%TD*%
D11*
%TO.C,D73*%
X102572500Y-218500000D03*
X100997500Y-218500000D03*
%TD*%
D13*
%TO.C,R4*%
X99575000Y-165500000D03*
X97925000Y-165500000D03*
%TD*%
D10*
%TO.C,D7*%
X100997500Y-140500000D03*
X102572500Y-140500000D03*
%TD*%
D13*
%TO.C,RV13*%
X99575000Y-221500000D03*
X97925000Y-221500000D03*
%TD*%
D10*
%TO.C,D78*%
X100997500Y-76500000D03*
X102572500Y-76500000D03*
%TD*%
D17*
%TO.C,R3*%
X104250000Y-190825000D03*
X104250000Y-189175000D03*
%TD*%
D11*
%TO.C,D79*%
X102572500Y-78500000D03*
X100997500Y-78500000D03*
%TD*%
D30*
%TO.C,Q1*%
X96175000Y-217450000D03*
X96175000Y-215550000D03*
X94300000Y-216500000D03*
%TD*%
D10*
%TO.C,D64*%
X100997500Y-200500000D03*
X102572500Y-200500000D03*
%TD*%
D11*
%TO.C,D92*%
X93487500Y-192500000D03*
X91912500Y-192500000D03*
%TD*%
D31*
%TO.C,U6*%
X109725000Y-111595000D03*
X109725000Y-112865000D03*
X109725000Y-114135000D03*
X109725000Y-115405000D03*
X114675000Y-115405000D03*
X114675000Y-114135000D03*
X114675000Y-112865000D03*
X114675000Y-111595000D03*
%TD*%
D32*
%TO.C,U1*%
X109962500Y-198650000D03*
X111112500Y-198650000D03*
X112262500Y-198650000D03*
X109962500Y-197500000D03*
X111112500Y-197500000D03*
X112262500Y-197500000D03*
X109962500Y-196350000D03*
X111112500Y-196350000D03*
X112262500Y-196350000D03*
D33*
X109362500Y-199937500D03*
X109862500Y-199937500D03*
X110362500Y-199937500D03*
X110862500Y-199937500D03*
X111362500Y-199937500D03*
X111862500Y-199937500D03*
X112362500Y-199937500D03*
X112862500Y-199937500D03*
D34*
X113550000Y-199250000D03*
X113550000Y-198750000D03*
X113550000Y-198250000D03*
X113550000Y-197750000D03*
X113550000Y-197250000D03*
X113550000Y-196750000D03*
X113550000Y-196250000D03*
X113550000Y-195750000D03*
D33*
X112862500Y-195062500D03*
X112362500Y-195062500D03*
X111862500Y-195062500D03*
X111362500Y-195062500D03*
X110862500Y-195062500D03*
X110362500Y-195062500D03*
X109862500Y-195062500D03*
X109362500Y-195062500D03*
D34*
X108675000Y-195750000D03*
X108675000Y-196250000D03*
X108675000Y-196750000D03*
X108675000Y-197250000D03*
X108675000Y-197750000D03*
X108675000Y-198250000D03*
X108675000Y-198750000D03*
X108675000Y-199250000D03*
%TD*%
D14*
%TO.C,RV3*%
X107500000Y-50175000D03*
X107500000Y-51825000D03*
%TD*%
D11*
%TO.C,D23*%
X102572500Y-166500000D03*
X100997500Y-166500000D03*
%TD*%
D17*
%TO.C,R19*%
X104700000Y-181625000D03*
X104700000Y-179975000D03*
%TD*%
D22*
%TO.C,C11*%
X106200000Y-218475000D03*
X106200000Y-220025000D03*
%TD*%
D10*
%TO.C,D28*%
X100997500Y-124500000D03*
X102572500Y-124500000D03*
%TD*%
D13*
%TO.C,R11*%
X89075000Y-215250000D03*
X87425000Y-215250000D03*
%TD*%
D11*
%TO.C,D63*%
X102572500Y-214500000D03*
X100997500Y-214500000D03*
%TD*%
D10*
%TO.C,D3*%
X100997500Y-84500000D03*
X102572500Y-84500000D03*
%TD*%
D13*
%TO.C,R1*%
X105825000Y-83500000D03*
X104175000Y-83500000D03*
%TD*%
M02*
