M48
; DRILL file {KiCad 8.0.7} date 2024-12-30T17:39:48+0100
; FORMAT={-:-/ absolute / inch / decimal}
; #@! TF.CreationDate,2024-12-30T17:39:48+01:00
; #@! TF.GenerationSoftware,Kicad,Pcbnew,8.0.7
; #@! TF.FileFunction,Plated,1,2,PTH
FMAT,2
INCH
; #@! TA.AperFunction,Plated,PTH,ViaDrill
T1C0.0118
; #@! TA.AperFunction,Plated,PTH,ComponentDrill
T2C0.0236
; #@! TA.AperFunction,Plated,PTH,ComponentDrill
T3C0.0374
; #@! TA.AperFunction,Plated,PTH,ComponentDrill
T4C0.0689
%
G90
G05
T1
X3.5433Y-8.4055
X3.5433Y-8.4409
X3.6024Y-8.6614
X3.622Y-8.3661
X3.6535Y-8.437
X3.6575Y-8.3661
X3.6614Y-8.5768
X3.689Y-8.437
X3.6929Y-8.3661
X3.7953Y-8.7205
X3.8583Y-8.6417
X3.8839Y-3.8287
X3.8976Y-8.563
X3.9114Y-3.7992
X3.9138Y-3.275
X3.9272Y-4.4685
X3.9272Y-7.7379
X3.9311Y-6.563
X3.9342Y-2.635
X3.937Y-5.0984
X3.937Y-5.3346
X3.9452Y-3.2014
X3.9469Y-2.8968
X3.9469Y-4.312
X3.9469Y-6.6732
X3.9538Y-6.8366
X3.9567Y-4.1535
X3.9589Y-6.9097
X3.9882Y-5.7283
X3.9882Y-7.9331
X3.9915Y-4.0723
X3.9921Y-7.1457
X3.9934Y-8.7991
X3.9958Y-3.4453
X3.9961Y-3.1299
X3.9961Y-7.3819
X3.9961Y-7.6969
X3.9961Y-8.4843
X3.9975Y-6.2798
X3.9977Y-7.8549
X3.998Y-6.0433
X3.9987Y-4.3092
X3.9994Y-3.6811
X4.0004Y-3.6045
X4.0119Y-7.2232
X4.0157Y-5.3346
X4.0177Y-5.2539
X4.0217Y-7.5394
X4.0218Y-6.9094
X4.0264Y-5.7283
X4.0452Y-5.1046
X4.0551Y-8.878
X4.0619Y-3.5222
X4.065Y-4.626
X4.0768Y-4.5261
X4.0945Y-8.7835
X4.1012Y-7.6772
X4.1043Y-7.2638
X4.1043Y-7.5394
X4.1043Y-7.6033
X4.1083Y-8.5039
X4.124Y-8.3647
X4.1299Y-7.2298
X4.1299Y-8.9724
X4.1353Y-3.2564
X4.1446Y-7.3416
X4.1811Y-8.9331
X4.1928Y-7.6364
X4.1932Y-7.6006
X4.1973Y-7.6887
X4.2126Y-8.3898
X4.2165Y-6.7701
X4.2283Y-7.2303
X4.2321Y-7.2815
X4.2394Y-7.5945
X4.2395Y-7.6909
X4.2403Y-7.7421
X4.2618Y-2.0866
X4.2717Y-7.8941
X4.2795Y-8.5694
X4.2835Y-6.6811
X4.3071Y-8.0413
X4.3228Y-7.7756
X4.338Y-7.6033
X4.3465Y-7.3071
X4.357Y-7.6351
X4.3701Y-7.4705
X4.372Y-7.8248
X4.374Y-7.7244
X4.378Y-4.6181
X4.378Y-7.9567
X4.4183Y-4.469
X4.4213Y-7.2638
X4.4213Y-7.7756
X4.4233Y-8.8083
X4.4246Y-8.7207
X4.4311Y-8.126
X4.4408Y-8.6891
X4.4409Y-8.3031
X4.4685Y-7.3819
X4.47Y-7.8745
X4.4803Y-1.971
X4.4842Y-7.5471
X4.498Y-8.1929
X4.5055Y-7.86
X4.5098Y-7.5748
X4.5098Y-7.6929
X4.5295Y-7.7776
X4.5374Y-7.8445
X4.5394Y-8.2992
X4.5491Y-7.6947
X4.5514Y-7.6575
X4.5557Y-7.9044
X4.5666Y-7.2563
X4.5669Y-7.3819
X4.6026Y-7.6102
T3
X4.3002Y-8.185
X4.3002Y-8.2835
X4.3002Y-8.3819
T4
X3.7323Y-6.0925
X3.7323Y-8.9272
T2
G00X4.4181Y-8.5986
M15
G01X4.3748Y-8.5986
M16
G05
G00X4.4181Y-8.9388
M15
G01X4.3748Y-8.9388
M16
G05
G00X4.5776Y-8.5986
M15
G01X4.5461Y-8.5986
M16
G05
G00X4.5776Y-8.9388
M15
G01X4.5461Y-8.9388
M16
G05
M30
