%TF.GenerationSoftware,KiCad,Pcbnew,8.0.7*%
%TF.CreationDate,2025-01-25T18:23:14+01:00*%
%TF.ProjectId,termometer2,7465726d-6f6d-4657-9465-72322e6b6963,rev?*%
%TF.SameCoordinates,Original*%
%TF.FileFunction,Legend,Bot*%
%TF.FilePolarity,Positive*%
%FSLAX46Y46*%
G04 Gerber Fmt 4.6, Leading zero omitted, Abs format (unit mm)*
G04 Created by KiCad (PCBNEW 8.0.7) date 2025-01-25 18:23:14*
%MOMM*%
%LPD*%
G01*
G04 APERTURE LIST*
%ADD10C,0.312500*%
%ADD11C,0.200000*%
%ADD12C,0.300000*%
%ADD13C,0.120000*%
G04 APERTURE END LIST*
D10*
G36*
X118004817Y-183919719D02*
G01*
X118073006Y-183917133D01*
X118137438Y-183909372D01*
X118198114Y-183896439D01*
X118264154Y-183874811D01*
X118325081Y-183846141D01*
X118380427Y-183810708D01*
X118429725Y-183768787D01*
X118472974Y-183720381D01*
X118510176Y-183665487D01*
X118528718Y-183631208D01*
X118555960Y-183566338D01*
X118573985Y-183506131D01*
X118587094Y-183441674D01*
X118595287Y-183372967D01*
X118598565Y-183300009D01*
X118598633Y-183287436D01*
X118596427Y-183223015D01*
X118589809Y-183161721D01*
X118576843Y-183095499D01*
X118558115Y-183033360D01*
X118552532Y-183018463D01*
X118527058Y-182961696D01*
X118492972Y-182903352D01*
X118453138Y-182850853D01*
X118423389Y-182819100D01*
X118374528Y-182776534D01*
X118321368Y-182740199D01*
X118263910Y-182710095D01*
X118230131Y-182696063D01*
X118166735Y-182675844D01*
X118100537Y-182662242D01*
X118039343Y-182655707D01*
X117991995Y-182654236D01*
X117925933Y-182656329D01*
X117860696Y-182663384D01*
X117816445Y-182671944D01*
X117755929Y-182687930D01*
X117696430Y-182709385D01*
X117693408Y-182710717D01*
X117637194Y-182737679D01*
X117625630Y-182744606D01*
X117695545Y-182938779D01*
X117753476Y-182911607D01*
X117812556Y-182890837D01*
X117821635Y-182888099D01*
X117884600Y-182873866D01*
X117949250Y-182867169D01*
X117989858Y-182866117D01*
X118055844Y-182871420D01*
X118117789Y-182887329D01*
X118170597Y-182910996D01*
X118222953Y-182947479D01*
X118267517Y-182995217D01*
X118301267Y-183048383D01*
X118327027Y-183111018D01*
X118342054Y-183175955D01*
X118348923Y-183240488D01*
X118350116Y-183284077D01*
X118347121Y-183350817D01*
X118338137Y-183413307D01*
X118321131Y-183477754D01*
X118312258Y-183502064D01*
X118284393Y-183557854D01*
X118244031Y-183610131D01*
X118193495Y-183652884D01*
X118138218Y-183681864D01*
X118073520Y-183700111D01*
X118007237Y-183707356D01*
X117983446Y-183707839D01*
X117920018Y-183706003D01*
X117858265Y-183699659D01*
X117796284Y-183686063D01*
X117791716Y-183684636D01*
X117733746Y-183664684D01*
X117675700Y-183640061D01*
X117610060Y-183833013D01*
X117668691Y-183861099D01*
X117732017Y-183882794D01*
X117762712Y-183891631D01*
X117823089Y-183905209D01*
X117889504Y-183914343D01*
X117953609Y-183918732D01*
X118004817Y-183919719D01*
G37*
G36*
X117429625Y-183894685D02*
G01*
X117429625Y-182682019D01*
X116636752Y-182682019D01*
X116636752Y-182883214D01*
X117190573Y-182883214D01*
X117190573Y-183161956D01*
X116698423Y-183161956D01*
X116698423Y-183358877D01*
X117190573Y-183358877D01*
X117190573Y-183693489D01*
X116595536Y-183693489D01*
X116595536Y-183894685D01*
X117429625Y-183894685D01*
G37*
G36*
X116088450Y-182669470D02*
G01*
X116150868Y-182672046D01*
X116212686Y-182676218D01*
X116264168Y-182680989D01*
X116325123Y-182689050D01*
X116389151Y-182700642D01*
X116389151Y-183894685D01*
X116150098Y-183894685D01*
X116150098Y-183441309D01*
X116001721Y-183441309D01*
X115989509Y-183441003D01*
X115976991Y-183440088D01*
X115956572Y-183464871D01*
X115918029Y-183516246D01*
X115881736Y-183569842D01*
X115851087Y-183617587D01*
X115817097Y-183671966D01*
X115782818Y-183728294D01*
X115752061Y-183780357D01*
X115719468Y-183837557D01*
X115688174Y-183894685D01*
X115421339Y-183894685D01*
X115433389Y-183869297D01*
X115461264Y-183813700D01*
X115491559Y-183757298D01*
X115506184Y-183731187D01*
X115538463Y-183675351D01*
X115571548Y-183620522D01*
X115584421Y-183599763D01*
X115617819Y-183547954D01*
X115653675Y-183495653D01*
X115690754Y-183444491D01*
X115729695Y-183394292D01*
X115709132Y-183385899D01*
X115652787Y-183356854D01*
X115599586Y-183317785D01*
X115556283Y-183271560D01*
X115538516Y-183245356D01*
X115512017Y-183185702D01*
X115498466Y-183123755D01*
X115494612Y-183062122D01*
X115494632Y-183060290D01*
X115741602Y-183060290D01*
X115748206Y-183118385D01*
X115776101Y-183175389D01*
X115822580Y-183212526D01*
X115879905Y-183233702D01*
X115926547Y-183242396D01*
X115991806Y-183248579D01*
X116053928Y-183250189D01*
X116150098Y-183250189D01*
X116150098Y-182879550D01*
X116096975Y-182875276D01*
X116091353Y-182874839D01*
X116029809Y-182872833D01*
X116002634Y-182873273D01*
X115937491Y-182878533D01*
X115876241Y-182890846D01*
X115825125Y-182910782D01*
X115776407Y-182949465D01*
X115750303Y-182997474D01*
X115741602Y-183060290D01*
X115494632Y-183060290D01*
X115494750Y-183049724D01*
X115501390Y-182979586D01*
X115517991Y-182916724D01*
X115544553Y-182861140D01*
X115588130Y-182805489D01*
X115636272Y-182765672D01*
X115663937Y-182748376D01*
X115725882Y-182718888D01*
X115784243Y-182699513D01*
X115848731Y-182684863D01*
X115919346Y-182674940D01*
X115980249Y-182670403D01*
X116045074Y-182668891D01*
X116088450Y-182669470D01*
G37*
G36*
X115241210Y-183894685D02*
G01*
X115241210Y-182682019D01*
X115047342Y-182682019D01*
X115003172Y-182728797D01*
X114960611Y-182777076D01*
X114934990Y-182807499D01*
X114893873Y-182857769D01*
X114851963Y-182910348D01*
X114813174Y-182960150D01*
X114773926Y-183011223D01*
X114734797Y-183063310D01*
X114695787Y-183116410D01*
X114688000Y-183127151D01*
X114649389Y-183180591D01*
X114611793Y-183233674D01*
X114575210Y-183286398D01*
X114568015Y-183296900D01*
X114532816Y-183348527D01*
X114496094Y-183403802D01*
X114461464Y-183457490D01*
X114461464Y-182682019D01*
X114224243Y-182682019D01*
X114224243Y-183894685D01*
X114424828Y-183894685D01*
X114457004Y-183838029D01*
X114490985Y-183780147D01*
X114523441Y-183726462D01*
X114557209Y-183671973D01*
X114592110Y-183616887D01*
X114628145Y-183561205D01*
X114635487Y-183549997D01*
X114672452Y-183493975D01*
X114710072Y-183438489D01*
X114748348Y-183383541D01*
X114756082Y-183372615D01*
X114794937Y-183318579D01*
X114834030Y-183265616D01*
X114873362Y-183213726D01*
X114881257Y-183203477D01*
X114920386Y-183153323D01*
X114959157Y-183105136D01*
X115001392Y-183054404D01*
X115005210Y-183049910D01*
X115005210Y-183894685D01*
X115241210Y-183894685D01*
G37*
G36*
X113014390Y-182655220D02*
G01*
X113079498Y-182661950D01*
X113142675Y-182675055D01*
X113203919Y-182694536D01*
X113236833Y-182708106D01*
X113293186Y-182737454D01*
X113345819Y-182773129D01*
X113394734Y-182815131D01*
X113424837Y-182846573D01*
X113465243Y-182898726D01*
X113499949Y-182956868D01*
X113526014Y-183013578D01*
X113531745Y-183028494D01*
X113550969Y-183091091D01*
X113564279Y-183158382D01*
X113571072Y-183221112D01*
X113573336Y-183287436D01*
X113572628Y-183325668D01*
X113568299Y-183386812D01*
X113557909Y-183455935D01*
X113541852Y-183520420D01*
X113520128Y-183580270D01*
X113492736Y-183635482D01*
X113471656Y-183669590D01*
X113430656Y-183724091D01*
X113384426Y-183771988D01*
X113332966Y-183813282D01*
X113276276Y-183847973D01*
X113241886Y-183864789D01*
X113179661Y-183888821D01*
X113114836Y-183905987D01*
X113047410Y-183916286D01*
X112977384Y-183919719D01*
X112935996Y-183918598D01*
X112866047Y-183911242D01*
X112799253Y-183897018D01*
X112735615Y-183875929D01*
X112675133Y-183847973D01*
X112642265Y-183828958D01*
X112588925Y-183790494D01*
X112540902Y-183745427D01*
X112498197Y-183693756D01*
X112460810Y-183635482D01*
X112446624Y-183608455D01*
X112422438Y-183550925D01*
X112403834Y-183488757D01*
X112390811Y-183421953D01*
X112383369Y-183350512D01*
X112381431Y-183287436D01*
X112628727Y-183287436D01*
X112629385Y-183318758D01*
X112635680Y-183385535D01*
X112648641Y-183447193D01*
X112670859Y-183509697D01*
X112700519Y-183564866D01*
X112741271Y-183615910D01*
X112790538Y-183656853D01*
X112847741Y-183686576D01*
X112912304Y-183703962D01*
X112977384Y-183709060D01*
X113042463Y-183703962D01*
X113107026Y-183686576D01*
X113164229Y-183656853D01*
X113213532Y-183615910D01*
X113254393Y-183564866D01*
X113284214Y-183509697D01*
X113298428Y-183472953D01*
X113314236Y-183413571D01*
X113323426Y-183349069D01*
X113326040Y-183287436D01*
X113325387Y-183256113D01*
X113319137Y-183189336D01*
X113306271Y-183127678D01*
X113284214Y-183065175D01*
X113254393Y-183009976D01*
X113213532Y-182958830D01*
X113164229Y-182917713D01*
X113107026Y-182887642D01*
X113042463Y-182870054D01*
X112977384Y-182864896D01*
X112912304Y-182869994D01*
X112847741Y-182887379D01*
X112790538Y-182917103D01*
X112741271Y-182957872D01*
X112700519Y-183008814D01*
X112670859Y-183063954D01*
X112656541Y-183100740D01*
X112640618Y-183160348D01*
X112631360Y-183225268D01*
X112628727Y-183287436D01*
X112381431Y-183287436D01*
X112382142Y-183248988D01*
X112386488Y-183187544D01*
X112396917Y-183118160D01*
X112413035Y-183053521D01*
X112434841Y-182993625D01*
X112462337Y-182938474D01*
X112483345Y-182904299D01*
X112524243Y-182849727D01*
X112570400Y-182801817D01*
X112621816Y-182760569D01*
X112678492Y-182725982D01*
X112712748Y-182709167D01*
X112774831Y-182685135D01*
X112839631Y-182667969D01*
X112907149Y-182657669D01*
X112977384Y-182654236D01*
X113014390Y-182655220D01*
G37*
G36*
X112145431Y-183894685D02*
G01*
X112145431Y-182682019D01*
X111906379Y-182682019D01*
X111906379Y-183159819D01*
X111403849Y-183159819D01*
X111403849Y-182682019D01*
X111164796Y-182682019D01*
X111164796Y-183894685D01*
X111403849Y-183894685D01*
X111403849Y-183364983D01*
X111906379Y-183364983D01*
X111906379Y-183894685D01*
X112145431Y-183894685D01*
G37*
G36*
X110876590Y-183894685D02*
G01*
X110876590Y-182682019D01*
X110637537Y-182682019D01*
X110637537Y-183688910D01*
X110092876Y-183688910D01*
X110092876Y-183894685D01*
X110876590Y-183894685D01*
G37*
G36*
X110062956Y-183480082D02*
G01*
X110062956Y-183271560D01*
X109580576Y-183271560D01*
X109580576Y-183480082D01*
X110062956Y-183480082D01*
G37*
G36*
X109085200Y-182669470D02*
G01*
X109148920Y-182672046D01*
X109212686Y-182676218D01*
X109265939Y-182680989D01*
X109328272Y-182689050D01*
X109392815Y-182700642D01*
X109392815Y-183894685D01*
X109153762Y-183894685D01*
X109153762Y-183474587D01*
X109050569Y-183474587D01*
X109006758Y-183473948D01*
X108944190Y-183470592D01*
X108875969Y-183463041D01*
X108812891Y-183451575D01*
X108747098Y-183433676D01*
X108709449Y-183419699D01*
X108649082Y-183388529D01*
X108598230Y-183349632D01*
X108556893Y-183303006D01*
X108531436Y-183261046D01*
X108507892Y-183199585D01*
X108495642Y-183137856D01*
X108491559Y-183069449D01*
X108491592Y-183067922D01*
X108738244Y-183067922D01*
X108738279Y-183072830D01*
X108746160Y-183134339D01*
X108774270Y-183190960D01*
X108822370Y-183230347D01*
X108881126Y-183252936D01*
X108923284Y-183261644D01*
X108987233Y-183268821D01*
X109053622Y-183270949D01*
X109153762Y-183270949D01*
X109153762Y-182879550D01*
X109097586Y-182875276D01*
X109089271Y-182874703D01*
X109027061Y-182872833D01*
X109001206Y-182873243D01*
X108938447Y-182878146D01*
X108878073Y-182889625D01*
X108826490Y-182909168D01*
X108775796Y-182948549D01*
X108773486Y-182951216D01*
X108745432Y-183007056D01*
X108738244Y-183067922D01*
X108491592Y-183067922D01*
X108492109Y-183043860D01*
X108500374Y-182972343D01*
X108518556Y-182908705D01*
X108546656Y-182852946D01*
X108584674Y-182805064D01*
X108632609Y-182765061D01*
X108660169Y-182747875D01*
X108721972Y-182718573D01*
X108780279Y-182699320D01*
X108844773Y-182684763D01*
X108915453Y-182674901D01*
X108976452Y-182670393D01*
X109041410Y-182668891D01*
X109085200Y-182669470D01*
G37*
G36*
X107911176Y-183894685D02*
G01*
X107914229Y-183853469D01*
X107914229Y-183814695D01*
X107910510Y-183753182D01*
X107897654Y-183689593D01*
X107875615Y-183631013D01*
X107867213Y-183614416D01*
X107835281Y-183561023D01*
X107798639Y-183510374D01*
X107757286Y-183462468D01*
X107748450Y-183453216D01*
X107703668Y-183407676D01*
X107659005Y-183363032D01*
X107614462Y-183319282D01*
X107605568Y-183310639D01*
X107560894Y-183267395D01*
X107516615Y-183223417D01*
X107501764Y-183208362D01*
X107459785Y-183160506D01*
X107427270Y-183112802D01*
X107404073Y-183053945D01*
X107399488Y-183011441D01*
X107407499Y-182949109D01*
X107439356Y-182895356D01*
X107448031Y-182888099D01*
X107506415Y-182859750D01*
X107569236Y-182851768D01*
X107630450Y-182857568D01*
X107686473Y-182874971D01*
X107741267Y-182902909D01*
X107776538Y-182927178D01*
X107823582Y-182966775D01*
X107829050Y-182972057D01*
X107943233Y-182813299D01*
X107895453Y-182772694D01*
X107844282Y-182737399D01*
X107840651Y-182735142D01*
X107783232Y-182704386D01*
X107724679Y-182681128D01*
X107711508Y-182676829D01*
X107647745Y-182661385D01*
X107585815Y-182654788D01*
X107561299Y-182654236D01*
X107499861Y-182656472D01*
X107433200Y-182665059D01*
X107365168Y-182683216D01*
X107307627Y-182710139D01*
X107260575Y-182745827D01*
X107218767Y-182795725D01*
X107188905Y-182854134D01*
X107170987Y-182921052D01*
X107165108Y-182986587D01*
X107165015Y-182996481D01*
X107171197Y-183061683D01*
X107189744Y-183124480D01*
X107208978Y-183165009D01*
X107241981Y-183218746D01*
X107280540Y-183270390D01*
X107320414Y-183315524D01*
X107366880Y-183363642D01*
X107413923Y-183410607D01*
X107457190Y-183452300D01*
X107502839Y-183497294D01*
X107541149Y-183536563D01*
X107583586Y-183582741D01*
X107620527Y-183627849D01*
X107653560Y-183681937D01*
X107659606Y-183702038D01*
X107127157Y-183702038D01*
X107127157Y-183894685D01*
X107911176Y-183894685D01*
G37*
G36*
X106808115Y-184178312D02*
G01*
X106986107Y-184130379D01*
X106965517Y-184071515D01*
X106947116Y-184007413D01*
X106933425Y-183944682D01*
X106930236Y-183926131D01*
X106921024Y-183861683D01*
X106915335Y-183798535D01*
X106914055Y-183756077D01*
X106914971Y-183720661D01*
X106917108Y-183679140D01*
X106918940Y-183651052D01*
X106677750Y-183651052D01*
X106674086Y-183703259D01*
X106673476Y-183731042D01*
X106676934Y-183798215D01*
X106685961Y-183860964D01*
X106700591Y-183925887D01*
X106708891Y-183955440D01*
X106728373Y-184014135D01*
X106751405Y-184070845D01*
X106781557Y-184132271D01*
X106808115Y-184178312D01*
G37*
G36*
X106144985Y-182656032D02*
G01*
X106212675Y-182668319D01*
X106274858Y-182692247D01*
X106331536Y-182727814D01*
X106337485Y-182732479D01*
X106382007Y-182774539D01*
X106421071Y-182825034D01*
X106454678Y-182883962D01*
X106479608Y-182942443D01*
X106485930Y-182960280D01*
X106504845Y-183026562D01*
X106517081Y-183088143D01*
X106525646Y-183154125D01*
X106530540Y-183224507D01*
X106531815Y-183286520D01*
X106531616Y-183311804D01*
X106529375Y-183372854D01*
X106523400Y-183442041D01*
X106513841Y-183506785D01*
X106500696Y-183567085D01*
X106480829Y-183631818D01*
X106456271Y-183690180D01*
X106423017Y-183749008D01*
X106384229Y-183799441D01*
X106333978Y-183846141D01*
X106290359Y-183874811D01*
X106228954Y-183901325D01*
X106169343Y-183915121D01*
X106105001Y-183919719D01*
X106080269Y-183919080D01*
X106010166Y-183909492D01*
X105946202Y-183888397D01*
X105888378Y-183855796D01*
X105836694Y-183811690D01*
X105791149Y-183756077D01*
X105784180Y-183745710D01*
X105752655Y-183689709D01*
X105726661Y-183626761D01*
X105706198Y-183556866D01*
X105693809Y-183495949D01*
X105684960Y-183430585D01*
X105679651Y-183360775D01*
X105677881Y-183286520D01*
X105912354Y-183286520D01*
X105912631Y-183317332D01*
X105915276Y-183383693D01*
X105920724Y-183445949D01*
X105930062Y-183510307D01*
X105937539Y-183545817D01*
X105957517Y-183608013D01*
X105989291Y-183665707D01*
X105991899Y-183669182D01*
X106042474Y-183709778D01*
X106105001Y-183722188D01*
X106113928Y-183721967D01*
X106173436Y-183706248D01*
X106219795Y-183665707D01*
X106241562Y-183630456D01*
X106264574Y-183573161D01*
X106279634Y-183510307D01*
X106283784Y-183485172D01*
X106291739Y-183418787D01*
X106295941Y-183354706D01*
X106297342Y-183286520D01*
X106297065Y-183255651D01*
X106294419Y-183189300D01*
X106288972Y-183127248D01*
X106279634Y-183063343D01*
X106272135Y-183027948D01*
X106251985Y-182965981D01*
X106219795Y-182908554D01*
X106217113Y-182905060D01*
X106166261Y-182864245D01*
X106105001Y-182851768D01*
X106095819Y-182851989D01*
X106035243Y-182867794D01*
X105989291Y-182908554D01*
X105967819Y-182943633D01*
X105945050Y-183000699D01*
X105930062Y-183063343D01*
X105925911Y-183088268D01*
X105917957Y-183154296D01*
X105913755Y-183218259D01*
X105912354Y-183286520D01*
X105677881Y-183286520D01*
X105677992Y-183267595D01*
X105680646Y-183194659D01*
X105686841Y-183126140D01*
X105696574Y-183062038D01*
X105709848Y-183002353D01*
X105731418Y-182933960D01*
X105758518Y-182872468D01*
X105791149Y-182817879D01*
X105805648Y-182798063D01*
X105853240Y-182746285D01*
X105906971Y-182706014D01*
X105966841Y-182677248D01*
X106032851Y-182659989D01*
X106105001Y-182654236D01*
X106144985Y-182656032D01*
G37*
D11*
G36*
X115677249Y-189586792D02*
G01*
X115347033Y-189586792D01*
X115310280Y-189586188D01*
X115253396Y-189582502D01*
X115201974Y-189575464D01*
X115147477Y-189562596D01*
X115100846Y-189544902D01*
X115056384Y-189518159D01*
X115026004Y-189489468D01*
X114998505Y-189448529D01*
X114979562Y-189399549D01*
X114970134Y-189351166D01*
X114966991Y-189296875D01*
X114968428Y-189270741D01*
X115172399Y-189270741D01*
X115173764Y-189302043D01*
X115184687Y-189353517D01*
X115211234Y-189394817D01*
X115248534Y-189416547D01*
X115297088Y-189427655D01*
X115347033Y-189430476D01*
X115481610Y-189430476D01*
X115481610Y-189102214D01*
X115347033Y-189102214D01*
X115303573Y-189104671D01*
X115254633Y-189116077D01*
X115212943Y-189141537D01*
X115191563Y-189171051D01*
X115176358Y-189219503D01*
X115172399Y-189270741D01*
X114968428Y-189270741D01*
X114969843Y-189245020D01*
X114980085Y-189192225D01*
X114997778Y-189146331D01*
X115026586Y-189102946D01*
X115059895Y-189071851D01*
X115106052Y-189045445D01*
X115154802Y-189029596D01*
X115203418Y-189021614D01*
X115191330Y-189020337D01*
X115141514Y-189010200D01*
X115094955Y-188990508D01*
X115054430Y-188958599D01*
X115048248Y-188951656D01*
X115021379Y-188907570D01*
X115007421Y-188858826D01*
X115005107Y-188829639D01*
X115204639Y-188829639D01*
X115210904Y-188877403D01*
X115237368Y-188919032D01*
X115248675Y-188926771D01*
X115295547Y-188942120D01*
X115347033Y-188945898D01*
X115481610Y-188945898D01*
X115481610Y-188711425D01*
X115347033Y-188711425D01*
X115337734Y-188711535D01*
X115285388Y-188717597D01*
X115238100Y-188739513D01*
X115211991Y-188778938D01*
X115204639Y-188829639D01*
X115005107Y-188829639D01*
X115003383Y-188807901D01*
X115003467Y-188800086D01*
X115008772Y-188748810D01*
X115024937Y-188697564D01*
X115051880Y-188654165D01*
X115089601Y-188618613D01*
X115095072Y-188614706D01*
X115138022Y-188590830D01*
X115189106Y-188573032D01*
X115239366Y-188562614D01*
X115295603Y-188556660D01*
X115347033Y-188555110D01*
X115677249Y-188555110D01*
X115677249Y-189586792D01*
G37*
G36*
X114540955Y-188541581D02*
G01*
X114591077Y-188550123D01*
X114645620Y-188569048D01*
X114694048Y-188597436D01*
X114736364Y-188635286D01*
X114766956Y-188674056D01*
X114777958Y-188691350D01*
X114802359Y-188738974D01*
X114822323Y-188792872D01*
X114835100Y-188840507D01*
X114845037Y-188892157D01*
X114852136Y-188947822D01*
X114856395Y-189007501D01*
X114857814Y-189071195D01*
X114857726Y-189087465D01*
X114855596Y-189150050D01*
X114850627Y-189208644D01*
X114842819Y-189263245D01*
X114832172Y-189313855D01*
X114814870Y-189371504D01*
X114793131Y-189422915D01*
X114766956Y-189468089D01*
X114742822Y-189499574D01*
X114701526Y-189538929D01*
X114654116Y-189568840D01*
X114600592Y-189589305D01*
X114551319Y-189599143D01*
X114497800Y-189602423D01*
X114454535Y-189600324D01*
X114404307Y-189591797D01*
X114349684Y-189572906D01*
X114301227Y-189544570D01*
X114258934Y-189506789D01*
X114228400Y-189468089D01*
X114217368Y-189450768D01*
X114192902Y-189403099D01*
X114172885Y-189349193D01*
X114160074Y-189301577D01*
X114150109Y-189249969D01*
X114142992Y-189194370D01*
X114138721Y-189134778D01*
X114137298Y-189071195D01*
X114348079Y-189071195D01*
X114348115Y-189082924D01*
X114349342Y-189138511D01*
X114352322Y-189189007D01*
X114358212Y-189242880D01*
X114368275Y-189296463D01*
X114383983Y-189345480D01*
X114410421Y-189390302D01*
X114449089Y-189420433D01*
X114497800Y-189430476D01*
X114546263Y-189420433D01*
X114584855Y-189390302D01*
X114611373Y-189345480D01*
X114613567Y-189340065D01*
X114628611Y-189289419D01*
X114638118Y-189234410D01*
X114643550Y-189179315D01*
X114646162Y-189127801D01*
X114647033Y-189071195D01*
X114646998Y-189059436D01*
X114645779Y-189003712D01*
X114642819Y-188953105D01*
X114636969Y-188899129D01*
X114626974Y-188845469D01*
X114611373Y-188796422D01*
X114584855Y-188751599D01*
X114546263Y-188721469D01*
X114497800Y-188711425D01*
X114449089Y-188721469D01*
X114410421Y-188751599D01*
X114383983Y-188796422D01*
X114381774Y-188801836D01*
X114366627Y-188852520D01*
X114357055Y-188907613D01*
X114351586Y-188962817D01*
X114348956Y-189014448D01*
X114348079Y-189071195D01*
X114137298Y-189071195D01*
X114137387Y-189054895D01*
X114139522Y-188992205D01*
X114144504Y-188933529D01*
X114152333Y-188878868D01*
X114163009Y-188828222D01*
X114180358Y-188770561D01*
X114202155Y-188719172D01*
X114228400Y-188674056D01*
X114252485Y-188642514D01*
X114293750Y-188603087D01*
X114341180Y-188573123D01*
X114394775Y-188552621D01*
X114444147Y-188542764D01*
X114497800Y-188539478D01*
X114540955Y-188541581D01*
G37*
G36*
X113698806Y-188541581D02*
G01*
X113748928Y-188550123D01*
X113803470Y-188569048D01*
X113851899Y-188597436D01*
X113894214Y-188635286D01*
X113924807Y-188674056D01*
X113935809Y-188691350D01*
X113960209Y-188738974D01*
X113980173Y-188792872D01*
X113992950Y-188840507D01*
X114002888Y-188892157D01*
X114009986Y-188947822D01*
X114014245Y-189007501D01*
X114015665Y-189071195D01*
X114015576Y-189087465D01*
X114013447Y-189150050D01*
X114008478Y-189208644D01*
X114000670Y-189263245D01*
X113990022Y-189313855D01*
X113972720Y-189371504D01*
X113950982Y-189422915D01*
X113924807Y-189468089D01*
X113900672Y-189499574D01*
X113859376Y-189538929D01*
X113811966Y-189568840D01*
X113758443Y-189589305D01*
X113709170Y-189599143D01*
X113655651Y-189602423D01*
X113612386Y-189600324D01*
X113562157Y-189591797D01*
X113507535Y-189572906D01*
X113459077Y-189544570D01*
X113416785Y-189506789D01*
X113386251Y-189468089D01*
X113375219Y-189450768D01*
X113350753Y-189403099D01*
X113330735Y-189349193D01*
X113317924Y-189301577D01*
X113307960Y-189249969D01*
X113300842Y-189194370D01*
X113296572Y-189134778D01*
X113295149Y-189071195D01*
X113505930Y-189071195D01*
X113505965Y-189082924D01*
X113507192Y-189138511D01*
X113510173Y-189189007D01*
X113516063Y-189242880D01*
X113526126Y-189296463D01*
X113541834Y-189345480D01*
X113568271Y-189390302D01*
X113606939Y-189420433D01*
X113655651Y-189430476D01*
X113704113Y-189420433D01*
X113742705Y-189390302D01*
X113769224Y-189345480D01*
X113771418Y-189340065D01*
X113786462Y-189289419D01*
X113795968Y-189234410D01*
X113801401Y-189179315D01*
X113804013Y-189127801D01*
X113804883Y-189071195D01*
X113804849Y-189059436D01*
X113803630Y-189003712D01*
X113800670Y-188953105D01*
X113794819Y-188899129D01*
X113784825Y-188845469D01*
X113769224Y-188796422D01*
X113742705Y-188751599D01*
X113704113Y-188721469D01*
X113655651Y-188711425D01*
X113606939Y-188721469D01*
X113568271Y-188751599D01*
X113541834Y-188796422D01*
X113539625Y-188801836D01*
X113524478Y-188852520D01*
X113514906Y-188907613D01*
X113509436Y-188962817D01*
X113506807Y-189014448D01*
X113505930Y-189071195D01*
X113295149Y-189071195D01*
X113295237Y-189054895D01*
X113297373Y-188992205D01*
X113302355Y-188933529D01*
X113310184Y-188878868D01*
X113320860Y-188828222D01*
X113338209Y-188770561D01*
X113360006Y-188719172D01*
X113386251Y-188674056D01*
X113410336Y-188642514D01*
X113451600Y-188603087D01*
X113499030Y-188573123D01*
X113552625Y-188552621D01*
X113601997Y-188542764D01*
X113655651Y-188539478D01*
X113698806Y-188541581D01*
G37*
G36*
X112711897Y-189586792D02*
G01*
X112914618Y-189586792D01*
X112914618Y-188727057D01*
X113174981Y-188727057D01*
X113174981Y-188555110D01*
X112451534Y-188555110D01*
X112451534Y-188727057D01*
X112711897Y-188727057D01*
X112711897Y-189586792D01*
G37*
G36*
X115164096Y-191947273D02*
G01*
X115164096Y-191751634D01*
X115303070Y-191751634D01*
X115303070Y-191579688D01*
X114987020Y-191579688D01*
X114987020Y-192046436D01*
X115028595Y-192076299D01*
X115073056Y-192100736D01*
X115115980Y-192118243D01*
X115165523Y-192132010D01*
X115217433Y-192140062D01*
X115266678Y-192142423D01*
X115326677Y-192139048D01*
X115382264Y-192128923D01*
X115433438Y-192112048D01*
X115480199Y-192088422D01*
X115522548Y-192058047D01*
X115560485Y-192020922D01*
X115574424Y-192004182D01*
X115605665Y-191958137D01*
X115631611Y-191906403D01*
X115652262Y-191848981D01*
X115664970Y-191798948D01*
X115674290Y-191745273D01*
X115680220Y-191687958D01*
X115682762Y-191627003D01*
X115682868Y-191611195D01*
X115681158Y-191548440D01*
X115676029Y-191489501D01*
X115667480Y-191434378D01*
X115655512Y-191383072D01*
X115640125Y-191335582D01*
X115616082Y-191281586D01*
X115586697Y-191233553D01*
X115573447Y-191216010D01*
X115536803Y-191176677D01*
X115495413Y-191144011D01*
X115449277Y-191118011D01*
X115398393Y-191098678D01*
X115342764Y-191086011D01*
X115282388Y-191080011D01*
X115256908Y-191079478D01*
X115207064Y-191082139D01*
X115157945Y-191090120D01*
X115135519Y-191095598D01*
X115088149Y-191111034D01*
X115043279Y-191131145D01*
X115023412Y-191142004D01*
X115023412Y-191360846D01*
X115057106Y-191323809D01*
X115097716Y-191292290D01*
X115121353Y-191279025D01*
X115167976Y-191261155D01*
X115218146Y-191252395D01*
X115242498Y-191251425D01*
X115296506Y-191257012D01*
X115343248Y-191273773D01*
X115387147Y-191305986D01*
X115414933Y-191340818D01*
X115439831Y-191391147D01*
X115455781Y-191444627D01*
X115465117Y-191497481D01*
X115469841Y-191546471D01*
X115471786Y-191599958D01*
X115471842Y-191611195D01*
X115470500Y-191664098D01*
X115466475Y-191712899D01*
X115458103Y-191766045D01*
X115443452Y-191820582D01*
X115423542Y-191867077D01*
X115416887Y-191878885D01*
X115386280Y-191918956D01*
X115344367Y-191950351D01*
X115294532Y-191967256D01*
X115256908Y-191970476D01*
X115207888Y-191966175D01*
X115201953Y-191964858D01*
X115164096Y-191947273D01*
G37*
G36*
X114839253Y-191095110D02*
G01*
X114621632Y-191095110D01*
X114335868Y-191844935D01*
X114335868Y-191095110D01*
X114157083Y-191095110D01*
X114157083Y-192126792D01*
X114373482Y-192126792D01*
X114660711Y-191376966D01*
X114660711Y-192126792D01*
X114839253Y-192126792D01*
X114839253Y-191095110D01*
G37*
G36*
X113984891Y-192126792D02*
G01*
X113767759Y-192126792D01*
X113707126Y-192124899D01*
X113650889Y-192119220D01*
X113599049Y-192109756D01*
X113540430Y-192092601D01*
X113488681Y-192069532D01*
X113443802Y-192040547D01*
X113405792Y-192005647D01*
X113386019Y-191981543D01*
X113357386Y-191935397D01*
X113334155Y-191881785D01*
X113319461Y-191833520D01*
X113308223Y-191780478D01*
X113300444Y-191722657D01*
X113296122Y-191660058D01*
X113295150Y-191609974D01*
X113505931Y-191609974D01*
X113505981Y-191621621D01*
X113507717Y-191676643D01*
X113511934Y-191726311D01*
X113520269Y-191778844D01*
X113534508Y-191830388D01*
X113556734Y-191876443D01*
X113586440Y-191910743D01*
X113630150Y-191937618D01*
X113678151Y-191951093D01*
X113727215Y-191954845D01*
X113782170Y-191954845D01*
X113782170Y-191267057D01*
X113727215Y-191267057D01*
X113684757Y-191269804D01*
X113635679Y-191282017D01*
X113590758Y-191307433D01*
X113556734Y-191345214D01*
X113553608Y-191350190D01*
X113532176Y-191397657D01*
X113518632Y-191450361D01*
X113510892Y-191503833D01*
X113507171Y-191554244D01*
X113505931Y-191609974D01*
X113295150Y-191609974D01*
X113295258Y-191593011D01*
X113297851Y-191528157D01*
X113303901Y-191468096D01*
X113313410Y-191412829D01*
X113326376Y-191362354D01*
X113347445Y-191306002D01*
X113373917Y-191257139D01*
X113405792Y-191215766D01*
X113412844Y-191208343D01*
X113452228Y-191174762D01*
X113498482Y-191147072D01*
X113551605Y-191125274D01*
X113599049Y-191112077D01*
X113650889Y-191102651D01*
X113707126Y-191096995D01*
X113767759Y-191095110D01*
X113984891Y-191095110D01*
X113984891Y-192126792D01*
G37*
D12*
G36*
X95076970Y-151160704D02*
G01*
X95076970Y-149362588D01*
X96706559Y-149362588D01*
X96706559Y-148824766D01*
X95076970Y-148824766D01*
X95076970Y-147035443D01*
X94514235Y-147035443D01*
X94514235Y-148824766D01*
X92891974Y-148824766D01*
X92891974Y-149362588D01*
X94514235Y-149362588D01*
X94514235Y-151160704D01*
X95076970Y-151160704D01*
G37*
D11*
G36*
X115671877Y-187046792D02*
G01*
X115469155Y-187046792D01*
X115469155Y-186640371D01*
X115404675Y-186640371D01*
X115373435Y-186645946D01*
X115332009Y-186673252D01*
X115301581Y-186711480D01*
X115276936Y-186756875D01*
X115262526Y-186787161D01*
X115138695Y-187046792D01*
X114916189Y-187046792D01*
X115101814Y-186676764D01*
X115126356Y-186630990D01*
X115156280Y-186589325D01*
X115163422Y-186582702D01*
X115208792Y-186560748D01*
X115191054Y-186557968D01*
X115142606Y-186544296D01*
X115097159Y-186519724D01*
X115060537Y-186485277D01*
X115045690Y-186464518D01*
X115023546Y-186416595D01*
X115012223Y-186366163D01*
X115009763Y-186327496D01*
X115218562Y-186327496D01*
X115218880Y-186341230D01*
X115227599Y-186392160D01*
X115254710Y-186435696D01*
X115272673Y-186448449D01*
X115322135Y-186464557D01*
X115373656Y-186468424D01*
X115469155Y-186468424D01*
X115469155Y-186187057D01*
X115373656Y-186187057D01*
X115348651Y-186187850D01*
X115298224Y-186196225D01*
X115254221Y-186219541D01*
X115243948Y-186230742D01*
X115223577Y-186276938D01*
X115218562Y-186327496D01*
X115009763Y-186327496D01*
X115009002Y-186315528D01*
X115010349Y-186277102D01*
X115017421Y-186224658D01*
X115033335Y-186171351D01*
X115057499Y-186126530D01*
X115095219Y-186085696D01*
X115118518Y-186069152D01*
X115167683Y-186045509D01*
X115218327Y-186030619D01*
X115266526Y-186022003D01*
X115320175Y-186016833D01*
X115379274Y-186015110D01*
X115671877Y-186015110D01*
X115671877Y-187046792D01*
G37*
G36*
X114570830Y-186594698D02*
G01*
X114616271Y-186576313D01*
X114664425Y-186553873D01*
X114711814Y-186527172D01*
X114754381Y-186495970D01*
X114778192Y-186472088D01*
X114806786Y-186427471D01*
X114823465Y-186379933D01*
X114831567Y-186325401D01*
X114832414Y-186298920D01*
X114829280Y-186248634D01*
X114817701Y-186195284D01*
X114797590Y-186147661D01*
X114768948Y-186105765D01*
X114743265Y-186079346D01*
X114700965Y-186048225D01*
X114652284Y-186024749D01*
X114605478Y-186010710D01*
X114553984Y-186002286D01*
X114497801Y-185999478D01*
X114444713Y-186001711D01*
X114396109Y-186007680D01*
X114356385Y-186015354D01*
X114307862Y-186027919D01*
X114259686Y-186044120D01*
X114216189Y-186062004D01*
X114216189Y-186265214D01*
X114261283Y-186236243D01*
X114306896Y-186212467D01*
X114348813Y-186195361D01*
X114399017Y-186180775D01*
X114448876Y-186172921D01*
X114481926Y-186171425D01*
X114532255Y-186175547D01*
X114578817Y-186190774D01*
X114594766Y-186200734D01*
X114625258Y-186239044D01*
X114633845Y-186284754D01*
X114621643Y-186333901D01*
X114605512Y-186354607D01*
X114561427Y-186383672D01*
X114513124Y-186405354D01*
X114486322Y-186415668D01*
X114398883Y-186448397D01*
X114347934Y-186469567D01*
X114303227Y-186493543D01*
X114259774Y-186524379D01*
X114224474Y-186558878D01*
X114216922Y-186568076D01*
X114188704Y-186612932D01*
X114169721Y-186663971D01*
X114160600Y-186714530D01*
X114158548Y-186755654D01*
X114161777Y-186810792D01*
X114171462Y-186860434D01*
X114190924Y-186911405D01*
X114219174Y-186954895D01*
X114250383Y-186986219D01*
X114294942Y-187015912D01*
X114340280Y-187035558D01*
X114392212Y-187049846D01*
X114440526Y-187057660D01*
X114493420Y-187061753D01*
X114527355Y-187062423D01*
X114579803Y-187060085D01*
X114632366Y-187053072D01*
X114680251Y-187042639D01*
X114727659Y-187028438D01*
X114774017Y-187010563D01*
X114819326Y-186989016D01*
X114828262Y-186984265D01*
X114828262Y-186781055D01*
X114783075Y-186810001D01*
X114738737Y-186834464D01*
X114690471Y-186856389D01*
X114671458Y-186863609D01*
X114624150Y-186877777D01*
X114572497Y-186887301D01*
X114521249Y-186890476D01*
X114469786Y-186885805D01*
X114421814Y-186868548D01*
X114405233Y-186857259D01*
X114374275Y-186817386D01*
X114363997Y-186767916D01*
X114363956Y-186764203D01*
X114373686Y-186714796D01*
X114391556Y-186685556D01*
X114430213Y-186651922D01*
X114471179Y-186632067D01*
X114570830Y-186594698D01*
G37*
G36*
X113554047Y-187046792D02*
G01*
X113756769Y-187046792D01*
X113756769Y-186187057D01*
X114017131Y-186187057D01*
X114017131Y-186015110D01*
X113293684Y-186015110D01*
X113293684Y-186187057D01*
X113554047Y-186187057D01*
X113554047Y-187046792D01*
G37*
D12*
G36*
X108936078Y-224002009D02*
G01*
X109044968Y-223996376D01*
X109148949Y-223979476D01*
X109248021Y-223951309D01*
X109342185Y-223911876D01*
X109393789Y-223884284D01*
X109478532Y-223827637D01*
X109554955Y-223760705D01*
X109623056Y-223683488D01*
X109682835Y-223595986D01*
X109713258Y-223541367D01*
X109758368Y-223437937D01*
X109788216Y-223341469D01*
X109809923Y-223237788D01*
X109823490Y-223126894D01*
X109828577Y-223028972D01*
X109829030Y-222988401D01*
X109825547Y-222884377D01*
X109815098Y-222785588D01*
X109794628Y-222679098D01*
X109765059Y-222579447D01*
X109756245Y-222555603D01*
X109716464Y-222464867D01*
X109663609Y-222371839D01*
X109602176Y-222288394D01*
X109556454Y-222238087D01*
X109481879Y-222170570D01*
X109401585Y-222113100D01*
X109315573Y-222065676D01*
X109265317Y-222043670D01*
X109171795Y-222011792D01*
X109075878Y-221990347D01*
X108977565Y-221979335D01*
X108921912Y-221977725D01*
X108815895Y-221981091D01*
X108713136Y-221992334D01*
X108663014Y-222001660D01*
X108567781Y-222025252D01*
X108479832Y-222055882D01*
X108389791Y-222098899D01*
X108373342Y-222109127D01*
X108443196Y-222293775D01*
X108534764Y-222247441D01*
X108623935Y-222212686D01*
X108721292Y-222187384D01*
X108824756Y-222175477D01*
X108891137Y-222173607D01*
X109001474Y-222179988D01*
X109102896Y-222199131D01*
X109195403Y-222231035D01*
X109278995Y-222275701D01*
X109361916Y-222339581D01*
X109432627Y-222416368D01*
X109491128Y-222506060D01*
X109518353Y-222561465D01*
X109553829Y-222657025D01*
X109579169Y-222760523D01*
X109593027Y-222857595D01*
X109599124Y-222960745D01*
X109599441Y-222991332D01*
X109595701Y-223096051D01*
X109584481Y-223194787D01*
X109562500Y-223300300D01*
X109530748Y-223397997D01*
X109521284Y-223421200D01*
X109471210Y-223517748D01*
X109409468Y-223601314D01*
X109336056Y-223671896D01*
X109290230Y-223705498D01*
X109199052Y-223754142D01*
X109096978Y-223786866D01*
X108997098Y-223802589D01*
X108916538Y-223806127D01*
X108817306Y-223803344D01*
X108718560Y-223793727D01*
X108616058Y-223773119D01*
X108608304Y-223770956D01*
X108511252Y-223739994D01*
X108417794Y-223699637D01*
X108359176Y-223884284D01*
X108449568Y-223923784D01*
X108544812Y-223954764D01*
X108554082Y-223957557D01*
X108655614Y-223980999D01*
X108760861Y-223994673D01*
X108865443Y-224000924D01*
X108936078Y-224002009D01*
G37*
D13*
%TO.C,J3*%
X105715000Y-205340000D02*
X105715000Y-215460000D01*
X105715000Y-215460000D02*
X111685000Y-215460000D01*
X106475000Y-206100000D02*
X109425000Y-206100000D01*
X106475000Y-210400000D02*
X106475000Y-206100000D01*
X106475000Y-210400000D02*
X106475000Y-214700000D01*
X106475000Y-214700000D02*
X109425000Y-214700000D01*
X109425000Y-206100000D02*
X109425000Y-205350000D01*
X109425000Y-214700000D02*
X109425000Y-215450000D01*
X110725000Y-215750000D02*
X111975000Y-215750000D01*
X110925000Y-205350000D02*
X110925000Y-207150000D01*
X110925000Y-207150000D02*
X111675000Y-207150000D01*
X110925000Y-208650000D02*
X110925000Y-212150000D01*
X110925000Y-212150000D02*
X111675000Y-212150000D01*
X110925000Y-213650000D02*
X110925000Y-215450000D01*
X110925000Y-215450000D02*
X111675000Y-215450000D01*
X111675000Y-205350000D02*
X110925000Y-205350000D01*
X111675000Y-207150000D02*
X111675000Y-205350000D01*
X111675000Y-208650000D02*
X110925000Y-208650000D01*
X111675000Y-212150000D02*
X111675000Y-208650000D01*
X111675000Y-213650000D02*
X110925000Y-213650000D01*
X111675000Y-215450000D02*
X111675000Y-213650000D01*
X111685000Y-205340000D02*
X105715000Y-205340000D01*
X111685000Y-215460000D02*
X111685000Y-205340000D01*
X111975000Y-215750000D02*
X111975000Y-214500000D01*
%TO.C,BT1*%
X84750000Y-151750000D02*
X104850000Y-151750000D01*
X84750000Y-229750000D02*
X84750000Y-151750000D01*
X104850000Y-151750000D02*
X104850000Y-229750000D01*
X104850000Y-229750000D02*
X84750000Y-229750000D01*
%TO.C,JP1*%
X90750000Y-220300000D02*
X90750000Y-219700000D01*
X91450000Y-219000000D02*
X92850000Y-219000000D01*
X92850000Y-221000000D02*
X91450000Y-221000000D01*
X93550000Y-219700000D02*
X93550000Y-220300000D01*
X90750000Y-219700000D02*
G75*
G02*
X91450000Y-219000000I700000J0D01*
G01*
X91450000Y-221000000D02*
G75*
G02*
X90750000Y-220300000I0J700000D01*
G01*
X92850000Y-219000000D02*
G75*
G02*
X93550000Y-219700000I1J-699999D01*
G01*
X93550000Y-220300000D02*
G75*
G02*
X92850000Y-221000000I-699999J-1D01*
G01*
%TO.C,J1*%
X112945190Y-227305190D02*
X114865190Y-227305190D01*
X114865190Y-218145190D02*
X112945190Y-218145190D01*
X116875190Y-218145190D02*
X118580190Y-218145190D01*
X118580190Y-218145190D02*
X118580190Y-227305190D01*
X118580190Y-227305190D02*
X116875190Y-227305190D01*
%TD*%
M02*
