%TF.GenerationSoftware,KiCad,Pcbnew,8.0.7*%
%TF.CreationDate,2024-12-30T17:39:46+01:00*%
%TF.ProjectId,termometer2,7465726d-6f6d-4657-9465-72322e6b6963,rev?*%
%TF.SameCoordinates,Original*%
%TF.FileFunction,Legend,Top*%
%TF.FilePolarity,Positive*%
%FSLAX46Y46*%
G04 Gerber Fmt 4.6, Leading zero omitted, Abs format (unit mm)*
G04 Created by KiCad (PCBNEW 8.0.7) date 2024-12-30 17:39:46*
%MOMM*%
%LPD*%
G01*
G04 APERTURE LIST*
%ADD10C,0.459999*%
%ADD11C,0.500000*%
%ADD12C,0.347759*%
%ADD13C,1.000000*%
%ADD14C,0.499999*%
%ADD15C,0.000000*%
%ADD16C,0.499998*%
%ADD17C,0.300000*%
%ADD18C,0.400000*%
%ADD19C,0.120000*%
%ADD20C,0.200000*%
%ADD21C,0.263059*%
G04 APERTURE END LIST*
D10*
X114031047Y-160778653D02*
X114085226Y-160682515D01*
D11*
X103800000Y-84500000D02*
X106300000Y-84500000D01*
X103800000Y-132500000D02*
X106300000Y-132500000D01*
X99800000Y-120500000D02*
X97300000Y-120500000D01*
D12*
X116546993Y-157632023D02*
X116588868Y-157608577D01*
D10*
X116582901Y-161088412D02*
X116594523Y-161142469D01*
X115931310Y-155231620D02*
X115933193Y-155254232D01*
D11*
X99800000Y-126500000D02*
X97300000Y-126500000D01*
D10*
X116414773Y-160682516D02*
X116442844Y-160730064D01*
X114617756Y-155036989D02*
X114636113Y-154996593D01*
D12*
X117575347Y-156814429D02*
X117930909Y-156960824D01*
X116613721Y-158983499D02*
X116640512Y-158969846D01*
D11*
X103800000Y-130500000D02*
X106300000Y-130500000D01*
D10*
X115478210Y-162753111D02*
X115422032Y-162761384D01*
D12*
X117930909Y-156960824D02*
X118286471Y-156814429D01*
X118286469Y-158896648D02*
X118642031Y-159043044D01*
D10*
X116618973Y-161363256D02*
X116619440Y-161419268D01*
D12*
X116864221Y-158896648D02*
X117219783Y-159043044D01*
D10*
X116553232Y-160982122D02*
X116569128Y-161034941D01*
D11*
X99800000Y-170500000D02*
X97300000Y-170500000D01*
X103800000Y-72500000D02*
X106300000Y-72500000D01*
D10*
X114377185Y-160347407D02*
X114467907Y-160278590D01*
X113883777Y-161307504D02*
X113896029Y-161197046D01*
D11*
X99800000Y-202500000D02*
X97300000Y-202500000D01*
D10*
X116594523Y-161142469D02*
X116603969Y-161197047D01*
X113902073Y-161644625D02*
X113886584Y-161531814D01*
D11*
X99800000Y-140500000D02*
X97300000Y-140500000D01*
D13*
X85300000Y-188500000D02*
X99800000Y-188500000D01*
D11*
X103800000Y-102500000D02*
X106300000Y-102500000D01*
X103800000Y-134500000D02*
X106300000Y-134500000D01*
D12*
X116864221Y-156814429D02*
X117219783Y-156960824D01*
D11*
X99800000Y-62500000D02*
X97300000Y-62500000D01*
D12*
X118286471Y-158202575D02*
X118642033Y-158348971D01*
D14*
X92107651Y-191540649D02*
X92107651Y-190818405D01*
D13*
X85300000Y-108500000D02*
X99550000Y-108500000D01*
D10*
X114416349Y-162489183D02*
X114331679Y-162418640D01*
X116385560Y-162168344D02*
X116353508Y-162213838D01*
X114004713Y-161972682D02*
X113982182Y-161920560D01*
D12*
X116785929Y-158216086D02*
X116800021Y-158212181D01*
X116727484Y-158930602D02*
X116756996Y-158919523D01*
D11*
X103800000Y-106500000D02*
X106300000Y-106500000D01*
D10*
X116617596Y-161475476D02*
X116613413Y-161531815D01*
X114601391Y-162608877D02*
X114506402Y-162552709D01*
X115611975Y-154718652D02*
X115631110Y-154731012D01*
D11*
X99800000Y-156500000D02*
X97300000Y-156500000D01*
D10*
X114085226Y-160682515D02*
X114147145Y-160590802D01*
X115925340Y-155186879D02*
X115928689Y-155209164D01*
X115984222Y-160246783D02*
X116032095Y-160278590D01*
X114216588Y-160504032D02*
X114293340Y-160422727D01*
D12*
X117575347Y-158896648D02*
X117930907Y-159043044D01*
D10*
X115249999Y-154615150D02*
X115294305Y-154616583D01*
D12*
X116756996Y-156837303D02*
X116785929Y-156827939D01*
D15*
G36*
X115292730Y-160584836D02*
G01*
X115334898Y-160588043D01*
X115376453Y-160593323D01*
X115417342Y-160600626D01*
X115457514Y-160609897D01*
X115496917Y-160621086D01*
X115535498Y-160634141D01*
X115573204Y-160649008D01*
X115609985Y-160665636D01*
X115645787Y-160683973D01*
X115680559Y-160703966D01*
X115714248Y-160725564D01*
X115746802Y-160748714D01*
X115778170Y-160773364D01*
X115808298Y-160799462D01*
X115837135Y-160826955D01*
X115864628Y-160855792D01*
X115890726Y-160885920D01*
X115915376Y-160917288D01*
X115938526Y-160949842D01*
X115960123Y-160983531D01*
X115980117Y-161018303D01*
X115998453Y-161054105D01*
X116015082Y-161090886D01*
X116029949Y-161128593D01*
X116043003Y-161167173D01*
X116054192Y-161206576D01*
X116063464Y-161246748D01*
X116070766Y-161287637D01*
X116076046Y-161329192D01*
X116079253Y-161371360D01*
X116080333Y-161414089D01*
X116079313Y-161455263D01*
X116076270Y-161496157D01*
X116071233Y-161536704D01*
X116064231Y-161576836D01*
X116055291Y-161616483D01*
X116044442Y-161655579D01*
X116031711Y-161694056D01*
X116017127Y-161731844D01*
X116000719Y-161768877D01*
X115982514Y-161805085D01*
X115962541Y-161840402D01*
X115940827Y-161874759D01*
X115917401Y-161908087D01*
X115892292Y-161940320D01*
X115865526Y-161971388D01*
X115837134Y-162001224D01*
X115807298Y-162029616D01*
X115776230Y-162056381D01*
X115743997Y-162081491D01*
X115710669Y-162104917D01*
X115676312Y-162126630D01*
X115640995Y-162146604D01*
X115604787Y-162164809D01*
X115567754Y-162181217D01*
X115529966Y-162195800D01*
X115491489Y-162208531D01*
X115452393Y-162219380D01*
X115412746Y-162228320D01*
X115372614Y-162235322D01*
X115332068Y-162240359D01*
X115291173Y-162243402D01*
X115250000Y-162244422D01*
X115208826Y-162243402D01*
X115167932Y-162240359D01*
X115127385Y-162235323D01*
X115087253Y-162228321D01*
X115047606Y-162219381D01*
X115008510Y-162208531D01*
X114970034Y-162195801D01*
X114932245Y-162181218D01*
X114895212Y-162164809D01*
X114859004Y-162146604D01*
X114823687Y-162126631D01*
X114789330Y-162104917D01*
X114756002Y-162081491D01*
X114723769Y-162056382D01*
X114692701Y-162029616D01*
X114662865Y-162001224D01*
X114634473Y-161971388D01*
X114607707Y-161940319D01*
X114582598Y-161908087D01*
X114559172Y-161874758D01*
X114537458Y-161840402D01*
X114517485Y-161805085D01*
X114499280Y-161768876D01*
X114482872Y-161731843D01*
X114468288Y-161694055D01*
X114455558Y-161655579D01*
X114444708Y-161616482D01*
X114435768Y-161576835D01*
X114428766Y-161536703D01*
X114423729Y-161496156D01*
X114420687Y-161455262D01*
X114419666Y-161414088D01*
X114420687Y-161372914D01*
X114423729Y-161332020D01*
X114428766Y-161291473D01*
X114435768Y-161251342D01*
X114444709Y-161211694D01*
X114455558Y-161172598D01*
X114468289Y-161134122D01*
X114482873Y-161096333D01*
X114499281Y-161059301D01*
X114517486Y-161023092D01*
X114537460Y-160987775D01*
X114559174Y-160953418D01*
X114582599Y-160920090D01*
X114607709Y-160887858D01*
X114634474Y-160856789D01*
X114662867Y-160826953D01*
X114692703Y-160798561D01*
X114723771Y-160771796D01*
X114756003Y-160746686D01*
X114789332Y-160723260D01*
X114823688Y-160701547D01*
X114859005Y-160681574D01*
X114895214Y-160663369D01*
X114932246Y-160646960D01*
X114970035Y-160632377D01*
X115008511Y-160619646D01*
X115047607Y-160608797D01*
X115087254Y-160599857D01*
X115127386Y-160592855D01*
X115167933Y-160587819D01*
X115208827Y-160584776D01*
X115250001Y-160583756D01*
X115292730Y-160584836D01*
G37*
D10*
X116603969Y-161197047D02*
X116611210Y-161252080D01*
D12*
X117219783Y-156960824D02*
X117575347Y-156814429D01*
D10*
X115192128Y-162770956D02*
X115134766Y-162767347D01*
X114571312Y-155209164D02*
X114578731Y-155164781D01*
X116493073Y-160828219D02*
X116515177Y-160878696D01*
D11*
X103800000Y-60500000D02*
X106300000Y-60500000D01*
D12*
X116508660Y-157654897D02*
X116546993Y-157632023D01*
X117930907Y-159043044D02*
X118286469Y-158896648D01*
X116785929Y-156827939D02*
X116800021Y-156824035D01*
D11*
X103800000Y-70500000D02*
X106300000Y-70500000D01*
D12*
X116840045Y-156816073D02*
X116852426Y-156814849D01*
D11*
X99800000Y-58500000D02*
X89800000Y-58500000D01*
D10*
X116247158Y-162341424D02*
X116208495Y-162380845D01*
D11*
X99800000Y-166500000D02*
X97300000Y-166500000D01*
X99800000Y-216500000D02*
X97300000Y-216500000D01*
D10*
X115750706Y-154832806D02*
X115765632Y-154849342D01*
X114700872Y-162657344D02*
X114601391Y-162608877D01*
X113886584Y-161531814D02*
X113880557Y-161419267D01*
X116616220Y-161307505D02*
X116618973Y-161363256D01*
D12*
X118286471Y-156814429D02*
X118642033Y-156960824D01*
D10*
X116597923Y-161644626D02*
X116586563Y-161700968D01*
X115853747Y-154976878D02*
X115863889Y-154996593D01*
D11*
X103800000Y-50500000D02*
X106300000Y-50500000D01*
X99800000Y-94500000D02*
X97300000Y-94500000D01*
D13*
X85300000Y-168500000D02*
X99800000Y-168500000D01*
D11*
X111100000Y-177500000D02*
X111100000Y-176100000D01*
D10*
X114147145Y-160590802D02*
X114216588Y-160504032D01*
D11*
X99800000Y-194500000D02*
X97300000Y-194500000D01*
D12*
X117219783Y-159043044D02*
X117575347Y-158896648D01*
D13*
X85300000Y-88500000D02*
X99550000Y-88500000D01*
D10*
X115921271Y-155164781D02*
X115925340Y-155186879D01*
X115934711Y-160216796D02*
X115934711Y-155299859D01*
D11*
X99800000Y-152500000D02*
X97300000Y-152500000D01*
X103800000Y-126500000D02*
X106300000Y-126500000D01*
D12*
X116756996Y-157531376D02*
X116785929Y-157522012D01*
D11*
X99800000Y-80500000D02*
X97300000Y-80500000D01*
D10*
X116284251Y-162300421D02*
X116247158Y-162341424D01*
D11*
X99800000Y-138500000D02*
X89800000Y-138500000D01*
X103800000Y-144500000D02*
X106300000Y-144500000D01*
X99800000Y-178500000D02*
X89800000Y-178500000D01*
D12*
X116508660Y-158348971D02*
X116546993Y-158326096D01*
D10*
X114706226Y-154883755D02*
X114734369Y-154849342D01*
X114602025Y-155078569D02*
X114617756Y-155036989D01*
X115588482Y-162729803D02*
X115533712Y-162742570D01*
D11*
X103800000Y-92500000D02*
X106300000Y-92500000D01*
X99800000Y-154500000D02*
X97300000Y-154500000D01*
D10*
X114636113Y-154996593D02*
X114657026Y-154957505D01*
D11*
X99800000Y-158500000D02*
X89800000Y-158500000D01*
D10*
X115250000Y-161263335D02*
X115250000Y-156924328D01*
D11*
X103800000Y-142500000D02*
X106300000Y-142500000D01*
D10*
X114966287Y-162742570D02*
X114911517Y-162729804D01*
D11*
X103800000Y-58500000D02*
X113800000Y-58500000D01*
D10*
X115533712Y-162742570D02*
X115478210Y-162753111D01*
D11*
X99800000Y-160500000D02*
X97300000Y-160500000D01*
X99800000Y-72500000D02*
X97300000Y-72500000D01*
D10*
X114252840Y-162341424D02*
X114180277Y-162257878D01*
D13*
X85300000Y-68500000D02*
X99550000Y-68500000D01*
D10*
X114029260Y-162023565D02*
X114004713Y-161972682D01*
D11*
X103800000Y-110500000D02*
X106300000Y-110500000D01*
D10*
X116515177Y-160878696D02*
X116535239Y-160930018D01*
D11*
X103800000Y-122500000D02*
X106300000Y-122500000D01*
D12*
X116852426Y-157508922D02*
X116864221Y-157508502D01*
D10*
X115934711Y-160216798D02*
X115984222Y-160246783D01*
D11*
X99800000Y-174500000D02*
X97300000Y-174500000D01*
X103800000Y-94500000D02*
X106300000Y-94500000D01*
D12*
X116546993Y-156937950D02*
X116588868Y-156914504D01*
D10*
X116517814Y-161920560D02*
X116495283Y-161972682D01*
X114989202Y-154666750D02*
X115031348Y-154650984D01*
X114578731Y-155164781D02*
X114588993Y-155121208D01*
X115702617Y-154786063D02*
X115719189Y-154801151D01*
X115117656Y-154628050D02*
X115161530Y-154620883D01*
D11*
X99800000Y-172500000D02*
X97300000Y-172500000D01*
D10*
X114764780Y-154816737D02*
X114797385Y-154786063D01*
D12*
X116668739Y-156873974D02*
X116697897Y-156860750D01*
D10*
X115425785Y-154638083D02*
X115468651Y-154650983D01*
X116206661Y-160422728D02*
X116245937Y-160462665D01*
D14*
X94500000Y-196431594D02*
X94500000Y-191540649D01*
D11*
X99800000Y-144500000D02*
X97300000Y-144500000D01*
X99800000Y-82500000D02*
X97300000Y-82500000D01*
X99800000Y-192500000D02*
X97300000Y-192500000D01*
D12*
X116546993Y-159020169D02*
X116588868Y-158996723D01*
D11*
X103800000Y-138500000D02*
X113800000Y-138500000D01*
D12*
X116508660Y-156960824D02*
X116546993Y-156937950D01*
D10*
X116556606Y-161812767D02*
X116538274Y-161867240D01*
X114947921Y-154685384D02*
X114989202Y-154666750D01*
D15*
G36*
X93613263Y-224895758D02*
G01*
X93634420Y-225205976D01*
X93669683Y-225504655D01*
X93719050Y-225791793D01*
X93420000Y-226190000D01*
X93310000Y-226730000D01*
X93072204Y-225914233D01*
X93013643Y-225625859D01*
X92971053Y-225316464D01*
X92944435Y-224986049D01*
X92933787Y-224634614D01*
X92933565Y-224573998D01*
X92939004Y-224274223D01*
X92959886Y-223934329D01*
X92996431Y-223616073D01*
X93048638Y-223319455D01*
X93129341Y-223000750D01*
X93156315Y-222915101D01*
X93263585Y-222634463D01*
X93410223Y-222351859D01*
X93582505Y-222109921D01*
X93806978Y-221886350D01*
X94061010Y-221715625D01*
X94341704Y-221600775D01*
X94649059Y-221541797D01*
X94831332Y-221533175D01*
X95154689Y-221560789D01*
X95449916Y-221643633D01*
X95717012Y-221781707D01*
X95955979Y-221975010D01*
X96166816Y-222223542D01*
X96230844Y-222318660D01*
X96374806Y-222580832D01*
X96494369Y-222876421D01*
X96589530Y-223205426D01*
X96648091Y-223492690D01*
X96691036Y-223801340D01*
X96718365Y-224131377D01*
X96730077Y-224482801D01*
X96730565Y-224573998D01*
X96722757Y-224928707D01*
X96699332Y-225262305D01*
X96660292Y-225574791D01*
X96550000Y-226160000D01*
X96290000Y-226750000D01*
X96200000Y-226200000D01*
X95945080Y-225791793D01*
X95999627Y-225467951D01*
X96033126Y-225167830D01*
X96052520Y-224856169D01*
X96057920Y-224573998D01*
X96050867Y-224248392D01*
X96029710Y-223935425D01*
X95994447Y-223635098D01*
X95945080Y-223347411D01*
X95869551Y-223048144D01*
X95757352Y-222756140D01*
X95599552Y-222484193D01*
X95566992Y-222440293D01*
X95339205Y-222230435D01*
X95053715Y-222117434D01*
X94831332Y-222095910D01*
X94536654Y-222136604D01*
X94266930Y-222273819D01*
X94100069Y-222440293D01*
X93934052Y-222702857D01*
X93814983Y-222986331D01*
X93733762Y-223277922D01*
X93719050Y-223347411D01*
X93664504Y-223671948D01*
X93631004Y-223973855D01*
X93611610Y-224288401D01*
X93606210Y-224573998D01*
X93613263Y-224895758D01*
G37*
D11*
X99800000Y-112500000D02*
X97300000Y-112500000D01*
X99800000Y-180500000D02*
X97300000Y-180500000D01*
D10*
X115735222Y-154816737D02*
X115750706Y-154832806D01*
X115806976Y-154901601D02*
X115819582Y-154919851D01*
X116586563Y-161700968D02*
X116572756Y-161757181D01*
D12*
X116697897Y-156860750D02*
X116727484Y-156848383D01*
D11*
X99800000Y-50500000D02*
X97300000Y-50500000D01*
D10*
X115799127Y-162657344D02*
X115747843Y-162678582D01*
X115904835Y-155099763D02*
X115911009Y-155121208D01*
D12*
X116508660Y-159043044D02*
X116546993Y-159020169D01*
X116613721Y-156901280D02*
X116640512Y-156887627D01*
X117219783Y-158348971D02*
X117575347Y-158202575D01*
D10*
X116384768Y-160636074D02*
X116414773Y-160682516D01*
D12*
X116840045Y-158204220D02*
X116852426Y-158202995D01*
D10*
X114588993Y-155121208D02*
X114602025Y-155078569D01*
X113946767Y-160982121D02*
X113984822Y-160878695D01*
D11*
X99800000Y-136500000D02*
X97300000Y-136500000D01*
X103800000Y-62500000D02*
X106300000Y-62500000D01*
X99800000Y-98500000D02*
X89800000Y-98500000D01*
D10*
X113880557Y-161419267D02*
X113883777Y-161307504D01*
X116245937Y-160462665D02*
X116283412Y-160504033D01*
D13*
X85300000Y-228500000D02*
X92650000Y-228500000D01*
D12*
X116852426Y-156814849D02*
X116864221Y-156814429D01*
X117575347Y-158202575D02*
X117930909Y-158348971D01*
D10*
X114467907Y-160278590D02*
X114565292Y-160216798D01*
D14*
X90899758Y-191540649D02*
X92107651Y-191540649D01*
D11*
X99800000Y-90500000D02*
X97300000Y-90500000D01*
D14*
X94500000Y-191540649D02*
X93292107Y-191540649D01*
D10*
X115642464Y-162714855D02*
X115588482Y-162729803D01*
X115250000Y-162772168D02*
X115192128Y-162770956D01*
X115134766Y-162767347D02*
X115077967Y-162761384D01*
D12*
X116864221Y-158202575D02*
X117219783Y-158348971D01*
X116864221Y-157508502D02*
X117219783Y-157654897D01*
D10*
X116078302Y-160312153D02*
X116122817Y-160347407D01*
X115911009Y-155121208D02*
X115916491Y-155142885D01*
D12*
X116813780Y-157514792D02*
X116827142Y-157512121D01*
D15*
G36*
X109887558Y-154724326D02*
G01*
X109915519Y-154726125D01*
X109942935Y-154729122D01*
X109969806Y-154733319D01*
X109996132Y-154738715D01*
X110021913Y-154745310D01*
X110047149Y-154753105D01*
X110071840Y-154762098D01*
X110095986Y-154772290D01*
X110119587Y-154783682D01*
X110142642Y-154796273D01*
X110165153Y-154810063D01*
X110187119Y-154825051D01*
X110208539Y-154841240D01*
X110229415Y-154858627D01*
X110249745Y-154877213D01*
X110270021Y-154895963D01*
X110288989Y-154915585D01*
X110306649Y-154936078D01*
X110323000Y-154957444D01*
X110338044Y-154979683D01*
X110351779Y-155002793D01*
X110364206Y-155026775D01*
X110375325Y-155051629D01*
X110385136Y-155077356D01*
X110393639Y-155103954D01*
X110400834Y-155131425D01*
X110406720Y-155159768D01*
X110411299Y-155188982D01*
X110414569Y-155219069D01*
X110416531Y-155250028D01*
X110417185Y-155281859D01*
X110416531Y-155313717D01*
X110414569Y-155344758D01*
X110411299Y-155374981D01*
X110406720Y-155404386D01*
X110400834Y-155432974D01*
X110393639Y-155460745D01*
X110385136Y-155487698D01*
X110375325Y-155513833D01*
X110364206Y-155539150D01*
X110351779Y-155563651D01*
X110338044Y-155587333D01*
X110323000Y-155610198D01*
X110306649Y-155632245D01*
X110288989Y-155653475D01*
X110270021Y-155673887D01*
X110249745Y-155693482D01*
X110229415Y-155711223D01*
X110208539Y-155727820D01*
X110187119Y-155743272D01*
X110165153Y-155757580D01*
X110142642Y-155770743D01*
X110119587Y-155782761D01*
X110095986Y-155793635D01*
X110071840Y-155803364D01*
X110047149Y-155811949D01*
X110021913Y-155819389D01*
X109996132Y-155825684D01*
X109969806Y-155830835D01*
X109942935Y-155834841D01*
X109915519Y-155837703D01*
X109887558Y-155839419D01*
X109859052Y-155839992D01*
X109831363Y-155839419D01*
X109804111Y-155837703D01*
X109777294Y-155834841D01*
X109750914Y-155830835D01*
X109724969Y-155825684D01*
X109699461Y-155819389D01*
X109674389Y-155811949D01*
X109649752Y-155803364D01*
X109625552Y-155793635D01*
X109601788Y-155782761D01*
X109578459Y-155770743D01*
X109555567Y-155757580D01*
X109533111Y-155743272D01*
X109511091Y-155727820D01*
X109489507Y-155711223D01*
X109468359Y-155693482D01*
X109448083Y-155673887D01*
X109429115Y-155653475D01*
X109411456Y-155632245D01*
X109395104Y-155610198D01*
X109380061Y-155587333D01*
X109366325Y-155563651D01*
X109353898Y-155539150D01*
X109342779Y-155513833D01*
X109332968Y-155487698D01*
X109324465Y-155460745D01*
X109317270Y-155432974D01*
X109311384Y-155404386D01*
X109306805Y-155374981D01*
X109303535Y-155344758D01*
X109301573Y-155313717D01*
X109300919Y-155281859D01*
X109301573Y-155250028D01*
X109303535Y-155219069D01*
X109306805Y-155188982D01*
X109311384Y-155159768D01*
X109317270Y-155131425D01*
X109324465Y-155103954D01*
X109332968Y-155077356D01*
X109342779Y-155051629D01*
X109353898Y-155026775D01*
X109366325Y-155002793D01*
X109380061Y-154979683D01*
X109395104Y-154957444D01*
X109411456Y-154936078D01*
X109429115Y-154915585D01*
X109448083Y-154895963D01*
X109468359Y-154877213D01*
X109489507Y-154858627D01*
X109511091Y-154841240D01*
X109533111Y-154825051D01*
X109555567Y-154810063D01*
X109578459Y-154796273D01*
X109601788Y-154783682D01*
X109625552Y-154772290D01*
X109649752Y-154762098D01*
X109674389Y-154753105D01*
X109699461Y-154745310D01*
X109724969Y-154738715D01*
X109750914Y-154733319D01*
X109777294Y-154729122D01*
X109804111Y-154726125D01*
X109831363Y-154724326D01*
X109859052Y-154723726D01*
X109887558Y-154724326D01*
G37*
D10*
X115468651Y-154650983D02*
X115510797Y-154666750D01*
D11*
X99800000Y-190500000D02*
X97300000Y-190500000D01*
D10*
X115946691Y-162581734D02*
X115898607Y-162608877D01*
D12*
X116588868Y-157608577D02*
X116613721Y-157595353D01*
D10*
X116613413Y-161531815D02*
X116606865Y-161588220D01*
X115685514Y-154771490D02*
X115702617Y-154786063D01*
D11*
X99800000Y-54500000D02*
X97300000Y-54500000D01*
X103800000Y-96500000D02*
X106300000Y-96500000D01*
X99800000Y-176500000D02*
X97300000Y-176500000D01*
X99800000Y-114500000D02*
X97300000Y-114500000D01*
X103800000Y-116500000D02*
X106300000Y-116500000D01*
D12*
X116840045Y-158898292D02*
X116852426Y-158897068D01*
D11*
X99800000Y-182500000D02*
X97300000Y-182500000D01*
D12*
X116640512Y-156887627D02*
X116668739Y-156873974D01*
D11*
X103800000Y-74500000D02*
X106300000Y-74500000D01*
D12*
X116827142Y-158206194D02*
X116840045Y-158204220D01*
D10*
X114797385Y-154786063D02*
X114832113Y-154757447D01*
X116283412Y-160504033D02*
X116319060Y-160546767D01*
D11*
X99800000Y-184500000D02*
X97300000Y-184500000D01*
D10*
X115382342Y-154628050D02*
X115425785Y-154638083D01*
X114832113Y-154757447D02*
X114868891Y-154731012D01*
X115765632Y-154849342D02*
X115779992Y-154866331D01*
X115649751Y-154743949D02*
X115667889Y-154757447D01*
D12*
X116668739Y-158262120D02*
X116697897Y-158248896D01*
D10*
X115747843Y-162678582D02*
X115695603Y-162697767D01*
X116208495Y-162380845D02*
X116168318Y-162418640D01*
D11*
X99800000Y-110500000D02*
X97300000Y-110500000D01*
X99800000Y-78500000D02*
X89800000Y-78500000D01*
X103800000Y-114500000D02*
X106300000Y-114500000D01*
D12*
X116827142Y-157512121D02*
X116840045Y-157510146D01*
X116668739Y-157568047D02*
X116697897Y-157554822D01*
D10*
X115819582Y-154919851D02*
X115831585Y-154938491D01*
X115592353Y-154706884D02*
X115611975Y-154718652D01*
D12*
X116800021Y-156824035D02*
X116813780Y-156820720D01*
X116756996Y-158225450D02*
X116785929Y-158216086D01*
D10*
X115882246Y-155036989D02*
X115890444Y-155057638D01*
X115779992Y-154866331D02*
X115793776Y-154883755D01*
X116619440Y-161419268D02*
X116617596Y-161475476D01*
D15*
G36*
X110312535Y-160074824D02*
G01*
X109405569Y-160074824D01*
X109405569Y-156419054D01*
X110312535Y-156419054D01*
X110312535Y-160074824D01*
G37*
D10*
X114868891Y-154731012D02*
X114907647Y-154706884D01*
D12*
X116588868Y-156914504D02*
X116613721Y-156901280D01*
D10*
X116352855Y-160590802D02*
X116384768Y-160636074D01*
X115842977Y-154957505D02*
X115853747Y-154976878D01*
D11*
X99800000Y-196500000D02*
X97300000Y-196500000D01*
X103800000Y-136500000D02*
X106300000Y-136500000D01*
D13*
X85300000Y-208500000D02*
X99800000Y-208500000D01*
D10*
X114566808Y-155254232D02*
X114571312Y-155209164D01*
D11*
X99800000Y-150500000D02*
X97300000Y-150500000D01*
X103800000Y-76500000D02*
X106300000Y-76500000D01*
X99800000Y-214500000D02*
X97300000Y-214500000D01*
D10*
X116538274Y-161867240D02*
X116517814Y-161920560D01*
X115021789Y-162753111D02*
X114966287Y-162742570D01*
X114565290Y-155299861D02*
X114566808Y-155254232D01*
D14*
X94500000Y-196431594D02*
X90899758Y-196431594D01*
D10*
X113927240Y-161757180D02*
X113902073Y-161644625D01*
D15*
G36*
X112671626Y-156322363D02*
G01*
X112754801Y-156325306D01*
X112836449Y-156330212D01*
X112916572Y-156337079D01*
X112995168Y-156345909D01*
X113072239Y-156356701D01*
X113147783Y-156369455D01*
X113221801Y-156384172D01*
X113292985Y-156399870D01*
X113360026Y-156415567D01*
X113422925Y-156431265D01*
X113481681Y-156446962D01*
X113536296Y-156462660D01*
X113586768Y-156478357D01*
X113633097Y-156494054D01*
X113675284Y-156509752D01*
X113507845Y-157228347D01*
X113468492Y-157214394D01*
X113427177Y-157200441D01*
X113383900Y-157186487D01*
X113338660Y-157172534D01*
X113291459Y-157158581D01*
X113242295Y-157144628D01*
X113191170Y-157130674D01*
X113138082Y-157116721D01*
X113084558Y-157103640D01*
X113028635Y-157092303D01*
X112970315Y-157082710D01*
X112909596Y-157074861D01*
X112846479Y-157068757D01*
X112780964Y-157064396D01*
X112713051Y-157061780D01*
X112642739Y-157060908D01*
X112610908Y-157061235D01*
X112579949Y-157062216D01*
X112549862Y-157063851D01*
X112520648Y-157066141D01*
X112492305Y-157069084D01*
X112464834Y-157072681D01*
X112438236Y-157076933D01*
X112412510Y-157081838D01*
X112387655Y-157087398D01*
X112363673Y-157093611D01*
X112340563Y-157100479D01*
X112318325Y-157108001D01*
X112296959Y-157116176D01*
X112276465Y-157125006D01*
X112256843Y-157134490D01*
X112238093Y-157144628D01*
X112229079Y-157149520D01*
X112220352Y-157154602D01*
X112211910Y-157159876D01*
X112203755Y-157165340D01*
X112195886Y-157170995D01*
X112188302Y-157176841D01*
X112181006Y-157182877D01*
X112173995Y-157189104D01*
X112167270Y-157195522D01*
X112160832Y-157202131D01*
X112154680Y-157208931D01*
X112148813Y-157215921D01*
X112143233Y-157223102D01*
X112137940Y-157230474D01*
X112132932Y-157238036D01*
X112128210Y-157245790D01*
X112123775Y-157253734D01*
X112119626Y-157261869D01*
X112115763Y-157270194D01*
X112112186Y-157278711D01*
X112108895Y-157287418D01*
X112105890Y-157296316D01*
X112103172Y-157305405D01*
X112100740Y-157314684D01*
X112098594Y-157324154D01*
X112096734Y-157333815D01*
X112095160Y-157343667D01*
X112093872Y-157353710D01*
X112092871Y-157363943D01*
X112092155Y-157374367D01*
X112091583Y-157395788D01*
X112091801Y-157408760D01*
X112092455Y-157421514D01*
X112093545Y-157434050D01*
X112095071Y-157446368D01*
X112097033Y-157458469D01*
X112099431Y-157470351D01*
X112102266Y-157482015D01*
X112105536Y-157493461D01*
X112109242Y-157504689D01*
X112113385Y-157515699D01*
X112117963Y-157526491D01*
X112122978Y-157537065D01*
X112128428Y-157547421D01*
X112134315Y-157557559D01*
X112140638Y-157567479D01*
X112147397Y-157577181D01*
X112154673Y-157586746D01*
X112162549Y-157596258D01*
X112171025Y-157605714D01*
X112180100Y-157615116D01*
X112189775Y-157624464D01*
X112200049Y-157633757D01*
X112210923Y-157642996D01*
X112222396Y-157652180D01*
X112234469Y-157661309D01*
X112247141Y-157670384D01*
X112260413Y-157679405D01*
X112274285Y-157688371D01*
X112288756Y-157697282D01*
X112303826Y-157706140D01*
X112319497Y-157714942D01*
X112335767Y-157723690D01*
X112370541Y-157741459D01*
X112408586Y-157759881D01*
X112449901Y-157778958D01*
X112494486Y-157798689D01*
X112542342Y-157819074D01*
X112593467Y-157840113D01*
X112647863Y-157861806D01*
X112705530Y-157884153D01*
X112809090Y-157922634D01*
X112906981Y-157961333D01*
X112999204Y-158000249D01*
X113085758Y-158039384D01*
X113166644Y-158078736D01*
X113241861Y-158118307D01*
X113311409Y-158158096D01*
X113375289Y-158198103D01*
X113405294Y-158218351D01*
X113434263Y-158238981D01*
X113462197Y-158259993D01*
X113489095Y-158281386D01*
X113514958Y-158303161D01*
X113539785Y-158325318D01*
X113563577Y-158347855D01*
X113586333Y-158370775D01*
X113608053Y-158394076D01*
X113628737Y-158417758D01*
X113648387Y-158441822D01*
X113667000Y-158466268D01*
X113684578Y-158491095D01*
X113701120Y-158516303D01*
X113716627Y-158541893D01*
X113731098Y-158567865D01*
X113744615Y-158594436D01*
X113757260Y-158621825D01*
X113769033Y-158650031D01*
X113779934Y-158679055D01*
X113789963Y-158708897D01*
X113799120Y-158739556D01*
X113807405Y-158771033D01*
X113814817Y-158803327D01*
X113821358Y-158836439D01*
X113827026Y-158870368D01*
X113831823Y-158905115D01*
X113835747Y-158940680D01*
X113838799Y-158977062D01*
X113840979Y-159014262D01*
X113842287Y-159052279D01*
X113842724Y-159091114D01*
X113842015Y-159135127D01*
X113839889Y-159178213D01*
X113836346Y-159220373D01*
X113831387Y-159261606D01*
X113825009Y-159301913D01*
X113817215Y-159341293D01*
X113808004Y-159379746D01*
X113797375Y-159417273D01*
X113785330Y-159453873D01*
X113771867Y-159489547D01*
X113756987Y-159524294D01*
X113740690Y-159558114D01*
X113722976Y-159591008D01*
X113703845Y-159622976D01*
X113683296Y-159654016D01*
X113661330Y-159684130D01*
X113638874Y-159713345D01*
X113615110Y-159741688D01*
X113590038Y-159769159D01*
X113563657Y-159795757D01*
X113535969Y-159821484D01*
X113506972Y-159846338D01*
X113476667Y-159870320D01*
X113445054Y-159893431D01*
X113412133Y-159915669D01*
X113377903Y-159937035D01*
X113342366Y-159957529D01*
X113305521Y-159977150D01*
X113267367Y-159995900D01*
X113227905Y-160013778D01*
X113187135Y-160030783D01*
X113145057Y-160046917D01*
X113101780Y-160061279D01*
X113057413Y-160074714D01*
X113011955Y-160087223D01*
X112965408Y-160098806D01*
X112917770Y-160109461D01*
X112869043Y-160119191D01*
X112819225Y-160127993D01*
X112768317Y-160135869D01*
X112716319Y-160142819D01*
X112663231Y-160148841D01*
X112609053Y-160153938D01*
X112553785Y-160158107D01*
X112439978Y-160163667D01*
X112321811Y-160165520D01*
X112204080Y-160164212D01*
X112091581Y-160160288D01*
X111984315Y-160153747D01*
X111882282Y-160144590D01*
X111785480Y-160132817D01*
X111693912Y-160118428D01*
X111607576Y-160101422D01*
X111526472Y-160081800D01*
X111452672Y-160062942D01*
X111384759Y-160044737D01*
X111322732Y-160027186D01*
X111266592Y-160010290D01*
X111216338Y-159994047D01*
X111171971Y-159978459D01*
X111133490Y-159963524D01*
X111100896Y-159949244D01*
X111268336Y-159202742D01*
X111323169Y-159223454D01*
X111379527Y-159243729D01*
X111437411Y-159263569D01*
X111496822Y-159282973D01*
X111557759Y-159301941D01*
X111620222Y-159320473D01*
X111684211Y-159338568D01*
X111749726Y-159356228D01*
X111818293Y-159370944D01*
X111887951Y-159383698D01*
X111958698Y-159394490D01*
X112030536Y-159403320D01*
X112103464Y-159410188D01*
X112177482Y-159415093D01*
X112252590Y-159418037D01*
X112328788Y-159419018D01*
X112403024Y-159417928D01*
X112472246Y-159414657D01*
X112536453Y-159409207D01*
X112595645Y-159401576D01*
X112623361Y-159396943D01*
X112649823Y-159391765D01*
X112675032Y-159386042D01*
X112698987Y-159379774D01*
X112721688Y-159372961D01*
X112743136Y-159365603D01*
X112763330Y-159357699D01*
X112782271Y-159349251D01*
X112791714Y-159344768D01*
X112800857Y-159340040D01*
X112809701Y-159335066D01*
X112818244Y-159329847D01*
X112826488Y-159324383D01*
X112834433Y-159318674D01*
X112842077Y-159312719D01*
X112849422Y-159306519D01*
X112856466Y-159300074D01*
X112863211Y-159293383D01*
X112869657Y-159286448D01*
X112875802Y-159279267D01*
X112881648Y-159271840D01*
X112887194Y-159264169D01*
X112892440Y-159256252D01*
X112897386Y-159248090D01*
X112902033Y-159239682D01*
X112906380Y-159231029D01*
X112910427Y-159222131D01*
X112914174Y-159212988D01*
X112917621Y-159203600D01*
X112920769Y-159193966D01*
X112923617Y-159184087D01*
X112926165Y-159173963D01*
X112928413Y-159163593D01*
X112930362Y-159152978D01*
X112932011Y-159142118D01*
X112933360Y-159131013D01*
X112934409Y-159119662D01*
X112935158Y-159108066D01*
X112935758Y-159084138D01*
X112935458Y-159070321D01*
X112934559Y-159056777D01*
X112933060Y-159043505D01*
X112930961Y-159030505D01*
X112928263Y-159017778D01*
X112924966Y-159005324D01*
X112921069Y-158993142D01*
X112916572Y-158981233D01*
X112911476Y-158969596D01*
X112905780Y-158958231D01*
X112899485Y-158947140D01*
X112892590Y-158936320D01*
X112885096Y-158925774D01*
X112877002Y-158915499D01*
X112868308Y-158905497D01*
X112859015Y-158895768D01*
X112849968Y-158886175D01*
X112840266Y-158876582D01*
X112829910Y-158866989D01*
X112818900Y-158857396D01*
X112807236Y-158847803D01*
X112794918Y-158838211D01*
X112781946Y-158828618D01*
X112768319Y-158819025D01*
X112754039Y-158809432D01*
X112739105Y-158799839D01*
X112723516Y-158790246D01*
X112707274Y-158780653D01*
X112690377Y-158771060D01*
X112672826Y-158761468D01*
X112654621Y-158751875D01*
X112635762Y-158742282D01*
X112597718Y-158722878D01*
X112556838Y-158703038D01*
X112513125Y-158682762D01*
X112466578Y-158662050D01*
X112417196Y-158640902D01*
X112364980Y-158619318D01*
X112309930Y-158597298D01*
X112252045Y-158574842D01*
X112176283Y-158544973D01*
X112102483Y-158514668D01*
X112030645Y-158483927D01*
X111960770Y-158452750D01*
X111892856Y-158421137D01*
X111826905Y-158389088D01*
X111762916Y-158356603D01*
X111700889Y-158323682D01*
X111671620Y-158305941D01*
X111643114Y-158287600D01*
X111615371Y-158268659D01*
X111588390Y-158249119D01*
X111562173Y-158228979D01*
X111536720Y-158208240D01*
X111512029Y-158186901D01*
X111488101Y-158164963D01*
X111464936Y-158142425D01*
X111442535Y-158119288D01*
X111420896Y-158095551D01*
X111400021Y-158071214D01*
X111379909Y-158046278D01*
X111360559Y-158020743D01*
X111341973Y-157994608D01*
X111324150Y-157967873D01*
X111308098Y-157940348D01*
X111293082Y-157911842D01*
X111279102Y-157882354D01*
X111266157Y-157851886D01*
X111254247Y-157820437D01*
X111243374Y-157788006D01*
X111233535Y-157754594D01*
X111224733Y-157720202D01*
X111216966Y-157684828D01*
X111210235Y-157648473D01*
X111204539Y-157611137D01*
X111199879Y-157572820D01*
X111196254Y-157533522D01*
X111193665Y-157493242D01*
X111192111Y-157451982D01*
X111191594Y-157409741D01*
X111192248Y-157368262D01*
X111194210Y-157327547D01*
X111197480Y-157287595D01*
X111202059Y-157248405D01*
X111207945Y-157209979D01*
X111215140Y-157172316D01*
X111223643Y-157135416D01*
X111233454Y-157099279D01*
X111244573Y-157063906D01*
X111257000Y-157029295D01*
X111270735Y-156995447D01*
X111285779Y-156962362D01*
X111302130Y-156930041D01*
X111319790Y-156898482D01*
X111338758Y-156867687D01*
X111359034Y-156837654D01*
X111381354Y-156807568D01*
X111404709Y-156778353D01*
X111429100Y-156750010D01*
X111454527Y-156722540D01*
X111480989Y-156695941D01*
X111508487Y-156670215D01*
X111537020Y-156645360D01*
X111566589Y-156621378D01*
X111597194Y-156598268D01*
X111628834Y-156576030D01*
X111661510Y-156554664D01*
X111695221Y-156534170D01*
X111729968Y-156514548D01*
X111765750Y-156495798D01*
X111802569Y-156477921D01*
X111840422Y-156460915D01*
X111880129Y-156444019D01*
X111920763Y-156428212D01*
X111962323Y-156413496D01*
X112004810Y-156399869D01*
X112048223Y-156387333D01*
X112092563Y-156375887D01*
X112137830Y-156365531D01*
X112184023Y-156356265D01*
X112231143Y-156348089D01*
X112279189Y-156341004D01*
X112328162Y-156335008D01*
X112378062Y-156330103D01*
X112428888Y-156326287D01*
X112480640Y-156323562D01*
X112533320Y-156321927D01*
X112586925Y-156321382D01*
X112671626Y-156322363D01*
G37*
D10*
X114657026Y-154957505D02*
X114680420Y-154919851D01*
X114734369Y-154849342D02*
X114764780Y-154816737D01*
D11*
X99800000Y-226500000D02*
X97300000Y-226500000D01*
D12*
X116800021Y-158906254D02*
X116813780Y-158902939D01*
D13*
X118300000Y-148500000D02*
X104050000Y-148500000D01*
D10*
X116444230Y-162073164D02*
X116415819Y-162121438D01*
D11*
X99800000Y-106500000D02*
X97300000Y-106500000D01*
D10*
X116470736Y-162023565D02*
X116444230Y-162073164D01*
D12*
X116800021Y-158212181D02*
X116813780Y-158208866D01*
X116813780Y-158208866D02*
X116827142Y-158206194D01*
D11*
X99800000Y-210500000D02*
X97300000Y-210500000D01*
X99800000Y-224500000D02*
X97300000Y-224500000D01*
D10*
X116353508Y-162213838D02*
X116319720Y-162257878D01*
X114114437Y-162168344D02*
X114055767Y-162073164D01*
D11*
X103800000Y-66500000D02*
X106300000Y-66500000D01*
D10*
X115890444Y-155057638D02*
X115897977Y-155078569D01*
D12*
X116697897Y-157554822D02*
X116727484Y-157542456D01*
D11*
X99800000Y-198500000D02*
X89800000Y-198500000D01*
D10*
X116535239Y-160930018D02*
X116553232Y-160982122D01*
D11*
X99800000Y-86500000D02*
X97300000Y-86500000D01*
D16*
X92107655Y-191540649D02*
X93292107Y-191540649D01*
D11*
X99800000Y-220500000D02*
X97300000Y-220500000D01*
D15*
G36*
X87492323Y-225337501D02*
G01*
X85534473Y-225337501D01*
X85534473Y-224741060D01*
X87492323Y-224741060D01*
X87492323Y-225337501D01*
G37*
D11*
X103800000Y-118500000D02*
X113800000Y-118500000D01*
D10*
X115793776Y-154883755D02*
X115806976Y-154901601D01*
D11*
X103800000Y-86500000D02*
X106300000Y-86500000D01*
X99800000Y-164500000D02*
X97300000Y-164500000D01*
D13*
X96950000Y-228500000D02*
X99450000Y-228500000D01*
D10*
X114331679Y-162418640D02*
X114252840Y-162341424D01*
X115928689Y-155209164D02*
X115931310Y-155231620D01*
D11*
X99800000Y-122500000D02*
X97300000Y-122500000D01*
D10*
X115365233Y-162767347D02*
X115307871Y-162770956D01*
X114565290Y-160216796D02*
X114565290Y-155299859D01*
D11*
X99800000Y-96500000D02*
X97300000Y-96500000D01*
X103800000Y-82500000D02*
X106300000Y-82500000D01*
D10*
X113982182Y-161920560D02*
X113961722Y-161867240D01*
X116415819Y-162121438D02*
X116385560Y-162168344D01*
D12*
X116827142Y-156818048D02*
X116840045Y-156816073D01*
D11*
X103800000Y-54500000D02*
X106300000Y-54500000D01*
D12*
X116697897Y-158248896D02*
X116727484Y-158236529D01*
X116785929Y-158910158D02*
X116800021Y-158906254D01*
D10*
X115719189Y-154801151D02*
X115735222Y-154816737D01*
D13*
X85300000Y-128500000D02*
X99550000Y-128500000D01*
D10*
X116319720Y-162257878D02*
X116284251Y-162300421D01*
D11*
X103800000Y-100500000D02*
X106300000Y-100500000D01*
X99800000Y-130500000D02*
X97300000Y-130500000D01*
X99800000Y-92500000D02*
X97300000Y-92500000D01*
X99800000Y-74500000D02*
X97300000Y-74500000D01*
X99800000Y-60500000D02*
X97300000Y-60500000D01*
X103800000Y-98500000D02*
X113800000Y-98500000D01*
D10*
X113943389Y-161812766D02*
X113927240Y-161757180D01*
D12*
X116546993Y-158326096D02*
X116588868Y-158302650D01*
D11*
X99800000Y-142500000D02*
X97300000Y-142500000D01*
X103800000Y-146500000D02*
X106300000Y-146500000D01*
D10*
X116032095Y-160278590D02*
X116078302Y-160312153D01*
D12*
X116852426Y-158202995D02*
X116864221Y-158202575D01*
X116852426Y-158897068D02*
X116864221Y-158896648D01*
X116613721Y-157595353D02*
X116640512Y-157581700D01*
X116813780Y-158902939D02*
X116827142Y-158900267D01*
D11*
X103800000Y-140500000D02*
X106300000Y-140500000D01*
D10*
X115338468Y-154620883D02*
X115382342Y-154628050D01*
D11*
X99800000Y-146500000D02*
X97300000Y-146500000D01*
D10*
X116168318Y-162418640D02*
X116126685Y-162454766D01*
D11*
X99800000Y-118500000D02*
X89800000Y-118500000D01*
D12*
X117219783Y-157654897D02*
X117575347Y-157508502D01*
D10*
X115510797Y-154666750D02*
X115552079Y-154685384D01*
X115422032Y-162761384D02*
X115365233Y-162767347D01*
X116611210Y-161252080D02*
X116616220Y-161307505D01*
X116442844Y-160730064D02*
X116468953Y-160778654D01*
D11*
X103800000Y-52500000D02*
X106300000Y-52500000D01*
D12*
X116727484Y-157542456D02*
X116756996Y-157531376D01*
D13*
X118300000Y-48500000D02*
X104050000Y-48500000D01*
D11*
X99800000Y-124500000D02*
X97300000Y-124500000D01*
D13*
X85300000Y-148500000D02*
X99550000Y-148500000D01*
D11*
X99800000Y-76500000D02*
X97300000Y-76500000D01*
X99800000Y-100500000D02*
X97300000Y-100500000D01*
D12*
X116588868Y-158302650D02*
X116613721Y-158289426D01*
D11*
X99800000Y-56500000D02*
X97300000Y-56500000D01*
D10*
X116083649Y-162489182D02*
X116039268Y-162521844D01*
D11*
X111755931Y-176600001D02*
G75*
G02*
X110408589Y-176617179I-655931J-1399999D01*
G01*
D12*
X116697897Y-158942969D02*
X116727484Y-158930602D01*
X116727484Y-158236529D02*
X116756996Y-158225450D01*
D11*
X103800000Y-90500000D02*
X106300000Y-90500000D01*
X103800000Y-56500000D02*
X106300000Y-56500000D01*
D12*
X116756996Y-158919523D02*
X116785929Y-158910158D01*
D11*
X99800000Y-104500000D02*
X97300000Y-104500000D01*
X99800000Y-64500000D02*
X97300000Y-64500000D01*
D12*
X116613721Y-158289426D02*
X116640512Y-158275773D01*
D10*
X116126685Y-162454766D02*
X116083649Y-162489182D01*
X115934330Y-155276984D02*
X115934711Y-155299861D01*
X116039268Y-162521844D02*
X115993597Y-162552709D01*
D15*
G36*
X105899879Y-155185194D02*
G01*
X105999542Y-155188219D01*
X106097624Y-155193261D01*
X106194125Y-155200320D01*
X106289046Y-155209395D01*
X106382386Y-155220486D01*
X106474146Y-155233595D01*
X106564324Y-155248720D01*
X106652923Y-155265862D01*
X106739940Y-155285021D01*
X106825377Y-155306196D01*
X106909233Y-155329388D01*
X106991508Y-155354596D01*
X107072203Y-155381822D01*
X107151318Y-155411064D01*
X107228851Y-155442322D01*
X107304531Y-155475707D01*
X107378086Y-155511326D01*
X107449515Y-155549179D01*
X107518818Y-155589268D01*
X107585996Y-155631591D01*
X107651048Y-155676149D01*
X107713974Y-155722942D01*
X107774775Y-155771969D01*
X107833449Y-155823231D01*
X107889999Y-155876728D01*
X107944422Y-155932460D01*
X107996720Y-155990426D01*
X108046892Y-156050627D01*
X108094938Y-156113063D01*
X108140858Y-156177733D01*
X108184653Y-156244638D01*
X108226050Y-156313914D01*
X108264776Y-156385698D01*
X108300831Y-156459988D01*
X108334215Y-156536786D01*
X108364929Y-156616091D01*
X108392972Y-156697903D01*
X108418344Y-156782222D01*
X108441045Y-156869049D01*
X108461076Y-156958383D01*
X108478436Y-157050224D01*
X108493125Y-157144573D01*
X108505144Y-157241428D01*
X108514491Y-157340791D01*
X108521168Y-157442661D01*
X108525174Y-157547039D01*
X108526510Y-157653923D01*
X108525174Y-157756611D01*
X108521168Y-157857119D01*
X108514491Y-157955446D01*
X108505144Y-158051593D01*
X108493125Y-158145560D01*
X108478436Y-158237347D01*
X108461076Y-158326953D01*
X108441045Y-158414379D01*
X108418344Y-158499625D01*
X108392972Y-158582691D01*
X108364929Y-158663577D01*
X108334215Y-158742282D01*
X108300831Y-158818807D01*
X108264776Y-158893152D01*
X108226050Y-158965317D01*
X108184653Y-159035302D01*
X108141676Y-159103106D01*
X108096464Y-159168730D01*
X108049017Y-159232174D01*
X107999336Y-159293438D01*
X107947420Y-159352522D01*
X107893269Y-159409425D01*
X107836883Y-159464148D01*
X107778263Y-159516691D01*
X107717408Y-159567054D01*
X107654319Y-159615236D01*
X107588994Y-159661239D01*
X107521435Y-159705061D01*
X107451641Y-159746703D01*
X107379612Y-159786165D01*
X107305349Y-159823446D01*
X107228851Y-159858548D01*
X107150391Y-159891496D01*
X107070241Y-159922319D01*
X106988401Y-159951016D01*
X106904872Y-159977587D01*
X106819653Y-160002032D01*
X106732745Y-160024352D01*
X106644147Y-160044546D01*
X106553859Y-160062615D01*
X106461881Y-160078558D01*
X106368214Y-160092375D01*
X106272858Y-160104066D01*
X106175811Y-160113632D01*
X106077075Y-160121072D01*
X105976650Y-160126386D01*
X105874534Y-160129574D01*
X105770730Y-160130637D01*
X105696167Y-160130201D01*
X105618988Y-160128893D01*
X105456780Y-160123661D01*
X105284108Y-160114940D01*
X105100970Y-160102730D01*
X105007222Y-160096626D01*
X104914345Y-160088777D01*
X104822340Y-160079184D01*
X104731208Y-160067847D01*
X104640947Y-160054766D01*
X104551559Y-160039941D01*
X104463042Y-160023371D01*
X104375398Y-160005057D01*
X104375398Y-159293438D01*
X105331200Y-159293438D01*
X105368700Y-159296927D01*
X105411432Y-159300415D01*
X105459396Y-159303903D01*
X105512593Y-159307392D01*
X105576691Y-159310444D01*
X105650382Y-159312624D01*
X105733666Y-159313932D01*
X105826543Y-159314368D01*
X105826544Y-159314368D01*
X105932938Y-159312651D01*
X106035844Y-159307501D01*
X106135261Y-159298916D01*
X106231190Y-159286898D01*
X106323631Y-159271445D01*
X106412583Y-159252559D01*
X106498047Y-159230240D01*
X106580023Y-159204486D01*
X106658510Y-159175299D01*
X106733509Y-159142677D01*
X106805020Y-159106622D01*
X106873042Y-159067133D01*
X106937577Y-159024210D01*
X106998622Y-158977854D01*
X107056180Y-158928063D01*
X107110249Y-158874839D01*
X107161783Y-158817745D01*
X107209993Y-158758089D01*
X107254878Y-158695871D01*
X107296438Y-158631092D01*
X107334674Y-158563751D01*
X107369584Y-158493848D01*
X107401170Y-158421383D01*
X107429431Y-158346357D01*
X107454367Y-158268769D01*
X107475978Y-158188619D01*
X107494264Y-158105908D01*
X107509226Y-158020635D01*
X107520863Y-157932800D01*
X107529175Y-157842403D01*
X107534162Y-157749444D01*
X107535825Y-157653924D01*
X107534217Y-157555106D01*
X107529393Y-157459232D01*
X107521353Y-157366301D01*
X107510098Y-157276313D01*
X107495627Y-157189268D01*
X107477940Y-157105166D01*
X107457037Y-157024008D01*
X107432919Y-156945793D01*
X107405585Y-156870522D01*
X107375034Y-156798193D01*
X107341268Y-156728808D01*
X107304287Y-156662367D01*
X107264089Y-156598868D01*
X107220676Y-156538313D01*
X107174047Y-156480701D01*
X107124202Y-156426032D01*
X107071822Y-156374498D01*
X107015845Y-156326288D01*
X106956271Y-156281403D01*
X106893100Y-156239843D01*
X106826331Y-156201608D01*
X106755965Y-156166697D01*
X106682001Y-156135111D01*
X106604441Y-156106850D01*
X106523282Y-156081914D01*
X106438527Y-156060303D01*
X106350174Y-156042017D01*
X106258224Y-156027055D01*
X106162676Y-156015418D01*
X106063531Y-156007106D01*
X105960789Y-156002119D01*
X105854450Y-156000456D01*
X105769858Y-156000892D01*
X105690498Y-156002200D01*
X105616371Y-156004380D01*
X105547477Y-156007432D01*
X105486867Y-156011356D01*
X105430618Y-156016153D01*
X105404128Y-156018878D01*
X105378729Y-156021822D01*
X105354420Y-156024983D01*
X105331200Y-156028362D01*
X105331200Y-159293438D01*
X104375398Y-159293438D01*
X104375398Y-156028362D01*
X104375398Y-155309766D01*
X104463260Y-155292978D01*
X104552431Y-155277499D01*
X104642909Y-155263327D01*
X104734696Y-155250464D01*
X104827791Y-155238909D01*
X104922193Y-155228662D01*
X105017904Y-155219723D01*
X105114923Y-155212092D01*
X105304165Y-155199883D01*
X105481198Y-155191163D01*
X105646022Y-155185930D01*
X105798636Y-155184186D01*
X105899879Y-155185194D01*
G37*
D12*
X116727484Y-156848383D02*
X116756996Y-156837303D01*
D10*
X115695603Y-162697767D02*
X115642464Y-162714855D01*
D11*
X99800000Y-212500000D02*
X97300000Y-212500000D01*
D13*
X85300000Y-48500000D02*
X99550000Y-48500000D01*
X118300000Y-68500000D02*
X104050000Y-68500000D01*
D10*
X114804396Y-162697767D02*
X114700872Y-162657344D01*
D11*
X103800000Y-64500000D02*
X106300000Y-64500000D01*
D12*
X116640512Y-158275773D02*
X116668739Y-158262120D01*
D10*
X115916491Y-155142885D02*
X115921271Y-155164781D01*
D11*
X99800000Y-52500000D02*
X97300000Y-52500000D01*
D10*
X115031348Y-154650984D02*
X115074214Y-154638084D01*
D11*
X99750000Y-222500000D02*
X97250000Y-222500000D01*
D14*
X93292107Y-191540649D02*
X93292107Y-190818405D01*
D11*
X99800000Y-200500000D02*
X97300000Y-200500000D01*
D13*
X118300000Y-88500000D02*
X104050000Y-88500000D01*
D10*
X114680420Y-154919851D02*
X114706226Y-154883755D01*
D12*
X116668739Y-158956193D02*
X116697897Y-158942969D01*
D10*
X115898607Y-162608877D02*
X115849400Y-162634094D01*
D12*
X117930909Y-157654897D02*
X118286471Y-157508502D01*
D16*
X92107655Y-190818405D02*
X93292107Y-190818405D01*
D11*
X99800000Y-204500000D02*
X97300000Y-204500000D01*
D10*
X114907647Y-154706884D02*
X114947921Y-154685384D01*
D11*
X103800000Y-78500000D02*
X113800000Y-78500000D01*
D10*
X113896029Y-161197046D02*
X113917098Y-161088411D01*
D11*
X99800000Y-116500000D02*
X97300000Y-116500000D01*
D10*
X115074214Y-154638084D02*
X115117656Y-154628050D01*
X113917098Y-161088411D02*
X113946767Y-160982121D01*
D12*
X116640512Y-157581700D02*
X116668739Y-157568047D01*
D10*
X115831585Y-154938491D02*
X115842977Y-154957505D01*
X116572756Y-161757181D02*
X116556606Y-161812767D01*
D11*
X99800000Y-102500000D02*
X97300000Y-102500000D01*
D10*
X115933193Y-155254232D02*
X115934330Y-155276984D01*
D11*
X103800000Y-112500000D02*
X106300000Y-112500000D01*
D10*
X116122817Y-160347407D02*
X116165612Y-160384287D01*
D12*
X116840045Y-157510146D02*
X116852426Y-157508922D01*
D10*
X115307871Y-162770956D02*
X115250000Y-162772168D01*
X116319060Y-160546767D02*
X116352855Y-160590802D01*
X116606865Y-161588220D02*
X116597923Y-161644626D01*
D11*
X99800000Y-132500000D02*
X97300000Y-132500000D01*
D10*
X113961722Y-161867240D02*
X113943389Y-161812766D01*
X116495283Y-161972682D02*
X116470736Y-162023565D01*
D12*
X116785929Y-157522012D02*
X116800021Y-157518107D01*
D10*
X115631110Y-154731012D02*
X115649751Y-154743949D01*
D11*
X99800000Y-162500000D02*
X97300000Y-162500000D01*
D10*
X115897977Y-155078569D02*
X115904835Y-155099763D01*
X115849400Y-162634094D02*
X115799127Y-162657344D01*
X115863889Y-154996593D02*
X115873391Y-155016635D01*
X115993597Y-162552709D02*
X115946691Y-162581734D01*
X115552079Y-154685384D02*
X115592353Y-154706884D01*
X114911517Y-162729804D02*
X114804396Y-162697767D01*
D11*
X99800000Y-218500000D02*
X89800000Y-218500000D01*
D10*
X114293340Y-160422727D02*
X114377185Y-160347407D01*
D12*
X116800021Y-157518107D02*
X116813780Y-157514792D01*
X116588868Y-158996723D02*
X116613721Y-158983499D01*
D11*
X99800000Y-70500000D02*
X97300000Y-70500000D01*
D13*
X118300000Y-128500000D02*
X104050000Y-128500000D01*
D11*
X103800000Y-80500000D02*
X106300000Y-80500000D01*
X103800000Y-104500000D02*
X106300000Y-104500000D01*
D12*
X116640512Y-158969846D02*
X116668739Y-158956193D01*
D10*
X116165612Y-160384287D02*
X116206661Y-160422728D01*
X113984822Y-160878695D02*
X114031047Y-160778653D01*
D12*
X118286471Y-157508502D02*
X118642033Y-157654897D01*
D10*
X115205693Y-154616583D02*
X115249999Y-154615150D01*
D11*
X103800000Y-124500000D02*
X106300000Y-124500000D01*
X99800000Y-66500000D02*
X97300000Y-66500000D01*
D12*
X116827142Y-158900267D02*
X116840045Y-158898292D01*
D10*
X116569128Y-161034941D02*
X116582901Y-161088412D01*
D12*
X116813780Y-156820720D02*
X116827142Y-156818048D01*
D11*
X103800000Y-120500000D02*
X106300000Y-120500000D01*
X99800000Y-206500000D02*
X97300000Y-206500000D01*
X99800000Y-134500000D02*
X97300000Y-134500000D01*
D12*
X117575347Y-157508502D02*
X117930909Y-157654897D01*
X117930909Y-158348971D02*
X118286471Y-158202575D01*
D10*
X114055767Y-162073164D02*
X114029260Y-162023565D01*
X114180277Y-162257878D02*
X114114437Y-162168344D01*
X116468953Y-160778654D02*
X116493073Y-160828219D01*
X115077967Y-162761384D02*
X115021789Y-162753111D01*
D11*
X99800000Y-84500000D02*
X97300000Y-84500000D01*
D10*
X115161530Y-154620883D02*
X115205693Y-154616583D01*
X115873391Y-155016635D02*
X115882246Y-155036989D01*
D15*
G36*
X91355268Y-225422498D02*
G01*
X92068946Y-225422498D01*
X92068946Y-225933942D01*
X91355268Y-225933942D01*
X91355268Y-227480000D01*
X90742707Y-227480000D01*
X90742707Y-225933942D01*
X88121004Y-225933942D01*
X88121004Y-225530942D01*
X88166602Y-225422498D01*
X88751151Y-225422498D01*
X90742707Y-225422498D01*
X90742707Y-222372882D01*
X90533742Y-222604928D01*
X90340018Y-222837188D01*
X90179972Y-223041130D01*
X90002943Y-223277979D01*
X89829063Y-223521411D01*
X89658332Y-223771426D01*
X89624563Y-223822219D01*
X89461388Y-224077271D01*
X89307086Y-224333182D01*
X89161656Y-224589952D01*
X89133635Y-224641409D01*
X88987941Y-224918834D01*
X88857139Y-225186908D01*
X88751151Y-225422498D01*
X88166602Y-225422498D01*
X88239984Y-225247975D01*
X88372791Y-224969996D01*
X88512384Y-224702930D01*
X88545987Y-224641409D01*
X88705338Y-224359067D01*
X88857105Y-224103230D01*
X89018396Y-223842814D01*
X89167341Y-223611193D01*
X89344569Y-223346403D01*
X89527477Y-223085460D01*
X89716063Y-222828364D01*
X89910327Y-222575115D01*
X90109172Y-222328826D01*
X90310031Y-222094078D01*
X90512905Y-221870871D01*
X90717794Y-221659204D01*
X91355268Y-221659204D01*
X91355268Y-225422498D01*
G37*
D11*
X99800000Y-186500000D02*
X97300000Y-186500000D01*
D10*
X115294305Y-154616583D02*
X115338468Y-154620883D01*
X114506402Y-162552709D02*
X114416349Y-162489183D01*
D13*
X118300000Y-108500000D02*
X104050000Y-108500000D01*
D10*
X115667889Y-154757447D02*
X115685514Y-154771490D01*
D14*
X90899758Y-196431594D02*
X90899758Y-191540649D01*
D17*
G36*
X88678471Y-65422498D02*
G01*
X89392149Y-65422498D01*
X89392149Y-65933942D01*
X88678471Y-65933942D01*
X88678471Y-67480000D01*
X88065910Y-67480000D01*
X88065910Y-65933942D01*
X85444207Y-65933942D01*
X85444207Y-65530942D01*
X85489805Y-65422498D01*
X86074354Y-65422498D01*
X88065910Y-65422498D01*
X88065910Y-62372882D01*
X87856945Y-62604928D01*
X87663221Y-62837188D01*
X87503175Y-63041130D01*
X87326146Y-63277979D01*
X87152266Y-63521411D01*
X86981535Y-63771426D01*
X86947766Y-63822219D01*
X86784591Y-64077271D01*
X86630289Y-64333182D01*
X86484859Y-64589952D01*
X86456838Y-64641409D01*
X86311144Y-64918834D01*
X86180342Y-65186908D01*
X86074354Y-65422498D01*
X85489805Y-65422498D01*
X85563187Y-65247975D01*
X85695994Y-64969996D01*
X85835588Y-64702930D01*
X85869190Y-64641409D01*
X86028541Y-64359067D01*
X86180308Y-64103230D01*
X86341600Y-63842814D01*
X86490544Y-63611193D01*
X86667773Y-63346403D01*
X86850680Y-63085460D01*
X87039266Y-62828364D01*
X87233531Y-62575115D01*
X87432375Y-62328826D01*
X87633234Y-62094078D01*
X87836108Y-61870871D01*
X88040997Y-61659204D01*
X88678471Y-61659204D01*
X88678471Y-65422498D01*
G37*
G36*
X92477892Y-61560789D02*
G01*
X92773119Y-61643633D01*
X93040215Y-61781707D01*
X93279182Y-61975010D01*
X93490019Y-62223542D01*
X93554047Y-62318660D01*
X93698010Y-62580832D01*
X93817572Y-62876421D01*
X93912733Y-63205426D01*
X93971294Y-63492690D01*
X94014239Y-63801340D01*
X94041568Y-64131377D01*
X94053280Y-64482801D01*
X94053768Y-64573998D01*
X94045960Y-64928707D01*
X94022535Y-65262305D01*
X93983495Y-65574791D01*
X93928838Y-65866165D01*
X93838556Y-66200694D01*
X93723874Y-66502236D01*
X93584791Y-66770791D01*
X93554047Y-66820544D01*
X93352587Y-67087486D01*
X93122996Y-67299199D01*
X92865276Y-67455682D01*
X92579426Y-67556936D01*
X92265446Y-67602961D01*
X92154535Y-67606029D01*
X91832716Y-67578092D01*
X91538253Y-67494282D01*
X91271148Y-67354598D01*
X91134577Y-67252854D01*
X90911882Y-67028690D01*
X90740012Y-66786615D01*
X90592687Y-66504240D01*
X90483914Y-66224103D01*
X90395407Y-65914233D01*
X90336846Y-65625859D01*
X90294256Y-65316464D01*
X90267638Y-64986049D01*
X90256990Y-64634614D01*
X90256769Y-64573998D01*
X90929413Y-64573998D01*
X90936466Y-64895758D01*
X90957623Y-65205976D01*
X90992886Y-65504655D01*
X91042254Y-65791793D01*
X91118014Y-66091060D01*
X91231014Y-66383063D01*
X91390357Y-66655010D01*
X91423272Y-66698911D01*
X91652502Y-66908769D01*
X91935724Y-67021769D01*
X92154535Y-67043293D01*
X92453700Y-67002600D01*
X92724764Y-66865385D01*
X92890195Y-66698911D01*
X93054544Y-66436346D01*
X93172696Y-66152872D01*
X93253582Y-65861282D01*
X93268283Y-65791793D01*
X93322830Y-65467951D01*
X93356329Y-65167830D01*
X93375723Y-64856169D01*
X93381123Y-64573998D01*
X93374071Y-64248392D01*
X93352913Y-63935425D01*
X93317650Y-63635098D01*
X93268283Y-63347411D01*
X93192755Y-63048144D01*
X93080555Y-62756140D01*
X92922756Y-62484193D01*
X92890195Y-62440293D01*
X92662408Y-62230435D01*
X92376919Y-62117434D01*
X92154535Y-62095910D01*
X91859857Y-62136604D01*
X91590133Y-62273819D01*
X91423272Y-62440293D01*
X91257255Y-62702857D01*
X91138187Y-62986331D01*
X91056965Y-63277922D01*
X91042254Y-63347411D01*
X90987707Y-63671948D01*
X90954207Y-63973855D01*
X90934813Y-64288401D01*
X90929413Y-64573998D01*
X90256769Y-64573998D01*
X90262207Y-64274223D01*
X90283089Y-63934329D01*
X90319634Y-63616073D01*
X90371841Y-63319455D01*
X90452544Y-63000750D01*
X90479518Y-62915101D01*
X90586788Y-62634463D01*
X90733426Y-62351859D01*
X90905708Y-62109921D01*
X91130181Y-61886350D01*
X91384213Y-61715625D01*
X91664907Y-61600775D01*
X91972262Y-61541797D01*
X92154535Y-61533175D01*
X92477892Y-61560789D01*
G37*
G36*
X111463050Y-127480000D02*
G01*
X111463050Y-122582442D01*
X111230317Y-122781378D01*
X111127460Y-122852086D01*
X110868366Y-123008295D01*
X110648255Y-123124661D01*
X110371101Y-123250003D01*
X110126553Y-123338618D01*
X109941905Y-122852086D01*
X110217820Y-122744461D01*
X110506447Y-122606387D01*
X110776182Y-122448851D01*
X110853419Y-122397794D01*
X111106039Y-122206655D01*
X111329971Y-122003795D01*
X111550656Y-121771724D01*
X111647697Y-121659204D01*
X112093196Y-121659204D01*
X112093196Y-127480000D01*
X111463050Y-127480000D01*
G37*
G36*
X116505178Y-121560789D02*
G01*
X116800405Y-121643633D01*
X117067501Y-121781707D01*
X117306468Y-121975010D01*
X117517305Y-122223542D01*
X117581333Y-122318660D01*
X117725296Y-122580832D01*
X117844858Y-122876421D01*
X117940019Y-123205426D01*
X117998580Y-123492690D01*
X118041525Y-123801340D01*
X118068854Y-124131377D01*
X118080566Y-124482801D01*
X118081054Y-124573998D01*
X118073246Y-124928707D01*
X118049821Y-125262305D01*
X118010781Y-125574791D01*
X117956124Y-125866165D01*
X117865842Y-126200694D01*
X117751160Y-126502236D01*
X117612077Y-126770791D01*
X117581333Y-126820544D01*
X117379873Y-127087486D01*
X117150282Y-127299199D01*
X116892562Y-127455682D01*
X116606712Y-127556936D01*
X116292732Y-127602961D01*
X116181821Y-127606029D01*
X115860002Y-127578092D01*
X115565539Y-127494282D01*
X115298434Y-127354598D01*
X115161863Y-127252854D01*
X114939168Y-127028690D01*
X114767298Y-126786615D01*
X114619973Y-126504240D01*
X114511200Y-126224103D01*
X114422693Y-125914233D01*
X114364132Y-125625859D01*
X114321542Y-125316464D01*
X114294924Y-124986049D01*
X114284276Y-124634614D01*
X114284055Y-124573998D01*
X114956699Y-124573998D01*
X114963752Y-124895758D01*
X114984909Y-125205976D01*
X115020172Y-125504655D01*
X115069540Y-125791793D01*
X115145300Y-126091060D01*
X115258300Y-126383063D01*
X115417643Y-126655010D01*
X115450558Y-126698911D01*
X115679788Y-126908769D01*
X115963010Y-127021769D01*
X116181821Y-127043293D01*
X116480986Y-127002600D01*
X116752050Y-126865385D01*
X116917481Y-126698911D01*
X117081830Y-126436346D01*
X117199982Y-126152872D01*
X117280868Y-125861282D01*
X117295569Y-125791793D01*
X117350116Y-125467951D01*
X117383615Y-125167830D01*
X117403009Y-124856169D01*
X117408409Y-124573998D01*
X117401357Y-124248392D01*
X117380199Y-123935425D01*
X117344936Y-123635098D01*
X117295569Y-123347411D01*
X117220041Y-123048144D01*
X117107841Y-122756140D01*
X116950042Y-122484193D01*
X116917481Y-122440293D01*
X116689694Y-122230435D01*
X116404205Y-122117434D01*
X116181821Y-122095910D01*
X115887143Y-122136604D01*
X115617419Y-122273819D01*
X115450558Y-122440293D01*
X115284541Y-122702857D01*
X115165473Y-122986331D01*
X115084251Y-123277922D01*
X115069540Y-123347411D01*
X115014993Y-123671948D01*
X114981493Y-123973855D01*
X114962099Y-124288401D01*
X114956699Y-124573998D01*
X114284055Y-124573998D01*
X114289493Y-124274223D01*
X114310375Y-123934329D01*
X114346920Y-123616073D01*
X114399127Y-123319455D01*
X114479830Y-123000750D01*
X114506804Y-122915101D01*
X114614074Y-122634463D01*
X114760712Y-122351859D01*
X114932994Y-122109921D01*
X115157467Y-121886350D01*
X115411499Y-121715625D01*
X115692193Y-121600775D01*
X115999548Y-121541797D01*
X116181821Y-121533175D01*
X116505178Y-121560789D01*
G37*
G36*
X86999057Y-87606029D02*
G01*
X86701249Y-87594809D01*
X86407070Y-87557886D01*
X86351325Y-87547411D01*
X86065558Y-87480579D01*
X85856001Y-87414054D01*
X85581314Y-87300796D01*
X85570237Y-87295352D01*
X85729972Y-86741409D01*
X86014921Y-86861189D01*
X86188660Y-86921660D01*
X86489084Y-86994720D01*
X86781071Y-87027448D01*
X87015177Y-87034501D01*
X87316856Y-87020619D01*
X87628998Y-86967313D01*
X87847557Y-86892351D01*
X88109064Y-86731308D01*
X88304244Y-86501323D01*
X88313572Y-86484954D01*
X88423482Y-86195893D01*
X88459546Y-85903895D01*
X88460118Y-85859204D01*
X88432239Y-85559693D01*
X88327403Y-85267342D01*
X88224180Y-85120614D01*
X87990685Y-84915530D01*
X87723135Y-84780350D01*
X87607222Y-84742526D01*
X87311154Y-84675550D01*
X86994478Y-84639486D01*
X86771912Y-84632616D01*
X86645882Y-84632616D01*
X86645882Y-84119706D01*
X86881821Y-84119706D01*
X87177110Y-84097725D01*
X87476796Y-84031779D01*
X87755600Y-83909047D01*
X87985310Y-83716706D01*
X88133623Y-83461574D01*
X88188711Y-83172220D01*
X88191939Y-83070439D01*
X88158452Y-82764582D01*
X88039532Y-82498911D01*
X87826191Y-82289839D01*
X87640928Y-82192630D01*
X87347934Y-82114423D01*
X87100174Y-82095910D01*
X86797374Y-82113633D01*
X86506618Y-82179109D01*
X86402616Y-82221939D01*
X86138834Y-82360940D01*
X85974703Y-82465205D01*
X85713852Y-81978674D01*
X85975831Y-81826226D01*
X86254605Y-81692909D01*
X86544628Y-81595571D01*
X86848862Y-81545810D01*
X87125087Y-81533175D01*
X87443313Y-81548476D01*
X87756382Y-81601370D01*
X88051502Y-81703191D01*
X88099616Y-81726615D01*
X88355979Y-81890998D01*
X88572311Y-82115126D01*
X88662351Y-82255645D01*
X88781903Y-82545000D01*
X88838163Y-82841720D01*
X88846999Y-83027941D01*
X88815656Y-83343730D01*
X88721628Y-83622115D01*
X88581751Y-83842735D01*
X88363100Y-84062760D01*
X88102821Y-84230440D01*
X87906175Y-84313147D01*
X88190029Y-84414641D01*
X88459071Y-84562503D01*
X88493824Y-84585722D01*
X88716819Y-84776100D01*
X88901106Y-85016406D01*
X88946650Y-85094235D01*
X89061458Y-85377265D01*
X89115485Y-85680168D01*
X89123970Y-85875324D01*
X89101359Y-86171163D01*
X89024253Y-86475429D01*
X88892428Y-86757529D01*
X88705851Y-87008806D01*
X88462477Y-87220602D01*
X88191939Y-87378883D01*
X87907395Y-87488685D01*
X87620989Y-87556119D01*
X87303077Y-87595160D01*
X86999057Y-87606029D01*
G37*
G36*
X92477892Y-81560789D02*
G01*
X92773119Y-81643633D01*
X93040215Y-81781707D01*
X93279182Y-81975010D01*
X93490019Y-82223542D01*
X93554047Y-82318660D01*
X93698010Y-82580832D01*
X93817572Y-82876421D01*
X93912733Y-83205426D01*
X93971294Y-83492690D01*
X94014239Y-83801340D01*
X94041568Y-84131377D01*
X94053280Y-84482801D01*
X94053768Y-84573998D01*
X94045960Y-84928707D01*
X94022535Y-85262305D01*
X93983495Y-85574791D01*
X93928838Y-85866165D01*
X93838556Y-86200694D01*
X93723874Y-86502236D01*
X93584791Y-86770791D01*
X93554047Y-86820544D01*
X93352587Y-87087486D01*
X93122996Y-87299199D01*
X92865276Y-87455682D01*
X92579426Y-87556936D01*
X92265446Y-87602961D01*
X92154535Y-87606029D01*
X91832716Y-87578092D01*
X91538253Y-87494282D01*
X91271148Y-87354598D01*
X91134577Y-87252854D01*
X90911882Y-87028690D01*
X90740012Y-86786615D01*
X90592687Y-86504240D01*
X90483914Y-86224103D01*
X90395407Y-85914233D01*
X90336846Y-85625859D01*
X90294256Y-85316464D01*
X90267638Y-84986049D01*
X90256990Y-84634614D01*
X90256769Y-84573998D01*
X90929413Y-84573998D01*
X90936466Y-84895758D01*
X90957623Y-85205976D01*
X90992886Y-85504655D01*
X91042254Y-85791793D01*
X91118014Y-86091060D01*
X91231014Y-86383063D01*
X91390357Y-86655010D01*
X91423272Y-86698911D01*
X91652502Y-86908769D01*
X91935724Y-87021769D01*
X92154535Y-87043293D01*
X92453700Y-87002600D01*
X92724764Y-86865385D01*
X92890195Y-86698911D01*
X93054544Y-86436346D01*
X93172696Y-86152872D01*
X93253582Y-85861282D01*
X93268283Y-85791793D01*
X93322830Y-85467951D01*
X93356329Y-85167830D01*
X93375723Y-84856169D01*
X93381123Y-84573998D01*
X93374071Y-84248392D01*
X93352913Y-83935425D01*
X93317650Y-83635098D01*
X93268283Y-83347411D01*
X93192755Y-83048144D01*
X93080555Y-82756140D01*
X92922756Y-82484193D01*
X92890195Y-82440293D01*
X92662408Y-82230435D01*
X92376919Y-82117434D01*
X92154535Y-82095910D01*
X91859857Y-82136604D01*
X91590133Y-82273819D01*
X91423272Y-82440293D01*
X91257255Y-82702857D01*
X91138187Y-82986331D01*
X91056965Y-83277922D01*
X91042254Y-83347411D01*
X90987707Y-83671948D01*
X90954207Y-83973855D01*
X90934813Y-84288401D01*
X90929413Y-84573998D01*
X90256769Y-84573998D01*
X90262207Y-84274223D01*
X90283089Y-83934329D01*
X90319634Y-83616073D01*
X90371841Y-83319455D01*
X90452544Y-83000750D01*
X90479518Y-82915101D01*
X90586788Y-82634463D01*
X90733426Y-82351859D01*
X90905708Y-82109921D01*
X91130181Y-81886350D01*
X91384213Y-81715625D01*
X91664907Y-81600775D01*
X91972262Y-81541797D01*
X92154535Y-81533175D01*
X92477892Y-81560789D01*
G37*
G36*
X111026343Y-87606029D02*
G01*
X110728535Y-87594809D01*
X110434356Y-87557886D01*
X110378611Y-87547411D01*
X110092844Y-87480579D01*
X109883287Y-87414054D01*
X109608600Y-87300796D01*
X109597523Y-87295352D01*
X109757258Y-86741409D01*
X110042207Y-86861189D01*
X110215946Y-86921660D01*
X110516370Y-86994720D01*
X110808357Y-87027448D01*
X111042463Y-87034501D01*
X111344142Y-87020619D01*
X111656284Y-86967313D01*
X111874843Y-86892351D01*
X112136350Y-86731308D01*
X112331530Y-86501323D01*
X112340858Y-86484954D01*
X112450768Y-86195893D01*
X112486832Y-85903895D01*
X112487404Y-85859204D01*
X112459525Y-85559693D01*
X112354689Y-85267342D01*
X112251466Y-85120614D01*
X112017971Y-84915530D01*
X111750421Y-84780350D01*
X111634508Y-84742526D01*
X111338440Y-84675550D01*
X111021764Y-84639486D01*
X110799198Y-84632616D01*
X110673168Y-84632616D01*
X110673168Y-84119706D01*
X110909107Y-84119706D01*
X111204396Y-84097725D01*
X111504082Y-84031779D01*
X111782886Y-83909047D01*
X112012596Y-83716706D01*
X112160909Y-83461574D01*
X112215997Y-83172220D01*
X112219225Y-83070439D01*
X112185738Y-82764582D01*
X112066818Y-82498911D01*
X111853477Y-82289839D01*
X111668214Y-82192630D01*
X111375220Y-82114423D01*
X111127460Y-82095910D01*
X110824660Y-82113633D01*
X110533904Y-82179109D01*
X110429902Y-82221939D01*
X110166120Y-82360940D01*
X110001989Y-82465205D01*
X109741138Y-81978674D01*
X110003117Y-81826226D01*
X110281891Y-81692909D01*
X110571914Y-81595571D01*
X110876148Y-81545810D01*
X111152373Y-81533175D01*
X111470599Y-81548476D01*
X111783668Y-81601370D01*
X112078788Y-81703191D01*
X112126902Y-81726615D01*
X112383265Y-81890998D01*
X112599597Y-82115126D01*
X112689637Y-82255645D01*
X112809189Y-82545000D01*
X112865449Y-82841720D01*
X112874285Y-83027941D01*
X112842942Y-83343730D01*
X112748914Y-83622115D01*
X112609037Y-83842735D01*
X112390386Y-84062760D01*
X112130107Y-84230440D01*
X111933461Y-84313147D01*
X112217315Y-84414641D01*
X112486357Y-84562503D01*
X112521110Y-84585722D01*
X112744105Y-84776100D01*
X112928392Y-85016406D01*
X112973936Y-85094235D01*
X113088744Y-85377265D01*
X113142771Y-85680168D01*
X113151256Y-85875324D01*
X113128645Y-86171163D01*
X113051539Y-86475429D01*
X112919714Y-86757529D01*
X112733137Y-87008806D01*
X112489763Y-87220602D01*
X112219225Y-87378883D01*
X111934681Y-87488685D01*
X111648275Y-87556119D01*
X111330363Y-87595160D01*
X111026343Y-87606029D01*
G37*
G36*
X116505178Y-81560789D02*
G01*
X116800405Y-81643633D01*
X117067501Y-81781707D01*
X117306468Y-81975010D01*
X117517305Y-82223542D01*
X117581333Y-82318660D01*
X117725296Y-82580832D01*
X117844858Y-82876421D01*
X117940019Y-83205426D01*
X117998580Y-83492690D01*
X118041525Y-83801340D01*
X118068854Y-84131377D01*
X118080566Y-84482801D01*
X118081054Y-84573998D01*
X118073246Y-84928707D01*
X118049821Y-85262305D01*
X118010781Y-85574791D01*
X117956124Y-85866165D01*
X117865842Y-86200694D01*
X117751160Y-86502236D01*
X117612077Y-86770791D01*
X117581333Y-86820544D01*
X117379873Y-87087486D01*
X117150282Y-87299199D01*
X116892562Y-87455682D01*
X116606712Y-87556936D01*
X116292732Y-87602961D01*
X116181821Y-87606029D01*
X115860002Y-87578092D01*
X115565539Y-87494282D01*
X115298434Y-87354598D01*
X115161863Y-87252854D01*
X114939168Y-87028690D01*
X114767298Y-86786615D01*
X114619973Y-86504240D01*
X114511200Y-86224103D01*
X114422693Y-85914233D01*
X114364132Y-85625859D01*
X114321542Y-85316464D01*
X114294924Y-84986049D01*
X114284276Y-84634614D01*
X114284055Y-84573998D01*
X114956699Y-84573998D01*
X114963752Y-84895758D01*
X114984909Y-85205976D01*
X115020172Y-85504655D01*
X115069540Y-85791793D01*
X115145300Y-86091060D01*
X115258300Y-86383063D01*
X115417643Y-86655010D01*
X115450558Y-86698911D01*
X115679788Y-86908769D01*
X115963010Y-87021769D01*
X116181821Y-87043293D01*
X116480986Y-87002600D01*
X116752050Y-86865385D01*
X116917481Y-86698911D01*
X117081830Y-86436346D01*
X117199982Y-86152872D01*
X117280868Y-85861282D01*
X117295569Y-85791793D01*
X117350116Y-85467951D01*
X117383615Y-85167830D01*
X117403009Y-84856169D01*
X117408409Y-84573998D01*
X117401357Y-84248392D01*
X117380199Y-83935425D01*
X117344936Y-83635098D01*
X117295569Y-83347411D01*
X117220041Y-83048144D01*
X117107841Y-82756140D01*
X116950042Y-82484193D01*
X116917481Y-82440293D01*
X116689694Y-82230435D01*
X116404205Y-82117434D01*
X116181821Y-82095910D01*
X115887143Y-82136604D01*
X115617419Y-82273819D01*
X115450558Y-82440293D01*
X115284541Y-82702857D01*
X115165473Y-82986331D01*
X115084251Y-83277922D01*
X115069540Y-83347411D01*
X115014993Y-83671948D01*
X114981493Y-83973855D01*
X114962099Y-84288401D01*
X114956699Y-84573998D01*
X114284055Y-84573998D01*
X114289493Y-84274223D01*
X114310375Y-83934329D01*
X114346920Y-83616073D01*
X114399127Y-83319455D01*
X114479830Y-83000750D01*
X114506804Y-82915101D01*
X114614074Y-82634463D01*
X114760712Y-82351859D01*
X114932994Y-82109921D01*
X115157467Y-81886350D01*
X115411499Y-81715625D01*
X115692193Y-81600775D01*
X115999548Y-81541797D01*
X116181821Y-81533175D01*
X116505178Y-81560789D01*
G37*
G36*
X109732345Y-107480000D02*
G01*
X109727948Y-107396468D01*
X109723552Y-107252854D01*
X109746879Y-106931655D01*
X109816860Y-106629347D01*
X109933496Y-106345930D01*
X109962422Y-106291514D01*
X110123650Y-106027903D01*
X110306918Y-105777459D01*
X110512226Y-105540181D01*
X110555932Y-105494305D01*
X110774949Y-105269907D01*
X110990531Y-105054668D01*
X111202679Y-104848588D01*
X111244697Y-104808471D01*
X111467689Y-104593962D01*
X111687279Y-104370526D01*
X111760537Y-104292630D01*
X111957966Y-104054007D01*
X112116111Y-103802504D01*
X112134229Y-103767997D01*
X112237312Y-103492472D01*
X112277283Y-103187968D01*
X112277844Y-103145177D01*
X112248220Y-102824666D01*
X112147202Y-102544171D01*
X111974494Y-102339176D01*
X111702851Y-102181671D01*
X111405306Y-102107551D01*
X111210991Y-102095910D01*
X110907452Y-102119094D01*
X110610154Y-102201423D01*
X110338161Y-102334279D01*
X110189567Y-102435896D01*
X109965746Y-102626557D01*
X109950698Y-102641060D01*
X109623901Y-102213147D01*
X109842396Y-102017586D01*
X109930182Y-101949364D01*
X110189357Y-101785728D01*
X110470935Y-101659204D01*
X110774153Y-101573051D01*
X111084345Y-101536252D01*
X111210991Y-101533175D01*
X111520180Y-101547961D01*
X111842872Y-101602588D01*
X112124612Y-101697466D01*
X112396454Y-101855186D01*
X112512317Y-101953761D01*
X112703376Y-102183288D01*
X112839847Y-102452749D01*
X112921729Y-102762144D01*
X112948597Y-103065622D01*
X112949023Y-103111472D01*
X112925126Y-103404435D01*
X112844549Y-103707441D01*
X112746790Y-103923335D01*
X112594216Y-104176265D01*
X112412551Y-104421230D01*
X112222156Y-104637013D01*
X112017651Y-104849075D01*
X111807134Y-105060278D01*
X111590607Y-105270623D01*
X111546581Y-105312588D01*
X111329895Y-105527916D01*
X111115628Y-105750016D01*
X111017551Y-105854808D01*
X110821572Y-106081968D01*
X110646220Y-106323356D01*
X110592568Y-106408750D01*
X110470569Y-106676196D01*
X110429902Y-106933384D01*
X113142463Y-106933384D01*
X113142463Y-107480000D01*
X109732345Y-107480000D01*
G37*
G36*
X116505178Y-101560789D02*
G01*
X116800405Y-101643633D01*
X117067501Y-101781707D01*
X117306468Y-101975010D01*
X117517305Y-102223542D01*
X117581333Y-102318660D01*
X117725296Y-102580832D01*
X117844858Y-102876421D01*
X117940019Y-103205426D01*
X117998580Y-103492690D01*
X118041525Y-103801340D01*
X118068854Y-104131377D01*
X118080566Y-104482801D01*
X118081054Y-104573998D01*
X118073246Y-104928707D01*
X118049821Y-105262305D01*
X118010781Y-105574791D01*
X117956124Y-105866165D01*
X117865842Y-106200694D01*
X117751160Y-106502236D01*
X117612077Y-106770791D01*
X117581333Y-106820544D01*
X117379873Y-107087486D01*
X117150282Y-107299199D01*
X116892562Y-107455682D01*
X116606712Y-107556936D01*
X116292732Y-107602961D01*
X116181821Y-107606029D01*
X115860002Y-107578092D01*
X115565539Y-107494282D01*
X115298434Y-107354598D01*
X115161863Y-107252854D01*
X114939168Y-107028690D01*
X114767298Y-106786615D01*
X114619973Y-106504240D01*
X114511200Y-106224103D01*
X114422693Y-105914233D01*
X114364132Y-105625859D01*
X114321542Y-105316464D01*
X114294924Y-104986049D01*
X114284276Y-104634614D01*
X114284055Y-104573998D01*
X114956699Y-104573998D01*
X114963752Y-104895758D01*
X114984909Y-105205976D01*
X115020172Y-105504655D01*
X115069540Y-105791793D01*
X115145300Y-106091060D01*
X115258300Y-106383063D01*
X115417643Y-106655010D01*
X115450558Y-106698911D01*
X115679788Y-106908769D01*
X115963010Y-107021769D01*
X116181821Y-107043293D01*
X116480986Y-107002600D01*
X116752050Y-106865385D01*
X116917481Y-106698911D01*
X117081830Y-106436346D01*
X117199982Y-106152872D01*
X117280868Y-105861282D01*
X117295569Y-105791793D01*
X117350116Y-105467951D01*
X117383615Y-105167830D01*
X117403009Y-104856169D01*
X117408409Y-104573998D01*
X117401357Y-104248392D01*
X117380199Y-103935425D01*
X117344936Y-103635098D01*
X117295569Y-103347411D01*
X117220041Y-103048144D01*
X117107841Y-102756140D01*
X116950042Y-102484193D01*
X116917481Y-102440293D01*
X116689694Y-102230435D01*
X116404205Y-102117434D01*
X116181821Y-102095910D01*
X115887143Y-102136604D01*
X115617419Y-102273819D01*
X115450558Y-102440293D01*
X115284541Y-102702857D01*
X115165473Y-102986331D01*
X115084251Y-103277922D01*
X115069540Y-103347411D01*
X115014993Y-103671948D01*
X114981493Y-103973855D01*
X114962099Y-104288401D01*
X114956699Y-104573998D01*
X114284055Y-104573998D01*
X114289493Y-104274223D01*
X114310375Y-103934329D01*
X114346920Y-103616073D01*
X114399127Y-103319455D01*
X114479830Y-103000750D01*
X114506804Y-102915101D01*
X114614074Y-102634463D01*
X114760712Y-102351859D01*
X114932994Y-102109921D01*
X115157467Y-101886350D01*
X115411499Y-101715625D01*
X115692193Y-101600775D01*
X115999548Y-101541797D01*
X116181821Y-101533175D01*
X116505178Y-101560789D01*
G37*
G36*
X116505178Y-141560789D02*
G01*
X116800404Y-141643633D01*
X117067501Y-141781707D01*
X117306468Y-141975010D01*
X117517305Y-142223542D01*
X117581333Y-142318660D01*
X117725295Y-142580832D01*
X117844857Y-142876421D01*
X117940019Y-143205426D01*
X117998580Y-143492690D01*
X118041525Y-143801340D01*
X118068853Y-144131377D01*
X118080566Y-144482801D01*
X118081054Y-144573998D01*
X118073245Y-144928707D01*
X118049821Y-145262305D01*
X118010780Y-145574791D01*
X117956123Y-145866165D01*
X117865842Y-146200694D01*
X117751160Y-146502236D01*
X117612077Y-146770791D01*
X117581333Y-146820544D01*
X117379872Y-147087486D01*
X117150282Y-147299199D01*
X116892562Y-147455682D01*
X116606712Y-147556936D01*
X116292732Y-147602961D01*
X116181821Y-147606029D01*
X115860002Y-147578092D01*
X115565539Y-147494282D01*
X115298434Y-147354598D01*
X115161863Y-147252854D01*
X114939168Y-147028690D01*
X114767297Y-146786615D01*
X114619973Y-146504240D01*
X114511200Y-146224103D01*
X114422693Y-145914233D01*
X114364132Y-145625859D01*
X114321542Y-145316464D01*
X114294924Y-144986049D01*
X114284276Y-144634614D01*
X114284054Y-144573998D01*
X114956699Y-144573998D01*
X114963752Y-144895758D01*
X114984909Y-145205976D01*
X115020172Y-145504655D01*
X115069539Y-145791793D01*
X115145299Y-146091060D01*
X115258300Y-146383063D01*
X115417643Y-146655010D01*
X115450558Y-146698911D01*
X115679788Y-146908769D01*
X115963010Y-147021769D01*
X116181821Y-147043293D01*
X116480986Y-147002600D01*
X116752050Y-146865385D01*
X116917481Y-146698911D01*
X117081829Y-146436346D01*
X117199982Y-146152872D01*
X117280868Y-145861282D01*
X117295569Y-145791793D01*
X117350115Y-145467951D01*
X117383615Y-145167830D01*
X117403009Y-144856169D01*
X117408409Y-144573998D01*
X117401356Y-144248392D01*
X117380199Y-143935425D01*
X117344936Y-143635098D01*
X117295569Y-143347411D01*
X117220040Y-143048144D01*
X117107841Y-142756140D01*
X116950041Y-142484193D01*
X116917481Y-142440293D01*
X116689694Y-142230435D01*
X116404204Y-142117434D01*
X116181821Y-142095910D01*
X115887143Y-142136604D01*
X115617418Y-142273819D01*
X115450558Y-142440293D01*
X115284541Y-142702857D01*
X115165472Y-142986331D01*
X115084251Y-143277922D01*
X115069539Y-143347411D01*
X115014992Y-143671948D01*
X114981493Y-143973855D01*
X114962099Y-144288401D01*
X114956699Y-144573998D01*
X114284054Y-144573998D01*
X114289492Y-144274223D01*
X114310375Y-143934329D01*
X114346920Y-143616073D01*
X114399127Y-143319455D01*
X114479830Y-143000750D01*
X114506804Y-142915101D01*
X114614074Y-142634463D01*
X114760711Y-142351859D01*
X114932994Y-142109921D01*
X115157467Y-141886350D01*
X115411499Y-141715625D01*
X115692192Y-141600775D01*
X115999548Y-141541797D01*
X116181821Y-141533175D01*
X116505178Y-141560789D01*
G37*
D18*
G36*
X107251784Y-162988063D02*
G01*
X107204527Y-162885704D01*
X107157644Y-162782084D01*
X107117756Y-162692262D01*
X107078143Y-162601512D01*
X107038804Y-162509835D01*
X106999809Y-162417322D01*
X106961227Y-162324432D01*
X106923056Y-162231163D01*
X106885298Y-162137517D01*
X106847951Y-162043493D01*
X106835594Y-162012068D01*
X106798918Y-161918004D01*
X106762894Y-161824490D01*
X106727523Y-161731525D01*
X106692804Y-161639109D01*
X106658738Y-161547243D01*
X106647527Y-161516744D01*
X106609193Y-161410989D01*
X106571980Y-161307011D01*
X106535889Y-161204810D01*
X106500921Y-161104385D01*
X106481442Y-161047797D01*
X106903494Y-161047797D01*
X106935123Y-161141312D01*
X106967485Y-161236719D01*
X107000580Y-161334019D01*
X107034408Y-161433213D01*
X107068846Y-161533016D01*
X107103284Y-161632637D01*
X107137723Y-161732074D01*
X107172161Y-161831328D01*
X107206599Y-161929422D01*
X107241037Y-162025379D01*
X107275476Y-162119199D01*
X107309914Y-162210882D01*
X107348193Y-162309766D01*
X107385545Y-162403086D01*
X107425960Y-162500248D01*
X107441805Y-162537190D01*
X107480684Y-162443290D01*
X107520993Y-162342330D01*
X107558495Y-162245430D01*
X107571254Y-162211859D01*
X107605784Y-162120359D01*
X107640497Y-162026601D01*
X107675393Y-161930583D01*
X107710472Y-161832305D01*
X107745521Y-161732807D01*
X107780326Y-161633125D01*
X107814886Y-161533261D01*
X107849202Y-161433213D01*
X107883182Y-161334019D01*
X107916247Y-161236719D01*
X107948395Y-161141312D01*
X107979628Y-161047797D01*
X108386536Y-161047797D01*
X108351614Y-161147207D01*
X108315664Y-161248393D01*
X108278685Y-161351356D01*
X108240678Y-161456095D01*
X108218497Y-161516744D01*
X108179181Y-161623713D01*
X108144811Y-161715923D01*
X108109824Y-161808613D01*
X108074218Y-161901784D01*
X108037993Y-161995436D01*
X108031896Y-162011091D01*
X107995019Y-162104943D01*
X107957661Y-162198555D01*
X107919823Y-162291926D01*
X107881503Y-162385057D01*
X107842703Y-162477948D01*
X107829663Y-162508858D01*
X107790490Y-162600867D01*
X107751009Y-162691880D01*
X107711218Y-162781897D01*
X107664405Y-162885657D01*
X107617171Y-162988063D01*
X107251784Y-162988063D01*
G37*
G36*
X109141247Y-162988063D02*
G01*
X109141247Y-161531887D01*
X109058739Y-161586153D01*
X109022056Y-161607113D01*
X108931476Y-161653526D01*
X108882349Y-161675990D01*
X108787892Y-161714298D01*
X108738246Y-161731677D01*
X108628337Y-161449333D01*
X108721837Y-161409967D01*
X108815492Y-161364960D01*
X108909301Y-161314312D01*
X108961484Y-161283736D01*
X109052138Y-161224192D01*
X109135604Y-161159315D01*
X109211884Y-161089106D01*
X109251156Y-161047797D01*
X109506634Y-161047797D01*
X109506634Y-162988063D01*
X109141247Y-162988063D01*
G37*
G36*
X110344387Y-163441866D02*
G01*
X110059600Y-163365173D01*
X110092543Y-163270991D01*
X110121985Y-163168428D01*
X110143891Y-163068059D01*
X110148993Y-163038377D01*
X110163733Y-162935260D01*
X110172835Y-162834223D01*
X110174883Y-162766290D01*
X110173417Y-162709626D01*
X110169998Y-162643192D01*
X110167067Y-162598251D01*
X110552970Y-162598251D01*
X110558832Y-162681782D01*
X110559809Y-162726234D01*
X110554276Y-162833711D01*
X110539833Y-162934110D01*
X110516426Y-163037987D01*
X110503145Y-163085271D01*
X110471973Y-163179183D01*
X110435123Y-163269919D01*
X110386879Y-163368202D01*
X110344387Y-163441866D01*
G37*
G36*
X111407820Y-162988063D02*
G01*
X111407820Y-161531887D01*
X111325312Y-161586153D01*
X111288630Y-161607113D01*
X111198049Y-161653526D01*
X111148923Y-161675990D01*
X111054465Y-161714298D01*
X111004820Y-161731677D01*
X110894910Y-161449333D01*
X110988411Y-161409967D01*
X111082065Y-161364960D01*
X111175875Y-161314312D01*
X111228058Y-161283736D01*
X111318711Y-161224192D01*
X111402178Y-161159315D01*
X111478458Y-161089106D01*
X111517730Y-161047797D01*
X111773208Y-161047797D01*
X111773208Y-162988063D01*
X111407820Y-162988063D01*
G37*
D17*
G36*
X85534473Y-205337501D02*
G01*
X85534473Y-204741060D01*
X87492323Y-204741060D01*
X87492323Y-205337501D01*
X85534473Y-205337501D01*
G37*
G36*
X89675854Y-207606029D02*
G01*
X89378046Y-207594809D01*
X89083867Y-207557886D01*
X89028122Y-207547411D01*
X88742355Y-207480579D01*
X88532798Y-207414054D01*
X88258110Y-207300796D01*
X88247034Y-207295352D01*
X88406769Y-206741409D01*
X88691718Y-206861189D01*
X88865457Y-206921660D01*
X89165881Y-206994720D01*
X89457868Y-207027448D01*
X89691974Y-207034501D01*
X89993652Y-207020619D01*
X90305795Y-206967313D01*
X90524354Y-206892351D01*
X90785861Y-206731308D01*
X90981041Y-206501323D01*
X90990369Y-206484954D01*
X91100279Y-206195893D01*
X91136343Y-205903895D01*
X91136915Y-205859204D01*
X91109036Y-205559693D01*
X91004200Y-205267342D01*
X90900976Y-205120614D01*
X90667482Y-204915530D01*
X90399932Y-204780350D01*
X90284019Y-204742526D01*
X89987951Y-204675550D01*
X89671275Y-204639486D01*
X89448709Y-204632616D01*
X89322679Y-204632616D01*
X89322679Y-204119706D01*
X89558618Y-204119706D01*
X89853907Y-204097725D01*
X90153593Y-204031779D01*
X90432397Y-203909047D01*
X90662107Y-203716706D01*
X90810420Y-203461574D01*
X90865508Y-203172220D01*
X90868736Y-203070439D01*
X90835248Y-202764582D01*
X90716329Y-202498911D01*
X90502988Y-202289839D01*
X90317725Y-202192630D01*
X90024730Y-202114423D01*
X89776971Y-202095910D01*
X89474171Y-202113633D01*
X89183415Y-202179109D01*
X89079413Y-202221939D01*
X88815631Y-202360940D01*
X88651500Y-202465205D01*
X88390648Y-201978674D01*
X88652628Y-201826226D01*
X88931402Y-201692909D01*
X89221425Y-201595571D01*
X89525659Y-201545810D01*
X89801884Y-201533175D01*
X90120110Y-201548476D01*
X90433179Y-201601370D01*
X90728299Y-201703191D01*
X90776413Y-201726615D01*
X91032776Y-201890998D01*
X91249108Y-202115126D01*
X91339148Y-202255645D01*
X91458700Y-202545000D01*
X91514960Y-202841720D01*
X91523796Y-203027941D01*
X91492453Y-203343730D01*
X91398425Y-203622115D01*
X91258548Y-203842735D01*
X91039897Y-204062760D01*
X90779618Y-204230440D01*
X90582972Y-204313147D01*
X90866826Y-204414641D01*
X91135867Y-204562503D01*
X91170621Y-204585722D01*
X91393616Y-204776100D01*
X91577903Y-205016406D01*
X91623447Y-205094235D01*
X91738255Y-205377265D01*
X91792282Y-205680168D01*
X91800767Y-205875324D01*
X91778156Y-206171163D01*
X91701050Y-206475429D01*
X91569225Y-206757529D01*
X91382648Y-207008806D01*
X91139274Y-207220602D01*
X90868736Y-207378883D01*
X90584192Y-207488685D01*
X90297786Y-207556119D01*
X89979874Y-207595160D01*
X89675854Y-207606029D01*
G37*
G36*
X95154689Y-201560789D02*
G01*
X95449916Y-201643633D01*
X95717012Y-201781707D01*
X95955979Y-201975010D01*
X96166816Y-202223542D01*
X96230844Y-202318660D01*
X96374806Y-202580832D01*
X96494369Y-202876421D01*
X96589530Y-203205426D01*
X96648091Y-203492690D01*
X96691036Y-203801340D01*
X96718365Y-204131377D01*
X96730077Y-204482801D01*
X96730565Y-204573998D01*
X96722757Y-204928707D01*
X96699332Y-205262305D01*
X96660292Y-205574791D01*
X96605635Y-205866165D01*
X96515353Y-206200694D01*
X96400671Y-206502236D01*
X96261588Y-206770791D01*
X96230844Y-206820544D01*
X96029384Y-207087486D01*
X95799793Y-207299199D01*
X95542073Y-207455682D01*
X95256223Y-207556936D01*
X94942243Y-207602961D01*
X94831332Y-207606029D01*
X94509513Y-207578092D01*
X94215050Y-207494282D01*
X93947945Y-207354598D01*
X93811374Y-207252854D01*
X93588679Y-207028690D01*
X93416809Y-206786615D01*
X93269484Y-206504240D01*
X93160711Y-206224103D01*
X93072204Y-205914233D01*
X93013643Y-205625859D01*
X92971053Y-205316464D01*
X92944435Y-204986049D01*
X92933787Y-204634614D01*
X92933565Y-204573998D01*
X93606210Y-204573998D01*
X93613263Y-204895758D01*
X93634420Y-205205976D01*
X93669683Y-205504655D01*
X93719050Y-205791793D01*
X93794811Y-206091060D01*
X93907811Y-206383063D01*
X94067154Y-206655010D01*
X94100069Y-206698911D01*
X94329299Y-206908769D01*
X94612521Y-207021769D01*
X94831332Y-207043293D01*
X95130497Y-207002600D01*
X95401561Y-206865385D01*
X95566992Y-206698911D01*
X95731341Y-206436346D01*
X95849493Y-206152872D01*
X95930379Y-205861282D01*
X95945080Y-205791793D01*
X95999627Y-205467951D01*
X96033126Y-205167830D01*
X96052520Y-204856169D01*
X96057920Y-204573998D01*
X96050867Y-204248392D01*
X96029710Y-203935425D01*
X95994447Y-203635098D01*
X95945080Y-203347411D01*
X95869551Y-203048144D01*
X95757352Y-202756140D01*
X95599552Y-202484193D01*
X95566992Y-202440293D01*
X95339205Y-202230435D01*
X95053715Y-202117434D01*
X94831332Y-202095910D01*
X94536654Y-202136604D01*
X94266930Y-202273819D01*
X94100069Y-202440293D01*
X93934052Y-202702857D01*
X93814983Y-202986331D01*
X93733762Y-203277922D01*
X93719050Y-203347411D01*
X93664504Y-203671948D01*
X93631004Y-203973855D01*
X93611610Y-204288401D01*
X93606210Y-204573998D01*
X92933565Y-204573998D01*
X92939004Y-204274223D01*
X92959886Y-203934329D01*
X92996431Y-203616073D01*
X93048638Y-203319455D01*
X93129341Y-203000750D01*
X93156315Y-202915101D01*
X93263585Y-202634463D01*
X93410223Y-202351859D01*
X93582505Y-202109921D01*
X93806978Y-201886350D01*
X94061010Y-201715625D01*
X94341704Y-201600775D01*
X94649059Y-201541797D01*
X94831332Y-201533175D01*
X95154689Y-201560789D01*
G37*
G36*
X87057676Y-47606029D02*
G01*
X86759867Y-47594809D01*
X86465688Y-47557886D01*
X86409944Y-47547411D01*
X86122936Y-47480579D01*
X85910223Y-47414054D01*
X85638259Y-47303617D01*
X85621528Y-47295352D01*
X85772470Y-46748736D01*
X86060612Y-46861768D01*
X86238485Y-46921660D01*
X86540491Y-46994720D01*
X86852324Y-47029101D01*
X87048883Y-47034501D01*
X87367047Y-47019331D01*
X87662812Y-46967602D01*
X87901779Y-46879162D01*
X88150277Y-46708738D01*
X88330162Y-46472296D01*
X88338485Y-46455645D01*
X88436304Y-46171713D01*
X88468784Y-45879573D01*
X88468911Y-45859204D01*
X88439854Y-45549397D01*
X88342794Y-45253773D01*
X88262281Y-45111821D01*
X88042861Y-44882149D01*
X87774834Y-44725215D01*
X87532484Y-44632616D01*
X87242506Y-44558886D01*
X86943396Y-44511652D01*
X86601930Y-44480547D01*
X86275534Y-44466722D01*
X86040648Y-44464089D01*
X86076644Y-44157373D01*
X86107693Y-43865908D01*
X86125645Y-43680069D01*
X86153454Y-43366232D01*
X86177898Y-43065860D01*
X86184263Y-42982512D01*
X86205687Y-42671932D01*
X86223247Y-42363929D01*
X86225296Y-42323056D01*
X86239850Y-42013700D01*
X86250541Y-41701124D01*
X86251674Y-41659204D01*
X88930530Y-41659204D01*
X88930530Y-42204354D01*
X86789497Y-42204354D01*
X86773075Y-42500451D01*
X86767515Y-42600027D01*
X86748854Y-42901705D01*
X86733810Y-43090956D01*
X86708930Y-43385163D01*
X86691311Y-43574556D01*
X86663010Y-43866915D01*
X86654675Y-43943852D01*
X86965215Y-43959697D01*
X87323121Y-44000369D01*
X87647396Y-44064225D01*
X87938040Y-44151265D01*
X88242420Y-44286316D01*
X88498372Y-44454752D01*
X88536322Y-44486071D01*
X88768724Y-44724243D01*
X88944045Y-44995094D01*
X89062285Y-45298622D01*
X89123444Y-45634829D01*
X89132763Y-45841618D01*
X89111010Y-46142323D01*
X89036833Y-46452602D01*
X88910013Y-46741409D01*
X88728474Y-46998212D01*
X88490137Y-47214494D01*
X88224180Y-47375952D01*
X87945276Y-47487171D01*
X87627887Y-47561991D01*
X87313455Y-47597940D01*
X87057676Y-47606029D01*
G37*
G36*
X92477892Y-41560789D02*
G01*
X92773119Y-41643633D01*
X93040215Y-41781707D01*
X93279182Y-41975010D01*
X93490019Y-42223542D01*
X93554047Y-42318660D01*
X93698010Y-42580832D01*
X93817572Y-42876421D01*
X93912733Y-43205426D01*
X93971294Y-43492690D01*
X94014239Y-43801340D01*
X94041568Y-44131377D01*
X94053280Y-44482801D01*
X94053768Y-44573998D01*
X94045960Y-44928707D01*
X94022535Y-45262305D01*
X93983495Y-45574791D01*
X93928838Y-45866165D01*
X93838556Y-46200694D01*
X93723874Y-46502236D01*
X93584791Y-46770791D01*
X93554047Y-46820544D01*
X93352587Y-47087486D01*
X93122996Y-47299199D01*
X92865276Y-47455682D01*
X92579426Y-47556936D01*
X92265446Y-47602961D01*
X92154535Y-47606029D01*
X91832716Y-47578092D01*
X91538253Y-47494282D01*
X91271148Y-47354598D01*
X91134577Y-47252854D01*
X90911882Y-47028690D01*
X90740012Y-46786615D01*
X90592687Y-46504240D01*
X90483914Y-46224103D01*
X90395407Y-45914233D01*
X90336846Y-45625859D01*
X90294256Y-45316464D01*
X90267638Y-44986049D01*
X90256990Y-44634614D01*
X90256769Y-44573998D01*
X90929413Y-44573998D01*
X90936466Y-44895758D01*
X90957623Y-45205976D01*
X90992886Y-45504655D01*
X91042254Y-45791793D01*
X91118014Y-46091060D01*
X91231014Y-46383063D01*
X91390357Y-46655010D01*
X91423272Y-46698911D01*
X91652502Y-46908769D01*
X91935724Y-47021769D01*
X92154535Y-47043293D01*
X92453700Y-47002600D01*
X92724764Y-46865385D01*
X92890195Y-46698911D01*
X93054544Y-46436346D01*
X93172696Y-46152872D01*
X93253582Y-45861282D01*
X93268283Y-45791793D01*
X93322830Y-45467951D01*
X93356329Y-45167830D01*
X93375723Y-44856169D01*
X93381123Y-44573998D01*
X93374071Y-44248392D01*
X93352913Y-43935425D01*
X93317650Y-43635098D01*
X93268283Y-43347411D01*
X93192755Y-43048144D01*
X93080555Y-42756140D01*
X92922756Y-42484193D01*
X92890195Y-42440293D01*
X92662408Y-42230435D01*
X92376919Y-42117434D01*
X92154535Y-42095910D01*
X91859857Y-42136604D01*
X91590133Y-42273819D01*
X91423272Y-42440293D01*
X91257255Y-42702857D01*
X91138187Y-42986331D01*
X91056965Y-43277922D01*
X91042254Y-43347411D01*
X90987707Y-43671948D01*
X90954207Y-43973855D01*
X90934813Y-44288401D01*
X90929413Y-44573998D01*
X90256769Y-44573998D01*
X90262207Y-44274223D01*
X90283089Y-43934329D01*
X90319634Y-43616073D01*
X90371841Y-43319455D01*
X90452544Y-43000750D01*
X90479518Y-42915101D01*
X90586788Y-42634463D01*
X90733426Y-42351859D01*
X90905708Y-42109921D01*
X91130181Y-41886350D01*
X91384213Y-41715625D01*
X91664907Y-41600775D01*
X91972262Y-41541797D01*
X92154535Y-41533175D01*
X92477892Y-41560789D01*
G37*
G36*
X87741535Y-141560789D02*
G01*
X88036761Y-141643633D01*
X88303858Y-141781707D01*
X88542825Y-141975010D01*
X88753662Y-142223542D01*
X88817690Y-142318660D01*
X88961652Y-142580832D01*
X89081214Y-142876421D01*
X89176376Y-143205426D01*
X89234937Y-143492690D01*
X89277882Y-143801340D01*
X89305210Y-144131377D01*
X89316923Y-144482801D01*
X89317411Y-144573998D01*
X89309602Y-144928707D01*
X89286178Y-145262305D01*
X89247137Y-145574791D01*
X89192480Y-145866165D01*
X89102199Y-146200694D01*
X88987517Y-146502236D01*
X88848434Y-146770791D01*
X88817690Y-146820544D01*
X88616229Y-147087486D01*
X88386639Y-147299199D01*
X88128919Y-147455682D01*
X87843069Y-147556936D01*
X87529089Y-147602961D01*
X87418178Y-147606029D01*
X87096359Y-147578092D01*
X86801896Y-147494282D01*
X86534791Y-147354598D01*
X86398220Y-147252854D01*
X86175525Y-147028690D01*
X86003654Y-146786615D01*
X85856330Y-146504240D01*
X85747557Y-146224103D01*
X85659050Y-145914233D01*
X85600489Y-145625859D01*
X85557899Y-145316464D01*
X85531281Y-144986049D01*
X85520633Y-144634614D01*
X85520411Y-144573998D01*
X86193056Y-144573998D01*
X86200109Y-144895758D01*
X86221266Y-145205976D01*
X86256529Y-145504655D01*
X86305896Y-145791793D01*
X86381656Y-146091060D01*
X86494657Y-146383063D01*
X86654000Y-146655010D01*
X86686915Y-146698911D01*
X86916145Y-146908769D01*
X87199367Y-147021769D01*
X87418178Y-147043293D01*
X87717343Y-147002600D01*
X87988407Y-146865385D01*
X88153838Y-146698911D01*
X88318186Y-146436346D01*
X88436339Y-146152872D01*
X88517225Y-145861282D01*
X88531926Y-145791793D01*
X88586472Y-145467951D01*
X88619972Y-145167830D01*
X88639366Y-144856169D01*
X88644766Y-144573998D01*
X88637713Y-144248392D01*
X88616556Y-143935425D01*
X88581293Y-143635098D01*
X88531926Y-143347411D01*
X88456397Y-143048144D01*
X88344198Y-142756140D01*
X88186398Y-142484193D01*
X88153838Y-142440293D01*
X87926051Y-142230435D01*
X87640561Y-142117434D01*
X87418178Y-142095910D01*
X87123500Y-142136604D01*
X86853775Y-142273819D01*
X86686915Y-142440293D01*
X86520898Y-142702857D01*
X86401829Y-142986331D01*
X86320608Y-143277922D01*
X86305896Y-143347411D01*
X86251349Y-143671948D01*
X86217850Y-143973855D01*
X86198456Y-144288401D01*
X86193056Y-144573998D01*
X85520411Y-144573998D01*
X85525849Y-144274223D01*
X85546732Y-143934329D01*
X85583277Y-143616073D01*
X85635484Y-143319455D01*
X85716187Y-143000750D01*
X85743161Y-142915101D01*
X85850431Y-142634463D01*
X85997068Y-142351859D01*
X86169351Y-142109921D01*
X86393824Y-141886350D01*
X86647856Y-141715625D01*
X86928549Y-141600775D01*
X87235905Y-141541797D01*
X87418178Y-141533175D01*
X87741535Y-141560789D01*
G37*
G36*
X111084962Y-47606029D02*
G01*
X110787153Y-47594809D01*
X110492974Y-47557886D01*
X110437230Y-47547411D01*
X110150222Y-47480579D01*
X109937509Y-47414054D01*
X109665545Y-47303617D01*
X109648814Y-47295352D01*
X109799756Y-46748736D01*
X110087898Y-46861768D01*
X110265771Y-46921660D01*
X110567777Y-46994720D01*
X110879610Y-47029101D01*
X111076169Y-47034501D01*
X111394333Y-47019331D01*
X111690098Y-46967602D01*
X111929065Y-46879162D01*
X112177563Y-46708738D01*
X112357448Y-46472296D01*
X112365771Y-46455645D01*
X112463590Y-46171713D01*
X112496070Y-45879573D01*
X112496197Y-45859204D01*
X112467140Y-45549397D01*
X112370080Y-45253773D01*
X112289567Y-45111821D01*
X112070147Y-44882149D01*
X111802120Y-44725215D01*
X111559770Y-44632616D01*
X111269792Y-44558886D01*
X110970682Y-44511652D01*
X110629216Y-44480547D01*
X110302820Y-44466722D01*
X110067934Y-44464089D01*
X110103930Y-44157373D01*
X110134979Y-43865908D01*
X110152931Y-43680069D01*
X110180740Y-43366232D01*
X110205184Y-43065860D01*
X110211549Y-42982512D01*
X110232973Y-42671932D01*
X110250533Y-42363929D01*
X110252582Y-42323056D01*
X110267136Y-42013700D01*
X110277827Y-41701124D01*
X110278960Y-41659204D01*
X112957816Y-41659204D01*
X112957816Y-42204354D01*
X110816783Y-42204354D01*
X110800361Y-42500451D01*
X110794801Y-42600027D01*
X110776140Y-42901705D01*
X110761096Y-43090956D01*
X110736216Y-43385163D01*
X110718597Y-43574556D01*
X110690296Y-43866915D01*
X110681961Y-43943852D01*
X110992501Y-43959697D01*
X111350407Y-44000369D01*
X111674682Y-44064225D01*
X111965326Y-44151265D01*
X112269706Y-44286316D01*
X112525658Y-44454752D01*
X112563608Y-44486071D01*
X112796010Y-44724243D01*
X112971331Y-44995094D01*
X113089571Y-45298622D01*
X113150730Y-45634829D01*
X113160049Y-45841618D01*
X113138296Y-46142323D01*
X113064119Y-46452602D01*
X112937299Y-46741409D01*
X112755760Y-46998212D01*
X112517423Y-47214494D01*
X112251466Y-47375952D01*
X111972562Y-47487171D01*
X111655173Y-47561991D01*
X111340741Y-47597940D01*
X111084962Y-47606029D01*
G37*
G36*
X116505178Y-41560789D02*
G01*
X116800405Y-41643633D01*
X117067501Y-41781707D01*
X117306468Y-41975010D01*
X117517305Y-42223542D01*
X117581333Y-42318660D01*
X117725296Y-42580832D01*
X117844858Y-42876421D01*
X117940019Y-43205426D01*
X117998580Y-43492690D01*
X118041525Y-43801340D01*
X118068854Y-44131377D01*
X118080566Y-44482801D01*
X118081054Y-44573998D01*
X118073246Y-44928707D01*
X118049821Y-45262305D01*
X118010781Y-45574791D01*
X117956124Y-45866165D01*
X117865842Y-46200694D01*
X117751160Y-46502236D01*
X117612077Y-46770791D01*
X117581333Y-46820544D01*
X117379873Y-47087486D01*
X117150282Y-47299199D01*
X116892562Y-47455682D01*
X116606712Y-47556936D01*
X116292732Y-47602961D01*
X116181821Y-47606029D01*
X115860002Y-47578092D01*
X115565539Y-47494282D01*
X115298434Y-47354598D01*
X115161863Y-47252854D01*
X114939168Y-47028690D01*
X114767298Y-46786615D01*
X114619973Y-46504240D01*
X114511200Y-46224103D01*
X114422693Y-45914233D01*
X114364132Y-45625859D01*
X114321542Y-45316464D01*
X114294924Y-44986049D01*
X114284276Y-44634614D01*
X114284055Y-44573998D01*
X114956699Y-44573998D01*
X114963752Y-44895758D01*
X114984909Y-45205976D01*
X115020172Y-45504655D01*
X115069540Y-45791793D01*
X115145300Y-46091060D01*
X115258300Y-46383063D01*
X115417643Y-46655010D01*
X115450558Y-46698911D01*
X115679788Y-46908769D01*
X115963010Y-47021769D01*
X116181821Y-47043293D01*
X116480986Y-47002600D01*
X116752050Y-46865385D01*
X116917481Y-46698911D01*
X117081830Y-46436346D01*
X117199982Y-46152872D01*
X117280868Y-45861282D01*
X117295569Y-45791793D01*
X117350116Y-45467951D01*
X117383615Y-45167830D01*
X117403009Y-44856169D01*
X117408409Y-44573998D01*
X117401357Y-44248392D01*
X117380199Y-43935425D01*
X117344936Y-43635098D01*
X117295569Y-43347411D01*
X117220041Y-43048144D01*
X117107841Y-42756140D01*
X116950042Y-42484193D01*
X116917481Y-42440293D01*
X116689694Y-42230435D01*
X116404205Y-42117434D01*
X116181821Y-42095910D01*
X115887143Y-42136604D01*
X115617419Y-42273819D01*
X115450558Y-42440293D01*
X115284541Y-42702857D01*
X115165473Y-42986331D01*
X115084251Y-43277922D01*
X115069540Y-43347411D01*
X115014993Y-43671948D01*
X114981493Y-43973855D01*
X114962099Y-44288401D01*
X114956699Y-44573998D01*
X114284055Y-44573998D01*
X114289493Y-44274223D01*
X114310375Y-43934329D01*
X114346920Y-43616073D01*
X114399127Y-43319455D01*
X114479830Y-43000750D01*
X114506804Y-42915101D01*
X114614074Y-42634463D01*
X114760712Y-42351859D01*
X114932994Y-42109921D01*
X115157467Y-41886350D01*
X115411499Y-41715625D01*
X115692193Y-41600775D01*
X115999548Y-41541797D01*
X116181821Y-41533175D01*
X116505178Y-41560789D01*
G37*
G36*
X85705059Y-107480000D02*
G01*
X85700662Y-107396468D01*
X85696266Y-107252854D01*
X85719593Y-106931655D01*
X85789574Y-106629347D01*
X85906210Y-106345930D01*
X85935136Y-106291514D01*
X86096364Y-106027903D01*
X86279632Y-105777459D01*
X86484940Y-105540181D01*
X86528646Y-105494305D01*
X86747663Y-105269907D01*
X86963245Y-105054668D01*
X87175393Y-104848588D01*
X87217411Y-104808471D01*
X87440403Y-104593962D01*
X87659993Y-104370526D01*
X87733251Y-104292630D01*
X87930680Y-104054007D01*
X88088825Y-103802504D01*
X88106943Y-103767997D01*
X88210026Y-103492472D01*
X88249997Y-103187968D01*
X88250558Y-103145177D01*
X88220934Y-102824666D01*
X88119916Y-102544171D01*
X87947208Y-102339176D01*
X87675565Y-102181671D01*
X87378020Y-102107551D01*
X87183705Y-102095910D01*
X86880166Y-102119094D01*
X86582868Y-102201423D01*
X86310875Y-102334279D01*
X86162281Y-102435896D01*
X85938460Y-102626557D01*
X85923412Y-102641060D01*
X85596615Y-102213147D01*
X85815110Y-102017586D01*
X85902896Y-101949364D01*
X86162071Y-101785728D01*
X86443649Y-101659204D01*
X86746867Y-101573051D01*
X87057059Y-101536252D01*
X87183705Y-101533175D01*
X87492894Y-101547961D01*
X87815586Y-101602588D01*
X88097326Y-101697466D01*
X88369168Y-101855186D01*
X88485031Y-101953761D01*
X88676090Y-102183288D01*
X88812561Y-102452749D01*
X88894443Y-102762144D01*
X88921311Y-103065622D01*
X88921737Y-103111472D01*
X88897840Y-103404435D01*
X88817263Y-103707441D01*
X88719504Y-103923335D01*
X88566930Y-104176265D01*
X88385265Y-104421230D01*
X88194870Y-104637013D01*
X87990365Y-104849075D01*
X87779848Y-105060278D01*
X87563321Y-105270623D01*
X87519295Y-105312588D01*
X87302609Y-105527916D01*
X87088342Y-105750016D01*
X86990265Y-105854808D01*
X86794286Y-106081968D01*
X86618934Y-106323356D01*
X86565282Y-106408750D01*
X86443283Y-106676196D01*
X86402616Y-106933384D01*
X89115177Y-106933384D01*
X89115177Y-107480000D01*
X85705059Y-107480000D01*
G37*
G36*
X92477892Y-101560789D02*
G01*
X92773119Y-101643633D01*
X93040215Y-101781707D01*
X93279182Y-101975010D01*
X93490019Y-102223542D01*
X93554047Y-102318660D01*
X93698010Y-102580832D01*
X93817572Y-102876421D01*
X93912733Y-103205426D01*
X93971294Y-103492690D01*
X94014239Y-103801340D01*
X94041568Y-104131377D01*
X94053280Y-104482801D01*
X94053768Y-104573998D01*
X94045960Y-104928707D01*
X94022535Y-105262305D01*
X93983495Y-105574791D01*
X93928838Y-105866165D01*
X93838556Y-106200694D01*
X93723874Y-106502236D01*
X93584791Y-106770791D01*
X93554047Y-106820544D01*
X93352587Y-107087486D01*
X93122996Y-107299199D01*
X92865276Y-107455682D01*
X92579426Y-107556936D01*
X92265446Y-107602961D01*
X92154535Y-107606029D01*
X91832716Y-107578092D01*
X91538253Y-107494282D01*
X91271148Y-107354598D01*
X91134577Y-107252854D01*
X90911882Y-107028690D01*
X90740012Y-106786615D01*
X90592687Y-106504240D01*
X90483914Y-106224103D01*
X90395407Y-105914233D01*
X90336846Y-105625859D01*
X90294256Y-105316464D01*
X90267638Y-104986049D01*
X90256990Y-104634614D01*
X90256769Y-104573998D01*
X90929413Y-104573998D01*
X90936466Y-104895758D01*
X90957623Y-105205976D01*
X90992886Y-105504655D01*
X91042254Y-105791793D01*
X91118014Y-106091060D01*
X91231014Y-106383063D01*
X91390357Y-106655010D01*
X91423272Y-106698911D01*
X91652502Y-106908769D01*
X91935724Y-107021769D01*
X92154535Y-107043293D01*
X92453700Y-107002600D01*
X92724764Y-106865385D01*
X92890195Y-106698911D01*
X93054544Y-106436346D01*
X93172696Y-106152872D01*
X93253582Y-105861282D01*
X93268283Y-105791793D01*
X93322830Y-105467951D01*
X93356329Y-105167830D01*
X93375723Y-104856169D01*
X93381123Y-104573998D01*
X93374071Y-104248392D01*
X93352913Y-103935425D01*
X93317650Y-103635098D01*
X93268283Y-103347411D01*
X93192755Y-103048144D01*
X93080555Y-102756140D01*
X92922756Y-102484193D01*
X92890195Y-102440293D01*
X92662408Y-102230435D01*
X92376919Y-102117434D01*
X92154535Y-102095910D01*
X91859857Y-102136604D01*
X91590133Y-102273819D01*
X91423272Y-102440293D01*
X91257255Y-102702857D01*
X91138187Y-102986331D01*
X91056965Y-103277922D01*
X91042254Y-103347411D01*
X90987707Y-103671948D01*
X90954207Y-103973855D01*
X90934813Y-104288401D01*
X90929413Y-104573998D01*
X90256769Y-104573998D01*
X90262207Y-104274223D01*
X90283089Y-103934329D01*
X90319634Y-103616073D01*
X90371841Y-103319455D01*
X90452544Y-103000750D01*
X90479518Y-102915101D01*
X90586788Y-102634463D01*
X90733426Y-102351859D01*
X90905708Y-102109921D01*
X91130181Y-101886350D01*
X91384213Y-101715625D01*
X91664907Y-101600775D01*
X91972262Y-101541797D01*
X92154535Y-101533175D01*
X92477892Y-101560789D01*
G37*
G36*
X87435764Y-127480000D02*
G01*
X87435764Y-122582442D01*
X87203031Y-122781378D01*
X87100174Y-122852086D01*
X86841080Y-123008295D01*
X86620969Y-123124661D01*
X86343815Y-123250003D01*
X86099267Y-123338618D01*
X85914619Y-122852086D01*
X86190534Y-122744461D01*
X86479161Y-122606387D01*
X86748896Y-122448851D01*
X86826133Y-122397794D01*
X87078753Y-122206655D01*
X87302685Y-122003795D01*
X87523370Y-121771724D01*
X87620411Y-121659204D01*
X88065910Y-121659204D01*
X88065910Y-127480000D01*
X87435764Y-127480000D01*
G37*
G36*
X92477892Y-121560789D02*
G01*
X92773119Y-121643633D01*
X93040215Y-121781707D01*
X93279182Y-121975010D01*
X93490019Y-122223542D01*
X93554047Y-122318660D01*
X93698010Y-122580832D01*
X93817572Y-122876421D01*
X93912733Y-123205426D01*
X93971294Y-123492690D01*
X94014239Y-123801340D01*
X94041568Y-124131377D01*
X94053280Y-124482801D01*
X94053768Y-124573998D01*
X94045960Y-124928707D01*
X94022535Y-125262305D01*
X93983495Y-125574791D01*
X93928838Y-125866165D01*
X93838556Y-126200694D01*
X93723874Y-126502236D01*
X93584791Y-126770791D01*
X93554047Y-126820544D01*
X93352587Y-127087486D01*
X93122996Y-127299199D01*
X92865276Y-127455682D01*
X92579426Y-127556936D01*
X92265446Y-127602961D01*
X92154535Y-127606029D01*
X91832716Y-127578092D01*
X91538253Y-127494282D01*
X91271148Y-127354598D01*
X91134577Y-127252854D01*
X90911882Y-127028690D01*
X90740012Y-126786615D01*
X90592687Y-126504240D01*
X90483914Y-126224103D01*
X90395407Y-125914233D01*
X90336846Y-125625859D01*
X90294256Y-125316464D01*
X90267638Y-124986049D01*
X90256990Y-124634614D01*
X90256769Y-124573998D01*
X90929413Y-124573998D01*
X90936466Y-124895758D01*
X90957623Y-125205976D01*
X90992886Y-125504655D01*
X91042254Y-125791793D01*
X91118014Y-126091060D01*
X91231014Y-126383063D01*
X91390357Y-126655010D01*
X91423272Y-126698911D01*
X91652502Y-126908769D01*
X91935724Y-127021769D01*
X92154535Y-127043293D01*
X92453700Y-127002600D01*
X92724764Y-126865385D01*
X92890195Y-126698911D01*
X93054544Y-126436346D01*
X93172696Y-126152872D01*
X93253582Y-125861282D01*
X93268283Y-125791793D01*
X93322830Y-125467951D01*
X93356329Y-125167830D01*
X93375723Y-124856169D01*
X93381123Y-124573998D01*
X93374071Y-124248392D01*
X93352913Y-123935425D01*
X93317650Y-123635098D01*
X93268283Y-123347411D01*
X93192755Y-123048144D01*
X93080555Y-122756140D01*
X92922756Y-122484193D01*
X92890195Y-122440293D01*
X92662408Y-122230435D01*
X92376919Y-122117434D01*
X92154535Y-122095910D01*
X91859857Y-122136604D01*
X91590133Y-122273819D01*
X91423272Y-122440293D01*
X91257255Y-122702857D01*
X91138187Y-122986331D01*
X91056965Y-123277922D01*
X91042254Y-123347411D01*
X90987707Y-123671948D01*
X90954207Y-123973855D01*
X90934813Y-124288401D01*
X90929413Y-124573998D01*
X90256769Y-124573998D01*
X90262207Y-124274223D01*
X90283089Y-123934329D01*
X90319634Y-123616073D01*
X90371841Y-123319455D01*
X90452544Y-123000750D01*
X90479518Y-122915101D01*
X90586788Y-122634463D01*
X90733426Y-122351859D01*
X90905708Y-122109921D01*
X91130181Y-121886350D01*
X91384213Y-121715625D01*
X91664907Y-121600775D01*
X91972262Y-121541797D01*
X92154535Y-121533175D01*
X92477892Y-121560789D01*
G37*
G36*
X85534473Y-185337501D02*
G01*
X85534473Y-184741060D01*
X87492323Y-184741060D01*
X87492323Y-185337501D01*
X85534473Y-185337501D01*
G37*
G36*
X88381856Y-187480000D02*
G01*
X88377459Y-187396468D01*
X88373063Y-187252854D01*
X88396390Y-186931655D01*
X88466371Y-186629347D01*
X88583007Y-186345930D01*
X88611933Y-186291514D01*
X88773161Y-186027903D01*
X88956429Y-185777459D01*
X89161737Y-185540181D01*
X89205443Y-185494305D01*
X89424460Y-185269907D01*
X89640042Y-185054668D01*
X89852190Y-184848588D01*
X89894207Y-184808471D01*
X90117200Y-184593962D01*
X90336790Y-184370526D01*
X90410048Y-184292630D01*
X90607477Y-184054007D01*
X90765622Y-183802504D01*
X90783740Y-183767997D01*
X90886823Y-183492472D01*
X90926794Y-183187968D01*
X90927355Y-183145177D01*
X90897731Y-182824666D01*
X90796713Y-182544171D01*
X90624005Y-182339176D01*
X90352362Y-182181671D01*
X90054817Y-182107551D01*
X89860502Y-182095910D01*
X89556963Y-182119094D01*
X89259665Y-182201423D01*
X88987672Y-182334279D01*
X88839078Y-182435896D01*
X88615257Y-182626557D01*
X88600209Y-182641060D01*
X88273412Y-182213147D01*
X88491907Y-182017586D01*
X88579692Y-181949364D01*
X88838868Y-181785728D01*
X89120446Y-181659204D01*
X89423664Y-181573051D01*
X89733856Y-181536252D01*
X89860502Y-181533175D01*
X90169690Y-181547961D01*
X90492383Y-181602588D01*
X90774123Y-181697466D01*
X91045965Y-181855186D01*
X91161828Y-181953761D01*
X91352887Y-182183288D01*
X91489357Y-182452749D01*
X91571240Y-182762144D01*
X91598108Y-183065622D01*
X91598534Y-183111472D01*
X91574637Y-183404435D01*
X91494060Y-183707441D01*
X91396301Y-183923335D01*
X91243727Y-184176265D01*
X91062062Y-184421230D01*
X90871667Y-184637013D01*
X90667162Y-184849075D01*
X90456645Y-185060278D01*
X90240118Y-185270623D01*
X90196092Y-185312588D01*
X89979406Y-185527916D01*
X89765138Y-185750016D01*
X89667062Y-185854808D01*
X89471082Y-186081968D01*
X89295731Y-186323356D01*
X89242079Y-186408750D01*
X89120080Y-186676196D01*
X89079413Y-186933384D01*
X91791974Y-186933384D01*
X91791974Y-187480000D01*
X88381856Y-187480000D01*
G37*
G36*
X95154689Y-181560789D02*
G01*
X95449916Y-181643633D01*
X95717012Y-181781707D01*
X95955979Y-181975010D01*
X96166816Y-182223542D01*
X96230844Y-182318660D01*
X96374806Y-182580832D01*
X96494369Y-182876421D01*
X96589530Y-183205426D01*
X96648091Y-183492690D01*
X96691036Y-183801340D01*
X96718365Y-184131377D01*
X96730077Y-184482801D01*
X96730565Y-184573998D01*
X96722757Y-184928707D01*
X96699332Y-185262305D01*
X96660292Y-185574791D01*
X96605635Y-185866165D01*
X96515353Y-186200694D01*
X96400671Y-186502236D01*
X96261588Y-186770791D01*
X96230844Y-186820544D01*
X96029384Y-187087486D01*
X95799793Y-187299199D01*
X95542073Y-187455682D01*
X95256223Y-187556936D01*
X94942243Y-187602961D01*
X94831332Y-187606029D01*
X94509513Y-187578092D01*
X94215050Y-187494282D01*
X93947945Y-187354598D01*
X93811374Y-187252854D01*
X93588679Y-187028690D01*
X93416809Y-186786615D01*
X93269484Y-186504240D01*
X93160711Y-186224103D01*
X93072204Y-185914233D01*
X93013643Y-185625859D01*
X92971053Y-185316464D01*
X92944435Y-184986049D01*
X92933787Y-184634614D01*
X92933565Y-184573998D01*
X93606210Y-184573998D01*
X93613263Y-184895758D01*
X93634420Y-185205976D01*
X93669683Y-185504655D01*
X93719050Y-185791793D01*
X93794811Y-186091060D01*
X93907811Y-186383063D01*
X94067154Y-186655010D01*
X94100069Y-186698911D01*
X94329299Y-186908769D01*
X94612521Y-187021769D01*
X94831332Y-187043293D01*
X95130497Y-187002600D01*
X95401561Y-186865385D01*
X95566992Y-186698911D01*
X95731341Y-186436346D01*
X95849493Y-186152872D01*
X95930379Y-185861282D01*
X95945080Y-185791793D01*
X95999627Y-185467951D01*
X96033126Y-185167830D01*
X96052520Y-184856169D01*
X96057920Y-184573998D01*
X96050867Y-184248392D01*
X96029710Y-183935425D01*
X95994447Y-183635098D01*
X95945080Y-183347411D01*
X95869551Y-183048144D01*
X95757352Y-182756140D01*
X95599552Y-182484193D01*
X95566992Y-182440293D01*
X95339205Y-182230435D01*
X95053715Y-182117434D01*
X94831332Y-182095910D01*
X94536654Y-182136604D01*
X94266930Y-182273819D01*
X94100069Y-182440293D01*
X93934052Y-182702857D01*
X93814983Y-182986331D01*
X93733762Y-183277922D01*
X93719050Y-183347411D01*
X93664504Y-183671948D01*
X93631004Y-183973855D01*
X93611610Y-184288401D01*
X93606210Y-184573998D01*
X92933565Y-184573998D01*
X92939004Y-184274223D01*
X92959886Y-183934329D01*
X92996431Y-183616073D01*
X93048638Y-183319455D01*
X93129341Y-183000750D01*
X93156315Y-182915101D01*
X93263585Y-182634463D01*
X93410223Y-182351859D01*
X93582505Y-182109921D01*
X93806978Y-181886350D01*
X94061010Y-181715625D01*
X94341704Y-181600775D01*
X94649059Y-181541797D01*
X94831332Y-181533175D01*
X95154689Y-181560789D01*
G37*
G36*
X85534473Y-165337501D02*
G01*
X85534473Y-164741060D01*
X87492323Y-164741060D01*
X87492323Y-165337501D01*
X85534473Y-165337501D01*
G37*
G36*
X90112561Y-167480000D02*
G01*
X90112561Y-162582442D01*
X89879828Y-162781378D01*
X89776971Y-162852086D01*
X89517877Y-163008295D01*
X89297766Y-163124661D01*
X89020612Y-163250003D01*
X88776064Y-163338618D01*
X88591416Y-162852086D01*
X88867331Y-162744461D01*
X89155958Y-162606387D01*
X89425693Y-162448851D01*
X89502930Y-162397794D01*
X89755550Y-162206655D01*
X89979482Y-162003795D01*
X90200167Y-161771724D01*
X90297208Y-161659204D01*
X90742707Y-161659204D01*
X90742707Y-167480000D01*
X90112561Y-167480000D01*
G37*
G36*
X95154689Y-161560789D02*
G01*
X95449916Y-161643633D01*
X95717012Y-161781707D01*
X95955979Y-161975010D01*
X96166816Y-162223542D01*
X96230844Y-162318660D01*
X96374806Y-162580832D01*
X96494369Y-162876421D01*
X96589530Y-163205426D01*
X96648091Y-163492690D01*
X96691036Y-163801340D01*
X96718365Y-164131377D01*
X96730077Y-164482801D01*
X96730565Y-164573998D01*
X96722757Y-164928707D01*
X96699332Y-165262305D01*
X96660292Y-165574791D01*
X96605635Y-165866165D01*
X96515353Y-166200694D01*
X96400671Y-166502236D01*
X96261588Y-166770791D01*
X96230844Y-166820544D01*
X96029384Y-167087486D01*
X95799793Y-167299199D01*
X95542073Y-167455682D01*
X95256223Y-167556936D01*
X94942243Y-167602961D01*
X94831332Y-167606029D01*
X94509513Y-167578092D01*
X94215050Y-167494282D01*
X93947945Y-167354598D01*
X93811374Y-167252854D01*
X93588679Y-167028690D01*
X93416809Y-166786615D01*
X93269484Y-166504240D01*
X93160711Y-166224103D01*
X93072204Y-165914233D01*
X93013643Y-165625859D01*
X92971053Y-165316464D01*
X92944435Y-164986049D01*
X92933787Y-164634614D01*
X92933565Y-164573998D01*
X93606210Y-164573998D01*
X93613263Y-164895758D01*
X93634420Y-165205976D01*
X93669683Y-165504655D01*
X93719050Y-165791793D01*
X93794811Y-166091060D01*
X93907811Y-166383063D01*
X94067154Y-166655010D01*
X94100069Y-166698911D01*
X94329299Y-166908769D01*
X94612521Y-167021769D01*
X94831332Y-167043293D01*
X95130497Y-167002600D01*
X95401561Y-166865385D01*
X95566992Y-166698911D01*
X95731341Y-166436346D01*
X95849493Y-166152872D01*
X95930379Y-165861282D01*
X95945080Y-165791793D01*
X95999627Y-165467951D01*
X96033126Y-165167830D01*
X96052520Y-164856169D01*
X96057920Y-164573998D01*
X96050867Y-164248392D01*
X96029710Y-163935425D01*
X95994447Y-163635098D01*
X95945080Y-163347411D01*
X95869551Y-163048144D01*
X95757352Y-162756140D01*
X95599552Y-162484193D01*
X95566992Y-162440293D01*
X95339205Y-162230435D01*
X95053715Y-162117434D01*
X94831332Y-162095910D01*
X94536654Y-162136604D01*
X94266930Y-162273819D01*
X94100069Y-162440293D01*
X93934052Y-162702857D01*
X93814983Y-162986331D01*
X93733762Y-163277922D01*
X93719050Y-163347411D01*
X93664504Y-163671948D01*
X93631004Y-163973855D01*
X93611610Y-164288401D01*
X93606210Y-164573998D01*
X92933565Y-164573998D01*
X92939004Y-164274223D01*
X92959886Y-163934329D01*
X92996431Y-163616073D01*
X93048638Y-163319455D01*
X93129341Y-163000750D01*
X93156315Y-162915101D01*
X93263585Y-162634463D01*
X93410223Y-162351859D01*
X93582505Y-162109921D01*
X93806978Y-161886350D01*
X94061010Y-161715625D01*
X94341704Y-161600775D01*
X94649059Y-161541797D01*
X94831332Y-161533175D01*
X95154689Y-161560789D01*
G37*
G36*
X112705757Y-65422498D02*
G01*
X113419435Y-65422498D01*
X113419435Y-65933942D01*
X112705757Y-65933942D01*
X112705757Y-67480000D01*
X112093196Y-67480000D01*
X112093196Y-65933942D01*
X109471493Y-65933942D01*
X109471493Y-65530942D01*
X109517091Y-65422498D01*
X110101640Y-65422498D01*
X112093196Y-65422498D01*
X112093196Y-62372882D01*
X111884231Y-62604928D01*
X111690507Y-62837188D01*
X111530461Y-63041130D01*
X111353432Y-63277979D01*
X111179552Y-63521411D01*
X111008821Y-63771426D01*
X110975052Y-63822219D01*
X110811877Y-64077271D01*
X110657575Y-64333182D01*
X110512145Y-64589952D01*
X110484124Y-64641409D01*
X110338430Y-64918834D01*
X110207628Y-65186908D01*
X110101640Y-65422498D01*
X109517091Y-65422498D01*
X109590473Y-65247975D01*
X109723280Y-64969996D01*
X109862874Y-64702930D01*
X109896476Y-64641409D01*
X110055827Y-64359067D01*
X110207594Y-64103230D01*
X110368886Y-63842814D01*
X110517830Y-63611193D01*
X110695059Y-63346403D01*
X110877966Y-63085460D01*
X111066552Y-62828364D01*
X111260817Y-62575115D01*
X111459661Y-62328826D01*
X111660520Y-62094078D01*
X111863394Y-61870871D01*
X112068283Y-61659204D01*
X112705757Y-61659204D01*
X112705757Y-65422498D01*
G37*
G36*
X116505178Y-61560789D02*
G01*
X116800405Y-61643633D01*
X117067501Y-61781707D01*
X117306468Y-61975010D01*
X117517305Y-62223542D01*
X117581333Y-62318660D01*
X117725296Y-62580832D01*
X117844858Y-62876421D01*
X117940019Y-63205426D01*
X117998580Y-63492690D01*
X118041525Y-63801340D01*
X118068854Y-64131377D01*
X118080566Y-64482801D01*
X118081054Y-64573998D01*
X118073246Y-64928707D01*
X118049821Y-65262305D01*
X118010781Y-65574791D01*
X117956124Y-65866165D01*
X117865842Y-66200694D01*
X117751160Y-66502236D01*
X117612077Y-66770791D01*
X117581333Y-66820544D01*
X117379873Y-67087486D01*
X117150282Y-67299199D01*
X116892562Y-67455682D01*
X116606712Y-67556936D01*
X116292732Y-67602961D01*
X116181821Y-67606029D01*
X115860002Y-67578092D01*
X115565539Y-67494282D01*
X115298434Y-67354598D01*
X115161863Y-67252854D01*
X114939168Y-67028690D01*
X114767298Y-66786615D01*
X114619973Y-66504240D01*
X114511200Y-66224103D01*
X114422693Y-65914233D01*
X114364132Y-65625859D01*
X114321542Y-65316464D01*
X114294924Y-64986049D01*
X114284276Y-64634614D01*
X114284055Y-64573998D01*
X114956699Y-64573998D01*
X114963752Y-64895758D01*
X114984909Y-65205976D01*
X115020172Y-65504655D01*
X115069540Y-65791793D01*
X115145300Y-66091060D01*
X115258300Y-66383063D01*
X115417643Y-66655010D01*
X115450558Y-66698911D01*
X115679788Y-66908769D01*
X115963010Y-67021769D01*
X116181821Y-67043293D01*
X116480986Y-67002600D01*
X116752050Y-66865385D01*
X116917481Y-66698911D01*
X117081830Y-66436346D01*
X117199982Y-66152872D01*
X117280868Y-65861282D01*
X117295569Y-65791793D01*
X117350116Y-65467951D01*
X117383615Y-65167830D01*
X117403009Y-64856169D01*
X117408409Y-64573998D01*
X117401357Y-64248392D01*
X117380199Y-63935425D01*
X117344936Y-63635098D01*
X117295569Y-63347411D01*
X117220041Y-63048144D01*
X117107841Y-62756140D01*
X116950042Y-62484193D01*
X116917481Y-62440293D01*
X116689694Y-62230435D01*
X116404205Y-62117434D01*
X116181821Y-62095910D01*
X115887143Y-62136604D01*
X115617419Y-62273819D01*
X115450558Y-62440293D01*
X115284541Y-62702857D01*
X115165473Y-62986331D01*
X115084251Y-63277922D01*
X115069540Y-63347411D01*
X115014993Y-63671948D01*
X114981493Y-63973855D01*
X114962099Y-64288401D01*
X114956699Y-64573998D01*
X114284055Y-64573998D01*
X114289493Y-64274223D01*
X114310375Y-63934329D01*
X114346920Y-63616073D01*
X114399127Y-63319455D01*
X114479830Y-63000750D01*
X114506804Y-62915101D01*
X114614074Y-62634463D01*
X114760712Y-62351859D01*
X114932994Y-62109921D01*
X115157467Y-61886350D01*
X115411499Y-61715625D01*
X115692193Y-61600775D01*
X115999548Y-61541797D01*
X116181821Y-61533175D01*
X116505178Y-61560789D01*
G37*
D19*
%TO.C,D1*%
X100385000Y-47765000D02*
X100385000Y-49235000D01*
%TO.C,D2*%
X103185000Y-51235000D02*
X103185000Y-49765000D01*
%TO.C,C10*%
X115540000Y-197890580D02*
X115540000Y-197609420D01*
X116560000Y-197890580D02*
X116560000Y-197609420D01*
%TO.C,R13*%
X116237258Y-185977500D02*
X115762742Y-185977500D01*
X116237258Y-187022500D02*
X115762742Y-187022500D01*
%TO.C,D50*%
X103185000Y-133235000D02*
X103185000Y-131765000D01*
%TO.C,RV11*%
X113727500Y-211362742D02*
X113727500Y-211837258D01*
X114772500Y-211362742D02*
X114772500Y-211837258D01*
%TO.C,D16*%
X100385000Y-119765000D02*
X100385000Y-121235000D01*
%TO.C,U5*%
X106900000Y-190165000D02*
X109900000Y-190165000D01*
X106900000Y-192435000D02*
X109900000Y-192435000D01*
D20*
X106300000Y-190100000D02*
G75*
G02*
X106100000Y-190100000I-100000J0D01*
G01*
X106100000Y-190100000D02*
G75*
G02*
X106300000Y-190100000I100000J0D01*
G01*
D19*
%TO.C,D8*%
X103185000Y-143235000D02*
X103185000Y-141765000D01*
%TO.C,R9*%
X103477500Y-221847258D02*
X103477500Y-221372742D01*
X104522500Y-221847258D02*
X104522500Y-221372742D01*
%TO.C,D85*%
X103185000Y-223235000D02*
X103185000Y-221765000D01*
%TO.C,C14*%
X94490000Y-213440580D02*
X94490000Y-213159420D01*
X95510000Y-213440580D02*
X95510000Y-213159420D01*
%TO.C,R20*%
X88487258Y-219677500D02*
X88012742Y-219677500D01*
X88487258Y-220722500D02*
X88012742Y-220722500D01*
%TO.C,D25*%
X103185000Y-59235000D02*
X103185000Y-57765000D01*
%TO.C,U7*%
D20*
X111300000Y-114425000D02*
G75*
G02*
X111100000Y-114425000I-100000J0D01*
G01*
X111100000Y-114425000D02*
G75*
G02*
X111300000Y-114425000I100000J0D01*
G01*
D19*
%TO.C,C9*%
X113809420Y-192990000D02*
X114090580Y-192990000D01*
X113809420Y-194010000D02*
X114090580Y-194010000D01*
%TO.C,C7*%
X112109420Y-190290000D02*
X112390580Y-190290000D01*
X112109420Y-191310000D02*
X112390580Y-191310000D01*
%TO.C,Y1*%
X104400000Y-198350000D02*
X104400000Y-200650000D01*
X104400000Y-200650000D02*
X107100000Y-200650000D01*
%TO.C,D22*%
X100385000Y-163765000D02*
X100385000Y-165235000D01*
%TO.C,D38*%
X103185000Y-129235000D02*
X103185000Y-127765000D01*
%TO.C,D51*%
X100385000Y-133765000D02*
X100385000Y-135235000D01*
%TO.C,D37*%
X103185000Y-99235000D02*
X103185000Y-97765000D01*
%TO.C,RV2*%
X111227500Y-203662742D02*
X111227500Y-204137258D01*
X112272500Y-203662742D02*
X112272500Y-204137258D01*
%TO.C,RV4*%
X107977500Y-183987258D02*
X107977500Y-183512742D01*
X109022500Y-183987258D02*
X109022500Y-183512742D01*
%TO.C,R15*%
X112072500Y-208637258D02*
X112072500Y-208162742D01*
X113117500Y-208637258D02*
X113117500Y-208162742D01*
%TO.C,D15*%
X103185000Y-91235000D02*
X103185000Y-89765000D01*
%TO.C,D54*%
X100385000Y-175765000D02*
X100385000Y-177235000D01*
%TO.C,RV1*%
X109727500Y-221390242D02*
X109727500Y-221864758D01*
X110772500Y-221390242D02*
X110772500Y-221864758D01*
%TO.C,U8*%
X109940000Y-51200000D02*
X109940000Y-50400000D01*
X109940000Y-51200000D02*
X109940000Y-52000000D01*
X113060000Y-51200000D02*
X113060000Y-50400000D01*
X113060000Y-51200000D02*
X113060000Y-52000000D01*
D21*
X113331529Y-50000000D02*
G75*
G02*
X113068471Y-50000000I-131529J0D01*
G01*
X113068471Y-50000000D02*
G75*
G02*
X113331529Y-50000000I131529J0D01*
G01*
D19*
%TO.C,C4*%
X115859420Y-187990000D02*
X116140580Y-187990000D01*
X115859420Y-189010000D02*
X116140580Y-189010000D01*
%TO.C,C15*%
X88702500Y-212649420D02*
X88702500Y-212930580D01*
X89722500Y-212649420D02*
X89722500Y-212930580D01*
%TO.C,D86*%
X100385000Y-207765000D02*
X100385000Y-209235000D01*
%TO.C,D62*%
X100385000Y-211765000D02*
X100385000Y-213235000D01*
%TO.C,D27*%
X103185000Y-95235000D02*
X103185000Y-93765000D01*
%TO.C,D45*%
X103185000Y-175235000D02*
X103185000Y-173765000D01*
%TO.C,RV7*%
X103727500Y-186262742D02*
X103727500Y-186737258D01*
X104772500Y-186262742D02*
X104772500Y-186737258D01*
%TO.C,RV12*%
X105677500Y-226862742D02*
X105677500Y-227337258D01*
X106722500Y-226862742D02*
X106722500Y-227337258D01*
%TO.C,RV9*%
X111727500Y-188562258D02*
X111727500Y-188087742D01*
X112772500Y-188562258D02*
X112772500Y-188087742D01*
%TO.C,C8*%
X91490000Y-216459420D02*
X91490000Y-216740580D01*
X92510000Y-216459420D02*
X92510000Y-216740580D01*
%TO.C,D34*%
X100385000Y-59765000D02*
X100385000Y-61235000D01*
%TO.C,D40*%
X100385000Y-151765000D02*
X100385000Y-153235000D01*
%TO.C,D48*%
X100385000Y-99765000D02*
X100385000Y-101235000D01*
%TO.C,D87*%
X103185000Y-211235000D02*
X103185000Y-209765000D01*
%TO.C,R26*%
X114377500Y-204137258D02*
X114377500Y-203662742D01*
X115422500Y-204137258D02*
X115422500Y-203662742D01*
%TO.C,D33*%
X103185000Y-171235000D02*
X103185000Y-169765000D01*
%TO.C,D41*%
X103185000Y-155235000D02*
X103185000Y-153765000D01*
%TO.C,R6*%
X113937742Y-221227500D02*
X114412258Y-221227500D01*
X113937742Y-222272500D02*
X114412258Y-222272500D01*
%TO.C,D20*%
X100385000Y-159765000D02*
X100385000Y-161235000D01*
%TO.C,D30*%
X100385000Y-147765000D02*
X100385000Y-149235000D01*
%TO.C,D11*%
X92700000Y-194765000D02*
X91215000Y-194765000D01*
%TO.C,D26*%
X100385000Y-91765000D02*
X100385000Y-93235000D01*
%TO.C,D60*%
X103185000Y-137235000D02*
X103185000Y-135765000D01*
%TO.C,R7*%
X103477500Y-211237258D02*
X103477500Y-210762742D01*
X104522500Y-211237258D02*
X104522500Y-210762742D01*
%TO.C,R18*%
X94762742Y-219077500D02*
X95237258Y-219077500D01*
X94762742Y-220122500D02*
X95237258Y-220122500D01*
%TO.C,U2*%
X107140000Y-217750000D02*
X107140000Y-216950000D01*
X107140000Y-217750000D02*
X107140000Y-218550000D01*
X110260000Y-217750000D02*
X110260000Y-216950000D01*
X110260000Y-217750000D02*
X110260000Y-218550000D01*
%TO.C,D49*%
X103185000Y-103235000D02*
X103185000Y-101765000D01*
%TO.C,C1*%
X89990000Y-216459420D02*
X89990000Y-216740580D01*
X91010000Y-216459420D02*
X91010000Y-216740580D01*
%TO.C,D19*%
X103185000Y-147235000D02*
X103185000Y-145765000D01*
%TO.C,D81*%
X103185000Y-115235000D02*
X103185000Y-113765000D01*
%TO.C,R24*%
X91987258Y-209477500D02*
X91512742Y-209477500D01*
X91987258Y-210522500D02*
X91512742Y-210522500D01*
%TO.C,R14*%
X98987258Y-222977500D02*
X98512742Y-222977500D01*
X98987258Y-224022500D02*
X98512742Y-224022500D01*
%TO.C,D55*%
X103185000Y-179235000D02*
X103185000Y-177765000D01*
%TO.C,R5*%
X113937742Y-222977500D02*
X114412258Y-222977500D01*
X113937742Y-224022500D02*
X114412258Y-224022500D01*
%TO.C,D39*%
X100385000Y-129765000D02*
X100385000Y-131235000D01*
%TO.C,SW3*%
X107950000Y-168450001D02*
X114250000Y-168450001D01*
X107950000Y-168700001D02*
X107950000Y-168450001D01*
X107950000Y-173200001D02*
X107950000Y-170600001D01*
X107950000Y-175350001D02*
X107950000Y-175100001D01*
X114250000Y-168450001D02*
X114250000Y-168700001D01*
X114250000Y-170600001D02*
X114250000Y-173200001D01*
X114250000Y-175100001D02*
X114250000Y-175350001D01*
X114250000Y-175350001D02*
X107950000Y-175350001D01*
%TO.C,D74*%
X100385000Y-203765000D02*
X100385000Y-205235000D01*
%TO.C,D29*%
X100385000Y-125765000D02*
X100385000Y-127235000D01*
%TO.C,D9*%
X100385000Y-155765000D02*
X100385000Y-157235000D01*
%TO.C,D80*%
X100385000Y-111765000D02*
X100385000Y-113235000D01*
%TO.C,RV5*%
X105877500Y-183937258D02*
X105877500Y-183462742D01*
X106922500Y-183937258D02*
X106922500Y-183462742D01*
%TO.C,D90*%
X100385000Y-79765000D02*
X100385000Y-81235000D01*
%TO.C,C3*%
X109790000Y-202390580D02*
X109790000Y-202109420D01*
X110810000Y-202390580D02*
X110810000Y-202109420D01*
%TO.C,C6*%
X105609420Y-201240000D02*
X105890580Y-201240000D01*
X105609420Y-202260000D02*
X105890580Y-202260000D01*
%TO.C,D32*%
X100385000Y-167765000D02*
X100385000Y-169235000D01*
%TO.C,D89*%
X103185000Y-191235000D02*
X103185000Y-189765000D01*
%TO.C,D53*%
X103185000Y-199235000D02*
X103185000Y-197765000D01*
%TO.C,D31*%
X103185000Y-151235000D02*
X103185000Y-149765000D01*
%TO.C,D68*%
X100385000Y-71765000D02*
X100385000Y-73235000D01*
%TO.C,R25*%
X115877500Y-203662742D02*
X115877500Y-204137258D01*
X116922500Y-203662742D02*
X116922500Y-204137258D01*
%TO.C,C5*%
X105359420Y-196740000D02*
X105640580Y-196740000D01*
X105359420Y-197760000D02*
X105640580Y-197760000D01*
%TO.C,D42*%
X100385000Y-191765000D02*
X100385000Y-193235000D01*
%TO.C,D75*%
X103185000Y-207235000D02*
X103185000Y-205765000D01*
%TO.C,R16*%
X94987258Y-209477500D02*
X94512742Y-209477500D01*
X94987258Y-210522500D02*
X94512742Y-210522500D01*
%TO.C,D13*%
X103185000Y-55235000D02*
X103185000Y-53765000D01*
%TO.C,C12*%
X105690000Y-216440580D02*
X105690000Y-216159420D01*
X106710000Y-216440580D02*
X106710000Y-216159420D01*
%TO.C,U4*%
X92100000Y-210990000D02*
X91300000Y-210990000D01*
X92100000Y-210990000D02*
X92900000Y-210990000D01*
X92100000Y-214110000D02*
X91300000Y-214110000D01*
X92100000Y-214110000D02*
X92900000Y-214110000D01*
%TO.C,D6*%
X103185000Y-119235000D02*
X103185000Y-117765000D01*
%TO.C,R12*%
X105677500Y-224337258D02*
X105677500Y-223862742D01*
X106722500Y-224337258D02*
X106722500Y-223862742D01*
%TO.C,D91*%
X103185000Y-83235000D02*
X103185000Y-81765000D01*
%TO.C,D46*%
X100385000Y-63765000D02*
X100385000Y-65235000D01*
%TO.C,D14*%
X100385000Y-87765000D02*
X100385000Y-89235000D01*
%TO.C,U3*%
X87140000Y-218762500D02*
X87140000Y-216762500D01*
X89360000Y-218762500D02*
X89360000Y-216762500D01*
D20*
X87450000Y-219362500D02*
G75*
G02*
X87250000Y-219362500I-100000J0D01*
G01*
X87250000Y-219362500D02*
G75*
G02*
X87450000Y-219362500I100000J0D01*
G01*
D19*
%TO.C,D82*%
X100385000Y-223765000D02*
X100385000Y-225235000D01*
%TO.C,D72*%
X100385000Y-215765000D02*
X100385000Y-217235000D01*
%TO.C,D36*%
X100385000Y-95765000D02*
X100385000Y-97235000D01*
%TO.C,D59*%
X103185000Y-107235000D02*
X103185000Y-105765000D01*
%TO.C,D52*%
X100385000Y-195765000D02*
X100385000Y-197235000D01*
%TO.C,D24*%
X100385000Y-55765000D02*
X100385000Y-57235000D01*
%TO.C,D56*%
X100385000Y-67765000D02*
X100385000Y-69235000D01*
%TO.C,R8*%
X98512742Y-194977500D02*
X98987258Y-194977500D01*
X98512742Y-196022500D02*
X98987258Y-196022500D01*
%TO.C,D61*%
X100385000Y-137765000D02*
X100385000Y-139235000D01*
%TO.C,D35*%
X103185000Y-63235000D02*
X103185000Y-61765000D01*
%TO.C,D17*%
X103185000Y-123235000D02*
X103185000Y-121765000D01*
%TO.C,C16*%
X107990000Y-202109420D02*
X107990000Y-202390580D01*
X109010000Y-202109420D02*
X109010000Y-202390580D01*
%TO.C,D4*%
X103185000Y-87235000D02*
X103185000Y-85765000D01*
%TO.C,R10*%
X98987258Y-214977500D02*
X98512742Y-214977500D01*
X98987258Y-216022500D02*
X98512742Y-216022500D01*
%TO.C,C17*%
X108490000Y-51140580D02*
X108490000Y-50859420D01*
X109510000Y-51140580D02*
X109510000Y-50859420D01*
%TO.C,D18*%
X100385000Y-143765000D02*
X100385000Y-145235000D01*
%TO.C,D76*%
X100385000Y-183765000D02*
X100385000Y-185235000D01*
%TO.C,RV10*%
X103477500Y-224372742D02*
X103477500Y-224847258D01*
X104522500Y-224372742D02*
X104522500Y-224847258D01*
%TO.C,D44*%
X100385000Y-171765000D02*
X100385000Y-173235000D01*
%TO.C,D69*%
X103185000Y-75235000D02*
X103185000Y-73765000D01*
%TO.C,D71*%
X103185000Y-111235000D02*
X103185000Y-109765000D01*
%TO.C,D5*%
X100385000Y-115765000D02*
X100385000Y-117235000D01*
%TO.C,RV6*%
X103727500Y-192762742D02*
X103727500Y-193237258D01*
X104772500Y-192762742D02*
X104772500Y-193237258D01*
%TO.C,D43*%
X103185000Y-195235000D02*
X103185000Y-193765000D01*
%TO.C,D21*%
X103185000Y-163235000D02*
X103185000Y-161765000D01*
%TO.C,D12*%
X100385000Y-51765000D02*
X100385000Y-53235000D01*
%TO.C,D67*%
X103185000Y-183235000D02*
X103185000Y-181765000D01*
%TO.C,D83*%
X103185000Y-227235000D02*
X103185000Y-225765000D01*
%TO.C,C13*%
X112840000Y-204040580D02*
X112840000Y-203759420D01*
X113860000Y-204040580D02*
X113860000Y-203759420D01*
%TO.C,D84*%
X100385000Y-219765000D02*
X100385000Y-221235000D01*
%TO.C,D47*%
X103185000Y-67235000D02*
X103185000Y-65765000D01*
%TO.C,D77*%
X103185000Y-187235000D02*
X103185000Y-185765000D01*
%TO.C,R17*%
X97012742Y-210977500D02*
X97487258Y-210977500D01*
X97012742Y-212022500D02*
X97487258Y-212022500D01*
%TO.C,D93*%
X107650000Y-220040000D02*
X107650000Y-222700000D01*
X109350000Y-220040000D02*
X107650000Y-220040000D01*
X109350000Y-220040000D02*
X109350000Y-222700000D01*
%TO.C,D10*%
X103185000Y-159235000D02*
X103185000Y-157765000D01*
%TO.C,R2*%
X104987258Y-112977500D02*
X104512742Y-112977500D01*
X104987258Y-114022500D02*
X104512742Y-114022500D01*
%TO.C,RV8*%
X103477500Y-213762742D02*
X103477500Y-214237258D01*
X104522500Y-213762742D02*
X104522500Y-214237258D01*
%TO.C,D65*%
X103185000Y-203235000D02*
X103185000Y-201765000D01*
%TO.C,D88*%
X100385000Y-187765000D02*
X100385000Y-189235000D01*
%TO.C,D58*%
X100385000Y-103765000D02*
X100385000Y-105235000D01*
%TO.C,D70*%
X100385000Y-107765000D02*
X100385000Y-109235000D01*
%TO.C,C21*%
X111640580Y-53490000D02*
X111359420Y-53490000D01*
X111640580Y-54510000D02*
X111359420Y-54510000D01*
%TO.C,D57*%
X103185000Y-71235000D02*
X103185000Y-69765000D01*
%TO.C,D66*%
X100385000Y-179765000D02*
X100385000Y-181235000D01*
%TO.C,D73*%
X103185000Y-219235000D02*
X103185000Y-217765000D01*
%TO.C,R4*%
X98987258Y-164977500D02*
X98512742Y-164977500D01*
X98987258Y-166022500D02*
X98512742Y-166022500D01*
%TO.C,D7*%
X100385000Y-139765000D02*
X100385000Y-141235000D01*
%TO.C,RV13*%
X98987258Y-220977500D02*
X98512742Y-220977500D01*
X98987258Y-222022500D02*
X98512742Y-222022500D01*
%TO.C,D78*%
X100385000Y-75765000D02*
X100385000Y-77235000D01*
%TO.C,R3*%
X103727500Y-190237258D02*
X103727500Y-189762742D01*
X104772500Y-190237258D02*
X104772500Y-189762742D01*
%TO.C,D79*%
X103185000Y-79235000D02*
X103185000Y-77765000D01*
%TO.C,Q1*%
X95237500Y-214940000D02*
X94587500Y-214940000D01*
X95237500Y-214940000D02*
X95887500Y-214940000D01*
X95237500Y-218060000D02*
X94587500Y-218060000D01*
X95237500Y-218060000D02*
X95887500Y-218060000D01*
%TO.C,D64*%
X100385000Y-199765000D02*
X100385000Y-201235000D01*
%TO.C,D92*%
X94185000Y-193235000D02*
X92715000Y-193235000D01*
%TO.C,U6*%
D17*
X109550000Y-110800000D02*
G75*
G02*
X109250000Y-110800000I-150000J0D01*
G01*
X109250000Y-110800000D02*
G75*
G02*
X109550000Y-110800000I150000J0D01*
G01*
D19*
%TO.C,U1*%
X108502500Y-194890000D02*
X108977500Y-194890000D01*
X108502500Y-195365000D02*
X108502500Y-194890000D01*
X113722500Y-194890000D02*
X113247500Y-194890000D01*
X113722500Y-195365000D02*
X113722500Y-194890000D01*
X113722500Y-199635000D02*
X113722500Y-200110000D01*
X113722500Y-200110000D02*
X113247500Y-200110000D01*
D17*
X108512500Y-200250000D02*
G75*
G02*
X108212500Y-200250000I-150000J0D01*
G01*
X108212500Y-200250000D02*
G75*
G02*
X108512500Y-200250000I150000J0D01*
G01*
D19*
%TO.C,RV3*%
X106977500Y-50762742D02*
X106977500Y-51237258D01*
X108022500Y-50762742D02*
X108022500Y-51237258D01*
%TO.C,D23*%
X103185000Y-167235000D02*
X103185000Y-165765000D01*
%TO.C,R19*%
X104177500Y-181037258D02*
X104177500Y-180562742D01*
X105222500Y-181037258D02*
X105222500Y-180562742D01*
%TO.C,C11*%
X105690000Y-219109420D02*
X105690000Y-219390580D01*
X106710000Y-219109420D02*
X106710000Y-219390580D01*
%TO.C,D28*%
X100385000Y-123765000D02*
X100385000Y-125235000D01*
%TO.C,R11*%
X88487258Y-214727500D02*
X88012742Y-214727500D01*
X88487258Y-215772500D02*
X88012742Y-215772500D01*
%TO.C,D63*%
X103185000Y-215235000D02*
X103185000Y-213765000D01*
%TO.C,D3*%
X100385000Y-83765000D02*
X100385000Y-85235000D01*
%TO.C,R1*%
X105237258Y-82977500D02*
X104762742Y-82977500D01*
X105237258Y-84022500D02*
X104762742Y-84022500D01*
%TD*%
M02*
