%TF.GenerationSoftware,KiCad,Pcbnew,8.0.7*%
%TF.CreationDate,2025-01-25T18:23:16+01:00*%
%TF.ProjectId,termometer2,7465726d-6f6d-4657-9465-72322e6b6963,rev?*%
%TF.SameCoordinates,Original*%
%TF.FileFunction,Drillmap*%
%TF.FilePolarity,Positive*%
%FSLAX45Y45*%
G04 Gerber Fmt 4.5, Leading zero omitted, Abs format (unit mm)*
G04 Created by KiCad (PCBNEW 8.0.7) date 2025-01-25 18:23:16*
%MOMM*%
%LPD*%
G01*
G04 APERTURE LIST*
%ADD10C,0.050000*%
%ADD11C,0.200000*%
%ADD12C,0.100000*%
%ADD13C,0.175000*%
G04 APERTURE END LIST*
D10*
X11930000Y-22925000D02*
G75*
G02*
X11705000Y-23150000I-225000J0D01*
G01*
X8430000Y-22925000D02*
X8430000Y-4275000D01*
X8430000Y-4275000D02*
G75*
G02*
X8655000Y-4050000I225000J0D01*
G01*
X8655000Y-23150000D02*
G75*
G02*
X8430000Y-22925000I0J225000D01*
G01*
X11705000Y-23150000D02*
X8655000Y-23150000D01*
X11705000Y-4050000D02*
G75*
G02*
X11930000Y-4275000I0J-225000D01*
G01*
X8655000Y-4050000D02*
X11705000Y-4050000D01*
X11930000Y-4275000D02*
X11930000Y-22925000D01*
D11*
D12*
X8985000Y-21335000D02*
X9015000Y-21365000D01*
X9015000Y-21335000D02*
X8985000Y-21365000D01*
X8985000Y-21425000D02*
X9015000Y-21455000D01*
X9015000Y-21425000D02*
X8985000Y-21455000D01*
X9135000Y-21985000D02*
X9165000Y-22015000D01*
X9165000Y-21985000D02*
X9135000Y-22015000D01*
X9185000Y-21235000D02*
X9215000Y-21265000D01*
X9215000Y-21235000D02*
X9185000Y-21265000D01*
X9265000Y-21415000D02*
X9295000Y-21445000D01*
X9295000Y-21415000D02*
X9265000Y-21445000D01*
X9275000Y-21235000D02*
X9305000Y-21265000D01*
X9305000Y-21235000D02*
X9275000Y-21265000D01*
X9285000Y-21735000D02*
X9315000Y-21765000D01*
X9315000Y-21735000D02*
X9285000Y-21765000D01*
X9355000Y-21415000D02*
X9385000Y-21445000D01*
X9385000Y-21415000D02*
X9355000Y-21445000D01*
X9365000Y-21235000D02*
X9395000Y-21265000D01*
X9395000Y-21235000D02*
X9365000Y-21265000D01*
X9625000Y-22135000D02*
X9655000Y-22165000D01*
X9655000Y-22135000D02*
X9625000Y-22165000D01*
X9785000Y-21935000D02*
X9815000Y-21965000D01*
X9815000Y-21935000D02*
X9785000Y-21965000D01*
X9850000Y-9710000D02*
X9880000Y-9740000D01*
X9880000Y-9710000D02*
X9850000Y-9740000D01*
X9855000Y-4955000D02*
X9885000Y-4985000D01*
X9885000Y-4955000D02*
X9855000Y-4985000D01*
X9885000Y-21735000D02*
X9915000Y-21765000D01*
X9915000Y-21735000D02*
X9885000Y-21765000D01*
X9920000Y-9635000D02*
X9950000Y-9665000D01*
X9950000Y-9635000D02*
X9920000Y-9665000D01*
X9926102Y-8303557D02*
X9956102Y-8333557D01*
X9956102Y-8303557D02*
X9926102Y-8333557D01*
X9960000Y-11335000D02*
X9990000Y-11365000D01*
X9990000Y-11335000D02*
X9960000Y-11365000D01*
X9960000Y-19639258D02*
X9990000Y-19669258D01*
X9990000Y-19639258D02*
X9960000Y-19669258D01*
X9970000Y-16655000D02*
X10000000Y-16685000D01*
X10000000Y-16655000D02*
X9970000Y-16685000D01*
X9977845Y-6677845D02*
X10007845Y-6707845D01*
X10007845Y-6677845D02*
X9977845Y-6707845D01*
X9985000Y-12935000D02*
X10015000Y-12965000D01*
X10015000Y-12935000D02*
X9985000Y-12965000D01*
X9985000Y-13535000D02*
X10015000Y-13565000D01*
X10015000Y-13535000D02*
X9985000Y-13565000D01*
X10005912Y-8116654D02*
X10035912Y-8146654D01*
X10035912Y-8116654D02*
X10005912Y-8146654D01*
X10010000Y-7342760D02*
X10040000Y-7372760D01*
X10040000Y-7342760D02*
X10010000Y-7372760D01*
X10010000Y-10937534D02*
X10040000Y-10967534D01*
X10040000Y-10937534D02*
X10010000Y-10967534D01*
X10010000Y-16935000D02*
X10040000Y-16965000D01*
X10040000Y-16935000D02*
X10010000Y-16965000D01*
X10027690Y-17350000D02*
X10057690Y-17380000D01*
X10057690Y-17350000D02*
X10027690Y-17380000D01*
X10035000Y-10535000D02*
X10065000Y-10565000D01*
X10065000Y-10535000D02*
X10035000Y-10565000D01*
X10040545Y-17535585D02*
X10070545Y-17565585D01*
X10070545Y-17535585D02*
X10040545Y-17565585D01*
X10115000Y-14535000D02*
X10145000Y-14565000D01*
X10145000Y-14535000D02*
X10115000Y-14565000D01*
X10115000Y-20135000D02*
X10145000Y-20165000D01*
X10145000Y-20135000D02*
X10115000Y-20165000D01*
X10123366Y-10328736D02*
X10153366Y-10358736D01*
X10153366Y-10328736D02*
X10123366Y-10358736D01*
X10125000Y-18135000D02*
X10155000Y-18165000D01*
X10155000Y-18135000D02*
X10125000Y-18165000D01*
X10128224Y-22334676D02*
X10158224Y-22364676D01*
X10158224Y-22334676D02*
X10128224Y-22364676D01*
X10134208Y-8736132D02*
X10164208Y-8766132D01*
X10164208Y-8736132D02*
X10134208Y-8766132D01*
X10135000Y-7935000D02*
X10165000Y-7965000D01*
X10165000Y-7935000D02*
X10135000Y-7965000D01*
X10135000Y-18735000D02*
X10165000Y-18765000D01*
X10165000Y-18735000D02*
X10135000Y-18765000D01*
X10135000Y-19535000D02*
X10165000Y-19565000D01*
X10165000Y-19535000D02*
X10135000Y-19565000D01*
X10135000Y-21535000D02*
X10165000Y-21565000D01*
X10165000Y-21535000D02*
X10135000Y-21565000D01*
X10138600Y-15935648D02*
X10168600Y-15965648D01*
X10168600Y-15935648D02*
X10138600Y-15965648D01*
X10139121Y-19936441D02*
X10169121Y-19966441D01*
X10169121Y-19936441D02*
X10139121Y-19966441D01*
X10140000Y-15335000D02*
X10170000Y-15365000D01*
X10170000Y-15335000D02*
X10140000Y-15365000D01*
X10141630Y-10930370D02*
X10171630Y-10960370D01*
X10171630Y-10930370D02*
X10141630Y-10960370D01*
X10143570Y-9335000D02*
X10173570Y-9365000D01*
X10173570Y-9335000D02*
X10143570Y-9365000D01*
X10145895Y-9140349D02*
X10175895Y-9170349D01*
X10175895Y-9140349D02*
X10145895Y-9170349D01*
X10175341Y-18332007D02*
X10205341Y-18362007D01*
X10205341Y-18332007D02*
X10175341Y-18362007D01*
X10185000Y-13535000D02*
X10215000Y-13565000D01*
X10215000Y-13535000D02*
X10185000Y-13565000D01*
X10190000Y-13330000D02*
X10220000Y-13360000D01*
X10220000Y-13330000D02*
X10190000Y-13360000D01*
X10200154Y-19135041D02*
X10230154Y-19165041D01*
X10230154Y-19135041D02*
X10200154Y-19165041D01*
X10200311Y-17535000D02*
X10230311Y-17565000D01*
X10230311Y-17535000D02*
X10200311Y-17565000D01*
X10212000Y-14535000D02*
X10242000Y-14565000D01*
X10242000Y-14535000D02*
X10212000Y-14565000D01*
X10259866Y-12950695D02*
X10289866Y-12980695D01*
X10289866Y-12950695D02*
X10259866Y-12980695D01*
X10285000Y-22535000D02*
X10315000Y-22565000D01*
X10315000Y-22535000D02*
X10285000Y-22565000D01*
X10302276Y-8931265D02*
X10332276Y-8961265D01*
X10332276Y-8931265D02*
X10302276Y-8961265D01*
X10310000Y-11735000D02*
X10340000Y-11765000D01*
X10340000Y-11735000D02*
X10310000Y-11765000D01*
X10340000Y-11481390D02*
X10370000Y-11511390D01*
X10370000Y-11481390D02*
X10340000Y-11511390D01*
X10385000Y-22295000D02*
X10415000Y-22325000D01*
X10415000Y-22295000D02*
X10385000Y-22325000D01*
X10402157Y-19485000D02*
X10432157Y-19515000D01*
X10432157Y-19485000D02*
X10402157Y-19515000D01*
X10410000Y-18435000D02*
X10440000Y-18465000D01*
X10440000Y-18435000D02*
X10410000Y-18465000D01*
X10410000Y-19135000D02*
X10440000Y-19165000D01*
X10440000Y-19135000D02*
X10410000Y-19165000D01*
X10410000Y-19297500D02*
X10440000Y-19327500D01*
X10440000Y-19297500D02*
X10410000Y-19327500D01*
X10420000Y-21585000D02*
X10450000Y-21615000D01*
X10450000Y-21585000D02*
X10420000Y-21615000D01*
X10460000Y-21231250D02*
X10490000Y-21261250D01*
X10490000Y-21231250D02*
X10460000Y-21261250D01*
X10475000Y-18348750D02*
X10505000Y-18378750D01*
X10505000Y-18348750D02*
X10475000Y-18378750D01*
X10475000Y-22775000D02*
X10505000Y-22805000D01*
X10505000Y-22775000D02*
X10475000Y-22805000D01*
X10488750Y-8256250D02*
X10518750Y-8286250D01*
X10518750Y-8256250D02*
X10488750Y-8286250D01*
X10512292Y-18632708D02*
X10542292Y-18662708D01*
X10542292Y-18632708D02*
X10512292Y-18662708D01*
X10605000Y-22675000D02*
X10635000Y-22705000D01*
X10635000Y-22675000D02*
X10605000Y-22705000D01*
X10634605Y-19381343D02*
X10664605Y-19411343D01*
X10664605Y-19381343D02*
X10634605Y-19411343D01*
X10635786Y-19290600D02*
X10665786Y-19320600D01*
X10665786Y-19290600D02*
X10635786Y-19320600D01*
X10646117Y-19514193D02*
X10676117Y-19544193D01*
X10676117Y-19514193D02*
X10646117Y-19544193D01*
X10685000Y-21295000D02*
X10715000Y-21325000D01*
X10715000Y-21295000D02*
X10685000Y-21325000D01*
X10695000Y-17181000D02*
X10725000Y-17211000D01*
X10725000Y-17181000D02*
X10695000Y-17211000D01*
X10725000Y-18350000D02*
X10755000Y-18380000D01*
X10755000Y-18350000D02*
X10725000Y-18380000D01*
X10734512Y-18480000D02*
X10764512Y-18510000D01*
X10764512Y-18480000D02*
X10734512Y-18510000D01*
X10753076Y-19275000D02*
X10783076Y-19305000D01*
X10783076Y-19275000D02*
X10753076Y-19305000D01*
X10753446Y-19520000D02*
X10783446Y-19550000D01*
X10783446Y-19520000D02*
X10753446Y-19550000D01*
X10755441Y-19650000D02*
X10785441Y-19680000D01*
X10785441Y-19650000D02*
X10755441Y-19680000D01*
X10810000Y-5285000D02*
X10840000Y-5315000D01*
X10840000Y-5285000D02*
X10810000Y-5315000D01*
X10835000Y-20035962D02*
X10865000Y-20065962D01*
X10865000Y-20035962D02*
X10835000Y-20065962D01*
X10855000Y-21751250D02*
X10885000Y-21781250D01*
X10885000Y-21751250D02*
X10855000Y-21781250D01*
X10865000Y-16955000D02*
X10895000Y-16985000D01*
X10895000Y-16955000D02*
X10865000Y-16985000D01*
X10925000Y-20410000D02*
X10955000Y-20440000D01*
X10955000Y-20410000D02*
X10925000Y-20440000D01*
X10965000Y-19735000D02*
X10995000Y-19765000D01*
X10995000Y-19735000D02*
X10965000Y-19765000D01*
X11003572Y-19297500D02*
X11033572Y-19327500D01*
X11033572Y-19297500D02*
X11003572Y-19327500D01*
X11025000Y-18545000D02*
X11055000Y-18575000D01*
X11055000Y-18545000D02*
X11025000Y-18575000D01*
X11051840Y-19378159D02*
X11081840Y-19408159D01*
X11081840Y-19378159D02*
X11051840Y-19408159D01*
X11085000Y-18960000D02*
X11115000Y-18990000D01*
X11115000Y-18960000D02*
X11085000Y-18990000D01*
X11090000Y-19860000D02*
X11120000Y-19890000D01*
X11120000Y-19860000D02*
X11090000Y-19890000D01*
X11095000Y-19605000D02*
X11125000Y-19635000D01*
X11125000Y-19605000D02*
X11095000Y-19635000D01*
X11105000Y-11715000D02*
X11135000Y-11745000D01*
X11135000Y-11715000D02*
X11105000Y-11745000D01*
X11105038Y-20194962D02*
X11135038Y-20224962D01*
X11135038Y-20194962D02*
X11105038Y-20224962D01*
X11207500Y-11336250D02*
X11237500Y-11366250D01*
X11237500Y-11336250D02*
X11207500Y-11366250D01*
X11215000Y-18435000D02*
X11245000Y-18465000D01*
X11245000Y-18435000D02*
X11215000Y-18465000D01*
X11215000Y-19735000D02*
X11245000Y-19765000D01*
X11245000Y-19735000D02*
X11215000Y-19765000D01*
X11220101Y-22358082D02*
X11250101Y-22388082D01*
X11250101Y-22358082D02*
X11220101Y-22388082D01*
X11223557Y-22135481D02*
X11253557Y-22165481D01*
X11253557Y-22135481D02*
X11223557Y-22165481D01*
X11240000Y-20625000D02*
X11270000Y-20655000D01*
X11270000Y-20625000D02*
X11240000Y-20655000D01*
X11264519Y-22055343D02*
X11294519Y-22085343D01*
X11294519Y-22055343D02*
X11264519Y-22085343D01*
X11265000Y-21075000D02*
X11295000Y-21105000D01*
X11295000Y-21075000D02*
X11265000Y-21105000D01*
X11335000Y-18735000D02*
X11365000Y-18765000D01*
X11365000Y-18735000D02*
X11335000Y-18765000D01*
X11338750Y-19986196D02*
X11368750Y-20016196D01*
X11368750Y-19986196D02*
X11338750Y-20016196D01*
X11365000Y-4991250D02*
X11395000Y-5021250D01*
X11395000Y-4991250D02*
X11365000Y-5021250D01*
X11374845Y-19154715D02*
X11404845Y-19184715D01*
X11404845Y-19154715D02*
X11374845Y-19184715D01*
X11410000Y-20795000D02*
X11440000Y-20825000D01*
X11440000Y-20795000D02*
X11410000Y-20825000D01*
X11429054Y-19949341D02*
X11459054Y-19979341D01*
X11459054Y-19949341D02*
X11429054Y-19979341D01*
X11440000Y-19225000D02*
X11470000Y-19255000D01*
X11470000Y-19225000D02*
X11440000Y-19255000D01*
X11440000Y-19525000D02*
X11470000Y-19555000D01*
X11470000Y-19525000D02*
X11440000Y-19555000D01*
X11490000Y-19740000D02*
X11520000Y-19770000D01*
X11520000Y-19740000D02*
X11490000Y-19770000D01*
X11510000Y-19910000D02*
X11540000Y-19940000D01*
X11540000Y-19910000D02*
X11510000Y-19940000D01*
X11515000Y-21065000D02*
X11545000Y-21095000D01*
X11545000Y-21065000D02*
X11515000Y-21095000D01*
X11539625Y-19529625D02*
X11569625Y-19559625D01*
X11569625Y-19529625D02*
X11539625Y-19559625D01*
X11545538Y-19435009D02*
X11575538Y-19465009D01*
X11575538Y-19435009D02*
X11545538Y-19465009D01*
X11556529Y-20062283D02*
X11586529Y-20092283D01*
X11586529Y-20062283D02*
X11556529Y-20092283D01*
X11584038Y-18415962D02*
X11614038Y-18445962D01*
X11614038Y-18415962D02*
X11584038Y-18445962D01*
X11585000Y-18735000D02*
X11615000Y-18765000D01*
X11615000Y-18735000D02*
X11585000Y-18765000D01*
X11675538Y-19315000D02*
X11705538Y-19345000D01*
X11705538Y-19315000D02*
X11675538Y-19345000D01*
X11197019Y-21840519D02*
G75*
G02*
X11137019Y-21840519I-30000J0D01*
G01*
X11137019Y-21840519D02*
G75*
G02*
X11197019Y-21840519I30000J0D01*
G01*
X11222019Y-21810519D02*
X11112019Y-21810519D01*
X11112019Y-21870519D02*
G75*
G02*
X11112019Y-21810519I0J30000D01*
G01*
X11112019Y-21870519D02*
X11222019Y-21870519D01*
X11222019Y-21870519D02*
G75*
G03*
X11222019Y-21810519I0J30000D01*
G01*
X11197019Y-22704519D02*
G75*
G02*
X11137019Y-22704519I-30000J0D01*
G01*
X11137019Y-22704519D02*
G75*
G02*
X11197019Y-22704519I30000J0D01*
G01*
X11222019Y-22674519D02*
X11112019Y-22674519D01*
X11112019Y-22734519D02*
G75*
G02*
X11112019Y-22674519I0J30000D01*
G01*
X11112019Y-22734519D02*
X11222019Y-22734519D01*
X11222019Y-22734519D02*
G75*
G03*
X11222019Y-22674519I0J30000D01*
G01*
X11617019Y-21840519D02*
G75*
G02*
X11557019Y-21840519I-30000J0D01*
G01*
X11557019Y-21840519D02*
G75*
G02*
X11617019Y-21840519I30000J0D01*
G01*
X11627019Y-21810519D02*
X11547019Y-21810519D01*
X11547019Y-21870519D02*
G75*
G02*
X11547019Y-21810519I0J30000D01*
G01*
X11547019Y-21870519D02*
X11627019Y-21870519D01*
X11627019Y-21870519D02*
G75*
G03*
X11627019Y-21810519I0J30000D01*
G01*
X11617019Y-22704519D02*
G75*
G02*
X11557019Y-22704519I-30000J0D01*
G01*
X11557019Y-22704519D02*
G75*
G02*
X11617019Y-22704519I30000J0D01*
G01*
X11627019Y-22674519D02*
X11547019Y-22674519D01*
X11547019Y-22734519D02*
G75*
G02*
X11547019Y-22674519I0J30000D01*
G01*
X11547019Y-22734519D02*
X11627019Y-22734519D01*
X11627019Y-22734519D02*
G75*
G03*
X11627019Y-22674519I0J30000D01*
G01*
X10922500Y-20742500D02*
X10922500Y-20837500D01*
X10875000Y-20790000D02*
X10970000Y-20790000D01*
X10922500Y-20992500D02*
X10922500Y-21087500D01*
X10875000Y-21040000D02*
X10970000Y-21040000D01*
X10922500Y-21242500D02*
X10922500Y-21337500D01*
X10875000Y-21290000D02*
X10970000Y-21290000D01*
D13*
X9541872Y-15536872D02*
X9541872Y-15413128D01*
X9418128Y-15413128D01*
X9418128Y-15536872D01*
X9541872Y-15536872D01*
X9541872Y-22736872D02*
X9541872Y-22613128D01*
X9418128Y-22613128D01*
X9418128Y-22736872D01*
X9541872Y-22736872D01*
D11*
X8688277Y-23463984D02*
X8688277Y-23263984D01*
X8688277Y-23263984D02*
X8735896Y-23263984D01*
X8735896Y-23263984D02*
X8764467Y-23273508D01*
X8764467Y-23273508D02*
X8783515Y-23292555D01*
X8783515Y-23292555D02*
X8793039Y-23311603D01*
X8793039Y-23311603D02*
X8802563Y-23349698D01*
X8802563Y-23349698D02*
X8802563Y-23378269D01*
X8802563Y-23378269D02*
X8793039Y-23416365D01*
X8793039Y-23416365D02*
X8783515Y-23435412D01*
X8783515Y-23435412D02*
X8764467Y-23454460D01*
X8764467Y-23454460D02*
X8735896Y-23463984D01*
X8735896Y-23463984D02*
X8688277Y-23463984D01*
X8888277Y-23463984D02*
X8888277Y-23330650D01*
X8888277Y-23368746D02*
X8897801Y-23349698D01*
X8897801Y-23349698D02*
X8907324Y-23340174D01*
X8907324Y-23340174D02*
X8926372Y-23330650D01*
X8926372Y-23330650D02*
X8945420Y-23330650D01*
X9012086Y-23463984D02*
X9012086Y-23330650D01*
X9012086Y-23263984D02*
X9002563Y-23273508D01*
X9002563Y-23273508D02*
X9012086Y-23283031D01*
X9012086Y-23283031D02*
X9021610Y-23273508D01*
X9021610Y-23273508D02*
X9012086Y-23263984D01*
X9012086Y-23263984D02*
X9012086Y-23283031D01*
X9135896Y-23463984D02*
X9116848Y-23454460D01*
X9116848Y-23454460D02*
X9107324Y-23435412D01*
X9107324Y-23435412D02*
X9107324Y-23263984D01*
X9240658Y-23463984D02*
X9221610Y-23454460D01*
X9221610Y-23454460D02*
X9212086Y-23435412D01*
X9212086Y-23435412D02*
X9212086Y-23263984D01*
X9469229Y-23463984D02*
X9469229Y-23263984D01*
X9469229Y-23263984D02*
X9535896Y-23406841D01*
X9535896Y-23406841D02*
X9602563Y-23263984D01*
X9602563Y-23263984D02*
X9602563Y-23463984D01*
X9783515Y-23463984D02*
X9783515Y-23359222D01*
X9783515Y-23359222D02*
X9773991Y-23340174D01*
X9773991Y-23340174D02*
X9754944Y-23330650D01*
X9754944Y-23330650D02*
X9716848Y-23330650D01*
X9716848Y-23330650D02*
X9697801Y-23340174D01*
X9783515Y-23454460D02*
X9764467Y-23463984D01*
X9764467Y-23463984D02*
X9716848Y-23463984D01*
X9716848Y-23463984D02*
X9697801Y-23454460D01*
X9697801Y-23454460D02*
X9688277Y-23435412D01*
X9688277Y-23435412D02*
X9688277Y-23416365D01*
X9688277Y-23416365D02*
X9697801Y-23397317D01*
X9697801Y-23397317D02*
X9716848Y-23387793D01*
X9716848Y-23387793D02*
X9764467Y-23387793D01*
X9764467Y-23387793D02*
X9783515Y-23378269D01*
X9878753Y-23330650D02*
X9878753Y-23530650D01*
X9878753Y-23340174D02*
X9897801Y-23330650D01*
X9897801Y-23330650D02*
X9935896Y-23330650D01*
X9935896Y-23330650D02*
X9954944Y-23340174D01*
X9954944Y-23340174D02*
X9964467Y-23349698D01*
X9964467Y-23349698D02*
X9973991Y-23368746D01*
X9973991Y-23368746D02*
X9973991Y-23425888D01*
X9973991Y-23425888D02*
X9964467Y-23444936D01*
X9964467Y-23444936D02*
X9954944Y-23454460D01*
X9954944Y-23454460D02*
X9935896Y-23463984D01*
X9935896Y-23463984D02*
X9897801Y-23463984D01*
X9897801Y-23463984D02*
X9878753Y-23454460D01*
X10059705Y-23444936D02*
X10069229Y-23454460D01*
X10069229Y-23454460D02*
X10059705Y-23463984D01*
X10059705Y-23463984D02*
X10050182Y-23454460D01*
X10050182Y-23454460D02*
X10059705Y-23444936D01*
X10059705Y-23444936D02*
X10059705Y-23463984D01*
X10059705Y-23340174D02*
X10069229Y-23349698D01*
X10069229Y-23349698D02*
X10059705Y-23359222D01*
X10059705Y-23359222D02*
X10050182Y-23349698D01*
X10050182Y-23349698D02*
X10059705Y-23340174D01*
X10059705Y-23340174D02*
X10059705Y-23359222D01*
D12*
X8397500Y-23777500D02*
X8427500Y-23807500D01*
X8427500Y-23777500D02*
X8397500Y-23807500D01*
D11*
X8726372Y-23683984D02*
X8745420Y-23683984D01*
X8745420Y-23683984D02*
X8764467Y-23693508D01*
X8764467Y-23693508D02*
X8773991Y-23703031D01*
X8773991Y-23703031D02*
X8783515Y-23722079D01*
X8783515Y-23722079D02*
X8793039Y-23760174D01*
X8793039Y-23760174D02*
X8793039Y-23807793D01*
X8793039Y-23807793D02*
X8783515Y-23845888D01*
X8783515Y-23845888D02*
X8773991Y-23864936D01*
X8773991Y-23864936D02*
X8764467Y-23874460D01*
X8764467Y-23874460D02*
X8745420Y-23883984D01*
X8745420Y-23883984D02*
X8726372Y-23883984D01*
X8726372Y-23883984D02*
X8707324Y-23874460D01*
X8707324Y-23874460D02*
X8697801Y-23864936D01*
X8697801Y-23864936D02*
X8688277Y-23845888D01*
X8688277Y-23845888D02*
X8678753Y-23807793D01*
X8678753Y-23807793D02*
X8678753Y-23760174D01*
X8678753Y-23760174D02*
X8688277Y-23722079D01*
X8688277Y-23722079D02*
X8697801Y-23703031D01*
X8697801Y-23703031D02*
X8707324Y-23693508D01*
X8707324Y-23693508D02*
X8726372Y-23683984D01*
X8878753Y-23864936D02*
X8888277Y-23874460D01*
X8888277Y-23874460D02*
X8878753Y-23883984D01*
X8878753Y-23883984D02*
X8869229Y-23874460D01*
X8869229Y-23874460D02*
X8878753Y-23864936D01*
X8878753Y-23864936D02*
X8878753Y-23883984D01*
X8954944Y-23683984D02*
X9078753Y-23683984D01*
X9078753Y-23683984D02*
X9012086Y-23760174D01*
X9012086Y-23760174D02*
X9040658Y-23760174D01*
X9040658Y-23760174D02*
X9059705Y-23769698D01*
X9059705Y-23769698D02*
X9069229Y-23779222D01*
X9069229Y-23779222D02*
X9078753Y-23798269D01*
X9078753Y-23798269D02*
X9078753Y-23845888D01*
X9078753Y-23845888D02*
X9069229Y-23864936D01*
X9069229Y-23864936D02*
X9059705Y-23874460D01*
X9059705Y-23874460D02*
X9040658Y-23883984D01*
X9040658Y-23883984D02*
X8983515Y-23883984D01*
X8983515Y-23883984D02*
X8964467Y-23874460D01*
X8964467Y-23874460D02*
X8954944Y-23864936D01*
X9202563Y-23683984D02*
X9221610Y-23683984D01*
X9221610Y-23683984D02*
X9240658Y-23693508D01*
X9240658Y-23693508D02*
X9250182Y-23703031D01*
X9250182Y-23703031D02*
X9259705Y-23722079D01*
X9259705Y-23722079D02*
X9269229Y-23760174D01*
X9269229Y-23760174D02*
X9269229Y-23807793D01*
X9269229Y-23807793D02*
X9259705Y-23845888D01*
X9259705Y-23845888D02*
X9250182Y-23864936D01*
X9250182Y-23864936D02*
X9240658Y-23874460D01*
X9240658Y-23874460D02*
X9221610Y-23883984D01*
X9221610Y-23883984D02*
X9202563Y-23883984D01*
X9202563Y-23883984D02*
X9183515Y-23874460D01*
X9183515Y-23874460D02*
X9173991Y-23864936D01*
X9173991Y-23864936D02*
X9164467Y-23845888D01*
X9164467Y-23845888D02*
X9154944Y-23807793D01*
X9154944Y-23807793D02*
X9154944Y-23760174D01*
X9154944Y-23760174D02*
X9164467Y-23722079D01*
X9164467Y-23722079D02*
X9173991Y-23703031D01*
X9173991Y-23703031D02*
X9183515Y-23693508D01*
X9183515Y-23693508D02*
X9202563Y-23683984D01*
X9393039Y-23683984D02*
X9412086Y-23683984D01*
X9412086Y-23683984D02*
X9431134Y-23693508D01*
X9431134Y-23693508D02*
X9440658Y-23703031D01*
X9440658Y-23703031D02*
X9450182Y-23722079D01*
X9450182Y-23722079D02*
X9459705Y-23760174D01*
X9459705Y-23760174D02*
X9459705Y-23807793D01*
X9459705Y-23807793D02*
X9450182Y-23845888D01*
X9450182Y-23845888D02*
X9440658Y-23864936D01*
X9440658Y-23864936D02*
X9431134Y-23874460D01*
X9431134Y-23874460D02*
X9412086Y-23883984D01*
X9412086Y-23883984D02*
X9393039Y-23883984D01*
X9393039Y-23883984D02*
X9373991Y-23874460D01*
X9373991Y-23874460D02*
X9364467Y-23864936D01*
X9364467Y-23864936D02*
X9354944Y-23845888D01*
X9354944Y-23845888D02*
X9345420Y-23807793D01*
X9345420Y-23807793D02*
X9345420Y-23760174D01*
X9345420Y-23760174D02*
X9354944Y-23722079D01*
X9354944Y-23722079D02*
X9364467Y-23703031D01*
X9364467Y-23703031D02*
X9373991Y-23693508D01*
X9373991Y-23693508D02*
X9393039Y-23683984D01*
X9545420Y-23883984D02*
X9545420Y-23750650D01*
X9545420Y-23769698D02*
X9554944Y-23760174D01*
X9554944Y-23760174D02*
X9573991Y-23750650D01*
X9573991Y-23750650D02*
X9602563Y-23750650D01*
X9602563Y-23750650D02*
X9621610Y-23760174D01*
X9621610Y-23760174D02*
X9631134Y-23779222D01*
X9631134Y-23779222D02*
X9631134Y-23883984D01*
X9631134Y-23779222D02*
X9640658Y-23760174D01*
X9640658Y-23760174D02*
X9659705Y-23750650D01*
X9659705Y-23750650D02*
X9688277Y-23750650D01*
X9688277Y-23750650D02*
X9707325Y-23760174D01*
X9707325Y-23760174D02*
X9716848Y-23779222D01*
X9716848Y-23779222D02*
X9716848Y-23883984D01*
X9812086Y-23883984D02*
X9812086Y-23750650D01*
X9812086Y-23769698D02*
X9821610Y-23760174D01*
X9821610Y-23760174D02*
X9840658Y-23750650D01*
X9840658Y-23750650D02*
X9869229Y-23750650D01*
X9869229Y-23750650D02*
X9888277Y-23760174D01*
X9888277Y-23760174D02*
X9897801Y-23779222D01*
X9897801Y-23779222D02*
X9897801Y-23883984D01*
X9897801Y-23779222D02*
X9907325Y-23760174D01*
X9907325Y-23760174D02*
X9926372Y-23750650D01*
X9926372Y-23750650D02*
X9954944Y-23750650D01*
X9954944Y-23750650D02*
X9973991Y-23760174D01*
X9973991Y-23760174D02*
X9983515Y-23779222D01*
X9983515Y-23779222D02*
X9983515Y-23883984D01*
X10373991Y-23674460D02*
X10202563Y-23931603D01*
X10631134Y-23683984D02*
X10650182Y-23683984D01*
X10650182Y-23683984D02*
X10669229Y-23693508D01*
X10669229Y-23693508D02*
X10678753Y-23703031D01*
X10678753Y-23703031D02*
X10688277Y-23722079D01*
X10688277Y-23722079D02*
X10697801Y-23760174D01*
X10697801Y-23760174D02*
X10697801Y-23807793D01*
X10697801Y-23807793D02*
X10688277Y-23845888D01*
X10688277Y-23845888D02*
X10678753Y-23864936D01*
X10678753Y-23864936D02*
X10669229Y-23874460D01*
X10669229Y-23874460D02*
X10650182Y-23883984D01*
X10650182Y-23883984D02*
X10631134Y-23883984D01*
X10631134Y-23883984D02*
X10612087Y-23874460D01*
X10612087Y-23874460D02*
X10602563Y-23864936D01*
X10602563Y-23864936D02*
X10593039Y-23845888D01*
X10593039Y-23845888D02*
X10583515Y-23807793D01*
X10583515Y-23807793D02*
X10583515Y-23760174D01*
X10583515Y-23760174D02*
X10593039Y-23722079D01*
X10593039Y-23722079D02*
X10602563Y-23703031D01*
X10602563Y-23703031D02*
X10612087Y-23693508D01*
X10612087Y-23693508D02*
X10631134Y-23683984D01*
X10783515Y-23864936D02*
X10793039Y-23874460D01*
X10793039Y-23874460D02*
X10783515Y-23883984D01*
X10783515Y-23883984D02*
X10773991Y-23874460D01*
X10773991Y-23874460D02*
X10783515Y-23864936D01*
X10783515Y-23864936D02*
X10783515Y-23883984D01*
X10916848Y-23683984D02*
X10935896Y-23683984D01*
X10935896Y-23683984D02*
X10954944Y-23693508D01*
X10954944Y-23693508D02*
X10964468Y-23703031D01*
X10964468Y-23703031D02*
X10973991Y-23722079D01*
X10973991Y-23722079D02*
X10983515Y-23760174D01*
X10983515Y-23760174D02*
X10983515Y-23807793D01*
X10983515Y-23807793D02*
X10973991Y-23845888D01*
X10973991Y-23845888D02*
X10964468Y-23864936D01*
X10964468Y-23864936D02*
X10954944Y-23874460D01*
X10954944Y-23874460D02*
X10935896Y-23883984D01*
X10935896Y-23883984D02*
X10916848Y-23883984D01*
X10916848Y-23883984D02*
X10897801Y-23874460D01*
X10897801Y-23874460D02*
X10888277Y-23864936D01*
X10888277Y-23864936D02*
X10878753Y-23845888D01*
X10878753Y-23845888D02*
X10869229Y-23807793D01*
X10869229Y-23807793D02*
X10869229Y-23760174D01*
X10869229Y-23760174D02*
X10878753Y-23722079D01*
X10878753Y-23722079D02*
X10888277Y-23703031D01*
X10888277Y-23703031D02*
X10897801Y-23693508D01*
X10897801Y-23693508D02*
X10916848Y-23683984D01*
X11173991Y-23883984D02*
X11059706Y-23883984D01*
X11116848Y-23883984D02*
X11116848Y-23683984D01*
X11116848Y-23683984D02*
X11097801Y-23712555D01*
X11097801Y-23712555D02*
X11078753Y-23731603D01*
X11078753Y-23731603D02*
X11059706Y-23741127D01*
X11364467Y-23883984D02*
X11250182Y-23883984D01*
X11307325Y-23883984D02*
X11307325Y-23683984D01*
X11307325Y-23683984D02*
X11288277Y-23712555D01*
X11288277Y-23712555D02*
X11269229Y-23731603D01*
X11269229Y-23731603D02*
X11250182Y-23741127D01*
X11478753Y-23769698D02*
X11459706Y-23760174D01*
X11459706Y-23760174D02*
X11450182Y-23750650D01*
X11450182Y-23750650D02*
X11440658Y-23731603D01*
X11440658Y-23731603D02*
X11440658Y-23722079D01*
X11440658Y-23722079D02*
X11450182Y-23703031D01*
X11450182Y-23703031D02*
X11459706Y-23693508D01*
X11459706Y-23693508D02*
X11478753Y-23683984D01*
X11478753Y-23683984D02*
X11516848Y-23683984D01*
X11516848Y-23683984D02*
X11535896Y-23693508D01*
X11535896Y-23693508D02*
X11545420Y-23703031D01*
X11545420Y-23703031D02*
X11554944Y-23722079D01*
X11554944Y-23722079D02*
X11554944Y-23731603D01*
X11554944Y-23731603D02*
X11545420Y-23750650D01*
X11545420Y-23750650D02*
X11535896Y-23760174D01*
X11535896Y-23760174D02*
X11516848Y-23769698D01*
X11516848Y-23769698D02*
X11478753Y-23769698D01*
X11478753Y-23769698D02*
X11459706Y-23779222D01*
X11459706Y-23779222D02*
X11450182Y-23788746D01*
X11450182Y-23788746D02*
X11440658Y-23807793D01*
X11440658Y-23807793D02*
X11440658Y-23845888D01*
X11440658Y-23845888D02*
X11450182Y-23864936D01*
X11450182Y-23864936D02*
X11459706Y-23874460D01*
X11459706Y-23874460D02*
X11478753Y-23883984D01*
X11478753Y-23883984D02*
X11516848Y-23883984D01*
X11516848Y-23883984D02*
X11535896Y-23874460D01*
X11535896Y-23874460D02*
X11545420Y-23864936D01*
X11545420Y-23864936D02*
X11554944Y-23845888D01*
X11554944Y-23845888D02*
X11554944Y-23807793D01*
X11554944Y-23807793D02*
X11545420Y-23788746D01*
X11545420Y-23788746D02*
X11535896Y-23779222D01*
X11535896Y-23779222D02*
X11516848Y-23769698D01*
X11631134Y-23683984D02*
X11631134Y-23722079D01*
X11707325Y-23683984D02*
X11707325Y-23722079D01*
X12002563Y-23960174D02*
X11993039Y-23950650D01*
X11993039Y-23950650D02*
X11973991Y-23922079D01*
X11973991Y-23922079D02*
X11964468Y-23903031D01*
X11964468Y-23903031D02*
X11954944Y-23874460D01*
X11954944Y-23874460D02*
X11945420Y-23826841D01*
X11945420Y-23826841D02*
X11945420Y-23788746D01*
X11945420Y-23788746D02*
X11954944Y-23741127D01*
X11954944Y-23741127D02*
X11964468Y-23712555D01*
X11964468Y-23712555D02*
X11973991Y-23693508D01*
X11973991Y-23693508D02*
X11993039Y-23664936D01*
X11993039Y-23664936D02*
X12002563Y-23655412D01*
X12183515Y-23883984D02*
X12069229Y-23883984D01*
X12126372Y-23883984D02*
X12126372Y-23683984D01*
X12126372Y-23683984D02*
X12107325Y-23712555D01*
X12107325Y-23712555D02*
X12088277Y-23731603D01*
X12088277Y-23731603D02*
X12069229Y-23741127D01*
X12373991Y-23883984D02*
X12259706Y-23883984D01*
X12316848Y-23883984D02*
X12316848Y-23683984D01*
X12316848Y-23683984D02*
X12297801Y-23712555D01*
X12297801Y-23712555D02*
X12278753Y-23731603D01*
X12278753Y-23731603D02*
X12259706Y-23741127D01*
X12440658Y-23683984D02*
X12573991Y-23683984D01*
X12573991Y-23683984D02*
X12488277Y-23883984D01*
X12802563Y-23883984D02*
X12802563Y-23683984D01*
X12888277Y-23883984D02*
X12888277Y-23779222D01*
X12888277Y-23779222D02*
X12878753Y-23760174D01*
X12878753Y-23760174D02*
X12859706Y-23750650D01*
X12859706Y-23750650D02*
X12831134Y-23750650D01*
X12831134Y-23750650D02*
X12812087Y-23760174D01*
X12812087Y-23760174D02*
X12802563Y-23769698D01*
X13012087Y-23883984D02*
X12993039Y-23874460D01*
X12993039Y-23874460D02*
X12983515Y-23864936D01*
X12983515Y-23864936D02*
X12973991Y-23845888D01*
X12973991Y-23845888D02*
X12973991Y-23788746D01*
X12973991Y-23788746D02*
X12983515Y-23769698D01*
X12983515Y-23769698D02*
X12993039Y-23760174D01*
X12993039Y-23760174D02*
X13012087Y-23750650D01*
X13012087Y-23750650D02*
X13040658Y-23750650D01*
X13040658Y-23750650D02*
X13059706Y-23760174D01*
X13059706Y-23760174D02*
X13069230Y-23769698D01*
X13069230Y-23769698D02*
X13078753Y-23788746D01*
X13078753Y-23788746D02*
X13078753Y-23845888D01*
X13078753Y-23845888D02*
X13069230Y-23864936D01*
X13069230Y-23864936D02*
X13059706Y-23874460D01*
X13059706Y-23874460D02*
X13040658Y-23883984D01*
X13040658Y-23883984D02*
X13012087Y-23883984D01*
X13193039Y-23883984D02*
X13173991Y-23874460D01*
X13173991Y-23874460D02*
X13164468Y-23855412D01*
X13164468Y-23855412D02*
X13164468Y-23683984D01*
X13345420Y-23874460D02*
X13326372Y-23883984D01*
X13326372Y-23883984D02*
X13288277Y-23883984D01*
X13288277Y-23883984D02*
X13269230Y-23874460D01*
X13269230Y-23874460D02*
X13259706Y-23855412D01*
X13259706Y-23855412D02*
X13259706Y-23779222D01*
X13259706Y-23779222D02*
X13269230Y-23760174D01*
X13269230Y-23760174D02*
X13288277Y-23750650D01*
X13288277Y-23750650D02*
X13326372Y-23750650D01*
X13326372Y-23750650D02*
X13345420Y-23760174D01*
X13345420Y-23760174D02*
X13354944Y-23779222D01*
X13354944Y-23779222D02*
X13354944Y-23798269D01*
X13354944Y-23798269D02*
X13259706Y-23817317D01*
X13431134Y-23874460D02*
X13450182Y-23883984D01*
X13450182Y-23883984D02*
X13488277Y-23883984D01*
X13488277Y-23883984D02*
X13507325Y-23874460D01*
X13507325Y-23874460D02*
X13516849Y-23855412D01*
X13516849Y-23855412D02*
X13516849Y-23845888D01*
X13516849Y-23845888D02*
X13507325Y-23826841D01*
X13507325Y-23826841D02*
X13488277Y-23817317D01*
X13488277Y-23817317D02*
X13459706Y-23817317D01*
X13459706Y-23817317D02*
X13440658Y-23807793D01*
X13440658Y-23807793D02*
X13431134Y-23788746D01*
X13431134Y-23788746D02*
X13431134Y-23779222D01*
X13431134Y-23779222D02*
X13440658Y-23760174D01*
X13440658Y-23760174D02*
X13459706Y-23750650D01*
X13459706Y-23750650D02*
X13488277Y-23750650D01*
X13488277Y-23750650D02*
X13507325Y-23760174D01*
X13583515Y-23960174D02*
X13593039Y-23950650D01*
X13593039Y-23950650D02*
X13612087Y-23922079D01*
X13612087Y-23922079D02*
X13621611Y-23903031D01*
X13621611Y-23903031D02*
X13631134Y-23874460D01*
X13631134Y-23874460D02*
X13640658Y-23826841D01*
X13640658Y-23826841D02*
X13640658Y-23788746D01*
X13640658Y-23788746D02*
X13631134Y-23741127D01*
X13631134Y-23741127D02*
X13621611Y-23712555D01*
X13621611Y-23712555D02*
X13612087Y-23693508D01*
X13612087Y-23693508D02*
X13593039Y-23664936D01*
X13593039Y-23664936D02*
X13583515Y-23655412D01*
D12*
X8427500Y-24056500D02*
G75*
G02*
X8367500Y-24056500I-30000J0D01*
G01*
X8367500Y-24056500D02*
G75*
G02*
X8427500Y-24056500I30000J0D01*
G01*
D11*
X8726372Y-23947984D02*
X8745420Y-23947984D01*
X8745420Y-23947984D02*
X8764467Y-23957508D01*
X8764467Y-23957508D02*
X8773991Y-23967031D01*
X8773991Y-23967031D02*
X8783515Y-23986079D01*
X8783515Y-23986079D02*
X8793039Y-24024174D01*
X8793039Y-24024174D02*
X8793039Y-24071793D01*
X8793039Y-24071793D02*
X8783515Y-24109888D01*
X8783515Y-24109888D02*
X8773991Y-24128936D01*
X8773991Y-24128936D02*
X8764467Y-24138460D01*
X8764467Y-24138460D02*
X8745420Y-24147984D01*
X8745420Y-24147984D02*
X8726372Y-24147984D01*
X8726372Y-24147984D02*
X8707324Y-24138460D01*
X8707324Y-24138460D02*
X8697801Y-24128936D01*
X8697801Y-24128936D02*
X8688277Y-24109888D01*
X8688277Y-24109888D02*
X8678753Y-24071793D01*
X8678753Y-24071793D02*
X8678753Y-24024174D01*
X8678753Y-24024174D02*
X8688277Y-23986079D01*
X8688277Y-23986079D02*
X8697801Y-23967031D01*
X8697801Y-23967031D02*
X8707324Y-23957508D01*
X8707324Y-23957508D02*
X8726372Y-23947984D01*
X8878753Y-24128936D02*
X8888277Y-24138460D01*
X8888277Y-24138460D02*
X8878753Y-24147984D01*
X8878753Y-24147984D02*
X8869229Y-24138460D01*
X8869229Y-24138460D02*
X8878753Y-24128936D01*
X8878753Y-24128936D02*
X8878753Y-24147984D01*
X9059705Y-23947984D02*
X9021610Y-23947984D01*
X9021610Y-23947984D02*
X9002563Y-23957508D01*
X9002563Y-23957508D02*
X8993039Y-23967031D01*
X8993039Y-23967031D02*
X8973991Y-23995603D01*
X8973991Y-23995603D02*
X8964467Y-24033698D01*
X8964467Y-24033698D02*
X8964467Y-24109888D01*
X8964467Y-24109888D02*
X8973991Y-24128936D01*
X8973991Y-24128936D02*
X8983515Y-24138460D01*
X8983515Y-24138460D02*
X9002563Y-24147984D01*
X9002563Y-24147984D02*
X9040658Y-24147984D01*
X9040658Y-24147984D02*
X9059705Y-24138460D01*
X9059705Y-24138460D02*
X9069229Y-24128936D01*
X9069229Y-24128936D02*
X9078753Y-24109888D01*
X9078753Y-24109888D02*
X9078753Y-24062269D01*
X9078753Y-24062269D02*
X9069229Y-24043222D01*
X9069229Y-24043222D02*
X9059705Y-24033698D01*
X9059705Y-24033698D02*
X9040658Y-24024174D01*
X9040658Y-24024174D02*
X9002563Y-24024174D01*
X9002563Y-24024174D02*
X8983515Y-24033698D01*
X8983515Y-24033698D02*
X8973991Y-24043222D01*
X8973991Y-24043222D02*
X8964467Y-24062269D01*
X9202563Y-23947984D02*
X9221610Y-23947984D01*
X9221610Y-23947984D02*
X9240658Y-23957508D01*
X9240658Y-23957508D02*
X9250182Y-23967031D01*
X9250182Y-23967031D02*
X9259705Y-23986079D01*
X9259705Y-23986079D02*
X9269229Y-24024174D01*
X9269229Y-24024174D02*
X9269229Y-24071793D01*
X9269229Y-24071793D02*
X9259705Y-24109888D01*
X9259705Y-24109888D02*
X9250182Y-24128936D01*
X9250182Y-24128936D02*
X9240658Y-24138460D01*
X9240658Y-24138460D02*
X9221610Y-24147984D01*
X9221610Y-24147984D02*
X9202563Y-24147984D01*
X9202563Y-24147984D02*
X9183515Y-24138460D01*
X9183515Y-24138460D02*
X9173991Y-24128936D01*
X9173991Y-24128936D02*
X9164467Y-24109888D01*
X9164467Y-24109888D02*
X9154944Y-24071793D01*
X9154944Y-24071793D02*
X9154944Y-24024174D01*
X9154944Y-24024174D02*
X9164467Y-23986079D01*
X9164467Y-23986079D02*
X9173991Y-23967031D01*
X9173991Y-23967031D02*
X9183515Y-23957508D01*
X9183515Y-23957508D02*
X9202563Y-23947984D01*
X9393039Y-23947984D02*
X9412086Y-23947984D01*
X9412086Y-23947984D02*
X9431134Y-23957508D01*
X9431134Y-23957508D02*
X9440658Y-23967031D01*
X9440658Y-23967031D02*
X9450182Y-23986079D01*
X9450182Y-23986079D02*
X9459705Y-24024174D01*
X9459705Y-24024174D02*
X9459705Y-24071793D01*
X9459705Y-24071793D02*
X9450182Y-24109888D01*
X9450182Y-24109888D02*
X9440658Y-24128936D01*
X9440658Y-24128936D02*
X9431134Y-24138460D01*
X9431134Y-24138460D02*
X9412086Y-24147984D01*
X9412086Y-24147984D02*
X9393039Y-24147984D01*
X9393039Y-24147984D02*
X9373991Y-24138460D01*
X9373991Y-24138460D02*
X9364467Y-24128936D01*
X9364467Y-24128936D02*
X9354944Y-24109888D01*
X9354944Y-24109888D02*
X9345420Y-24071793D01*
X9345420Y-24071793D02*
X9345420Y-24024174D01*
X9345420Y-24024174D02*
X9354944Y-23986079D01*
X9354944Y-23986079D02*
X9364467Y-23967031D01*
X9364467Y-23967031D02*
X9373991Y-23957508D01*
X9373991Y-23957508D02*
X9393039Y-23947984D01*
X9545420Y-24147984D02*
X9545420Y-24014650D01*
X9545420Y-24033698D02*
X9554944Y-24024174D01*
X9554944Y-24024174D02*
X9573991Y-24014650D01*
X9573991Y-24014650D02*
X9602563Y-24014650D01*
X9602563Y-24014650D02*
X9621610Y-24024174D01*
X9621610Y-24024174D02*
X9631134Y-24043222D01*
X9631134Y-24043222D02*
X9631134Y-24147984D01*
X9631134Y-24043222D02*
X9640658Y-24024174D01*
X9640658Y-24024174D02*
X9659705Y-24014650D01*
X9659705Y-24014650D02*
X9688277Y-24014650D01*
X9688277Y-24014650D02*
X9707325Y-24024174D01*
X9707325Y-24024174D02*
X9716848Y-24043222D01*
X9716848Y-24043222D02*
X9716848Y-24147984D01*
X9812086Y-24147984D02*
X9812086Y-24014650D01*
X9812086Y-24033698D02*
X9821610Y-24024174D01*
X9821610Y-24024174D02*
X9840658Y-24014650D01*
X9840658Y-24014650D02*
X9869229Y-24014650D01*
X9869229Y-24014650D02*
X9888277Y-24024174D01*
X9888277Y-24024174D02*
X9897801Y-24043222D01*
X9897801Y-24043222D02*
X9897801Y-24147984D01*
X9897801Y-24043222D02*
X9907325Y-24024174D01*
X9907325Y-24024174D02*
X9926372Y-24014650D01*
X9926372Y-24014650D02*
X9954944Y-24014650D01*
X9954944Y-24014650D02*
X9973991Y-24024174D01*
X9973991Y-24024174D02*
X9983515Y-24043222D01*
X9983515Y-24043222D02*
X9983515Y-24147984D01*
X10373991Y-23938460D02*
X10202563Y-24195603D01*
X10631134Y-23947984D02*
X10650182Y-23947984D01*
X10650182Y-23947984D02*
X10669229Y-23957508D01*
X10669229Y-23957508D02*
X10678753Y-23967031D01*
X10678753Y-23967031D02*
X10688277Y-23986079D01*
X10688277Y-23986079D02*
X10697801Y-24024174D01*
X10697801Y-24024174D02*
X10697801Y-24071793D01*
X10697801Y-24071793D02*
X10688277Y-24109888D01*
X10688277Y-24109888D02*
X10678753Y-24128936D01*
X10678753Y-24128936D02*
X10669229Y-24138460D01*
X10669229Y-24138460D02*
X10650182Y-24147984D01*
X10650182Y-24147984D02*
X10631134Y-24147984D01*
X10631134Y-24147984D02*
X10612087Y-24138460D01*
X10612087Y-24138460D02*
X10602563Y-24128936D01*
X10602563Y-24128936D02*
X10593039Y-24109888D01*
X10593039Y-24109888D02*
X10583515Y-24071793D01*
X10583515Y-24071793D02*
X10583515Y-24024174D01*
X10583515Y-24024174D02*
X10593039Y-23986079D01*
X10593039Y-23986079D02*
X10602563Y-23967031D01*
X10602563Y-23967031D02*
X10612087Y-23957508D01*
X10612087Y-23957508D02*
X10631134Y-23947984D01*
X10783515Y-24128936D02*
X10793039Y-24138460D01*
X10793039Y-24138460D02*
X10783515Y-24147984D01*
X10783515Y-24147984D02*
X10773991Y-24138460D01*
X10773991Y-24138460D02*
X10783515Y-24128936D01*
X10783515Y-24128936D02*
X10783515Y-24147984D01*
X10916848Y-23947984D02*
X10935896Y-23947984D01*
X10935896Y-23947984D02*
X10954944Y-23957508D01*
X10954944Y-23957508D02*
X10964468Y-23967031D01*
X10964468Y-23967031D02*
X10973991Y-23986079D01*
X10973991Y-23986079D02*
X10983515Y-24024174D01*
X10983515Y-24024174D02*
X10983515Y-24071793D01*
X10983515Y-24071793D02*
X10973991Y-24109888D01*
X10973991Y-24109888D02*
X10964468Y-24128936D01*
X10964468Y-24128936D02*
X10954944Y-24138460D01*
X10954944Y-24138460D02*
X10935896Y-24147984D01*
X10935896Y-24147984D02*
X10916848Y-24147984D01*
X10916848Y-24147984D02*
X10897801Y-24138460D01*
X10897801Y-24138460D02*
X10888277Y-24128936D01*
X10888277Y-24128936D02*
X10878753Y-24109888D01*
X10878753Y-24109888D02*
X10869229Y-24071793D01*
X10869229Y-24071793D02*
X10869229Y-24024174D01*
X10869229Y-24024174D02*
X10878753Y-23986079D01*
X10878753Y-23986079D02*
X10888277Y-23967031D01*
X10888277Y-23967031D02*
X10897801Y-23957508D01*
X10897801Y-23957508D02*
X10916848Y-23947984D01*
X11059706Y-23967031D02*
X11069229Y-23957508D01*
X11069229Y-23957508D02*
X11088277Y-23947984D01*
X11088277Y-23947984D02*
X11135896Y-23947984D01*
X11135896Y-23947984D02*
X11154944Y-23957508D01*
X11154944Y-23957508D02*
X11164468Y-23967031D01*
X11164468Y-23967031D02*
X11173991Y-23986079D01*
X11173991Y-23986079D02*
X11173991Y-24005127D01*
X11173991Y-24005127D02*
X11164468Y-24033698D01*
X11164468Y-24033698D02*
X11050182Y-24147984D01*
X11050182Y-24147984D02*
X11173991Y-24147984D01*
X11240658Y-23947984D02*
X11364467Y-23947984D01*
X11364467Y-23947984D02*
X11297801Y-24024174D01*
X11297801Y-24024174D02*
X11326372Y-24024174D01*
X11326372Y-24024174D02*
X11345420Y-24033698D01*
X11345420Y-24033698D02*
X11354944Y-24043222D01*
X11354944Y-24043222D02*
X11364467Y-24062269D01*
X11364467Y-24062269D02*
X11364467Y-24109888D01*
X11364467Y-24109888D02*
X11354944Y-24128936D01*
X11354944Y-24128936D02*
X11345420Y-24138460D01*
X11345420Y-24138460D02*
X11326372Y-24147984D01*
X11326372Y-24147984D02*
X11269229Y-24147984D01*
X11269229Y-24147984D02*
X11250182Y-24138460D01*
X11250182Y-24138460D02*
X11240658Y-24128936D01*
X11535896Y-23947984D02*
X11497801Y-23947984D01*
X11497801Y-23947984D02*
X11478753Y-23957508D01*
X11478753Y-23957508D02*
X11469229Y-23967031D01*
X11469229Y-23967031D02*
X11450182Y-23995603D01*
X11450182Y-23995603D02*
X11440658Y-24033698D01*
X11440658Y-24033698D02*
X11440658Y-24109888D01*
X11440658Y-24109888D02*
X11450182Y-24128936D01*
X11450182Y-24128936D02*
X11459706Y-24138460D01*
X11459706Y-24138460D02*
X11478753Y-24147984D01*
X11478753Y-24147984D02*
X11516848Y-24147984D01*
X11516848Y-24147984D02*
X11535896Y-24138460D01*
X11535896Y-24138460D02*
X11545420Y-24128936D01*
X11545420Y-24128936D02*
X11554944Y-24109888D01*
X11554944Y-24109888D02*
X11554944Y-24062269D01*
X11554944Y-24062269D02*
X11545420Y-24043222D01*
X11545420Y-24043222D02*
X11535896Y-24033698D01*
X11535896Y-24033698D02*
X11516848Y-24024174D01*
X11516848Y-24024174D02*
X11478753Y-24024174D01*
X11478753Y-24024174D02*
X11459706Y-24033698D01*
X11459706Y-24033698D02*
X11450182Y-24043222D01*
X11450182Y-24043222D02*
X11440658Y-24062269D01*
X11631134Y-23947984D02*
X11631134Y-23986079D01*
X11707325Y-23947984D02*
X11707325Y-23986079D01*
X12002563Y-24224174D02*
X11993039Y-24214650D01*
X11993039Y-24214650D02*
X11973991Y-24186079D01*
X11973991Y-24186079D02*
X11964468Y-24167031D01*
X11964468Y-24167031D02*
X11954944Y-24138460D01*
X11954944Y-24138460D02*
X11945420Y-24090841D01*
X11945420Y-24090841D02*
X11945420Y-24052746D01*
X11945420Y-24052746D02*
X11954944Y-24005127D01*
X11954944Y-24005127D02*
X11964468Y-23976555D01*
X11964468Y-23976555D02*
X11973991Y-23957508D01*
X11973991Y-23957508D02*
X11993039Y-23928936D01*
X11993039Y-23928936D02*
X12002563Y-23919412D01*
X12116848Y-23947984D02*
X12135896Y-23947984D01*
X12135896Y-23947984D02*
X12154944Y-23957508D01*
X12154944Y-23957508D02*
X12164468Y-23967031D01*
X12164468Y-23967031D02*
X12173991Y-23986079D01*
X12173991Y-23986079D02*
X12183515Y-24024174D01*
X12183515Y-24024174D02*
X12183515Y-24071793D01*
X12183515Y-24071793D02*
X12173991Y-24109888D01*
X12173991Y-24109888D02*
X12164468Y-24128936D01*
X12164468Y-24128936D02*
X12154944Y-24138460D01*
X12154944Y-24138460D02*
X12135896Y-24147984D01*
X12135896Y-24147984D02*
X12116848Y-24147984D01*
X12116848Y-24147984D02*
X12097801Y-24138460D01*
X12097801Y-24138460D02*
X12088277Y-24128936D01*
X12088277Y-24128936D02*
X12078753Y-24109888D01*
X12078753Y-24109888D02*
X12069229Y-24071793D01*
X12069229Y-24071793D02*
X12069229Y-24024174D01*
X12069229Y-24024174D02*
X12078753Y-23986079D01*
X12078753Y-23986079D02*
X12088277Y-23967031D01*
X12088277Y-23967031D02*
X12097801Y-23957508D01*
X12097801Y-23957508D02*
X12116848Y-23947984D01*
X12421610Y-24147984D02*
X12421610Y-23947984D01*
X12507325Y-24147984D02*
X12507325Y-24043222D01*
X12507325Y-24043222D02*
X12497801Y-24024174D01*
X12497801Y-24024174D02*
X12478753Y-24014650D01*
X12478753Y-24014650D02*
X12450182Y-24014650D01*
X12450182Y-24014650D02*
X12431134Y-24024174D01*
X12431134Y-24024174D02*
X12421610Y-24033698D01*
X12631134Y-24147984D02*
X12612087Y-24138460D01*
X12612087Y-24138460D02*
X12602563Y-24128936D01*
X12602563Y-24128936D02*
X12593039Y-24109888D01*
X12593039Y-24109888D02*
X12593039Y-24052746D01*
X12593039Y-24052746D02*
X12602563Y-24033698D01*
X12602563Y-24033698D02*
X12612087Y-24024174D01*
X12612087Y-24024174D02*
X12631134Y-24014650D01*
X12631134Y-24014650D02*
X12659706Y-24014650D01*
X12659706Y-24014650D02*
X12678753Y-24024174D01*
X12678753Y-24024174D02*
X12688277Y-24033698D01*
X12688277Y-24033698D02*
X12697801Y-24052746D01*
X12697801Y-24052746D02*
X12697801Y-24109888D01*
X12697801Y-24109888D02*
X12688277Y-24128936D01*
X12688277Y-24128936D02*
X12678753Y-24138460D01*
X12678753Y-24138460D02*
X12659706Y-24147984D01*
X12659706Y-24147984D02*
X12631134Y-24147984D01*
X12812087Y-24147984D02*
X12793039Y-24138460D01*
X12793039Y-24138460D02*
X12783515Y-24119412D01*
X12783515Y-24119412D02*
X12783515Y-23947984D01*
X12964468Y-24138460D02*
X12945420Y-24147984D01*
X12945420Y-24147984D02*
X12907325Y-24147984D01*
X12907325Y-24147984D02*
X12888277Y-24138460D01*
X12888277Y-24138460D02*
X12878753Y-24119412D01*
X12878753Y-24119412D02*
X12878753Y-24043222D01*
X12878753Y-24043222D02*
X12888277Y-24024174D01*
X12888277Y-24024174D02*
X12907325Y-24014650D01*
X12907325Y-24014650D02*
X12945420Y-24014650D01*
X12945420Y-24014650D02*
X12964468Y-24024174D01*
X12964468Y-24024174D02*
X12973991Y-24043222D01*
X12973991Y-24043222D02*
X12973991Y-24062269D01*
X12973991Y-24062269D02*
X12878753Y-24081317D01*
X13050182Y-24138460D02*
X13069230Y-24147984D01*
X13069230Y-24147984D02*
X13107325Y-24147984D01*
X13107325Y-24147984D02*
X13126372Y-24138460D01*
X13126372Y-24138460D02*
X13135896Y-24119412D01*
X13135896Y-24119412D02*
X13135896Y-24109888D01*
X13135896Y-24109888D02*
X13126372Y-24090841D01*
X13126372Y-24090841D02*
X13107325Y-24081317D01*
X13107325Y-24081317D02*
X13078753Y-24081317D01*
X13078753Y-24081317D02*
X13059706Y-24071793D01*
X13059706Y-24071793D02*
X13050182Y-24052746D01*
X13050182Y-24052746D02*
X13050182Y-24043222D01*
X13050182Y-24043222D02*
X13059706Y-24024174D01*
X13059706Y-24024174D02*
X13078753Y-24014650D01*
X13078753Y-24014650D02*
X13107325Y-24014650D01*
X13107325Y-24014650D02*
X13126372Y-24024174D01*
X13373992Y-24071793D02*
X13526373Y-24071793D01*
X13450182Y-24147984D02*
X13450182Y-23995603D01*
X13859706Y-24014650D02*
X13859706Y-24147984D01*
X13812087Y-23938460D02*
X13764468Y-24081317D01*
X13764468Y-24081317D02*
X13888277Y-24081317D01*
X14107325Y-24138460D02*
X14126373Y-24147984D01*
X14126373Y-24147984D02*
X14164468Y-24147984D01*
X14164468Y-24147984D02*
X14183515Y-24138460D01*
X14183515Y-24138460D02*
X14193039Y-24119412D01*
X14193039Y-24119412D02*
X14193039Y-24109888D01*
X14193039Y-24109888D02*
X14183515Y-24090841D01*
X14183515Y-24090841D02*
X14164468Y-24081317D01*
X14164468Y-24081317D02*
X14135896Y-24081317D01*
X14135896Y-24081317D02*
X14116849Y-24071793D01*
X14116849Y-24071793D02*
X14107325Y-24052746D01*
X14107325Y-24052746D02*
X14107325Y-24043222D01*
X14107325Y-24043222D02*
X14116849Y-24024174D01*
X14116849Y-24024174D02*
X14135896Y-24014650D01*
X14135896Y-24014650D02*
X14164468Y-24014650D01*
X14164468Y-24014650D02*
X14183515Y-24024174D01*
X14307325Y-24147984D02*
X14288277Y-24138460D01*
X14288277Y-24138460D02*
X14278754Y-24119412D01*
X14278754Y-24119412D02*
X14278754Y-23947984D01*
X14412087Y-24147984D02*
X14393039Y-24138460D01*
X14393039Y-24138460D02*
X14383515Y-24128936D01*
X14383515Y-24128936D02*
X14373992Y-24109888D01*
X14373992Y-24109888D02*
X14373992Y-24052746D01*
X14373992Y-24052746D02*
X14383515Y-24033698D01*
X14383515Y-24033698D02*
X14393039Y-24024174D01*
X14393039Y-24024174D02*
X14412087Y-24014650D01*
X14412087Y-24014650D02*
X14440658Y-24014650D01*
X14440658Y-24014650D02*
X14459706Y-24024174D01*
X14459706Y-24024174D02*
X14469230Y-24033698D01*
X14469230Y-24033698D02*
X14478754Y-24052746D01*
X14478754Y-24052746D02*
X14478754Y-24109888D01*
X14478754Y-24109888D02*
X14469230Y-24128936D01*
X14469230Y-24128936D02*
X14459706Y-24138460D01*
X14459706Y-24138460D02*
X14440658Y-24147984D01*
X14440658Y-24147984D02*
X14412087Y-24147984D01*
X14535896Y-24014650D02*
X14612087Y-24014650D01*
X14564468Y-23947984D02*
X14564468Y-24119412D01*
X14564468Y-24119412D02*
X14573992Y-24138460D01*
X14573992Y-24138460D02*
X14593039Y-24147984D01*
X14593039Y-24147984D02*
X14612087Y-24147984D01*
X14669230Y-24138460D02*
X14688277Y-24147984D01*
X14688277Y-24147984D02*
X14726373Y-24147984D01*
X14726373Y-24147984D02*
X14745420Y-24138460D01*
X14745420Y-24138460D02*
X14754944Y-24119412D01*
X14754944Y-24119412D02*
X14754944Y-24109888D01*
X14754944Y-24109888D02*
X14745420Y-24090841D01*
X14745420Y-24090841D02*
X14726373Y-24081317D01*
X14726373Y-24081317D02*
X14697801Y-24081317D01*
X14697801Y-24081317D02*
X14678754Y-24071793D01*
X14678754Y-24071793D02*
X14669230Y-24052746D01*
X14669230Y-24052746D02*
X14669230Y-24043222D01*
X14669230Y-24043222D02*
X14678754Y-24024174D01*
X14678754Y-24024174D02*
X14697801Y-24014650D01*
X14697801Y-24014650D02*
X14726373Y-24014650D01*
X14726373Y-24014650D02*
X14745420Y-24024174D01*
X14821611Y-24224174D02*
X14831135Y-24214650D01*
X14831135Y-24214650D02*
X14850182Y-24186079D01*
X14850182Y-24186079D02*
X14859706Y-24167031D01*
X14859706Y-24167031D02*
X14869230Y-24138460D01*
X14869230Y-24138460D02*
X14878754Y-24090841D01*
X14878754Y-24090841D02*
X14878754Y-24052746D01*
X14878754Y-24052746D02*
X14869230Y-24005127D01*
X14869230Y-24005127D02*
X14859706Y-23976555D01*
X14859706Y-23976555D02*
X14850182Y-23957508D01*
X14850182Y-23957508D02*
X14831135Y-23928936D01*
X14831135Y-23928936D02*
X14821611Y-23919412D01*
D12*
X8380000Y-24273000D02*
X8380000Y-24368000D01*
X8332500Y-24320500D02*
X8427500Y-24320500D01*
D11*
X8726372Y-24211984D02*
X8745420Y-24211984D01*
X8745420Y-24211984D02*
X8764467Y-24221508D01*
X8764467Y-24221508D02*
X8773991Y-24231031D01*
X8773991Y-24231031D02*
X8783515Y-24250079D01*
X8783515Y-24250079D02*
X8793039Y-24288174D01*
X8793039Y-24288174D02*
X8793039Y-24335793D01*
X8793039Y-24335793D02*
X8783515Y-24373888D01*
X8783515Y-24373888D02*
X8773991Y-24392936D01*
X8773991Y-24392936D02*
X8764467Y-24402460D01*
X8764467Y-24402460D02*
X8745420Y-24411984D01*
X8745420Y-24411984D02*
X8726372Y-24411984D01*
X8726372Y-24411984D02*
X8707324Y-24402460D01*
X8707324Y-24402460D02*
X8697801Y-24392936D01*
X8697801Y-24392936D02*
X8688277Y-24373888D01*
X8688277Y-24373888D02*
X8678753Y-24335793D01*
X8678753Y-24335793D02*
X8678753Y-24288174D01*
X8678753Y-24288174D02*
X8688277Y-24250079D01*
X8688277Y-24250079D02*
X8697801Y-24231031D01*
X8697801Y-24231031D02*
X8707324Y-24221508D01*
X8707324Y-24221508D02*
X8726372Y-24211984D01*
X8878753Y-24392936D02*
X8888277Y-24402460D01*
X8888277Y-24402460D02*
X8878753Y-24411984D01*
X8878753Y-24411984D02*
X8869229Y-24402460D01*
X8869229Y-24402460D02*
X8878753Y-24392936D01*
X8878753Y-24392936D02*
X8878753Y-24411984D01*
X8983515Y-24411984D02*
X9021610Y-24411984D01*
X9021610Y-24411984D02*
X9040658Y-24402460D01*
X9040658Y-24402460D02*
X9050182Y-24392936D01*
X9050182Y-24392936D02*
X9069229Y-24364365D01*
X9069229Y-24364365D02*
X9078753Y-24326269D01*
X9078753Y-24326269D02*
X9078753Y-24250079D01*
X9078753Y-24250079D02*
X9069229Y-24231031D01*
X9069229Y-24231031D02*
X9059705Y-24221508D01*
X9059705Y-24221508D02*
X9040658Y-24211984D01*
X9040658Y-24211984D02*
X9002563Y-24211984D01*
X9002563Y-24211984D02*
X8983515Y-24221508D01*
X8983515Y-24221508D02*
X8973991Y-24231031D01*
X8973991Y-24231031D02*
X8964467Y-24250079D01*
X8964467Y-24250079D02*
X8964467Y-24297698D01*
X8964467Y-24297698D02*
X8973991Y-24316746D01*
X8973991Y-24316746D02*
X8983515Y-24326269D01*
X8983515Y-24326269D02*
X9002563Y-24335793D01*
X9002563Y-24335793D02*
X9040658Y-24335793D01*
X9040658Y-24335793D02*
X9059705Y-24326269D01*
X9059705Y-24326269D02*
X9069229Y-24316746D01*
X9069229Y-24316746D02*
X9078753Y-24297698D01*
X9259705Y-24211984D02*
X9164467Y-24211984D01*
X9164467Y-24211984D02*
X9154944Y-24307222D01*
X9154944Y-24307222D02*
X9164467Y-24297698D01*
X9164467Y-24297698D02*
X9183515Y-24288174D01*
X9183515Y-24288174D02*
X9231134Y-24288174D01*
X9231134Y-24288174D02*
X9250182Y-24297698D01*
X9250182Y-24297698D02*
X9259705Y-24307222D01*
X9259705Y-24307222D02*
X9269229Y-24326269D01*
X9269229Y-24326269D02*
X9269229Y-24373888D01*
X9269229Y-24373888D02*
X9259705Y-24392936D01*
X9259705Y-24392936D02*
X9250182Y-24402460D01*
X9250182Y-24402460D02*
X9231134Y-24411984D01*
X9231134Y-24411984D02*
X9183515Y-24411984D01*
X9183515Y-24411984D02*
X9164467Y-24402460D01*
X9164467Y-24402460D02*
X9154944Y-24392936D01*
X9393039Y-24211984D02*
X9412086Y-24211984D01*
X9412086Y-24211984D02*
X9431134Y-24221508D01*
X9431134Y-24221508D02*
X9440658Y-24231031D01*
X9440658Y-24231031D02*
X9450182Y-24250079D01*
X9450182Y-24250079D02*
X9459705Y-24288174D01*
X9459705Y-24288174D02*
X9459705Y-24335793D01*
X9459705Y-24335793D02*
X9450182Y-24373888D01*
X9450182Y-24373888D02*
X9440658Y-24392936D01*
X9440658Y-24392936D02*
X9431134Y-24402460D01*
X9431134Y-24402460D02*
X9412086Y-24411984D01*
X9412086Y-24411984D02*
X9393039Y-24411984D01*
X9393039Y-24411984D02*
X9373991Y-24402460D01*
X9373991Y-24402460D02*
X9364467Y-24392936D01*
X9364467Y-24392936D02*
X9354944Y-24373888D01*
X9354944Y-24373888D02*
X9345420Y-24335793D01*
X9345420Y-24335793D02*
X9345420Y-24288174D01*
X9345420Y-24288174D02*
X9354944Y-24250079D01*
X9354944Y-24250079D02*
X9364467Y-24231031D01*
X9364467Y-24231031D02*
X9373991Y-24221508D01*
X9373991Y-24221508D02*
X9393039Y-24211984D01*
X9545420Y-24411984D02*
X9545420Y-24278650D01*
X9545420Y-24297698D02*
X9554944Y-24288174D01*
X9554944Y-24288174D02*
X9573991Y-24278650D01*
X9573991Y-24278650D02*
X9602563Y-24278650D01*
X9602563Y-24278650D02*
X9621610Y-24288174D01*
X9621610Y-24288174D02*
X9631134Y-24307222D01*
X9631134Y-24307222D02*
X9631134Y-24411984D01*
X9631134Y-24307222D02*
X9640658Y-24288174D01*
X9640658Y-24288174D02*
X9659705Y-24278650D01*
X9659705Y-24278650D02*
X9688277Y-24278650D01*
X9688277Y-24278650D02*
X9707325Y-24288174D01*
X9707325Y-24288174D02*
X9716848Y-24307222D01*
X9716848Y-24307222D02*
X9716848Y-24411984D01*
X9812086Y-24411984D02*
X9812086Y-24278650D01*
X9812086Y-24297698D02*
X9821610Y-24288174D01*
X9821610Y-24288174D02*
X9840658Y-24278650D01*
X9840658Y-24278650D02*
X9869229Y-24278650D01*
X9869229Y-24278650D02*
X9888277Y-24288174D01*
X9888277Y-24288174D02*
X9897801Y-24307222D01*
X9897801Y-24307222D02*
X9897801Y-24411984D01*
X9897801Y-24307222D02*
X9907325Y-24288174D01*
X9907325Y-24288174D02*
X9926372Y-24278650D01*
X9926372Y-24278650D02*
X9954944Y-24278650D01*
X9954944Y-24278650D02*
X9973991Y-24288174D01*
X9973991Y-24288174D02*
X9983515Y-24307222D01*
X9983515Y-24307222D02*
X9983515Y-24411984D01*
X10373991Y-24202460D02*
X10202563Y-24459603D01*
X10631134Y-24211984D02*
X10650182Y-24211984D01*
X10650182Y-24211984D02*
X10669229Y-24221508D01*
X10669229Y-24221508D02*
X10678753Y-24231031D01*
X10678753Y-24231031D02*
X10688277Y-24250079D01*
X10688277Y-24250079D02*
X10697801Y-24288174D01*
X10697801Y-24288174D02*
X10697801Y-24335793D01*
X10697801Y-24335793D02*
X10688277Y-24373888D01*
X10688277Y-24373888D02*
X10678753Y-24392936D01*
X10678753Y-24392936D02*
X10669229Y-24402460D01*
X10669229Y-24402460D02*
X10650182Y-24411984D01*
X10650182Y-24411984D02*
X10631134Y-24411984D01*
X10631134Y-24411984D02*
X10612087Y-24402460D01*
X10612087Y-24402460D02*
X10602563Y-24392936D01*
X10602563Y-24392936D02*
X10593039Y-24373888D01*
X10593039Y-24373888D02*
X10583515Y-24335793D01*
X10583515Y-24335793D02*
X10583515Y-24288174D01*
X10583515Y-24288174D02*
X10593039Y-24250079D01*
X10593039Y-24250079D02*
X10602563Y-24231031D01*
X10602563Y-24231031D02*
X10612087Y-24221508D01*
X10612087Y-24221508D02*
X10631134Y-24211984D01*
X10783515Y-24392936D02*
X10793039Y-24402460D01*
X10793039Y-24402460D02*
X10783515Y-24411984D01*
X10783515Y-24411984D02*
X10773991Y-24402460D01*
X10773991Y-24402460D02*
X10783515Y-24392936D01*
X10783515Y-24392936D02*
X10783515Y-24411984D01*
X10916848Y-24211984D02*
X10935896Y-24211984D01*
X10935896Y-24211984D02*
X10954944Y-24221508D01*
X10954944Y-24221508D02*
X10964468Y-24231031D01*
X10964468Y-24231031D02*
X10973991Y-24250079D01*
X10973991Y-24250079D02*
X10983515Y-24288174D01*
X10983515Y-24288174D02*
X10983515Y-24335793D01*
X10983515Y-24335793D02*
X10973991Y-24373888D01*
X10973991Y-24373888D02*
X10964468Y-24392936D01*
X10964468Y-24392936D02*
X10954944Y-24402460D01*
X10954944Y-24402460D02*
X10935896Y-24411984D01*
X10935896Y-24411984D02*
X10916848Y-24411984D01*
X10916848Y-24411984D02*
X10897801Y-24402460D01*
X10897801Y-24402460D02*
X10888277Y-24392936D01*
X10888277Y-24392936D02*
X10878753Y-24373888D01*
X10878753Y-24373888D02*
X10869229Y-24335793D01*
X10869229Y-24335793D02*
X10869229Y-24288174D01*
X10869229Y-24288174D02*
X10878753Y-24250079D01*
X10878753Y-24250079D02*
X10888277Y-24231031D01*
X10888277Y-24231031D02*
X10897801Y-24221508D01*
X10897801Y-24221508D02*
X10916848Y-24211984D01*
X11050182Y-24211984D02*
X11173991Y-24211984D01*
X11173991Y-24211984D02*
X11107325Y-24288174D01*
X11107325Y-24288174D02*
X11135896Y-24288174D01*
X11135896Y-24288174D02*
X11154944Y-24297698D01*
X11154944Y-24297698D02*
X11164468Y-24307222D01*
X11164468Y-24307222D02*
X11173991Y-24326269D01*
X11173991Y-24326269D02*
X11173991Y-24373888D01*
X11173991Y-24373888D02*
X11164468Y-24392936D01*
X11164468Y-24392936D02*
X11154944Y-24402460D01*
X11154944Y-24402460D02*
X11135896Y-24411984D01*
X11135896Y-24411984D02*
X11078753Y-24411984D01*
X11078753Y-24411984D02*
X11059706Y-24402460D01*
X11059706Y-24402460D02*
X11050182Y-24392936D01*
X11240658Y-24211984D02*
X11373991Y-24211984D01*
X11373991Y-24211984D02*
X11288277Y-24411984D01*
X11535896Y-24278650D02*
X11535896Y-24411984D01*
X11488277Y-24202460D02*
X11440658Y-24345317D01*
X11440658Y-24345317D02*
X11564467Y-24345317D01*
X11631134Y-24211984D02*
X11631134Y-24250079D01*
X11707325Y-24211984D02*
X11707325Y-24250079D01*
X12002563Y-24488174D02*
X11993039Y-24478650D01*
X11993039Y-24478650D02*
X11973991Y-24450079D01*
X11973991Y-24450079D02*
X11964468Y-24431031D01*
X11964468Y-24431031D02*
X11954944Y-24402460D01*
X11954944Y-24402460D02*
X11945420Y-24354841D01*
X11945420Y-24354841D02*
X11945420Y-24316746D01*
X11945420Y-24316746D02*
X11954944Y-24269127D01*
X11954944Y-24269127D02*
X11964468Y-24240555D01*
X11964468Y-24240555D02*
X11973991Y-24221508D01*
X11973991Y-24221508D02*
X11993039Y-24192936D01*
X11993039Y-24192936D02*
X12002563Y-24183412D01*
X12059706Y-24211984D02*
X12183515Y-24211984D01*
X12183515Y-24211984D02*
X12116848Y-24288174D01*
X12116848Y-24288174D02*
X12145420Y-24288174D01*
X12145420Y-24288174D02*
X12164468Y-24297698D01*
X12164468Y-24297698D02*
X12173991Y-24307222D01*
X12173991Y-24307222D02*
X12183515Y-24326269D01*
X12183515Y-24326269D02*
X12183515Y-24373888D01*
X12183515Y-24373888D02*
X12173991Y-24392936D01*
X12173991Y-24392936D02*
X12164468Y-24402460D01*
X12164468Y-24402460D02*
X12145420Y-24411984D01*
X12145420Y-24411984D02*
X12088277Y-24411984D01*
X12088277Y-24411984D02*
X12069229Y-24402460D01*
X12069229Y-24402460D02*
X12059706Y-24392936D01*
X12421610Y-24411984D02*
X12421610Y-24211984D01*
X12507325Y-24411984D02*
X12507325Y-24307222D01*
X12507325Y-24307222D02*
X12497801Y-24288174D01*
X12497801Y-24288174D02*
X12478753Y-24278650D01*
X12478753Y-24278650D02*
X12450182Y-24278650D01*
X12450182Y-24278650D02*
X12431134Y-24288174D01*
X12431134Y-24288174D02*
X12421610Y-24297698D01*
X12631134Y-24411984D02*
X12612087Y-24402460D01*
X12612087Y-24402460D02*
X12602563Y-24392936D01*
X12602563Y-24392936D02*
X12593039Y-24373888D01*
X12593039Y-24373888D02*
X12593039Y-24316746D01*
X12593039Y-24316746D02*
X12602563Y-24297698D01*
X12602563Y-24297698D02*
X12612087Y-24288174D01*
X12612087Y-24288174D02*
X12631134Y-24278650D01*
X12631134Y-24278650D02*
X12659706Y-24278650D01*
X12659706Y-24278650D02*
X12678753Y-24288174D01*
X12678753Y-24288174D02*
X12688277Y-24297698D01*
X12688277Y-24297698D02*
X12697801Y-24316746D01*
X12697801Y-24316746D02*
X12697801Y-24373888D01*
X12697801Y-24373888D02*
X12688277Y-24392936D01*
X12688277Y-24392936D02*
X12678753Y-24402460D01*
X12678753Y-24402460D02*
X12659706Y-24411984D01*
X12659706Y-24411984D02*
X12631134Y-24411984D01*
X12812087Y-24411984D02*
X12793039Y-24402460D01*
X12793039Y-24402460D02*
X12783515Y-24383412D01*
X12783515Y-24383412D02*
X12783515Y-24211984D01*
X12964468Y-24402460D02*
X12945420Y-24411984D01*
X12945420Y-24411984D02*
X12907325Y-24411984D01*
X12907325Y-24411984D02*
X12888277Y-24402460D01*
X12888277Y-24402460D02*
X12878753Y-24383412D01*
X12878753Y-24383412D02*
X12878753Y-24307222D01*
X12878753Y-24307222D02*
X12888277Y-24288174D01*
X12888277Y-24288174D02*
X12907325Y-24278650D01*
X12907325Y-24278650D02*
X12945420Y-24278650D01*
X12945420Y-24278650D02*
X12964468Y-24288174D01*
X12964468Y-24288174D02*
X12973991Y-24307222D01*
X12973991Y-24307222D02*
X12973991Y-24326269D01*
X12973991Y-24326269D02*
X12878753Y-24345317D01*
X13050182Y-24402460D02*
X13069230Y-24411984D01*
X13069230Y-24411984D02*
X13107325Y-24411984D01*
X13107325Y-24411984D02*
X13126372Y-24402460D01*
X13126372Y-24402460D02*
X13135896Y-24383412D01*
X13135896Y-24383412D02*
X13135896Y-24373888D01*
X13135896Y-24373888D02*
X13126372Y-24354841D01*
X13126372Y-24354841D02*
X13107325Y-24345317D01*
X13107325Y-24345317D02*
X13078753Y-24345317D01*
X13078753Y-24345317D02*
X13059706Y-24335793D01*
X13059706Y-24335793D02*
X13050182Y-24316746D01*
X13050182Y-24316746D02*
X13050182Y-24307222D01*
X13050182Y-24307222D02*
X13059706Y-24288174D01*
X13059706Y-24288174D02*
X13078753Y-24278650D01*
X13078753Y-24278650D02*
X13107325Y-24278650D01*
X13107325Y-24278650D02*
X13126372Y-24288174D01*
X13202563Y-24488174D02*
X13212087Y-24478650D01*
X13212087Y-24478650D02*
X13231134Y-24450079D01*
X13231134Y-24450079D02*
X13240658Y-24431031D01*
X13240658Y-24431031D02*
X13250182Y-24402460D01*
X13250182Y-24402460D02*
X13259706Y-24354841D01*
X13259706Y-24354841D02*
X13259706Y-24316746D01*
X13259706Y-24316746D02*
X13250182Y-24269127D01*
X13250182Y-24269127D02*
X13240658Y-24240555D01*
X13240658Y-24240555D02*
X13231134Y-24221508D01*
X13231134Y-24221508D02*
X13212087Y-24192936D01*
X13212087Y-24192936D02*
X13202563Y-24183412D01*
D13*
X8401872Y-24646372D02*
X8401872Y-24522628D01*
X8278128Y-24522628D01*
X8278128Y-24646372D01*
X8401872Y-24646372D01*
D11*
X8793039Y-24675984D02*
X8678753Y-24675984D01*
X8735896Y-24675984D02*
X8735896Y-24475984D01*
X8735896Y-24475984D02*
X8716848Y-24504555D01*
X8716848Y-24504555D02*
X8697801Y-24523603D01*
X8697801Y-24523603D02*
X8678753Y-24533127D01*
X8878753Y-24656936D02*
X8888277Y-24666460D01*
X8888277Y-24666460D02*
X8878753Y-24675984D01*
X8878753Y-24675984D02*
X8869229Y-24666460D01*
X8869229Y-24666460D02*
X8878753Y-24656936D01*
X8878753Y-24656936D02*
X8878753Y-24675984D01*
X8954944Y-24475984D02*
X9088277Y-24475984D01*
X9088277Y-24475984D02*
X9002563Y-24675984D01*
X9259705Y-24475984D02*
X9164467Y-24475984D01*
X9164467Y-24475984D02*
X9154944Y-24571222D01*
X9154944Y-24571222D02*
X9164467Y-24561698D01*
X9164467Y-24561698D02*
X9183515Y-24552174D01*
X9183515Y-24552174D02*
X9231134Y-24552174D01*
X9231134Y-24552174D02*
X9250182Y-24561698D01*
X9250182Y-24561698D02*
X9259705Y-24571222D01*
X9259705Y-24571222D02*
X9269229Y-24590269D01*
X9269229Y-24590269D02*
X9269229Y-24637888D01*
X9269229Y-24637888D02*
X9259705Y-24656936D01*
X9259705Y-24656936D02*
X9250182Y-24666460D01*
X9250182Y-24666460D02*
X9231134Y-24675984D01*
X9231134Y-24675984D02*
X9183515Y-24675984D01*
X9183515Y-24675984D02*
X9164467Y-24666460D01*
X9164467Y-24666460D02*
X9154944Y-24656936D01*
X9393039Y-24475984D02*
X9412086Y-24475984D01*
X9412086Y-24475984D02*
X9431134Y-24485508D01*
X9431134Y-24485508D02*
X9440658Y-24495031D01*
X9440658Y-24495031D02*
X9450182Y-24514079D01*
X9450182Y-24514079D02*
X9459705Y-24552174D01*
X9459705Y-24552174D02*
X9459705Y-24599793D01*
X9459705Y-24599793D02*
X9450182Y-24637888D01*
X9450182Y-24637888D02*
X9440658Y-24656936D01*
X9440658Y-24656936D02*
X9431134Y-24666460D01*
X9431134Y-24666460D02*
X9412086Y-24675984D01*
X9412086Y-24675984D02*
X9393039Y-24675984D01*
X9393039Y-24675984D02*
X9373991Y-24666460D01*
X9373991Y-24666460D02*
X9364467Y-24656936D01*
X9364467Y-24656936D02*
X9354944Y-24637888D01*
X9354944Y-24637888D02*
X9345420Y-24599793D01*
X9345420Y-24599793D02*
X9345420Y-24552174D01*
X9345420Y-24552174D02*
X9354944Y-24514079D01*
X9354944Y-24514079D02*
X9364467Y-24495031D01*
X9364467Y-24495031D02*
X9373991Y-24485508D01*
X9373991Y-24485508D02*
X9393039Y-24475984D01*
X9545420Y-24675984D02*
X9545420Y-24542650D01*
X9545420Y-24561698D02*
X9554944Y-24552174D01*
X9554944Y-24552174D02*
X9573991Y-24542650D01*
X9573991Y-24542650D02*
X9602563Y-24542650D01*
X9602563Y-24542650D02*
X9621610Y-24552174D01*
X9621610Y-24552174D02*
X9631134Y-24571222D01*
X9631134Y-24571222D02*
X9631134Y-24675984D01*
X9631134Y-24571222D02*
X9640658Y-24552174D01*
X9640658Y-24552174D02*
X9659705Y-24542650D01*
X9659705Y-24542650D02*
X9688277Y-24542650D01*
X9688277Y-24542650D02*
X9707325Y-24552174D01*
X9707325Y-24552174D02*
X9716848Y-24571222D01*
X9716848Y-24571222D02*
X9716848Y-24675984D01*
X9812086Y-24675984D02*
X9812086Y-24542650D01*
X9812086Y-24561698D02*
X9821610Y-24552174D01*
X9821610Y-24552174D02*
X9840658Y-24542650D01*
X9840658Y-24542650D02*
X9869229Y-24542650D01*
X9869229Y-24542650D02*
X9888277Y-24552174D01*
X9888277Y-24552174D02*
X9897801Y-24571222D01*
X9897801Y-24571222D02*
X9897801Y-24675984D01*
X9897801Y-24571222D02*
X9907325Y-24552174D01*
X9907325Y-24552174D02*
X9926372Y-24542650D01*
X9926372Y-24542650D02*
X9954944Y-24542650D01*
X9954944Y-24542650D02*
X9973991Y-24552174D01*
X9973991Y-24552174D02*
X9983515Y-24571222D01*
X9983515Y-24571222D02*
X9983515Y-24675984D01*
X10373991Y-24466460D02*
X10202563Y-24723603D01*
X10631134Y-24475984D02*
X10650182Y-24475984D01*
X10650182Y-24475984D02*
X10669229Y-24485508D01*
X10669229Y-24485508D02*
X10678753Y-24495031D01*
X10678753Y-24495031D02*
X10688277Y-24514079D01*
X10688277Y-24514079D02*
X10697801Y-24552174D01*
X10697801Y-24552174D02*
X10697801Y-24599793D01*
X10697801Y-24599793D02*
X10688277Y-24637888D01*
X10688277Y-24637888D02*
X10678753Y-24656936D01*
X10678753Y-24656936D02*
X10669229Y-24666460D01*
X10669229Y-24666460D02*
X10650182Y-24675984D01*
X10650182Y-24675984D02*
X10631134Y-24675984D01*
X10631134Y-24675984D02*
X10612087Y-24666460D01*
X10612087Y-24666460D02*
X10602563Y-24656936D01*
X10602563Y-24656936D02*
X10593039Y-24637888D01*
X10593039Y-24637888D02*
X10583515Y-24599793D01*
X10583515Y-24599793D02*
X10583515Y-24552174D01*
X10583515Y-24552174D02*
X10593039Y-24514079D01*
X10593039Y-24514079D02*
X10602563Y-24495031D01*
X10602563Y-24495031D02*
X10612087Y-24485508D01*
X10612087Y-24485508D02*
X10631134Y-24475984D01*
X10783515Y-24656936D02*
X10793039Y-24666460D01*
X10793039Y-24666460D02*
X10783515Y-24675984D01*
X10783515Y-24675984D02*
X10773991Y-24666460D01*
X10773991Y-24666460D02*
X10783515Y-24656936D01*
X10783515Y-24656936D02*
X10783515Y-24675984D01*
X10916848Y-24475984D02*
X10935896Y-24475984D01*
X10935896Y-24475984D02*
X10954944Y-24485508D01*
X10954944Y-24485508D02*
X10964468Y-24495031D01*
X10964468Y-24495031D02*
X10973991Y-24514079D01*
X10973991Y-24514079D02*
X10983515Y-24552174D01*
X10983515Y-24552174D02*
X10983515Y-24599793D01*
X10983515Y-24599793D02*
X10973991Y-24637888D01*
X10973991Y-24637888D02*
X10964468Y-24656936D01*
X10964468Y-24656936D02*
X10954944Y-24666460D01*
X10954944Y-24666460D02*
X10935896Y-24675984D01*
X10935896Y-24675984D02*
X10916848Y-24675984D01*
X10916848Y-24675984D02*
X10897801Y-24666460D01*
X10897801Y-24666460D02*
X10888277Y-24656936D01*
X10888277Y-24656936D02*
X10878753Y-24637888D01*
X10878753Y-24637888D02*
X10869229Y-24599793D01*
X10869229Y-24599793D02*
X10869229Y-24552174D01*
X10869229Y-24552174D02*
X10878753Y-24514079D01*
X10878753Y-24514079D02*
X10888277Y-24495031D01*
X10888277Y-24495031D02*
X10897801Y-24485508D01*
X10897801Y-24485508D02*
X10916848Y-24475984D01*
X11154944Y-24475984D02*
X11116848Y-24475984D01*
X11116848Y-24475984D02*
X11097801Y-24485508D01*
X11097801Y-24485508D02*
X11088277Y-24495031D01*
X11088277Y-24495031D02*
X11069229Y-24523603D01*
X11069229Y-24523603D02*
X11059706Y-24561698D01*
X11059706Y-24561698D02*
X11059706Y-24637888D01*
X11059706Y-24637888D02*
X11069229Y-24656936D01*
X11069229Y-24656936D02*
X11078753Y-24666460D01*
X11078753Y-24666460D02*
X11097801Y-24675984D01*
X11097801Y-24675984D02*
X11135896Y-24675984D01*
X11135896Y-24675984D02*
X11154944Y-24666460D01*
X11154944Y-24666460D02*
X11164468Y-24656936D01*
X11164468Y-24656936D02*
X11173991Y-24637888D01*
X11173991Y-24637888D02*
X11173991Y-24590269D01*
X11173991Y-24590269D02*
X11164468Y-24571222D01*
X11164468Y-24571222D02*
X11154944Y-24561698D01*
X11154944Y-24561698D02*
X11135896Y-24552174D01*
X11135896Y-24552174D02*
X11097801Y-24552174D01*
X11097801Y-24552174D02*
X11078753Y-24561698D01*
X11078753Y-24561698D02*
X11069229Y-24571222D01*
X11069229Y-24571222D02*
X11059706Y-24590269D01*
X11288277Y-24561698D02*
X11269229Y-24552174D01*
X11269229Y-24552174D02*
X11259706Y-24542650D01*
X11259706Y-24542650D02*
X11250182Y-24523603D01*
X11250182Y-24523603D02*
X11250182Y-24514079D01*
X11250182Y-24514079D02*
X11259706Y-24495031D01*
X11259706Y-24495031D02*
X11269229Y-24485508D01*
X11269229Y-24485508D02*
X11288277Y-24475984D01*
X11288277Y-24475984D02*
X11326372Y-24475984D01*
X11326372Y-24475984D02*
X11345420Y-24485508D01*
X11345420Y-24485508D02*
X11354944Y-24495031D01*
X11354944Y-24495031D02*
X11364467Y-24514079D01*
X11364467Y-24514079D02*
X11364467Y-24523603D01*
X11364467Y-24523603D02*
X11354944Y-24542650D01*
X11354944Y-24542650D02*
X11345420Y-24552174D01*
X11345420Y-24552174D02*
X11326372Y-24561698D01*
X11326372Y-24561698D02*
X11288277Y-24561698D01*
X11288277Y-24561698D02*
X11269229Y-24571222D01*
X11269229Y-24571222D02*
X11259706Y-24580746D01*
X11259706Y-24580746D02*
X11250182Y-24599793D01*
X11250182Y-24599793D02*
X11250182Y-24637888D01*
X11250182Y-24637888D02*
X11259706Y-24656936D01*
X11259706Y-24656936D02*
X11269229Y-24666460D01*
X11269229Y-24666460D02*
X11288277Y-24675984D01*
X11288277Y-24675984D02*
X11326372Y-24675984D01*
X11326372Y-24675984D02*
X11345420Y-24666460D01*
X11345420Y-24666460D02*
X11354944Y-24656936D01*
X11354944Y-24656936D02*
X11364467Y-24637888D01*
X11364467Y-24637888D02*
X11364467Y-24599793D01*
X11364467Y-24599793D02*
X11354944Y-24580746D01*
X11354944Y-24580746D02*
X11345420Y-24571222D01*
X11345420Y-24571222D02*
X11326372Y-24561698D01*
X11459706Y-24675984D02*
X11497801Y-24675984D01*
X11497801Y-24675984D02*
X11516848Y-24666460D01*
X11516848Y-24666460D02*
X11526372Y-24656936D01*
X11526372Y-24656936D02*
X11545420Y-24628365D01*
X11545420Y-24628365D02*
X11554944Y-24590269D01*
X11554944Y-24590269D02*
X11554944Y-24514079D01*
X11554944Y-24514079D02*
X11545420Y-24495031D01*
X11545420Y-24495031D02*
X11535896Y-24485508D01*
X11535896Y-24485508D02*
X11516848Y-24475984D01*
X11516848Y-24475984D02*
X11478753Y-24475984D01*
X11478753Y-24475984D02*
X11459706Y-24485508D01*
X11459706Y-24485508D02*
X11450182Y-24495031D01*
X11450182Y-24495031D02*
X11440658Y-24514079D01*
X11440658Y-24514079D02*
X11440658Y-24561698D01*
X11440658Y-24561698D02*
X11450182Y-24580746D01*
X11450182Y-24580746D02*
X11459706Y-24590269D01*
X11459706Y-24590269D02*
X11478753Y-24599793D01*
X11478753Y-24599793D02*
X11516848Y-24599793D01*
X11516848Y-24599793D02*
X11535896Y-24590269D01*
X11535896Y-24590269D02*
X11545420Y-24580746D01*
X11545420Y-24580746D02*
X11554944Y-24561698D01*
X11631134Y-24475984D02*
X11631134Y-24514079D01*
X11707325Y-24475984D02*
X11707325Y-24514079D01*
X12002563Y-24752174D02*
X11993039Y-24742650D01*
X11993039Y-24742650D02*
X11973991Y-24714079D01*
X11973991Y-24714079D02*
X11964468Y-24695031D01*
X11964468Y-24695031D02*
X11954944Y-24666460D01*
X11954944Y-24666460D02*
X11945420Y-24618841D01*
X11945420Y-24618841D02*
X11945420Y-24580746D01*
X11945420Y-24580746D02*
X11954944Y-24533127D01*
X11954944Y-24533127D02*
X11964468Y-24504555D01*
X11964468Y-24504555D02*
X11973991Y-24485508D01*
X11973991Y-24485508D02*
X11993039Y-24456936D01*
X11993039Y-24456936D02*
X12002563Y-24447412D01*
X12069229Y-24495031D02*
X12078753Y-24485508D01*
X12078753Y-24485508D02*
X12097801Y-24475984D01*
X12097801Y-24475984D02*
X12145420Y-24475984D01*
X12145420Y-24475984D02*
X12164468Y-24485508D01*
X12164468Y-24485508D02*
X12173991Y-24495031D01*
X12173991Y-24495031D02*
X12183515Y-24514079D01*
X12183515Y-24514079D02*
X12183515Y-24533127D01*
X12183515Y-24533127D02*
X12173991Y-24561698D01*
X12173991Y-24561698D02*
X12059706Y-24675984D01*
X12059706Y-24675984D02*
X12183515Y-24675984D01*
X12421610Y-24675984D02*
X12421610Y-24475984D01*
X12507325Y-24675984D02*
X12507325Y-24571222D01*
X12507325Y-24571222D02*
X12497801Y-24552174D01*
X12497801Y-24552174D02*
X12478753Y-24542650D01*
X12478753Y-24542650D02*
X12450182Y-24542650D01*
X12450182Y-24542650D02*
X12431134Y-24552174D01*
X12431134Y-24552174D02*
X12421610Y-24561698D01*
X12631134Y-24675984D02*
X12612087Y-24666460D01*
X12612087Y-24666460D02*
X12602563Y-24656936D01*
X12602563Y-24656936D02*
X12593039Y-24637888D01*
X12593039Y-24637888D02*
X12593039Y-24580746D01*
X12593039Y-24580746D02*
X12602563Y-24561698D01*
X12602563Y-24561698D02*
X12612087Y-24552174D01*
X12612087Y-24552174D02*
X12631134Y-24542650D01*
X12631134Y-24542650D02*
X12659706Y-24542650D01*
X12659706Y-24542650D02*
X12678753Y-24552174D01*
X12678753Y-24552174D02*
X12688277Y-24561698D01*
X12688277Y-24561698D02*
X12697801Y-24580746D01*
X12697801Y-24580746D02*
X12697801Y-24637888D01*
X12697801Y-24637888D02*
X12688277Y-24656936D01*
X12688277Y-24656936D02*
X12678753Y-24666460D01*
X12678753Y-24666460D02*
X12659706Y-24675984D01*
X12659706Y-24675984D02*
X12631134Y-24675984D01*
X12812087Y-24675984D02*
X12793039Y-24666460D01*
X12793039Y-24666460D02*
X12783515Y-24647412D01*
X12783515Y-24647412D02*
X12783515Y-24475984D01*
X12964468Y-24666460D02*
X12945420Y-24675984D01*
X12945420Y-24675984D02*
X12907325Y-24675984D01*
X12907325Y-24675984D02*
X12888277Y-24666460D01*
X12888277Y-24666460D02*
X12878753Y-24647412D01*
X12878753Y-24647412D02*
X12878753Y-24571222D01*
X12878753Y-24571222D02*
X12888277Y-24552174D01*
X12888277Y-24552174D02*
X12907325Y-24542650D01*
X12907325Y-24542650D02*
X12945420Y-24542650D01*
X12945420Y-24542650D02*
X12964468Y-24552174D01*
X12964468Y-24552174D02*
X12973991Y-24571222D01*
X12973991Y-24571222D02*
X12973991Y-24590269D01*
X12973991Y-24590269D02*
X12878753Y-24609317D01*
X13050182Y-24666460D02*
X13069230Y-24675984D01*
X13069230Y-24675984D02*
X13107325Y-24675984D01*
X13107325Y-24675984D02*
X13126372Y-24666460D01*
X13126372Y-24666460D02*
X13135896Y-24647412D01*
X13135896Y-24647412D02*
X13135896Y-24637888D01*
X13135896Y-24637888D02*
X13126372Y-24618841D01*
X13126372Y-24618841D02*
X13107325Y-24609317D01*
X13107325Y-24609317D02*
X13078753Y-24609317D01*
X13078753Y-24609317D02*
X13059706Y-24599793D01*
X13059706Y-24599793D02*
X13050182Y-24580746D01*
X13050182Y-24580746D02*
X13050182Y-24571222D01*
X13050182Y-24571222D02*
X13059706Y-24552174D01*
X13059706Y-24552174D02*
X13078753Y-24542650D01*
X13078753Y-24542650D02*
X13107325Y-24542650D01*
X13107325Y-24542650D02*
X13126372Y-24552174D01*
X13202563Y-24752174D02*
X13212087Y-24742650D01*
X13212087Y-24742650D02*
X13231134Y-24714079D01*
X13231134Y-24714079D02*
X13240658Y-24695031D01*
X13240658Y-24695031D02*
X13250182Y-24666460D01*
X13250182Y-24666460D02*
X13259706Y-24618841D01*
X13259706Y-24618841D02*
X13259706Y-24580746D01*
X13259706Y-24580746D02*
X13250182Y-24533127D01*
X13250182Y-24533127D02*
X13240658Y-24504555D01*
X13240658Y-24504555D02*
X13231134Y-24485508D01*
X13231134Y-24485508D02*
X13212087Y-24456936D01*
X13212087Y-24456936D02*
X13202563Y-24447412D01*
M02*
