%TF.GenerationSoftware,KiCad,Pcbnew,8.0.7*%
%TF.CreationDate,2024-12-30T17:39:48+01:00*%
%TF.ProjectId,termometer2,7465726d-6f6d-4657-9465-72322e6b6963,rev?*%
%TF.SameCoordinates,Original*%
%TF.FileFunction,Drillmap*%
%TF.FilePolarity,Positive*%
%FSLAX45Y45*%
G04 Gerber Fmt 4.5, Leading zero omitted, Abs format (unit mm)*
G04 Created by KiCad (PCBNEW 8.0.7) date 2024-12-30 17:39:48*
%MOMM*%
%LPD*%
G01*
G04 APERTURE LIST*
%ADD10C,0.050000*%
%ADD11C,0.200000*%
%ADD12C,0.100000*%
%ADD13C,0.300000*%
G04 APERTURE END LIST*
D10*
X11930000Y-22925000D02*
G75*
G02*
X11705000Y-23150000I-225000J0D01*
G01*
X8430000Y-22925000D02*
X8430000Y-4275000D01*
X8430000Y-4275000D02*
G75*
G02*
X8655000Y-4050000I225000J0D01*
G01*
X8655000Y-23150000D02*
G75*
G02*
X8430000Y-22925000I0J225000D01*
G01*
X11705000Y-23150000D02*
X8655000Y-23150000D01*
X11705000Y-4050000D02*
G75*
G02*
X11930000Y-4275000I0J-225000D01*
G01*
X8655000Y-4050000D02*
X11705000Y-4050000D01*
X11930000Y-4275000D02*
X11930000Y-22925000D01*
D11*
D12*
X11186519Y-21951019D02*
X11251519Y-22016019D01*
X11251519Y-21951019D02*
X11186519Y-22016019D01*
X11186519Y-22529019D02*
X11251519Y-22594019D01*
X11251519Y-22529019D02*
X11186519Y-22594019D01*
D13*
X11605000Y-9375000D02*
G75*
G02*
X11305000Y-9375000I-150000J0D01*
G01*
X11305000Y-9375000D02*
G75*
G02*
X11605000Y-9375000I150000J0D01*
G01*
X11605000Y-13375000D02*
G75*
G02*
X11305000Y-13375000I-150000J0D01*
G01*
X11305000Y-13375000D02*
G75*
G02*
X11605000Y-13375000I150000J0D01*
G01*
D11*
X8688277Y-23463984D02*
X8688277Y-23263984D01*
X8688277Y-23263984D02*
X8735896Y-23263984D01*
X8735896Y-23263984D02*
X8764467Y-23273508D01*
X8764467Y-23273508D02*
X8783515Y-23292555D01*
X8783515Y-23292555D02*
X8793039Y-23311603D01*
X8793039Y-23311603D02*
X8802563Y-23349698D01*
X8802563Y-23349698D02*
X8802563Y-23378269D01*
X8802563Y-23378269D02*
X8793039Y-23416365D01*
X8793039Y-23416365D02*
X8783515Y-23435412D01*
X8783515Y-23435412D02*
X8764467Y-23454460D01*
X8764467Y-23454460D02*
X8735896Y-23463984D01*
X8735896Y-23463984D02*
X8688277Y-23463984D01*
X8888277Y-23463984D02*
X8888277Y-23330650D01*
X8888277Y-23368746D02*
X8897801Y-23349698D01*
X8897801Y-23349698D02*
X8907324Y-23340174D01*
X8907324Y-23340174D02*
X8926372Y-23330650D01*
X8926372Y-23330650D02*
X8945420Y-23330650D01*
X9012086Y-23463984D02*
X9012086Y-23330650D01*
X9012086Y-23263984D02*
X9002563Y-23273508D01*
X9002563Y-23273508D02*
X9012086Y-23283031D01*
X9012086Y-23283031D02*
X9021610Y-23273508D01*
X9021610Y-23273508D02*
X9012086Y-23263984D01*
X9012086Y-23263984D02*
X9012086Y-23283031D01*
X9135896Y-23463984D02*
X9116848Y-23454460D01*
X9116848Y-23454460D02*
X9107324Y-23435412D01*
X9107324Y-23435412D02*
X9107324Y-23263984D01*
X9240658Y-23463984D02*
X9221610Y-23454460D01*
X9221610Y-23454460D02*
X9212086Y-23435412D01*
X9212086Y-23435412D02*
X9212086Y-23263984D01*
X9469229Y-23463984D02*
X9469229Y-23263984D01*
X9469229Y-23263984D02*
X9535896Y-23406841D01*
X9535896Y-23406841D02*
X9602563Y-23263984D01*
X9602563Y-23263984D02*
X9602563Y-23463984D01*
X9783515Y-23463984D02*
X9783515Y-23359222D01*
X9783515Y-23359222D02*
X9773991Y-23340174D01*
X9773991Y-23340174D02*
X9754944Y-23330650D01*
X9754944Y-23330650D02*
X9716848Y-23330650D01*
X9716848Y-23330650D02*
X9697801Y-23340174D01*
X9783515Y-23454460D02*
X9764467Y-23463984D01*
X9764467Y-23463984D02*
X9716848Y-23463984D01*
X9716848Y-23463984D02*
X9697801Y-23454460D01*
X9697801Y-23454460D02*
X9688277Y-23435412D01*
X9688277Y-23435412D02*
X9688277Y-23416365D01*
X9688277Y-23416365D02*
X9697801Y-23397317D01*
X9697801Y-23397317D02*
X9716848Y-23387793D01*
X9716848Y-23387793D02*
X9764467Y-23387793D01*
X9764467Y-23387793D02*
X9783515Y-23378269D01*
X9878753Y-23330650D02*
X9878753Y-23530650D01*
X9878753Y-23340174D02*
X9897801Y-23330650D01*
X9897801Y-23330650D02*
X9935896Y-23330650D01*
X9935896Y-23330650D02*
X9954944Y-23340174D01*
X9954944Y-23340174D02*
X9964467Y-23349698D01*
X9964467Y-23349698D02*
X9973991Y-23368746D01*
X9973991Y-23368746D02*
X9973991Y-23425888D01*
X9973991Y-23425888D02*
X9964467Y-23444936D01*
X9964467Y-23444936D02*
X9954944Y-23454460D01*
X9954944Y-23454460D02*
X9935896Y-23463984D01*
X9935896Y-23463984D02*
X9897801Y-23463984D01*
X9897801Y-23463984D02*
X9878753Y-23454460D01*
X10059705Y-23444936D02*
X10069229Y-23454460D01*
X10069229Y-23454460D02*
X10059705Y-23463984D01*
X10059705Y-23463984D02*
X10050182Y-23454460D01*
X10050182Y-23454460D02*
X10059705Y-23444936D01*
X10059705Y-23444936D02*
X10059705Y-23463984D01*
X10059705Y-23340174D02*
X10069229Y-23349698D01*
X10069229Y-23349698D02*
X10059705Y-23359222D01*
X10059705Y-23359222D02*
X10050182Y-23349698D01*
X10050182Y-23349698D02*
X10059705Y-23340174D01*
X10059705Y-23340174D02*
X10059705Y-23359222D01*
D12*
X8362500Y-23760000D02*
X8427500Y-23825000D01*
X8427500Y-23760000D02*
X8362500Y-23825000D01*
D11*
X8726372Y-23683984D02*
X8745420Y-23683984D01*
X8745420Y-23683984D02*
X8764467Y-23693508D01*
X8764467Y-23693508D02*
X8773991Y-23703031D01*
X8773991Y-23703031D02*
X8783515Y-23722079D01*
X8783515Y-23722079D02*
X8793039Y-23760174D01*
X8793039Y-23760174D02*
X8793039Y-23807793D01*
X8793039Y-23807793D02*
X8783515Y-23845888D01*
X8783515Y-23845888D02*
X8773991Y-23864936D01*
X8773991Y-23864936D02*
X8764467Y-23874460D01*
X8764467Y-23874460D02*
X8745420Y-23883984D01*
X8745420Y-23883984D02*
X8726372Y-23883984D01*
X8726372Y-23883984D02*
X8707324Y-23874460D01*
X8707324Y-23874460D02*
X8697801Y-23864936D01*
X8697801Y-23864936D02*
X8688277Y-23845888D01*
X8688277Y-23845888D02*
X8678753Y-23807793D01*
X8678753Y-23807793D02*
X8678753Y-23760174D01*
X8678753Y-23760174D02*
X8688277Y-23722079D01*
X8688277Y-23722079D02*
X8697801Y-23703031D01*
X8697801Y-23703031D02*
X8707324Y-23693508D01*
X8707324Y-23693508D02*
X8726372Y-23683984D01*
X8878753Y-23864936D02*
X8888277Y-23874460D01*
X8888277Y-23874460D02*
X8878753Y-23883984D01*
X8878753Y-23883984D02*
X8869229Y-23874460D01*
X8869229Y-23874460D02*
X8878753Y-23864936D01*
X8878753Y-23864936D02*
X8878753Y-23883984D01*
X9059705Y-23683984D02*
X9021610Y-23683984D01*
X9021610Y-23683984D02*
X9002563Y-23693508D01*
X9002563Y-23693508D02*
X8993039Y-23703031D01*
X8993039Y-23703031D02*
X8973991Y-23731603D01*
X8973991Y-23731603D02*
X8964467Y-23769698D01*
X8964467Y-23769698D02*
X8964467Y-23845888D01*
X8964467Y-23845888D02*
X8973991Y-23864936D01*
X8973991Y-23864936D02*
X8983515Y-23874460D01*
X8983515Y-23874460D02*
X9002563Y-23883984D01*
X9002563Y-23883984D02*
X9040658Y-23883984D01*
X9040658Y-23883984D02*
X9059705Y-23874460D01*
X9059705Y-23874460D02*
X9069229Y-23864936D01*
X9069229Y-23864936D02*
X9078753Y-23845888D01*
X9078753Y-23845888D02*
X9078753Y-23798269D01*
X9078753Y-23798269D02*
X9069229Y-23779222D01*
X9069229Y-23779222D02*
X9059705Y-23769698D01*
X9059705Y-23769698D02*
X9040658Y-23760174D01*
X9040658Y-23760174D02*
X9002563Y-23760174D01*
X9002563Y-23760174D02*
X8983515Y-23769698D01*
X8983515Y-23769698D02*
X8973991Y-23779222D01*
X8973991Y-23779222D02*
X8964467Y-23798269D01*
X9259705Y-23683984D02*
X9164467Y-23683984D01*
X9164467Y-23683984D02*
X9154944Y-23779222D01*
X9154944Y-23779222D02*
X9164467Y-23769698D01*
X9164467Y-23769698D02*
X9183515Y-23760174D01*
X9183515Y-23760174D02*
X9231134Y-23760174D01*
X9231134Y-23760174D02*
X9250182Y-23769698D01*
X9250182Y-23769698D02*
X9259705Y-23779222D01*
X9259705Y-23779222D02*
X9269229Y-23798269D01*
X9269229Y-23798269D02*
X9269229Y-23845888D01*
X9269229Y-23845888D02*
X9259705Y-23864936D01*
X9259705Y-23864936D02*
X9250182Y-23874460D01*
X9250182Y-23874460D02*
X9231134Y-23883984D01*
X9231134Y-23883984D02*
X9183515Y-23883984D01*
X9183515Y-23883984D02*
X9164467Y-23874460D01*
X9164467Y-23874460D02*
X9154944Y-23864936D01*
X9393039Y-23683984D02*
X9412086Y-23683984D01*
X9412086Y-23683984D02*
X9431134Y-23693508D01*
X9431134Y-23693508D02*
X9440658Y-23703031D01*
X9440658Y-23703031D02*
X9450182Y-23722079D01*
X9450182Y-23722079D02*
X9459705Y-23760174D01*
X9459705Y-23760174D02*
X9459705Y-23807793D01*
X9459705Y-23807793D02*
X9450182Y-23845888D01*
X9450182Y-23845888D02*
X9440658Y-23864936D01*
X9440658Y-23864936D02*
X9431134Y-23874460D01*
X9431134Y-23874460D02*
X9412086Y-23883984D01*
X9412086Y-23883984D02*
X9393039Y-23883984D01*
X9393039Y-23883984D02*
X9373991Y-23874460D01*
X9373991Y-23874460D02*
X9364467Y-23864936D01*
X9364467Y-23864936D02*
X9354944Y-23845888D01*
X9354944Y-23845888D02*
X9345420Y-23807793D01*
X9345420Y-23807793D02*
X9345420Y-23760174D01*
X9345420Y-23760174D02*
X9354944Y-23722079D01*
X9354944Y-23722079D02*
X9364467Y-23703031D01*
X9364467Y-23703031D02*
X9373991Y-23693508D01*
X9373991Y-23693508D02*
X9393039Y-23683984D01*
X9545420Y-23883984D02*
X9545420Y-23750650D01*
X9545420Y-23769698D02*
X9554944Y-23760174D01*
X9554944Y-23760174D02*
X9573991Y-23750650D01*
X9573991Y-23750650D02*
X9602563Y-23750650D01*
X9602563Y-23750650D02*
X9621610Y-23760174D01*
X9621610Y-23760174D02*
X9631134Y-23779222D01*
X9631134Y-23779222D02*
X9631134Y-23883984D01*
X9631134Y-23779222D02*
X9640658Y-23760174D01*
X9640658Y-23760174D02*
X9659705Y-23750650D01*
X9659705Y-23750650D02*
X9688277Y-23750650D01*
X9688277Y-23750650D02*
X9707325Y-23760174D01*
X9707325Y-23760174D02*
X9716848Y-23779222D01*
X9716848Y-23779222D02*
X9716848Y-23883984D01*
X9812086Y-23883984D02*
X9812086Y-23750650D01*
X9812086Y-23769698D02*
X9821610Y-23760174D01*
X9821610Y-23760174D02*
X9840658Y-23750650D01*
X9840658Y-23750650D02*
X9869229Y-23750650D01*
X9869229Y-23750650D02*
X9888277Y-23760174D01*
X9888277Y-23760174D02*
X9897801Y-23779222D01*
X9897801Y-23779222D02*
X9897801Y-23883984D01*
X9897801Y-23779222D02*
X9907325Y-23760174D01*
X9907325Y-23760174D02*
X9926372Y-23750650D01*
X9926372Y-23750650D02*
X9954944Y-23750650D01*
X9954944Y-23750650D02*
X9973991Y-23760174D01*
X9973991Y-23760174D02*
X9983515Y-23779222D01*
X9983515Y-23779222D02*
X9983515Y-23883984D01*
X10373991Y-23674460D02*
X10202563Y-23931603D01*
X10631134Y-23683984D02*
X10650182Y-23683984D01*
X10650182Y-23683984D02*
X10669229Y-23693508D01*
X10669229Y-23693508D02*
X10678753Y-23703031D01*
X10678753Y-23703031D02*
X10688277Y-23722079D01*
X10688277Y-23722079D02*
X10697801Y-23760174D01*
X10697801Y-23760174D02*
X10697801Y-23807793D01*
X10697801Y-23807793D02*
X10688277Y-23845888D01*
X10688277Y-23845888D02*
X10678753Y-23864936D01*
X10678753Y-23864936D02*
X10669229Y-23874460D01*
X10669229Y-23874460D02*
X10650182Y-23883984D01*
X10650182Y-23883984D02*
X10631134Y-23883984D01*
X10631134Y-23883984D02*
X10612087Y-23874460D01*
X10612087Y-23874460D02*
X10602563Y-23864936D01*
X10602563Y-23864936D02*
X10593039Y-23845888D01*
X10593039Y-23845888D02*
X10583515Y-23807793D01*
X10583515Y-23807793D02*
X10583515Y-23760174D01*
X10583515Y-23760174D02*
X10593039Y-23722079D01*
X10593039Y-23722079D02*
X10602563Y-23703031D01*
X10602563Y-23703031D02*
X10612087Y-23693508D01*
X10612087Y-23693508D02*
X10631134Y-23683984D01*
X10783515Y-23864936D02*
X10793039Y-23874460D01*
X10793039Y-23874460D02*
X10783515Y-23883984D01*
X10783515Y-23883984D02*
X10773991Y-23874460D01*
X10773991Y-23874460D02*
X10783515Y-23864936D01*
X10783515Y-23864936D02*
X10783515Y-23883984D01*
X10916848Y-23683984D02*
X10935896Y-23683984D01*
X10935896Y-23683984D02*
X10954944Y-23693508D01*
X10954944Y-23693508D02*
X10964468Y-23703031D01*
X10964468Y-23703031D02*
X10973991Y-23722079D01*
X10973991Y-23722079D02*
X10983515Y-23760174D01*
X10983515Y-23760174D02*
X10983515Y-23807793D01*
X10983515Y-23807793D02*
X10973991Y-23845888D01*
X10973991Y-23845888D02*
X10964468Y-23864936D01*
X10964468Y-23864936D02*
X10954944Y-23874460D01*
X10954944Y-23874460D02*
X10935896Y-23883984D01*
X10935896Y-23883984D02*
X10916848Y-23883984D01*
X10916848Y-23883984D02*
X10897801Y-23874460D01*
X10897801Y-23874460D02*
X10888277Y-23864936D01*
X10888277Y-23864936D02*
X10878753Y-23845888D01*
X10878753Y-23845888D02*
X10869229Y-23807793D01*
X10869229Y-23807793D02*
X10869229Y-23760174D01*
X10869229Y-23760174D02*
X10878753Y-23722079D01*
X10878753Y-23722079D02*
X10888277Y-23703031D01*
X10888277Y-23703031D02*
X10897801Y-23693508D01*
X10897801Y-23693508D02*
X10916848Y-23683984D01*
X11059706Y-23703031D02*
X11069229Y-23693508D01*
X11069229Y-23693508D02*
X11088277Y-23683984D01*
X11088277Y-23683984D02*
X11135896Y-23683984D01*
X11135896Y-23683984D02*
X11154944Y-23693508D01*
X11154944Y-23693508D02*
X11164468Y-23703031D01*
X11164468Y-23703031D02*
X11173991Y-23722079D01*
X11173991Y-23722079D02*
X11173991Y-23741127D01*
X11173991Y-23741127D02*
X11164468Y-23769698D01*
X11164468Y-23769698D02*
X11050182Y-23883984D01*
X11050182Y-23883984D02*
X11173991Y-23883984D01*
X11354944Y-23683984D02*
X11259706Y-23683984D01*
X11259706Y-23683984D02*
X11250182Y-23779222D01*
X11250182Y-23779222D02*
X11259706Y-23769698D01*
X11259706Y-23769698D02*
X11278753Y-23760174D01*
X11278753Y-23760174D02*
X11326372Y-23760174D01*
X11326372Y-23760174D02*
X11345420Y-23769698D01*
X11345420Y-23769698D02*
X11354944Y-23779222D01*
X11354944Y-23779222D02*
X11364467Y-23798269D01*
X11364467Y-23798269D02*
X11364467Y-23845888D01*
X11364467Y-23845888D02*
X11354944Y-23864936D01*
X11354944Y-23864936D02*
X11345420Y-23874460D01*
X11345420Y-23874460D02*
X11326372Y-23883984D01*
X11326372Y-23883984D02*
X11278753Y-23883984D01*
X11278753Y-23883984D02*
X11259706Y-23874460D01*
X11259706Y-23874460D02*
X11250182Y-23864936D01*
X11535896Y-23683984D02*
X11497801Y-23683984D01*
X11497801Y-23683984D02*
X11478753Y-23693508D01*
X11478753Y-23693508D02*
X11469229Y-23703031D01*
X11469229Y-23703031D02*
X11450182Y-23731603D01*
X11450182Y-23731603D02*
X11440658Y-23769698D01*
X11440658Y-23769698D02*
X11440658Y-23845888D01*
X11440658Y-23845888D02*
X11450182Y-23864936D01*
X11450182Y-23864936D02*
X11459706Y-23874460D01*
X11459706Y-23874460D02*
X11478753Y-23883984D01*
X11478753Y-23883984D02*
X11516848Y-23883984D01*
X11516848Y-23883984D02*
X11535896Y-23874460D01*
X11535896Y-23874460D02*
X11545420Y-23864936D01*
X11545420Y-23864936D02*
X11554944Y-23845888D01*
X11554944Y-23845888D02*
X11554944Y-23798269D01*
X11554944Y-23798269D02*
X11545420Y-23779222D01*
X11545420Y-23779222D02*
X11535896Y-23769698D01*
X11535896Y-23769698D02*
X11516848Y-23760174D01*
X11516848Y-23760174D02*
X11478753Y-23760174D01*
X11478753Y-23760174D02*
X11459706Y-23769698D01*
X11459706Y-23769698D02*
X11450182Y-23779222D01*
X11450182Y-23779222D02*
X11440658Y-23798269D01*
X11631134Y-23683984D02*
X11631134Y-23722079D01*
X11707325Y-23683984D02*
X11707325Y-23722079D01*
X12002563Y-23960174D02*
X11993039Y-23950650D01*
X11993039Y-23950650D02*
X11973991Y-23922079D01*
X11973991Y-23922079D02*
X11964468Y-23903031D01*
X11964468Y-23903031D02*
X11954944Y-23874460D01*
X11954944Y-23874460D02*
X11945420Y-23826841D01*
X11945420Y-23826841D02*
X11945420Y-23788746D01*
X11945420Y-23788746D02*
X11954944Y-23741127D01*
X11954944Y-23741127D02*
X11964468Y-23712555D01*
X11964468Y-23712555D02*
X11973991Y-23693508D01*
X11973991Y-23693508D02*
X11993039Y-23664936D01*
X11993039Y-23664936D02*
X12002563Y-23655412D01*
X12069229Y-23703031D02*
X12078753Y-23693508D01*
X12078753Y-23693508D02*
X12097801Y-23683984D01*
X12097801Y-23683984D02*
X12145420Y-23683984D01*
X12145420Y-23683984D02*
X12164468Y-23693508D01*
X12164468Y-23693508D02*
X12173991Y-23703031D01*
X12173991Y-23703031D02*
X12183515Y-23722079D01*
X12183515Y-23722079D02*
X12183515Y-23741127D01*
X12183515Y-23741127D02*
X12173991Y-23769698D01*
X12173991Y-23769698D02*
X12059706Y-23883984D01*
X12059706Y-23883984D02*
X12183515Y-23883984D01*
X12421610Y-23883984D02*
X12421610Y-23683984D01*
X12507325Y-23883984D02*
X12507325Y-23779222D01*
X12507325Y-23779222D02*
X12497801Y-23760174D01*
X12497801Y-23760174D02*
X12478753Y-23750650D01*
X12478753Y-23750650D02*
X12450182Y-23750650D01*
X12450182Y-23750650D02*
X12431134Y-23760174D01*
X12431134Y-23760174D02*
X12421610Y-23769698D01*
X12631134Y-23883984D02*
X12612087Y-23874460D01*
X12612087Y-23874460D02*
X12602563Y-23864936D01*
X12602563Y-23864936D02*
X12593039Y-23845888D01*
X12593039Y-23845888D02*
X12593039Y-23788746D01*
X12593039Y-23788746D02*
X12602563Y-23769698D01*
X12602563Y-23769698D02*
X12612087Y-23760174D01*
X12612087Y-23760174D02*
X12631134Y-23750650D01*
X12631134Y-23750650D02*
X12659706Y-23750650D01*
X12659706Y-23750650D02*
X12678753Y-23760174D01*
X12678753Y-23760174D02*
X12688277Y-23769698D01*
X12688277Y-23769698D02*
X12697801Y-23788746D01*
X12697801Y-23788746D02*
X12697801Y-23845888D01*
X12697801Y-23845888D02*
X12688277Y-23864936D01*
X12688277Y-23864936D02*
X12678753Y-23874460D01*
X12678753Y-23874460D02*
X12659706Y-23883984D01*
X12659706Y-23883984D02*
X12631134Y-23883984D01*
X12812087Y-23883984D02*
X12793039Y-23874460D01*
X12793039Y-23874460D02*
X12783515Y-23855412D01*
X12783515Y-23855412D02*
X12783515Y-23683984D01*
X12964468Y-23874460D02*
X12945420Y-23883984D01*
X12945420Y-23883984D02*
X12907325Y-23883984D01*
X12907325Y-23883984D02*
X12888277Y-23874460D01*
X12888277Y-23874460D02*
X12878753Y-23855412D01*
X12878753Y-23855412D02*
X12878753Y-23779222D01*
X12878753Y-23779222D02*
X12888277Y-23760174D01*
X12888277Y-23760174D02*
X12907325Y-23750650D01*
X12907325Y-23750650D02*
X12945420Y-23750650D01*
X12945420Y-23750650D02*
X12964468Y-23760174D01*
X12964468Y-23760174D02*
X12973991Y-23779222D01*
X12973991Y-23779222D02*
X12973991Y-23798269D01*
X12973991Y-23798269D02*
X12878753Y-23817317D01*
X13050182Y-23874460D02*
X13069230Y-23883984D01*
X13069230Y-23883984D02*
X13107325Y-23883984D01*
X13107325Y-23883984D02*
X13126372Y-23874460D01*
X13126372Y-23874460D02*
X13135896Y-23855412D01*
X13135896Y-23855412D02*
X13135896Y-23845888D01*
X13135896Y-23845888D02*
X13126372Y-23826841D01*
X13126372Y-23826841D02*
X13107325Y-23817317D01*
X13107325Y-23817317D02*
X13078753Y-23817317D01*
X13078753Y-23817317D02*
X13059706Y-23807793D01*
X13059706Y-23807793D02*
X13050182Y-23788746D01*
X13050182Y-23788746D02*
X13050182Y-23779222D01*
X13050182Y-23779222D02*
X13059706Y-23760174D01*
X13059706Y-23760174D02*
X13078753Y-23750650D01*
X13078753Y-23750650D02*
X13107325Y-23750650D01*
X13107325Y-23750650D02*
X13126372Y-23760174D01*
X13202563Y-23960174D02*
X13212087Y-23950650D01*
X13212087Y-23950650D02*
X13231134Y-23922079D01*
X13231134Y-23922079D02*
X13240658Y-23903031D01*
X13240658Y-23903031D02*
X13250182Y-23874460D01*
X13250182Y-23874460D02*
X13259706Y-23826841D01*
X13259706Y-23826841D02*
X13259706Y-23788746D01*
X13259706Y-23788746D02*
X13250182Y-23741127D01*
X13250182Y-23741127D02*
X13240658Y-23712555D01*
X13240658Y-23712555D02*
X13231134Y-23693508D01*
X13231134Y-23693508D02*
X13212087Y-23664936D01*
X13212087Y-23664936D02*
X13202563Y-23655412D01*
X13564468Y-23960174D02*
X13554944Y-23950650D01*
X13554944Y-23950650D02*
X13535896Y-23922079D01*
X13535896Y-23922079D02*
X13526372Y-23903031D01*
X13526372Y-23903031D02*
X13516849Y-23874460D01*
X13516849Y-23874460D02*
X13507325Y-23826841D01*
X13507325Y-23826841D02*
X13507325Y-23788746D01*
X13507325Y-23788746D02*
X13516849Y-23741127D01*
X13516849Y-23741127D02*
X13526372Y-23712555D01*
X13526372Y-23712555D02*
X13535896Y-23693508D01*
X13535896Y-23693508D02*
X13554944Y-23664936D01*
X13554944Y-23664936D02*
X13564468Y-23655412D01*
X13640658Y-23750650D02*
X13640658Y-23883984D01*
X13640658Y-23769698D02*
X13650182Y-23760174D01*
X13650182Y-23760174D02*
X13669230Y-23750650D01*
X13669230Y-23750650D02*
X13697801Y-23750650D01*
X13697801Y-23750650D02*
X13716849Y-23760174D01*
X13716849Y-23760174D02*
X13726372Y-23779222D01*
X13726372Y-23779222D02*
X13726372Y-23883984D01*
X13850182Y-23883984D02*
X13831134Y-23874460D01*
X13831134Y-23874460D02*
X13821611Y-23864936D01*
X13821611Y-23864936D02*
X13812087Y-23845888D01*
X13812087Y-23845888D02*
X13812087Y-23788746D01*
X13812087Y-23788746D02*
X13821611Y-23769698D01*
X13821611Y-23769698D02*
X13831134Y-23760174D01*
X13831134Y-23760174D02*
X13850182Y-23750650D01*
X13850182Y-23750650D02*
X13878753Y-23750650D01*
X13878753Y-23750650D02*
X13897801Y-23760174D01*
X13897801Y-23760174D02*
X13907325Y-23769698D01*
X13907325Y-23769698D02*
X13916849Y-23788746D01*
X13916849Y-23788746D02*
X13916849Y-23845888D01*
X13916849Y-23845888D02*
X13907325Y-23864936D01*
X13907325Y-23864936D02*
X13897801Y-23874460D01*
X13897801Y-23874460D02*
X13878753Y-23883984D01*
X13878753Y-23883984D02*
X13850182Y-23883984D01*
X13973992Y-23750650D02*
X14050182Y-23750650D01*
X14002563Y-23683984D02*
X14002563Y-23855412D01*
X14002563Y-23855412D02*
X14012087Y-23874460D01*
X14012087Y-23874460D02*
X14031134Y-23883984D01*
X14031134Y-23883984D02*
X14050182Y-23883984D01*
X14269230Y-23750650D02*
X14269230Y-23950650D01*
X14269230Y-23760174D02*
X14288277Y-23750650D01*
X14288277Y-23750650D02*
X14326373Y-23750650D01*
X14326373Y-23750650D02*
X14345420Y-23760174D01*
X14345420Y-23760174D02*
X14354944Y-23769698D01*
X14354944Y-23769698D02*
X14364468Y-23788746D01*
X14364468Y-23788746D02*
X14364468Y-23845888D01*
X14364468Y-23845888D02*
X14354944Y-23864936D01*
X14354944Y-23864936D02*
X14345420Y-23874460D01*
X14345420Y-23874460D02*
X14326373Y-23883984D01*
X14326373Y-23883984D02*
X14288277Y-23883984D01*
X14288277Y-23883984D02*
X14269230Y-23874460D01*
X14478753Y-23883984D02*
X14459706Y-23874460D01*
X14459706Y-23874460D02*
X14450182Y-23855412D01*
X14450182Y-23855412D02*
X14450182Y-23683984D01*
X14640658Y-23883984D02*
X14640658Y-23779222D01*
X14640658Y-23779222D02*
X14631134Y-23760174D01*
X14631134Y-23760174D02*
X14612087Y-23750650D01*
X14612087Y-23750650D02*
X14573992Y-23750650D01*
X14573992Y-23750650D02*
X14554944Y-23760174D01*
X14640658Y-23874460D02*
X14621611Y-23883984D01*
X14621611Y-23883984D02*
X14573992Y-23883984D01*
X14573992Y-23883984D02*
X14554944Y-23874460D01*
X14554944Y-23874460D02*
X14545420Y-23855412D01*
X14545420Y-23855412D02*
X14545420Y-23836365D01*
X14545420Y-23836365D02*
X14554944Y-23817317D01*
X14554944Y-23817317D02*
X14573992Y-23807793D01*
X14573992Y-23807793D02*
X14621611Y-23807793D01*
X14621611Y-23807793D02*
X14640658Y-23798269D01*
X14707325Y-23750650D02*
X14783515Y-23750650D01*
X14735896Y-23683984D02*
X14735896Y-23855412D01*
X14735896Y-23855412D02*
X14745420Y-23874460D01*
X14745420Y-23874460D02*
X14764468Y-23883984D01*
X14764468Y-23883984D02*
X14783515Y-23883984D01*
X14926373Y-23874460D02*
X14907325Y-23883984D01*
X14907325Y-23883984D02*
X14869230Y-23883984D01*
X14869230Y-23883984D02*
X14850182Y-23874460D01*
X14850182Y-23874460D02*
X14840658Y-23855412D01*
X14840658Y-23855412D02*
X14840658Y-23779222D01*
X14840658Y-23779222D02*
X14850182Y-23760174D01*
X14850182Y-23760174D02*
X14869230Y-23750650D01*
X14869230Y-23750650D02*
X14907325Y-23750650D01*
X14907325Y-23750650D02*
X14926373Y-23760174D01*
X14926373Y-23760174D02*
X14935896Y-23779222D01*
X14935896Y-23779222D02*
X14935896Y-23798269D01*
X14935896Y-23798269D02*
X14840658Y-23817317D01*
X15107325Y-23883984D02*
X15107325Y-23683984D01*
X15107325Y-23874460D02*
X15088277Y-23883984D01*
X15088277Y-23883984D02*
X15050182Y-23883984D01*
X15050182Y-23883984D02*
X15031134Y-23874460D01*
X15031134Y-23874460D02*
X15021611Y-23864936D01*
X15021611Y-23864936D02*
X15012087Y-23845888D01*
X15012087Y-23845888D02*
X15012087Y-23788746D01*
X15012087Y-23788746D02*
X15021611Y-23769698D01*
X15021611Y-23769698D02*
X15031134Y-23760174D01*
X15031134Y-23760174D02*
X15050182Y-23750650D01*
X15050182Y-23750650D02*
X15088277Y-23750650D01*
X15088277Y-23750650D02*
X15107325Y-23760174D01*
X15183515Y-23960174D02*
X15193039Y-23950650D01*
X15193039Y-23950650D02*
X15212087Y-23922079D01*
X15212087Y-23922079D02*
X15221611Y-23903031D01*
X15221611Y-23903031D02*
X15231134Y-23874460D01*
X15231134Y-23874460D02*
X15240658Y-23826841D01*
X15240658Y-23826841D02*
X15240658Y-23788746D01*
X15240658Y-23788746D02*
X15231134Y-23741127D01*
X15231134Y-23741127D02*
X15221611Y-23712555D01*
X15221611Y-23712555D02*
X15212087Y-23693508D01*
X15212087Y-23693508D02*
X15193039Y-23664936D01*
X15193039Y-23664936D02*
X15183515Y-23655412D01*
X8427500Y-24056500D02*
G75*
G02*
X8227500Y-24056500I-100000J0D01*
G01*
X8227500Y-24056500D02*
G75*
G02*
X8427500Y-24056500I100000J0D01*
G01*
X8669229Y-23947984D02*
X8793039Y-23947984D01*
X8793039Y-23947984D02*
X8726372Y-24024174D01*
X8726372Y-24024174D02*
X8754944Y-24024174D01*
X8754944Y-24024174D02*
X8773991Y-24033698D01*
X8773991Y-24033698D02*
X8783515Y-24043222D01*
X8783515Y-24043222D02*
X8793039Y-24062269D01*
X8793039Y-24062269D02*
X8793039Y-24109888D01*
X8793039Y-24109888D02*
X8783515Y-24128936D01*
X8783515Y-24128936D02*
X8773991Y-24138460D01*
X8773991Y-24138460D02*
X8754944Y-24147984D01*
X8754944Y-24147984D02*
X8697801Y-24147984D01*
X8697801Y-24147984D02*
X8678753Y-24138460D01*
X8678753Y-24138460D02*
X8669229Y-24128936D01*
X8878753Y-24128936D02*
X8888277Y-24138460D01*
X8888277Y-24138460D02*
X8878753Y-24147984D01*
X8878753Y-24147984D02*
X8869229Y-24138460D01*
X8869229Y-24138460D02*
X8878753Y-24128936D01*
X8878753Y-24128936D02*
X8878753Y-24147984D01*
X9012086Y-23947984D02*
X9031134Y-23947984D01*
X9031134Y-23947984D02*
X9050182Y-23957508D01*
X9050182Y-23957508D02*
X9059705Y-23967031D01*
X9059705Y-23967031D02*
X9069229Y-23986079D01*
X9069229Y-23986079D02*
X9078753Y-24024174D01*
X9078753Y-24024174D02*
X9078753Y-24071793D01*
X9078753Y-24071793D02*
X9069229Y-24109888D01*
X9069229Y-24109888D02*
X9059705Y-24128936D01*
X9059705Y-24128936D02*
X9050182Y-24138460D01*
X9050182Y-24138460D02*
X9031134Y-24147984D01*
X9031134Y-24147984D02*
X9012086Y-24147984D01*
X9012086Y-24147984D02*
X8993039Y-24138460D01*
X8993039Y-24138460D02*
X8983515Y-24128936D01*
X8983515Y-24128936D02*
X8973991Y-24109888D01*
X8973991Y-24109888D02*
X8964467Y-24071793D01*
X8964467Y-24071793D02*
X8964467Y-24024174D01*
X8964467Y-24024174D02*
X8973991Y-23986079D01*
X8973991Y-23986079D02*
X8983515Y-23967031D01*
X8983515Y-23967031D02*
X8993039Y-23957508D01*
X8993039Y-23957508D02*
X9012086Y-23947984D01*
X9202563Y-23947984D02*
X9221610Y-23947984D01*
X9221610Y-23947984D02*
X9240658Y-23957508D01*
X9240658Y-23957508D02*
X9250182Y-23967031D01*
X9250182Y-23967031D02*
X9259705Y-23986079D01*
X9259705Y-23986079D02*
X9269229Y-24024174D01*
X9269229Y-24024174D02*
X9269229Y-24071793D01*
X9269229Y-24071793D02*
X9259705Y-24109888D01*
X9259705Y-24109888D02*
X9250182Y-24128936D01*
X9250182Y-24128936D02*
X9240658Y-24138460D01*
X9240658Y-24138460D02*
X9221610Y-24147984D01*
X9221610Y-24147984D02*
X9202563Y-24147984D01*
X9202563Y-24147984D02*
X9183515Y-24138460D01*
X9183515Y-24138460D02*
X9173991Y-24128936D01*
X9173991Y-24128936D02*
X9164467Y-24109888D01*
X9164467Y-24109888D02*
X9154944Y-24071793D01*
X9154944Y-24071793D02*
X9154944Y-24024174D01*
X9154944Y-24024174D02*
X9164467Y-23986079D01*
X9164467Y-23986079D02*
X9173991Y-23967031D01*
X9173991Y-23967031D02*
X9183515Y-23957508D01*
X9183515Y-23957508D02*
X9202563Y-23947984D01*
X9393039Y-23947984D02*
X9412086Y-23947984D01*
X9412086Y-23947984D02*
X9431134Y-23957508D01*
X9431134Y-23957508D02*
X9440658Y-23967031D01*
X9440658Y-23967031D02*
X9450182Y-23986079D01*
X9450182Y-23986079D02*
X9459705Y-24024174D01*
X9459705Y-24024174D02*
X9459705Y-24071793D01*
X9459705Y-24071793D02*
X9450182Y-24109888D01*
X9450182Y-24109888D02*
X9440658Y-24128936D01*
X9440658Y-24128936D02*
X9431134Y-24138460D01*
X9431134Y-24138460D02*
X9412086Y-24147984D01*
X9412086Y-24147984D02*
X9393039Y-24147984D01*
X9393039Y-24147984D02*
X9373991Y-24138460D01*
X9373991Y-24138460D02*
X9364467Y-24128936D01*
X9364467Y-24128936D02*
X9354944Y-24109888D01*
X9354944Y-24109888D02*
X9345420Y-24071793D01*
X9345420Y-24071793D02*
X9345420Y-24024174D01*
X9345420Y-24024174D02*
X9354944Y-23986079D01*
X9354944Y-23986079D02*
X9364467Y-23967031D01*
X9364467Y-23967031D02*
X9373991Y-23957508D01*
X9373991Y-23957508D02*
X9393039Y-23947984D01*
X9545420Y-24147984D02*
X9545420Y-24014650D01*
X9545420Y-24033698D02*
X9554944Y-24024174D01*
X9554944Y-24024174D02*
X9573991Y-24014650D01*
X9573991Y-24014650D02*
X9602563Y-24014650D01*
X9602563Y-24014650D02*
X9621610Y-24024174D01*
X9621610Y-24024174D02*
X9631134Y-24043222D01*
X9631134Y-24043222D02*
X9631134Y-24147984D01*
X9631134Y-24043222D02*
X9640658Y-24024174D01*
X9640658Y-24024174D02*
X9659705Y-24014650D01*
X9659705Y-24014650D02*
X9688277Y-24014650D01*
X9688277Y-24014650D02*
X9707325Y-24024174D01*
X9707325Y-24024174D02*
X9716848Y-24043222D01*
X9716848Y-24043222D02*
X9716848Y-24147984D01*
X9812086Y-24147984D02*
X9812086Y-24014650D01*
X9812086Y-24033698D02*
X9821610Y-24024174D01*
X9821610Y-24024174D02*
X9840658Y-24014650D01*
X9840658Y-24014650D02*
X9869229Y-24014650D01*
X9869229Y-24014650D02*
X9888277Y-24024174D01*
X9888277Y-24024174D02*
X9897801Y-24043222D01*
X9897801Y-24043222D02*
X9897801Y-24147984D01*
X9897801Y-24043222D02*
X9907325Y-24024174D01*
X9907325Y-24024174D02*
X9926372Y-24014650D01*
X9926372Y-24014650D02*
X9954944Y-24014650D01*
X9954944Y-24014650D02*
X9973991Y-24024174D01*
X9973991Y-24024174D02*
X9983515Y-24043222D01*
X9983515Y-24043222D02*
X9983515Y-24147984D01*
X10373991Y-23938460D02*
X10202563Y-24195603D01*
X10631134Y-23947984D02*
X10650182Y-23947984D01*
X10650182Y-23947984D02*
X10669229Y-23957508D01*
X10669229Y-23957508D02*
X10678753Y-23967031D01*
X10678753Y-23967031D02*
X10688277Y-23986079D01*
X10688277Y-23986079D02*
X10697801Y-24024174D01*
X10697801Y-24024174D02*
X10697801Y-24071793D01*
X10697801Y-24071793D02*
X10688277Y-24109888D01*
X10688277Y-24109888D02*
X10678753Y-24128936D01*
X10678753Y-24128936D02*
X10669229Y-24138460D01*
X10669229Y-24138460D02*
X10650182Y-24147984D01*
X10650182Y-24147984D02*
X10631134Y-24147984D01*
X10631134Y-24147984D02*
X10612087Y-24138460D01*
X10612087Y-24138460D02*
X10602563Y-24128936D01*
X10602563Y-24128936D02*
X10593039Y-24109888D01*
X10593039Y-24109888D02*
X10583515Y-24071793D01*
X10583515Y-24071793D02*
X10583515Y-24024174D01*
X10583515Y-24024174D02*
X10593039Y-23986079D01*
X10593039Y-23986079D02*
X10602563Y-23967031D01*
X10602563Y-23967031D02*
X10612087Y-23957508D01*
X10612087Y-23957508D02*
X10631134Y-23947984D01*
X10783515Y-24128936D02*
X10793039Y-24138460D01*
X10793039Y-24138460D02*
X10783515Y-24147984D01*
X10783515Y-24147984D02*
X10773991Y-24138460D01*
X10773991Y-24138460D02*
X10783515Y-24128936D01*
X10783515Y-24128936D02*
X10783515Y-24147984D01*
X10983515Y-24147984D02*
X10869229Y-24147984D01*
X10926372Y-24147984D02*
X10926372Y-23947984D01*
X10926372Y-23947984D02*
X10907325Y-23976555D01*
X10907325Y-23976555D02*
X10888277Y-23995603D01*
X10888277Y-23995603D02*
X10869229Y-24005127D01*
X11173991Y-24147984D02*
X11059706Y-24147984D01*
X11116848Y-24147984D02*
X11116848Y-23947984D01*
X11116848Y-23947984D02*
X11097801Y-23976555D01*
X11097801Y-23976555D02*
X11078753Y-23995603D01*
X11078753Y-23995603D02*
X11059706Y-24005127D01*
X11288277Y-24033698D02*
X11269229Y-24024174D01*
X11269229Y-24024174D02*
X11259706Y-24014650D01*
X11259706Y-24014650D02*
X11250182Y-23995603D01*
X11250182Y-23995603D02*
X11250182Y-23986079D01*
X11250182Y-23986079D02*
X11259706Y-23967031D01*
X11259706Y-23967031D02*
X11269229Y-23957508D01*
X11269229Y-23957508D02*
X11288277Y-23947984D01*
X11288277Y-23947984D02*
X11326372Y-23947984D01*
X11326372Y-23947984D02*
X11345420Y-23957508D01*
X11345420Y-23957508D02*
X11354944Y-23967031D01*
X11354944Y-23967031D02*
X11364467Y-23986079D01*
X11364467Y-23986079D02*
X11364467Y-23995603D01*
X11364467Y-23995603D02*
X11354944Y-24014650D01*
X11354944Y-24014650D02*
X11345420Y-24024174D01*
X11345420Y-24024174D02*
X11326372Y-24033698D01*
X11326372Y-24033698D02*
X11288277Y-24033698D01*
X11288277Y-24033698D02*
X11269229Y-24043222D01*
X11269229Y-24043222D02*
X11259706Y-24052746D01*
X11259706Y-24052746D02*
X11250182Y-24071793D01*
X11250182Y-24071793D02*
X11250182Y-24109888D01*
X11250182Y-24109888D02*
X11259706Y-24128936D01*
X11259706Y-24128936D02*
X11269229Y-24138460D01*
X11269229Y-24138460D02*
X11288277Y-24147984D01*
X11288277Y-24147984D02*
X11326372Y-24147984D01*
X11326372Y-24147984D02*
X11345420Y-24138460D01*
X11345420Y-24138460D02*
X11354944Y-24128936D01*
X11354944Y-24128936D02*
X11364467Y-24109888D01*
X11364467Y-24109888D02*
X11364467Y-24071793D01*
X11364467Y-24071793D02*
X11354944Y-24052746D01*
X11354944Y-24052746D02*
X11345420Y-24043222D01*
X11345420Y-24043222D02*
X11326372Y-24033698D01*
X11554944Y-24147984D02*
X11440658Y-24147984D01*
X11497801Y-24147984D02*
X11497801Y-23947984D01*
X11497801Y-23947984D02*
X11478753Y-23976555D01*
X11478753Y-23976555D02*
X11459706Y-23995603D01*
X11459706Y-23995603D02*
X11440658Y-24005127D01*
X11631134Y-23947984D02*
X11631134Y-23986079D01*
X11707325Y-23947984D02*
X11707325Y-23986079D01*
X12002563Y-24224174D02*
X11993039Y-24214650D01*
X11993039Y-24214650D02*
X11973991Y-24186079D01*
X11973991Y-24186079D02*
X11964468Y-24167031D01*
X11964468Y-24167031D02*
X11954944Y-24138460D01*
X11954944Y-24138460D02*
X11945420Y-24090841D01*
X11945420Y-24090841D02*
X11945420Y-24052746D01*
X11945420Y-24052746D02*
X11954944Y-24005127D01*
X11954944Y-24005127D02*
X11964468Y-23976555D01*
X11964468Y-23976555D02*
X11973991Y-23957508D01*
X11973991Y-23957508D02*
X11993039Y-23928936D01*
X11993039Y-23928936D02*
X12002563Y-23919412D01*
X12069229Y-23967031D02*
X12078753Y-23957508D01*
X12078753Y-23957508D02*
X12097801Y-23947984D01*
X12097801Y-23947984D02*
X12145420Y-23947984D01*
X12145420Y-23947984D02*
X12164468Y-23957508D01*
X12164468Y-23957508D02*
X12173991Y-23967031D01*
X12173991Y-23967031D02*
X12183515Y-23986079D01*
X12183515Y-23986079D02*
X12183515Y-24005127D01*
X12183515Y-24005127D02*
X12173991Y-24033698D01*
X12173991Y-24033698D02*
X12059706Y-24147984D01*
X12059706Y-24147984D02*
X12183515Y-24147984D01*
X12421610Y-24147984D02*
X12421610Y-23947984D01*
X12507325Y-24147984D02*
X12507325Y-24043222D01*
X12507325Y-24043222D02*
X12497801Y-24024174D01*
X12497801Y-24024174D02*
X12478753Y-24014650D01*
X12478753Y-24014650D02*
X12450182Y-24014650D01*
X12450182Y-24014650D02*
X12431134Y-24024174D01*
X12431134Y-24024174D02*
X12421610Y-24033698D01*
X12631134Y-24147984D02*
X12612087Y-24138460D01*
X12612087Y-24138460D02*
X12602563Y-24128936D01*
X12602563Y-24128936D02*
X12593039Y-24109888D01*
X12593039Y-24109888D02*
X12593039Y-24052746D01*
X12593039Y-24052746D02*
X12602563Y-24033698D01*
X12602563Y-24033698D02*
X12612087Y-24024174D01*
X12612087Y-24024174D02*
X12631134Y-24014650D01*
X12631134Y-24014650D02*
X12659706Y-24014650D01*
X12659706Y-24014650D02*
X12678753Y-24024174D01*
X12678753Y-24024174D02*
X12688277Y-24033698D01*
X12688277Y-24033698D02*
X12697801Y-24052746D01*
X12697801Y-24052746D02*
X12697801Y-24109888D01*
X12697801Y-24109888D02*
X12688277Y-24128936D01*
X12688277Y-24128936D02*
X12678753Y-24138460D01*
X12678753Y-24138460D02*
X12659706Y-24147984D01*
X12659706Y-24147984D02*
X12631134Y-24147984D01*
X12812087Y-24147984D02*
X12793039Y-24138460D01*
X12793039Y-24138460D02*
X12783515Y-24119412D01*
X12783515Y-24119412D02*
X12783515Y-23947984D01*
X12964468Y-24138460D02*
X12945420Y-24147984D01*
X12945420Y-24147984D02*
X12907325Y-24147984D01*
X12907325Y-24147984D02*
X12888277Y-24138460D01*
X12888277Y-24138460D02*
X12878753Y-24119412D01*
X12878753Y-24119412D02*
X12878753Y-24043222D01*
X12878753Y-24043222D02*
X12888277Y-24024174D01*
X12888277Y-24024174D02*
X12907325Y-24014650D01*
X12907325Y-24014650D02*
X12945420Y-24014650D01*
X12945420Y-24014650D02*
X12964468Y-24024174D01*
X12964468Y-24024174D02*
X12973991Y-24043222D01*
X12973991Y-24043222D02*
X12973991Y-24062269D01*
X12973991Y-24062269D02*
X12878753Y-24081317D01*
X13050182Y-24138460D02*
X13069230Y-24147984D01*
X13069230Y-24147984D02*
X13107325Y-24147984D01*
X13107325Y-24147984D02*
X13126372Y-24138460D01*
X13126372Y-24138460D02*
X13135896Y-24119412D01*
X13135896Y-24119412D02*
X13135896Y-24109888D01*
X13135896Y-24109888D02*
X13126372Y-24090841D01*
X13126372Y-24090841D02*
X13107325Y-24081317D01*
X13107325Y-24081317D02*
X13078753Y-24081317D01*
X13078753Y-24081317D02*
X13059706Y-24071793D01*
X13059706Y-24071793D02*
X13050182Y-24052746D01*
X13050182Y-24052746D02*
X13050182Y-24043222D01*
X13050182Y-24043222D02*
X13059706Y-24024174D01*
X13059706Y-24024174D02*
X13078753Y-24014650D01*
X13078753Y-24014650D02*
X13107325Y-24014650D01*
X13107325Y-24014650D02*
X13126372Y-24024174D01*
X13202563Y-24224174D02*
X13212087Y-24214650D01*
X13212087Y-24214650D02*
X13231134Y-24186079D01*
X13231134Y-24186079D02*
X13240658Y-24167031D01*
X13240658Y-24167031D02*
X13250182Y-24138460D01*
X13250182Y-24138460D02*
X13259706Y-24090841D01*
X13259706Y-24090841D02*
X13259706Y-24052746D01*
X13259706Y-24052746D02*
X13250182Y-24005127D01*
X13250182Y-24005127D02*
X13240658Y-23976555D01*
X13240658Y-23976555D02*
X13231134Y-23957508D01*
X13231134Y-23957508D02*
X13212087Y-23928936D01*
X13212087Y-23928936D02*
X13202563Y-23919412D01*
X13564468Y-24224174D02*
X13554944Y-24214650D01*
X13554944Y-24214650D02*
X13535896Y-24186079D01*
X13535896Y-24186079D02*
X13526372Y-24167031D01*
X13526372Y-24167031D02*
X13516849Y-24138460D01*
X13516849Y-24138460D02*
X13507325Y-24090841D01*
X13507325Y-24090841D02*
X13507325Y-24052746D01*
X13507325Y-24052746D02*
X13516849Y-24005127D01*
X13516849Y-24005127D02*
X13526372Y-23976555D01*
X13526372Y-23976555D02*
X13535896Y-23957508D01*
X13535896Y-23957508D02*
X13554944Y-23928936D01*
X13554944Y-23928936D02*
X13564468Y-23919412D01*
X13640658Y-24014650D02*
X13640658Y-24147984D01*
X13640658Y-24033698D02*
X13650182Y-24024174D01*
X13650182Y-24024174D02*
X13669230Y-24014650D01*
X13669230Y-24014650D02*
X13697801Y-24014650D01*
X13697801Y-24014650D02*
X13716849Y-24024174D01*
X13716849Y-24024174D02*
X13726372Y-24043222D01*
X13726372Y-24043222D02*
X13726372Y-24147984D01*
X13850182Y-24147984D02*
X13831134Y-24138460D01*
X13831134Y-24138460D02*
X13821611Y-24128936D01*
X13821611Y-24128936D02*
X13812087Y-24109888D01*
X13812087Y-24109888D02*
X13812087Y-24052746D01*
X13812087Y-24052746D02*
X13821611Y-24033698D01*
X13821611Y-24033698D02*
X13831134Y-24024174D01*
X13831134Y-24024174D02*
X13850182Y-24014650D01*
X13850182Y-24014650D02*
X13878753Y-24014650D01*
X13878753Y-24014650D02*
X13897801Y-24024174D01*
X13897801Y-24024174D02*
X13907325Y-24033698D01*
X13907325Y-24033698D02*
X13916849Y-24052746D01*
X13916849Y-24052746D02*
X13916849Y-24109888D01*
X13916849Y-24109888D02*
X13907325Y-24128936D01*
X13907325Y-24128936D02*
X13897801Y-24138460D01*
X13897801Y-24138460D02*
X13878753Y-24147984D01*
X13878753Y-24147984D02*
X13850182Y-24147984D01*
X13973992Y-24014650D02*
X14050182Y-24014650D01*
X14002563Y-23947984D02*
X14002563Y-24119412D01*
X14002563Y-24119412D02*
X14012087Y-24138460D01*
X14012087Y-24138460D02*
X14031134Y-24147984D01*
X14031134Y-24147984D02*
X14050182Y-24147984D01*
X14269230Y-24014650D02*
X14269230Y-24214650D01*
X14269230Y-24024174D02*
X14288277Y-24014650D01*
X14288277Y-24014650D02*
X14326373Y-24014650D01*
X14326373Y-24014650D02*
X14345420Y-24024174D01*
X14345420Y-24024174D02*
X14354944Y-24033698D01*
X14354944Y-24033698D02*
X14364468Y-24052746D01*
X14364468Y-24052746D02*
X14364468Y-24109888D01*
X14364468Y-24109888D02*
X14354944Y-24128936D01*
X14354944Y-24128936D02*
X14345420Y-24138460D01*
X14345420Y-24138460D02*
X14326373Y-24147984D01*
X14326373Y-24147984D02*
X14288277Y-24147984D01*
X14288277Y-24147984D02*
X14269230Y-24138460D01*
X14478753Y-24147984D02*
X14459706Y-24138460D01*
X14459706Y-24138460D02*
X14450182Y-24119412D01*
X14450182Y-24119412D02*
X14450182Y-23947984D01*
X14640658Y-24147984D02*
X14640658Y-24043222D01*
X14640658Y-24043222D02*
X14631134Y-24024174D01*
X14631134Y-24024174D02*
X14612087Y-24014650D01*
X14612087Y-24014650D02*
X14573992Y-24014650D01*
X14573992Y-24014650D02*
X14554944Y-24024174D01*
X14640658Y-24138460D02*
X14621611Y-24147984D01*
X14621611Y-24147984D02*
X14573992Y-24147984D01*
X14573992Y-24147984D02*
X14554944Y-24138460D01*
X14554944Y-24138460D02*
X14545420Y-24119412D01*
X14545420Y-24119412D02*
X14545420Y-24100365D01*
X14545420Y-24100365D02*
X14554944Y-24081317D01*
X14554944Y-24081317D02*
X14573992Y-24071793D01*
X14573992Y-24071793D02*
X14621611Y-24071793D01*
X14621611Y-24071793D02*
X14640658Y-24062269D01*
X14707325Y-24014650D02*
X14783515Y-24014650D01*
X14735896Y-23947984D02*
X14735896Y-24119412D01*
X14735896Y-24119412D02*
X14745420Y-24138460D01*
X14745420Y-24138460D02*
X14764468Y-24147984D01*
X14764468Y-24147984D02*
X14783515Y-24147984D01*
X14926373Y-24138460D02*
X14907325Y-24147984D01*
X14907325Y-24147984D02*
X14869230Y-24147984D01*
X14869230Y-24147984D02*
X14850182Y-24138460D01*
X14850182Y-24138460D02*
X14840658Y-24119412D01*
X14840658Y-24119412D02*
X14840658Y-24043222D01*
X14840658Y-24043222D02*
X14850182Y-24024174D01*
X14850182Y-24024174D02*
X14869230Y-24014650D01*
X14869230Y-24014650D02*
X14907325Y-24014650D01*
X14907325Y-24014650D02*
X14926373Y-24024174D01*
X14926373Y-24024174D02*
X14935896Y-24043222D01*
X14935896Y-24043222D02*
X14935896Y-24062269D01*
X14935896Y-24062269D02*
X14840658Y-24081317D01*
X15107325Y-24147984D02*
X15107325Y-23947984D01*
X15107325Y-24138460D02*
X15088277Y-24147984D01*
X15088277Y-24147984D02*
X15050182Y-24147984D01*
X15050182Y-24147984D02*
X15031134Y-24138460D01*
X15031134Y-24138460D02*
X15021611Y-24128936D01*
X15021611Y-24128936D02*
X15012087Y-24109888D01*
X15012087Y-24109888D02*
X15012087Y-24052746D01*
X15012087Y-24052746D02*
X15021611Y-24033698D01*
X15021611Y-24033698D02*
X15031134Y-24024174D01*
X15031134Y-24024174D02*
X15050182Y-24014650D01*
X15050182Y-24014650D02*
X15088277Y-24014650D01*
X15088277Y-24014650D02*
X15107325Y-24024174D01*
X15183515Y-24224174D02*
X15193039Y-24214650D01*
X15193039Y-24214650D02*
X15212087Y-24186079D01*
X15212087Y-24186079D02*
X15221611Y-24167031D01*
X15221611Y-24167031D02*
X15231134Y-24138460D01*
X15231134Y-24138460D02*
X15240658Y-24090841D01*
X15240658Y-24090841D02*
X15240658Y-24052746D01*
X15240658Y-24052746D02*
X15231134Y-24005127D01*
X15231134Y-24005127D02*
X15221611Y-23976555D01*
X15221611Y-23976555D02*
X15212087Y-23957508D01*
X15212087Y-23957508D02*
X15193039Y-23928936D01*
X15193039Y-23928936D02*
X15183515Y-23919412D01*
M02*
