M48
; DRILL file {KiCad 8.0.7} date 2025-01-01T13:35:29+0100
; FORMAT={-:-/ absolute / inch / decimal}
; #@! TF.CreationDate,2025-01-01T13:35:29+01:00
; #@! TF.GenerationSoftware,Kicad,Pcbnew,8.0.7
; #@! TF.FileFunction,Plated,1,2,PTH
FMAT,2
INCH
; #@! TA.AperFunction,Plated,PTH,ViaDrill
T1C0.0118
; #@! TA.AperFunction,Plated,PTH,ComponentDrill
T2C0.0236
; #@! TA.AperFunction,Plated,PTH,ComponentDrill
T3C0.0394
; #@! TA.AperFunction,Plated,PTH,ComponentDrill
T4C0.0433
; #@! TA.AperFunction,Plated,PTH,ComponentDrill
T5C0.0689
%
G90
G05
T1
X3.8307Y-7.6969
X3.8889Y-3.8228
X3.8898Y-7.9331
X3.9046Y-3.6718
X3.9174Y-4.5453
X3.9398Y-3.2673
X3.9469Y-8.4862
X3.9488Y-8.7992
X3.9489Y-2.6202
X3.9529Y-4.2962
X3.9538Y-6.8366
X3.9587Y-5.0984
X3.9638Y-6.7318
X3.9663Y-2.8937
X3.9674Y-3.2009
X3.9675Y-6.585
X3.9679Y-6.0433
X3.9733Y-7.6882
X3.9764Y-4.1535
X3.9764Y-5.3404
X3.9783Y-6.9037
X3.9833Y-3.5957
X3.9862Y-7.8524
X3.9879Y-3.1355
X3.9882Y-3.4514
X3.9882Y-3.6811
X3.9882Y-5.7283
X3.9882Y-7.1457
X3.9882Y-7.3774
X3.9882Y-7.9331
X3.9883Y-4.0691
X3.9888Y-6.2866
X3.9999Y-4.3092
X4.0236Y-7.2315
X4.0264Y-5.2559
X4.0264Y-5.7283
X4.0271Y-5.3408
X4.0276Y-6.2008
X4.0276Y-6.9075
X4.0426Y-4.6306
X4.0587Y-3.522
X4.0588Y-5.0472
X4.0669Y-3.2874
X4.0728Y-4.5472
X4.0754Y-7.6772
X4.0854Y-7.5689
X4.0866Y-8.8583
X4.0866Y-8.9961
X4.122Y-7.3583
X4.1437Y-7.3287
X4.1476Y-8.3307
X4.1552Y-7.5062
X4.1585Y-7.6309
X4.185Y-7.9744
X4.186Y-8.1988
X4.2008Y-7.6673
X4.2234Y-8.4055
X4.2303Y-7.3484
X4.2343Y-7.7421
X4.2398Y-7.6729
X4.3022Y-8.1988
X4.3228Y-7.7264
X4.3228Y-7.7756
X4.3228Y-7.8248
X4.3327Y-7.4409
X4.372Y-7.8248
X4.3724Y-6.148
X4.3736Y-7.961
X4.3745Y-7.7756
X4.3917Y-7.4744
X4.3927Y-7.5561
X4.402Y-6.148
X4.4133Y-8.0461
X4.4213Y-7.8248
X4.4233Y-8.8083
X4.4246Y-8.7207
X4.4272Y-8.1437
X4.4315Y-6.148
X4.439Y-7.5354
X4.4408Y-8.6891
X4.47Y-7.8699
X4.4737Y-7.5374
X4.4803Y-7.4016
X4.5047Y-8.0138
X4.5055Y-7.86
X4.5098Y-7.6929
X4.5246Y-7.7793
X4.5374Y-7.8445
X4.5504Y-7.6535
X4.5514Y-7.6909
X4.576Y-7.9488
X4.5866Y-7.8976
X4.6161Y-8.0492
X4.6476Y-8.0728
T3
X4.4606Y-8.0797
X4.5591Y-8.0797
X4.6043Y-6.7882
X4.6043Y-6.8882
X4.6043Y-6.9882
X4.6043Y-7.0882
X4.6043Y-7.1882
X4.6043Y-7.2882
X4.6043Y-7.3882
X4.6043Y-7.4882
T4
X4.2126Y-6.3661
X4.2126Y-6.622
X4.2126Y-6.7441
X4.2126Y-7.0
X4.3898Y-6.3661
X4.3898Y-6.622
X4.3898Y-6.7441
X4.3898Y-7.0
T5
X3.7323Y-6.0925
X3.7323Y-8.9272
T2
G00X4.4181Y-8.5986
M15
G01X4.3748Y-8.5986
M16
G05
G00X4.4181Y-8.9388
M15
G01X4.3748Y-8.9388
M16
G05
G00X4.5776Y-8.5986
M15
G01X4.5461Y-8.5986
M16
G05
G00X4.5776Y-8.9388
M15
G01X4.5461Y-8.9388
M16
G05
M30
