%TF.GenerationSoftware,KiCad,Pcbnew,8.0.7*%
%TF.CreationDate,2025-01-01T13:35:27+01:00*%
%TF.ProjectId,v_ggtermometer,76e46767-7465-4726-9d6f-6d657465722e,rev?*%
%TF.SameCoordinates,Original*%
%TF.FileFunction,Legend,Bot*%
%TF.FilePolarity,Positive*%
%FSLAX46Y46*%
G04 Gerber Fmt 4.6, Leading zero omitted, Abs format (unit mm)*
G04 Created by KiCad (PCBNEW 8.0.7) date 2025-01-01 13:35:27*
%MOMM*%
%LPD*%
G01*
G04 APERTURE LIST*
%ADD10C,0.250000*%
%ADD11C,0.000000*%
%ADD12C,0.200000*%
%ADD13C,0.300000*%
%ADD14C,0.120000*%
G04 APERTURE END LIST*
D10*
G36*
X117165188Y-160112534D02*
G01*
X117233377Y-160109948D01*
X117297809Y-160102187D01*
X117358485Y-160089254D01*
X117424525Y-160067626D01*
X117485452Y-160038956D01*
X117540798Y-160003523D01*
X117590096Y-159961602D01*
X117633345Y-159913196D01*
X117670547Y-159858302D01*
X117689089Y-159824023D01*
X117716331Y-159759153D01*
X117734356Y-159698946D01*
X117747465Y-159634489D01*
X117755658Y-159565782D01*
X117758936Y-159492824D01*
X117759004Y-159480251D01*
X117756798Y-159415830D01*
X117750180Y-159354536D01*
X117737214Y-159288314D01*
X117718486Y-159226175D01*
X117712903Y-159211278D01*
X117687429Y-159154511D01*
X117653343Y-159096167D01*
X117613509Y-159043668D01*
X117583760Y-159011915D01*
X117534899Y-158969349D01*
X117481739Y-158933014D01*
X117424281Y-158902910D01*
X117390502Y-158888878D01*
X117327106Y-158868659D01*
X117260908Y-158855057D01*
X117199714Y-158848522D01*
X117152366Y-158847051D01*
X117086304Y-158849144D01*
X117021067Y-158856199D01*
X116976816Y-158864759D01*
X116916300Y-158880745D01*
X116856801Y-158902200D01*
X116853779Y-158903532D01*
X116797565Y-158930494D01*
X116786001Y-158937421D01*
X116855916Y-159131594D01*
X116913847Y-159104422D01*
X116972927Y-159083652D01*
X116982006Y-159080914D01*
X117044971Y-159066681D01*
X117109621Y-159059984D01*
X117150229Y-159058932D01*
X117216215Y-159064235D01*
X117278160Y-159080144D01*
X117330968Y-159103811D01*
X117383324Y-159140294D01*
X117427888Y-159188032D01*
X117461638Y-159241198D01*
X117487398Y-159303833D01*
X117502425Y-159368770D01*
X117509294Y-159433303D01*
X117510487Y-159476892D01*
X117507492Y-159543632D01*
X117498508Y-159606122D01*
X117481502Y-159670569D01*
X117472629Y-159694879D01*
X117444764Y-159750669D01*
X117404402Y-159802946D01*
X117353866Y-159845699D01*
X117298589Y-159874679D01*
X117233891Y-159892926D01*
X117167608Y-159900171D01*
X117143817Y-159900654D01*
X117080389Y-159898818D01*
X117018636Y-159892474D01*
X116956655Y-159878878D01*
X116952087Y-159877451D01*
X116894117Y-159857499D01*
X116836071Y-159832876D01*
X116770431Y-160025828D01*
X116829062Y-160053914D01*
X116892388Y-160075609D01*
X116923083Y-160084446D01*
X116983460Y-160098024D01*
X117049875Y-160107158D01*
X117113980Y-160111547D01*
X117165188Y-160112534D01*
G37*
G36*
X116589996Y-160087500D02*
G01*
X116589996Y-158874834D01*
X115797123Y-158874834D01*
X115797123Y-159076029D01*
X116350944Y-159076029D01*
X116350944Y-159354771D01*
X115858794Y-159354771D01*
X115858794Y-159551692D01*
X116350944Y-159551692D01*
X116350944Y-159886304D01*
X115755907Y-159886304D01*
X115755907Y-160087500D01*
X116589996Y-160087500D01*
G37*
G36*
X115248821Y-158862285D02*
G01*
X115311239Y-158864861D01*
X115373057Y-158869033D01*
X115424539Y-158873804D01*
X115485494Y-158881865D01*
X115549522Y-158893457D01*
X115549522Y-160087500D01*
X115310469Y-160087500D01*
X115310469Y-159634124D01*
X115162092Y-159634124D01*
X115149880Y-159633818D01*
X115137362Y-159632903D01*
X115116943Y-159657686D01*
X115078400Y-159709061D01*
X115042107Y-159762657D01*
X115011458Y-159810402D01*
X114977468Y-159864781D01*
X114943189Y-159921109D01*
X114912432Y-159973172D01*
X114879839Y-160030372D01*
X114848545Y-160087500D01*
X114581710Y-160087500D01*
X114593760Y-160062112D01*
X114621635Y-160006515D01*
X114651930Y-159950113D01*
X114666555Y-159924002D01*
X114698834Y-159868166D01*
X114731919Y-159813337D01*
X114744792Y-159792578D01*
X114778190Y-159740769D01*
X114814046Y-159688468D01*
X114851125Y-159637306D01*
X114890066Y-159587107D01*
X114869503Y-159578714D01*
X114813158Y-159549669D01*
X114759957Y-159510600D01*
X114716654Y-159464375D01*
X114698887Y-159438171D01*
X114672388Y-159378517D01*
X114658837Y-159316570D01*
X114654983Y-159254937D01*
X114655003Y-159253105D01*
X114901973Y-159253105D01*
X114908577Y-159311200D01*
X114936472Y-159368204D01*
X114982951Y-159405341D01*
X115040276Y-159426517D01*
X115086918Y-159435211D01*
X115152177Y-159441394D01*
X115214299Y-159443004D01*
X115310469Y-159443004D01*
X115310469Y-159072365D01*
X115257346Y-159068091D01*
X115251724Y-159067654D01*
X115190180Y-159065648D01*
X115163005Y-159066088D01*
X115097862Y-159071348D01*
X115036612Y-159083661D01*
X114985496Y-159103597D01*
X114936778Y-159142280D01*
X114910674Y-159190289D01*
X114901973Y-159253105D01*
X114655003Y-159253105D01*
X114655121Y-159242539D01*
X114661761Y-159172401D01*
X114678362Y-159109539D01*
X114704924Y-159053955D01*
X114748501Y-158998304D01*
X114796643Y-158958487D01*
X114824308Y-158941191D01*
X114886253Y-158911703D01*
X114944614Y-158892328D01*
X115009102Y-158877678D01*
X115079717Y-158867755D01*
X115140620Y-158863218D01*
X115205445Y-158861706D01*
X115248821Y-158862285D01*
G37*
G36*
X114401581Y-160087500D02*
G01*
X114401581Y-158874834D01*
X114207713Y-158874834D01*
X114163543Y-158921612D01*
X114120982Y-158969891D01*
X114095361Y-159000314D01*
X114054244Y-159050584D01*
X114012334Y-159103163D01*
X113973545Y-159152965D01*
X113934297Y-159204038D01*
X113895168Y-159256125D01*
X113856158Y-159309225D01*
X113848371Y-159319966D01*
X113809760Y-159373406D01*
X113772164Y-159426489D01*
X113735581Y-159479213D01*
X113728386Y-159489715D01*
X113693187Y-159541342D01*
X113656465Y-159596617D01*
X113621835Y-159650305D01*
X113621835Y-158874834D01*
X113384614Y-158874834D01*
X113384614Y-160087500D01*
X113585199Y-160087500D01*
X113617375Y-160030844D01*
X113651356Y-159972962D01*
X113683812Y-159919277D01*
X113717580Y-159864788D01*
X113752481Y-159809702D01*
X113788516Y-159754020D01*
X113795858Y-159742812D01*
X113832823Y-159686790D01*
X113870443Y-159631304D01*
X113908719Y-159576356D01*
X113916453Y-159565430D01*
X113955308Y-159511394D01*
X113994401Y-159458431D01*
X114033733Y-159406541D01*
X114041628Y-159396292D01*
X114080757Y-159346138D01*
X114119528Y-159297951D01*
X114161763Y-159247219D01*
X114165581Y-159242725D01*
X114165581Y-160087500D01*
X114401581Y-160087500D01*
G37*
G36*
X113194716Y-159672897D02*
G01*
X113194716Y-159464375D01*
X112712336Y-159464375D01*
X112712336Y-159672897D01*
X113194716Y-159672897D01*
G37*
G36*
X111990357Y-158848035D02*
G01*
X112055466Y-158854765D01*
X112118642Y-158867870D01*
X112179887Y-158887351D01*
X112212801Y-158900921D01*
X112269153Y-158930269D01*
X112321787Y-158965944D01*
X112370701Y-159007946D01*
X112400805Y-159039388D01*
X112441210Y-159091541D01*
X112475917Y-159149683D01*
X112501982Y-159206393D01*
X112507712Y-159221309D01*
X112526937Y-159283906D01*
X112540246Y-159351197D01*
X112547039Y-159413927D01*
X112549304Y-159480251D01*
X112548595Y-159518483D01*
X112544266Y-159579627D01*
X112533877Y-159648750D01*
X112517819Y-159713235D01*
X112496095Y-159773085D01*
X112468704Y-159828297D01*
X112447623Y-159862405D01*
X112406624Y-159916906D01*
X112360394Y-159964803D01*
X112308934Y-160006097D01*
X112252244Y-160040788D01*
X112217854Y-160057604D01*
X112155629Y-160081636D01*
X112090804Y-160098802D01*
X112023378Y-160109101D01*
X111953351Y-160112534D01*
X111911964Y-160111413D01*
X111842015Y-160104057D01*
X111775221Y-160089833D01*
X111711583Y-160068744D01*
X111651101Y-160040788D01*
X111618233Y-160021773D01*
X111564893Y-159983309D01*
X111516870Y-159938242D01*
X111474165Y-159886571D01*
X111436778Y-159828297D01*
X111422592Y-159801270D01*
X111398406Y-159743740D01*
X111379802Y-159681572D01*
X111366779Y-159614768D01*
X111359337Y-159543327D01*
X111357399Y-159480251D01*
X111604695Y-159480251D01*
X111605353Y-159511573D01*
X111611648Y-159578350D01*
X111624609Y-159640008D01*
X111646827Y-159702512D01*
X111676486Y-159757681D01*
X111717239Y-159808725D01*
X111766506Y-159849668D01*
X111823709Y-159879391D01*
X111888272Y-159896777D01*
X111953351Y-159901875D01*
X112018431Y-159896777D01*
X112082994Y-159879391D01*
X112140197Y-159849668D01*
X112189500Y-159808725D01*
X112230361Y-159757681D01*
X112260181Y-159702512D01*
X112274396Y-159665768D01*
X112290203Y-159606386D01*
X112299394Y-159541884D01*
X112302008Y-159480251D01*
X112301354Y-159448928D01*
X112295105Y-159382151D01*
X112282238Y-159320493D01*
X112260181Y-159257990D01*
X112230361Y-159202791D01*
X112189500Y-159151645D01*
X112140197Y-159110528D01*
X112082994Y-159080457D01*
X112018431Y-159062869D01*
X111953351Y-159057711D01*
X111888272Y-159062809D01*
X111823709Y-159080194D01*
X111766506Y-159109918D01*
X111717239Y-159150687D01*
X111676486Y-159201629D01*
X111646827Y-159256769D01*
X111632508Y-159293555D01*
X111616585Y-159353163D01*
X111607328Y-159418083D01*
X111604695Y-159480251D01*
X111357399Y-159480251D01*
X111358110Y-159441803D01*
X111362455Y-159380359D01*
X111372885Y-159310975D01*
X111389002Y-159246336D01*
X111410809Y-159186440D01*
X111438304Y-159131289D01*
X111459313Y-159097114D01*
X111500211Y-159042542D01*
X111546367Y-158994632D01*
X111597784Y-158953384D01*
X111654459Y-158918797D01*
X111688715Y-158901982D01*
X111750798Y-158877950D01*
X111815599Y-158860784D01*
X111883116Y-158850484D01*
X111953351Y-158847051D01*
X111990357Y-158848035D01*
G37*
G36*
X111121399Y-160087500D02*
G01*
X111121399Y-158874834D01*
X110882346Y-158874834D01*
X110882346Y-159352634D01*
X110379817Y-159352634D01*
X110379817Y-158874834D01*
X110140764Y-158874834D01*
X110140764Y-160087500D01*
X110379817Y-160087500D01*
X110379817Y-159557798D01*
X110882346Y-159557798D01*
X110882346Y-160087500D01*
X111121399Y-160087500D01*
G37*
G36*
X109852558Y-160087500D02*
G01*
X109852558Y-158874834D01*
X109613505Y-158874834D01*
X109613505Y-159881725D01*
X109068843Y-159881725D01*
X109068843Y-160087500D01*
X109852558Y-160087500D01*
G37*
G36*
X109038924Y-159672897D02*
G01*
X109038924Y-159464375D01*
X108556544Y-159464375D01*
X108556544Y-159672897D01*
X109038924Y-159672897D01*
G37*
G36*
X108061167Y-158862285D02*
G01*
X108124887Y-158864861D01*
X108188653Y-158869033D01*
X108241907Y-158873804D01*
X108304239Y-158881865D01*
X108368782Y-158893457D01*
X108368782Y-160087500D01*
X108129730Y-160087500D01*
X108129730Y-159667402D01*
X108026537Y-159667402D01*
X107982726Y-159666763D01*
X107920158Y-159663407D01*
X107851937Y-159655856D01*
X107788858Y-159644390D01*
X107723065Y-159626491D01*
X107685417Y-159612514D01*
X107625050Y-159581344D01*
X107574198Y-159542447D01*
X107532861Y-159495821D01*
X107507403Y-159453861D01*
X107483860Y-159392400D01*
X107471610Y-159330671D01*
X107467526Y-159262264D01*
X107467559Y-159260737D01*
X107714211Y-159260737D01*
X107714247Y-159265645D01*
X107722127Y-159327154D01*
X107750237Y-159383775D01*
X107798337Y-159423162D01*
X107857093Y-159445751D01*
X107899251Y-159454459D01*
X107963200Y-159461636D01*
X108029590Y-159463764D01*
X108129730Y-159463764D01*
X108129730Y-159072365D01*
X108073554Y-159068091D01*
X108065239Y-159067518D01*
X108003029Y-159065648D01*
X107977173Y-159066058D01*
X107914414Y-159070961D01*
X107854040Y-159082440D01*
X107802457Y-159101983D01*
X107751764Y-159141364D01*
X107749453Y-159144031D01*
X107721399Y-159199871D01*
X107714211Y-159260737D01*
X107467559Y-159260737D01*
X107468077Y-159236675D01*
X107476342Y-159165158D01*
X107494524Y-159101520D01*
X107522624Y-159045761D01*
X107560641Y-158997879D01*
X107608576Y-158957876D01*
X107636137Y-158940690D01*
X107697939Y-158911388D01*
X107756247Y-158892135D01*
X107820741Y-158877578D01*
X107891421Y-158867716D01*
X107952420Y-158863208D01*
X108017378Y-158861706D01*
X108061167Y-158862285D01*
G37*
G36*
X106887144Y-160087500D02*
G01*
X106890197Y-160046284D01*
X106890197Y-160007510D01*
X106886478Y-159945997D01*
X106873622Y-159882408D01*
X106851583Y-159823828D01*
X106843180Y-159807231D01*
X106811249Y-159753838D01*
X106774606Y-159703189D01*
X106733253Y-159655283D01*
X106724417Y-159646031D01*
X106679635Y-159600491D01*
X106634973Y-159555847D01*
X106590430Y-159512097D01*
X106581535Y-159503454D01*
X106536861Y-159460210D01*
X106492583Y-159416232D01*
X106477732Y-159401177D01*
X106435753Y-159353321D01*
X106403238Y-159305617D01*
X106380041Y-159246760D01*
X106375455Y-159204256D01*
X106383467Y-159141924D01*
X106415323Y-159088171D01*
X106423999Y-159080914D01*
X106482383Y-159052565D01*
X106545204Y-159044583D01*
X106606417Y-159050383D01*
X106662441Y-159067786D01*
X106717234Y-159095724D01*
X106752505Y-159119993D01*
X106799549Y-159159590D01*
X106805017Y-159164872D01*
X106919201Y-159006114D01*
X106871421Y-158965509D01*
X106820250Y-158930214D01*
X106816619Y-158927957D01*
X106759200Y-158897201D01*
X106700646Y-158873943D01*
X106687476Y-158869644D01*
X106623712Y-158854200D01*
X106561783Y-158847603D01*
X106537266Y-158847051D01*
X106475828Y-158849287D01*
X106409167Y-158857874D01*
X106341136Y-158876031D01*
X106283594Y-158902954D01*
X106236542Y-158938642D01*
X106194735Y-158988540D01*
X106164872Y-159046949D01*
X106146955Y-159113867D01*
X106141076Y-159179402D01*
X106140982Y-159189296D01*
X106147165Y-159254498D01*
X106165712Y-159317295D01*
X106184946Y-159357824D01*
X106217949Y-159411561D01*
X106256507Y-159463205D01*
X106296382Y-159508339D01*
X106342847Y-159556457D01*
X106389890Y-159603422D01*
X106433158Y-159645115D01*
X106478807Y-159690109D01*
X106517116Y-159729378D01*
X106559553Y-159775556D01*
X106596495Y-159820664D01*
X106629528Y-159874752D01*
X106635574Y-159894853D01*
X106103125Y-159894853D01*
X106103125Y-160087500D01*
X106887144Y-160087500D01*
G37*
G36*
X105784082Y-160371127D02*
G01*
X105962074Y-160323194D01*
X105941485Y-160264330D01*
X105923083Y-160200228D01*
X105909392Y-160137497D01*
X105906204Y-160118946D01*
X105896991Y-160054498D01*
X105891303Y-159991350D01*
X105890023Y-159948892D01*
X105890939Y-159913476D01*
X105893076Y-159871955D01*
X105894908Y-159843867D01*
X105653718Y-159843867D01*
X105650054Y-159896074D01*
X105649443Y-159923857D01*
X105652902Y-159991030D01*
X105661929Y-160053779D01*
X105676558Y-160118702D01*
X105684859Y-160148255D01*
X105704341Y-160206950D01*
X105727372Y-160263660D01*
X105757525Y-160325086D01*
X105784082Y-160371127D01*
G37*
G36*
X105120953Y-158848847D02*
G01*
X105188643Y-158861134D01*
X105250826Y-158885062D01*
X105307503Y-158920629D01*
X105313452Y-158925294D01*
X105357974Y-158967354D01*
X105397039Y-159017849D01*
X105430646Y-159076777D01*
X105455576Y-159135258D01*
X105461898Y-159153095D01*
X105480812Y-159219377D01*
X105493048Y-159280958D01*
X105501614Y-159346940D01*
X105506508Y-159417322D01*
X105507783Y-159479335D01*
X105507583Y-159504619D01*
X105505343Y-159565669D01*
X105499368Y-159634856D01*
X105489808Y-159699600D01*
X105476663Y-159759900D01*
X105456797Y-159824633D01*
X105432239Y-159882995D01*
X105398985Y-159941823D01*
X105360197Y-159992256D01*
X105309946Y-160038956D01*
X105266327Y-160067626D01*
X105204921Y-160094140D01*
X105145311Y-160107936D01*
X105080968Y-160112534D01*
X105056236Y-160111895D01*
X104986133Y-160102307D01*
X104922170Y-160081212D01*
X104864346Y-160048611D01*
X104812661Y-160004505D01*
X104767116Y-159948892D01*
X104760148Y-159938525D01*
X104728623Y-159882524D01*
X104702629Y-159819576D01*
X104682165Y-159749681D01*
X104669777Y-159688764D01*
X104660928Y-159623400D01*
X104655618Y-159553590D01*
X104653849Y-159479335D01*
X104888322Y-159479335D01*
X104888598Y-159510147D01*
X104891244Y-159576508D01*
X104896691Y-159638764D01*
X104906029Y-159703122D01*
X104913507Y-159738632D01*
X104933485Y-159800828D01*
X104965258Y-159858522D01*
X104967867Y-159861997D01*
X105018442Y-159902593D01*
X105080968Y-159915003D01*
X105089896Y-159914782D01*
X105149403Y-159899063D01*
X105195762Y-159858522D01*
X105217530Y-159823271D01*
X105240542Y-159765976D01*
X105255602Y-159703122D01*
X105259752Y-159677987D01*
X105267707Y-159611602D01*
X105271909Y-159547521D01*
X105273309Y-159479335D01*
X105273033Y-159448466D01*
X105270387Y-159382115D01*
X105264940Y-159320063D01*
X105255602Y-159256158D01*
X105248103Y-159220763D01*
X105227953Y-159158796D01*
X105195762Y-159101369D01*
X105193081Y-159097875D01*
X105142229Y-159057060D01*
X105080968Y-159044583D01*
X105071786Y-159044804D01*
X105011210Y-159060609D01*
X104965258Y-159101369D01*
X104943786Y-159136448D01*
X104921017Y-159193514D01*
X104906029Y-159256158D01*
X104901879Y-159281083D01*
X104893924Y-159347111D01*
X104889722Y-159411074D01*
X104888322Y-159479335D01*
X104653849Y-159479335D01*
X104653959Y-159460410D01*
X104656614Y-159387474D01*
X104662808Y-159318955D01*
X104672542Y-159254853D01*
X104685816Y-159195168D01*
X104707385Y-159126775D01*
X104734485Y-159065283D01*
X104767116Y-159010694D01*
X104781616Y-158990878D01*
X104829207Y-158939100D01*
X104882938Y-158898829D01*
X104942809Y-158870063D01*
X105008819Y-158852804D01*
X105080968Y-158847051D01*
X105120953Y-158848847D01*
G37*
D11*
G36*
X109725512Y-152622775D02*
G01*
X110783051Y-152622775D01*
X110783051Y-151452391D01*
X111171248Y-151452391D01*
X111171248Y-154307537D01*
X110783051Y-154307537D01*
X110783051Y-152947869D01*
X109725512Y-152947869D01*
X109725512Y-154307537D01*
X109337289Y-154307537D01*
X109337289Y-151452391D01*
X109725512Y-151452391D01*
X109725512Y-152622775D01*
G37*
G36*
X112634654Y-151402046D02*
G01*
X112685988Y-151404758D01*
X112736006Y-151409278D01*
X112784710Y-151415607D01*
X112832100Y-151423743D01*
X112878174Y-151433688D01*
X112922934Y-151445440D01*
X112966380Y-151458999D01*
X113008510Y-151474367D01*
X113049327Y-151491542D01*
X113088828Y-151510524D01*
X113127015Y-151531314D01*
X113163887Y-151553911D01*
X113199445Y-151578316D01*
X113233688Y-151604527D01*
X113266616Y-151632546D01*
X113297648Y-151661828D01*
X113326678Y-151692306D01*
X113353706Y-151723978D01*
X113378733Y-151756847D01*
X113401757Y-151790911D01*
X113422780Y-151826170D01*
X113441800Y-151862625D01*
X113458819Y-151900275D01*
X113473836Y-151939120D01*
X113486850Y-151979160D01*
X113497863Y-152020396D01*
X113506873Y-152062827D01*
X113513881Y-152106453D01*
X113518887Y-152151274D01*
X113521890Y-152197290D01*
X113522891Y-152244501D01*
X113522189Y-152282264D01*
X113520082Y-152319055D01*
X113516571Y-152354875D01*
X113511655Y-152389723D01*
X113505334Y-152423600D01*
X113497609Y-152456506D01*
X113488480Y-152488440D01*
X113477945Y-152519403D01*
X113466006Y-152549395D01*
X113452663Y-152578416D01*
X113437915Y-152606466D01*
X113421763Y-152633545D01*
X113404206Y-152659653D01*
X113385244Y-152684791D01*
X113364878Y-152708958D01*
X113343107Y-152732154D01*
X113319787Y-152754507D01*
X113294764Y-152776142D01*
X113268037Y-152797059D01*
X113239607Y-152817259D01*
X113209473Y-152836742D01*
X113177636Y-152855508D01*
X113144095Y-152873556D01*
X113108851Y-152890888D01*
X113071904Y-152907502D01*
X113033253Y-152923399D01*
X112992898Y-152938578D01*
X112950841Y-152953041D01*
X112907079Y-152966787D01*
X112861614Y-152979816D01*
X112814446Y-152992128D01*
X112765574Y-153003723D01*
X112559067Y-153051533D01*
X112525055Y-153059384D01*
X112492343Y-153067639D01*
X112460930Y-153076296D01*
X112430817Y-153085357D01*
X112402004Y-153094821D01*
X112374491Y-153104688D01*
X112348277Y-153114959D01*
X112323363Y-153125633D01*
X112299749Y-153136710D01*
X112277435Y-153148191D01*
X112256420Y-153160075D01*
X112236705Y-153172363D01*
X112218290Y-153185054D01*
X112201175Y-153198149D01*
X112185360Y-153211647D01*
X112170844Y-153225549D01*
X112157181Y-153240049D01*
X112144400Y-153255341D01*
X112132500Y-153271424D01*
X112121482Y-153288300D01*
X112111346Y-153305967D01*
X112102092Y-153324425D01*
X112093719Y-153343676D01*
X112086227Y-153363718D01*
X112079617Y-153384551D01*
X112073889Y-153406177D01*
X112069042Y-153428593D01*
X112065076Y-153451801D01*
X112061992Y-153475801D01*
X112059789Y-153500592D01*
X112058467Y-153526174D01*
X112058026Y-153552548D01*
X112058661Y-153581548D01*
X112060566Y-153609741D01*
X112063741Y-153637128D01*
X112068186Y-153663707D01*
X112073900Y-153689480D01*
X112080885Y-153714447D01*
X112089139Y-153738606D01*
X112098663Y-153761959D01*
X112109456Y-153784505D01*
X112121520Y-153806244D01*
X112134852Y-153827176D01*
X112149455Y-153847302D01*
X112165327Y-153866621D01*
X112182468Y-153885133D01*
X112200879Y-153902838D01*
X112220559Y-153919736D01*
X112241387Y-153935485D01*
X112263231Y-153950218D01*
X112286091Y-153963934D01*
X112309966Y-153976634D01*
X112334857Y-153988317D01*
X112360765Y-153998985D01*
X112387688Y-154008636D01*
X112415627Y-154017272D01*
X112444582Y-154024891D01*
X112474554Y-154031494D01*
X112505541Y-154037081D01*
X112537545Y-154041653D01*
X112570565Y-154045208D01*
X112604601Y-154047747D01*
X112639654Y-154049271D01*
X112675722Y-154049779D01*
X112725411Y-154048763D01*
X112775040Y-154045716D01*
X112824610Y-154040636D01*
X112874120Y-154033524D01*
X112923571Y-154024379D01*
X112972962Y-154013201D01*
X113022293Y-153999990D01*
X113071565Y-153984745D01*
X113120720Y-153967327D01*
X113170651Y-153947578D01*
X113221359Y-153925498D01*
X113272844Y-153901087D01*
X113325107Y-153874345D01*
X113378148Y-153845274D01*
X113431967Y-153813873D01*
X113486564Y-153780143D01*
X113486564Y-154191304D01*
X113435437Y-154212128D01*
X113384369Y-154231577D01*
X113333361Y-154249652D01*
X113282412Y-154266353D01*
X113231523Y-154281680D01*
X113180693Y-154295633D01*
X113129923Y-154308211D01*
X113079212Y-154319416D01*
X113028570Y-154329731D01*
X112977985Y-154338670D01*
X112927458Y-154346232D01*
X112876991Y-154352419D01*
X112826583Y-154357231D01*
X112776235Y-154360667D01*
X112725948Y-154362729D01*
X112675722Y-154363416D01*
X112616378Y-154362579D01*
X112558826Y-154360069D01*
X112503068Y-154355885D01*
X112449102Y-154350027D01*
X112396929Y-154342496D01*
X112346549Y-154333292D01*
X112297962Y-154322415D01*
X112251169Y-154309864D01*
X112206168Y-154295640D01*
X112162960Y-154279744D01*
X112121546Y-154262174D01*
X112081924Y-154242932D01*
X112044096Y-154222017D01*
X112008061Y-154199429D01*
X111973820Y-154175168D01*
X111941371Y-154149235D01*
X111910801Y-154121707D01*
X111882203Y-154092670D01*
X111855578Y-154062123D01*
X111830926Y-154030068D01*
X111808245Y-153996504D01*
X111787537Y-153961432D01*
X111768802Y-153924850D01*
X111752039Y-153886759D01*
X111737248Y-153847159D01*
X111724429Y-153806050D01*
X111713583Y-153763432D01*
X111704708Y-153719305D01*
X111697806Y-153673668D01*
X111692876Y-153626522D01*
X111689918Y-153577867D01*
X111688932Y-153527703D01*
X111689649Y-153485006D01*
X111691801Y-153443444D01*
X111695387Y-153403017D01*
X111700407Y-153363725D01*
X111706861Y-153325568D01*
X111714750Y-153288546D01*
X111724073Y-153252660D01*
X111734831Y-153217909D01*
X111747022Y-153184293D01*
X111760649Y-153151813D01*
X111775709Y-153120469D01*
X111792204Y-153090260D01*
X111810133Y-153061187D01*
X111829497Y-153033249D01*
X111850294Y-153006448D01*
X111872527Y-152980783D01*
X111896327Y-152956099D01*
X111921831Y-152932252D01*
X111949037Y-152909243D01*
X111977947Y-152887070D01*
X112008559Y-152865735D01*
X112040875Y-152845236D01*
X112074893Y-152825575D01*
X112110615Y-152806750D01*
X112148040Y-152788762D01*
X112187168Y-152771611D01*
X112227999Y-152755297D01*
X112270534Y-152739819D01*
X112314772Y-152725178D01*
X112360713Y-152711374D01*
X112408357Y-152698406D01*
X112457705Y-152686275D01*
X112660403Y-152640370D01*
X112695320Y-152631874D01*
X112728833Y-152623124D01*
X112760941Y-152614121D01*
X112791644Y-152604864D01*
X112820943Y-152595354D01*
X112848838Y-152585590D01*
X112875327Y-152575572D01*
X112900413Y-152565301D01*
X112924094Y-152554776D01*
X112946370Y-152543998D01*
X112967241Y-152532965D01*
X112986708Y-152521680D01*
X113004771Y-152510140D01*
X113021429Y-152498347D01*
X113036682Y-152486300D01*
X113050531Y-152474000D01*
X113063036Y-152461217D01*
X113074734Y-152447732D01*
X113085625Y-152433545D01*
X113095710Y-152418656D01*
X113104988Y-152403064D01*
X113113459Y-152386771D01*
X113121123Y-152369775D01*
X113127981Y-152352077D01*
X113134032Y-152333677D01*
X113139276Y-152314574D01*
X113143713Y-152294769D01*
X113147344Y-152274262D01*
X113150167Y-152253052D01*
X113152184Y-152231140D01*
X113153394Y-152208525D01*
X113153798Y-152185208D01*
X113153178Y-152158551D01*
X113151317Y-152132596D01*
X113148217Y-152107342D01*
X113143876Y-152082790D01*
X113138296Y-152058939D01*
X113131475Y-152035790D01*
X113123414Y-152013344D01*
X113114113Y-151991599D01*
X113103573Y-151970555D01*
X113091792Y-151950214D01*
X113078772Y-151930576D01*
X113064512Y-151911639D01*
X113049012Y-151893405D01*
X113032273Y-151875873D01*
X113014293Y-151859043D01*
X112995074Y-151842916D01*
X112974783Y-151827398D01*
X112953596Y-151812881D01*
X112931513Y-151799366D01*
X112908535Y-151786852D01*
X112884660Y-151775340D01*
X112859890Y-151764828D01*
X112834223Y-151755318D01*
X112807660Y-151746809D01*
X112780201Y-151739302D01*
X112751845Y-151732795D01*
X112722593Y-151727290D01*
X112692444Y-151722786D01*
X112661398Y-151719283D01*
X112629455Y-151716780D01*
X112596615Y-151715279D01*
X112562877Y-151714778D01*
X112517992Y-151715675D01*
X112473228Y-151718365D01*
X112428585Y-151722847D01*
X112384062Y-151729122D01*
X112339660Y-151737189D01*
X112295378Y-151747048D01*
X112251215Y-151758698D01*
X112207172Y-151772140D01*
X112162742Y-151787353D01*
X112118371Y-151804297D01*
X112074060Y-151822974D01*
X112029808Y-151843382D01*
X111985616Y-151865524D01*
X111941484Y-151889398D01*
X111897411Y-151915005D01*
X111853398Y-151942346D01*
X111853398Y-151550314D01*
X111903294Y-151532268D01*
X111952595Y-151515418D01*
X112001300Y-151499763D01*
X112049407Y-151485302D01*
X112096917Y-151472036D01*
X112143828Y-151459964D01*
X112190140Y-151449085D01*
X112235852Y-151439400D01*
X112281005Y-151430434D01*
X112325620Y-151422666D01*
X112369697Y-151416093D01*
X112413235Y-151410716D01*
X112456235Y-151406533D01*
X112498697Y-151403544D01*
X112540621Y-151401747D01*
X112582006Y-151401142D01*
X112634654Y-151402046D01*
G37*
G36*
X115920658Y-152974934D02*
G01*
X115917901Y-153064136D01*
X115913307Y-153150335D01*
X115906874Y-153233531D01*
X115898604Y-153313724D01*
X115888496Y-153390913D01*
X115876550Y-153465099D01*
X115862767Y-153536282D01*
X115847147Y-153604462D01*
X115829689Y-153669638D01*
X115810394Y-153731812D01*
X115789262Y-153790982D01*
X115766293Y-153847148D01*
X115741486Y-153900312D01*
X115714843Y-153950472D01*
X115686363Y-153997629D01*
X115655988Y-154041863D01*
X115623671Y-154083243D01*
X115589412Y-154121769D01*
X115553211Y-154157441D01*
X115515068Y-154190259D01*
X115474982Y-154220224D01*
X115432954Y-154247335D01*
X115388984Y-154271592D01*
X115343072Y-154292995D01*
X115295218Y-154311545D01*
X115245421Y-154327241D01*
X115193682Y-154340083D01*
X115140001Y-154350071D01*
X115084378Y-154357205D01*
X115026812Y-154361486D01*
X114967305Y-154362913D01*
X114907797Y-154361479D01*
X114850232Y-154357176D01*
X114794608Y-154350004D01*
X114767525Y-154345343D01*
X114740927Y-154339964D01*
X114714815Y-154333868D01*
X114689189Y-154327055D01*
X114664047Y-154319525D01*
X114639392Y-154311277D01*
X114615222Y-154302313D01*
X114591537Y-154292631D01*
X114568339Y-154282232D01*
X114545625Y-154271116D01*
X114523397Y-154259283D01*
X114501655Y-154246732D01*
X114480398Y-154233465D01*
X114459627Y-154219480D01*
X114439342Y-154204778D01*
X114419542Y-154189359D01*
X114400227Y-154173223D01*
X114381398Y-154156369D01*
X114363055Y-154138799D01*
X114345197Y-154120511D01*
X114327825Y-154101506D01*
X114310938Y-154081784D01*
X114294537Y-154061345D01*
X114278621Y-154040189D01*
X114263191Y-154018315D01*
X114248247Y-153995724D01*
X114219531Y-153948351D01*
X114192669Y-153898019D01*
X114167660Y-153844728D01*
X114144503Y-153788477D01*
X114123199Y-153729268D01*
X114103748Y-153667100D01*
X114086149Y-153601973D01*
X114070403Y-153533888D01*
X114056510Y-153462844D01*
X114044469Y-153388841D01*
X114034281Y-153311880D01*
X114025946Y-153231961D01*
X114019462Y-153149083D01*
X114014832Y-153063248D01*
X114012053Y-152974454D01*
X114011127Y-152882737D01*
X114414643Y-152882737D01*
X114415151Y-152959948D01*
X114416675Y-153034385D01*
X114419214Y-153106013D01*
X114422770Y-153174831D01*
X114427341Y-153240841D01*
X114432928Y-153304041D01*
X114439531Y-153364433D01*
X114447151Y-153422015D01*
X114455786Y-153476788D01*
X114465437Y-153528752D01*
X114476105Y-153577907D01*
X114487788Y-153624252D01*
X114500488Y-153667789D01*
X114514204Y-153708517D01*
X114528937Y-153746435D01*
X114544686Y-153781544D01*
X114561350Y-153813965D01*
X114579314Y-153844294D01*
X114598579Y-153872531D01*
X114619143Y-153898677D01*
X114641008Y-153922731D01*
X114664173Y-153944693D01*
X114688638Y-153964564D01*
X114714403Y-153982343D01*
X114741467Y-153998030D01*
X114769831Y-154011626D01*
X114799495Y-154023130D01*
X114830458Y-154032543D01*
X114862720Y-154039863D01*
X114896283Y-154045093D01*
X114931144Y-154048230D01*
X114967304Y-154049276D01*
X115003246Y-154048223D01*
X115020740Y-154046906D01*
X115037917Y-154045063D01*
X115054776Y-154042693D01*
X115071318Y-154039797D01*
X115087542Y-154036373D01*
X115103448Y-154032424D01*
X115119037Y-154027947D01*
X115134308Y-154022944D01*
X115149262Y-154017415D01*
X115163898Y-154011358D01*
X115178216Y-154004775D01*
X115192217Y-153997666D01*
X115205901Y-153990030D01*
X115219267Y-153981867D01*
X115232315Y-153973177D01*
X115245047Y-153963961D01*
X115257460Y-153954219D01*
X115269556Y-153943949D01*
X115281335Y-153933153D01*
X115292796Y-153921831D01*
X115303940Y-153909981D01*
X115314766Y-153897605D01*
X115325275Y-153884703D01*
X115335466Y-153871274D01*
X115345340Y-153857318D01*
X115354897Y-153842836D01*
X115364136Y-153827826D01*
X115373058Y-153812291D01*
X115389950Y-153779639D01*
X115405463Y-153744538D01*
X115419976Y-153706642D01*
X115433488Y-153665952D01*
X115445999Y-153622468D01*
X115457509Y-153576190D01*
X115468018Y-153527118D01*
X115477526Y-153475253D01*
X115486033Y-153420593D01*
X115500045Y-153302894D01*
X115510054Y-153174021D01*
X115516059Y-153033974D01*
X115518061Y-152882755D01*
X115517561Y-152805504D01*
X115516059Y-152731064D01*
X115513557Y-152659434D01*
X115510054Y-152590614D01*
X115505550Y-152524604D01*
X115500045Y-152461404D01*
X115493540Y-152401013D01*
X115486033Y-152343432D01*
X115477526Y-152288660D01*
X115468018Y-152236698D01*
X115457508Y-152187545D01*
X115445998Y-152141200D01*
X115433488Y-152097665D01*
X115419976Y-152056939D01*
X115405463Y-152019021D01*
X115389950Y-151983913D01*
X115373058Y-151951261D01*
X115354896Y-151920715D01*
X115335464Y-151892276D01*
X115314762Y-151865942D01*
X115292791Y-151841715D01*
X115269549Y-151819594D01*
X115245038Y-151799580D01*
X115219257Y-151781671D01*
X115192207Y-151765870D01*
X115163886Y-151752175D01*
X115134296Y-151740587D01*
X115103437Y-151731105D01*
X115071308Y-151723731D01*
X115037910Y-151718463D01*
X115003242Y-151715303D01*
X114967304Y-151714249D01*
X114931144Y-151715303D01*
X114913551Y-151716619D01*
X114896283Y-151718463D01*
X114879339Y-151720834D01*
X114862720Y-151723731D01*
X114846427Y-151727155D01*
X114830458Y-151731105D01*
X114814814Y-151735583D01*
X114799495Y-151740587D01*
X114784500Y-151746118D01*
X114769831Y-151752175D01*
X114755486Y-151758759D01*
X114741467Y-151765870D01*
X114727772Y-151773507D01*
X114714403Y-151781671D01*
X114701358Y-151790362D01*
X114688638Y-151799580D01*
X114676243Y-151809324D01*
X114664173Y-151819594D01*
X114652428Y-151830391D01*
X114641008Y-151841715D01*
X114629913Y-151853565D01*
X114619143Y-151865942D01*
X114608699Y-151878846D01*
X114598579Y-151892276D01*
X114588784Y-151906232D01*
X114579314Y-151920715D01*
X114570169Y-151935725D01*
X114561350Y-151951261D01*
X114544686Y-151983913D01*
X114528937Y-152019026D01*
X114514204Y-152056949D01*
X114500488Y-152097679D01*
X114487788Y-152141219D01*
X114476105Y-152187567D01*
X114465437Y-152236723D01*
X114455786Y-152288688D01*
X114447151Y-152343461D01*
X114432928Y-152461434D01*
X114422770Y-152590640D01*
X114416675Y-152731080D01*
X114414643Y-152882737D01*
X114011127Y-152882737D01*
X114011127Y-152882715D01*
X114012053Y-152790750D01*
X114014832Y-152701746D01*
X114019462Y-152615714D01*
X114025946Y-152532655D01*
X114034281Y-152452568D01*
X114044469Y-152375455D01*
X114056510Y-152301314D01*
X114070403Y-152230147D01*
X114086149Y-152161952D01*
X114103748Y-152096730D01*
X114123199Y-152034480D01*
X114144503Y-151975204D01*
X114167660Y-151918901D01*
X114192669Y-151865570D01*
X114219531Y-151815212D01*
X114248247Y-151767827D01*
X114278621Y-151723368D01*
X114310938Y-151681776D01*
X114345197Y-151643053D01*
X114381398Y-151607197D01*
X114419542Y-151574210D01*
X114459627Y-151544092D01*
X114501655Y-151516841D01*
X114545625Y-151492459D01*
X114591537Y-151470945D01*
X114639392Y-151452299D01*
X114689189Y-151436522D01*
X114740927Y-151423614D01*
X114794608Y-151413574D01*
X114850232Y-151406402D01*
X114907797Y-151402099D01*
X114967305Y-151400665D01*
X115026589Y-151402099D01*
X115083961Y-151406402D01*
X115139421Y-151413574D01*
X115192968Y-151423614D01*
X115219024Y-151429709D01*
X115244603Y-151436522D01*
X115269703Y-151444052D01*
X115294325Y-151452299D01*
X115318469Y-151461263D01*
X115342135Y-151470945D01*
X115365322Y-151481343D01*
X115388032Y-151492459D01*
X115410264Y-151504291D01*
X115432017Y-151516841D01*
X115453292Y-151530108D01*
X115474089Y-151544091D01*
X115494408Y-151558792D01*
X115514249Y-151574210D01*
X115533612Y-151590345D01*
X115552497Y-151607197D01*
X115570904Y-151624766D01*
X115588832Y-151643053D01*
X115606282Y-151662056D01*
X115623255Y-151681776D01*
X115639749Y-151702213D01*
X115655765Y-151723368D01*
X115671303Y-151745239D01*
X115686363Y-151767827D01*
X115714843Y-151815212D01*
X115741486Y-151865570D01*
X115766293Y-151918901D01*
X115789262Y-151975204D01*
X115810394Y-152034480D01*
X115829689Y-152096730D01*
X115847147Y-152161952D01*
X115862767Y-152230147D01*
X115876550Y-152301314D01*
X115888496Y-152375455D01*
X115898604Y-152452568D01*
X115906874Y-152532655D01*
X115913307Y-152615714D01*
X115917901Y-152701746D01*
X115920658Y-152790750D01*
X115921577Y-152882728D01*
X115921577Y-152882755D01*
X115920658Y-152974934D01*
G37*
G36*
X105688950Y-155110441D02*
G01*
X116749855Y-155110441D01*
X116749855Y-150536086D01*
X107338786Y-150536086D01*
X107338786Y-150046528D01*
X117239414Y-150046528D01*
X117239414Y-155600000D01*
X105199391Y-155600000D01*
X105199391Y-150046528D01*
X105678446Y-150046528D01*
X105688950Y-155110441D01*
G37*
G36*
X107369000Y-153774004D02*
G01*
X107697931Y-152236431D01*
X108101421Y-152236431D01*
X108426541Y-153770167D01*
X108700014Y-151452391D01*
X109076754Y-151452391D01*
X108650298Y-154307537D01*
X108285015Y-154307537D01*
X107898723Y-152611293D01*
X107510500Y-154307537D01*
X107145242Y-154307537D01*
X106066007Y-149330962D01*
X106442748Y-149330962D01*
X107369000Y-153774004D01*
G37*
D12*
G36*
X116501519Y-157041068D02*
G01*
X116581041Y-157008894D01*
X116665311Y-156969624D01*
X116748242Y-156922898D01*
X116822734Y-156868295D01*
X116864403Y-156826501D01*
X116914442Y-156748420D01*
X116943631Y-156665229D01*
X116957809Y-156569798D01*
X116959291Y-156523456D01*
X116953807Y-156435455D01*
X116933543Y-156342093D01*
X116898350Y-156258753D01*
X116848225Y-156185435D01*
X116803281Y-156139201D01*
X116729256Y-156084741D01*
X116644064Y-156043657D01*
X116562153Y-156019088D01*
X116472038Y-156004347D01*
X116373719Y-155999433D01*
X116280814Y-156003340D01*
X116195757Y-156013786D01*
X116126240Y-156027216D01*
X116041325Y-156049204D01*
X115957016Y-156077557D01*
X115880898Y-156108854D01*
X115880898Y-156464472D01*
X115959812Y-156413772D01*
X116039635Y-156372164D01*
X116112990Y-156342228D01*
X116200846Y-156316703D01*
X116288100Y-156302958D01*
X116345936Y-156300340D01*
X116434013Y-156307553D01*
X116515497Y-156334200D01*
X116543407Y-156351631D01*
X116596768Y-156418674D01*
X116611795Y-156498666D01*
X116590442Y-156584673D01*
X116562213Y-156620909D01*
X116485063Y-156671773D01*
X116400534Y-156709717D01*
X116353630Y-156727765D01*
X116200612Y-156785040D01*
X116111452Y-156822089D01*
X116033213Y-156864047D01*
X115957172Y-156918010D01*
X115895395Y-156978383D01*
X115882180Y-156994479D01*
X115832799Y-157072978D01*
X115799579Y-157162296D01*
X115783617Y-157250773D01*
X115780026Y-157322741D01*
X115785676Y-157419232D01*
X115802626Y-157506106D01*
X115836683Y-157595304D01*
X115886121Y-157671413D01*
X115940737Y-157726230D01*
X116018716Y-157778192D01*
X116098057Y-157812573D01*
X116188938Y-157837578D01*
X116273488Y-157851252D01*
X116366052Y-157858415D01*
X116425437Y-157859587D01*
X116517221Y-157855496D01*
X116609207Y-157843223D01*
X116693005Y-157824965D01*
X116775969Y-157800113D01*
X116857097Y-157768832D01*
X116936387Y-157731124D01*
X116952025Y-157722811D01*
X116952025Y-157367193D01*
X116872947Y-157417848D01*
X116795357Y-157460659D01*
X116710891Y-157499027D01*
X116677618Y-157511663D01*
X116594830Y-157536457D01*
X116504437Y-157553124D01*
X116414752Y-157558680D01*
X116324692Y-157550505D01*
X116240741Y-157520305D01*
X116211725Y-157500550D01*
X116157549Y-157430773D01*
X116139561Y-157344200D01*
X116139490Y-157337701D01*
X116156517Y-157251240D01*
X116187789Y-157200070D01*
X116255439Y-157141211D01*
X116327130Y-157106464D01*
X116501519Y-157041068D01*
G37*
G36*
X114320797Y-157832232D02*
G01*
X115438513Y-157832232D01*
X115438513Y-156026788D01*
X114320797Y-156026788D01*
X114320797Y-156327696D01*
X115084178Y-156327696D01*
X115084178Y-156710668D01*
X114393032Y-156710668D01*
X114393032Y-157011576D01*
X115084178Y-157011576D01*
X115084178Y-157531324D01*
X114320797Y-157531324D01*
X114320797Y-157832232D01*
G37*
G36*
X113456383Y-156768104D02*
G01*
X113532198Y-156808976D01*
X113551085Y-156832030D01*
X113575368Y-156916260D01*
X113572670Y-156947008D01*
X113532198Y-157023543D01*
X113509384Y-157042243D01*
X113426196Y-157066286D01*
X113395635Y-157063561D01*
X113319340Y-157022689D01*
X113300453Y-156999688D01*
X113276170Y-156916260D01*
X113278868Y-156885672D01*
X113319340Y-156808976D01*
X113342207Y-156789902D01*
X113426196Y-156765379D01*
X113456383Y-156768104D01*
G37*
G36*
X113480584Y-156001477D02*
G01*
X113565403Y-156013966D01*
X113657572Y-156043939D01*
X113739252Y-156090261D01*
X113810443Y-156152932D01*
X113871146Y-156231952D01*
X113889054Y-156261877D01*
X113928770Y-156344680D01*
X113961266Y-156438900D01*
X113982063Y-156522494D01*
X113998238Y-156613396D01*
X114009792Y-156711603D01*
X114016724Y-156817117D01*
X114019035Y-156929937D01*
X114018890Y-156958775D01*
X114015424Y-157069585D01*
X114007337Y-157173129D01*
X113994627Y-157269406D01*
X113977297Y-157358418D01*
X113949134Y-157459463D01*
X113913750Y-157549156D01*
X113871146Y-157627495D01*
X113842105Y-157668972D01*
X113776158Y-157739688D01*
X113699723Y-157794084D01*
X113612799Y-157832162D01*
X113515386Y-157853920D01*
X113426196Y-157859587D01*
X113371656Y-157857551D01*
X113286615Y-157845108D01*
X113194236Y-157815245D01*
X113112406Y-157769093D01*
X113041125Y-157706652D01*
X112980392Y-157627922D01*
X112962484Y-157598048D01*
X112922767Y-157515341D01*
X112890272Y-157421176D01*
X112869475Y-157337594D01*
X112853300Y-157246679D01*
X112841746Y-157148432D01*
X112834814Y-157042851D01*
X112832503Y-156929937D01*
X113189403Y-156929937D01*
X113189458Y-156950306D01*
X113191401Y-157046915D01*
X113196120Y-157134800D01*
X113205447Y-157228747D01*
X113221380Y-157322474D01*
X113246250Y-157408653D01*
X113278655Y-157474290D01*
X113342989Y-157537582D01*
X113426196Y-157558680D01*
X113496438Y-157544029D01*
X113563757Y-157487769D01*
X113605715Y-157408653D01*
X113609186Y-157399102D01*
X113632988Y-157310131D01*
X113648030Y-157213961D01*
X113656625Y-157117921D01*
X113660757Y-157028291D01*
X113662135Y-156929937D01*
X113662080Y-156909516D01*
X113660151Y-156812669D01*
X113655468Y-156724588D01*
X113646212Y-156630461D01*
X113630399Y-156536600D01*
X113605715Y-156450367D01*
X113577694Y-156391909D01*
X113515003Y-156325101D01*
X113426196Y-156300340D01*
X113355546Y-156314991D01*
X113288066Y-156371251D01*
X113246250Y-156450367D01*
X113242753Y-156459918D01*
X113218770Y-156548956D01*
X113203615Y-156645272D01*
X113194954Y-156741503D01*
X113190791Y-156831337D01*
X113189403Y-156929937D01*
X112832503Y-156929937D01*
X112832647Y-156900969D01*
X112836114Y-156789695D01*
X112844201Y-156685780D01*
X112856910Y-156589226D01*
X112874241Y-156500031D01*
X112902404Y-156398887D01*
X112937787Y-156309242D01*
X112980392Y-156231098D01*
X113009440Y-156189697D01*
X113075447Y-156119111D01*
X113152003Y-156064815D01*
X113239107Y-156026808D01*
X113336761Y-156005089D01*
X113426196Y-155999433D01*
X113480584Y-156001477D01*
G37*
G36*
X111982622Y-156768104D02*
G01*
X112058436Y-156808976D01*
X112077323Y-156832030D01*
X112101606Y-156916260D01*
X112098908Y-156947008D01*
X112058436Y-157023543D01*
X112035623Y-157042243D01*
X111952435Y-157066286D01*
X111921874Y-157063561D01*
X111845579Y-157022689D01*
X111826692Y-156999688D01*
X111802409Y-156916260D01*
X111805107Y-156885672D01*
X111845579Y-156808976D01*
X111868446Y-156789902D01*
X111952435Y-156765379D01*
X111982622Y-156768104D01*
G37*
G36*
X112006823Y-156001477D02*
G01*
X112091642Y-156013966D01*
X112183810Y-156043939D01*
X112265490Y-156090261D01*
X112336682Y-156152932D01*
X112397384Y-156231952D01*
X112415293Y-156261877D01*
X112455009Y-156344680D01*
X112487504Y-156438900D01*
X112508301Y-156522494D01*
X112524477Y-156613396D01*
X112536030Y-156711603D01*
X112542963Y-156817117D01*
X112545273Y-156929937D01*
X112545129Y-156958775D01*
X112541663Y-157069585D01*
X112533575Y-157173129D01*
X112520866Y-157269406D01*
X112503535Y-157358418D01*
X112475373Y-157459463D01*
X112439989Y-157549156D01*
X112397384Y-157627495D01*
X112368344Y-157668972D01*
X112302397Y-157739688D01*
X112225962Y-157794084D01*
X112139037Y-157832162D01*
X112041624Y-157853920D01*
X111952435Y-157859587D01*
X111897894Y-157857551D01*
X111812854Y-157845108D01*
X111720475Y-157815245D01*
X111638645Y-157769093D01*
X111567363Y-157706652D01*
X111506631Y-157627922D01*
X111488722Y-157598048D01*
X111449006Y-157515341D01*
X111416511Y-157421176D01*
X111395714Y-157337594D01*
X111379539Y-157246679D01*
X111367985Y-157148432D01*
X111361052Y-157042851D01*
X111358742Y-156929937D01*
X111715642Y-156929937D01*
X111715697Y-156950306D01*
X111717640Y-157046915D01*
X111722359Y-157134800D01*
X111731685Y-157228747D01*
X111747618Y-157322474D01*
X111772489Y-157408653D01*
X111804893Y-157474290D01*
X111869227Y-157537582D01*
X111952435Y-157558680D01*
X112022676Y-157544029D01*
X112089996Y-157487769D01*
X112131953Y-157408653D01*
X112135425Y-157399102D01*
X112159227Y-157310131D01*
X112174269Y-157213961D01*
X112182864Y-157117921D01*
X112186996Y-157028291D01*
X112188374Y-156929937D01*
X112188318Y-156909516D01*
X112186390Y-156812669D01*
X112181707Y-156724588D01*
X112172450Y-156630461D01*
X112156637Y-156536600D01*
X112131953Y-156450367D01*
X112103933Y-156391909D01*
X112041242Y-156325101D01*
X111952435Y-156300340D01*
X111881785Y-156314991D01*
X111814305Y-156371251D01*
X111772489Y-156450367D01*
X111768992Y-156459918D01*
X111745009Y-156548956D01*
X111729853Y-156645272D01*
X111721193Y-156741503D01*
X111717029Y-156831337D01*
X111715642Y-156929937D01*
X111358742Y-156929937D01*
X111358886Y-156900969D01*
X111362352Y-156789695D01*
X111370440Y-156685780D01*
X111383149Y-156589226D01*
X111400480Y-156500031D01*
X111428642Y-156398887D01*
X111464026Y-156309242D01*
X111506631Y-156231098D01*
X111535679Y-156189697D01*
X111601686Y-156119111D01*
X111678241Y-156064815D01*
X111765346Y-156026808D01*
X111862999Y-156005089D01*
X111952435Y-155999433D01*
X112006823Y-156001477D01*
G37*
G36*
X110508861Y-156768104D02*
G01*
X110584675Y-156808976D01*
X110603562Y-156832030D01*
X110627845Y-156916260D01*
X110625147Y-156947008D01*
X110584675Y-157023543D01*
X110561861Y-157042243D01*
X110478674Y-157066286D01*
X110448113Y-157063561D01*
X110371817Y-157022689D01*
X110352931Y-156999688D01*
X110328647Y-156916260D01*
X110331346Y-156885672D01*
X110371817Y-156808976D01*
X110394685Y-156789902D01*
X110478674Y-156765379D01*
X110508861Y-156768104D01*
G37*
G36*
X110533061Y-156001477D02*
G01*
X110617881Y-156013966D01*
X110710049Y-156043939D01*
X110791729Y-156090261D01*
X110862920Y-156152932D01*
X110923623Y-156231952D01*
X110941531Y-156261877D01*
X110981248Y-156344680D01*
X111013743Y-156438900D01*
X111034540Y-156522494D01*
X111050715Y-156613396D01*
X111062269Y-156711603D01*
X111069201Y-156817117D01*
X111071512Y-156929937D01*
X111071368Y-156958775D01*
X111067902Y-157069585D01*
X111059814Y-157173129D01*
X111047105Y-157269406D01*
X111029774Y-157358418D01*
X111001611Y-157459463D01*
X110966228Y-157549156D01*
X110923623Y-157627495D01*
X110894583Y-157668972D01*
X110828636Y-157739688D01*
X110752200Y-157794084D01*
X110665276Y-157832162D01*
X110567863Y-157853920D01*
X110478674Y-157859587D01*
X110424133Y-157857551D01*
X110339093Y-157845108D01*
X110246714Y-157815245D01*
X110164884Y-157769093D01*
X110093602Y-157706652D01*
X110032869Y-157627922D01*
X110014961Y-157598048D01*
X109975245Y-157515341D01*
X109942750Y-157421176D01*
X109921953Y-157337594D01*
X109905777Y-157246679D01*
X109894223Y-157148432D01*
X109887291Y-157042851D01*
X109884980Y-156929937D01*
X110241880Y-156929937D01*
X110241936Y-156950306D01*
X110243879Y-157046915D01*
X110248598Y-157134800D01*
X110257924Y-157228747D01*
X110273857Y-157322474D01*
X110298728Y-157408653D01*
X110331132Y-157474290D01*
X110395466Y-157537582D01*
X110478674Y-157558680D01*
X110548915Y-157544029D01*
X110616234Y-157487769D01*
X110658192Y-157408653D01*
X110661663Y-157399102D01*
X110685466Y-157310131D01*
X110700507Y-157213961D01*
X110709102Y-157117921D01*
X110713235Y-157028291D01*
X110714612Y-156929937D01*
X110714557Y-156909516D01*
X110712629Y-156812669D01*
X110707945Y-156724588D01*
X110698689Y-156630461D01*
X110682876Y-156536600D01*
X110658192Y-156450367D01*
X110630172Y-156391909D01*
X110567480Y-156325101D01*
X110478674Y-156300340D01*
X110408023Y-156314991D01*
X110340544Y-156371251D01*
X110298728Y-156450367D01*
X110295230Y-156459918D01*
X110271248Y-156548956D01*
X110256092Y-156645272D01*
X110247432Y-156741503D01*
X110243268Y-156831337D01*
X110241880Y-156929937D01*
X109884980Y-156929937D01*
X109885125Y-156900969D01*
X109888591Y-156789695D01*
X109896679Y-156685780D01*
X109909388Y-156589226D01*
X109926719Y-156500031D01*
X109954881Y-156398887D01*
X109990265Y-156309242D01*
X110032869Y-156231098D01*
X110061917Y-156189697D01*
X110127924Y-156119111D01*
X110204480Y-156064815D01*
X110291585Y-156026808D01*
X110389238Y-156005089D01*
X110478674Y-155999433D01*
X110533061Y-156001477D01*
G37*
G36*
X109035099Y-156768104D02*
G01*
X109110914Y-156808976D01*
X109129801Y-156832030D01*
X109154084Y-156916260D01*
X109151386Y-156947008D01*
X109110914Y-157023543D01*
X109088100Y-157042243D01*
X109004912Y-157066286D01*
X108974351Y-157063561D01*
X108898056Y-157022689D01*
X108879169Y-156999688D01*
X108854886Y-156916260D01*
X108857584Y-156885672D01*
X108898056Y-156808976D01*
X108920923Y-156789902D01*
X109004912Y-156765379D01*
X109035099Y-156768104D01*
G37*
G36*
X109059300Y-156001477D02*
G01*
X109144119Y-156013966D01*
X109236288Y-156043939D01*
X109317968Y-156090261D01*
X109389159Y-156152932D01*
X109449862Y-156231952D01*
X109467770Y-156261877D01*
X109507486Y-156344680D01*
X109539982Y-156438900D01*
X109560778Y-156522494D01*
X109576954Y-156613396D01*
X109588508Y-156711603D01*
X109595440Y-156817117D01*
X109597751Y-156929937D01*
X109597606Y-156958775D01*
X109594140Y-157069585D01*
X109586053Y-157173129D01*
X109573343Y-157269406D01*
X109556013Y-157358418D01*
X109527850Y-157459463D01*
X109492466Y-157549156D01*
X109449862Y-157627495D01*
X109420821Y-157668972D01*
X109354874Y-157739688D01*
X109278439Y-157794084D01*
X109191515Y-157832162D01*
X109094102Y-157853920D01*
X109004912Y-157859587D01*
X108950372Y-157857551D01*
X108865331Y-157845108D01*
X108772952Y-157815245D01*
X108691122Y-157769093D01*
X108619841Y-157706652D01*
X108559108Y-157627922D01*
X108541200Y-157598048D01*
X108501483Y-157515341D01*
X108468988Y-157421176D01*
X108448191Y-157337594D01*
X108432016Y-157246679D01*
X108420462Y-157148432D01*
X108413530Y-157042851D01*
X108411219Y-156929937D01*
X108768119Y-156929937D01*
X108768174Y-156950306D01*
X108770117Y-157046915D01*
X108774836Y-157134800D01*
X108784163Y-157228747D01*
X108800096Y-157322474D01*
X108824966Y-157408653D01*
X108857371Y-157474290D01*
X108921705Y-157537582D01*
X109004912Y-157558680D01*
X109075154Y-157544029D01*
X109142473Y-157487769D01*
X109184431Y-157408653D01*
X109187902Y-157399102D01*
X109211704Y-157310131D01*
X109226746Y-157213961D01*
X109235341Y-157117921D01*
X109239473Y-157028291D01*
X109240851Y-156929937D01*
X109240796Y-156909516D01*
X109238867Y-156812669D01*
X109234184Y-156724588D01*
X109224928Y-156630461D01*
X109209115Y-156536600D01*
X109184431Y-156450367D01*
X109156410Y-156391909D01*
X109093719Y-156325101D01*
X109004912Y-156300340D01*
X108934262Y-156314991D01*
X108866782Y-156371251D01*
X108824966Y-156450367D01*
X108821469Y-156459918D01*
X108797486Y-156548956D01*
X108782331Y-156645272D01*
X108773670Y-156741503D01*
X108769507Y-156831337D01*
X108768119Y-156929937D01*
X108411219Y-156929937D01*
X108411363Y-156900969D01*
X108414830Y-156789695D01*
X108422917Y-156685780D01*
X108435626Y-156589226D01*
X108452957Y-156500031D01*
X108481120Y-156398887D01*
X108516503Y-156309242D01*
X108559108Y-156231098D01*
X108588156Y-156189697D01*
X108654163Y-156119111D01*
X108730719Y-156064815D01*
X108817823Y-156026808D01*
X108915477Y-156005089D01*
X109004912Y-155999433D01*
X109059300Y-156001477D01*
G37*
G36*
X107749993Y-157531324D02*
G01*
X106993878Y-157531324D01*
X106993878Y-157832232D01*
X108133820Y-157832232D01*
X108133820Y-157540728D01*
X107941479Y-157337273D01*
X107879575Y-157271686D01*
X107804412Y-157191867D01*
X107737677Y-157120771D01*
X107666110Y-157044167D01*
X107607713Y-156981190D01*
X107548081Y-156915919D01*
X107525594Y-156890614D01*
X107469551Y-156822573D01*
X107418685Y-156749324D01*
X107395657Y-156708104D01*
X107364641Y-156623996D01*
X107355907Y-156550384D01*
X107367899Y-156462174D01*
X107411539Y-156382833D01*
X107428569Y-156365736D01*
X107503848Y-156321032D01*
X107594700Y-156301937D01*
X107635015Y-156300340D01*
X107722542Y-156307049D01*
X107811875Y-156325292D01*
X107848300Y-156335389D01*
X107930910Y-156363223D01*
X108015944Y-156398531D01*
X108095352Y-156437116D01*
X108095352Y-156108854D01*
X108015485Y-156077966D01*
X107928885Y-156049774D01*
X107843599Y-156027643D01*
X107752457Y-156010453D01*
X107664321Y-156001196D01*
X107607233Y-155999433D01*
X107521126Y-156002720D01*
X107425676Y-156015343D01*
X107338822Y-156037432D01*
X107248356Y-156075168D01*
X107169589Y-156125789D01*
X107159291Y-156134072D01*
X107095837Y-156197473D01*
X107047969Y-156270242D01*
X107015685Y-156352378D01*
X106998987Y-156443882D01*
X106996442Y-156500375D01*
X107003233Y-156591338D01*
X107023604Y-156677229D01*
X107031919Y-156700838D01*
X107069138Y-156780349D01*
X107118395Y-156859880D01*
X107153735Y-156908994D01*
X107215286Y-156980754D01*
X107284250Y-157055028D01*
X107346558Y-157120202D01*
X107419740Y-157195477D01*
X107486115Y-157262970D01*
X107503796Y-157280853D01*
X107568462Y-157346455D01*
X107634953Y-157414015D01*
X107700304Y-157480568D01*
X107749993Y-157531324D01*
G37*
G36*
X106118271Y-156001443D02*
G01*
X106203482Y-156011997D01*
X106293627Y-156035743D01*
X106373791Y-156071802D01*
X106453185Y-156128088D01*
X106470783Y-156144481D01*
X106529821Y-156217330D01*
X106570694Y-156301826D01*
X106591556Y-156385315D01*
X106598510Y-156477722D01*
X106592897Y-156555229D01*
X106570794Y-156640410D01*
X106527557Y-156721354D01*
X106471100Y-156783316D01*
X106399290Y-156832853D01*
X106320683Y-156867106D01*
X106339340Y-156873005D01*
X106424908Y-156911164D01*
X106497621Y-156963766D01*
X106557477Y-157030810D01*
X106572754Y-157053437D01*
X106612825Y-157135049D01*
X106636200Y-157226177D01*
X106642962Y-157316330D01*
X106639236Y-157394660D01*
X106624931Y-157481053D01*
X106594681Y-157571362D01*
X106549828Y-157650381D01*
X106490371Y-157718109D01*
X106417497Y-157773236D01*
X106332393Y-157814822D01*
X106249711Y-157839691D01*
X106158043Y-157854613D01*
X106057390Y-157859587D01*
X105956446Y-157854613D01*
X105864547Y-157839691D01*
X105781696Y-157814822D01*
X105696468Y-157773236D01*
X105623553Y-157718109D01*
X105571696Y-157660747D01*
X105524757Y-157583342D01*
X105492421Y-157494646D01*
X105476327Y-157409635D01*
X105470963Y-157316330D01*
X105471396Y-157298378D01*
X105790676Y-157298378D01*
X105793276Y-157344344D01*
X105816745Y-157432701D01*
X105864621Y-157505679D01*
X105888824Y-157528828D01*
X105968252Y-157572773D01*
X106057390Y-157586035D01*
X106093539Y-157584104D01*
X106177077Y-157561015D01*
X106250158Y-157506961D01*
X106278638Y-157469807D01*
X106312970Y-157388217D01*
X106323248Y-157298378D01*
X106320678Y-157251600D01*
X106297481Y-157162516D01*
X106250158Y-157090222D01*
X106226068Y-157067565D01*
X106146734Y-157024555D01*
X106057390Y-157011576D01*
X106021004Y-157013496D01*
X105937146Y-157036460D01*
X105864194Y-157090222D01*
X105835548Y-157127063D01*
X105801015Y-157208398D01*
X105790676Y-157298378D01*
X105471396Y-157298378D01*
X105471703Y-157285651D01*
X105482804Y-157198621D01*
X105510761Y-157110723D01*
X105555165Y-157032092D01*
X105565893Y-157017523D01*
X105627193Y-156953192D01*
X105701266Y-156903053D01*
X105788112Y-156867106D01*
X105718136Y-156836328D01*
X105646294Y-156787598D01*
X105585085Y-156720499D01*
X105545419Y-156646879D01*
X105522218Y-156562956D01*
X105517496Y-156503795D01*
X105830427Y-156503795D01*
X105830486Y-156510483D01*
X105845601Y-156600393D01*
X105891121Y-156674765D01*
X105894959Y-156678657D01*
X105968275Y-156724124D01*
X106057390Y-156738024D01*
X106063892Y-156737962D01*
X106151103Y-156722209D01*
X106222803Y-156674765D01*
X106230153Y-156666684D01*
X106271880Y-156589533D01*
X106283497Y-156503795D01*
X106283438Y-156497238D01*
X106268217Y-156409013D01*
X106222376Y-156335817D01*
X106218488Y-156331951D01*
X106145158Y-156286791D01*
X106057390Y-156272985D01*
X106050835Y-156273046D01*
X105963036Y-156288479D01*
X105891121Y-156334962D01*
X105883772Y-156342884D01*
X105842044Y-156418886D01*
X105830427Y-156503795D01*
X105517496Y-156503795D01*
X105515415Y-156477722D01*
X105515557Y-156463975D01*
X105524524Y-156372842D01*
X105551853Y-156279610D01*
X105597400Y-156198026D01*
X105661167Y-156128088D01*
X105709158Y-156091024D01*
X105785006Y-156049689D01*
X105870958Y-156020666D01*
X105967014Y-156003956D01*
X106057390Y-155999433D01*
X106118271Y-156001443D01*
G37*
D13*
G36*
X95076970Y-151160704D02*
G01*
X95076970Y-149362588D01*
X96706559Y-149362588D01*
X96706559Y-148824766D01*
X95076970Y-148824766D01*
X95076970Y-147035443D01*
X94514235Y-147035443D01*
X94514235Y-148824766D01*
X92891974Y-148824766D01*
X92891974Y-149362588D01*
X94514235Y-149362588D01*
X94514235Y-151160704D01*
X95076970Y-151160704D01*
G37*
D14*
%TO.C,J8*%
X110740000Y-202765000D02*
X110740000Y-208735000D01*
X110740000Y-208735000D02*
X118360000Y-208735000D01*
X110750000Y-202775000D02*
X110750000Y-203525000D01*
X110750000Y-203525000D02*
X112550000Y-203525000D01*
X111500000Y-205025000D02*
X110750000Y-205025000D01*
X111500000Y-207975000D02*
X111500000Y-205025000D01*
X112550000Y-202775000D02*
X110750000Y-202775000D01*
X112550000Y-203525000D02*
X112550000Y-202775000D01*
X114050000Y-202775000D02*
X114050000Y-203525000D01*
X114050000Y-203525000D02*
X115050000Y-203525000D01*
X114550000Y-207975000D02*
X111500000Y-207975000D01*
X114550000Y-207975000D02*
X117600000Y-207975000D01*
X115050000Y-202775000D02*
X114050000Y-202775000D01*
X115050000Y-203525000D02*
X115050000Y-202775000D01*
X116550000Y-202775000D02*
X116550000Y-203525000D01*
X116550000Y-203525000D02*
X118350000Y-203525000D01*
X117600000Y-205025000D02*
X118350000Y-205025000D01*
X117600000Y-207975000D02*
X117600000Y-205025000D01*
X118350000Y-202775000D02*
X116550000Y-202775000D01*
X118350000Y-203525000D02*
X118350000Y-202775000D01*
X118360000Y-202765000D02*
X110740000Y-202765000D01*
X118360000Y-208735000D02*
X118360000Y-202765000D01*
X118650000Y-202475000D02*
X117400000Y-202475000D01*
X118650000Y-203725000D02*
X118650000Y-202475000D01*
%TO.C,BT1*%
X84750000Y-151750000D02*
X104850000Y-151750000D01*
X84750000Y-229750000D02*
X84750000Y-151750000D01*
X104850000Y-151750000D02*
X104850000Y-229750000D01*
X104850000Y-229750000D02*
X84750000Y-229750000D01*
%TO.C,J1*%
X112945190Y-227305190D02*
X114865190Y-227305190D01*
X114865190Y-218145190D02*
X112945190Y-218145190D01*
X116875190Y-218145190D02*
X118580190Y-218145190D01*
X118580190Y-218145190D02*
X118580190Y-227305190D01*
X118580190Y-227305190D02*
X116875190Y-227305190D01*
%TD*%
M02*
