M48
; DRILL file {KiCad 8.0.5-8.0.5-0~ubuntu24.04.1} date 2024-10-11T17:30:18+0200
; FORMAT={-:-/ absolute / inch / decimal}
; #@! TF.CreationDate,2024-10-11T17:30:18+02:00
; #@! TF.GenerationSoftware,Kicad,Pcbnew,8.0.5-8.0.5-0~ubuntu24.04.1
; #@! TF.FileFunction,Plated,1,2,PTH
FMAT,2
INCH
; #@! TA.AperFunction,Plated,PTH,ViaDrill
T1C0.0118
; #@! TA.AperFunction,Plated,PTH,ComponentDrill
T2C0.0236
; #@! TA.AperFunction,Plated,PTH,ComponentDrill
T3C0.0394
; #@! TA.AperFunction,Plated,PTH,ComponentDrill
T4C0.0433
; #@! TA.AperFunction,Plated,PTH,ComponentDrill
T5C0.0689
%
G90
G05
T1
X2.0374Y-7.4508
X2.0956Y-3.5767
X2.0965Y-7.687
X2.1113Y-3.4257
X2.124Y-4.2992
X2.1465Y-3.0213
X2.1535Y-8.2402
X2.1555Y-8.5531
X2.1556Y-2.3742
X2.1596Y-4.0501
X2.1605Y-6.5906
X2.1654Y-4.8524
X2.1705Y-6.4857
X2.173Y-2.6476
X2.1741Y-2.9548
X2.1742Y-6.3389
X2.1746Y-5.7972
X2.18Y-7.4422
X2.1831Y-3.9075
X2.1831Y-5.0943
X2.185Y-6.6576
X2.19Y-3.3497
X2.1929Y-7.6063
X2.1946Y-2.8894
X2.1949Y-3.2054
X2.1949Y-3.435
X2.1949Y-5.4823
X2.1949Y-6.8996
X2.1949Y-7.1314
X2.1949Y-7.687
X2.1949Y-3.823
X2.1955Y-6.0406
X2.2066Y-4.0631
X2.2303Y-6.9854
X2.2331Y-5.0098
X2.2331Y-5.4823
X2.2337Y-5.0948
X2.2343Y-5.9547
X2.2343Y-6.6614
X2.2493Y-4.3846
X2.2654Y-3.2759
X2.2655Y-4.8012
X2.2736Y-3.0413
X2.2795Y-4.3012
X2.2821Y-7.4311
X2.2921Y-7.3228
X2.2933Y-8.6122
X2.2933Y-8.75
X2.3287Y-7.1122
X2.3504Y-7.0827
X2.3543Y-8.0846
X2.3619Y-7.2602
X2.3652Y-7.3849
X2.3917Y-7.7283
X2.3927Y-7.9528
X2.4075Y-7.4213
X2.4301Y-8.1594
X2.437Y-7.1024
X2.4409Y-7.4961
X2.4465Y-7.4268
X2.4508Y-7.9528
X2.5089Y-7.9528
X2.5295Y-7.4803
X2.5295Y-7.5295
X2.5295Y-7.5787
X2.5394Y-7.1949
X2.5787Y-7.5787
X2.5791Y-5.902
X2.5803Y-7.7149
X2.5812Y-7.5295
X2.5984Y-7.2283
X2.5994Y-7.31
X2.6087Y-5.902
X2.62Y-7.8001
X2.628Y-7.5787
X2.63Y-8.5622
X2.6313Y-8.4746
X2.6339Y-7.8976
X2.6382Y-5.902
X2.6457Y-7.2894
X2.6474Y-8.443
X2.6767Y-7.6239
X2.6803Y-7.2913
X2.687Y-7.1555
X2.7114Y-7.7677
X2.7122Y-7.6139
X2.7165Y-7.4469
X2.7313Y-7.5333
X2.7441Y-7.5984
X2.7571Y-7.4075
X2.7581Y-7.4449
X2.7827Y-7.7028
X2.7933Y-7.6516
X2.8228Y-7.8031
X2.8543Y-7.8268
T3
X2.6673Y-7.8337
X2.7657Y-7.8337
X2.811Y-6.5421
X2.811Y-6.6421
X2.811Y-6.7421
X2.811Y-6.8421
X2.811Y-6.9421
X2.811Y-7.0421
X2.811Y-7.1421
X2.811Y-7.2421
T4
X2.4193Y-6.1201
X2.4193Y-6.376
X2.4193Y-6.498
X2.4193Y-6.7539
X2.5965Y-6.1201
X2.5965Y-6.376
X2.5965Y-6.498
X2.5965Y-6.7539
T5
X1.939Y-5.8465
X1.939Y-8.6811
T2
G00X2.6248Y-8.3526
M15
G01X2.5815Y-8.3526
M16
G05
G00X2.6248Y-8.6927
M15
G01X2.5815Y-8.6927
M16
G05
G00X2.7843Y-8.3526
M15
G01X2.7528Y-8.3526
M16
G05
G00X2.7843Y-8.6927
M15
G01X2.7528Y-8.6927
M16
G05
M30
