%TF.GenerationSoftware,KiCad,Pcbnew,8.0.5-8.0.5-0~ubuntu24.04.1*%
%TF.CreationDate,2024-10-11T17:30:16+02:00*%
%TF.ProjectId,v_ggtermometer,76e46767-7465-4726-9d6f-6d657465722e,rev?*%
%TF.SameCoordinates,Original*%
%TF.FileFunction,Paste,Top*%
%TF.FilePolarity,Positive*%
%FSLAX46Y46*%
G04 Gerber Fmt 4.6, Leading zero omitted, Abs format (unit mm)*
G04 Created by KiCad (PCBNEW 8.0.5-8.0.5-0~ubuntu24.04.1) date 2024-10-11 17:30:16*
%MOMM*%
%LPD*%
G01*
G04 APERTURE LIST*
G04 Aperture macros list*
%AMRoundRect*
0 Rectangle with rounded corners*
0 $1 Rounding radius*
0 $2 $3 $4 $5 $6 $7 $8 $9 X,Y pos of 4 corners*
0 Add a 4 corners polygon primitive as box body*
4,1,4,$2,$3,$4,$5,$6,$7,$8,$9,$2,$3,0*
0 Add four circle primitives for the rounded corners*
1,1,$1+$1,$2,$3*
1,1,$1+$1,$4,$5*
1,1,$1+$1,$6,$7*
1,1,$1+$1,$8,$9*
0 Add four rect primitives between the rounded corners*
20,1,$1+$1,$2,$3,$4,$5,0*
20,1,$1+$1,$4,$5,$6,$7,0*
20,1,$1+$1,$6,$7,$8,$9,0*
20,1,$1+$1,$8,$9,$2,$3,0*%
G04 Aperture macros list end*
%ADD10RoundRect,0.147500X-0.147500X-0.172500X0.147500X-0.172500X0.147500X0.172500X-0.147500X0.172500X0*%
%ADD11RoundRect,0.147500X0.147500X0.172500X-0.147500X0.172500X-0.147500X-0.172500X0.147500X-0.172500X0*%
%ADD12RoundRect,0.140000X-0.140000X-0.170000X0.140000X-0.170000X0.140000X0.170000X-0.140000X0.170000X0*%
%ADD13RoundRect,0.135000X0.185000X-0.135000X0.185000X0.135000X-0.185000X0.135000X-0.185000X-0.135000X0*%
%ADD14RoundRect,0.140000X0.170000X-0.140000X0.170000X0.140000X-0.170000X0.140000X-0.170000X-0.140000X0*%
%ADD15RoundRect,0.140000X-0.170000X0.140000X-0.170000X-0.140000X0.170000X-0.140000X0.170000X0.140000X0*%
%ADD16R,0.900000X0.800000*%
%ADD17RoundRect,0.135000X-0.185000X0.135000X-0.185000X-0.135000X0.185000X-0.135000X0.185000X0.135000X0*%
%ADD18RoundRect,0.225000X-0.250000X0.225000X-0.250000X-0.225000X0.250000X-0.225000X0.250000X0.225000X0*%
%ADD19RoundRect,0.225000X-0.225000X-0.250000X0.225000X-0.250000X0.225000X0.250000X-0.225000X0.250000X0*%
%ADD20RoundRect,0.135000X0.135000X0.185000X-0.135000X0.185000X-0.135000X-0.185000X0.135000X-0.185000X0*%
%ADD21RoundRect,0.150000X0.150000X-0.512500X0.150000X0.512500X-0.150000X0.512500X-0.150000X-0.512500X0*%
%ADD22RoundRect,0.140000X0.140000X0.170000X-0.140000X0.170000X-0.140000X-0.170000X0.140000X-0.170000X0*%
%ADD23R,1.000000X1.000000*%
%ADD24R,1.050000X2.200000*%
%ADD25RoundRect,0.150000X-0.512500X-0.150000X0.512500X-0.150000X0.512500X0.150000X-0.512500X0.150000X0*%
%ADD26RoundRect,0.135000X-0.135000X-0.185000X0.135000X-0.185000X0.135000X0.185000X-0.135000X0.185000X0*%
%ADD27RoundRect,0.112500X-0.112500X0.187500X-0.112500X-0.187500X0.112500X-0.187500X0.112500X0.187500X0*%
%ADD28RoundRect,0.150000X-0.587500X-0.150000X0.587500X-0.150000X0.587500X0.150000X-0.587500X0.150000X0*%
%ADD29RoundRect,0.232500X0.232500X-0.232500X0.232500X0.232500X-0.232500X0.232500X-0.232500X-0.232500X0*%
%ADD30RoundRect,0.062500X0.062500X-0.375000X0.062500X0.375000X-0.062500X0.375000X-0.062500X-0.375000X0*%
%ADD31RoundRect,0.062500X0.375000X-0.062500X0.375000X0.062500X-0.375000X0.062500X-0.375000X-0.062500X0*%
%ADD32RoundRect,0.150000X0.150000X-0.587500X0.150000X0.587500X-0.150000X0.587500X-0.150000X-0.587500X0*%
G04 APERTURE END LIST*
D10*
%TO.C,D1*%
X55750000Y-42250000D03*
X56720000Y-42250000D03*
%TD*%
D11*
%TO.C,D2*%
X56720000Y-44250000D03*
X55750000Y-44250000D03*
%TD*%
D12*
%TO.C,C10*%
X69540000Y-192250000D03*
X70500000Y-192250000D03*
%TD*%
D13*
%TO.C,R13*%
X65750000Y-182760000D03*
X65750000Y-181740000D03*
%TD*%
D11*
%TO.C,D50*%
X56720000Y-126250000D03*
X55750000Y-126250000D03*
%TD*%
D10*
%TO.C,D16*%
X55750000Y-114250000D03*
X56720000Y-114250000D03*
%TD*%
D11*
%TO.C,D8*%
X56720000Y-136250000D03*
X55750000Y-136250000D03*
%TD*%
D13*
%TO.C,R9*%
X58250000Y-217260000D03*
X58250000Y-216240000D03*
%TD*%
D11*
%TO.C,D85*%
X56720000Y-216250000D03*
X55750000Y-216250000D03*
%TD*%
D14*
%TO.C,C14*%
X68260000Y-150910000D03*
X68260000Y-149950000D03*
%TD*%
D15*
%TO.C,C8*%
X67800000Y-196120000D03*
X67800000Y-197080000D03*
%TD*%
D11*
%TO.C,D25*%
X56720000Y-52250000D03*
X55750000Y-52250000D03*
%TD*%
D14*
%TO.C,C9*%
X67750000Y-187230000D03*
X67750000Y-186270000D03*
%TD*%
D12*
%TO.C,C2*%
X62770000Y-195250000D03*
X63730000Y-195250000D03*
%TD*%
D14*
%TO.C,C7*%
X66770000Y-187230000D03*
X66770000Y-186270000D03*
%TD*%
D16*
%TO.C,Y1*%
X59050000Y-192300000D03*
X60450000Y-192300000D03*
X60450000Y-191200000D03*
X59050000Y-191200000D03*
%TD*%
D10*
%TO.C,D22*%
X55750000Y-158250000D03*
X56720000Y-158250000D03*
%TD*%
D11*
%TO.C,D38*%
X56720000Y-122250000D03*
X55750000Y-122250000D03*
%TD*%
D10*
%TO.C,D51*%
X55750000Y-128250000D03*
X56720000Y-128250000D03*
%TD*%
D11*
%TO.C,D37*%
X56720000Y-92250000D03*
X55750000Y-92250000D03*
%TD*%
D17*
%TO.C,R15*%
X71750000Y-196240000D03*
X71750000Y-197260000D03*
%TD*%
D11*
%TO.C,D15*%
X56720000Y-84250000D03*
X55750000Y-84250000D03*
%TD*%
D10*
%TO.C,D54*%
X55750000Y-170250000D03*
X56720000Y-170250000D03*
%TD*%
D17*
%TO.C,RV1*%
X63700000Y-214867500D03*
X63700000Y-215887500D03*
%TD*%
D14*
%TO.C,C4*%
X66750000Y-182730000D03*
X66750000Y-181770000D03*
%TD*%
D18*
%TO.C,C15*%
X62760000Y-149425000D03*
X62760000Y-150975000D03*
%TD*%
D10*
%TO.C,D86*%
X55750000Y-202250000D03*
X56720000Y-202250000D03*
%TD*%
%TO.C,D62*%
X55750000Y-206250000D03*
X56720000Y-206250000D03*
%TD*%
D13*
%TO.C,FB1*%
X60750000Y-195260000D03*
X60750000Y-194240000D03*
%TD*%
D11*
%TO.C,D27*%
X56720000Y-88250000D03*
X55750000Y-88250000D03*
%TD*%
%TO.C,D45*%
X56720000Y-168250000D03*
X55750000Y-168250000D03*
%TD*%
D10*
%TO.C,D34*%
X55750000Y-54250000D03*
X56720000Y-54250000D03*
%TD*%
D19*
%TO.C,C18*%
X61725000Y-206000000D03*
X63275000Y-206000000D03*
%TD*%
D10*
%TO.C,D40*%
X55750000Y-146250000D03*
X56720000Y-146250000D03*
%TD*%
%TO.C,D48*%
X55750000Y-94250000D03*
X56720000Y-94250000D03*
%TD*%
D11*
%TO.C,D87*%
X56720000Y-204250000D03*
X55750000Y-204250000D03*
%TD*%
%TO.C,D33*%
X56720000Y-164250000D03*
X55750000Y-164250000D03*
%TD*%
%TO.C,D41*%
X56720000Y-148250000D03*
X55750000Y-148250000D03*
%TD*%
D17*
%TO.C,R6*%
X68995190Y-217485190D03*
X68995190Y-218505190D03*
%TD*%
D10*
%TO.C,D20*%
X55750000Y-154250000D03*
X56720000Y-154250000D03*
%TD*%
%TO.C,D30*%
X55750000Y-142250000D03*
X56720000Y-142250000D03*
%TD*%
%TO.C,D11*%
X64555000Y-145940000D03*
X65525000Y-145940000D03*
%TD*%
%TO.C,D26*%
X55750000Y-86250000D03*
X56720000Y-86250000D03*
%TD*%
D11*
%TO.C,D60*%
X56720000Y-130250000D03*
X55750000Y-130250000D03*
%TD*%
D13*
%TO.C,R7*%
X58250000Y-205260000D03*
X58250000Y-204240000D03*
%TD*%
D20*
%TO.C,R18*%
X71010000Y-155800000D03*
X69990000Y-155800000D03*
%TD*%
D13*
%TO.C,R11*%
X61500000Y-175010000D03*
X61500000Y-173990000D03*
%TD*%
D21*
%TO.C,U2*%
X61750000Y-212275000D03*
X62700000Y-212275000D03*
X63650000Y-212275000D03*
X63650000Y-210000000D03*
X61750000Y-210000000D03*
%TD*%
D11*
%TO.C,D49*%
X56720000Y-96250000D03*
X55750000Y-96250000D03*
%TD*%
D22*
%TO.C,C16*%
X70330000Y-208600000D03*
X69370000Y-208600000D03*
%TD*%
D11*
%TO.C,D19*%
X56720000Y-140250000D03*
X55750000Y-140250000D03*
%TD*%
%TO.C,D81*%
X56720000Y-108250000D03*
X55750000Y-108250000D03*
%TD*%
D20*
%TO.C,R14*%
X53760000Y-217250000D03*
X52740000Y-217250000D03*
%TD*%
D15*
%TO.C,C1*%
X61750000Y-194270000D03*
X61750000Y-195230000D03*
%TD*%
D11*
%TO.C,D55*%
X56720000Y-172250000D03*
X55750000Y-172250000D03*
%TD*%
D17*
%TO.C,R5*%
X67995190Y-217475190D03*
X67995190Y-218495190D03*
%TD*%
D10*
%TO.C,D39*%
X55750000Y-124250000D03*
X56720000Y-124250000D03*
%TD*%
%TO.C,D74*%
X55750000Y-198250000D03*
X56720000Y-198250000D03*
%TD*%
D23*
%TO.C,J4*%
X62250000Y-200500000D03*
D24*
X63725000Y-202000000D03*
D23*
X62250000Y-203500000D03*
D24*
X60775000Y-202000000D03*
%TD*%
D10*
%TO.C,D29*%
X55750000Y-120250000D03*
X56720000Y-120250000D03*
%TD*%
%TO.C,D9*%
X55750000Y-150250000D03*
X56720000Y-150250000D03*
%TD*%
%TO.C,D80*%
X55750000Y-106250000D03*
X56720000Y-106250000D03*
%TD*%
%TO.C,D90*%
X55750000Y-74250000D03*
X56720000Y-74250000D03*
%TD*%
D14*
%TO.C,C3*%
X64750000Y-196480000D03*
X64750000Y-195520000D03*
%TD*%
%TO.C,C6*%
X59750000Y-194500000D03*
X59750000Y-193540000D03*
%TD*%
D10*
%TO.C,D32*%
X55750000Y-162250000D03*
X56720000Y-162250000D03*
%TD*%
D11*
%TO.C,D89*%
X56720000Y-184250000D03*
X55750000Y-184250000D03*
%TD*%
%TO.C,D53*%
X56720000Y-192250000D03*
X55750000Y-192250000D03*
%TD*%
%TO.C,D31*%
X56720000Y-144250000D03*
X55750000Y-144250000D03*
%TD*%
D10*
%TO.C,D68*%
X55750000Y-66250000D03*
X56720000Y-66250000D03*
%TD*%
D12*
%TO.C,C5*%
X59500000Y-189750000D03*
X60460000Y-189750000D03*
%TD*%
D10*
%TO.C,D42*%
X55750000Y-186250000D03*
X56720000Y-186250000D03*
%TD*%
D11*
%TO.C,D75*%
X56720000Y-200250000D03*
X55750000Y-200250000D03*
%TD*%
D13*
%TO.C,R16*%
X69260000Y-150920000D03*
X69260000Y-149900000D03*
%TD*%
D11*
%TO.C,D13*%
X56720000Y-48250000D03*
X55750000Y-48250000D03*
%TD*%
D22*
%TO.C,C12*%
X62680000Y-208500000D03*
X61720000Y-208500000D03*
%TD*%
D25*
%TO.C,U4*%
X64510000Y-149010000D03*
X64510000Y-149960000D03*
X64510000Y-150910000D03*
X66785000Y-150910000D03*
X66785000Y-149010000D03*
%TD*%
D11*
%TO.C,D6*%
X56720000Y-112250000D03*
X55750000Y-112250000D03*
%TD*%
D13*
%TO.C,R12*%
X58250000Y-221250000D03*
X58250000Y-220230000D03*
%TD*%
D11*
%TO.C,D91*%
X56720000Y-76250000D03*
X55750000Y-76250000D03*
%TD*%
D10*
%TO.C,D46*%
X55750000Y-58250000D03*
X56720000Y-58250000D03*
%TD*%
%TO.C,D14*%
X55750000Y-82250000D03*
X56720000Y-82250000D03*
%TD*%
%TO.C,D82*%
X55750000Y-218250000D03*
X56720000Y-218250000D03*
%TD*%
%TO.C,D72*%
X55750000Y-210250000D03*
X56720000Y-210250000D03*
%TD*%
%TO.C,D36*%
X55750000Y-90250000D03*
X56720000Y-90250000D03*
%TD*%
D11*
%TO.C,D59*%
X56720000Y-100250000D03*
X55750000Y-100250000D03*
%TD*%
D10*
%TO.C,D52*%
X55750000Y-190250000D03*
X56720000Y-190250000D03*
%TD*%
%TO.C,D24*%
X55750000Y-50250000D03*
X56720000Y-50250000D03*
%TD*%
%TO.C,D56*%
X55750000Y-62250000D03*
X56720000Y-62250000D03*
%TD*%
D26*
%TO.C,R8*%
X52740000Y-189250000D03*
X53760000Y-189250000D03*
%TD*%
D10*
%TO.C,D61*%
X55750000Y-132250000D03*
X56720000Y-132250000D03*
%TD*%
D11*
%TO.C,D35*%
X56720000Y-56250000D03*
X55750000Y-56250000D03*
%TD*%
%TO.C,D17*%
X56720000Y-116250000D03*
X55750000Y-116250000D03*
%TD*%
%TO.C,D4*%
X56720000Y-80250000D03*
X55750000Y-80250000D03*
%TD*%
D20*
%TO.C,R10*%
X53760000Y-209250000D03*
X52740000Y-209250000D03*
%TD*%
D10*
%TO.C,D18*%
X55750000Y-138250000D03*
X56720000Y-138250000D03*
%TD*%
%TO.C,D76*%
X55750000Y-178250000D03*
X56720000Y-178250000D03*
%TD*%
%TO.C,D44*%
X55750000Y-166250000D03*
X56720000Y-166250000D03*
%TD*%
D11*
%TO.C,D69*%
X56720000Y-68250000D03*
X55750000Y-68250000D03*
%TD*%
D14*
%TO.C,C17*%
X69700000Y-197080000D03*
X69700000Y-196120000D03*
%TD*%
D11*
%TO.C,D71*%
X56720000Y-104250000D03*
X55750000Y-104250000D03*
%TD*%
D10*
%TO.C,D5*%
X55750000Y-110250000D03*
X56720000Y-110250000D03*
%TD*%
D11*
%TO.C,D43*%
X56720000Y-188250000D03*
X55750000Y-188250000D03*
%TD*%
%TO.C,D21*%
X56720000Y-156250000D03*
X55750000Y-156250000D03*
%TD*%
D10*
%TO.C,D12*%
X55750000Y-46250000D03*
X56720000Y-46250000D03*
%TD*%
D11*
%TO.C,D67*%
X56720000Y-176250000D03*
X55750000Y-176250000D03*
%TD*%
%TO.C,D83*%
X56720000Y-220250000D03*
X55750000Y-220250000D03*
%TD*%
D10*
%TO.C,D84*%
X55750000Y-214250000D03*
X56720000Y-214250000D03*
%TD*%
D11*
%TO.C,D47*%
X56720000Y-60250000D03*
X55750000Y-60250000D03*
%TD*%
%TO.C,D77*%
X56720000Y-180250000D03*
X55750000Y-180250000D03*
%TD*%
D26*
%TO.C,R17*%
X64530000Y-146950000D03*
X65550000Y-146950000D03*
%TD*%
D27*
%TO.C,D93*%
X62200000Y-214350000D03*
X62200000Y-216450000D03*
%TD*%
D22*
%TO.C,C13*%
X65730000Y-197500000D03*
X64770000Y-197500000D03*
%TD*%
D11*
%TO.C,D10*%
X56720000Y-152250000D03*
X55750000Y-152250000D03*
%TD*%
D20*
%TO.C,R2*%
X59760000Y-109250000D03*
X58740000Y-109250000D03*
%TD*%
D17*
%TO.C,L1*%
X63750000Y-196240000D03*
X63750000Y-197260000D03*
%TD*%
D11*
%TO.C,D65*%
X56720000Y-196250000D03*
X55750000Y-196250000D03*
%TD*%
D10*
%TO.C,D88*%
X55750000Y-182250000D03*
X56720000Y-182250000D03*
%TD*%
%TO.C,D58*%
X55750000Y-98250000D03*
X56720000Y-98250000D03*
%TD*%
%TO.C,D70*%
X55750000Y-102250000D03*
X56720000Y-102250000D03*
%TD*%
D11*
%TO.C,D57*%
X56720000Y-64250000D03*
X55750000Y-64250000D03*
%TD*%
D10*
%TO.C,D66*%
X55750000Y-174250000D03*
X56720000Y-174250000D03*
%TD*%
D11*
%TO.C,D73*%
X56720000Y-212250000D03*
X55750000Y-212250000D03*
%TD*%
D26*
%TO.C,R4*%
X52740000Y-161000000D03*
X53760000Y-161000000D03*
%TD*%
D10*
%TO.C,D7*%
X55750000Y-134250000D03*
X56720000Y-134250000D03*
%TD*%
%TO.C,D78*%
X55750000Y-70250000D03*
X56720000Y-70250000D03*
%TD*%
D13*
%TO.C,R3*%
X58250000Y-185260000D03*
X58250000Y-184240000D03*
%TD*%
D11*
%TO.C,D79*%
X56720000Y-72250000D03*
X55750000Y-72250000D03*
%TD*%
D28*
%TO.C,Q1*%
X70000000Y-157150000D03*
X70000000Y-159050000D03*
X71875000Y-158100000D03*
%TD*%
D10*
%TO.C,D64*%
X55750000Y-194250000D03*
X56720000Y-194250000D03*
%TD*%
D29*
%TO.C,U1*%
X64412500Y-192400000D03*
X65562500Y-192400000D03*
X66712500Y-192400000D03*
X64412500Y-191250000D03*
X65562500Y-191250000D03*
X66712500Y-191250000D03*
X64412500Y-190100000D03*
X65562500Y-190100000D03*
X66712500Y-190100000D03*
D30*
X63812500Y-193687500D03*
X64312500Y-193687500D03*
X64812500Y-193687500D03*
X65312500Y-193687500D03*
X65812500Y-193687500D03*
X66312500Y-193687500D03*
X66812500Y-193687500D03*
X67312500Y-193687500D03*
D31*
X68000000Y-193000000D03*
X68000000Y-192500000D03*
X68000000Y-192000000D03*
X68000000Y-191500000D03*
X68000000Y-191000000D03*
X68000000Y-190500000D03*
X68000000Y-190000000D03*
X68000000Y-189500000D03*
D30*
X67312500Y-188812500D03*
X66812500Y-188812500D03*
X66312500Y-188812500D03*
X65812500Y-188812500D03*
X65312500Y-188812500D03*
X64812500Y-188812500D03*
X64312500Y-188812500D03*
X63812500Y-188812500D03*
D31*
X63125000Y-189500000D03*
X63125000Y-190000000D03*
X63125000Y-190500000D03*
X63125000Y-191000000D03*
X63125000Y-191500000D03*
X63125000Y-192000000D03*
X63125000Y-192500000D03*
X63125000Y-193000000D03*
%TD*%
D11*
%TO.C,D23*%
X56720000Y-160250000D03*
X55750000Y-160250000D03*
%TD*%
D17*
%TO.C,R19*%
X68200000Y-160900000D03*
X68200000Y-161920000D03*
%TD*%
D15*
%TO.C,C11*%
X60500000Y-211820000D03*
X60500000Y-212780000D03*
%TD*%
D10*
%TO.C,D28*%
X55750000Y-118250000D03*
X56720000Y-118250000D03*
%TD*%
D11*
%TO.C,D63*%
X56720000Y-208250000D03*
X55750000Y-208250000D03*
%TD*%
D10*
%TO.C,D3*%
X55750000Y-78250000D03*
X56720000Y-78250000D03*
%TD*%
D32*
%TO.C,U3*%
X69350000Y-207137500D03*
X71250000Y-207137500D03*
X70300000Y-205262500D03*
%TD*%
D26*
%TO.C,R1*%
X58740000Y-77250000D03*
X59760000Y-77250000D03*
%TD*%
M02*
