%TF.GenerationSoftware,KiCad,Pcbnew,8.0.5-8.0.5-0~ubuntu24.04.1*%
%TF.CreationDate,2024-10-11T17:30:16+02:00*%
%TF.ProjectId,v_ggtermometer,76e46767-7465-4726-9d6f-6d657465722e,rev?*%
%TF.SameCoordinates,Original*%
%TF.FileFunction,Legend,Top*%
%TF.FilePolarity,Positive*%
%FSLAX46Y46*%
G04 Gerber Fmt 4.6, Leading zero omitted, Abs format (unit mm)*
G04 Created by KiCad (PCBNEW 8.0.5-8.0.5-0~ubuntu24.04.1) date 2024-10-11 17:30:16*
%MOMM*%
%LPD*%
G01*
G04 APERTURE LIST*
%ADD10C,0.500000*%
%ADD11C,1.000000*%
%ADD12C,0.200000*%
%ADD13C,0.000000*%
%ADD14C,0.250000*%
%ADD15C,0.300000*%
%ADD16C,0.100000*%
%ADD17C,0.120000*%
G04 APERTURE END LIST*
D10*
X58250000Y-78250000D02*
X60750000Y-78250000D01*
X58250000Y-126250000D02*
X60750000Y-126250000D01*
X54250000Y-114250000D02*
X51750000Y-114250000D01*
X54250000Y-120250000D02*
X51750000Y-120250000D01*
X58250000Y-124250000D02*
X60750000Y-124250000D01*
X54250000Y-164250000D02*
X51750000Y-164250000D01*
X58250000Y-66250000D02*
X60750000Y-66250000D01*
X54250000Y-196250000D02*
X51750000Y-196250000D01*
X54250000Y-134250000D02*
X51750000Y-134250000D01*
D11*
X39750000Y-182250000D02*
X54250000Y-182250000D01*
D10*
X58250000Y-96250000D02*
X60750000Y-96250000D01*
X58250000Y-128250000D02*
X60750000Y-128250000D01*
X54250000Y-56250000D02*
X51750000Y-56250000D01*
D11*
X39750000Y-102250000D02*
X54000000Y-102250000D01*
D10*
X58250000Y-100250000D02*
X60750000Y-100250000D01*
X54250000Y-150250000D02*
X51750000Y-150250000D01*
X58250000Y-54250000D02*
X60750000Y-54250000D01*
X58250000Y-64250000D02*
X60750000Y-64250000D01*
X54250000Y-52250000D02*
X44250000Y-52250000D01*
X54250000Y-160250000D02*
X51750000Y-160250000D01*
X54250000Y-210250000D02*
X51750000Y-210250000D01*
X58250000Y-44250000D02*
X60750000Y-44250000D01*
X54250000Y-88250000D02*
X51750000Y-88250000D01*
D11*
X39750000Y-162250000D02*
X54250000Y-162250000D01*
D10*
X54250000Y-188250000D02*
X51750000Y-188250000D01*
D11*
X39750000Y-82250000D02*
X54000000Y-82250000D01*
D10*
X54250000Y-146250000D02*
X51750000Y-146250000D01*
X58250000Y-120250000D02*
X60750000Y-120250000D01*
X54250000Y-74250000D02*
X51750000Y-74250000D01*
X54250000Y-132250000D02*
X44250000Y-132250000D01*
X58250000Y-138250000D02*
X60750000Y-138250000D01*
X54250000Y-172250000D02*
X44250000Y-172250000D01*
X58250000Y-86250000D02*
X60750000Y-86250000D01*
X54250000Y-148250000D02*
X51750000Y-148250000D01*
X54250000Y-152250000D02*
X44250000Y-152250000D01*
X58250000Y-136250000D02*
X60750000Y-136250000D01*
X58250000Y-52250000D02*
X68250000Y-52250000D01*
X54250000Y-154250000D02*
X51750000Y-154250000D01*
D12*
X63700000Y-174099999D02*
X63700000Y-172599999D01*
D10*
X54250000Y-66250000D02*
X51750000Y-66250000D01*
D11*
X39750000Y-62250000D02*
X54000000Y-62250000D01*
D10*
X58250000Y-104250000D02*
X60750000Y-104250000D01*
X58250000Y-116250000D02*
X60750000Y-116250000D01*
X54250000Y-168250000D02*
X51750000Y-168250000D01*
X58250000Y-88250000D02*
X60750000Y-88250000D01*
X54250000Y-166250000D02*
X51750000Y-166250000D01*
X54250000Y-138250000D02*
X51750000Y-138250000D01*
X54250000Y-76250000D02*
X51750000Y-76250000D01*
X54250000Y-186250000D02*
X51750000Y-186250000D01*
X58250000Y-132250000D02*
X68250000Y-132250000D01*
D13*
G36*
X48063263Y-218645758D02*
G01*
X48084420Y-218955976D01*
X48119683Y-219254655D01*
X48169050Y-219541793D01*
X47900000Y-219800000D01*
X47610711Y-219974103D01*
X47522204Y-219664233D01*
X47463643Y-219375859D01*
X47421053Y-219066464D01*
X47394435Y-218736049D01*
X47383787Y-218384614D01*
X47383565Y-218323998D01*
X47389004Y-218024223D01*
X47409886Y-217684329D01*
X47446431Y-217366073D01*
X47498638Y-217069455D01*
X47579341Y-216750750D01*
X47606315Y-216665101D01*
X47713585Y-216384463D01*
X47860223Y-216101859D01*
X48032505Y-215859921D01*
X48256978Y-215636350D01*
X48511010Y-215465625D01*
X48791704Y-215350775D01*
X49099059Y-215291797D01*
X49281332Y-215283175D01*
X49604689Y-215310789D01*
X49899916Y-215393633D01*
X50167012Y-215531707D01*
X50405979Y-215725010D01*
X50616816Y-215973542D01*
X50680844Y-216068660D01*
X50824806Y-216330832D01*
X50944369Y-216626421D01*
X51039530Y-216955426D01*
X51098091Y-217242690D01*
X51141036Y-217551340D01*
X51168365Y-217881377D01*
X51180077Y-218232801D01*
X51180565Y-218323998D01*
X51172757Y-218678707D01*
X51149332Y-219012305D01*
X51110292Y-219324791D01*
X51055635Y-219616165D01*
X51000000Y-219900000D01*
X50700000Y-219700000D01*
X50395080Y-219541793D01*
X50449627Y-219217951D01*
X50483126Y-218917830D01*
X50502520Y-218606169D01*
X50507920Y-218323998D01*
X50500867Y-217998392D01*
X50479710Y-217685425D01*
X50444447Y-217385098D01*
X50395080Y-217097411D01*
X50319551Y-216798144D01*
X50207352Y-216506140D01*
X50049552Y-216234193D01*
X50016992Y-216190293D01*
X49789205Y-215980435D01*
X49503715Y-215867434D01*
X49281332Y-215845910D01*
X48986654Y-215886604D01*
X48716930Y-216023819D01*
X48550069Y-216190293D01*
X48384052Y-216452857D01*
X48264983Y-216736331D01*
X48183762Y-217027922D01*
X48169050Y-217097411D01*
X48114504Y-217421948D01*
X48081004Y-217723855D01*
X48061610Y-218038401D01*
X48056210Y-218323998D01*
X48063263Y-218645758D01*
G37*
D10*
X54250000Y-106250000D02*
X51750000Y-106250000D01*
X54250000Y-174250000D02*
X51750000Y-174250000D01*
X54250000Y-44250000D02*
X51750000Y-44250000D01*
X54250000Y-130250000D02*
X51750000Y-130250000D01*
X58250000Y-56250000D02*
X60750000Y-56250000D01*
X54250000Y-92250000D02*
X44250000Y-92250000D01*
D11*
X39750000Y-222250000D02*
X47100000Y-222250000D01*
D10*
X54250000Y-84250000D02*
X51750000Y-84250000D01*
X54250000Y-184250000D02*
X51750000Y-184250000D01*
X54250000Y-48250000D02*
X51750000Y-48250000D01*
X58250000Y-90250000D02*
X60750000Y-90250000D01*
X54250000Y-170250000D02*
X51750000Y-170250000D01*
X54250000Y-108250000D02*
X51750000Y-108250000D01*
X58250000Y-110250000D02*
X60750000Y-110250000D01*
X54250000Y-176250000D02*
X51750000Y-176250000D01*
X58250000Y-68250000D02*
X60750000Y-68250000D01*
X54250000Y-178250000D02*
X51750000Y-178250000D01*
X54250000Y-104250000D02*
X51750000Y-104250000D01*
X54250000Y-72250000D02*
X44250000Y-72250000D01*
X58250000Y-108250000D02*
X60750000Y-108250000D01*
X54250000Y-190250000D02*
X51750000Y-190250000D01*
X58250000Y-130250000D02*
X60750000Y-130250000D01*
D11*
X39750000Y-202250000D02*
X54250000Y-202250000D01*
D10*
X54250000Y-144250000D02*
X51750000Y-144250000D01*
X58250000Y-70250000D02*
X60750000Y-70250000D01*
X54250000Y-208250000D02*
X51750000Y-208250000D01*
X54250000Y-220250000D02*
X51750000Y-220250000D01*
D11*
X72750000Y-142250000D02*
X58500000Y-142250000D01*
D10*
X54250000Y-100250000D02*
X51750000Y-100250000D01*
X54250000Y-204250000D02*
X51750000Y-204250000D01*
X54250000Y-218250000D02*
X51750000Y-218250000D01*
X58250000Y-60250000D02*
X60750000Y-60250000D01*
X54250000Y-192250000D02*
X44250000Y-192250000D01*
X54250000Y-80250000D02*
X51750000Y-80250000D01*
X54250000Y-214250000D02*
X51750000Y-214250000D01*
D13*
G36*
X41942323Y-219087501D02*
G01*
X39984473Y-219087501D01*
X39984473Y-218491060D01*
X41942323Y-218491060D01*
X41942323Y-219087501D01*
G37*
D10*
X58250000Y-112250000D02*
X68250000Y-112250000D01*
X58250000Y-80250000D02*
X60750000Y-80250000D01*
X54250000Y-158250000D02*
X51750000Y-158250000D01*
D11*
X51400000Y-222250000D02*
X53900000Y-222250000D01*
D10*
X54250000Y-116250000D02*
X51750000Y-116250000D01*
X54250000Y-90250000D02*
X51750000Y-90250000D01*
X58250000Y-76250000D02*
X60750000Y-76250000D01*
X58250000Y-48250000D02*
X60750000Y-48250000D01*
D11*
X39750000Y-122250000D02*
X54000000Y-122250000D01*
D10*
X58250000Y-94250000D02*
X60750000Y-94250000D01*
X54250000Y-124250000D02*
X51750000Y-124250000D01*
X54250000Y-86250000D02*
X51750000Y-86250000D01*
X54250000Y-68250000D02*
X51750000Y-68250000D01*
X54250000Y-54250000D02*
X51750000Y-54250000D01*
X58250000Y-92250000D02*
X68250000Y-92250000D01*
X54250000Y-136250000D02*
X51750000Y-136250000D01*
X58250000Y-140250000D02*
X60750000Y-140250000D01*
X58250000Y-134250000D02*
X60750000Y-134250000D01*
X54250000Y-140250000D02*
X51750000Y-140250000D01*
X54250000Y-112250000D02*
X44250000Y-112250000D01*
X58250000Y-46250000D02*
X60750000Y-46250000D01*
D11*
X72750000Y-42250000D02*
X58500000Y-42250000D01*
D10*
X54250000Y-118250000D02*
X51750000Y-118250000D01*
D11*
X39750000Y-142250000D02*
X54000000Y-142250000D01*
D10*
X54250000Y-70250000D02*
X51750000Y-70250000D01*
X54250000Y-94250000D02*
X51750000Y-94250000D01*
X54250000Y-50250000D02*
X51750000Y-50250000D01*
D12*
X64100000Y-173100000D02*
G75*
G02*
X63289455Y-173104283I-400000J-1000000D01*
G01*
D10*
X58250000Y-84250000D02*
X60750000Y-84250000D01*
X58250000Y-50250000D02*
X60750000Y-50250000D01*
X54250000Y-98250000D02*
X51750000Y-98250000D01*
X54250000Y-58250000D02*
X51750000Y-58250000D01*
X54250000Y-206250000D02*
X51750000Y-206250000D01*
D11*
X39750000Y-42250000D02*
X54000000Y-42250000D01*
X72750000Y-62250000D02*
X58500000Y-62250000D01*
D10*
X58250000Y-58250000D02*
X60750000Y-58250000D01*
X54250000Y-46250000D02*
X51750000Y-46250000D01*
X54250000Y-216250000D02*
X51750000Y-216250000D01*
X54250000Y-194250000D02*
X51750000Y-194250000D01*
D11*
X72750000Y-82250000D02*
X58500000Y-82250000D01*
D10*
X54250000Y-198250000D02*
X51750000Y-198250000D01*
X58250000Y-72250000D02*
X68250000Y-72250000D01*
X54250000Y-110250000D02*
X51750000Y-110250000D01*
X54250000Y-96250000D02*
X51750000Y-96250000D01*
X58250000Y-106250000D02*
X60750000Y-106250000D01*
X54250000Y-126250000D02*
X51750000Y-126250000D01*
X54250000Y-156250000D02*
X51750000Y-156250000D01*
X54250000Y-212250000D02*
X44250000Y-212250000D01*
X54250000Y-64250000D02*
X51750000Y-64250000D01*
D11*
X72750000Y-122250000D02*
X58500000Y-122250000D01*
D10*
X58250000Y-74250000D02*
X60750000Y-74250000D01*
X58250000Y-98250000D02*
X60750000Y-98250000D01*
X58250000Y-118250000D02*
X60750000Y-118250000D01*
X54250000Y-60250000D02*
X51750000Y-60250000D01*
X58250000Y-114250000D02*
X60750000Y-114250000D01*
X54250000Y-200250000D02*
X51750000Y-200250000D01*
X54250000Y-128250000D02*
X51750000Y-128250000D01*
X54250000Y-78250000D02*
X51750000Y-78250000D01*
D13*
G36*
X45805268Y-219172498D02*
G01*
X46518946Y-219172498D01*
X46518946Y-219683942D01*
X45805268Y-219683942D01*
X45805268Y-221230000D01*
X45192707Y-221230000D01*
X45192707Y-219683942D01*
X42571004Y-219683942D01*
X42571004Y-219280942D01*
X42616602Y-219172498D01*
X43201151Y-219172498D01*
X45192707Y-219172498D01*
X45192707Y-216122882D01*
X44983742Y-216354928D01*
X44790018Y-216587188D01*
X44629972Y-216791130D01*
X44452943Y-217027979D01*
X44279063Y-217271411D01*
X44108332Y-217521426D01*
X44074563Y-217572219D01*
X43911388Y-217827271D01*
X43757086Y-218083182D01*
X43611656Y-218339952D01*
X43583635Y-218391409D01*
X43437941Y-218668834D01*
X43307139Y-218936908D01*
X43201151Y-219172498D01*
X42616602Y-219172498D01*
X42689984Y-218997975D01*
X42822791Y-218719996D01*
X42962384Y-218452930D01*
X42995987Y-218391409D01*
X43155338Y-218109067D01*
X43307105Y-217853230D01*
X43468396Y-217592814D01*
X43617341Y-217361193D01*
X43794569Y-217096403D01*
X43977477Y-216835460D01*
X44166063Y-216578364D01*
X44360327Y-216325115D01*
X44559172Y-216078826D01*
X44760031Y-215844078D01*
X44962905Y-215620871D01*
X45167794Y-215409204D01*
X45805268Y-215409204D01*
X45805268Y-219172498D01*
G37*
D10*
X54250000Y-180250000D02*
X51750000Y-180250000D01*
D11*
X72750000Y-102250000D02*
X58500000Y-102250000D01*
D14*
G36*
X68788032Y-179221000D02*
G01*
X68787299Y-179207078D01*
X68786567Y-179183142D01*
X68790454Y-179129609D01*
X68802118Y-179079224D01*
X68821557Y-179031988D01*
X68826378Y-179022919D01*
X68853250Y-178978983D01*
X68883794Y-178937243D01*
X68918012Y-178897696D01*
X68925297Y-178890050D01*
X68961799Y-178852651D01*
X68997730Y-178816778D01*
X69033088Y-178782431D01*
X69040091Y-178775745D01*
X69077256Y-178739993D01*
X69113854Y-178702754D01*
X69126064Y-178689771D01*
X69158969Y-178650001D01*
X69185326Y-178608084D01*
X69188346Y-178602332D01*
X69205527Y-178556412D01*
X69212188Y-178505661D01*
X69212282Y-178498529D01*
X69207345Y-178445111D01*
X69190508Y-178398361D01*
X69161724Y-178364196D01*
X69116450Y-178337945D01*
X69066859Y-178325591D01*
X69034473Y-178323651D01*
X68983883Y-178327515D01*
X68934334Y-178341237D01*
X68889001Y-178363379D01*
X68864236Y-178380316D01*
X68826932Y-178412092D01*
X68824424Y-178414510D01*
X68769958Y-178343191D01*
X68806374Y-178310597D01*
X68821005Y-178299227D01*
X68864201Y-178271954D01*
X68911130Y-178250867D01*
X68961667Y-178236508D01*
X69013365Y-178230375D01*
X69034473Y-178229862D01*
X69086005Y-178232326D01*
X69139787Y-178241431D01*
X69186743Y-178257244D01*
X69232050Y-178283531D01*
X69251361Y-178299960D01*
X69283204Y-178338214D01*
X69305949Y-178383124D01*
X69319596Y-178434690D01*
X69324074Y-178485270D01*
X69324145Y-178492912D01*
X69320162Y-178541739D01*
X69306733Y-178592240D01*
X69290440Y-178628222D01*
X69265011Y-178670377D01*
X69234733Y-178711205D01*
X69203001Y-178747168D01*
X69168916Y-178782512D01*
X69133830Y-178817713D01*
X69097742Y-178852770D01*
X69090405Y-178859764D01*
X69054290Y-178895652D01*
X69018579Y-178932669D01*
X69002233Y-178950134D01*
X68969570Y-178987994D01*
X68940345Y-179028226D01*
X68931403Y-179042458D01*
X68911069Y-179087032D01*
X68904292Y-179129897D01*
X69356385Y-179129897D01*
X69356385Y-179221000D01*
X68788032Y-179221000D01*
G37*
G36*
X69916838Y-178234464D02*
G01*
X69966042Y-178248272D01*
X70010558Y-178271284D01*
X70050386Y-178303501D01*
X70085525Y-178344923D01*
X70096197Y-178360776D01*
X70120191Y-178404472D01*
X70140118Y-178453736D01*
X70155978Y-178508571D01*
X70165738Y-178556448D01*
X70172895Y-178607890D01*
X70177450Y-178662896D01*
X70179402Y-178721466D01*
X70179484Y-178736666D01*
X70178182Y-178795784D01*
X70174278Y-178851384D01*
X70167771Y-178903465D01*
X70158662Y-178952027D01*
X70143615Y-179007782D01*
X70124501Y-179058039D01*
X70101321Y-179102798D01*
X70096197Y-179111090D01*
X70062620Y-179155581D01*
X70024355Y-179190866D01*
X69981402Y-179216947D01*
X69933760Y-179233822D01*
X69881430Y-179241493D01*
X69862945Y-179242004D01*
X69809308Y-179237348D01*
X69760231Y-179223380D01*
X69715714Y-179200099D01*
X69692952Y-179183142D01*
X69655836Y-179145781D01*
X69627191Y-179105435D01*
X69602637Y-179058373D01*
X69584508Y-179011683D01*
X69569757Y-178960038D01*
X69559997Y-178911976D01*
X69552898Y-178860410D01*
X69548462Y-178805341D01*
X69546687Y-178746769D01*
X69546650Y-178736666D01*
X69658758Y-178736666D01*
X69659933Y-178790293D01*
X69663459Y-178841996D01*
X69669337Y-178891775D01*
X69677565Y-178939632D01*
X69690191Y-178989510D01*
X69709025Y-179038177D01*
X69735582Y-179083501D01*
X69741068Y-179090818D01*
X69779273Y-179125794D01*
X69826476Y-179144628D01*
X69862945Y-179148215D01*
X69912806Y-179141433D01*
X69957983Y-179118564D01*
X69985555Y-179090818D01*
X70012946Y-179047057D01*
X70032638Y-178999812D01*
X70046119Y-178951213D01*
X70048569Y-178939632D01*
X70057661Y-178885658D01*
X70063244Y-178835638D01*
X70066476Y-178783694D01*
X70067376Y-178736666D01*
X70066201Y-178682398D01*
X70062674Y-178630237D01*
X70056797Y-178580183D01*
X70048569Y-178532235D01*
X70035981Y-178482357D01*
X70017281Y-178433690D01*
X69990982Y-178388365D01*
X69985555Y-178381048D01*
X69947590Y-178346072D01*
X69900009Y-178327239D01*
X69862945Y-178323651D01*
X69813832Y-178330434D01*
X69768878Y-178353303D01*
X69741068Y-178381048D01*
X69713398Y-178424809D01*
X69693553Y-178472055D01*
X69680016Y-178520653D01*
X69677565Y-178532235D01*
X69668473Y-178586324D01*
X69662890Y-178636642D01*
X69659658Y-178689066D01*
X69658758Y-178736666D01*
X69546650Y-178736666D01*
X69547557Y-178686703D01*
X69551037Y-178630054D01*
X69557128Y-178577012D01*
X69565829Y-178527575D01*
X69579280Y-178474458D01*
X69583775Y-178460183D01*
X69601654Y-178413410D01*
X69626093Y-178366309D01*
X69654807Y-178325986D01*
X69692219Y-178288725D01*
X69734558Y-178260270D01*
X69781340Y-178241129D01*
X69832566Y-178231299D01*
X69862945Y-178229862D01*
X69916838Y-178234464D01*
G37*
G36*
X68913817Y-166542004D02*
G01*
X68864182Y-166540134D01*
X68815153Y-166533981D01*
X68805862Y-166532235D01*
X68758027Y-166521096D01*
X68722575Y-166510009D01*
X68677248Y-166491602D01*
X68674459Y-166490225D01*
X68699616Y-166399122D01*
X68747640Y-166417961D01*
X68777285Y-166427943D01*
X68827620Y-166440120D01*
X68879592Y-166445850D01*
X68912352Y-166446750D01*
X68965379Y-166444221D01*
X69014673Y-166435600D01*
X69054501Y-166420860D01*
X69095917Y-166392456D01*
X69125898Y-166353049D01*
X69127285Y-166350274D01*
X69143589Y-166302952D01*
X69149002Y-166254262D01*
X69149023Y-166250867D01*
X69144180Y-166199232D01*
X69128004Y-166149962D01*
X69114585Y-166126303D01*
X69078015Y-166088024D01*
X69033344Y-166061869D01*
X68992952Y-166046436D01*
X68944622Y-166034147D01*
X68894771Y-166026275D01*
X68837860Y-166021091D01*
X68783460Y-166018787D01*
X68744313Y-166018348D01*
X68750312Y-165967228D01*
X68755487Y-165918651D01*
X68758479Y-165887678D01*
X68763114Y-165835372D01*
X68767188Y-165785310D01*
X68768248Y-165771418D01*
X68771819Y-165719655D01*
X68774746Y-165668321D01*
X68775087Y-165661509D01*
X68777513Y-165609950D01*
X68779295Y-165557854D01*
X68779484Y-165550867D01*
X69225960Y-165550867D01*
X69225960Y-165641725D01*
X68869121Y-165641725D01*
X68866384Y-165691075D01*
X68865457Y-165707671D01*
X68862347Y-165757950D01*
X68859840Y-165789492D01*
X68855693Y-165838527D01*
X68852756Y-165870092D01*
X68848040Y-165918819D01*
X68846650Y-165931642D01*
X68898407Y-165934282D01*
X68958058Y-165941061D01*
X69012104Y-165951704D01*
X69060545Y-165966210D01*
X69111275Y-165988719D01*
X69153933Y-166016792D01*
X69160258Y-166022011D01*
X69198992Y-166061707D01*
X69228212Y-166106849D01*
X69247919Y-166157437D01*
X69258112Y-166213471D01*
X69259665Y-166247936D01*
X69256040Y-166298053D01*
X69243677Y-166349767D01*
X69222540Y-166397901D01*
X69192284Y-166440702D01*
X69152561Y-166476749D01*
X69108235Y-166503658D01*
X69061751Y-166522195D01*
X69008852Y-166534665D01*
X68956447Y-166540656D01*
X68913817Y-166542004D01*
G37*
G36*
X69763294Y-166521000D02*
G01*
X69741068Y-166471296D01*
X69719086Y-166421593D01*
X69697348Y-166371889D01*
X69675855Y-166322186D01*
X69654392Y-166271658D01*
X69635462Y-166226094D01*
X69616391Y-166179268D01*
X69597181Y-166131179D01*
X69588904Y-166110183D01*
X69569366Y-166059682D01*
X69549221Y-166006913D01*
X69531469Y-165959878D01*
X69513271Y-165911178D01*
X69494627Y-165860811D01*
X69475355Y-165808315D01*
X69455277Y-165753226D01*
X69437928Y-165705337D01*
X69420019Y-165655648D01*
X69401549Y-165604158D01*
X69382519Y-165550867D01*
X69504396Y-165550867D01*
X69522029Y-165602473D01*
X69539452Y-165653215D01*
X69556664Y-165703092D01*
X69573666Y-165752104D01*
X69583287Y-165779722D01*
X69600100Y-165827469D01*
X69616773Y-165874537D01*
X69633306Y-165920928D01*
X69652028Y-165973116D01*
X69659002Y-165992458D01*
X69677687Y-166043657D01*
X69696616Y-166094429D01*
X69715789Y-166144774D01*
X69735206Y-166194691D01*
X69755035Y-166244318D01*
X69775201Y-166293793D01*
X69795702Y-166343114D01*
X69816539Y-166392284D01*
X69837315Y-166343801D01*
X69857633Y-166295075D01*
X69877493Y-166246104D01*
X69896895Y-166196889D01*
X69916144Y-166147247D01*
X69935302Y-166096994D01*
X69954368Y-166046130D01*
X69973343Y-165994656D01*
X69992302Y-165942434D01*
X70008942Y-165896013D01*
X70025628Y-165848915D01*
X70042361Y-165801138D01*
X70049546Y-165780455D01*
X70066465Y-165731652D01*
X70083453Y-165682054D01*
X70100512Y-165631661D01*
X70117641Y-165580474D01*
X70127460Y-165550867D01*
X70243475Y-165550867D01*
X70224932Y-165604158D01*
X70206853Y-165655648D01*
X70189240Y-165705337D01*
X70172091Y-165753226D01*
X70155408Y-165799314D01*
X70136002Y-165852242D01*
X70132833Y-165860811D01*
X70114180Y-165911178D01*
X70095956Y-165959878D01*
X70078162Y-166006913D01*
X70057944Y-166059682D01*
X70038311Y-166110183D01*
X70019136Y-166158813D01*
X70000077Y-166206180D01*
X69981135Y-166252285D01*
X69959630Y-166303431D01*
X69951605Y-166322186D01*
X69930203Y-166371889D01*
X69908496Y-166421593D01*
X69886484Y-166471296D01*
X69864166Y-166521000D01*
X69763294Y-166521000D01*
G37*
D15*
G36*
X43128471Y-59172498D02*
G01*
X43842149Y-59172498D01*
X43842149Y-59683942D01*
X43128471Y-59683942D01*
X43128471Y-61230000D01*
X42515910Y-61230000D01*
X42515910Y-59683942D01*
X39894207Y-59683942D01*
X39894207Y-59280942D01*
X39939805Y-59172498D01*
X40524354Y-59172498D01*
X42515910Y-59172498D01*
X42515910Y-56122882D01*
X42306945Y-56354928D01*
X42113221Y-56587188D01*
X41953175Y-56791130D01*
X41776146Y-57027979D01*
X41602266Y-57271411D01*
X41431535Y-57521426D01*
X41397766Y-57572219D01*
X41234591Y-57827271D01*
X41080289Y-58083182D01*
X40934859Y-58339952D01*
X40906838Y-58391409D01*
X40761144Y-58668834D01*
X40630342Y-58936908D01*
X40524354Y-59172498D01*
X39939805Y-59172498D01*
X40013187Y-58997975D01*
X40145994Y-58719996D01*
X40285588Y-58452930D01*
X40319190Y-58391409D01*
X40478541Y-58109067D01*
X40630308Y-57853230D01*
X40791600Y-57592814D01*
X40940544Y-57361193D01*
X41117773Y-57096403D01*
X41300680Y-56835460D01*
X41489266Y-56578364D01*
X41683531Y-56325115D01*
X41882375Y-56078826D01*
X42083234Y-55844078D01*
X42286108Y-55620871D01*
X42490997Y-55409204D01*
X43128471Y-55409204D01*
X43128471Y-59172498D01*
G37*
G36*
X46927892Y-55310789D02*
G01*
X47223119Y-55393633D01*
X47490215Y-55531707D01*
X47729182Y-55725010D01*
X47940019Y-55973542D01*
X48004047Y-56068660D01*
X48148010Y-56330832D01*
X48267572Y-56626421D01*
X48362733Y-56955426D01*
X48421294Y-57242690D01*
X48464239Y-57551340D01*
X48491568Y-57881377D01*
X48503280Y-58232801D01*
X48503768Y-58323998D01*
X48495960Y-58678707D01*
X48472535Y-59012305D01*
X48433495Y-59324791D01*
X48378838Y-59616165D01*
X48288556Y-59950694D01*
X48173874Y-60252236D01*
X48034791Y-60520791D01*
X48004047Y-60570544D01*
X47802587Y-60837486D01*
X47572996Y-61049199D01*
X47315276Y-61205682D01*
X47029426Y-61306936D01*
X46715446Y-61352961D01*
X46604535Y-61356029D01*
X46282716Y-61328092D01*
X45988253Y-61244282D01*
X45721148Y-61104598D01*
X45584577Y-61002854D01*
X45361882Y-60778690D01*
X45190012Y-60536615D01*
X45042687Y-60254240D01*
X44933914Y-59974103D01*
X44845407Y-59664233D01*
X44786846Y-59375859D01*
X44744256Y-59066464D01*
X44717638Y-58736049D01*
X44706990Y-58384614D01*
X44706769Y-58323998D01*
X45379413Y-58323998D01*
X45386466Y-58645758D01*
X45407623Y-58955976D01*
X45442886Y-59254655D01*
X45492254Y-59541793D01*
X45568014Y-59841060D01*
X45681014Y-60133063D01*
X45840357Y-60405010D01*
X45873272Y-60448911D01*
X46102502Y-60658769D01*
X46385724Y-60771769D01*
X46604535Y-60793293D01*
X46903700Y-60752600D01*
X47174764Y-60615385D01*
X47340195Y-60448911D01*
X47504544Y-60186346D01*
X47622696Y-59902872D01*
X47703582Y-59611282D01*
X47718283Y-59541793D01*
X47772830Y-59217951D01*
X47806329Y-58917830D01*
X47825723Y-58606169D01*
X47831123Y-58323998D01*
X47824071Y-57998392D01*
X47802913Y-57685425D01*
X47767650Y-57385098D01*
X47718283Y-57097411D01*
X47642755Y-56798144D01*
X47530555Y-56506140D01*
X47372756Y-56234193D01*
X47340195Y-56190293D01*
X47112408Y-55980435D01*
X46826919Y-55867434D01*
X46604535Y-55845910D01*
X46309857Y-55886604D01*
X46040133Y-56023819D01*
X45873272Y-56190293D01*
X45707255Y-56452857D01*
X45588187Y-56736331D01*
X45506965Y-57027922D01*
X45492254Y-57097411D01*
X45437707Y-57421948D01*
X45404207Y-57723855D01*
X45384813Y-58038401D01*
X45379413Y-58323998D01*
X44706769Y-58323998D01*
X44712207Y-58024223D01*
X44733089Y-57684329D01*
X44769634Y-57366073D01*
X44821841Y-57069455D01*
X44902544Y-56750750D01*
X44929518Y-56665101D01*
X45036788Y-56384463D01*
X45183426Y-56101859D01*
X45355708Y-55859921D01*
X45580181Y-55636350D01*
X45834213Y-55465625D01*
X46114907Y-55350775D01*
X46422262Y-55291797D01*
X46604535Y-55283175D01*
X46927892Y-55310789D01*
G37*
D14*
G36*
X63943039Y-145018080D02*
G01*
X63860493Y-145013684D01*
X63785044Y-145000495D01*
X63708650Y-144975147D01*
X63655443Y-144947739D01*
X63594991Y-144903621D01*
X63543464Y-144850404D01*
X63500864Y-144788088D01*
X63481054Y-144749535D01*
X63452718Y-144674249D01*
X63435315Y-144602023D01*
X63425240Y-144524806D01*
X63422435Y-144453147D01*
X63426236Y-144370783D01*
X63437640Y-144293687D01*
X63456645Y-144221856D01*
X63483252Y-144155293D01*
X63521692Y-144087570D01*
X63568595Y-144028656D01*
X63623959Y-143978553D01*
X63658374Y-143954525D01*
X63726268Y-143919459D01*
X63800943Y-143895869D01*
X63882399Y-143883756D01*
X63930583Y-143881985D01*
X64004303Y-143884790D01*
X64079710Y-143894020D01*
X64094347Y-143896639D01*
X64167358Y-143914588D01*
X64215980Y-143934375D01*
X64176047Y-144066632D01*
X64104080Y-144041239D01*
X64081525Y-144035491D01*
X64007429Y-144024785D01*
X63943039Y-144022669D01*
X63861042Y-144029767D01*
X63789441Y-144051062D01*
X63721315Y-144091988D01*
X63677425Y-144136242D01*
X63637514Y-144198501D01*
X63609006Y-144272071D01*
X63593416Y-144345724D01*
X63586557Y-144428038D01*
X63586200Y-144453147D01*
X63589885Y-144528946D01*
X63602452Y-144605464D01*
X63623936Y-144674797D01*
X63658729Y-144740588D01*
X63711073Y-144798490D01*
X63745569Y-144823907D01*
X63816392Y-144856502D01*
X63894709Y-144873165D01*
X63968318Y-144877397D01*
X64045072Y-144872725D01*
X64111933Y-144858712D01*
X64181986Y-144834595D01*
X64203524Y-144825006D01*
X64235031Y-144959462D01*
X64164474Y-144985924D01*
X64113032Y-144999030D01*
X64040283Y-145012053D01*
X63965009Y-145017783D01*
X63943039Y-145018080D01*
G37*
G36*
X64461078Y-144995000D02*
G01*
X64461078Y-143392522D01*
X64618615Y-143365411D01*
X64618615Y-143934375D01*
X64689648Y-143911771D01*
X64747941Y-143898838D01*
X64823676Y-143888765D01*
X64881298Y-143886381D01*
X64962539Y-143890320D01*
X65042331Y-143904166D01*
X65116577Y-143931242D01*
X65148011Y-143949396D01*
X65206415Y-143998354D01*
X65251658Y-144059088D01*
X65281368Y-144124518D01*
X65301847Y-144198392D01*
X65313793Y-144270996D01*
X65319596Y-144349397D01*
X65320202Y-144386102D01*
X65320202Y-144995000D01*
X65162666Y-144995000D01*
X65162666Y-144430066D01*
X65160492Y-144351031D01*
X65152979Y-144274567D01*
X65136879Y-144198583D01*
X65135188Y-144193028D01*
X65104173Y-144125027D01*
X65050867Y-144069981D01*
X65042865Y-144064801D01*
X64970479Y-144036137D01*
X64895878Y-144025842D01*
X64860415Y-144024867D01*
X64786677Y-144030681D01*
X64764428Y-144034392D01*
X64691218Y-144049598D01*
X64673203Y-144054176D01*
X64618615Y-144071029D01*
X64618615Y-144995000D01*
X64461078Y-144995000D01*
G37*
G36*
X66194308Y-143887946D02*
G01*
X66272132Y-143893356D01*
X66346002Y-143903769D01*
X66358112Y-143906165D01*
X66430060Y-143922118D01*
X66502841Y-143941421D01*
X66514550Y-143945000D01*
X66514550Y-144929787D01*
X66511446Y-145003219D01*
X66499528Y-145082388D01*
X66474326Y-145162412D01*
X66436957Y-145229148D01*
X66387421Y-145282595D01*
X66325669Y-145324422D01*
X66251330Y-145355976D01*
X66177592Y-145374845D01*
X66094606Y-145386166D01*
X66018387Y-145389835D01*
X66002373Y-145389940D01*
X65927222Y-145387570D01*
X65850460Y-145379654D01*
X65811130Y-145373087D01*
X65738712Y-145357570D01*
X65667798Y-145337947D01*
X65659822Y-145335352D01*
X65691329Y-145196500D01*
X65761229Y-145219246D01*
X65830181Y-145235334D01*
X65906286Y-145247606D01*
X65983934Y-145253006D01*
X66006403Y-145253286D01*
X66080448Y-145250209D01*
X66156835Y-145238394D01*
X66210101Y-145221779D01*
X66273900Y-145183949D01*
X66322077Y-145125320D01*
X66324407Y-145121029D01*
X66349702Y-145051956D01*
X66360109Y-144979244D01*
X66361410Y-144938213D01*
X66361410Y-144868970D01*
X66293747Y-144905858D01*
X66260659Y-144920628D01*
X66184909Y-144942454D01*
X66111673Y-144950293D01*
X66077844Y-144951036D01*
X65999648Y-144945812D01*
X65924887Y-144930142D01*
X65853560Y-144904024D01*
X65839707Y-144897547D01*
X65775078Y-144857876D01*
X65719036Y-144806185D01*
X65671580Y-144742471D01*
X65663119Y-144728286D01*
X65631241Y-144657720D01*
X65611664Y-144585506D01*
X65600329Y-144504362D01*
X65597248Y-144427868D01*
X65760939Y-144427868D01*
X65765413Y-144506676D01*
X65780239Y-144580727D01*
X65788050Y-144604455D01*
X65820198Y-144671042D01*
X65861689Y-144724256D01*
X65920510Y-144770162D01*
X65965370Y-144791301D01*
X66038872Y-144809247D01*
X66084072Y-144812184D01*
X66162210Y-144806710D01*
X66235197Y-144790288D01*
X66244539Y-144787271D01*
X66314126Y-144758034D01*
X66359211Y-144728286D01*
X66359211Y-144051978D01*
X66287563Y-144035971D01*
X66270918Y-144033293D01*
X66195595Y-144026480D01*
X66117777Y-144024867D01*
X66043887Y-144030841D01*
X65972266Y-144050985D01*
X65924703Y-144075425D01*
X65866039Y-144123039D01*
X65819830Y-144184317D01*
X65802704Y-144217208D01*
X65777253Y-144289594D01*
X65764242Y-144362917D01*
X65760939Y-144427868D01*
X65597248Y-144427868D01*
X65597174Y-144426036D01*
X65601043Y-144350313D01*
X65614648Y-144270215D01*
X65638048Y-144195508D01*
X65659089Y-144148698D01*
X65698235Y-144084337D01*
X65746016Y-144028090D01*
X65802434Y-143979957D01*
X65837509Y-143956723D01*
X65906607Y-143922720D01*
X65982834Y-143899845D01*
X66056576Y-143888854D01*
X66115579Y-143886381D01*
X66194308Y-143887946D01*
G37*
D15*
G36*
X65913050Y-121230000D02*
G01*
X65913050Y-116332442D01*
X65680317Y-116531378D01*
X65577460Y-116602086D01*
X65318366Y-116758295D01*
X65098255Y-116874661D01*
X64821101Y-117000003D01*
X64576553Y-117088618D01*
X64391905Y-116602086D01*
X64667820Y-116494461D01*
X64956447Y-116356387D01*
X65226182Y-116198851D01*
X65303419Y-116147794D01*
X65556039Y-115956655D01*
X65779971Y-115753795D01*
X66000656Y-115521724D01*
X66097697Y-115409204D01*
X66543196Y-115409204D01*
X66543196Y-121230000D01*
X65913050Y-121230000D01*
G37*
G36*
X70955178Y-115310789D02*
G01*
X71250405Y-115393633D01*
X71517501Y-115531707D01*
X71756468Y-115725010D01*
X71967305Y-115973542D01*
X72031333Y-116068660D01*
X72175296Y-116330832D01*
X72294858Y-116626421D01*
X72390019Y-116955426D01*
X72448580Y-117242690D01*
X72491525Y-117551340D01*
X72518854Y-117881377D01*
X72530566Y-118232801D01*
X72531054Y-118323998D01*
X72523246Y-118678707D01*
X72499821Y-119012305D01*
X72460781Y-119324791D01*
X72406124Y-119616165D01*
X72315842Y-119950694D01*
X72201160Y-120252236D01*
X72062077Y-120520791D01*
X72031333Y-120570544D01*
X71829873Y-120837486D01*
X71600282Y-121049199D01*
X71342562Y-121205682D01*
X71056712Y-121306936D01*
X70742732Y-121352961D01*
X70631821Y-121356029D01*
X70310002Y-121328092D01*
X70015539Y-121244282D01*
X69748434Y-121104598D01*
X69611863Y-121002854D01*
X69389168Y-120778690D01*
X69217298Y-120536615D01*
X69069973Y-120254240D01*
X68961200Y-119974103D01*
X68872693Y-119664233D01*
X68814132Y-119375859D01*
X68771542Y-119066464D01*
X68744924Y-118736049D01*
X68734276Y-118384614D01*
X68734055Y-118323998D01*
X69406699Y-118323998D01*
X69413752Y-118645758D01*
X69434909Y-118955976D01*
X69470172Y-119254655D01*
X69519540Y-119541793D01*
X69595300Y-119841060D01*
X69708300Y-120133063D01*
X69867643Y-120405010D01*
X69900558Y-120448911D01*
X70129788Y-120658769D01*
X70413010Y-120771769D01*
X70631821Y-120793293D01*
X70930986Y-120752600D01*
X71202050Y-120615385D01*
X71367481Y-120448911D01*
X71531830Y-120186346D01*
X71649982Y-119902872D01*
X71730868Y-119611282D01*
X71745569Y-119541793D01*
X71800116Y-119217951D01*
X71833615Y-118917830D01*
X71853009Y-118606169D01*
X71858409Y-118323998D01*
X71851357Y-117998392D01*
X71830199Y-117685425D01*
X71794936Y-117385098D01*
X71745569Y-117097411D01*
X71670041Y-116798144D01*
X71557841Y-116506140D01*
X71400042Y-116234193D01*
X71367481Y-116190293D01*
X71139694Y-115980435D01*
X70854205Y-115867434D01*
X70631821Y-115845910D01*
X70337143Y-115886604D01*
X70067419Y-116023819D01*
X69900558Y-116190293D01*
X69734541Y-116452857D01*
X69615473Y-116736331D01*
X69534251Y-117027922D01*
X69519540Y-117097411D01*
X69464993Y-117421948D01*
X69431493Y-117723855D01*
X69412099Y-118038401D01*
X69406699Y-118323998D01*
X68734055Y-118323998D01*
X68739493Y-118024223D01*
X68760375Y-117684329D01*
X68796920Y-117366073D01*
X68849127Y-117069455D01*
X68929830Y-116750750D01*
X68956804Y-116665101D01*
X69064074Y-116384463D01*
X69210712Y-116101859D01*
X69382994Y-115859921D01*
X69607467Y-115636350D01*
X69861499Y-115465625D01*
X70142193Y-115350775D01*
X70449548Y-115291797D01*
X70631821Y-115283175D01*
X70955178Y-115310789D01*
G37*
G36*
X41449057Y-81356029D02*
G01*
X41151249Y-81344809D01*
X40857070Y-81307886D01*
X40801325Y-81297411D01*
X40515558Y-81230579D01*
X40306001Y-81164054D01*
X40031314Y-81050796D01*
X40020237Y-81045352D01*
X40179972Y-80491409D01*
X40464921Y-80611189D01*
X40638660Y-80671660D01*
X40939084Y-80744720D01*
X41231071Y-80777448D01*
X41465177Y-80784501D01*
X41766856Y-80770619D01*
X42078998Y-80717313D01*
X42297557Y-80642351D01*
X42559064Y-80481308D01*
X42754244Y-80251323D01*
X42763572Y-80234954D01*
X42873482Y-79945893D01*
X42909546Y-79653895D01*
X42910118Y-79609204D01*
X42882239Y-79309693D01*
X42777403Y-79017342D01*
X42674180Y-78870614D01*
X42440685Y-78665530D01*
X42173135Y-78530350D01*
X42057222Y-78492526D01*
X41761154Y-78425550D01*
X41444478Y-78389486D01*
X41221912Y-78382616D01*
X41095882Y-78382616D01*
X41095882Y-77869706D01*
X41331821Y-77869706D01*
X41627110Y-77847725D01*
X41926796Y-77781779D01*
X42205600Y-77659047D01*
X42435310Y-77466706D01*
X42583623Y-77211574D01*
X42638711Y-76922220D01*
X42641939Y-76820439D01*
X42608452Y-76514582D01*
X42489532Y-76248911D01*
X42276191Y-76039839D01*
X42090928Y-75942630D01*
X41797934Y-75864423D01*
X41550174Y-75845910D01*
X41247374Y-75863633D01*
X40956618Y-75929109D01*
X40852616Y-75971939D01*
X40588834Y-76110940D01*
X40424703Y-76215205D01*
X40163852Y-75728674D01*
X40425831Y-75576226D01*
X40704605Y-75442909D01*
X40994628Y-75345571D01*
X41298862Y-75295810D01*
X41575087Y-75283175D01*
X41893313Y-75298476D01*
X42206382Y-75351370D01*
X42501502Y-75453191D01*
X42549616Y-75476615D01*
X42805979Y-75640998D01*
X43022311Y-75865126D01*
X43112351Y-76005645D01*
X43231903Y-76295000D01*
X43288163Y-76591720D01*
X43296999Y-76777941D01*
X43265656Y-77093730D01*
X43171628Y-77372115D01*
X43031751Y-77592735D01*
X42813100Y-77812760D01*
X42552821Y-77980440D01*
X42356175Y-78063147D01*
X42640029Y-78164641D01*
X42909071Y-78312503D01*
X42943824Y-78335722D01*
X43166819Y-78526100D01*
X43351106Y-78766406D01*
X43396650Y-78844235D01*
X43511458Y-79127265D01*
X43565485Y-79430168D01*
X43573970Y-79625324D01*
X43551359Y-79921163D01*
X43474253Y-80225429D01*
X43342428Y-80507529D01*
X43155851Y-80758806D01*
X42912477Y-80970602D01*
X42641939Y-81128883D01*
X42357395Y-81238685D01*
X42070989Y-81306119D01*
X41753077Y-81345160D01*
X41449057Y-81356029D01*
G37*
G36*
X46927892Y-75310789D02*
G01*
X47223119Y-75393633D01*
X47490215Y-75531707D01*
X47729182Y-75725010D01*
X47940019Y-75973542D01*
X48004047Y-76068660D01*
X48148010Y-76330832D01*
X48267572Y-76626421D01*
X48362733Y-76955426D01*
X48421294Y-77242690D01*
X48464239Y-77551340D01*
X48491568Y-77881377D01*
X48503280Y-78232801D01*
X48503768Y-78323998D01*
X48495960Y-78678707D01*
X48472535Y-79012305D01*
X48433495Y-79324791D01*
X48378838Y-79616165D01*
X48288556Y-79950694D01*
X48173874Y-80252236D01*
X48034791Y-80520791D01*
X48004047Y-80570544D01*
X47802587Y-80837486D01*
X47572996Y-81049199D01*
X47315276Y-81205682D01*
X47029426Y-81306936D01*
X46715446Y-81352961D01*
X46604535Y-81356029D01*
X46282716Y-81328092D01*
X45988253Y-81244282D01*
X45721148Y-81104598D01*
X45584577Y-81002854D01*
X45361882Y-80778690D01*
X45190012Y-80536615D01*
X45042687Y-80254240D01*
X44933914Y-79974103D01*
X44845407Y-79664233D01*
X44786846Y-79375859D01*
X44744256Y-79066464D01*
X44717638Y-78736049D01*
X44706990Y-78384614D01*
X44706769Y-78323998D01*
X45379413Y-78323998D01*
X45386466Y-78645758D01*
X45407623Y-78955976D01*
X45442886Y-79254655D01*
X45492254Y-79541793D01*
X45568014Y-79841060D01*
X45681014Y-80133063D01*
X45840357Y-80405010D01*
X45873272Y-80448911D01*
X46102502Y-80658769D01*
X46385724Y-80771769D01*
X46604535Y-80793293D01*
X46903700Y-80752600D01*
X47174764Y-80615385D01*
X47340195Y-80448911D01*
X47504544Y-80186346D01*
X47622696Y-79902872D01*
X47703582Y-79611282D01*
X47718283Y-79541793D01*
X47772830Y-79217951D01*
X47806329Y-78917830D01*
X47825723Y-78606169D01*
X47831123Y-78323998D01*
X47824071Y-77998392D01*
X47802913Y-77685425D01*
X47767650Y-77385098D01*
X47718283Y-77097411D01*
X47642755Y-76798144D01*
X47530555Y-76506140D01*
X47372756Y-76234193D01*
X47340195Y-76190293D01*
X47112408Y-75980435D01*
X46826919Y-75867434D01*
X46604535Y-75845910D01*
X46309857Y-75886604D01*
X46040133Y-76023819D01*
X45873272Y-76190293D01*
X45707255Y-76452857D01*
X45588187Y-76736331D01*
X45506965Y-77027922D01*
X45492254Y-77097411D01*
X45437707Y-77421948D01*
X45404207Y-77723855D01*
X45384813Y-78038401D01*
X45379413Y-78323998D01*
X44706769Y-78323998D01*
X44712207Y-78024223D01*
X44733089Y-77684329D01*
X44769634Y-77366073D01*
X44821841Y-77069455D01*
X44902544Y-76750750D01*
X44929518Y-76665101D01*
X45036788Y-76384463D01*
X45183426Y-76101859D01*
X45355708Y-75859921D01*
X45580181Y-75636350D01*
X45834213Y-75465625D01*
X46114907Y-75350775D01*
X46422262Y-75291797D01*
X46604535Y-75283175D01*
X46927892Y-75310789D01*
G37*
G36*
X65476343Y-81356029D02*
G01*
X65178535Y-81344809D01*
X64884356Y-81307886D01*
X64828611Y-81297411D01*
X64542844Y-81230579D01*
X64333287Y-81164054D01*
X64058600Y-81050796D01*
X64047523Y-81045352D01*
X64207258Y-80491409D01*
X64492207Y-80611189D01*
X64665946Y-80671660D01*
X64966370Y-80744720D01*
X65258357Y-80777448D01*
X65492463Y-80784501D01*
X65794142Y-80770619D01*
X66106284Y-80717313D01*
X66324843Y-80642351D01*
X66586350Y-80481308D01*
X66781530Y-80251323D01*
X66790858Y-80234954D01*
X66900768Y-79945893D01*
X66936832Y-79653895D01*
X66937404Y-79609204D01*
X66909525Y-79309693D01*
X66804689Y-79017342D01*
X66701466Y-78870614D01*
X66467971Y-78665530D01*
X66200421Y-78530350D01*
X66084508Y-78492526D01*
X65788440Y-78425550D01*
X65471764Y-78389486D01*
X65249198Y-78382616D01*
X65123168Y-78382616D01*
X65123168Y-77869706D01*
X65359107Y-77869706D01*
X65654396Y-77847725D01*
X65954082Y-77781779D01*
X66232886Y-77659047D01*
X66462596Y-77466706D01*
X66610909Y-77211574D01*
X66665997Y-76922220D01*
X66669225Y-76820439D01*
X66635738Y-76514582D01*
X66516818Y-76248911D01*
X66303477Y-76039839D01*
X66118214Y-75942630D01*
X65825220Y-75864423D01*
X65577460Y-75845910D01*
X65274660Y-75863633D01*
X64983904Y-75929109D01*
X64879902Y-75971939D01*
X64616120Y-76110940D01*
X64451989Y-76215205D01*
X64191138Y-75728674D01*
X64453117Y-75576226D01*
X64731891Y-75442909D01*
X65021914Y-75345571D01*
X65326148Y-75295810D01*
X65602373Y-75283175D01*
X65920599Y-75298476D01*
X66233668Y-75351370D01*
X66528788Y-75453191D01*
X66576902Y-75476615D01*
X66833265Y-75640998D01*
X67049597Y-75865126D01*
X67139637Y-76005645D01*
X67259189Y-76295000D01*
X67315449Y-76591720D01*
X67324285Y-76777941D01*
X67292942Y-77093730D01*
X67198914Y-77372115D01*
X67059037Y-77592735D01*
X66840386Y-77812760D01*
X66580107Y-77980440D01*
X66383461Y-78063147D01*
X66667315Y-78164641D01*
X66936357Y-78312503D01*
X66971110Y-78335722D01*
X67194105Y-78526100D01*
X67378392Y-78766406D01*
X67423936Y-78844235D01*
X67538744Y-79127265D01*
X67592771Y-79430168D01*
X67601256Y-79625324D01*
X67578645Y-79921163D01*
X67501539Y-80225429D01*
X67369714Y-80507529D01*
X67183137Y-80758806D01*
X66939763Y-80970602D01*
X66669225Y-81128883D01*
X66384681Y-81238685D01*
X66098275Y-81306119D01*
X65780363Y-81345160D01*
X65476343Y-81356029D01*
G37*
G36*
X70955178Y-75310789D02*
G01*
X71250405Y-75393633D01*
X71517501Y-75531707D01*
X71756468Y-75725010D01*
X71967305Y-75973542D01*
X72031333Y-76068660D01*
X72175296Y-76330832D01*
X72294858Y-76626421D01*
X72390019Y-76955426D01*
X72448580Y-77242690D01*
X72491525Y-77551340D01*
X72518854Y-77881377D01*
X72530566Y-78232801D01*
X72531054Y-78323998D01*
X72523246Y-78678707D01*
X72499821Y-79012305D01*
X72460781Y-79324791D01*
X72406124Y-79616165D01*
X72315842Y-79950694D01*
X72201160Y-80252236D01*
X72062077Y-80520791D01*
X72031333Y-80570544D01*
X71829873Y-80837486D01*
X71600282Y-81049199D01*
X71342562Y-81205682D01*
X71056712Y-81306936D01*
X70742732Y-81352961D01*
X70631821Y-81356029D01*
X70310002Y-81328092D01*
X70015539Y-81244282D01*
X69748434Y-81104598D01*
X69611863Y-81002854D01*
X69389168Y-80778690D01*
X69217298Y-80536615D01*
X69069973Y-80254240D01*
X68961200Y-79974103D01*
X68872693Y-79664233D01*
X68814132Y-79375859D01*
X68771542Y-79066464D01*
X68744924Y-78736049D01*
X68734276Y-78384614D01*
X68734055Y-78323998D01*
X69406699Y-78323998D01*
X69413752Y-78645758D01*
X69434909Y-78955976D01*
X69470172Y-79254655D01*
X69519540Y-79541793D01*
X69595300Y-79841060D01*
X69708300Y-80133063D01*
X69867643Y-80405010D01*
X69900558Y-80448911D01*
X70129788Y-80658769D01*
X70413010Y-80771769D01*
X70631821Y-80793293D01*
X70930986Y-80752600D01*
X71202050Y-80615385D01*
X71367481Y-80448911D01*
X71531830Y-80186346D01*
X71649982Y-79902872D01*
X71730868Y-79611282D01*
X71745569Y-79541793D01*
X71800116Y-79217951D01*
X71833615Y-78917830D01*
X71853009Y-78606169D01*
X71858409Y-78323998D01*
X71851357Y-77998392D01*
X71830199Y-77685425D01*
X71794936Y-77385098D01*
X71745569Y-77097411D01*
X71670041Y-76798144D01*
X71557841Y-76506140D01*
X71400042Y-76234193D01*
X71367481Y-76190293D01*
X71139694Y-75980435D01*
X70854205Y-75867434D01*
X70631821Y-75845910D01*
X70337143Y-75886604D01*
X70067419Y-76023819D01*
X69900558Y-76190293D01*
X69734541Y-76452857D01*
X69615473Y-76736331D01*
X69534251Y-77027922D01*
X69519540Y-77097411D01*
X69464993Y-77421948D01*
X69431493Y-77723855D01*
X69412099Y-78038401D01*
X69406699Y-78323998D01*
X68734055Y-78323998D01*
X68739493Y-78024223D01*
X68760375Y-77684329D01*
X68796920Y-77366073D01*
X68849127Y-77069455D01*
X68929830Y-76750750D01*
X68956804Y-76665101D01*
X69064074Y-76384463D01*
X69210712Y-76101859D01*
X69382994Y-75859921D01*
X69607467Y-75636350D01*
X69861499Y-75465625D01*
X70142193Y-75350775D01*
X70449548Y-75291797D01*
X70631821Y-75283175D01*
X70955178Y-75310789D01*
G37*
G36*
X64182345Y-101230000D02*
G01*
X64177948Y-101146468D01*
X64173552Y-101002854D01*
X64196879Y-100681655D01*
X64266860Y-100379347D01*
X64383496Y-100095930D01*
X64412422Y-100041514D01*
X64573650Y-99777903D01*
X64756918Y-99527459D01*
X64962226Y-99290181D01*
X65005932Y-99244305D01*
X65224949Y-99019907D01*
X65440531Y-98804668D01*
X65652679Y-98598588D01*
X65694697Y-98558471D01*
X65917689Y-98343962D01*
X66137279Y-98120526D01*
X66210537Y-98042630D01*
X66407966Y-97804007D01*
X66566111Y-97552504D01*
X66584229Y-97517997D01*
X66687312Y-97242472D01*
X66727283Y-96937968D01*
X66727844Y-96895177D01*
X66698220Y-96574666D01*
X66597202Y-96294171D01*
X66424494Y-96089176D01*
X66152851Y-95931671D01*
X65855306Y-95857551D01*
X65660991Y-95845910D01*
X65357452Y-95869094D01*
X65060154Y-95951423D01*
X64788161Y-96084279D01*
X64639567Y-96185896D01*
X64415746Y-96376557D01*
X64400698Y-96391060D01*
X64073901Y-95963147D01*
X64292396Y-95767586D01*
X64380182Y-95699364D01*
X64639357Y-95535728D01*
X64920935Y-95409204D01*
X65224153Y-95323051D01*
X65534345Y-95286252D01*
X65660991Y-95283175D01*
X65970180Y-95297961D01*
X66292872Y-95352588D01*
X66574612Y-95447466D01*
X66846454Y-95605186D01*
X66962317Y-95703761D01*
X67153376Y-95933288D01*
X67289847Y-96202749D01*
X67371729Y-96512144D01*
X67398597Y-96815622D01*
X67399023Y-96861472D01*
X67375126Y-97154435D01*
X67294549Y-97457441D01*
X67196790Y-97673335D01*
X67044216Y-97926265D01*
X66862551Y-98171230D01*
X66672156Y-98387013D01*
X66467651Y-98599075D01*
X66257134Y-98810278D01*
X66040607Y-99020623D01*
X65996581Y-99062588D01*
X65779895Y-99277916D01*
X65565628Y-99500016D01*
X65467551Y-99604808D01*
X65271572Y-99831968D01*
X65096220Y-100073356D01*
X65042568Y-100158750D01*
X64920569Y-100426196D01*
X64879902Y-100683384D01*
X67592463Y-100683384D01*
X67592463Y-101230000D01*
X64182345Y-101230000D01*
G37*
G36*
X70955178Y-95310789D02*
G01*
X71250405Y-95393633D01*
X71517501Y-95531707D01*
X71756468Y-95725010D01*
X71967305Y-95973542D01*
X72031333Y-96068660D01*
X72175296Y-96330832D01*
X72294858Y-96626421D01*
X72390019Y-96955426D01*
X72448580Y-97242690D01*
X72491525Y-97551340D01*
X72518854Y-97881377D01*
X72530566Y-98232801D01*
X72531054Y-98323998D01*
X72523246Y-98678707D01*
X72499821Y-99012305D01*
X72460781Y-99324791D01*
X72406124Y-99616165D01*
X72315842Y-99950694D01*
X72201160Y-100252236D01*
X72062077Y-100520791D01*
X72031333Y-100570544D01*
X71829873Y-100837486D01*
X71600282Y-101049199D01*
X71342562Y-101205682D01*
X71056712Y-101306936D01*
X70742732Y-101352961D01*
X70631821Y-101356029D01*
X70310002Y-101328092D01*
X70015539Y-101244282D01*
X69748434Y-101104598D01*
X69611863Y-101002854D01*
X69389168Y-100778690D01*
X69217298Y-100536615D01*
X69069973Y-100254240D01*
X68961200Y-99974103D01*
X68872693Y-99664233D01*
X68814132Y-99375859D01*
X68771542Y-99066464D01*
X68744924Y-98736049D01*
X68734276Y-98384614D01*
X68734055Y-98323998D01*
X69406699Y-98323998D01*
X69413752Y-98645758D01*
X69434909Y-98955976D01*
X69470172Y-99254655D01*
X69519540Y-99541793D01*
X69595300Y-99841060D01*
X69708300Y-100133063D01*
X69867643Y-100405010D01*
X69900558Y-100448911D01*
X70129788Y-100658769D01*
X70413010Y-100771769D01*
X70631821Y-100793293D01*
X70930986Y-100752600D01*
X71202050Y-100615385D01*
X71367481Y-100448911D01*
X71531830Y-100186346D01*
X71649982Y-99902872D01*
X71730868Y-99611282D01*
X71745569Y-99541793D01*
X71800116Y-99217951D01*
X71833615Y-98917830D01*
X71853009Y-98606169D01*
X71858409Y-98323998D01*
X71851357Y-97998392D01*
X71830199Y-97685425D01*
X71794936Y-97385098D01*
X71745569Y-97097411D01*
X71670041Y-96798144D01*
X71557841Y-96506140D01*
X71400042Y-96234193D01*
X71367481Y-96190293D01*
X71139694Y-95980435D01*
X70854205Y-95867434D01*
X70631821Y-95845910D01*
X70337143Y-95886604D01*
X70067419Y-96023819D01*
X69900558Y-96190293D01*
X69734541Y-96452857D01*
X69615473Y-96736331D01*
X69534251Y-97027922D01*
X69519540Y-97097411D01*
X69464993Y-97421948D01*
X69431493Y-97723855D01*
X69412099Y-98038401D01*
X69406699Y-98323998D01*
X68734055Y-98323998D01*
X68739493Y-98024223D01*
X68760375Y-97684329D01*
X68796920Y-97366073D01*
X68849127Y-97069455D01*
X68929830Y-96750750D01*
X68956804Y-96665101D01*
X69064074Y-96384463D01*
X69210712Y-96101859D01*
X69382994Y-95859921D01*
X69607467Y-95636350D01*
X69861499Y-95465625D01*
X70142193Y-95350775D01*
X70449548Y-95291797D01*
X70631821Y-95283175D01*
X70955178Y-95310789D01*
G37*
G36*
X70955178Y-135310789D02*
G01*
X71250404Y-135393633D01*
X71517501Y-135531707D01*
X71756468Y-135725010D01*
X71967305Y-135973542D01*
X72031333Y-136068660D01*
X72175295Y-136330832D01*
X72294857Y-136626421D01*
X72390019Y-136955426D01*
X72448580Y-137242690D01*
X72491525Y-137551340D01*
X72518853Y-137881377D01*
X72530566Y-138232801D01*
X72531054Y-138323998D01*
X72523245Y-138678707D01*
X72499821Y-139012305D01*
X72460780Y-139324791D01*
X72406123Y-139616165D01*
X72315842Y-139950694D01*
X72201160Y-140252236D01*
X72062077Y-140520791D01*
X72031333Y-140570544D01*
X71829872Y-140837486D01*
X71600282Y-141049199D01*
X71342562Y-141205682D01*
X71056712Y-141306936D01*
X70742732Y-141352961D01*
X70631821Y-141356029D01*
X70310002Y-141328092D01*
X70015539Y-141244282D01*
X69748434Y-141104598D01*
X69611863Y-141002854D01*
X69389168Y-140778690D01*
X69217297Y-140536615D01*
X69069973Y-140254240D01*
X68961200Y-139974103D01*
X68872693Y-139664233D01*
X68814132Y-139375859D01*
X68771542Y-139066464D01*
X68744924Y-138736049D01*
X68734276Y-138384614D01*
X68734054Y-138323998D01*
X69406699Y-138323998D01*
X69413752Y-138645758D01*
X69434909Y-138955976D01*
X69470172Y-139254655D01*
X69519539Y-139541793D01*
X69595299Y-139841060D01*
X69708300Y-140133063D01*
X69867643Y-140405010D01*
X69900558Y-140448911D01*
X70129788Y-140658769D01*
X70413010Y-140771769D01*
X70631821Y-140793293D01*
X70930986Y-140752600D01*
X71202050Y-140615385D01*
X71367481Y-140448911D01*
X71531829Y-140186346D01*
X71649982Y-139902872D01*
X71730868Y-139611282D01*
X71745569Y-139541793D01*
X71800115Y-139217951D01*
X71833615Y-138917830D01*
X71853009Y-138606169D01*
X71858409Y-138323998D01*
X71851356Y-137998392D01*
X71830199Y-137685425D01*
X71794936Y-137385098D01*
X71745569Y-137097411D01*
X71670040Y-136798144D01*
X71557841Y-136506140D01*
X71400041Y-136234193D01*
X71367481Y-136190293D01*
X71139694Y-135980435D01*
X70854204Y-135867434D01*
X70631821Y-135845910D01*
X70337143Y-135886604D01*
X70067418Y-136023819D01*
X69900558Y-136190293D01*
X69734541Y-136452857D01*
X69615472Y-136736331D01*
X69534251Y-137027922D01*
X69519539Y-137097411D01*
X69464992Y-137421948D01*
X69431493Y-137723855D01*
X69412099Y-138038401D01*
X69406699Y-138323998D01*
X68734054Y-138323998D01*
X68739492Y-138024223D01*
X68760375Y-137684329D01*
X68796920Y-137366073D01*
X68849127Y-137069455D01*
X68929830Y-136750750D01*
X68956804Y-136665101D01*
X69064074Y-136384463D01*
X69210711Y-136101859D01*
X69382994Y-135859921D01*
X69607467Y-135636350D01*
X69861499Y-135465625D01*
X70142192Y-135350775D01*
X70449548Y-135291797D01*
X70631821Y-135283175D01*
X70955178Y-135310789D01*
G37*
D14*
G36*
X69865876Y-184301000D02*
G01*
X69865876Y-183484740D01*
X69827087Y-183517896D01*
X69809944Y-183529681D01*
X69766762Y-183555715D01*
X69730077Y-183575110D01*
X69683884Y-183596000D01*
X69643126Y-183610769D01*
X69612352Y-183529681D01*
X69658338Y-183511743D01*
X69706442Y-183488731D01*
X69751398Y-183462475D01*
X69764271Y-183453965D01*
X69806374Y-183422109D01*
X69843696Y-183388299D01*
X69880477Y-183349620D01*
X69896650Y-183330867D01*
X69970900Y-183330867D01*
X69970900Y-184301000D01*
X69865876Y-184301000D01*
G37*
D15*
G36*
X39984473Y-199087501D02*
G01*
X39984473Y-198491060D01*
X41942323Y-198491060D01*
X41942323Y-199087501D01*
X39984473Y-199087501D01*
G37*
G36*
X44125854Y-201356029D02*
G01*
X43828046Y-201344809D01*
X43533867Y-201307886D01*
X43478122Y-201297411D01*
X43192355Y-201230579D01*
X42982798Y-201164054D01*
X42708110Y-201050796D01*
X42697034Y-201045352D01*
X42856769Y-200491409D01*
X43141718Y-200611189D01*
X43315457Y-200671660D01*
X43615881Y-200744720D01*
X43907868Y-200777448D01*
X44141974Y-200784501D01*
X44443652Y-200770619D01*
X44755795Y-200717313D01*
X44974354Y-200642351D01*
X45235861Y-200481308D01*
X45431041Y-200251323D01*
X45440369Y-200234954D01*
X45550279Y-199945893D01*
X45586343Y-199653895D01*
X45586915Y-199609204D01*
X45559036Y-199309693D01*
X45454200Y-199017342D01*
X45350976Y-198870614D01*
X45117482Y-198665530D01*
X44849932Y-198530350D01*
X44734019Y-198492526D01*
X44437951Y-198425550D01*
X44121275Y-198389486D01*
X43898709Y-198382616D01*
X43772679Y-198382616D01*
X43772679Y-197869706D01*
X44008618Y-197869706D01*
X44303907Y-197847725D01*
X44603593Y-197781779D01*
X44882397Y-197659047D01*
X45112107Y-197466706D01*
X45260420Y-197211574D01*
X45315508Y-196922220D01*
X45318736Y-196820439D01*
X45285248Y-196514582D01*
X45166329Y-196248911D01*
X44952988Y-196039839D01*
X44767725Y-195942630D01*
X44474730Y-195864423D01*
X44226971Y-195845910D01*
X43924171Y-195863633D01*
X43633415Y-195929109D01*
X43529413Y-195971939D01*
X43265631Y-196110940D01*
X43101500Y-196215205D01*
X42840648Y-195728674D01*
X43102628Y-195576226D01*
X43381402Y-195442909D01*
X43671425Y-195345571D01*
X43975659Y-195295810D01*
X44251884Y-195283175D01*
X44570110Y-195298476D01*
X44883179Y-195351370D01*
X45178299Y-195453191D01*
X45226413Y-195476615D01*
X45482776Y-195640998D01*
X45699108Y-195865126D01*
X45789148Y-196005645D01*
X45908700Y-196295000D01*
X45964960Y-196591720D01*
X45973796Y-196777941D01*
X45942453Y-197093730D01*
X45848425Y-197372115D01*
X45708548Y-197592735D01*
X45489897Y-197812760D01*
X45229618Y-197980440D01*
X45032972Y-198063147D01*
X45316826Y-198164641D01*
X45585867Y-198312503D01*
X45620621Y-198335722D01*
X45843616Y-198526100D01*
X46027903Y-198766406D01*
X46073447Y-198844235D01*
X46188255Y-199127265D01*
X46242282Y-199430168D01*
X46250767Y-199625324D01*
X46228156Y-199921163D01*
X46151050Y-200225429D01*
X46019225Y-200507529D01*
X45832648Y-200758806D01*
X45589274Y-200970602D01*
X45318736Y-201128883D01*
X45034192Y-201238685D01*
X44747786Y-201306119D01*
X44429874Y-201345160D01*
X44125854Y-201356029D01*
G37*
G36*
X49604689Y-195310789D02*
G01*
X49899916Y-195393633D01*
X50167012Y-195531707D01*
X50405979Y-195725010D01*
X50616816Y-195973542D01*
X50680844Y-196068660D01*
X50824806Y-196330832D01*
X50944369Y-196626421D01*
X51039530Y-196955426D01*
X51098091Y-197242690D01*
X51141036Y-197551340D01*
X51168365Y-197881377D01*
X51180077Y-198232801D01*
X51180565Y-198323998D01*
X51172757Y-198678707D01*
X51149332Y-199012305D01*
X51110292Y-199324791D01*
X51055635Y-199616165D01*
X50965353Y-199950694D01*
X50850671Y-200252236D01*
X50711588Y-200520791D01*
X50680844Y-200570544D01*
X50479384Y-200837486D01*
X50249793Y-201049199D01*
X49992073Y-201205682D01*
X49706223Y-201306936D01*
X49392243Y-201352961D01*
X49281332Y-201356029D01*
X48959513Y-201328092D01*
X48665050Y-201244282D01*
X48397945Y-201104598D01*
X48261374Y-201002854D01*
X48038679Y-200778690D01*
X47866809Y-200536615D01*
X47719484Y-200254240D01*
X47610711Y-199974103D01*
X47522204Y-199664233D01*
X47463643Y-199375859D01*
X47421053Y-199066464D01*
X47394435Y-198736049D01*
X47383787Y-198384614D01*
X47383565Y-198323998D01*
X48056210Y-198323998D01*
X48063263Y-198645758D01*
X48084420Y-198955976D01*
X48119683Y-199254655D01*
X48169050Y-199541793D01*
X48244811Y-199841060D01*
X48357811Y-200133063D01*
X48517154Y-200405010D01*
X48550069Y-200448911D01*
X48779299Y-200658769D01*
X49062521Y-200771769D01*
X49281332Y-200793293D01*
X49580497Y-200752600D01*
X49851561Y-200615385D01*
X50016992Y-200448911D01*
X50181341Y-200186346D01*
X50299493Y-199902872D01*
X50380379Y-199611282D01*
X50395080Y-199541793D01*
X50449627Y-199217951D01*
X50483126Y-198917830D01*
X50502520Y-198606169D01*
X50507920Y-198323998D01*
X50500867Y-197998392D01*
X50479710Y-197685425D01*
X50444447Y-197385098D01*
X50395080Y-197097411D01*
X50319551Y-196798144D01*
X50207352Y-196506140D01*
X50049552Y-196234193D01*
X50016992Y-196190293D01*
X49789205Y-195980435D01*
X49503715Y-195867434D01*
X49281332Y-195845910D01*
X48986654Y-195886604D01*
X48716930Y-196023819D01*
X48550069Y-196190293D01*
X48384052Y-196452857D01*
X48264983Y-196736331D01*
X48183762Y-197027922D01*
X48169050Y-197097411D01*
X48114504Y-197421948D01*
X48081004Y-197723855D01*
X48061610Y-198038401D01*
X48056210Y-198323998D01*
X47383565Y-198323998D01*
X47389004Y-198024223D01*
X47409886Y-197684329D01*
X47446431Y-197366073D01*
X47498638Y-197069455D01*
X47579341Y-196750750D01*
X47606315Y-196665101D01*
X47713585Y-196384463D01*
X47860223Y-196101859D01*
X48032505Y-195859921D01*
X48256978Y-195636350D01*
X48511010Y-195465625D01*
X48791704Y-195350775D01*
X49099059Y-195291797D01*
X49281332Y-195283175D01*
X49604689Y-195310789D01*
G37*
D14*
G36*
X68308428Y-173164185D02*
G01*
X68363927Y-173169784D01*
X68414750Y-173179116D01*
X68469567Y-173195242D01*
X68517653Y-173216743D01*
X68552581Y-173238766D01*
X68593219Y-173275565D01*
X68623875Y-173319283D01*
X68644550Y-173369919D01*
X68654327Y-173418829D01*
X68656873Y-173463470D01*
X68653377Y-173514623D01*
X68641088Y-173565712D01*
X68619950Y-173609961D01*
X68600942Y-173635661D01*
X68562287Y-173672278D01*
X68521176Y-173699198D01*
X68474076Y-173720398D01*
X68451221Y-173727985D01*
X68483057Y-173768989D01*
X68509106Y-173804189D01*
X68537652Y-173843943D01*
X68567326Y-173887003D01*
X68581402Y-173907992D01*
X68609486Y-173951005D01*
X68636952Y-173995049D01*
X68654919Y-174024984D01*
X68680187Y-174069463D01*
X68704227Y-174116331D01*
X68715736Y-174141000D01*
X68596789Y-174141000D01*
X68572246Y-174095438D01*
X68545937Y-174049733D01*
X68517864Y-174003885D01*
X68512037Y-173994698D01*
X68482919Y-173949656D01*
X68454182Y-173906427D01*
X68425827Y-173865011D01*
X68420202Y-173856945D01*
X68390627Y-173815097D01*
X68360998Y-173775106D01*
X68340579Y-173748990D01*
X68300767Y-173751921D01*
X68260711Y-173753142D01*
X68109525Y-173753142D01*
X68109525Y-174141000D01*
X68000348Y-174141000D01*
X68000348Y-173266122D01*
X68109525Y-173266122D01*
X68109525Y-173662284D01*
X68232868Y-173662284D01*
X68286186Y-173660996D01*
X68335927Y-173657132D01*
X68386509Y-173649906D01*
X68390893Y-173649094D01*
X68439413Y-173634795D01*
X68482830Y-173609769D01*
X68502267Y-173592186D01*
X68528993Y-173549727D01*
X68541569Y-173497870D01*
X68543544Y-173462004D01*
X68538811Y-173409808D01*
X68522852Y-173363269D01*
X68503489Y-173335487D01*
X68463792Y-173301900D01*
X68418223Y-173279839D01*
X68398464Y-173273693D01*
X68348467Y-173262977D01*
X68295928Y-173257207D01*
X68259490Y-173256108D01*
X68210500Y-173257142D01*
X68172540Y-173259771D01*
X68122897Y-173264626D01*
X68109525Y-173266122D01*
X68000348Y-173266122D01*
X68000348Y-173188941D01*
X68049883Y-173178209D01*
X68101154Y-173170838D01*
X68122226Y-173168669D01*
X68172120Y-173164799D01*
X68222606Y-173162622D01*
X68248255Y-173162318D01*
X68308428Y-173164185D01*
G37*
G36*
X69087962Y-174162004D02*
G01*
X69033694Y-174160432D01*
X68984220Y-174155715D01*
X68934290Y-174146650D01*
X68899651Y-174136847D01*
X68850157Y-174119147D01*
X68804575Y-174099181D01*
X68796824Y-174094838D01*
X68831751Y-174002514D01*
X68876204Y-174023517D01*
X68922247Y-174041569D01*
X68926273Y-174043058D01*
X68974801Y-174056547D01*
X69025329Y-174063950D01*
X69076024Y-174066657D01*
X69087962Y-174066750D01*
X69140123Y-174064261D01*
X69191250Y-174055514D01*
X69238677Y-174038407D01*
X69258688Y-174026938D01*
X69295450Y-173990336D01*
X69315245Y-173940614D01*
X69319015Y-173900176D01*
X69313574Y-173850360D01*
X69293771Y-173804700D01*
X69286043Y-173794663D01*
X69248002Y-173759614D01*
X69202689Y-173733189D01*
X69199336Y-173731648D01*
X69153746Y-173711525D01*
X69108586Y-173692806D01*
X69080879Y-173681823D01*
X69033857Y-173662255D01*
X68986707Y-173639959D01*
X68944347Y-173616854D01*
X68901668Y-173586374D01*
X68867697Y-173550895D01*
X68854954Y-173532835D01*
X68834554Y-173488079D01*
X68824954Y-173439181D01*
X68823447Y-173407294D01*
X68827120Y-173357510D01*
X68839645Y-173308699D01*
X68861060Y-173266122D01*
X68894159Y-173226875D01*
X68936669Y-173195596D01*
X68970237Y-173179171D01*
X69017540Y-173163715D01*
X69069995Y-173153984D01*
X69121609Y-173150120D01*
X69139741Y-173149862D01*
X69189382Y-173151842D01*
X69241231Y-173158593D01*
X69290195Y-173170134D01*
X69337788Y-173185819D01*
X69384818Y-173206778D01*
X69397417Y-173214098D01*
X69361025Y-173305200D01*
X69316085Y-173279982D01*
X69269549Y-173262625D01*
X69262351Y-173260504D01*
X69213831Y-173249593D01*
X69162731Y-173244244D01*
X69138276Y-173243651D01*
X69085530Y-173247205D01*
X69034727Y-173259324D01*
X68991486Y-173280043D01*
X68954323Y-173317231D01*
X68936835Y-173365081D01*
X68934089Y-173398990D01*
X68941050Y-173449731D01*
X68961932Y-173490092D01*
X68997635Y-173524100D01*
X69038869Y-173548955D01*
X69084209Y-173569965D01*
X69130581Y-173589978D01*
X69149511Y-173597803D01*
X69197854Y-173617395D01*
X69243048Y-173637703D01*
X69289126Y-173660867D01*
X69293126Y-173663016D01*
X69337261Y-173691444D01*
X69374046Y-173725436D01*
X69394487Y-173751188D01*
X69417556Y-173796743D01*
X69429350Y-173847735D01*
X69432344Y-173896024D01*
X69428242Y-173948269D01*
X69414252Y-173999127D01*
X69390334Y-174043058D01*
X69357326Y-174080121D01*
X69316063Y-174110372D01*
X69271388Y-174131963D01*
X69220417Y-174147805D01*
X69169607Y-174157046D01*
X69120518Y-174161271D01*
X69087962Y-174162004D01*
G37*
G36*
X69814584Y-174141000D02*
G01*
X69814584Y-173264656D01*
X69505129Y-173264656D01*
X69505129Y-173170867D01*
X70231751Y-173170867D01*
X70231751Y-173264656D01*
X69923761Y-173264656D01*
X69923761Y-174141000D01*
X69814584Y-174141000D01*
G37*
D15*
G36*
X41507676Y-41356029D02*
G01*
X41209867Y-41344809D01*
X40915688Y-41307886D01*
X40859944Y-41297411D01*
X40572936Y-41230579D01*
X40360223Y-41164054D01*
X40088259Y-41053617D01*
X40071528Y-41045352D01*
X40222470Y-40498736D01*
X40510612Y-40611768D01*
X40688485Y-40671660D01*
X40990491Y-40744720D01*
X41302324Y-40779101D01*
X41498883Y-40784501D01*
X41817047Y-40769331D01*
X42112812Y-40717602D01*
X42351779Y-40629162D01*
X42600277Y-40458738D01*
X42780162Y-40222296D01*
X42788485Y-40205645D01*
X42886304Y-39921713D01*
X42918784Y-39629573D01*
X42918911Y-39609204D01*
X42889854Y-39299397D01*
X42792794Y-39003773D01*
X42712281Y-38861821D01*
X42492861Y-38632149D01*
X42224834Y-38475215D01*
X41982484Y-38382616D01*
X41692506Y-38308886D01*
X41393396Y-38261652D01*
X41051930Y-38230547D01*
X40725534Y-38216722D01*
X40490648Y-38214089D01*
X40526644Y-37907373D01*
X40557693Y-37615908D01*
X40575645Y-37430069D01*
X40603454Y-37116232D01*
X40627898Y-36815860D01*
X40634263Y-36732512D01*
X40655687Y-36421932D01*
X40673247Y-36113929D01*
X40675296Y-36073056D01*
X40689850Y-35763700D01*
X40700541Y-35451124D01*
X40701674Y-35409204D01*
X43380530Y-35409204D01*
X43380530Y-35954354D01*
X41239497Y-35954354D01*
X41223075Y-36250451D01*
X41217515Y-36350027D01*
X41198854Y-36651705D01*
X41183810Y-36840956D01*
X41158930Y-37135163D01*
X41141311Y-37324556D01*
X41113010Y-37616915D01*
X41104675Y-37693852D01*
X41415215Y-37709697D01*
X41773121Y-37750369D01*
X42097396Y-37814225D01*
X42388040Y-37901265D01*
X42692420Y-38036316D01*
X42948372Y-38204752D01*
X42986322Y-38236071D01*
X43218724Y-38474243D01*
X43394045Y-38745094D01*
X43512285Y-39048622D01*
X43573444Y-39384829D01*
X43582763Y-39591618D01*
X43561010Y-39892323D01*
X43486833Y-40202602D01*
X43360013Y-40491409D01*
X43178474Y-40748212D01*
X42940137Y-40964494D01*
X42674180Y-41125952D01*
X42395276Y-41237171D01*
X42077887Y-41311991D01*
X41763455Y-41347940D01*
X41507676Y-41356029D01*
G37*
G36*
X46927892Y-35310789D02*
G01*
X47223119Y-35393633D01*
X47490215Y-35531707D01*
X47729182Y-35725010D01*
X47940019Y-35973542D01*
X48004047Y-36068660D01*
X48148010Y-36330832D01*
X48267572Y-36626421D01*
X48362733Y-36955426D01*
X48421294Y-37242690D01*
X48464239Y-37551340D01*
X48491568Y-37881377D01*
X48503280Y-38232801D01*
X48503768Y-38323998D01*
X48495960Y-38678707D01*
X48472535Y-39012305D01*
X48433495Y-39324791D01*
X48378838Y-39616165D01*
X48288556Y-39950694D01*
X48173874Y-40252236D01*
X48034791Y-40520791D01*
X48004047Y-40570544D01*
X47802587Y-40837486D01*
X47572996Y-41049199D01*
X47315276Y-41205682D01*
X47029426Y-41306936D01*
X46715446Y-41352961D01*
X46604535Y-41356029D01*
X46282716Y-41328092D01*
X45988253Y-41244282D01*
X45721148Y-41104598D01*
X45584577Y-41002854D01*
X45361882Y-40778690D01*
X45190012Y-40536615D01*
X45042687Y-40254240D01*
X44933914Y-39974103D01*
X44845407Y-39664233D01*
X44786846Y-39375859D01*
X44744256Y-39066464D01*
X44717638Y-38736049D01*
X44706990Y-38384614D01*
X44706769Y-38323998D01*
X45379413Y-38323998D01*
X45386466Y-38645758D01*
X45407623Y-38955976D01*
X45442886Y-39254655D01*
X45492254Y-39541793D01*
X45568014Y-39841060D01*
X45681014Y-40133063D01*
X45840357Y-40405010D01*
X45873272Y-40448911D01*
X46102502Y-40658769D01*
X46385724Y-40771769D01*
X46604535Y-40793293D01*
X46903700Y-40752600D01*
X47174764Y-40615385D01*
X47340195Y-40448911D01*
X47504544Y-40186346D01*
X47622696Y-39902872D01*
X47703582Y-39611282D01*
X47718283Y-39541793D01*
X47772830Y-39217951D01*
X47806329Y-38917830D01*
X47825723Y-38606169D01*
X47831123Y-38323998D01*
X47824071Y-37998392D01*
X47802913Y-37685425D01*
X47767650Y-37385098D01*
X47718283Y-37097411D01*
X47642755Y-36798144D01*
X47530555Y-36506140D01*
X47372756Y-36234193D01*
X47340195Y-36190293D01*
X47112408Y-35980435D01*
X46826919Y-35867434D01*
X46604535Y-35845910D01*
X46309857Y-35886604D01*
X46040133Y-36023819D01*
X45873272Y-36190293D01*
X45707255Y-36452857D01*
X45588187Y-36736331D01*
X45506965Y-37027922D01*
X45492254Y-37097411D01*
X45437707Y-37421948D01*
X45404207Y-37723855D01*
X45384813Y-38038401D01*
X45379413Y-38323998D01*
X44706769Y-38323998D01*
X44712207Y-38024223D01*
X44733089Y-37684329D01*
X44769634Y-37366073D01*
X44821841Y-37069455D01*
X44902544Y-36750750D01*
X44929518Y-36665101D01*
X45036788Y-36384463D01*
X45183426Y-36101859D01*
X45355708Y-35859921D01*
X45580181Y-35636350D01*
X45834213Y-35465625D01*
X46114907Y-35350775D01*
X46422262Y-35291797D01*
X46604535Y-35283175D01*
X46927892Y-35310789D01*
G37*
G36*
X42191535Y-135310789D02*
G01*
X42486761Y-135393633D01*
X42753858Y-135531707D01*
X42992825Y-135725010D01*
X43203662Y-135973542D01*
X43267690Y-136068660D01*
X43411652Y-136330832D01*
X43531214Y-136626421D01*
X43626376Y-136955426D01*
X43684937Y-137242690D01*
X43727882Y-137551340D01*
X43755210Y-137881377D01*
X43766923Y-138232801D01*
X43767411Y-138323998D01*
X43759602Y-138678707D01*
X43736178Y-139012305D01*
X43697137Y-139324791D01*
X43642480Y-139616165D01*
X43552199Y-139950694D01*
X43437517Y-140252236D01*
X43298434Y-140520791D01*
X43267690Y-140570544D01*
X43066229Y-140837486D01*
X42836639Y-141049199D01*
X42578919Y-141205682D01*
X42293069Y-141306936D01*
X41979089Y-141352961D01*
X41868178Y-141356029D01*
X41546359Y-141328092D01*
X41251896Y-141244282D01*
X40984791Y-141104598D01*
X40848220Y-141002854D01*
X40625525Y-140778690D01*
X40453654Y-140536615D01*
X40306330Y-140254240D01*
X40197557Y-139974103D01*
X40109050Y-139664233D01*
X40050489Y-139375859D01*
X40007899Y-139066464D01*
X39981281Y-138736049D01*
X39970633Y-138384614D01*
X39970411Y-138323998D01*
X40643056Y-138323998D01*
X40650109Y-138645758D01*
X40671266Y-138955976D01*
X40706529Y-139254655D01*
X40755896Y-139541793D01*
X40831656Y-139841060D01*
X40944657Y-140133063D01*
X41104000Y-140405010D01*
X41136915Y-140448911D01*
X41366145Y-140658769D01*
X41649367Y-140771769D01*
X41868178Y-140793293D01*
X42167343Y-140752600D01*
X42438407Y-140615385D01*
X42603838Y-140448911D01*
X42768186Y-140186346D01*
X42886339Y-139902872D01*
X42967225Y-139611282D01*
X42981926Y-139541793D01*
X43036472Y-139217951D01*
X43069972Y-138917830D01*
X43089366Y-138606169D01*
X43094766Y-138323998D01*
X43087713Y-137998392D01*
X43066556Y-137685425D01*
X43031293Y-137385098D01*
X42981926Y-137097411D01*
X42906397Y-136798144D01*
X42794198Y-136506140D01*
X42636398Y-136234193D01*
X42603838Y-136190293D01*
X42376051Y-135980435D01*
X42090561Y-135867434D01*
X41868178Y-135845910D01*
X41573500Y-135886604D01*
X41303775Y-136023819D01*
X41136915Y-136190293D01*
X40970898Y-136452857D01*
X40851829Y-136736331D01*
X40770608Y-137027922D01*
X40755896Y-137097411D01*
X40701349Y-137421948D01*
X40667850Y-137723855D01*
X40648456Y-138038401D01*
X40643056Y-138323998D01*
X39970411Y-138323998D01*
X39975849Y-138024223D01*
X39996732Y-137684329D01*
X40033277Y-137366073D01*
X40085484Y-137069455D01*
X40166187Y-136750750D01*
X40193161Y-136665101D01*
X40300431Y-136384463D01*
X40447068Y-136101859D01*
X40619351Y-135859921D01*
X40843824Y-135636350D01*
X41097856Y-135465625D01*
X41378549Y-135350775D01*
X41685905Y-135291797D01*
X41868178Y-135283175D01*
X42191535Y-135310789D01*
G37*
D14*
G36*
X67770760Y-169082004D02*
G01*
X67721126Y-169080134D01*
X67672096Y-169073981D01*
X67662805Y-169072235D01*
X67615177Y-169061096D01*
X67580251Y-169050009D01*
X67534470Y-169031132D01*
X67532624Y-169030225D01*
X67559246Y-168937901D01*
X67606738Y-168957864D01*
X67635694Y-168967943D01*
X67685765Y-168980120D01*
X67734429Y-168985574D01*
X67773447Y-168986750D01*
X67823727Y-168984436D01*
X67875751Y-168975552D01*
X67912177Y-168963058D01*
X67955762Y-168936218D01*
X67988292Y-168897887D01*
X67989846Y-168895159D01*
X68008165Y-168846982D01*
X68014175Y-168798315D01*
X68014271Y-168790867D01*
X68009624Y-168740948D01*
X67992151Y-168692223D01*
X67974948Y-168667769D01*
X67936032Y-168633588D01*
X67891440Y-168611058D01*
X67872121Y-168604754D01*
X67822777Y-168593591D01*
X67769997Y-168587581D01*
X67732903Y-168586436D01*
X67711898Y-168586436D01*
X67711898Y-168500951D01*
X67751221Y-168500951D01*
X67800436Y-168497287D01*
X67850384Y-168486296D01*
X67896851Y-168465841D01*
X67935136Y-168433784D01*
X67959855Y-168391262D01*
X67969036Y-168343036D01*
X67969574Y-168326073D01*
X67963993Y-168275097D01*
X67944173Y-168230818D01*
X67908616Y-168195973D01*
X67877739Y-168179771D01*
X67828907Y-168166737D01*
X67787613Y-168163651D01*
X67737147Y-168166605D01*
X67688687Y-168177518D01*
X67671354Y-168184656D01*
X67627390Y-168207823D01*
X67600035Y-168225200D01*
X67556560Y-168144112D01*
X67600223Y-168118704D01*
X67646685Y-168096484D01*
X67695022Y-168080261D01*
X67745728Y-168071968D01*
X67791765Y-168069862D01*
X67844803Y-168072412D01*
X67896981Y-168081228D01*
X67946168Y-168098198D01*
X67954187Y-168102102D01*
X67996914Y-168129499D01*
X68032969Y-168166854D01*
X68047976Y-168190274D01*
X68067901Y-168238500D01*
X68077278Y-168287953D01*
X68078751Y-168318990D01*
X68073527Y-168371621D01*
X68057856Y-168418019D01*
X68034543Y-168454789D01*
X67998101Y-168491460D01*
X67954721Y-168519406D01*
X67921947Y-168533191D01*
X67969256Y-168550106D01*
X68014096Y-168574750D01*
X68019888Y-168578620D01*
X68057054Y-168610350D01*
X68087769Y-168650401D01*
X68095359Y-168663372D01*
X68114494Y-168710544D01*
X68123498Y-168761028D01*
X68124913Y-168793554D01*
X68121144Y-168842860D01*
X68108293Y-168893571D01*
X68086322Y-168940588D01*
X68055226Y-168982467D01*
X68014664Y-169017767D01*
X67969574Y-169044147D01*
X67922150Y-169062447D01*
X67874416Y-169073686D01*
X67821430Y-169080193D01*
X67770760Y-169082004D01*
G37*
G36*
X68376727Y-169283505D02*
G01*
X68298325Y-169252730D01*
X68318239Y-169207128D01*
X68333651Y-169160659D01*
X68343754Y-169117664D01*
X68351940Y-169065571D01*
X68356348Y-169013342D01*
X68357188Y-168978445D01*
X68356455Y-168957441D01*
X68355722Y-168937901D01*
X68354257Y-168919583D01*
X68470516Y-168919583D01*
X68471982Y-168944007D01*
X68471982Y-168961593D01*
X68469501Y-169014806D01*
X68462059Y-169067590D01*
X68449656Y-169119945D01*
X68446580Y-169130364D01*
X68428949Y-169181107D01*
X68407502Y-169229226D01*
X68382238Y-169274721D01*
X68376727Y-169283505D01*
G37*
G36*
X68904047Y-169082004D02*
G01*
X68854413Y-169080134D01*
X68805383Y-169073981D01*
X68796092Y-169072235D01*
X68748464Y-169061096D01*
X68713538Y-169050009D01*
X68667757Y-169031132D01*
X68665911Y-169030225D01*
X68692533Y-168937901D01*
X68740025Y-168957864D01*
X68768981Y-168967943D01*
X68819052Y-168980120D01*
X68867716Y-168985574D01*
X68906734Y-168986750D01*
X68957014Y-168984436D01*
X69009037Y-168975552D01*
X69045464Y-168963058D01*
X69089048Y-168936218D01*
X69121578Y-168897887D01*
X69123133Y-168895159D01*
X69141451Y-168846982D01*
X69147462Y-168798315D01*
X69147557Y-168790867D01*
X69142911Y-168740948D01*
X69125438Y-168692223D01*
X69108234Y-168667769D01*
X69069319Y-168633588D01*
X69024727Y-168611058D01*
X69005408Y-168604754D01*
X68956063Y-168593591D01*
X68903284Y-168587581D01*
X68866190Y-168586436D01*
X68845185Y-168586436D01*
X68845185Y-168500951D01*
X68884508Y-168500951D01*
X68933723Y-168497287D01*
X68983670Y-168486296D01*
X69030138Y-168465841D01*
X69068423Y-168433784D01*
X69093142Y-168391262D01*
X69102323Y-168343036D01*
X69102861Y-168326073D01*
X69097280Y-168275097D01*
X69077460Y-168230818D01*
X69041903Y-168195973D01*
X69011026Y-168179771D01*
X68962193Y-168166737D01*
X68920900Y-168163651D01*
X68870433Y-168166605D01*
X68821974Y-168177518D01*
X68804640Y-168184656D01*
X68760677Y-168207823D01*
X68733322Y-168225200D01*
X68689846Y-168144112D01*
X68733509Y-168118704D01*
X68779972Y-168096484D01*
X68828309Y-168080261D01*
X68879015Y-168071968D01*
X68925052Y-168069862D01*
X68978090Y-168072412D01*
X69030268Y-168081228D01*
X69079455Y-168098198D01*
X69087474Y-168102102D01*
X69130201Y-168129499D01*
X69166256Y-168166854D01*
X69181263Y-168190274D01*
X69201188Y-168238500D01*
X69210565Y-168287953D01*
X69212038Y-168318990D01*
X69206814Y-168371621D01*
X69191142Y-168418019D01*
X69167830Y-168454789D01*
X69131388Y-168491460D01*
X69088008Y-168519406D01*
X69055234Y-168533191D01*
X69102543Y-168550106D01*
X69147383Y-168574750D01*
X69153175Y-168578620D01*
X69190341Y-168610350D01*
X69221055Y-168650401D01*
X69228646Y-168663372D01*
X69247781Y-168710544D01*
X69256785Y-168761028D01*
X69258199Y-168793554D01*
X69254431Y-168842860D01*
X69241580Y-168893571D01*
X69219609Y-168940588D01*
X69188513Y-168982467D01*
X69147950Y-169017767D01*
X69102861Y-169044147D01*
X69055437Y-169062447D01*
X69007703Y-169073686D01*
X68954717Y-169080193D01*
X68904047Y-169082004D01*
G37*
G36*
X69763294Y-169061000D02*
G01*
X69741068Y-169011296D01*
X69719086Y-168961593D01*
X69697348Y-168911889D01*
X69675855Y-168862186D01*
X69654392Y-168811658D01*
X69635462Y-168766094D01*
X69616391Y-168719268D01*
X69597180Y-168671179D01*
X69588904Y-168650183D01*
X69569366Y-168599682D01*
X69549221Y-168546913D01*
X69531469Y-168499878D01*
X69513271Y-168451178D01*
X69494627Y-168400811D01*
X69475355Y-168348315D01*
X69455277Y-168293226D01*
X69437928Y-168245337D01*
X69420019Y-168195648D01*
X69401549Y-168144158D01*
X69382519Y-168090867D01*
X69504396Y-168090867D01*
X69522029Y-168142473D01*
X69539452Y-168193215D01*
X69556664Y-168243092D01*
X69573666Y-168292104D01*
X69583287Y-168319722D01*
X69600100Y-168367469D01*
X69616773Y-168414537D01*
X69633305Y-168460928D01*
X69652028Y-168513116D01*
X69659002Y-168532458D01*
X69677687Y-168583657D01*
X69696615Y-168634429D01*
X69715788Y-168684774D01*
X69735206Y-168734691D01*
X69755035Y-168784318D01*
X69775200Y-168833793D01*
X69795702Y-168883114D01*
X69816539Y-168932284D01*
X69837314Y-168883801D01*
X69857632Y-168835075D01*
X69877492Y-168786104D01*
X69896894Y-168736889D01*
X69916144Y-168687247D01*
X69935302Y-168636994D01*
X69954368Y-168586130D01*
X69973342Y-168534656D01*
X69992302Y-168482434D01*
X70008941Y-168436013D01*
X70025628Y-168388915D01*
X70042361Y-168341138D01*
X70049546Y-168320455D01*
X70066465Y-168271652D01*
X70083453Y-168222054D01*
X70100512Y-168171661D01*
X70117640Y-168120474D01*
X70127460Y-168090867D01*
X70243475Y-168090867D01*
X70224931Y-168144158D01*
X70206853Y-168195648D01*
X70189240Y-168245337D01*
X70172091Y-168293226D01*
X70155408Y-168339314D01*
X70136002Y-168392242D01*
X70132833Y-168400811D01*
X70114180Y-168451178D01*
X70095956Y-168499878D01*
X70078162Y-168546913D01*
X70057944Y-168599682D01*
X70038311Y-168650183D01*
X70019135Y-168698813D01*
X70000077Y-168746180D01*
X69981135Y-168792285D01*
X69959630Y-168843431D01*
X69951605Y-168862186D01*
X69930203Y-168911889D01*
X69908496Y-168961593D01*
X69886484Y-169011296D01*
X69864166Y-169061000D01*
X69763294Y-169061000D01*
G37*
D15*
G36*
X65534962Y-41356029D02*
G01*
X65237153Y-41344809D01*
X64942974Y-41307886D01*
X64887230Y-41297411D01*
X64600222Y-41230579D01*
X64387509Y-41164054D01*
X64115545Y-41053617D01*
X64098814Y-41045352D01*
X64249756Y-40498736D01*
X64537898Y-40611768D01*
X64715771Y-40671660D01*
X65017777Y-40744720D01*
X65329610Y-40779101D01*
X65526169Y-40784501D01*
X65844333Y-40769331D01*
X66140098Y-40717602D01*
X66379065Y-40629162D01*
X66627563Y-40458738D01*
X66807448Y-40222296D01*
X66815771Y-40205645D01*
X66913590Y-39921713D01*
X66946070Y-39629573D01*
X66946197Y-39609204D01*
X66917140Y-39299397D01*
X66820080Y-39003773D01*
X66739567Y-38861821D01*
X66520147Y-38632149D01*
X66252120Y-38475215D01*
X66009770Y-38382616D01*
X65719792Y-38308886D01*
X65420682Y-38261652D01*
X65079216Y-38230547D01*
X64752820Y-38216722D01*
X64517934Y-38214089D01*
X64553930Y-37907373D01*
X64584979Y-37615908D01*
X64602931Y-37430069D01*
X64630740Y-37116232D01*
X64655184Y-36815860D01*
X64661549Y-36732512D01*
X64682973Y-36421932D01*
X64700533Y-36113929D01*
X64702582Y-36073056D01*
X64717136Y-35763700D01*
X64727827Y-35451124D01*
X64728960Y-35409204D01*
X67407816Y-35409204D01*
X67407816Y-35954354D01*
X65266783Y-35954354D01*
X65250361Y-36250451D01*
X65244801Y-36350027D01*
X65226140Y-36651705D01*
X65211096Y-36840956D01*
X65186216Y-37135163D01*
X65168597Y-37324556D01*
X65140296Y-37616915D01*
X65131961Y-37693852D01*
X65442501Y-37709697D01*
X65800407Y-37750369D01*
X66124682Y-37814225D01*
X66415326Y-37901265D01*
X66719706Y-38036316D01*
X66975658Y-38204752D01*
X67013608Y-38236071D01*
X67246010Y-38474243D01*
X67421331Y-38745094D01*
X67539571Y-39048622D01*
X67600730Y-39384829D01*
X67610049Y-39591618D01*
X67588296Y-39892323D01*
X67514119Y-40202602D01*
X67387299Y-40491409D01*
X67205760Y-40748212D01*
X66967423Y-40964494D01*
X66701466Y-41125952D01*
X66422562Y-41237171D01*
X66105173Y-41311991D01*
X65790741Y-41347940D01*
X65534962Y-41356029D01*
G37*
G36*
X70955178Y-35310789D02*
G01*
X71250405Y-35393633D01*
X71517501Y-35531707D01*
X71756468Y-35725010D01*
X71967305Y-35973542D01*
X72031333Y-36068660D01*
X72175296Y-36330832D01*
X72294858Y-36626421D01*
X72390019Y-36955426D01*
X72448580Y-37242690D01*
X72491525Y-37551340D01*
X72518854Y-37881377D01*
X72530566Y-38232801D01*
X72531054Y-38323998D01*
X72523246Y-38678707D01*
X72499821Y-39012305D01*
X72460781Y-39324791D01*
X72406124Y-39616165D01*
X72315842Y-39950694D01*
X72201160Y-40252236D01*
X72062077Y-40520791D01*
X72031333Y-40570544D01*
X71829873Y-40837486D01*
X71600282Y-41049199D01*
X71342562Y-41205682D01*
X71056712Y-41306936D01*
X70742732Y-41352961D01*
X70631821Y-41356029D01*
X70310002Y-41328092D01*
X70015539Y-41244282D01*
X69748434Y-41104598D01*
X69611863Y-41002854D01*
X69389168Y-40778690D01*
X69217298Y-40536615D01*
X69069973Y-40254240D01*
X68961200Y-39974103D01*
X68872693Y-39664233D01*
X68814132Y-39375859D01*
X68771542Y-39066464D01*
X68744924Y-38736049D01*
X68734276Y-38384614D01*
X68734055Y-38323998D01*
X69406699Y-38323998D01*
X69413752Y-38645758D01*
X69434909Y-38955976D01*
X69470172Y-39254655D01*
X69519540Y-39541793D01*
X69595300Y-39841060D01*
X69708300Y-40133063D01*
X69867643Y-40405010D01*
X69900558Y-40448911D01*
X70129788Y-40658769D01*
X70413010Y-40771769D01*
X70631821Y-40793293D01*
X70930986Y-40752600D01*
X71202050Y-40615385D01*
X71367481Y-40448911D01*
X71531830Y-40186346D01*
X71649982Y-39902872D01*
X71730868Y-39611282D01*
X71745569Y-39541793D01*
X71800116Y-39217951D01*
X71833615Y-38917830D01*
X71853009Y-38606169D01*
X71858409Y-38323998D01*
X71851357Y-37998392D01*
X71830199Y-37685425D01*
X71794936Y-37385098D01*
X71745569Y-37097411D01*
X71670041Y-36798144D01*
X71557841Y-36506140D01*
X71400042Y-36234193D01*
X71367481Y-36190293D01*
X71139694Y-35980435D01*
X70854205Y-35867434D01*
X70631821Y-35845910D01*
X70337143Y-35886604D01*
X70067419Y-36023819D01*
X69900558Y-36190293D01*
X69734541Y-36452857D01*
X69615473Y-36736331D01*
X69534251Y-37027922D01*
X69519540Y-37097411D01*
X69464993Y-37421948D01*
X69431493Y-37723855D01*
X69412099Y-38038401D01*
X69406699Y-38323998D01*
X68734055Y-38323998D01*
X68739493Y-38024223D01*
X68760375Y-37684329D01*
X68796920Y-37366073D01*
X68849127Y-37069455D01*
X68929830Y-36750750D01*
X68956804Y-36665101D01*
X69064074Y-36384463D01*
X69210712Y-36101859D01*
X69382994Y-35859921D01*
X69607467Y-35636350D01*
X69861499Y-35465625D01*
X70142193Y-35350775D01*
X70449548Y-35291797D01*
X70631821Y-35283175D01*
X70955178Y-35310789D01*
G37*
D14*
G36*
X69893124Y-180772885D02*
G01*
X69944131Y-180783511D01*
X69989922Y-180801787D01*
X70017551Y-180818222D01*
X70058385Y-180852564D01*
X70089263Y-180890772D01*
X70114576Y-180935898D01*
X70124041Y-180958173D01*
X70139748Y-181006289D01*
X70150968Y-181059046D01*
X70157104Y-181109014D01*
X70159804Y-181162536D01*
X70159944Y-181178480D01*
X70158682Y-181231374D01*
X70154895Y-181281795D01*
X70147287Y-181337494D01*
X70136242Y-181389827D01*
X70124041Y-181432004D01*
X70106792Y-181478098D01*
X70083043Y-181526683D01*
X70054989Y-181570902D01*
X70022631Y-181610756D01*
X70018283Y-181615431D01*
X69981250Y-181650235D01*
X69940004Y-181680399D01*
X69894544Y-181705923D01*
X69844871Y-181726806D01*
X69797951Y-181741176D01*
X69747805Y-181752017D01*
X69694434Y-181759328D01*
X69637837Y-181763110D01*
X69604048Y-181763686D01*
X69599895Y-181676980D01*
X69651707Y-181675309D01*
X69700714Y-181670295D01*
X69753288Y-181660472D01*
X69802197Y-181646283D01*
X69813852Y-181642053D01*
X69863140Y-181618908D01*
X69906863Y-181589039D01*
X69945022Y-181552447D01*
X69963817Y-181529213D01*
X69989982Y-181487448D01*
X70011078Y-181439820D01*
X70027107Y-181386331D01*
X70036974Y-181334719D01*
X70038067Y-181326980D01*
X69992412Y-181346429D01*
X69950384Y-181359953D01*
X69901454Y-181370471D01*
X69850378Y-181374550D01*
X69843406Y-181374607D01*
X69792893Y-181372028D01*
X69742307Y-181362958D01*
X69693849Y-181345222D01*
X69672680Y-181333330D01*
X69632563Y-181301893D01*
X69600874Y-181264337D01*
X69579379Y-181224886D01*
X69563109Y-181177382D01*
X69553593Y-181127222D01*
X69550803Y-181079318D01*
X69551130Y-181074921D01*
X69661445Y-181074921D01*
X69664498Y-181124747D01*
X69675231Y-181172626D01*
X69698844Y-181219391D01*
X69710293Y-181233191D01*
X69749326Y-181262671D01*
X69798922Y-181279914D01*
X69853175Y-181284970D01*
X69903391Y-181282305D01*
X69951487Y-181273536D01*
X69960398Y-181271048D01*
X70008018Y-181254894D01*
X70046371Y-181238808D01*
X70048570Y-181208766D01*
X70049302Y-181175794D01*
X70047585Y-181123677D01*
X70042433Y-181074185D01*
X70032799Y-181022773D01*
X70031717Y-181018257D01*
X70014784Y-180968271D01*
X69987990Y-180923267D01*
X69969923Y-180902974D01*
X69928076Y-180874826D01*
X69878571Y-180861580D01*
X69844871Y-180859499D01*
X69795600Y-180864578D01*
X69748967Y-180883061D01*
X69738381Y-180890274D01*
X69703393Y-180925628D01*
X69679519Y-180970141D01*
X69666546Y-181017493D01*
X69661515Y-181067958D01*
X69661445Y-181074921D01*
X69551130Y-181074921D01*
X69554613Y-181028080D01*
X69565045Y-180980356D01*
X69568144Y-180970141D01*
X69586991Y-180924046D01*
X69612756Y-180881504D01*
X69621389Y-180870002D01*
X69656498Y-180833590D01*
X69698993Y-180804285D01*
X69712491Y-180797217D01*
X69760844Y-180779506D01*
X69811345Y-180771171D01*
X69843406Y-180769862D01*
X69893124Y-180772885D01*
G37*
D15*
G36*
X40155059Y-101230000D02*
G01*
X40150662Y-101146468D01*
X40146266Y-101002854D01*
X40169593Y-100681655D01*
X40239574Y-100379347D01*
X40356210Y-100095930D01*
X40385136Y-100041514D01*
X40546364Y-99777903D01*
X40729632Y-99527459D01*
X40934940Y-99290181D01*
X40978646Y-99244305D01*
X41197663Y-99019907D01*
X41413245Y-98804668D01*
X41625393Y-98598588D01*
X41667411Y-98558471D01*
X41890403Y-98343962D01*
X42109993Y-98120526D01*
X42183251Y-98042630D01*
X42380680Y-97804007D01*
X42538825Y-97552504D01*
X42556943Y-97517997D01*
X42660026Y-97242472D01*
X42699997Y-96937968D01*
X42700558Y-96895177D01*
X42670934Y-96574666D01*
X42569916Y-96294171D01*
X42397208Y-96089176D01*
X42125565Y-95931671D01*
X41828020Y-95857551D01*
X41633705Y-95845910D01*
X41330166Y-95869094D01*
X41032868Y-95951423D01*
X40760875Y-96084279D01*
X40612281Y-96185896D01*
X40388460Y-96376557D01*
X40373412Y-96391060D01*
X40046615Y-95963147D01*
X40265110Y-95767586D01*
X40352896Y-95699364D01*
X40612071Y-95535728D01*
X40893649Y-95409204D01*
X41196867Y-95323051D01*
X41507059Y-95286252D01*
X41633705Y-95283175D01*
X41942894Y-95297961D01*
X42265586Y-95352588D01*
X42547326Y-95447466D01*
X42819168Y-95605186D01*
X42935031Y-95703761D01*
X43126090Y-95933288D01*
X43262561Y-96202749D01*
X43344443Y-96512144D01*
X43371311Y-96815622D01*
X43371737Y-96861472D01*
X43347840Y-97154435D01*
X43267263Y-97457441D01*
X43169504Y-97673335D01*
X43016930Y-97926265D01*
X42835265Y-98171230D01*
X42644870Y-98387013D01*
X42440365Y-98599075D01*
X42229848Y-98810278D01*
X42013321Y-99020623D01*
X41969295Y-99062588D01*
X41752609Y-99277916D01*
X41538342Y-99500016D01*
X41440265Y-99604808D01*
X41244286Y-99831968D01*
X41068934Y-100073356D01*
X41015282Y-100158750D01*
X40893283Y-100426196D01*
X40852616Y-100683384D01*
X43565177Y-100683384D01*
X43565177Y-101230000D01*
X40155059Y-101230000D01*
G37*
G36*
X46927892Y-95310789D02*
G01*
X47223119Y-95393633D01*
X47490215Y-95531707D01*
X47729182Y-95725010D01*
X47940019Y-95973542D01*
X48004047Y-96068660D01*
X48148010Y-96330832D01*
X48267572Y-96626421D01*
X48362733Y-96955426D01*
X48421294Y-97242690D01*
X48464239Y-97551340D01*
X48491568Y-97881377D01*
X48503280Y-98232801D01*
X48503768Y-98323998D01*
X48495960Y-98678707D01*
X48472535Y-99012305D01*
X48433495Y-99324791D01*
X48378838Y-99616165D01*
X48288556Y-99950694D01*
X48173874Y-100252236D01*
X48034791Y-100520791D01*
X48004047Y-100570544D01*
X47802587Y-100837486D01*
X47572996Y-101049199D01*
X47315276Y-101205682D01*
X47029426Y-101306936D01*
X46715446Y-101352961D01*
X46604535Y-101356029D01*
X46282716Y-101328092D01*
X45988253Y-101244282D01*
X45721148Y-101104598D01*
X45584577Y-101002854D01*
X45361882Y-100778690D01*
X45190012Y-100536615D01*
X45042687Y-100254240D01*
X44933914Y-99974103D01*
X44845407Y-99664233D01*
X44786846Y-99375859D01*
X44744256Y-99066464D01*
X44717638Y-98736049D01*
X44706990Y-98384614D01*
X44706769Y-98323998D01*
X45379413Y-98323998D01*
X45386466Y-98645758D01*
X45407623Y-98955976D01*
X45442886Y-99254655D01*
X45492254Y-99541793D01*
X45568014Y-99841060D01*
X45681014Y-100133063D01*
X45840357Y-100405010D01*
X45873272Y-100448911D01*
X46102502Y-100658769D01*
X46385724Y-100771769D01*
X46604535Y-100793293D01*
X46903700Y-100752600D01*
X47174764Y-100615385D01*
X47340195Y-100448911D01*
X47504544Y-100186346D01*
X47622696Y-99902872D01*
X47703582Y-99611282D01*
X47718283Y-99541793D01*
X47772830Y-99217951D01*
X47806329Y-98917830D01*
X47825723Y-98606169D01*
X47831123Y-98323998D01*
X47824071Y-97998392D01*
X47802913Y-97685425D01*
X47767650Y-97385098D01*
X47718283Y-97097411D01*
X47642755Y-96798144D01*
X47530555Y-96506140D01*
X47372756Y-96234193D01*
X47340195Y-96190293D01*
X47112408Y-95980435D01*
X46826919Y-95867434D01*
X46604535Y-95845910D01*
X46309857Y-95886604D01*
X46040133Y-96023819D01*
X45873272Y-96190293D01*
X45707255Y-96452857D01*
X45588187Y-96736331D01*
X45506965Y-97027922D01*
X45492254Y-97097411D01*
X45437707Y-97421948D01*
X45404207Y-97723855D01*
X45384813Y-98038401D01*
X45379413Y-98323998D01*
X44706769Y-98323998D01*
X44712207Y-98024223D01*
X44733089Y-97684329D01*
X44769634Y-97366073D01*
X44821841Y-97069455D01*
X44902544Y-96750750D01*
X44929518Y-96665101D01*
X45036788Y-96384463D01*
X45183426Y-96101859D01*
X45355708Y-95859921D01*
X45580181Y-95636350D01*
X45834213Y-95465625D01*
X46114907Y-95350775D01*
X46422262Y-95291797D01*
X46604535Y-95283175D01*
X46927892Y-95310789D01*
G37*
D14*
G36*
X68788032Y-176681000D02*
G01*
X68787299Y-176667078D01*
X68786567Y-176643142D01*
X68790454Y-176589609D01*
X68802118Y-176539224D01*
X68821557Y-176491988D01*
X68826378Y-176482919D01*
X68853250Y-176438983D01*
X68883794Y-176397243D01*
X68918012Y-176357696D01*
X68925297Y-176350050D01*
X68961799Y-176312651D01*
X68997730Y-176276778D01*
X69033088Y-176242431D01*
X69040091Y-176235745D01*
X69077256Y-176199993D01*
X69113854Y-176162754D01*
X69126064Y-176149771D01*
X69158969Y-176110001D01*
X69185326Y-176068084D01*
X69188346Y-176062332D01*
X69205527Y-176016412D01*
X69212188Y-175965661D01*
X69212282Y-175958529D01*
X69207345Y-175905111D01*
X69190508Y-175858361D01*
X69161724Y-175824196D01*
X69116450Y-175797945D01*
X69066859Y-175785591D01*
X69034473Y-175783651D01*
X68983883Y-175787515D01*
X68934334Y-175801237D01*
X68889001Y-175823379D01*
X68864236Y-175840316D01*
X68826932Y-175872092D01*
X68824424Y-175874510D01*
X68769958Y-175803191D01*
X68806374Y-175770597D01*
X68821005Y-175759227D01*
X68864201Y-175731954D01*
X68911130Y-175710867D01*
X68961667Y-175696508D01*
X69013365Y-175690375D01*
X69034473Y-175689862D01*
X69086005Y-175692326D01*
X69139787Y-175701431D01*
X69186743Y-175717244D01*
X69232050Y-175743531D01*
X69251361Y-175759960D01*
X69283204Y-175798214D01*
X69305949Y-175843124D01*
X69319596Y-175894690D01*
X69324074Y-175945270D01*
X69324145Y-175952912D01*
X69320162Y-176001739D01*
X69306733Y-176052240D01*
X69290440Y-176088222D01*
X69265011Y-176130377D01*
X69234733Y-176171205D01*
X69203001Y-176207168D01*
X69168916Y-176242512D01*
X69133830Y-176277713D01*
X69097742Y-176312770D01*
X69090405Y-176319764D01*
X69054290Y-176355652D01*
X69018579Y-176392669D01*
X69002233Y-176410134D01*
X68969570Y-176447994D01*
X68940345Y-176488226D01*
X68931403Y-176502458D01*
X68911069Y-176547032D01*
X68904292Y-176589897D01*
X69356385Y-176589897D01*
X69356385Y-176681000D01*
X68788032Y-176681000D01*
G37*
G36*
X69865876Y-176681000D02*
G01*
X69865876Y-175864740D01*
X69827087Y-175897896D01*
X69809944Y-175909681D01*
X69766762Y-175935715D01*
X69730077Y-175955110D01*
X69683884Y-175976000D01*
X69643126Y-175990769D01*
X69612352Y-175909681D01*
X69658338Y-175891743D01*
X69706442Y-175868731D01*
X69751398Y-175842475D01*
X69764271Y-175833965D01*
X69806374Y-175802109D01*
X69843696Y-175768299D01*
X69880477Y-175729620D01*
X69896650Y-175710867D01*
X69970900Y-175710867D01*
X69970900Y-176681000D01*
X69865876Y-176681000D01*
G37*
D15*
G36*
X41885764Y-121230000D02*
G01*
X41885764Y-116332442D01*
X41653031Y-116531378D01*
X41550174Y-116602086D01*
X41291080Y-116758295D01*
X41070969Y-116874661D01*
X40793815Y-117000003D01*
X40549267Y-117088618D01*
X40364619Y-116602086D01*
X40640534Y-116494461D01*
X40929161Y-116356387D01*
X41198896Y-116198851D01*
X41276133Y-116147794D01*
X41528753Y-115956655D01*
X41752685Y-115753795D01*
X41973370Y-115521724D01*
X42070411Y-115409204D01*
X42515910Y-115409204D01*
X42515910Y-121230000D01*
X41885764Y-121230000D01*
G37*
G36*
X46927892Y-115310789D02*
G01*
X47223119Y-115393633D01*
X47490215Y-115531707D01*
X47729182Y-115725010D01*
X47940019Y-115973542D01*
X48004047Y-116068660D01*
X48148010Y-116330832D01*
X48267572Y-116626421D01*
X48362733Y-116955426D01*
X48421294Y-117242690D01*
X48464239Y-117551340D01*
X48491568Y-117881377D01*
X48503280Y-118232801D01*
X48503768Y-118323998D01*
X48495960Y-118678707D01*
X48472535Y-119012305D01*
X48433495Y-119324791D01*
X48378838Y-119616165D01*
X48288556Y-119950694D01*
X48173874Y-120252236D01*
X48034791Y-120520791D01*
X48004047Y-120570544D01*
X47802587Y-120837486D01*
X47572996Y-121049199D01*
X47315276Y-121205682D01*
X47029426Y-121306936D01*
X46715446Y-121352961D01*
X46604535Y-121356029D01*
X46282716Y-121328092D01*
X45988253Y-121244282D01*
X45721148Y-121104598D01*
X45584577Y-121002854D01*
X45361882Y-120778690D01*
X45190012Y-120536615D01*
X45042687Y-120254240D01*
X44933914Y-119974103D01*
X44845407Y-119664233D01*
X44786846Y-119375859D01*
X44744256Y-119066464D01*
X44717638Y-118736049D01*
X44706990Y-118384614D01*
X44706769Y-118323998D01*
X45379413Y-118323998D01*
X45386466Y-118645758D01*
X45407623Y-118955976D01*
X45442886Y-119254655D01*
X45492254Y-119541793D01*
X45568014Y-119841060D01*
X45681014Y-120133063D01*
X45840357Y-120405010D01*
X45873272Y-120448911D01*
X46102502Y-120658769D01*
X46385724Y-120771769D01*
X46604535Y-120793293D01*
X46903700Y-120752600D01*
X47174764Y-120615385D01*
X47340195Y-120448911D01*
X47504544Y-120186346D01*
X47622696Y-119902872D01*
X47703582Y-119611282D01*
X47718283Y-119541793D01*
X47772830Y-119217951D01*
X47806329Y-118917830D01*
X47825723Y-118606169D01*
X47831123Y-118323998D01*
X47824071Y-117998392D01*
X47802913Y-117685425D01*
X47767650Y-117385098D01*
X47718283Y-117097411D01*
X47642755Y-116798144D01*
X47530555Y-116506140D01*
X47372756Y-116234193D01*
X47340195Y-116190293D01*
X47112408Y-115980435D01*
X46826919Y-115867434D01*
X46604535Y-115845910D01*
X46309857Y-115886604D01*
X46040133Y-116023819D01*
X45873272Y-116190293D01*
X45707255Y-116452857D01*
X45588187Y-116736331D01*
X45506965Y-117027922D01*
X45492254Y-117097411D01*
X45437707Y-117421948D01*
X45404207Y-117723855D01*
X45384813Y-118038401D01*
X45379413Y-118323998D01*
X44706769Y-118323998D01*
X44712207Y-118024223D01*
X44733089Y-117684329D01*
X44769634Y-117366073D01*
X44821841Y-117069455D01*
X44902544Y-116750750D01*
X44929518Y-116665101D01*
X45036788Y-116384463D01*
X45183426Y-116101859D01*
X45355708Y-115859921D01*
X45580181Y-115636350D01*
X45834213Y-115465625D01*
X46114907Y-115350775D01*
X46422262Y-115291797D01*
X46604535Y-115283175D01*
X46927892Y-115310789D01*
G37*
G36*
X39984473Y-179087501D02*
G01*
X39984473Y-178491060D01*
X41942323Y-178491060D01*
X41942323Y-179087501D01*
X39984473Y-179087501D01*
G37*
G36*
X42831856Y-181230000D02*
G01*
X42827459Y-181146468D01*
X42823063Y-181002854D01*
X42846390Y-180681655D01*
X42916371Y-180379347D01*
X43033007Y-180095930D01*
X43061933Y-180041514D01*
X43223161Y-179777903D01*
X43406429Y-179527459D01*
X43611737Y-179290181D01*
X43655443Y-179244305D01*
X43874460Y-179019907D01*
X44090042Y-178804668D01*
X44302190Y-178598588D01*
X44344207Y-178558471D01*
X44567200Y-178343962D01*
X44786790Y-178120526D01*
X44860048Y-178042630D01*
X45057477Y-177804007D01*
X45215622Y-177552504D01*
X45233740Y-177517997D01*
X45336823Y-177242472D01*
X45376794Y-176937968D01*
X45377355Y-176895177D01*
X45347731Y-176574666D01*
X45246713Y-176294171D01*
X45074005Y-176089176D01*
X44802362Y-175931671D01*
X44504817Y-175857551D01*
X44310502Y-175845910D01*
X44006963Y-175869094D01*
X43709665Y-175951423D01*
X43437672Y-176084279D01*
X43289078Y-176185896D01*
X43065257Y-176376557D01*
X43050209Y-176391060D01*
X42723412Y-175963147D01*
X42941907Y-175767586D01*
X43029692Y-175699364D01*
X43288868Y-175535728D01*
X43570446Y-175409204D01*
X43873664Y-175323051D01*
X44183856Y-175286252D01*
X44310502Y-175283175D01*
X44619690Y-175297961D01*
X44942383Y-175352588D01*
X45224123Y-175447466D01*
X45495965Y-175605186D01*
X45611828Y-175703761D01*
X45802887Y-175933288D01*
X45939357Y-176202749D01*
X46021240Y-176512144D01*
X46048108Y-176815622D01*
X46048534Y-176861472D01*
X46024637Y-177154435D01*
X45944060Y-177457441D01*
X45846301Y-177673335D01*
X45693727Y-177926265D01*
X45512062Y-178171230D01*
X45321667Y-178387013D01*
X45117162Y-178599075D01*
X44906645Y-178810278D01*
X44690118Y-179020623D01*
X44646092Y-179062588D01*
X44429406Y-179277916D01*
X44215138Y-179500016D01*
X44117062Y-179604808D01*
X43921082Y-179831968D01*
X43745731Y-180073356D01*
X43692079Y-180158750D01*
X43570080Y-180426196D01*
X43529413Y-180683384D01*
X46241974Y-180683384D01*
X46241974Y-181230000D01*
X42831856Y-181230000D01*
G37*
G36*
X49604689Y-175310789D02*
G01*
X49899916Y-175393633D01*
X50167012Y-175531707D01*
X50405979Y-175725010D01*
X50616816Y-175973542D01*
X50680844Y-176068660D01*
X50824806Y-176330832D01*
X50944369Y-176626421D01*
X51039530Y-176955426D01*
X51098091Y-177242690D01*
X51141036Y-177551340D01*
X51168365Y-177881377D01*
X51180077Y-178232801D01*
X51180565Y-178323998D01*
X51172757Y-178678707D01*
X51149332Y-179012305D01*
X51110292Y-179324791D01*
X51055635Y-179616165D01*
X50965353Y-179950694D01*
X50850671Y-180252236D01*
X50711588Y-180520791D01*
X50680844Y-180570544D01*
X50479384Y-180837486D01*
X50249793Y-181049199D01*
X49992073Y-181205682D01*
X49706223Y-181306936D01*
X49392243Y-181352961D01*
X49281332Y-181356029D01*
X48959513Y-181328092D01*
X48665050Y-181244282D01*
X48397945Y-181104598D01*
X48261374Y-181002854D01*
X48038679Y-180778690D01*
X47866809Y-180536615D01*
X47719484Y-180254240D01*
X47610711Y-179974103D01*
X47522204Y-179664233D01*
X47463643Y-179375859D01*
X47421053Y-179066464D01*
X47394435Y-178736049D01*
X47383787Y-178384614D01*
X47383565Y-178323998D01*
X48056210Y-178323998D01*
X48063263Y-178645758D01*
X48084420Y-178955976D01*
X48119683Y-179254655D01*
X48169050Y-179541793D01*
X48244811Y-179841060D01*
X48357811Y-180133063D01*
X48517154Y-180405010D01*
X48550069Y-180448911D01*
X48779299Y-180658769D01*
X49062521Y-180771769D01*
X49281332Y-180793293D01*
X49580497Y-180752600D01*
X49851561Y-180615385D01*
X50016992Y-180448911D01*
X50181341Y-180186346D01*
X50299493Y-179902872D01*
X50380379Y-179611282D01*
X50395080Y-179541793D01*
X50449627Y-179217951D01*
X50483126Y-178917830D01*
X50502520Y-178606169D01*
X50507920Y-178323998D01*
X50500867Y-177998392D01*
X50479710Y-177685425D01*
X50444447Y-177385098D01*
X50395080Y-177097411D01*
X50319551Y-176798144D01*
X50207352Y-176506140D01*
X50049552Y-176234193D01*
X50016992Y-176190293D01*
X49789205Y-175980435D01*
X49503715Y-175867434D01*
X49281332Y-175845910D01*
X48986654Y-175886604D01*
X48716930Y-176023819D01*
X48550069Y-176190293D01*
X48384052Y-176452857D01*
X48264983Y-176736331D01*
X48183762Y-177027922D01*
X48169050Y-177097411D01*
X48114504Y-177421948D01*
X48081004Y-177723855D01*
X48061610Y-178038401D01*
X48056210Y-178323998D01*
X47383565Y-178323998D01*
X47389004Y-178024223D01*
X47409886Y-177684329D01*
X47446431Y-177366073D01*
X47498638Y-177069455D01*
X47579341Y-176750750D01*
X47606315Y-176665101D01*
X47713585Y-176384463D01*
X47860223Y-176101859D01*
X48032505Y-175859921D01*
X48256978Y-175636350D01*
X48511010Y-175465625D01*
X48791704Y-175350775D01*
X49099059Y-175291797D01*
X49281332Y-175283175D01*
X49604689Y-175310789D01*
G37*
G36*
X39984473Y-159087501D02*
G01*
X39984473Y-158491060D01*
X41942323Y-158491060D01*
X41942323Y-159087501D01*
X39984473Y-159087501D01*
G37*
G36*
X44562561Y-161230000D02*
G01*
X44562561Y-156332442D01*
X44329828Y-156531378D01*
X44226971Y-156602086D01*
X43967877Y-156758295D01*
X43747766Y-156874661D01*
X43470612Y-157000003D01*
X43226064Y-157088618D01*
X43041416Y-156602086D01*
X43317331Y-156494461D01*
X43605958Y-156356387D01*
X43875693Y-156198851D01*
X43952930Y-156147794D01*
X44205550Y-155956655D01*
X44429482Y-155753795D01*
X44650167Y-155521724D01*
X44747208Y-155409204D01*
X45192707Y-155409204D01*
X45192707Y-161230000D01*
X44562561Y-161230000D01*
G37*
G36*
X49604689Y-155310789D02*
G01*
X49899916Y-155393633D01*
X50167012Y-155531707D01*
X50405979Y-155725010D01*
X50616816Y-155973542D01*
X50680844Y-156068660D01*
X50824806Y-156330832D01*
X50944369Y-156626421D01*
X51039530Y-156955426D01*
X51098091Y-157242690D01*
X51141036Y-157551340D01*
X51168365Y-157881377D01*
X51180077Y-158232801D01*
X51180565Y-158323998D01*
X51172757Y-158678707D01*
X51149332Y-159012305D01*
X51110292Y-159324791D01*
X51055635Y-159616165D01*
X50965353Y-159950694D01*
X50850671Y-160252236D01*
X50711588Y-160520791D01*
X50680844Y-160570544D01*
X50479384Y-160837486D01*
X50249793Y-161049199D01*
X49992073Y-161205682D01*
X49706223Y-161306936D01*
X49392243Y-161352961D01*
X49281332Y-161356029D01*
X48959513Y-161328092D01*
X48665050Y-161244282D01*
X48397945Y-161104598D01*
X48261374Y-161002854D01*
X48038679Y-160778690D01*
X47866809Y-160536615D01*
X47719484Y-160254240D01*
X47610711Y-159974103D01*
X47522204Y-159664233D01*
X47463643Y-159375859D01*
X47421053Y-159066464D01*
X47394435Y-158736049D01*
X47383787Y-158384614D01*
X47383565Y-158323998D01*
X48056210Y-158323998D01*
X48063263Y-158645758D01*
X48084420Y-158955976D01*
X48119683Y-159254655D01*
X48169050Y-159541793D01*
X48244811Y-159841060D01*
X48357811Y-160133063D01*
X48517154Y-160405010D01*
X48550069Y-160448911D01*
X48779299Y-160658769D01*
X49062521Y-160771769D01*
X49281332Y-160793293D01*
X49580497Y-160752600D01*
X49851561Y-160615385D01*
X50016992Y-160448911D01*
X50181341Y-160186346D01*
X50299493Y-159902872D01*
X50380379Y-159611282D01*
X50395080Y-159541793D01*
X50449627Y-159217951D01*
X50483126Y-158917830D01*
X50502520Y-158606169D01*
X50507920Y-158323998D01*
X50500867Y-157998392D01*
X50479710Y-157685425D01*
X50444447Y-157385098D01*
X50395080Y-157097411D01*
X50319551Y-156798144D01*
X50207352Y-156506140D01*
X50049552Y-156234193D01*
X50016992Y-156190293D01*
X49789205Y-155980435D01*
X49503715Y-155867434D01*
X49281332Y-155845910D01*
X48986654Y-155886604D01*
X48716930Y-156023819D01*
X48550069Y-156190293D01*
X48384052Y-156452857D01*
X48264983Y-156736331D01*
X48183762Y-157027922D01*
X48169050Y-157097411D01*
X48114504Y-157421948D01*
X48081004Y-157723855D01*
X48061610Y-158038401D01*
X48056210Y-158323998D01*
X47383565Y-158323998D01*
X47389004Y-158024223D01*
X47409886Y-157684329D01*
X47446431Y-157366073D01*
X47498638Y-157069455D01*
X47579341Y-156750750D01*
X47606315Y-156665101D01*
X47713585Y-156384463D01*
X47860223Y-156101859D01*
X48032505Y-155859921D01*
X48256978Y-155636350D01*
X48511010Y-155465625D01*
X48791704Y-155350775D01*
X49099059Y-155291797D01*
X49281332Y-155283175D01*
X49604689Y-155310789D01*
G37*
G36*
X67155757Y-59172498D02*
G01*
X67869435Y-59172498D01*
X67869435Y-59683942D01*
X67155757Y-59683942D01*
X67155757Y-61230000D01*
X66543196Y-61230000D01*
X66543196Y-59683942D01*
X63921493Y-59683942D01*
X63921493Y-59280942D01*
X63967091Y-59172498D01*
X64551640Y-59172498D01*
X66543196Y-59172498D01*
X66543196Y-56122882D01*
X66334231Y-56354928D01*
X66140507Y-56587188D01*
X65980461Y-56791130D01*
X65803432Y-57027979D01*
X65629552Y-57271411D01*
X65458821Y-57521426D01*
X65425052Y-57572219D01*
X65261877Y-57827271D01*
X65107575Y-58083182D01*
X64962145Y-58339952D01*
X64934124Y-58391409D01*
X64788430Y-58668834D01*
X64657628Y-58936908D01*
X64551640Y-59172498D01*
X63967091Y-59172498D01*
X64040473Y-58997975D01*
X64173280Y-58719996D01*
X64312874Y-58452930D01*
X64346476Y-58391409D01*
X64505827Y-58109067D01*
X64657594Y-57853230D01*
X64818886Y-57592814D01*
X64967830Y-57361193D01*
X65145059Y-57096403D01*
X65327966Y-56835460D01*
X65516552Y-56578364D01*
X65710817Y-56325115D01*
X65909661Y-56078826D01*
X66110520Y-55844078D01*
X66313394Y-55620871D01*
X66518283Y-55409204D01*
X67155757Y-55409204D01*
X67155757Y-59172498D01*
G37*
G36*
X70955178Y-55310789D02*
G01*
X71250405Y-55393633D01*
X71517501Y-55531707D01*
X71756468Y-55725010D01*
X71967305Y-55973542D01*
X72031333Y-56068660D01*
X72175296Y-56330832D01*
X72294858Y-56626421D01*
X72390019Y-56955426D01*
X72448580Y-57242690D01*
X72491525Y-57551340D01*
X72518854Y-57881377D01*
X72530566Y-58232801D01*
X72531054Y-58323998D01*
X72523246Y-58678707D01*
X72499821Y-59012305D01*
X72460781Y-59324791D01*
X72406124Y-59616165D01*
X72315842Y-59950694D01*
X72201160Y-60252236D01*
X72062077Y-60520791D01*
X72031333Y-60570544D01*
X71829873Y-60837486D01*
X71600282Y-61049199D01*
X71342562Y-61205682D01*
X71056712Y-61306936D01*
X70742732Y-61352961D01*
X70631821Y-61356029D01*
X70310002Y-61328092D01*
X70015539Y-61244282D01*
X69748434Y-61104598D01*
X69611863Y-61002854D01*
X69389168Y-60778690D01*
X69217298Y-60536615D01*
X69069973Y-60254240D01*
X68961200Y-59974103D01*
X68872693Y-59664233D01*
X68814132Y-59375859D01*
X68771542Y-59066464D01*
X68744924Y-58736049D01*
X68734276Y-58384614D01*
X68734055Y-58323998D01*
X69406699Y-58323998D01*
X69413752Y-58645758D01*
X69434909Y-58955976D01*
X69470172Y-59254655D01*
X69519540Y-59541793D01*
X69595300Y-59841060D01*
X69708300Y-60133063D01*
X69867643Y-60405010D01*
X69900558Y-60448911D01*
X70129788Y-60658769D01*
X70413010Y-60771769D01*
X70631821Y-60793293D01*
X70930986Y-60752600D01*
X71202050Y-60615385D01*
X71367481Y-60448911D01*
X71531830Y-60186346D01*
X71649982Y-59902872D01*
X71730868Y-59611282D01*
X71745569Y-59541793D01*
X71800116Y-59217951D01*
X71833615Y-58917830D01*
X71853009Y-58606169D01*
X71858409Y-58323998D01*
X71851357Y-57998392D01*
X71830199Y-57685425D01*
X71794936Y-57385098D01*
X71745569Y-57097411D01*
X71670041Y-56798144D01*
X71557841Y-56506140D01*
X71400042Y-56234193D01*
X71367481Y-56190293D01*
X71139694Y-55980435D01*
X70854205Y-55867434D01*
X70631821Y-55845910D01*
X70337143Y-55886604D01*
X70067419Y-56023819D01*
X69900558Y-56190293D01*
X69734541Y-56452857D01*
X69615473Y-56736331D01*
X69534251Y-57027922D01*
X69519540Y-57097411D01*
X69464993Y-57421948D01*
X69431493Y-57723855D01*
X69412099Y-58038401D01*
X69406699Y-58323998D01*
X68734055Y-58323998D01*
X68739493Y-58024223D01*
X68760375Y-57684329D01*
X68796920Y-57366073D01*
X68849127Y-57069455D01*
X68929830Y-56750750D01*
X68956804Y-56665101D01*
X69064074Y-56384463D01*
X69210712Y-56101859D01*
X69382994Y-55859921D01*
X69607467Y-55636350D01*
X69861499Y-55465625D01*
X70142193Y-55350775D01*
X70449548Y-55291797D01*
X70631821Y-55283175D01*
X70955178Y-55310789D01*
G37*
D14*
G36*
X67875785Y-171620539D02*
G01*
X67820769Y-171617734D01*
X67768348Y-171609319D01*
X67718521Y-171595294D01*
X67671289Y-171575659D01*
X67645464Y-171561921D01*
X67603092Y-171533597D01*
X67564881Y-171500131D01*
X67530830Y-171461523D01*
X67500941Y-171417772D01*
X67485729Y-171390462D01*
X67463174Y-171338722D01*
X67448250Y-171290597D01*
X67437397Y-171238985D01*
X67430613Y-171183887D01*
X67427900Y-171125303D01*
X67427843Y-171115200D01*
X67429364Y-171065660D01*
X67435203Y-171009423D01*
X67445421Y-170956690D01*
X67460018Y-170907460D01*
X67478995Y-170861733D01*
X67490125Y-170840183D01*
X67519384Y-170793410D01*
X67552663Y-170751826D01*
X67589963Y-170715432D01*
X67631283Y-170684226D01*
X67656699Y-170668725D01*
X67703367Y-170645789D01*
X67752115Y-170628486D01*
X67802944Y-170616817D01*
X67855852Y-170610782D01*
X67887020Y-170609862D01*
X67935902Y-170611190D01*
X67988091Y-170616182D01*
X68017201Y-170621097D01*
X68065934Y-170632421D01*
X68112212Y-170647720D01*
X68156930Y-170668185D01*
X68171074Y-170677029D01*
X68136148Y-170769353D01*
X68093447Y-170745503D01*
X68046629Y-170728480D01*
X68030391Y-170723923D01*
X67979088Y-170713207D01*
X67929466Y-170707729D01*
X67887020Y-170706338D01*
X67833512Y-170710009D01*
X67783173Y-170721021D01*
X67736002Y-170739375D01*
X67711165Y-170752744D01*
X67670026Y-170782265D01*
X67633988Y-170818896D01*
X67603051Y-170862636D01*
X67588067Y-170890009D01*
X67568192Y-170938155D01*
X67553995Y-170991736D01*
X67546231Y-171043077D01*
X67542815Y-171098579D01*
X67542638Y-171115200D01*
X67544508Y-171168166D01*
X67550118Y-171218070D01*
X67561109Y-171271353D01*
X67576984Y-171320636D01*
X67581716Y-171332332D01*
X67606869Y-171380941D01*
X67638088Y-171422904D01*
X67675373Y-171458221D01*
X67698709Y-171474970D01*
X67745334Y-171499292D01*
X67797833Y-171515654D01*
X67849430Y-171523515D01*
X67891172Y-171525284D01*
X67942158Y-171524035D01*
X67992071Y-171519487D01*
X68003768Y-171517713D01*
X68052831Y-171508005D01*
X68066050Y-171504279D01*
X68066050Y-171136205D01*
X68175471Y-171136205D01*
X68175471Y-171574377D01*
X68125344Y-171589871D01*
X68074608Y-171601876D01*
X68069714Y-171602953D01*
X68016772Y-171612227D01*
X67963170Y-171617637D01*
X67910787Y-171620110D01*
X67875785Y-171620539D01*
G37*
G36*
X68395045Y-171601000D02*
G01*
X68395045Y-170630867D01*
X68481996Y-170630867D01*
X68517501Y-170670089D01*
X68550395Y-170708244D01*
X68584177Y-170749103D01*
X68599476Y-170768131D01*
X68630297Y-170806997D01*
X68661209Y-170846655D01*
X68692212Y-170887108D01*
X68723308Y-170928355D01*
X68754235Y-170970044D01*
X68784735Y-171011825D01*
X68814807Y-171053697D01*
X68844452Y-171095661D01*
X68873303Y-171137228D01*
X68900994Y-171177910D01*
X68930760Y-171222618D01*
X68952896Y-171256617D01*
X68979744Y-171298677D01*
X69006811Y-171342555D01*
X69033224Y-171387349D01*
X69037648Y-171395103D01*
X69037648Y-170630867D01*
X69145359Y-170630867D01*
X69145359Y-171601000D01*
X69054501Y-171601000D01*
X69030171Y-171557992D01*
X69004297Y-171514486D01*
X68977951Y-171471742D01*
X68971703Y-171461781D01*
X68942609Y-171415690D01*
X68915418Y-171373455D01*
X68886975Y-171330029D01*
X68861061Y-171291055D01*
X68830790Y-171245870D01*
X68800061Y-171200685D01*
X68768874Y-171155501D01*
X68737229Y-171110316D01*
X68705630Y-171065848D01*
X68674337Y-171022816D01*
X68643349Y-170981218D01*
X68612666Y-170941055D01*
X68579403Y-170898242D01*
X68548034Y-170858829D01*
X68515400Y-170819025D01*
X68503001Y-170804279D01*
X68503001Y-171601000D01*
X68395045Y-171601000D01*
G37*
G36*
X69696178Y-170624216D02*
G01*
X69751471Y-170629909D01*
X69804118Y-170639397D01*
X69854121Y-170652681D01*
X69901480Y-170669760D01*
X69916678Y-170676296D01*
X69966845Y-170702553D01*
X70011987Y-170734092D01*
X70052103Y-170770914D01*
X70087194Y-170813019D01*
X70104989Y-170839450D01*
X70131446Y-170889962D01*
X70148952Y-170937629D01*
X70161683Y-170989332D01*
X70169640Y-171045071D01*
X70172624Y-171094603D01*
X70172889Y-171115200D01*
X70171231Y-171165449D01*
X70164866Y-171222190D01*
X70153726Y-171275049D01*
X70137812Y-171324028D01*
X70117124Y-171369125D01*
X70104989Y-171390218D01*
X70072771Y-171435662D01*
X70035526Y-171475823D01*
X69993256Y-171510702D01*
X69945961Y-171540298D01*
X69916678Y-171554838D01*
X69870150Y-171573348D01*
X69820874Y-171588028D01*
X69768850Y-171598879D01*
X69714079Y-171605900D01*
X69656559Y-171609091D01*
X69636776Y-171609304D01*
X69587781Y-171608377D01*
X69536448Y-171605595D01*
X69511968Y-171603686D01*
X69460883Y-171597869D01*
X69411008Y-171588359D01*
X69394487Y-171584147D01*
X69394487Y-170726122D01*
X69503663Y-170726122D01*
X69503663Y-171505745D01*
X69545673Y-171511362D01*
X69597305Y-171514829D01*
X69648011Y-171515515D01*
X69697531Y-171513843D01*
X69754966Y-171507052D01*
X69807440Y-171495038D01*
X69854953Y-171477800D01*
X69905420Y-171450220D01*
X69948743Y-171415118D01*
X69955268Y-171408536D01*
X69990213Y-171365554D01*
X70017928Y-171317025D01*
X70038413Y-171262949D01*
X70049961Y-171213649D01*
X70056488Y-171160496D01*
X70058095Y-171115200D01*
X70055596Y-171058984D01*
X70048101Y-171006656D01*
X70035608Y-170958215D01*
X70014022Y-170905218D01*
X69985239Y-170857820D01*
X69955757Y-170822598D01*
X69913874Y-170786408D01*
X69864796Y-170757705D01*
X69818400Y-170739506D01*
X69767008Y-170726507D01*
X69710618Y-170718708D01*
X69649232Y-170716108D01*
X69599391Y-170716833D01*
X69549279Y-170720234D01*
X69547139Y-170720504D01*
X69503663Y-170726122D01*
X69394487Y-170726122D01*
X69394487Y-170648941D01*
X69442599Y-170638209D01*
X69492298Y-170630838D01*
X69512700Y-170628669D01*
X69561610Y-170624799D01*
X69612115Y-170622622D01*
X69638241Y-170622318D01*
X69696178Y-170624216D01*
G37*
D16*
%TO.C,D1*%
X55195000Y-42250000D02*
G75*
G02*
X55095000Y-42250000I-50000J0D01*
G01*
X55095000Y-42250000D02*
G75*
G02*
X55195000Y-42250000I50000J0D01*
G01*
%TO.C,D2*%
X57375000Y-44250000D02*
G75*
G02*
X57275000Y-44250000I-50000J0D01*
G01*
X57275000Y-44250000D02*
G75*
G02*
X57375000Y-44250000I50000J0D01*
G01*
D17*
%TO.C,C10*%
X69912164Y-191890000D02*
X70127836Y-191890000D01*
X69912164Y-192610000D02*
X70127836Y-192610000D01*
%TO.C,R13*%
X65370000Y-182403641D02*
X65370000Y-182096359D01*
X66130000Y-182403641D02*
X66130000Y-182096359D01*
D16*
%TO.C,D50*%
X57375000Y-126250000D02*
G75*
G02*
X57275000Y-126250000I-50000J0D01*
G01*
X57275000Y-126250000D02*
G75*
G02*
X57375000Y-126250000I50000J0D01*
G01*
%TO.C,D16*%
X55195000Y-114250000D02*
G75*
G02*
X55095000Y-114250000I-50000J0D01*
G01*
X55095000Y-114250000D02*
G75*
G02*
X55195000Y-114250000I50000J0D01*
G01*
%TO.C,D8*%
X57375000Y-136250000D02*
G75*
G02*
X57275000Y-136250000I-50000J0D01*
G01*
X57275000Y-136250000D02*
G75*
G02*
X57375000Y-136250000I50000J0D01*
G01*
D17*
%TO.C,R9*%
X57870000Y-216903641D02*
X57870000Y-216596359D01*
X58630000Y-216903641D02*
X58630000Y-216596359D01*
D16*
%TO.C,D85*%
X57375000Y-216250000D02*
G75*
G02*
X57275000Y-216250000I-50000J0D01*
G01*
X57275000Y-216250000D02*
G75*
G02*
X57375000Y-216250000I50000J0D01*
G01*
D17*
%TO.C,C14*%
X67900000Y-150537836D02*
X67900000Y-150322164D01*
X68620000Y-150537836D02*
X68620000Y-150322164D01*
%TO.C,C8*%
X67440000Y-196492164D02*
X67440000Y-196707836D01*
X68160000Y-196492164D02*
X68160000Y-196707836D01*
D16*
%TO.C,D25*%
X57375000Y-52250000D02*
G75*
G02*
X57275000Y-52250000I-50000J0D01*
G01*
X57275000Y-52250000D02*
G75*
G02*
X57375000Y-52250000I50000J0D01*
G01*
D17*
%TO.C,C9*%
X67390000Y-186857836D02*
X67390000Y-186642164D01*
X68110000Y-186857836D02*
X68110000Y-186642164D01*
%TO.C,C2*%
X63142164Y-194890000D02*
X63357836Y-194890000D01*
X63142164Y-195610000D02*
X63357836Y-195610000D01*
%TO.C,C7*%
X66410000Y-186857836D02*
X66410000Y-186642164D01*
X67130000Y-186857836D02*
X67130000Y-186642164D01*
%TO.C,Y1*%
X58400000Y-190600000D02*
X58400000Y-192900000D01*
X58400000Y-192900000D02*
X61100000Y-192900000D01*
D16*
%TO.C,D22*%
X55195000Y-158250000D02*
G75*
G02*
X55095000Y-158250000I-50000J0D01*
G01*
X55095000Y-158250000D02*
G75*
G02*
X55195000Y-158250000I50000J0D01*
G01*
%TO.C,D38*%
X57375000Y-122250000D02*
G75*
G02*
X57275000Y-122250000I-50000J0D01*
G01*
X57275000Y-122250000D02*
G75*
G02*
X57375000Y-122250000I50000J0D01*
G01*
%TO.C,D51*%
X55195000Y-128250000D02*
G75*
G02*
X55095000Y-128250000I-50000J0D01*
G01*
X55095000Y-128250000D02*
G75*
G02*
X55195000Y-128250000I50000J0D01*
G01*
%TO.C,D37*%
X57375000Y-92250000D02*
G75*
G02*
X57275000Y-92250000I-50000J0D01*
G01*
X57275000Y-92250000D02*
G75*
G02*
X57375000Y-92250000I50000J0D01*
G01*
D17*
%TO.C,R15*%
X71370000Y-196596359D02*
X71370000Y-196903641D01*
X72130000Y-196596359D02*
X72130000Y-196903641D01*
D16*
%TO.C,D15*%
X57375000Y-84250000D02*
G75*
G02*
X57275000Y-84250000I-50000J0D01*
G01*
X57275000Y-84250000D02*
G75*
G02*
X57375000Y-84250000I50000J0D01*
G01*
%TO.C,D54*%
X55195000Y-170250000D02*
G75*
G02*
X55095000Y-170250000I-50000J0D01*
G01*
X55095000Y-170250000D02*
G75*
G02*
X55195000Y-170250000I50000J0D01*
G01*
D17*
%TO.C,RV1*%
X63320000Y-215223859D02*
X63320000Y-215531141D01*
X64080000Y-215223859D02*
X64080000Y-215531141D01*
%TO.C,C4*%
X66390000Y-182357836D02*
X66390000Y-182142164D01*
X67110000Y-182357836D02*
X67110000Y-182142164D01*
%TO.C,C15*%
X62250000Y-150059420D02*
X62250000Y-150340580D01*
X63270000Y-150059420D02*
X63270000Y-150340580D01*
D16*
%TO.C,D86*%
X55195000Y-202250000D02*
G75*
G02*
X55095000Y-202250000I-50000J0D01*
G01*
X55095000Y-202250000D02*
G75*
G02*
X55195000Y-202250000I50000J0D01*
G01*
%TO.C,D62*%
X55195000Y-206250000D02*
G75*
G02*
X55095000Y-206250000I-50000J0D01*
G01*
X55095000Y-206250000D02*
G75*
G02*
X55195000Y-206250000I50000J0D01*
G01*
D17*
%TO.C,FB1*%
X60370000Y-194903641D02*
X60370000Y-194596359D01*
X61130000Y-194903641D02*
X61130000Y-194596359D01*
D16*
%TO.C,D27*%
X57375000Y-88250000D02*
G75*
G02*
X57275000Y-88250000I-50000J0D01*
G01*
X57275000Y-88250000D02*
G75*
G02*
X57375000Y-88250000I50000J0D01*
G01*
%TO.C,D45*%
X57375000Y-168250000D02*
G75*
G02*
X57275000Y-168250000I-50000J0D01*
G01*
X57275000Y-168250000D02*
G75*
G02*
X57375000Y-168250000I50000J0D01*
G01*
%TO.C,D34*%
X55195000Y-54250000D02*
G75*
G02*
X55095000Y-54250000I-50000J0D01*
G01*
X55095000Y-54250000D02*
G75*
G02*
X55195000Y-54250000I50000J0D01*
G01*
D17*
%TO.C,C18*%
X62359420Y-205490000D02*
X62640580Y-205490000D01*
X62359420Y-206510000D02*
X62640580Y-206510000D01*
D16*
%TO.C,D40*%
X55195000Y-146250000D02*
G75*
G02*
X55095000Y-146250000I-50000J0D01*
G01*
X55095000Y-146250000D02*
G75*
G02*
X55195000Y-146250000I50000J0D01*
G01*
%TO.C,D48*%
X55195000Y-94250000D02*
G75*
G02*
X55095000Y-94250000I-50000J0D01*
G01*
X55095000Y-94250000D02*
G75*
G02*
X55195000Y-94250000I50000J0D01*
G01*
%TO.C,D87*%
X57375000Y-204250000D02*
G75*
G02*
X57275000Y-204250000I-50000J0D01*
G01*
X57275000Y-204250000D02*
G75*
G02*
X57375000Y-204250000I50000J0D01*
G01*
%TO.C,D33*%
X57375000Y-164250000D02*
G75*
G02*
X57275000Y-164250000I-50000J0D01*
G01*
X57275000Y-164250000D02*
G75*
G02*
X57375000Y-164250000I50000J0D01*
G01*
%TO.C,D41*%
X57375000Y-148250000D02*
G75*
G02*
X57275000Y-148250000I-50000J0D01*
G01*
X57275000Y-148250000D02*
G75*
G02*
X57375000Y-148250000I50000J0D01*
G01*
D17*
%TO.C,R6*%
X68615190Y-217841549D02*
X68615190Y-218148831D01*
X69375190Y-217841549D02*
X69375190Y-218148831D01*
D16*
%TO.C,D20*%
X55195000Y-154250000D02*
G75*
G02*
X55095000Y-154250000I-50000J0D01*
G01*
X55095000Y-154250000D02*
G75*
G02*
X55195000Y-154250000I50000J0D01*
G01*
%TO.C,D30*%
X55195000Y-142250000D02*
G75*
G02*
X55095000Y-142250000I-50000J0D01*
G01*
X55095000Y-142250000D02*
G75*
G02*
X55195000Y-142250000I50000J0D01*
G01*
%TO.C,D11*%
X64000000Y-145940000D02*
G75*
G02*
X63900000Y-145940000I-50000J0D01*
G01*
X63900000Y-145940000D02*
G75*
G02*
X64000000Y-145940000I50000J0D01*
G01*
%TO.C,D26*%
X55195000Y-86250000D02*
G75*
G02*
X55095000Y-86250000I-50000J0D01*
G01*
X55095000Y-86250000D02*
G75*
G02*
X55195000Y-86250000I50000J0D01*
G01*
%TO.C,D60*%
X57375000Y-130250000D02*
G75*
G02*
X57275000Y-130250000I-50000J0D01*
G01*
X57275000Y-130250000D02*
G75*
G02*
X57375000Y-130250000I50000J0D01*
G01*
D17*
%TO.C,R7*%
X57870000Y-204903641D02*
X57870000Y-204596359D01*
X58630000Y-204903641D02*
X58630000Y-204596359D01*
%TO.C,R18*%
X70653641Y-155420000D02*
X70346359Y-155420000D01*
X70653641Y-156180000D02*
X70346359Y-156180000D01*
%TO.C,R11*%
X61120000Y-174653641D02*
X61120000Y-174346359D01*
X61880000Y-174653641D02*
X61880000Y-174346359D01*
%TO.C,U2*%
X61140000Y-211137500D02*
X61140000Y-210337500D01*
X61140000Y-211137500D02*
X61140000Y-211937500D01*
X64260000Y-211137500D02*
X64260000Y-210337500D01*
X64260000Y-211137500D02*
X64260000Y-211937500D01*
D16*
%TO.C,D49*%
X57375000Y-96250000D02*
G75*
G02*
X57275000Y-96250000I-50000J0D01*
G01*
X57275000Y-96250000D02*
G75*
G02*
X57375000Y-96250000I50000J0D01*
G01*
D17*
%TO.C,C16*%
X69957836Y-208240000D02*
X69742164Y-208240000D01*
X69957836Y-208960000D02*
X69742164Y-208960000D01*
D16*
%TO.C,D19*%
X57375000Y-140250000D02*
G75*
G02*
X57275000Y-140250000I-50000J0D01*
G01*
X57275000Y-140250000D02*
G75*
G02*
X57375000Y-140250000I50000J0D01*
G01*
%TO.C,D81*%
X57375000Y-108250000D02*
G75*
G02*
X57275000Y-108250000I-50000J0D01*
G01*
X57275000Y-108250000D02*
G75*
G02*
X57375000Y-108250000I50000J0D01*
G01*
D17*
%TO.C,R14*%
X53403641Y-216870000D02*
X53096359Y-216870000D01*
X53403641Y-217630000D02*
X53096359Y-217630000D01*
%TO.C,C1*%
X61390000Y-194642164D02*
X61390000Y-194857836D01*
X62110000Y-194642164D02*
X62110000Y-194857836D01*
D16*
%TO.C,D55*%
X57375000Y-172250000D02*
G75*
G02*
X57275000Y-172250000I-50000J0D01*
G01*
X57275000Y-172250000D02*
G75*
G02*
X57375000Y-172250000I50000J0D01*
G01*
D17*
%TO.C,R5*%
X67615190Y-217831549D02*
X67615190Y-218138831D01*
X68375190Y-217831549D02*
X68375190Y-218138831D01*
D16*
%TO.C,D39*%
X55195000Y-124250000D02*
G75*
G02*
X55095000Y-124250000I-50000J0D01*
G01*
X55095000Y-124250000D02*
G75*
G02*
X55195000Y-124250000I50000J0D01*
G01*
D17*
%TO.C,SW3*%
X60450000Y-156450000D02*
X60450000Y-160950000D01*
X62950000Y-162200000D02*
X64450000Y-162200000D01*
X64450000Y-155200000D02*
X62950000Y-155200000D01*
X66950000Y-160950000D02*
X66950000Y-156450000D01*
D16*
%TO.C,D74*%
X55195000Y-198250000D02*
G75*
G02*
X55095000Y-198250000I-50000J0D01*
G01*
X55095000Y-198250000D02*
G75*
G02*
X55195000Y-198250000I50000J0D01*
G01*
D17*
%TO.C,J4*%
X60750000Y-200500000D02*
X61550000Y-200500000D01*
X60750000Y-200700000D02*
X60750000Y-200500000D01*
X60750000Y-203500000D02*
X60750000Y-203300000D01*
X61550000Y-200500000D02*
X61550000Y-200000000D01*
X61550000Y-203500000D02*
X60750000Y-203500000D01*
X62950000Y-200500000D02*
X62950000Y-200000000D01*
X62950000Y-200500000D02*
X63550000Y-200500000D01*
X63550000Y-200500000D02*
X63750000Y-200700000D01*
X63750000Y-203300000D02*
X63750000Y-203500000D01*
X63750000Y-203500000D02*
X62950000Y-203500000D01*
D16*
%TO.C,D29*%
X55195000Y-120250000D02*
G75*
G02*
X55095000Y-120250000I-50000J0D01*
G01*
X55095000Y-120250000D02*
G75*
G02*
X55195000Y-120250000I50000J0D01*
G01*
%TO.C,D9*%
X55195000Y-150250000D02*
G75*
G02*
X55095000Y-150250000I-50000J0D01*
G01*
X55095000Y-150250000D02*
G75*
G02*
X55195000Y-150250000I50000J0D01*
G01*
%TO.C,D80*%
X55195000Y-106250000D02*
G75*
G02*
X55095000Y-106250000I-50000J0D01*
G01*
X55095000Y-106250000D02*
G75*
G02*
X55195000Y-106250000I50000J0D01*
G01*
%TO.C,D90*%
X55195000Y-74250000D02*
G75*
G02*
X55095000Y-74250000I-50000J0D01*
G01*
X55095000Y-74250000D02*
G75*
G02*
X55195000Y-74250000I50000J0D01*
G01*
D17*
%TO.C,C3*%
X64390000Y-196107836D02*
X64390000Y-195892164D01*
X65110000Y-196107836D02*
X65110000Y-195892164D01*
%TO.C,C6*%
X59390000Y-194127836D02*
X59390000Y-193912164D01*
X60110000Y-194127836D02*
X60110000Y-193912164D01*
D16*
%TO.C,D32*%
X55195000Y-162250000D02*
G75*
G02*
X55095000Y-162250000I-50000J0D01*
G01*
X55095000Y-162250000D02*
G75*
G02*
X55195000Y-162250000I50000J0D01*
G01*
%TO.C,D89*%
X57375000Y-184250000D02*
G75*
G02*
X57275000Y-184250000I-50000J0D01*
G01*
X57275000Y-184250000D02*
G75*
G02*
X57375000Y-184250000I50000J0D01*
G01*
%TO.C,D53*%
X57375000Y-192250000D02*
G75*
G02*
X57275000Y-192250000I-50000J0D01*
G01*
X57275000Y-192250000D02*
G75*
G02*
X57375000Y-192250000I50000J0D01*
G01*
%TO.C,D31*%
X57375000Y-144250000D02*
G75*
G02*
X57275000Y-144250000I-50000J0D01*
G01*
X57275000Y-144250000D02*
G75*
G02*
X57375000Y-144250000I50000J0D01*
G01*
%TO.C,D68*%
X55195000Y-66250000D02*
G75*
G02*
X55095000Y-66250000I-50000J0D01*
G01*
X55095000Y-66250000D02*
G75*
G02*
X55195000Y-66250000I50000J0D01*
G01*
D17*
%TO.C,C5*%
X59872164Y-189390000D02*
X60087836Y-189390000D01*
X59872164Y-190110000D02*
X60087836Y-190110000D01*
D16*
%TO.C,D42*%
X55195000Y-186250000D02*
G75*
G02*
X55095000Y-186250000I-50000J0D01*
G01*
X55095000Y-186250000D02*
G75*
G02*
X55195000Y-186250000I50000J0D01*
G01*
%TO.C,D75*%
X57375000Y-200250000D02*
G75*
G02*
X57275000Y-200250000I-50000J0D01*
G01*
X57275000Y-200250000D02*
G75*
G02*
X57375000Y-200250000I50000J0D01*
G01*
D17*
%TO.C,R16*%
X68880000Y-150563641D02*
X68880000Y-150256359D01*
X69640000Y-150563641D02*
X69640000Y-150256359D01*
D16*
%TO.C,D13*%
X57375000Y-48250000D02*
G75*
G02*
X57275000Y-48250000I-50000J0D01*
G01*
X57275000Y-48250000D02*
G75*
G02*
X57375000Y-48250000I50000J0D01*
G01*
D17*
%TO.C,C12*%
X62307836Y-208140000D02*
X62092164Y-208140000D01*
X62307836Y-208860000D02*
X62092164Y-208860000D01*
%TO.C,U4*%
X65647500Y-148400000D02*
X64847500Y-148400000D01*
X65647500Y-148400000D02*
X66447500Y-148400000D01*
X65647500Y-151520000D02*
X64847500Y-151520000D01*
X65647500Y-151520000D02*
X66447500Y-151520000D01*
D16*
%TO.C,D6*%
X57375000Y-112250000D02*
G75*
G02*
X57275000Y-112250000I-50000J0D01*
G01*
X57275000Y-112250000D02*
G75*
G02*
X57375000Y-112250000I50000J0D01*
G01*
D17*
%TO.C,R12*%
X57870000Y-220893641D02*
X57870000Y-220586359D01*
X58630000Y-220893641D02*
X58630000Y-220586359D01*
%TO.C,SW1*%
X60450000Y-166050000D02*
X60450000Y-170550000D01*
X62950000Y-171800000D02*
X64450000Y-171800000D01*
X64450000Y-164800000D02*
X62950000Y-164800000D01*
X66950000Y-170550000D02*
X66950000Y-166050000D01*
D16*
%TO.C,D91*%
X57375000Y-76250000D02*
G75*
G02*
X57275000Y-76250000I-50000J0D01*
G01*
X57275000Y-76250000D02*
G75*
G02*
X57375000Y-76250000I50000J0D01*
G01*
%TO.C,D46*%
X55195000Y-58250000D02*
G75*
G02*
X55095000Y-58250000I-50000J0D01*
G01*
X55095000Y-58250000D02*
G75*
G02*
X55195000Y-58250000I50000J0D01*
G01*
%TO.C,D14*%
X55195000Y-82250000D02*
G75*
G02*
X55095000Y-82250000I-50000J0D01*
G01*
X55095000Y-82250000D02*
G75*
G02*
X55195000Y-82250000I50000J0D01*
G01*
%TO.C,D82*%
X55195000Y-218250000D02*
G75*
G02*
X55095000Y-218250000I-50000J0D01*
G01*
X55095000Y-218250000D02*
G75*
G02*
X55195000Y-218250000I50000J0D01*
G01*
%TO.C,D72*%
X55195000Y-210250000D02*
G75*
G02*
X55095000Y-210250000I-50000J0D01*
G01*
X55095000Y-210250000D02*
G75*
G02*
X55195000Y-210250000I50000J0D01*
G01*
%TO.C,D36*%
X55195000Y-90250000D02*
G75*
G02*
X55095000Y-90250000I-50000J0D01*
G01*
X55095000Y-90250000D02*
G75*
G02*
X55195000Y-90250000I50000J0D01*
G01*
%TO.C,D59*%
X57375000Y-100250000D02*
G75*
G02*
X57275000Y-100250000I-50000J0D01*
G01*
X57275000Y-100250000D02*
G75*
G02*
X57375000Y-100250000I50000J0D01*
G01*
%TO.C,D52*%
X55195000Y-190250000D02*
G75*
G02*
X55095000Y-190250000I-50000J0D01*
G01*
X55095000Y-190250000D02*
G75*
G02*
X55195000Y-190250000I50000J0D01*
G01*
%TO.C,D24*%
X55195000Y-50250000D02*
G75*
G02*
X55095000Y-50250000I-50000J0D01*
G01*
X55095000Y-50250000D02*
G75*
G02*
X55195000Y-50250000I50000J0D01*
G01*
%TO.C,D56*%
X55195000Y-62250000D02*
G75*
G02*
X55095000Y-62250000I-50000J0D01*
G01*
X55095000Y-62250000D02*
G75*
G02*
X55195000Y-62250000I50000J0D01*
G01*
D17*
%TO.C,R8*%
X53096359Y-188870000D02*
X53403641Y-188870000D01*
X53096359Y-189630000D02*
X53403641Y-189630000D01*
D16*
%TO.C,D61*%
X55195000Y-132250000D02*
G75*
G02*
X55095000Y-132250000I-50000J0D01*
G01*
X55095000Y-132250000D02*
G75*
G02*
X55195000Y-132250000I50000J0D01*
G01*
%TO.C,D35*%
X57375000Y-56250000D02*
G75*
G02*
X57275000Y-56250000I-50000J0D01*
G01*
X57275000Y-56250000D02*
G75*
G02*
X57375000Y-56250000I50000J0D01*
G01*
%TO.C,D17*%
X57375000Y-116250000D02*
G75*
G02*
X57275000Y-116250000I-50000J0D01*
G01*
X57275000Y-116250000D02*
G75*
G02*
X57375000Y-116250000I50000J0D01*
G01*
%TO.C,D4*%
X57375000Y-80250000D02*
G75*
G02*
X57275000Y-80250000I-50000J0D01*
G01*
X57275000Y-80250000D02*
G75*
G02*
X57375000Y-80250000I50000J0D01*
G01*
D17*
%TO.C,R10*%
X53403641Y-208870000D02*
X53096359Y-208870000D01*
X53403641Y-209630000D02*
X53096359Y-209630000D01*
D16*
%TO.C,D18*%
X55195000Y-138250000D02*
G75*
G02*
X55095000Y-138250000I-50000J0D01*
G01*
X55095000Y-138250000D02*
G75*
G02*
X55195000Y-138250000I50000J0D01*
G01*
%TO.C,D76*%
X55195000Y-178250000D02*
G75*
G02*
X55095000Y-178250000I-50000J0D01*
G01*
X55095000Y-178250000D02*
G75*
G02*
X55195000Y-178250000I50000J0D01*
G01*
%TO.C,D44*%
X55195000Y-166250000D02*
G75*
G02*
X55095000Y-166250000I-50000J0D01*
G01*
X55095000Y-166250000D02*
G75*
G02*
X55195000Y-166250000I50000J0D01*
G01*
%TO.C,D69*%
X57375000Y-68250000D02*
G75*
G02*
X57275000Y-68250000I-50000J0D01*
G01*
X57275000Y-68250000D02*
G75*
G02*
X57375000Y-68250000I50000J0D01*
G01*
D17*
%TO.C,C17*%
X69340000Y-196707836D02*
X69340000Y-196492164D01*
X70060000Y-196707836D02*
X70060000Y-196492164D01*
D16*
%TO.C,D71*%
X57375000Y-104250000D02*
G75*
G02*
X57275000Y-104250000I-50000J0D01*
G01*
X57275000Y-104250000D02*
G75*
G02*
X57375000Y-104250000I50000J0D01*
G01*
%TO.C,D5*%
X55195000Y-110250000D02*
G75*
G02*
X55095000Y-110250000I-50000J0D01*
G01*
X55095000Y-110250000D02*
G75*
G02*
X55195000Y-110250000I50000J0D01*
G01*
%TO.C,D43*%
X57375000Y-188250000D02*
G75*
G02*
X57275000Y-188250000I-50000J0D01*
G01*
X57275000Y-188250000D02*
G75*
G02*
X57375000Y-188250000I50000J0D01*
G01*
%TO.C,D21*%
X57375000Y-156250000D02*
G75*
G02*
X57275000Y-156250000I-50000J0D01*
G01*
X57275000Y-156250000D02*
G75*
G02*
X57375000Y-156250000I50000J0D01*
G01*
%TO.C,D12*%
X55195000Y-46250000D02*
G75*
G02*
X55095000Y-46250000I-50000J0D01*
G01*
X55095000Y-46250000D02*
G75*
G02*
X55195000Y-46250000I50000J0D01*
G01*
%TO.C,D67*%
X57375000Y-176250000D02*
G75*
G02*
X57275000Y-176250000I-50000J0D01*
G01*
X57275000Y-176250000D02*
G75*
G02*
X57375000Y-176250000I50000J0D01*
G01*
%TO.C,D83*%
X57375000Y-220250000D02*
G75*
G02*
X57275000Y-220250000I-50000J0D01*
G01*
X57275000Y-220250000D02*
G75*
G02*
X57375000Y-220250000I50000J0D01*
G01*
%TO.C,D84*%
X55195000Y-214250000D02*
G75*
G02*
X55095000Y-214250000I-50000J0D01*
G01*
X55095000Y-214250000D02*
G75*
G02*
X55195000Y-214250000I50000J0D01*
G01*
%TO.C,D47*%
X57375000Y-60250000D02*
G75*
G02*
X57275000Y-60250000I-50000J0D01*
G01*
X57275000Y-60250000D02*
G75*
G02*
X57375000Y-60250000I50000J0D01*
G01*
%TO.C,D77*%
X57375000Y-180250000D02*
G75*
G02*
X57275000Y-180250000I-50000J0D01*
G01*
X57275000Y-180250000D02*
G75*
G02*
X57375000Y-180250000I50000J0D01*
G01*
D17*
%TO.C,J2*%
X70070000Y-164920000D02*
X72730000Y-164920000D01*
X70070000Y-185280000D02*
X72730000Y-185280000D01*
X72730000Y-164920000D02*
X72730000Y-185280000D01*
%TO.C,R17*%
X64886359Y-146570000D02*
X65193641Y-146570000D01*
X64886359Y-147330000D02*
X65193641Y-147330000D01*
%TO.C,D93*%
X61350000Y-213790000D02*
X61350000Y-216450000D01*
X63050000Y-213790000D02*
X61350000Y-213790000D01*
X63050000Y-213790000D02*
X63050000Y-216450000D01*
%TO.C,C13*%
X65357836Y-197140000D02*
X65142164Y-197140000D01*
X65357836Y-197860000D02*
X65142164Y-197860000D01*
D16*
%TO.C,D10*%
X57375000Y-152250000D02*
G75*
G02*
X57275000Y-152250000I-50000J0D01*
G01*
X57275000Y-152250000D02*
G75*
G02*
X57375000Y-152250000I50000J0D01*
G01*
D17*
%TO.C,R2*%
X59403641Y-108870000D02*
X59096359Y-108870000D01*
X59403641Y-109630000D02*
X59096359Y-109630000D01*
%TO.C,L1*%
X63370000Y-196596359D02*
X63370000Y-196903641D01*
X64130000Y-196596359D02*
X64130000Y-196903641D01*
D16*
%TO.C,D65*%
X57375000Y-196250000D02*
G75*
G02*
X57275000Y-196250000I-50000J0D01*
G01*
X57275000Y-196250000D02*
G75*
G02*
X57375000Y-196250000I50000J0D01*
G01*
%TO.C,D88*%
X55195000Y-182250000D02*
G75*
G02*
X55095000Y-182250000I-50000J0D01*
G01*
X55095000Y-182250000D02*
G75*
G02*
X55195000Y-182250000I50000J0D01*
G01*
%TO.C,D58*%
X55195000Y-98250000D02*
G75*
G02*
X55095000Y-98250000I-50000J0D01*
G01*
X55095000Y-98250000D02*
G75*
G02*
X55195000Y-98250000I50000J0D01*
G01*
%TO.C,D70*%
X55195000Y-102250000D02*
G75*
G02*
X55095000Y-102250000I-50000J0D01*
G01*
X55095000Y-102250000D02*
G75*
G02*
X55195000Y-102250000I50000J0D01*
G01*
%TO.C,D57*%
X57375000Y-64250000D02*
G75*
G02*
X57275000Y-64250000I-50000J0D01*
G01*
X57275000Y-64250000D02*
G75*
G02*
X57375000Y-64250000I50000J0D01*
G01*
%TO.C,D66*%
X55195000Y-174250000D02*
G75*
G02*
X55095000Y-174250000I-50000J0D01*
G01*
X55095000Y-174250000D02*
G75*
G02*
X55195000Y-174250000I50000J0D01*
G01*
%TO.C,D73*%
X57375000Y-212250000D02*
G75*
G02*
X57275000Y-212250000I-50000J0D01*
G01*
X57275000Y-212250000D02*
G75*
G02*
X57375000Y-212250000I50000J0D01*
G01*
D17*
%TO.C,R4*%
X53096359Y-160620000D02*
X53403641Y-160620000D01*
X53096359Y-161380000D02*
X53403641Y-161380000D01*
D16*
%TO.C,D7*%
X55195000Y-134250000D02*
G75*
G02*
X55095000Y-134250000I-50000J0D01*
G01*
X55095000Y-134250000D02*
G75*
G02*
X55195000Y-134250000I50000J0D01*
G01*
%TO.C,D78*%
X55195000Y-70250000D02*
G75*
G02*
X55095000Y-70250000I-50000J0D01*
G01*
X55095000Y-70250000D02*
G75*
G02*
X55195000Y-70250000I50000J0D01*
G01*
D17*
%TO.C,R3*%
X57870000Y-184903641D02*
X57870000Y-184596359D01*
X58630000Y-184903641D02*
X58630000Y-184596359D01*
D16*
%TO.C,D79*%
X57375000Y-72250000D02*
G75*
G02*
X57275000Y-72250000I-50000J0D01*
G01*
X57275000Y-72250000D02*
G75*
G02*
X57375000Y-72250000I50000J0D01*
G01*
D17*
%TO.C,Q1*%
X70937500Y-156540000D02*
X70287500Y-156540000D01*
X70937500Y-156540000D02*
X71587500Y-156540000D01*
X70937500Y-159660000D02*
X70287500Y-159660000D01*
X70937500Y-159660000D02*
X71587500Y-159660000D01*
D16*
%TO.C,D64*%
X55195000Y-194250000D02*
G75*
G02*
X55095000Y-194250000I-50000J0D01*
G01*
X55095000Y-194250000D02*
G75*
G02*
X55195000Y-194250000I50000J0D01*
G01*
D17*
%TO.C,U1*%
X62952500Y-188640000D02*
X63427500Y-188640000D01*
X62952500Y-189115000D02*
X62952500Y-188640000D01*
X68172500Y-188640000D02*
X67697500Y-188640000D01*
X68172500Y-189115000D02*
X68172500Y-188640000D01*
X68172500Y-193385000D02*
X68172500Y-193860000D01*
X68172500Y-193860000D02*
X67697500Y-193860000D01*
D15*
X62962500Y-194000000D02*
G75*
G02*
X62662500Y-194000000I-150000J0D01*
G01*
X62662500Y-194000000D02*
G75*
G02*
X62962500Y-194000000I150000J0D01*
G01*
D16*
%TO.C,D23*%
X57375000Y-160250000D02*
G75*
G02*
X57275000Y-160250000I-50000J0D01*
G01*
X57275000Y-160250000D02*
G75*
G02*
X57375000Y-160250000I50000J0D01*
G01*
D17*
%TO.C,R19*%
X67820000Y-161256359D02*
X67820000Y-161563641D01*
X68580000Y-161256359D02*
X68580000Y-161563641D01*
%TO.C,C11*%
X60140000Y-212192164D02*
X60140000Y-212407836D01*
X60860000Y-212192164D02*
X60860000Y-212407836D01*
D16*
%TO.C,D28*%
X55195000Y-118250000D02*
G75*
G02*
X55095000Y-118250000I-50000J0D01*
G01*
X55095000Y-118250000D02*
G75*
G02*
X55195000Y-118250000I50000J0D01*
G01*
%TO.C,D63*%
X57375000Y-208250000D02*
G75*
G02*
X57275000Y-208250000I-50000J0D01*
G01*
X57275000Y-208250000D02*
G75*
G02*
X57375000Y-208250000I50000J0D01*
G01*
%TO.C,D3*%
X55195000Y-78250000D02*
G75*
G02*
X55095000Y-78250000I-50000J0D01*
G01*
X55095000Y-78250000D02*
G75*
G02*
X55195000Y-78250000I50000J0D01*
G01*
D17*
%TO.C,U3*%
X68740000Y-206200000D02*
X68740000Y-205550000D01*
X68740000Y-206200000D02*
X68740000Y-206850000D01*
X71860000Y-206200000D02*
X71860000Y-205550000D01*
X71860000Y-206200000D02*
X71860000Y-206850000D01*
%TO.C,R1*%
X59096359Y-76870000D02*
X59403641Y-76870000D01*
X59096359Y-77630000D02*
X59403641Y-77630000D01*
%TD*%
M02*
