%TF.GenerationSoftware,KiCad,Pcbnew,8.0.5-8.0.5-0~ubuntu24.04.1*%
%TF.CreationDate,2024-10-11T17:30:16+02:00*%
%TF.ProjectId,v_ggtermometer,76e46767-7465-4726-9d6f-6d657465722e,rev?*%
%TF.SameCoordinates,Original*%
%TF.FileFunction,Soldermask,Bot*%
%TF.FilePolarity,Negative*%
%FSLAX46Y46*%
G04 Gerber Fmt 4.6, Leading zero omitted, Abs format (unit mm)*
G04 Created by KiCad (PCBNEW 8.0.5-8.0.5-0~ubuntu24.04.1) date 2024-10-11 17:30:16*
%MOMM*%
%LPD*%
G01*
G04 APERTURE LIST*
G04 Aperture macros list*
%AMRoundRect*
0 Rectangle with rounded corners*
0 $1 Rounding radius*
0 $2 $3 $4 $5 $6 $7 $8 $9 X,Y pos of 4 corners*
0 Add a 4 corners polygon primitive as box body*
4,1,4,$2,$3,$4,$5,$6,$7,$8,$9,$2,$3,0*
0 Add four circle primitives for the rounded corners*
1,1,$1+$1,$2,$3*
1,1,$1+$1,$4,$5*
1,1,$1+$1,$6,$7*
1,1,$1+$1,$8,$9*
0 Add four rect primitives between the rounded corners*
20,1,$1+$1,$2,$3,$4,$5,0*
20,1,$1+$1,$4,$5,$6,$7,0*
20,1,$1+$1,$6,$7,$8,$9,0*
20,1,$1+$1,$8,$9,$2,$3,0*%
G04 Aperture macros list end*
%ADD10C,1.000000*%
%ADD11C,5.000000*%
%ADD12C,2.000000*%
%ADD13C,1.700000*%
%ADD14O,1.700000X1.700000*%
%ADD15R,1.700000X1.700000*%
%ADD16RoundRect,0.250000X0.600000X0.750000X-0.600000X0.750000X-0.600000X-0.750000X0.600000X-0.750000X0*%
%ADD17O,1.700000X2.000000*%
%ADD18C,2.500000*%
%ADD19C,0.650000*%
%ADD20R,1.240000X0.600000*%
%ADD21R,1.240000X0.300000*%
%ADD22O,1.800000X1.000000*%
%ADD23O,2.100000X1.000000*%
G04 APERTURE END LIST*
D10*
%TO.C,*%
X71900000Y-209900000D03*
%TD*%
D11*
%TO.C,REF\u002A\u002A*%
X69000000Y-127500000D03*
%TD*%
D10*
%TO.C,REF\u002A\u002A*%
X68700000Y-209900000D03*
%TD*%
D11*
%TO.C,REF\u002A\u002A*%
X69000000Y-87500000D03*
%TD*%
D10*
%TO.C,REF\u002A\u002A*%
X68700000Y-203400000D03*
%TD*%
D12*
%TO.C,SW3*%
X65950000Y-155450000D03*
X65950000Y-161950000D03*
X61450000Y-155450000D03*
X61450000Y-161950000D03*
%TD*%
%TO.C,SW1*%
X61450000Y-171550000D03*
X61450000Y-165050000D03*
X65950000Y-171550000D03*
X65950000Y-165050000D03*
%TD*%
D13*
%TO.C,J2*%
X71400000Y-166170000D03*
D14*
X71400000Y-168710000D03*
D15*
X71400000Y-171250000D03*
D14*
X71400000Y-173790000D03*
X71400000Y-176330000D03*
X71400000Y-178870000D03*
X71400000Y-181410000D03*
X71400000Y-183950000D03*
%TD*%
D10*
%TO.C,*%
X67200000Y-206700000D03*
%TD*%
%TO.C,REF\u002A\u002A*%
X71900000Y-203400000D03*
%TD*%
D16*
%TO.C,J8*%
X70250000Y-198975000D03*
D17*
X67750000Y-198975000D03*
%TD*%
D18*
%TO.C,BT1*%
X49250000Y-148500000D03*
X49250000Y-220500000D03*
%TD*%
D19*
%TO.C,J1*%
X66640190Y-213585190D03*
X66640190Y-219365190D03*
D20*
X65520190Y-213275190D03*
X65520190Y-214075190D03*
D21*
X65520190Y-215225190D03*
X65520190Y-216225190D03*
X65520190Y-216725190D03*
X65520190Y-217725190D03*
D20*
X65520190Y-218875190D03*
X65520190Y-219675190D03*
X65520190Y-219675190D03*
X65520190Y-218875190D03*
D21*
X65520190Y-218225190D03*
X65520190Y-217225190D03*
X65520190Y-215725190D03*
X65520190Y-214725190D03*
D20*
X65520190Y-214075190D03*
X65520190Y-213275190D03*
D22*
X70320190Y-212155190D03*
D23*
X66120190Y-212155190D03*
D22*
X70320190Y-220795190D03*
D23*
X66120190Y-220795190D03*
%TD*%
M02*
