%TF.GenerationSoftware,KiCad,Pcbnew,8.0.5-8.0.5-0~ubuntu24.04.1*%
%TF.CreationDate,2024-09-18T19:03:46+02:00*%
%TF.ProjectId,v_ggtermometer,76e46767-7465-4726-9d6f-6d657465722e,rev?*%
%TF.SameCoordinates,Original*%
%TF.FileFunction,Drillmap*%
%TF.FilePolarity,Positive*%
%FSLAX45Y45*%
G04 Gerber Fmt 4.5, Leading zero omitted, Abs format (unit mm)*
G04 Created by KiCad (PCBNEW 8.0.5-8.0.5-0~ubuntu24.04.1) date 2024-09-18 19:03:46*
%MOMM*%
%LPD*%
G01*
G04 APERTURE LIST*
%ADD10C,0.050000*%
%ADD11C,0.200000*%
%ADD12C,0.100000*%
%ADD13C,0.300000*%
G04 APERTURE END LIST*
D10*
X7375000Y-22300000D02*
G75*
G02*
X7150000Y-22525000I-225000J0D01*
G01*
X3875000Y-22300000D02*
X3875000Y-3650000D01*
X3875000Y-3650000D02*
G75*
G02*
X4100000Y-3425000I225000J0D01*
G01*
X4100000Y-22525000D02*
G75*
G02*
X3875000Y-22300000I0J225000D01*
G01*
X7150000Y-22525000D02*
X4100000Y-22525000D01*
X7150000Y-3425000D02*
G75*
G02*
X7375000Y-3650000I0J-225000D01*
G01*
X4100000Y-3425000D02*
X7150000Y-3425000D01*
X7375000Y-3650000D02*
X7375000Y-22300000D01*
D11*
D12*
X6631519Y-21326019D02*
X6696519Y-21391019D01*
X6696519Y-21326019D02*
X6631519Y-21391019D01*
X6631519Y-21904019D02*
X6696519Y-21969019D01*
X6696519Y-21904019D02*
X6631519Y-21969019D01*
X6770000Y-20670000D02*
G75*
G02*
X6670000Y-20670000I-50000J0D01*
G01*
X6670000Y-20670000D02*
G75*
G02*
X6770000Y-20670000I50000J0D01*
G01*
X6770000Y-20870000D02*
X6770000Y-20470000D01*
X6670000Y-20470000D02*
G75*
G02*
X6770000Y-20470000I50000J0D01*
G01*
X6670000Y-20470000D02*
X6670000Y-20870000D01*
X6670000Y-20870000D02*
G75*
G03*
X6770000Y-20870000I50000J0D01*
G01*
X6920000Y-20340000D02*
G75*
G02*
X6820000Y-20340000I-50000J0D01*
G01*
X6820000Y-20340000D02*
G75*
G02*
X6920000Y-20340000I50000J0D01*
G01*
X6820000Y-20390000D02*
X6920000Y-20390000D01*
X6920000Y-20290000D02*
G75*
G02*
X6920000Y-20390000I0J-50000D01*
G01*
X6920000Y-20290000D02*
X6820000Y-20290000D01*
X6820000Y-20290000D02*
G75*
G03*
X6820000Y-20390000I0J-50000D01*
G01*
X6920000Y-20990000D02*
G75*
G02*
X6820000Y-20990000I-50000J0D01*
G01*
X6820000Y-20990000D02*
G75*
G02*
X6920000Y-20990000I50000J0D01*
G01*
X6820000Y-21040000D02*
X6920000Y-21040000D01*
X6920000Y-20940000D02*
G75*
G02*
X6920000Y-21040000I0J-50000D01*
G01*
X6920000Y-20940000D02*
X6820000Y-20940000D01*
X6820000Y-20940000D02*
G75*
G03*
X6820000Y-21040000I0J-50000D01*
G01*
X7240000Y-20340000D02*
G75*
G02*
X7140000Y-20340000I-50000J0D01*
G01*
X7140000Y-20340000D02*
G75*
G02*
X7240000Y-20340000I50000J0D01*
G01*
X7140000Y-20390000D02*
X7240000Y-20390000D01*
X7240000Y-20290000D02*
G75*
G02*
X7240000Y-20390000I0J-50000D01*
G01*
X7240000Y-20290000D02*
X7140000Y-20290000D01*
X7140000Y-20290000D02*
G75*
G03*
X7140000Y-20390000I0J-50000D01*
G01*
X7240000Y-20990000D02*
G75*
G02*
X7140000Y-20990000I-50000J0D01*
G01*
X7140000Y-20990000D02*
G75*
G02*
X7240000Y-20990000I50000J0D01*
G01*
X7140000Y-21040000D02*
X7240000Y-21040000D01*
X7240000Y-20940000D02*
G75*
G02*
X7240000Y-21040000I0J-50000D01*
G01*
X7240000Y-20940000D02*
X7140000Y-20940000D01*
X7140000Y-20940000D02*
G75*
G03*
X7140000Y-21040000I0J-50000D01*
G01*
D13*
X6900000Y-8600000D02*
X6900000Y-8900000D01*
X6750000Y-8750000D02*
X7050000Y-8750000D01*
X6900000Y-12600000D02*
X6900000Y-12900000D01*
X6750000Y-12750000D02*
X7050000Y-12750000D01*
D11*
X4133277Y-22838984D02*
X4133277Y-22638984D01*
X4133277Y-22638984D02*
X4180896Y-22638984D01*
X4180896Y-22638984D02*
X4209467Y-22648508D01*
X4209467Y-22648508D02*
X4228515Y-22667555D01*
X4228515Y-22667555D02*
X4238039Y-22686603D01*
X4238039Y-22686603D02*
X4247563Y-22724698D01*
X4247563Y-22724698D02*
X4247563Y-22753269D01*
X4247563Y-22753269D02*
X4238039Y-22791365D01*
X4238039Y-22791365D02*
X4228515Y-22810412D01*
X4228515Y-22810412D02*
X4209467Y-22829460D01*
X4209467Y-22829460D02*
X4180896Y-22838984D01*
X4180896Y-22838984D02*
X4133277Y-22838984D01*
X4333277Y-22838984D02*
X4333277Y-22705650D01*
X4333277Y-22743746D02*
X4342801Y-22724698D01*
X4342801Y-22724698D02*
X4352324Y-22715174D01*
X4352324Y-22715174D02*
X4371372Y-22705650D01*
X4371372Y-22705650D02*
X4390420Y-22705650D01*
X4457086Y-22838984D02*
X4457086Y-22705650D01*
X4457086Y-22638984D02*
X4447563Y-22648508D01*
X4447563Y-22648508D02*
X4457086Y-22658031D01*
X4457086Y-22658031D02*
X4466610Y-22648508D01*
X4466610Y-22648508D02*
X4457086Y-22638984D01*
X4457086Y-22638984D02*
X4457086Y-22658031D01*
X4580896Y-22838984D02*
X4561848Y-22829460D01*
X4561848Y-22829460D02*
X4552324Y-22810412D01*
X4552324Y-22810412D02*
X4552324Y-22638984D01*
X4685658Y-22838984D02*
X4666610Y-22829460D01*
X4666610Y-22829460D02*
X4657086Y-22810412D01*
X4657086Y-22810412D02*
X4657086Y-22638984D01*
X4914229Y-22838984D02*
X4914229Y-22638984D01*
X4914229Y-22638984D02*
X4980896Y-22781841D01*
X4980896Y-22781841D02*
X5047563Y-22638984D01*
X5047563Y-22638984D02*
X5047563Y-22838984D01*
X5228515Y-22838984D02*
X5228515Y-22734222D01*
X5228515Y-22734222D02*
X5218991Y-22715174D01*
X5218991Y-22715174D02*
X5199944Y-22705650D01*
X5199944Y-22705650D02*
X5161848Y-22705650D01*
X5161848Y-22705650D02*
X5142801Y-22715174D01*
X5228515Y-22829460D02*
X5209467Y-22838984D01*
X5209467Y-22838984D02*
X5161848Y-22838984D01*
X5161848Y-22838984D02*
X5142801Y-22829460D01*
X5142801Y-22829460D02*
X5133277Y-22810412D01*
X5133277Y-22810412D02*
X5133277Y-22791365D01*
X5133277Y-22791365D02*
X5142801Y-22772317D01*
X5142801Y-22772317D02*
X5161848Y-22762793D01*
X5161848Y-22762793D02*
X5209467Y-22762793D01*
X5209467Y-22762793D02*
X5228515Y-22753269D01*
X5323753Y-22705650D02*
X5323753Y-22905650D01*
X5323753Y-22715174D02*
X5342801Y-22705650D01*
X5342801Y-22705650D02*
X5380896Y-22705650D01*
X5380896Y-22705650D02*
X5399944Y-22715174D01*
X5399944Y-22715174D02*
X5409467Y-22724698D01*
X5409467Y-22724698D02*
X5418991Y-22743746D01*
X5418991Y-22743746D02*
X5418991Y-22800888D01*
X5418991Y-22800888D02*
X5409467Y-22819936D01*
X5409467Y-22819936D02*
X5399944Y-22829460D01*
X5399944Y-22829460D02*
X5380896Y-22838984D01*
X5380896Y-22838984D02*
X5342801Y-22838984D01*
X5342801Y-22838984D02*
X5323753Y-22829460D01*
X5504705Y-22819936D02*
X5514229Y-22829460D01*
X5514229Y-22829460D02*
X5504705Y-22838984D01*
X5504705Y-22838984D02*
X5495182Y-22829460D01*
X5495182Y-22829460D02*
X5504705Y-22819936D01*
X5504705Y-22819936D02*
X5504705Y-22838984D01*
X5504705Y-22715174D02*
X5514229Y-22724698D01*
X5514229Y-22724698D02*
X5504705Y-22734222D01*
X5504705Y-22734222D02*
X5495182Y-22724698D01*
X5495182Y-22724698D02*
X5504705Y-22715174D01*
X5504705Y-22715174D02*
X5504705Y-22734222D01*
D12*
X3807500Y-23135000D02*
X3872500Y-23200000D01*
X3872500Y-23135000D02*
X3807500Y-23200000D01*
D11*
X4171372Y-23058984D02*
X4190420Y-23058984D01*
X4190420Y-23058984D02*
X4209467Y-23068508D01*
X4209467Y-23068508D02*
X4218991Y-23078031D01*
X4218991Y-23078031D02*
X4228515Y-23097079D01*
X4228515Y-23097079D02*
X4238039Y-23135174D01*
X4238039Y-23135174D02*
X4238039Y-23182793D01*
X4238039Y-23182793D02*
X4228515Y-23220888D01*
X4228515Y-23220888D02*
X4218991Y-23239936D01*
X4218991Y-23239936D02*
X4209467Y-23249460D01*
X4209467Y-23249460D02*
X4190420Y-23258984D01*
X4190420Y-23258984D02*
X4171372Y-23258984D01*
X4171372Y-23258984D02*
X4152324Y-23249460D01*
X4152324Y-23249460D02*
X4142801Y-23239936D01*
X4142801Y-23239936D02*
X4133277Y-23220888D01*
X4133277Y-23220888D02*
X4123753Y-23182793D01*
X4123753Y-23182793D02*
X4123753Y-23135174D01*
X4123753Y-23135174D02*
X4133277Y-23097079D01*
X4133277Y-23097079D02*
X4142801Y-23078031D01*
X4142801Y-23078031D02*
X4152324Y-23068508D01*
X4152324Y-23068508D02*
X4171372Y-23058984D01*
X4323753Y-23239936D02*
X4333277Y-23249460D01*
X4333277Y-23249460D02*
X4323753Y-23258984D01*
X4323753Y-23258984D02*
X4314229Y-23249460D01*
X4314229Y-23249460D02*
X4323753Y-23239936D01*
X4323753Y-23239936D02*
X4323753Y-23258984D01*
X4504705Y-23058984D02*
X4466610Y-23058984D01*
X4466610Y-23058984D02*
X4447563Y-23068508D01*
X4447563Y-23068508D02*
X4438039Y-23078031D01*
X4438039Y-23078031D02*
X4418991Y-23106603D01*
X4418991Y-23106603D02*
X4409467Y-23144698D01*
X4409467Y-23144698D02*
X4409467Y-23220888D01*
X4409467Y-23220888D02*
X4418991Y-23239936D01*
X4418991Y-23239936D02*
X4428515Y-23249460D01*
X4428515Y-23249460D02*
X4447563Y-23258984D01*
X4447563Y-23258984D02*
X4485658Y-23258984D01*
X4485658Y-23258984D02*
X4504705Y-23249460D01*
X4504705Y-23249460D02*
X4514229Y-23239936D01*
X4514229Y-23239936D02*
X4523753Y-23220888D01*
X4523753Y-23220888D02*
X4523753Y-23173269D01*
X4523753Y-23173269D02*
X4514229Y-23154222D01*
X4514229Y-23154222D02*
X4504705Y-23144698D01*
X4504705Y-23144698D02*
X4485658Y-23135174D01*
X4485658Y-23135174D02*
X4447563Y-23135174D01*
X4447563Y-23135174D02*
X4428515Y-23144698D01*
X4428515Y-23144698D02*
X4418991Y-23154222D01*
X4418991Y-23154222D02*
X4409467Y-23173269D01*
X4704705Y-23058984D02*
X4609467Y-23058984D01*
X4609467Y-23058984D02*
X4599944Y-23154222D01*
X4599944Y-23154222D02*
X4609467Y-23144698D01*
X4609467Y-23144698D02*
X4628515Y-23135174D01*
X4628515Y-23135174D02*
X4676134Y-23135174D01*
X4676134Y-23135174D02*
X4695182Y-23144698D01*
X4695182Y-23144698D02*
X4704705Y-23154222D01*
X4704705Y-23154222D02*
X4714229Y-23173269D01*
X4714229Y-23173269D02*
X4714229Y-23220888D01*
X4714229Y-23220888D02*
X4704705Y-23239936D01*
X4704705Y-23239936D02*
X4695182Y-23249460D01*
X4695182Y-23249460D02*
X4676134Y-23258984D01*
X4676134Y-23258984D02*
X4628515Y-23258984D01*
X4628515Y-23258984D02*
X4609467Y-23249460D01*
X4609467Y-23249460D02*
X4599944Y-23239936D01*
X4838039Y-23058984D02*
X4857086Y-23058984D01*
X4857086Y-23058984D02*
X4876134Y-23068508D01*
X4876134Y-23068508D02*
X4885658Y-23078031D01*
X4885658Y-23078031D02*
X4895182Y-23097079D01*
X4895182Y-23097079D02*
X4904705Y-23135174D01*
X4904705Y-23135174D02*
X4904705Y-23182793D01*
X4904705Y-23182793D02*
X4895182Y-23220888D01*
X4895182Y-23220888D02*
X4885658Y-23239936D01*
X4885658Y-23239936D02*
X4876134Y-23249460D01*
X4876134Y-23249460D02*
X4857086Y-23258984D01*
X4857086Y-23258984D02*
X4838039Y-23258984D01*
X4838039Y-23258984D02*
X4818991Y-23249460D01*
X4818991Y-23249460D02*
X4809467Y-23239936D01*
X4809467Y-23239936D02*
X4799944Y-23220888D01*
X4799944Y-23220888D02*
X4790420Y-23182793D01*
X4790420Y-23182793D02*
X4790420Y-23135174D01*
X4790420Y-23135174D02*
X4799944Y-23097079D01*
X4799944Y-23097079D02*
X4809467Y-23078031D01*
X4809467Y-23078031D02*
X4818991Y-23068508D01*
X4818991Y-23068508D02*
X4838039Y-23058984D01*
X4990420Y-23258984D02*
X4990420Y-23125650D01*
X4990420Y-23144698D02*
X4999944Y-23135174D01*
X4999944Y-23135174D02*
X5018991Y-23125650D01*
X5018991Y-23125650D02*
X5047563Y-23125650D01*
X5047563Y-23125650D02*
X5066610Y-23135174D01*
X5066610Y-23135174D02*
X5076134Y-23154222D01*
X5076134Y-23154222D02*
X5076134Y-23258984D01*
X5076134Y-23154222D02*
X5085658Y-23135174D01*
X5085658Y-23135174D02*
X5104705Y-23125650D01*
X5104705Y-23125650D02*
X5133277Y-23125650D01*
X5133277Y-23125650D02*
X5152325Y-23135174D01*
X5152325Y-23135174D02*
X5161848Y-23154222D01*
X5161848Y-23154222D02*
X5161848Y-23258984D01*
X5257086Y-23258984D02*
X5257086Y-23125650D01*
X5257086Y-23144698D02*
X5266610Y-23135174D01*
X5266610Y-23135174D02*
X5285658Y-23125650D01*
X5285658Y-23125650D02*
X5314229Y-23125650D01*
X5314229Y-23125650D02*
X5333277Y-23135174D01*
X5333277Y-23135174D02*
X5342801Y-23154222D01*
X5342801Y-23154222D02*
X5342801Y-23258984D01*
X5342801Y-23154222D02*
X5352325Y-23135174D01*
X5352325Y-23135174D02*
X5371372Y-23125650D01*
X5371372Y-23125650D02*
X5399944Y-23125650D01*
X5399944Y-23125650D02*
X5418991Y-23135174D01*
X5418991Y-23135174D02*
X5428515Y-23154222D01*
X5428515Y-23154222D02*
X5428515Y-23258984D01*
X5818991Y-23049460D02*
X5647563Y-23306603D01*
X6076134Y-23058984D02*
X6095182Y-23058984D01*
X6095182Y-23058984D02*
X6114229Y-23068508D01*
X6114229Y-23068508D02*
X6123753Y-23078031D01*
X6123753Y-23078031D02*
X6133277Y-23097079D01*
X6133277Y-23097079D02*
X6142801Y-23135174D01*
X6142801Y-23135174D02*
X6142801Y-23182793D01*
X6142801Y-23182793D02*
X6133277Y-23220888D01*
X6133277Y-23220888D02*
X6123753Y-23239936D01*
X6123753Y-23239936D02*
X6114229Y-23249460D01*
X6114229Y-23249460D02*
X6095182Y-23258984D01*
X6095182Y-23258984D02*
X6076134Y-23258984D01*
X6076134Y-23258984D02*
X6057086Y-23249460D01*
X6057086Y-23249460D02*
X6047563Y-23239936D01*
X6047563Y-23239936D02*
X6038039Y-23220888D01*
X6038039Y-23220888D02*
X6028515Y-23182793D01*
X6028515Y-23182793D02*
X6028515Y-23135174D01*
X6028515Y-23135174D02*
X6038039Y-23097079D01*
X6038039Y-23097079D02*
X6047563Y-23078031D01*
X6047563Y-23078031D02*
X6057086Y-23068508D01*
X6057086Y-23068508D02*
X6076134Y-23058984D01*
X6228515Y-23239936D02*
X6238039Y-23249460D01*
X6238039Y-23249460D02*
X6228515Y-23258984D01*
X6228515Y-23258984D02*
X6218991Y-23249460D01*
X6218991Y-23249460D02*
X6228515Y-23239936D01*
X6228515Y-23239936D02*
X6228515Y-23258984D01*
X6361848Y-23058984D02*
X6380896Y-23058984D01*
X6380896Y-23058984D02*
X6399944Y-23068508D01*
X6399944Y-23068508D02*
X6409467Y-23078031D01*
X6409467Y-23078031D02*
X6418991Y-23097079D01*
X6418991Y-23097079D02*
X6428515Y-23135174D01*
X6428515Y-23135174D02*
X6428515Y-23182793D01*
X6428515Y-23182793D02*
X6418991Y-23220888D01*
X6418991Y-23220888D02*
X6409467Y-23239936D01*
X6409467Y-23239936D02*
X6399944Y-23249460D01*
X6399944Y-23249460D02*
X6380896Y-23258984D01*
X6380896Y-23258984D02*
X6361848Y-23258984D01*
X6361848Y-23258984D02*
X6342801Y-23249460D01*
X6342801Y-23249460D02*
X6333277Y-23239936D01*
X6333277Y-23239936D02*
X6323753Y-23220888D01*
X6323753Y-23220888D02*
X6314229Y-23182793D01*
X6314229Y-23182793D02*
X6314229Y-23135174D01*
X6314229Y-23135174D02*
X6323753Y-23097079D01*
X6323753Y-23097079D02*
X6333277Y-23078031D01*
X6333277Y-23078031D02*
X6342801Y-23068508D01*
X6342801Y-23068508D02*
X6361848Y-23058984D01*
X6504706Y-23078031D02*
X6514229Y-23068508D01*
X6514229Y-23068508D02*
X6533277Y-23058984D01*
X6533277Y-23058984D02*
X6580896Y-23058984D01*
X6580896Y-23058984D02*
X6599944Y-23068508D01*
X6599944Y-23068508D02*
X6609467Y-23078031D01*
X6609467Y-23078031D02*
X6618991Y-23097079D01*
X6618991Y-23097079D02*
X6618991Y-23116127D01*
X6618991Y-23116127D02*
X6609467Y-23144698D01*
X6609467Y-23144698D02*
X6495182Y-23258984D01*
X6495182Y-23258984D02*
X6618991Y-23258984D01*
X6799944Y-23058984D02*
X6704706Y-23058984D01*
X6704706Y-23058984D02*
X6695182Y-23154222D01*
X6695182Y-23154222D02*
X6704706Y-23144698D01*
X6704706Y-23144698D02*
X6723753Y-23135174D01*
X6723753Y-23135174D02*
X6771372Y-23135174D01*
X6771372Y-23135174D02*
X6790420Y-23144698D01*
X6790420Y-23144698D02*
X6799944Y-23154222D01*
X6799944Y-23154222D02*
X6809467Y-23173269D01*
X6809467Y-23173269D02*
X6809467Y-23220888D01*
X6809467Y-23220888D02*
X6799944Y-23239936D01*
X6799944Y-23239936D02*
X6790420Y-23249460D01*
X6790420Y-23249460D02*
X6771372Y-23258984D01*
X6771372Y-23258984D02*
X6723753Y-23258984D01*
X6723753Y-23258984D02*
X6704706Y-23249460D01*
X6704706Y-23249460D02*
X6695182Y-23239936D01*
X6980896Y-23058984D02*
X6942801Y-23058984D01*
X6942801Y-23058984D02*
X6923753Y-23068508D01*
X6923753Y-23068508D02*
X6914229Y-23078031D01*
X6914229Y-23078031D02*
X6895182Y-23106603D01*
X6895182Y-23106603D02*
X6885658Y-23144698D01*
X6885658Y-23144698D02*
X6885658Y-23220888D01*
X6885658Y-23220888D02*
X6895182Y-23239936D01*
X6895182Y-23239936D02*
X6904706Y-23249460D01*
X6904706Y-23249460D02*
X6923753Y-23258984D01*
X6923753Y-23258984D02*
X6961848Y-23258984D01*
X6961848Y-23258984D02*
X6980896Y-23249460D01*
X6980896Y-23249460D02*
X6990420Y-23239936D01*
X6990420Y-23239936D02*
X6999944Y-23220888D01*
X6999944Y-23220888D02*
X6999944Y-23173269D01*
X6999944Y-23173269D02*
X6990420Y-23154222D01*
X6990420Y-23154222D02*
X6980896Y-23144698D01*
X6980896Y-23144698D02*
X6961848Y-23135174D01*
X6961848Y-23135174D02*
X6923753Y-23135174D01*
X6923753Y-23135174D02*
X6904706Y-23144698D01*
X6904706Y-23144698D02*
X6895182Y-23154222D01*
X6895182Y-23154222D02*
X6885658Y-23173269D01*
X7076134Y-23058984D02*
X7076134Y-23097079D01*
X7152325Y-23058984D02*
X7152325Y-23097079D01*
X7447563Y-23335174D02*
X7438039Y-23325650D01*
X7438039Y-23325650D02*
X7418991Y-23297079D01*
X7418991Y-23297079D02*
X7409468Y-23278031D01*
X7409468Y-23278031D02*
X7399944Y-23249460D01*
X7399944Y-23249460D02*
X7390420Y-23201841D01*
X7390420Y-23201841D02*
X7390420Y-23163746D01*
X7390420Y-23163746D02*
X7399944Y-23116127D01*
X7399944Y-23116127D02*
X7409468Y-23087555D01*
X7409468Y-23087555D02*
X7418991Y-23068508D01*
X7418991Y-23068508D02*
X7438039Y-23039936D01*
X7438039Y-23039936D02*
X7447563Y-23030412D01*
X7514229Y-23078031D02*
X7523753Y-23068508D01*
X7523753Y-23068508D02*
X7542801Y-23058984D01*
X7542801Y-23058984D02*
X7590420Y-23058984D01*
X7590420Y-23058984D02*
X7609468Y-23068508D01*
X7609468Y-23068508D02*
X7618991Y-23078031D01*
X7618991Y-23078031D02*
X7628515Y-23097079D01*
X7628515Y-23097079D02*
X7628515Y-23116127D01*
X7628515Y-23116127D02*
X7618991Y-23144698D01*
X7618991Y-23144698D02*
X7504706Y-23258984D01*
X7504706Y-23258984D02*
X7628515Y-23258984D01*
X7866610Y-23258984D02*
X7866610Y-23058984D01*
X7952325Y-23258984D02*
X7952325Y-23154222D01*
X7952325Y-23154222D02*
X7942801Y-23135174D01*
X7942801Y-23135174D02*
X7923753Y-23125650D01*
X7923753Y-23125650D02*
X7895182Y-23125650D01*
X7895182Y-23125650D02*
X7876134Y-23135174D01*
X7876134Y-23135174D02*
X7866610Y-23144698D01*
X8076134Y-23258984D02*
X8057087Y-23249460D01*
X8057087Y-23249460D02*
X8047563Y-23239936D01*
X8047563Y-23239936D02*
X8038039Y-23220888D01*
X8038039Y-23220888D02*
X8038039Y-23163746D01*
X8038039Y-23163746D02*
X8047563Y-23144698D01*
X8047563Y-23144698D02*
X8057087Y-23135174D01*
X8057087Y-23135174D02*
X8076134Y-23125650D01*
X8076134Y-23125650D02*
X8104706Y-23125650D01*
X8104706Y-23125650D02*
X8123753Y-23135174D01*
X8123753Y-23135174D02*
X8133277Y-23144698D01*
X8133277Y-23144698D02*
X8142801Y-23163746D01*
X8142801Y-23163746D02*
X8142801Y-23220888D01*
X8142801Y-23220888D02*
X8133277Y-23239936D01*
X8133277Y-23239936D02*
X8123753Y-23249460D01*
X8123753Y-23249460D02*
X8104706Y-23258984D01*
X8104706Y-23258984D02*
X8076134Y-23258984D01*
X8257087Y-23258984D02*
X8238039Y-23249460D01*
X8238039Y-23249460D02*
X8228515Y-23230412D01*
X8228515Y-23230412D02*
X8228515Y-23058984D01*
X8409468Y-23249460D02*
X8390420Y-23258984D01*
X8390420Y-23258984D02*
X8352325Y-23258984D01*
X8352325Y-23258984D02*
X8333277Y-23249460D01*
X8333277Y-23249460D02*
X8323753Y-23230412D01*
X8323753Y-23230412D02*
X8323753Y-23154222D01*
X8323753Y-23154222D02*
X8333277Y-23135174D01*
X8333277Y-23135174D02*
X8352325Y-23125650D01*
X8352325Y-23125650D02*
X8390420Y-23125650D01*
X8390420Y-23125650D02*
X8409468Y-23135174D01*
X8409468Y-23135174D02*
X8418992Y-23154222D01*
X8418992Y-23154222D02*
X8418992Y-23173269D01*
X8418992Y-23173269D02*
X8323753Y-23192317D01*
X8495182Y-23249460D02*
X8514230Y-23258984D01*
X8514230Y-23258984D02*
X8552325Y-23258984D01*
X8552325Y-23258984D02*
X8571373Y-23249460D01*
X8571373Y-23249460D02*
X8580896Y-23230412D01*
X8580896Y-23230412D02*
X8580896Y-23220888D01*
X8580896Y-23220888D02*
X8571373Y-23201841D01*
X8571373Y-23201841D02*
X8552325Y-23192317D01*
X8552325Y-23192317D02*
X8523753Y-23192317D01*
X8523753Y-23192317D02*
X8504706Y-23182793D01*
X8504706Y-23182793D02*
X8495182Y-23163746D01*
X8495182Y-23163746D02*
X8495182Y-23154222D01*
X8495182Y-23154222D02*
X8504706Y-23135174D01*
X8504706Y-23135174D02*
X8523753Y-23125650D01*
X8523753Y-23125650D02*
X8552325Y-23125650D01*
X8552325Y-23125650D02*
X8571373Y-23135174D01*
X8647563Y-23335174D02*
X8657087Y-23325650D01*
X8657087Y-23325650D02*
X8676134Y-23297079D01*
X8676134Y-23297079D02*
X8685658Y-23278031D01*
X8685658Y-23278031D02*
X8695182Y-23249460D01*
X8695182Y-23249460D02*
X8704706Y-23201841D01*
X8704706Y-23201841D02*
X8704706Y-23163746D01*
X8704706Y-23163746D02*
X8695182Y-23116127D01*
X8695182Y-23116127D02*
X8685658Y-23087555D01*
X8685658Y-23087555D02*
X8676134Y-23068508D01*
X8676134Y-23068508D02*
X8657087Y-23039936D01*
X8657087Y-23039936D02*
X8647563Y-23030412D01*
X9009468Y-23335174D02*
X8999944Y-23325650D01*
X8999944Y-23325650D02*
X8980896Y-23297079D01*
X8980896Y-23297079D02*
X8971373Y-23278031D01*
X8971373Y-23278031D02*
X8961849Y-23249460D01*
X8961849Y-23249460D02*
X8952325Y-23201841D01*
X8952325Y-23201841D02*
X8952325Y-23163746D01*
X8952325Y-23163746D02*
X8961849Y-23116127D01*
X8961849Y-23116127D02*
X8971373Y-23087555D01*
X8971373Y-23087555D02*
X8980896Y-23068508D01*
X8980896Y-23068508D02*
X8999944Y-23039936D01*
X8999944Y-23039936D02*
X9009468Y-23030412D01*
X9085658Y-23125650D02*
X9085658Y-23258984D01*
X9085658Y-23144698D02*
X9095182Y-23135174D01*
X9095182Y-23135174D02*
X9114230Y-23125650D01*
X9114230Y-23125650D02*
X9142801Y-23125650D01*
X9142801Y-23125650D02*
X9161849Y-23135174D01*
X9161849Y-23135174D02*
X9171373Y-23154222D01*
X9171373Y-23154222D02*
X9171373Y-23258984D01*
X9295182Y-23258984D02*
X9276134Y-23249460D01*
X9276134Y-23249460D02*
X9266611Y-23239936D01*
X9266611Y-23239936D02*
X9257087Y-23220888D01*
X9257087Y-23220888D02*
X9257087Y-23163746D01*
X9257087Y-23163746D02*
X9266611Y-23144698D01*
X9266611Y-23144698D02*
X9276134Y-23135174D01*
X9276134Y-23135174D02*
X9295182Y-23125650D01*
X9295182Y-23125650D02*
X9323754Y-23125650D01*
X9323754Y-23125650D02*
X9342801Y-23135174D01*
X9342801Y-23135174D02*
X9352325Y-23144698D01*
X9352325Y-23144698D02*
X9361849Y-23163746D01*
X9361849Y-23163746D02*
X9361849Y-23220888D01*
X9361849Y-23220888D02*
X9352325Y-23239936D01*
X9352325Y-23239936D02*
X9342801Y-23249460D01*
X9342801Y-23249460D02*
X9323754Y-23258984D01*
X9323754Y-23258984D02*
X9295182Y-23258984D01*
X9418992Y-23125650D02*
X9495182Y-23125650D01*
X9447563Y-23058984D02*
X9447563Y-23230412D01*
X9447563Y-23230412D02*
X9457087Y-23249460D01*
X9457087Y-23249460D02*
X9476134Y-23258984D01*
X9476134Y-23258984D02*
X9495182Y-23258984D01*
X9714230Y-23125650D02*
X9714230Y-23325650D01*
X9714230Y-23135174D02*
X9733277Y-23125650D01*
X9733277Y-23125650D02*
X9771373Y-23125650D01*
X9771373Y-23125650D02*
X9790420Y-23135174D01*
X9790420Y-23135174D02*
X9799944Y-23144698D01*
X9799944Y-23144698D02*
X9809468Y-23163746D01*
X9809468Y-23163746D02*
X9809468Y-23220888D01*
X9809468Y-23220888D02*
X9799944Y-23239936D01*
X9799944Y-23239936D02*
X9790420Y-23249460D01*
X9790420Y-23249460D02*
X9771373Y-23258984D01*
X9771373Y-23258984D02*
X9733277Y-23258984D01*
X9733277Y-23258984D02*
X9714230Y-23249460D01*
X9923754Y-23258984D02*
X9904706Y-23249460D01*
X9904706Y-23249460D02*
X9895182Y-23230412D01*
X9895182Y-23230412D02*
X9895182Y-23058984D01*
X10085658Y-23258984D02*
X10085658Y-23154222D01*
X10085658Y-23154222D02*
X10076135Y-23135174D01*
X10076135Y-23135174D02*
X10057087Y-23125650D01*
X10057087Y-23125650D02*
X10018992Y-23125650D01*
X10018992Y-23125650D02*
X9999944Y-23135174D01*
X10085658Y-23249460D02*
X10066611Y-23258984D01*
X10066611Y-23258984D02*
X10018992Y-23258984D01*
X10018992Y-23258984D02*
X9999944Y-23249460D01*
X9999944Y-23249460D02*
X9990420Y-23230412D01*
X9990420Y-23230412D02*
X9990420Y-23211365D01*
X9990420Y-23211365D02*
X9999944Y-23192317D01*
X9999944Y-23192317D02*
X10018992Y-23182793D01*
X10018992Y-23182793D02*
X10066611Y-23182793D01*
X10066611Y-23182793D02*
X10085658Y-23173269D01*
X10152325Y-23125650D02*
X10228515Y-23125650D01*
X10180896Y-23058984D02*
X10180896Y-23230412D01*
X10180896Y-23230412D02*
X10190420Y-23249460D01*
X10190420Y-23249460D02*
X10209468Y-23258984D01*
X10209468Y-23258984D02*
X10228515Y-23258984D01*
X10371373Y-23249460D02*
X10352325Y-23258984D01*
X10352325Y-23258984D02*
X10314230Y-23258984D01*
X10314230Y-23258984D02*
X10295182Y-23249460D01*
X10295182Y-23249460D02*
X10285658Y-23230412D01*
X10285658Y-23230412D02*
X10285658Y-23154222D01*
X10285658Y-23154222D02*
X10295182Y-23135174D01*
X10295182Y-23135174D02*
X10314230Y-23125650D01*
X10314230Y-23125650D02*
X10352325Y-23125650D01*
X10352325Y-23125650D02*
X10371373Y-23135174D01*
X10371373Y-23135174D02*
X10380896Y-23154222D01*
X10380896Y-23154222D02*
X10380896Y-23173269D01*
X10380896Y-23173269D02*
X10285658Y-23192317D01*
X10552325Y-23258984D02*
X10552325Y-23058984D01*
X10552325Y-23249460D02*
X10533277Y-23258984D01*
X10533277Y-23258984D02*
X10495182Y-23258984D01*
X10495182Y-23258984D02*
X10476135Y-23249460D01*
X10476135Y-23249460D02*
X10466611Y-23239936D01*
X10466611Y-23239936D02*
X10457087Y-23220888D01*
X10457087Y-23220888D02*
X10457087Y-23163746D01*
X10457087Y-23163746D02*
X10466611Y-23144698D01*
X10466611Y-23144698D02*
X10476135Y-23135174D01*
X10476135Y-23135174D02*
X10495182Y-23125650D01*
X10495182Y-23125650D02*
X10533277Y-23125650D01*
X10533277Y-23125650D02*
X10552325Y-23135174D01*
X10628516Y-23335174D02*
X10638039Y-23325650D01*
X10638039Y-23325650D02*
X10657087Y-23297079D01*
X10657087Y-23297079D02*
X10666611Y-23278031D01*
X10666611Y-23278031D02*
X10676135Y-23249460D01*
X10676135Y-23249460D02*
X10685658Y-23201841D01*
X10685658Y-23201841D02*
X10685658Y-23163746D01*
X10685658Y-23163746D02*
X10676135Y-23116127D01*
X10676135Y-23116127D02*
X10666611Y-23087555D01*
X10666611Y-23087555D02*
X10657087Y-23068508D01*
X10657087Y-23068508D02*
X10638039Y-23039936D01*
X10638039Y-23039936D02*
X10628516Y-23030412D01*
D12*
X3872500Y-23431500D02*
G75*
G02*
X3772500Y-23431500I-50000J0D01*
G01*
X3772500Y-23431500D02*
G75*
G02*
X3872500Y-23431500I50000J0D01*
G01*
D11*
X4238039Y-23522984D02*
X4123753Y-23522984D01*
X4180896Y-23522984D02*
X4180896Y-23322984D01*
X4180896Y-23322984D02*
X4161848Y-23351555D01*
X4161848Y-23351555D02*
X4142801Y-23370603D01*
X4142801Y-23370603D02*
X4123753Y-23380127D01*
X4323753Y-23503936D02*
X4333277Y-23513460D01*
X4333277Y-23513460D02*
X4323753Y-23522984D01*
X4323753Y-23522984D02*
X4314229Y-23513460D01*
X4314229Y-23513460D02*
X4323753Y-23503936D01*
X4323753Y-23503936D02*
X4323753Y-23522984D01*
X4457086Y-23322984D02*
X4476134Y-23322984D01*
X4476134Y-23322984D02*
X4495182Y-23332508D01*
X4495182Y-23332508D02*
X4504705Y-23342031D01*
X4504705Y-23342031D02*
X4514229Y-23361079D01*
X4514229Y-23361079D02*
X4523753Y-23399174D01*
X4523753Y-23399174D02*
X4523753Y-23446793D01*
X4523753Y-23446793D02*
X4514229Y-23484888D01*
X4514229Y-23484888D02*
X4504705Y-23503936D01*
X4504705Y-23503936D02*
X4495182Y-23513460D01*
X4495182Y-23513460D02*
X4476134Y-23522984D01*
X4476134Y-23522984D02*
X4457086Y-23522984D01*
X4457086Y-23522984D02*
X4438039Y-23513460D01*
X4438039Y-23513460D02*
X4428515Y-23503936D01*
X4428515Y-23503936D02*
X4418991Y-23484888D01*
X4418991Y-23484888D02*
X4409467Y-23446793D01*
X4409467Y-23446793D02*
X4409467Y-23399174D01*
X4409467Y-23399174D02*
X4418991Y-23361079D01*
X4418991Y-23361079D02*
X4428515Y-23342031D01*
X4428515Y-23342031D02*
X4438039Y-23332508D01*
X4438039Y-23332508D02*
X4457086Y-23322984D01*
X4647563Y-23322984D02*
X4666610Y-23322984D01*
X4666610Y-23322984D02*
X4685658Y-23332508D01*
X4685658Y-23332508D02*
X4695182Y-23342031D01*
X4695182Y-23342031D02*
X4704705Y-23361079D01*
X4704705Y-23361079D02*
X4714229Y-23399174D01*
X4714229Y-23399174D02*
X4714229Y-23446793D01*
X4714229Y-23446793D02*
X4704705Y-23484888D01*
X4704705Y-23484888D02*
X4695182Y-23503936D01*
X4695182Y-23503936D02*
X4685658Y-23513460D01*
X4685658Y-23513460D02*
X4666610Y-23522984D01*
X4666610Y-23522984D02*
X4647563Y-23522984D01*
X4647563Y-23522984D02*
X4628515Y-23513460D01*
X4628515Y-23513460D02*
X4618991Y-23503936D01*
X4618991Y-23503936D02*
X4609467Y-23484888D01*
X4609467Y-23484888D02*
X4599944Y-23446793D01*
X4599944Y-23446793D02*
X4599944Y-23399174D01*
X4599944Y-23399174D02*
X4609467Y-23361079D01*
X4609467Y-23361079D02*
X4618991Y-23342031D01*
X4618991Y-23342031D02*
X4628515Y-23332508D01*
X4628515Y-23332508D02*
X4647563Y-23322984D01*
X4838039Y-23322984D02*
X4857086Y-23322984D01*
X4857086Y-23322984D02*
X4876134Y-23332508D01*
X4876134Y-23332508D02*
X4885658Y-23342031D01*
X4885658Y-23342031D02*
X4895182Y-23361079D01*
X4895182Y-23361079D02*
X4904705Y-23399174D01*
X4904705Y-23399174D02*
X4904705Y-23446793D01*
X4904705Y-23446793D02*
X4895182Y-23484888D01*
X4895182Y-23484888D02*
X4885658Y-23503936D01*
X4885658Y-23503936D02*
X4876134Y-23513460D01*
X4876134Y-23513460D02*
X4857086Y-23522984D01*
X4857086Y-23522984D02*
X4838039Y-23522984D01*
X4838039Y-23522984D02*
X4818991Y-23513460D01*
X4818991Y-23513460D02*
X4809467Y-23503936D01*
X4809467Y-23503936D02*
X4799944Y-23484888D01*
X4799944Y-23484888D02*
X4790420Y-23446793D01*
X4790420Y-23446793D02*
X4790420Y-23399174D01*
X4790420Y-23399174D02*
X4799944Y-23361079D01*
X4799944Y-23361079D02*
X4809467Y-23342031D01*
X4809467Y-23342031D02*
X4818991Y-23332508D01*
X4818991Y-23332508D02*
X4838039Y-23322984D01*
X4990420Y-23522984D02*
X4990420Y-23389650D01*
X4990420Y-23408698D02*
X4999944Y-23399174D01*
X4999944Y-23399174D02*
X5018991Y-23389650D01*
X5018991Y-23389650D02*
X5047563Y-23389650D01*
X5047563Y-23389650D02*
X5066610Y-23399174D01*
X5066610Y-23399174D02*
X5076134Y-23418222D01*
X5076134Y-23418222D02*
X5076134Y-23522984D01*
X5076134Y-23418222D02*
X5085658Y-23399174D01*
X5085658Y-23399174D02*
X5104705Y-23389650D01*
X5104705Y-23389650D02*
X5133277Y-23389650D01*
X5133277Y-23389650D02*
X5152325Y-23399174D01*
X5152325Y-23399174D02*
X5161848Y-23418222D01*
X5161848Y-23418222D02*
X5161848Y-23522984D01*
X5257086Y-23522984D02*
X5257086Y-23389650D01*
X5257086Y-23408698D02*
X5266610Y-23399174D01*
X5266610Y-23399174D02*
X5285658Y-23389650D01*
X5285658Y-23389650D02*
X5314229Y-23389650D01*
X5314229Y-23389650D02*
X5333277Y-23399174D01*
X5333277Y-23399174D02*
X5342801Y-23418222D01*
X5342801Y-23418222D02*
X5342801Y-23522984D01*
X5342801Y-23418222D02*
X5352325Y-23399174D01*
X5352325Y-23399174D02*
X5371372Y-23389650D01*
X5371372Y-23389650D02*
X5399944Y-23389650D01*
X5399944Y-23389650D02*
X5418991Y-23399174D01*
X5418991Y-23399174D02*
X5428515Y-23418222D01*
X5428515Y-23418222D02*
X5428515Y-23522984D01*
X5818991Y-23313460D02*
X5647563Y-23570603D01*
X6076134Y-23322984D02*
X6095182Y-23322984D01*
X6095182Y-23322984D02*
X6114229Y-23332508D01*
X6114229Y-23332508D02*
X6123753Y-23342031D01*
X6123753Y-23342031D02*
X6133277Y-23361079D01*
X6133277Y-23361079D02*
X6142801Y-23399174D01*
X6142801Y-23399174D02*
X6142801Y-23446793D01*
X6142801Y-23446793D02*
X6133277Y-23484888D01*
X6133277Y-23484888D02*
X6123753Y-23503936D01*
X6123753Y-23503936D02*
X6114229Y-23513460D01*
X6114229Y-23513460D02*
X6095182Y-23522984D01*
X6095182Y-23522984D02*
X6076134Y-23522984D01*
X6076134Y-23522984D02*
X6057086Y-23513460D01*
X6057086Y-23513460D02*
X6047563Y-23503936D01*
X6047563Y-23503936D02*
X6038039Y-23484888D01*
X6038039Y-23484888D02*
X6028515Y-23446793D01*
X6028515Y-23446793D02*
X6028515Y-23399174D01*
X6028515Y-23399174D02*
X6038039Y-23361079D01*
X6038039Y-23361079D02*
X6047563Y-23342031D01*
X6047563Y-23342031D02*
X6057086Y-23332508D01*
X6057086Y-23332508D02*
X6076134Y-23322984D01*
X6228515Y-23503936D02*
X6238039Y-23513460D01*
X6238039Y-23513460D02*
X6228515Y-23522984D01*
X6228515Y-23522984D02*
X6218991Y-23513460D01*
X6218991Y-23513460D02*
X6228515Y-23503936D01*
X6228515Y-23503936D02*
X6228515Y-23522984D01*
X6361848Y-23322984D02*
X6380896Y-23322984D01*
X6380896Y-23322984D02*
X6399944Y-23332508D01*
X6399944Y-23332508D02*
X6409467Y-23342031D01*
X6409467Y-23342031D02*
X6418991Y-23361079D01*
X6418991Y-23361079D02*
X6428515Y-23399174D01*
X6428515Y-23399174D02*
X6428515Y-23446793D01*
X6428515Y-23446793D02*
X6418991Y-23484888D01*
X6418991Y-23484888D02*
X6409467Y-23503936D01*
X6409467Y-23503936D02*
X6399944Y-23513460D01*
X6399944Y-23513460D02*
X6380896Y-23522984D01*
X6380896Y-23522984D02*
X6361848Y-23522984D01*
X6361848Y-23522984D02*
X6342801Y-23513460D01*
X6342801Y-23513460D02*
X6333277Y-23503936D01*
X6333277Y-23503936D02*
X6323753Y-23484888D01*
X6323753Y-23484888D02*
X6314229Y-23446793D01*
X6314229Y-23446793D02*
X6314229Y-23399174D01*
X6314229Y-23399174D02*
X6323753Y-23361079D01*
X6323753Y-23361079D02*
X6333277Y-23342031D01*
X6333277Y-23342031D02*
X6342801Y-23332508D01*
X6342801Y-23332508D02*
X6361848Y-23322984D01*
X6495182Y-23322984D02*
X6618991Y-23322984D01*
X6618991Y-23322984D02*
X6552325Y-23399174D01*
X6552325Y-23399174D02*
X6580896Y-23399174D01*
X6580896Y-23399174D02*
X6599944Y-23408698D01*
X6599944Y-23408698D02*
X6609467Y-23418222D01*
X6609467Y-23418222D02*
X6618991Y-23437269D01*
X6618991Y-23437269D02*
X6618991Y-23484888D01*
X6618991Y-23484888D02*
X6609467Y-23503936D01*
X6609467Y-23503936D02*
X6599944Y-23513460D01*
X6599944Y-23513460D02*
X6580896Y-23522984D01*
X6580896Y-23522984D02*
X6523753Y-23522984D01*
X6523753Y-23522984D02*
X6504706Y-23513460D01*
X6504706Y-23513460D02*
X6495182Y-23503936D01*
X6714229Y-23522984D02*
X6752325Y-23522984D01*
X6752325Y-23522984D02*
X6771372Y-23513460D01*
X6771372Y-23513460D02*
X6780896Y-23503936D01*
X6780896Y-23503936D02*
X6799944Y-23475365D01*
X6799944Y-23475365D02*
X6809467Y-23437269D01*
X6809467Y-23437269D02*
X6809467Y-23361079D01*
X6809467Y-23361079D02*
X6799944Y-23342031D01*
X6799944Y-23342031D02*
X6790420Y-23332508D01*
X6790420Y-23332508D02*
X6771372Y-23322984D01*
X6771372Y-23322984D02*
X6733277Y-23322984D01*
X6733277Y-23322984D02*
X6714229Y-23332508D01*
X6714229Y-23332508D02*
X6704706Y-23342031D01*
X6704706Y-23342031D02*
X6695182Y-23361079D01*
X6695182Y-23361079D02*
X6695182Y-23408698D01*
X6695182Y-23408698D02*
X6704706Y-23427746D01*
X6704706Y-23427746D02*
X6714229Y-23437269D01*
X6714229Y-23437269D02*
X6733277Y-23446793D01*
X6733277Y-23446793D02*
X6771372Y-23446793D01*
X6771372Y-23446793D02*
X6790420Y-23437269D01*
X6790420Y-23437269D02*
X6799944Y-23427746D01*
X6799944Y-23427746D02*
X6809467Y-23408698D01*
X6980896Y-23389650D02*
X6980896Y-23522984D01*
X6933277Y-23313460D02*
X6885658Y-23456317D01*
X6885658Y-23456317D02*
X7009467Y-23456317D01*
X7076134Y-23322984D02*
X7076134Y-23361079D01*
X7152325Y-23322984D02*
X7152325Y-23361079D01*
X7447563Y-23599174D02*
X7438039Y-23589650D01*
X7438039Y-23589650D02*
X7418991Y-23561079D01*
X7418991Y-23561079D02*
X7409468Y-23542031D01*
X7409468Y-23542031D02*
X7399944Y-23513460D01*
X7399944Y-23513460D02*
X7390420Y-23465841D01*
X7390420Y-23465841D02*
X7390420Y-23427746D01*
X7390420Y-23427746D02*
X7399944Y-23380127D01*
X7399944Y-23380127D02*
X7409468Y-23351555D01*
X7409468Y-23351555D02*
X7418991Y-23332508D01*
X7418991Y-23332508D02*
X7438039Y-23303936D01*
X7438039Y-23303936D02*
X7447563Y-23294412D01*
X7561848Y-23322984D02*
X7580896Y-23322984D01*
X7580896Y-23322984D02*
X7599944Y-23332508D01*
X7599944Y-23332508D02*
X7609468Y-23342031D01*
X7609468Y-23342031D02*
X7618991Y-23361079D01*
X7618991Y-23361079D02*
X7628515Y-23399174D01*
X7628515Y-23399174D02*
X7628515Y-23446793D01*
X7628515Y-23446793D02*
X7618991Y-23484888D01*
X7618991Y-23484888D02*
X7609468Y-23503936D01*
X7609468Y-23503936D02*
X7599944Y-23513460D01*
X7599944Y-23513460D02*
X7580896Y-23522984D01*
X7580896Y-23522984D02*
X7561848Y-23522984D01*
X7561848Y-23522984D02*
X7542801Y-23513460D01*
X7542801Y-23513460D02*
X7533277Y-23503936D01*
X7533277Y-23503936D02*
X7523753Y-23484888D01*
X7523753Y-23484888D02*
X7514229Y-23446793D01*
X7514229Y-23446793D02*
X7514229Y-23399174D01*
X7514229Y-23399174D02*
X7523753Y-23361079D01*
X7523753Y-23361079D02*
X7533277Y-23342031D01*
X7533277Y-23342031D02*
X7542801Y-23332508D01*
X7542801Y-23332508D02*
X7561848Y-23322984D01*
X7866610Y-23522984D02*
X7866610Y-23322984D01*
X7952325Y-23522984D02*
X7952325Y-23418222D01*
X7952325Y-23418222D02*
X7942801Y-23399174D01*
X7942801Y-23399174D02*
X7923753Y-23389650D01*
X7923753Y-23389650D02*
X7895182Y-23389650D01*
X7895182Y-23389650D02*
X7876134Y-23399174D01*
X7876134Y-23399174D02*
X7866610Y-23408698D01*
X8076134Y-23522984D02*
X8057087Y-23513460D01*
X8057087Y-23513460D02*
X8047563Y-23503936D01*
X8047563Y-23503936D02*
X8038039Y-23484888D01*
X8038039Y-23484888D02*
X8038039Y-23427746D01*
X8038039Y-23427746D02*
X8047563Y-23408698D01*
X8047563Y-23408698D02*
X8057087Y-23399174D01*
X8057087Y-23399174D02*
X8076134Y-23389650D01*
X8076134Y-23389650D02*
X8104706Y-23389650D01*
X8104706Y-23389650D02*
X8123753Y-23399174D01*
X8123753Y-23399174D02*
X8133277Y-23408698D01*
X8133277Y-23408698D02*
X8142801Y-23427746D01*
X8142801Y-23427746D02*
X8142801Y-23484888D01*
X8142801Y-23484888D02*
X8133277Y-23503936D01*
X8133277Y-23503936D02*
X8123753Y-23513460D01*
X8123753Y-23513460D02*
X8104706Y-23522984D01*
X8104706Y-23522984D02*
X8076134Y-23522984D01*
X8257087Y-23522984D02*
X8238039Y-23513460D01*
X8238039Y-23513460D02*
X8228515Y-23494412D01*
X8228515Y-23494412D02*
X8228515Y-23322984D01*
X8409468Y-23513460D02*
X8390420Y-23522984D01*
X8390420Y-23522984D02*
X8352325Y-23522984D01*
X8352325Y-23522984D02*
X8333277Y-23513460D01*
X8333277Y-23513460D02*
X8323753Y-23494412D01*
X8323753Y-23494412D02*
X8323753Y-23418222D01*
X8323753Y-23418222D02*
X8333277Y-23399174D01*
X8333277Y-23399174D02*
X8352325Y-23389650D01*
X8352325Y-23389650D02*
X8390420Y-23389650D01*
X8390420Y-23389650D02*
X8409468Y-23399174D01*
X8409468Y-23399174D02*
X8418992Y-23418222D01*
X8418992Y-23418222D02*
X8418992Y-23437269D01*
X8418992Y-23437269D02*
X8323753Y-23456317D01*
X8495182Y-23513460D02*
X8514230Y-23522984D01*
X8514230Y-23522984D02*
X8552325Y-23522984D01*
X8552325Y-23522984D02*
X8571373Y-23513460D01*
X8571373Y-23513460D02*
X8580896Y-23494412D01*
X8580896Y-23494412D02*
X8580896Y-23484888D01*
X8580896Y-23484888D02*
X8571373Y-23465841D01*
X8571373Y-23465841D02*
X8552325Y-23456317D01*
X8552325Y-23456317D02*
X8523753Y-23456317D01*
X8523753Y-23456317D02*
X8504706Y-23446793D01*
X8504706Y-23446793D02*
X8495182Y-23427746D01*
X8495182Y-23427746D02*
X8495182Y-23418222D01*
X8495182Y-23418222D02*
X8504706Y-23399174D01*
X8504706Y-23399174D02*
X8523753Y-23389650D01*
X8523753Y-23389650D02*
X8552325Y-23389650D01*
X8552325Y-23389650D02*
X8571373Y-23399174D01*
X8818992Y-23446793D02*
X8971373Y-23446793D01*
X8895182Y-23522984D02*
X8895182Y-23370603D01*
X9314230Y-23322984D02*
X9218992Y-23322984D01*
X9218992Y-23322984D02*
X9209468Y-23418222D01*
X9209468Y-23418222D02*
X9218992Y-23408698D01*
X9218992Y-23408698D02*
X9238039Y-23399174D01*
X9238039Y-23399174D02*
X9285658Y-23399174D01*
X9285658Y-23399174D02*
X9304706Y-23408698D01*
X9304706Y-23408698D02*
X9314230Y-23418222D01*
X9314230Y-23418222D02*
X9323754Y-23437269D01*
X9323754Y-23437269D02*
X9323754Y-23484888D01*
X9323754Y-23484888D02*
X9314230Y-23503936D01*
X9314230Y-23503936D02*
X9304706Y-23513460D01*
X9304706Y-23513460D02*
X9285658Y-23522984D01*
X9285658Y-23522984D02*
X9238039Y-23522984D01*
X9238039Y-23522984D02*
X9218992Y-23513460D01*
X9218992Y-23513460D02*
X9209468Y-23503936D01*
X9552325Y-23513460D02*
X9571373Y-23522984D01*
X9571373Y-23522984D02*
X9609468Y-23522984D01*
X9609468Y-23522984D02*
X9628516Y-23513460D01*
X9628516Y-23513460D02*
X9638039Y-23494412D01*
X9638039Y-23494412D02*
X9638039Y-23484888D01*
X9638039Y-23484888D02*
X9628516Y-23465841D01*
X9628516Y-23465841D02*
X9609468Y-23456317D01*
X9609468Y-23456317D02*
X9580896Y-23456317D01*
X9580896Y-23456317D02*
X9561849Y-23446793D01*
X9561849Y-23446793D02*
X9552325Y-23427746D01*
X9552325Y-23427746D02*
X9552325Y-23418222D01*
X9552325Y-23418222D02*
X9561849Y-23399174D01*
X9561849Y-23399174D02*
X9580896Y-23389650D01*
X9580896Y-23389650D02*
X9609468Y-23389650D01*
X9609468Y-23389650D02*
X9628516Y-23399174D01*
X9752325Y-23522984D02*
X9733277Y-23513460D01*
X9733277Y-23513460D02*
X9723754Y-23494412D01*
X9723754Y-23494412D02*
X9723754Y-23322984D01*
X9857087Y-23522984D02*
X9838039Y-23513460D01*
X9838039Y-23513460D02*
X9828516Y-23503936D01*
X9828516Y-23503936D02*
X9818992Y-23484888D01*
X9818992Y-23484888D02*
X9818992Y-23427746D01*
X9818992Y-23427746D02*
X9828516Y-23408698D01*
X9828516Y-23408698D02*
X9838039Y-23399174D01*
X9838039Y-23399174D02*
X9857087Y-23389650D01*
X9857087Y-23389650D02*
X9885658Y-23389650D01*
X9885658Y-23389650D02*
X9904706Y-23399174D01*
X9904706Y-23399174D02*
X9914230Y-23408698D01*
X9914230Y-23408698D02*
X9923754Y-23427746D01*
X9923754Y-23427746D02*
X9923754Y-23484888D01*
X9923754Y-23484888D02*
X9914230Y-23503936D01*
X9914230Y-23503936D02*
X9904706Y-23513460D01*
X9904706Y-23513460D02*
X9885658Y-23522984D01*
X9885658Y-23522984D02*
X9857087Y-23522984D01*
X9980897Y-23389650D02*
X10057087Y-23389650D01*
X10009468Y-23322984D02*
X10009468Y-23494412D01*
X10009468Y-23494412D02*
X10018992Y-23513460D01*
X10018992Y-23513460D02*
X10038039Y-23522984D01*
X10038039Y-23522984D02*
X10057087Y-23522984D01*
X10114230Y-23513460D02*
X10133277Y-23522984D01*
X10133277Y-23522984D02*
X10171373Y-23522984D01*
X10171373Y-23522984D02*
X10190420Y-23513460D01*
X10190420Y-23513460D02*
X10199944Y-23494412D01*
X10199944Y-23494412D02*
X10199944Y-23484888D01*
X10199944Y-23484888D02*
X10190420Y-23465841D01*
X10190420Y-23465841D02*
X10171373Y-23456317D01*
X10171373Y-23456317D02*
X10142801Y-23456317D01*
X10142801Y-23456317D02*
X10123754Y-23446793D01*
X10123754Y-23446793D02*
X10114230Y-23427746D01*
X10114230Y-23427746D02*
X10114230Y-23418222D01*
X10114230Y-23418222D02*
X10123754Y-23399174D01*
X10123754Y-23399174D02*
X10142801Y-23389650D01*
X10142801Y-23389650D02*
X10171373Y-23389650D01*
X10171373Y-23389650D02*
X10190420Y-23399174D01*
X10266611Y-23599174D02*
X10276135Y-23589650D01*
X10276135Y-23589650D02*
X10295182Y-23561079D01*
X10295182Y-23561079D02*
X10304706Y-23542031D01*
X10304706Y-23542031D02*
X10314230Y-23513460D01*
X10314230Y-23513460D02*
X10323754Y-23465841D01*
X10323754Y-23465841D02*
X10323754Y-23427746D01*
X10323754Y-23427746D02*
X10314230Y-23380127D01*
X10314230Y-23380127D02*
X10304706Y-23351555D01*
X10304706Y-23351555D02*
X10295182Y-23332508D01*
X10295182Y-23332508D02*
X10276135Y-23303936D01*
X10276135Y-23303936D02*
X10266611Y-23294412D01*
X10628516Y-23599174D02*
X10618992Y-23589650D01*
X10618992Y-23589650D02*
X10599944Y-23561079D01*
X10599944Y-23561079D02*
X10590420Y-23542031D01*
X10590420Y-23542031D02*
X10580897Y-23513460D01*
X10580897Y-23513460D02*
X10571373Y-23465841D01*
X10571373Y-23465841D02*
X10571373Y-23427746D01*
X10571373Y-23427746D02*
X10580897Y-23380127D01*
X10580897Y-23380127D02*
X10590420Y-23351555D01*
X10590420Y-23351555D02*
X10599944Y-23332508D01*
X10599944Y-23332508D02*
X10618992Y-23303936D01*
X10618992Y-23303936D02*
X10628516Y-23294412D01*
X10704706Y-23389650D02*
X10704706Y-23522984D01*
X10704706Y-23408698D02*
X10714230Y-23399174D01*
X10714230Y-23399174D02*
X10733277Y-23389650D01*
X10733277Y-23389650D02*
X10761849Y-23389650D01*
X10761849Y-23389650D02*
X10780897Y-23399174D01*
X10780897Y-23399174D02*
X10790420Y-23418222D01*
X10790420Y-23418222D02*
X10790420Y-23522984D01*
X10914230Y-23522984D02*
X10895182Y-23513460D01*
X10895182Y-23513460D02*
X10885658Y-23503936D01*
X10885658Y-23503936D02*
X10876135Y-23484888D01*
X10876135Y-23484888D02*
X10876135Y-23427746D01*
X10876135Y-23427746D02*
X10885658Y-23408698D01*
X10885658Y-23408698D02*
X10895182Y-23399174D01*
X10895182Y-23399174D02*
X10914230Y-23389650D01*
X10914230Y-23389650D02*
X10942801Y-23389650D01*
X10942801Y-23389650D02*
X10961849Y-23399174D01*
X10961849Y-23399174D02*
X10971373Y-23408698D01*
X10971373Y-23408698D02*
X10980897Y-23427746D01*
X10980897Y-23427746D02*
X10980897Y-23484888D01*
X10980897Y-23484888D02*
X10971373Y-23503936D01*
X10971373Y-23503936D02*
X10961849Y-23513460D01*
X10961849Y-23513460D02*
X10942801Y-23522984D01*
X10942801Y-23522984D02*
X10914230Y-23522984D01*
X11038039Y-23389650D02*
X11114230Y-23389650D01*
X11066611Y-23322984D02*
X11066611Y-23494412D01*
X11066611Y-23494412D02*
X11076135Y-23513460D01*
X11076135Y-23513460D02*
X11095182Y-23522984D01*
X11095182Y-23522984D02*
X11114230Y-23522984D01*
X11333277Y-23389650D02*
X11333277Y-23589650D01*
X11333277Y-23399174D02*
X11352325Y-23389650D01*
X11352325Y-23389650D02*
X11390420Y-23389650D01*
X11390420Y-23389650D02*
X11409468Y-23399174D01*
X11409468Y-23399174D02*
X11418992Y-23408698D01*
X11418992Y-23408698D02*
X11428516Y-23427746D01*
X11428516Y-23427746D02*
X11428516Y-23484888D01*
X11428516Y-23484888D02*
X11418992Y-23503936D01*
X11418992Y-23503936D02*
X11409468Y-23513460D01*
X11409468Y-23513460D02*
X11390420Y-23522984D01*
X11390420Y-23522984D02*
X11352325Y-23522984D01*
X11352325Y-23522984D02*
X11333277Y-23513460D01*
X11542801Y-23522984D02*
X11523754Y-23513460D01*
X11523754Y-23513460D02*
X11514230Y-23494412D01*
X11514230Y-23494412D02*
X11514230Y-23322984D01*
X11704706Y-23522984D02*
X11704706Y-23418222D01*
X11704706Y-23418222D02*
X11695182Y-23399174D01*
X11695182Y-23399174D02*
X11676135Y-23389650D01*
X11676135Y-23389650D02*
X11638039Y-23389650D01*
X11638039Y-23389650D02*
X11618992Y-23399174D01*
X11704706Y-23513460D02*
X11685658Y-23522984D01*
X11685658Y-23522984D02*
X11638039Y-23522984D01*
X11638039Y-23522984D02*
X11618992Y-23513460D01*
X11618992Y-23513460D02*
X11609468Y-23494412D01*
X11609468Y-23494412D02*
X11609468Y-23475365D01*
X11609468Y-23475365D02*
X11618992Y-23456317D01*
X11618992Y-23456317D02*
X11638039Y-23446793D01*
X11638039Y-23446793D02*
X11685658Y-23446793D01*
X11685658Y-23446793D02*
X11704706Y-23437269D01*
X11771373Y-23389650D02*
X11847563Y-23389650D01*
X11799944Y-23322984D02*
X11799944Y-23494412D01*
X11799944Y-23494412D02*
X11809468Y-23513460D01*
X11809468Y-23513460D02*
X11828516Y-23522984D01*
X11828516Y-23522984D02*
X11847563Y-23522984D01*
X11990420Y-23513460D02*
X11971373Y-23522984D01*
X11971373Y-23522984D02*
X11933277Y-23522984D01*
X11933277Y-23522984D02*
X11914230Y-23513460D01*
X11914230Y-23513460D02*
X11904706Y-23494412D01*
X11904706Y-23494412D02*
X11904706Y-23418222D01*
X11904706Y-23418222D02*
X11914230Y-23399174D01*
X11914230Y-23399174D02*
X11933277Y-23389650D01*
X11933277Y-23389650D02*
X11971373Y-23389650D01*
X11971373Y-23389650D02*
X11990420Y-23399174D01*
X11990420Y-23399174D02*
X11999944Y-23418222D01*
X11999944Y-23418222D02*
X11999944Y-23437269D01*
X11999944Y-23437269D02*
X11904706Y-23456317D01*
X12171373Y-23522984D02*
X12171373Y-23322984D01*
X12171373Y-23513460D02*
X12152325Y-23522984D01*
X12152325Y-23522984D02*
X12114230Y-23522984D01*
X12114230Y-23522984D02*
X12095182Y-23513460D01*
X12095182Y-23513460D02*
X12085658Y-23503936D01*
X12085658Y-23503936D02*
X12076135Y-23484888D01*
X12076135Y-23484888D02*
X12076135Y-23427746D01*
X12076135Y-23427746D02*
X12085658Y-23408698D01*
X12085658Y-23408698D02*
X12095182Y-23399174D01*
X12095182Y-23399174D02*
X12114230Y-23389650D01*
X12114230Y-23389650D02*
X12152325Y-23389650D01*
X12152325Y-23389650D02*
X12171373Y-23399174D01*
X12247563Y-23599174D02*
X12257087Y-23589650D01*
X12257087Y-23589650D02*
X12276135Y-23561079D01*
X12276135Y-23561079D02*
X12285658Y-23542031D01*
X12285658Y-23542031D02*
X12295182Y-23513460D01*
X12295182Y-23513460D02*
X12304706Y-23465841D01*
X12304706Y-23465841D02*
X12304706Y-23427746D01*
X12304706Y-23427746D02*
X12295182Y-23380127D01*
X12295182Y-23380127D02*
X12285658Y-23351555D01*
X12285658Y-23351555D02*
X12276135Y-23332508D01*
X12276135Y-23332508D02*
X12257087Y-23303936D01*
X12257087Y-23303936D02*
X12247563Y-23294412D01*
X3772500Y-23595500D02*
X3772500Y-23795500D01*
X3672500Y-23695500D02*
X3872500Y-23695500D01*
X4114229Y-23586984D02*
X4238039Y-23586984D01*
X4238039Y-23586984D02*
X4171372Y-23663174D01*
X4171372Y-23663174D02*
X4199944Y-23663174D01*
X4199944Y-23663174D02*
X4218991Y-23672698D01*
X4218991Y-23672698D02*
X4228515Y-23682222D01*
X4228515Y-23682222D02*
X4238039Y-23701269D01*
X4238039Y-23701269D02*
X4238039Y-23748888D01*
X4238039Y-23748888D02*
X4228515Y-23767936D01*
X4228515Y-23767936D02*
X4218991Y-23777460D01*
X4218991Y-23777460D02*
X4199944Y-23786984D01*
X4199944Y-23786984D02*
X4142801Y-23786984D01*
X4142801Y-23786984D02*
X4123753Y-23777460D01*
X4123753Y-23777460D02*
X4114229Y-23767936D01*
X4323753Y-23767936D02*
X4333277Y-23777460D01*
X4333277Y-23777460D02*
X4323753Y-23786984D01*
X4323753Y-23786984D02*
X4314229Y-23777460D01*
X4314229Y-23777460D02*
X4323753Y-23767936D01*
X4323753Y-23767936D02*
X4323753Y-23786984D01*
X4457086Y-23586984D02*
X4476134Y-23586984D01*
X4476134Y-23586984D02*
X4495182Y-23596508D01*
X4495182Y-23596508D02*
X4504705Y-23606031D01*
X4504705Y-23606031D02*
X4514229Y-23625079D01*
X4514229Y-23625079D02*
X4523753Y-23663174D01*
X4523753Y-23663174D02*
X4523753Y-23710793D01*
X4523753Y-23710793D02*
X4514229Y-23748888D01*
X4514229Y-23748888D02*
X4504705Y-23767936D01*
X4504705Y-23767936D02*
X4495182Y-23777460D01*
X4495182Y-23777460D02*
X4476134Y-23786984D01*
X4476134Y-23786984D02*
X4457086Y-23786984D01*
X4457086Y-23786984D02*
X4438039Y-23777460D01*
X4438039Y-23777460D02*
X4428515Y-23767936D01*
X4428515Y-23767936D02*
X4418991Y-23748888D01*
X4418991Y-23748888D02*
X4409467Y-23710793D01*
X4409467Y-23710793D02*
X4409467Y-23663174D01*
X4409467Y-23663174D02*
X4418991Y-23625079D01*
X4418991Y-23625079D02*
X4428515Y-23606031D01*
X4428515Y-23606031D02*
X4438039Y-23596508D01*
X4438039Y-23596508D02*
X4457086Y-23586984D01*
X4647563Y-23586984D02*
X4666610Y-23586984D01*
X4666610Y-23586984D02*
X4685658Y-23596508D01*
X4685658Y-23596508D02*
X4695182Y-23606031D01*
X4695182Y-23606031D02*
X4704705Y-23625079D01*
X4704705Y-23625079D02*
X4714229Y-23663174D01*
X4714229Y-23663174D02*
X4714229Y-23710793D01*
X4714229Y-23710793D02*
X4704705Y-23748888D01*
X4704705Y-23748888D02*
X4695182Y-23767936D01*
X4695182Y-23767936D02*
X4685658Y-23777460D01*
X4685658Y-23777460D02*
X4666610Y-23786984D01*
X4666610Y-23786984D02*
X4647563Y-23786984D01*
X4647563Y-23786984D02*
X4628515Y-23777460D01*
X4628515Y-23777460D02*
X4618991Y-23767936D01*
X4618991Y-23767936D02*
X4609467Y-23748888D01*
X4609467Y-23748888D02*
X4599944Y-23710793D01*
X4599944Y-23710793D02*
X4599944Y-23663174D01*
X4599944Y-23663174D02*
X4609467Y-23625079D01*
X4609467Y-23625079D02*
X4618991Y-23606031D01*
X4618991Y-23606031D02*
X4628515Y-23596508D01*
X4628515Y-23596508D02*
X4647563Y-23586984D01*
X4838039Y-23586984D02*
X4857086Y-23586984D01*
X4857086Y-23586984D02*
X4876134Y-23596508D01*
X4876134Y-23596508D02*
X4885658Y-23606031D01*
X4885658Y-23606031D02*
X4895182Y-23625079D01*
X4895182Y-23625079D02*
X4904705Y-23663174D01*
X4904705Y-23663174D02*
X4904705Y-23710793D01*
X4904705Y-23710793D02*
X4895182Y-23748888D01*
X4895182Y-23748888D02*
X4885658Y-23767936D01*
X4885658Y-23767936D02*
X4876134Y-23777460D01*
X4876134Y-23777460D02*
X4857086Y-23786984D01*
X4857086Y-23786984D02*
X4838039Y-23786984D01*
X4838039Y-23786984D02*
X4818991Y-23777460D01*
X4818991Y-23777460D02*
X4809467Y-23767936D01*
X4809467Y-23767936D02*
X4799944Y-23748888D01*
X4799944Y-23748888D02*
X4790420Y-23710793D01*
X4790420Y-23710793D02*
X4790420Y-23663174D01*
X4790420Y-23663174D02*
X4799944Y-23625079D01*
X4799944Y-23625079D02*
X4809467Y-23606031D01*
X4809467Y-23606031D02*
X4818991Y-23596508D01*
X4818991Y-23596508D02*
X4838039Y-23586984D01*
X4990420Y-23786984D02*
X4990420Y-23653650D01*
X4990420Y-23672698D02*
X4999944Y-23663174D01*
X4999944Y-23663174D02*
X5018991Y-23653650D01*
X5018991Y-23653650D02*
X5047563Y-23653650D01*
X5047563Y-23653650D02*
X5066610Y-23663174D01*
X5066610Y-23663174D02*
X5076134Y-23682222D01*
X5076134Y-23682222D02*
X5076134Y-23786984D01*
X5076134Y-23682222D02*
X5085658Y-23663174D01*
X5085658Y-23663174D02*
X5104705Y-23653650D01*
X5104705Y-23653650D02*
X5133277Y-23653650D01*
X5133277Y-23653650D02*
X5152325Y-23663174D01*
X5152325Y-23663174D02*
X5161848Y-23682222D01*
X5161848Y-23682222D02*
X5161848Y-23786984D01*
X5257086Y-23786984D02*
X5257086Y-23653650D01*
X5257086Y-23672698D02*
X5266610Y-23663174D01*
X5266610Y-23663174D02*
X5285658Y-23653650D01*
X5285658Y-23653650D02*
X5314229Y-23653650D01*
X5314229Y-23653650D02*
X5333277Y-23663174D01*
X5333277Y-23663174D02*
X5342801Y-23682222D01*
X5342801Y-23682222D02*
X5342801Y-23786984D01*
X5342801Y-23682222D02*
X5352325Y-23663174D01*
X5352325Y-23663174D02*
X5371372Y-23653650D01*
X5371372Y-23653650D02*
X5399944Y-23653650D01*
X5399944Y-23653650D02*
X5418991Y-23663174D01*
X5418991Y-23663174D02*
X5428515Y-23682222D01*
X5428515Y-23682222D02*
X5428515Y-23786984D01*
X5818991Y-23577460D02*
X5647563Y-23834603D01*
X6076134Y-23586984D02*
X6095182Y-23586984D01*
X6095182Y-23586984D02*
X6114229Y-23596508D01*
X6114229Y-23596508D02*
X6123753Y-23606031D01*
X6123753Y-23606031D02*
X6133277Y-23625079D01*
X6133277Y-23625079D02*
X6142801Y-23663174D01*
X6142801Y-23663174D02*
X6142801Y-23710793D01*
X6142801Y-23710793D02*
X6133277Y-23748888D01*
X6133277Y-23748888D02*
X6123753Y-23767936D01*
X6123753Y-23767936D02*
X6114229Y-23777460D01*
X6114229Y-23777460D02*
X6095182Y-23786984D01*
X6095182Y-23786984D02*
X6076134Y-23786984D01*
X6076134Y-23786984D02*
X6057086Y-23777460D01*
X6057086Y-23777460D02*
X6047563Y-23767936D01*
X6047563Y-23767936D02*
X6038039Y-23748888D01*
X6038039Y-23748888D02*
X6028515Y-23710793D01*
X6028515Y-23710793D02*
X6028515Y-23663174D01*
X6028515Y-23663174D02*
X6038039Y-23625079D01*
X6038039Y-23625079D02*
X6047563Y-23606031D01*
X6047563Y-23606031D02*
X6057086Y-23596508D01*
X6057086Y-23596508D02*
X6076134Y-23586984D01*
X6228515Y-23767936D02*
X6238039Y-23777460D01*
X6238039Y-23777460D02*
X6228515Y-23786984D01*
X6228515Y-23786984D02*
X6218991Y-23777460D01*
X6218991Y-23777460D02*
X6228515Y-23767936D01*
X6228515Y-23767936D02*
X6228515Y-23786984D01*
X6428515Y-23786984D02*
X6314229Y-23786984D01*
X6371372Y-23786984D02*
X6371372Y-23586984D01*
X6371372Y-23586984D02*
X6352325Y-23615555D01*
X6352325Y-23615555D02*
X6333277Y-23634603D01*
X6333277Y-23634603D02*
X6314229Y-23644127D01*
X6618991Y-23786984D02*
X6504706Y-23786984D01*
X6561848Y-23786984D02*
X6561848Y-23586984D01*
X6561848Y-23586984D02*
X6542801Y-23615555D01*
X6542801Y-23615555D02*
X6523753Y-23634603D01*
X6523753Y-23634603D02*
X6504706Y-23644127D01*
X6733277Y-23672698D02*
X6714229Y-23663174D01*
X6714229Y-23663174D02*
X6704706Y-23653650D01*
X6704706Y-23653650D02*
X6695182Y-23634603D01*
X6695182Y-23634603D02*
X6695182Y-23625079D01*
X6695182Y-23625079D02*
X6704706Y-23606031D01*
X6704706Y-23606031D02*
X6714229Y-23596508D01*
X6714229Y-23596508D02*
X6733277Y-23586984D01*
X6733277Y-23586984D02*
X6771372Y-23586984D01*
X6771372Y-23586984D02*
X6790420Y-23596508D01*
X6790420Y-23596508D02*
X6799944Y-23606031D01*
X6799944Y-23606031D02*
X6809467Y-23625079D01*
X6809467Y-23625079D02*
X6809467Y-23634603D01*
X6809467Y-23634603D02*
X6799944Y-23653650D01*
X6799944Y-23653650D02*
X6790420Y-23663174D01*
X6790420Y-23663174D02*
X6771372Y-23672698D01*
X6771372Y-23672698D02*
X6733277Y-23672698D01*
X6733277Y-23672698D02*
X6714229Y-23682222D01*
X6714229Y-23682222D02*
X6704706Y-23691746D01*
X6704706Y-23691746D02*
X6695182Y-23710793D01*
X6695182Y-23710793D02*
X6695182Y-23748888D01*
X6695182Y-23748888D02*
X6704706Y-23767936D01*
X6704706Y-23767936D02*
X6714229Y-23777460D01*
X6714229Y-23777460D02*
X6733277Y-23786984D01*
X6733277Y-23786984D02*
X6771372Y-23786984D01*
X6771372Y-23786984D02*
X6790420Y-23777460D01*
X6790420Y-23777460D02*
X6799944Y-23767936D01*
X6799944Y-23767936D02*
X6809467Y-23748888D01*
X6809467Y-23748888D02*
X6809467Y-23710793D01*
X6809467Y-23710793D02*
X6799944Y-23691746D01*
X6799944Y-23691746D02*
X6790420Y-23682222D01*
X6790420Y-23682222D02*
X6771372Y-23672698D01*
X6999944Y-23786984D02*
X6885658Y-23786984D01*
X6942801Y-23786984D02*
X6942801Y-23586984D01*
X6942801Y-23586984D02*
X6923753Y-23615555D01*
X6923753Y-23615555D02*
X6904706Y-23634603D01*
X6904706Y-23634603D02*
X6885658Y-23644127D01*
X7076134Y-23586984D02*
X7076134Y-23625079D01*
X7152325Y-23586984D02*
X7152325Y-23625079D01*
X7447563Y-23863174D02*
X7438039Y-23853650D01*
X7438039Y-23853650D02*
X7418991Y-23825079D01*
X7418991Y-23825079D02*
X7409468Y-23806031D01*
X7409468Y-23806031D02*
X7399944Y-23777460D01*
X7399944Y-23777460D02*
X7390420Y-23729841D01*
X7390420Y-23729841D02*
X7390420Y-23691746D01*
X7390420Y-23691746D02*
X7399944Y-23644127D01*
X7399944Y-23644127D02*
X7409468Y-23615555D01*
X7409468Y-23615555D02*
X7418991Y-23596508D01*
X7418991Y-23596508D02*
X7438039Y-23567936D01*
X7438039Y-23567936D02*
X7447563Y-23558412D01*
X7514229Y-23606031D02*
X7523753Y-23596508D01*
X7523753Y-23596508D02*
X7542801Y-23586984D01*
X7542801Y-23586984D02*
X7590420Y-23586984D01*
X7590420Y-23586984D02*
X7609468Y-23596508D01*
X7609468Y-23596508D02*
X7618991Y-23606031D01*
X7618991Y-23606031D02*
X7628515Y-23625079D01*
X7628515Y-23625079D02*
X7628515Y-23644127D01*
X7628515Y-23644127D02*
X7618991Y-23672698D01*
X7618991Y-23672698D02*
X7504706Y-23786984D01*
X7504706Y-23786984D02*
X7628515Y-23786984D01*
X7866610Y-23786984D02*
X7866610Y-23586984D01*
X7952325Y-23786984D02*
X7952325Y-23682222D01*
X7952325Y-23682222D02*
X7942801Y-23663174D01*
X7942801Y-23663174D02*
X7923753Y-23653650D01*
X7923753Y-23653650D02*
X7895182Y-23653650D01*
X7895182Y-23653650D02*
X7876134Y-23663174D01*
X7876134Y-23663174D02*
X7866610Y-23672698D01*
X8076134Y-23786984D02*
X8057087Y-23777460D01*
X8057087Y-23777460D02*
X8047563Y-23767936D01*
X8047563Y-23767936D02*
X8038039Y-23748888D01*
X8038039Y-23748888D02*
X8038039Y-23691746D01*
X8038039Y-23691746D02*
X8047563Y-23672698D01*
X8047563Y-23672698D02*
X8057087Y-23663174D01*
X8057087Y-23663174D02*
X8076134Y-23653650D01*
X8076134Y-23653650D02*
X8104706Y-23653650D01*
X8104706Y-23653650D02*
X8123753Y-23663174D01*
X8123753Y-23663174D02*
X8133277Y-23672698D01*
X8133277Y-23672698D02*
X8142801Y-23691746D01*
X8142801Y-23691746D02*
X8142801Y-23748888D01*
X8142801Y-23748888D02*
X8133277Y-23767936D01*
X8133277Y-23767936D02*
X8123753Y-23777460D01*
X8123753Y-23777460D02*
X8104706Y-23786984D01*
X8104706Y-23786984D02*
X8076134Y-23786984D01*
X8257087Y-23786984D02*
X8238039Y-23777460D01*
X8238039Y-23777460D02*
X8228515Y-23758412D01*
X8228515Y-23758412D02*
X8228515Y-23586984D01*
X8409468Y-23777460D02*
X8390420Y-23786984D01*
X8390420Y-23786984D02*
X8352325Y-23786984D01*
X8352325Y-23786984D02*
X8333277Y-23777460D01*
X8333277Y-23777460D02*
X8323753Y-23758412D01*
X8323753Y-23758412D02*
X8323753Y-23682222D01*
X8323753Y-23682222D02*
X8333277Y-23663174D01*
X8333277Y-23663174D02*
X8352325Y-23653650D01*
X8352325Y-23653650D02*
X8390420Y-23653650D01*
X8390420Y-23653650D02*
X8409468Y-23663174D01*
X8409468Y-23663174D02*
X8418992Y-23682222D01*
X8418992Y-23682222D02*
X8418992Y-23701269D01*
X8418992Y-23701269D02*
X8323753Y-23720317D01*
X8495182Y-23777460D02*
X8514230Y-23786984D01*
X8514230Y-23786984D02*
X8552325Y-23786984D01*
X8552325Y-23786984D02*
X8571373Y-23777460D01*
X8571373Y-23777460D02*
X8580896Y-23758412D01*
X8580896Y-23758412D02*
X8580896Y-23748888D01*
X8580896Y-23748888D02*
X8571373Y-23729841D01*
X8571373Y-23729841D02*
X8552325Y-23720317D01*
X8552325Y-23720317D02*
X8523753Y-23720317D01*
X8523753Y-23720317D02*
X8504706Y-23710793D01*
X8504706Y-23710793D02*
X8495182Y-23691746D01*
X8495182Y-23691746D02*
X8495182Y-23682222D01*
X8495182Y-23682222D02*
X8504706Y-23663174D01*
X8504706Y-23663174D02*
X8523753Y-23653650D01*
X8523753Y-23653650D02*
X8552325Y-23653650D01*
X8552325Y-23653650D02*
X8571373Y-23663174D01*
X8647563Y-23863174D02*
X8657087Y-23853650D01*
X8657087Y-23853650D02*
X8676134Y-23825079D01*
X8676134Y-23825079D02*
X8685658Y-23806031D01*
X8685658Y-23806031D02*
X8695182Y-23777460D01*
X8695182Y-23777460D02*
X8704706Y-23729841D01*
X8704706Y-23729841D02*
X8704706Y-23691746D01*
X8704706Y-23691746D02*
X8695182Y-23644127D01*
X8695182Y-23644127D02*
X8685658Y-23615555D01*
X8685658Y-23615555D02*
X8676134Y-23596508D01*
X8676134Y-23596508D02*
X8657087Y-23567936D01*
X8657087Y-23567936D02*
X8647563Y-23558412D01*
X9009468Y-23863174D02*
X8999944Y-23853650D01*
X8999944Y-23853650D02*
X8980896Y-23825079D01*
X8980896Y-23825079D02*
X8971373Y-23806031D01*
X8971373Y-23806031D02*
X8961849Y-23777460D01*
X8961849Y-23777460D02*
X8952325Y-23729841D01*
X8952325Y-23729841D02*
X8952325Y-23691746D01*
X8952325Y-23691746D02*
X8961849Y-23644127D01*
X8961849Y-23644127D02*
X8971373Y-23615555D01*
X8971373Y-23615555D02*
X8980896Y-23596508D01*
X8980896Y-23596508D02*
X8999944Y-23567936D01*
X8999944Y-23567936D02*
X9009468Y-23558412D01*
X9085658Y-23653650D02*
X9085658Y-23786984D01*
X9085658Y-23672698D02*
X9095182Y-23663174D01*
X9095182Y-23663174D02*
X9114230Y-23653650D01*
X9114230Y-23653650D02*
X9142801Y-23653650D01*
X9142801Y-23653650D02*
X9161849Y-23663174D01*
X9161849Y-23663174D02*
X9171373Y-23682222D01*
X9171373Y-23682222D02*
X9171373Y-23786984D01*
X9295182Y-23786984D02*
X9276134Y-23777460D01*
X9276134Y-23777460D02*
X9266611Y-23767936D01*
X9266611Y-23767936D02*
X9257087Y-23748888D01*
X9257087Y-23748888D02*
X9257087Y-23691746D01*
X9257087Y-23691746D02*
X9266611Y-23672698D01*
X9266611Y-23672698D02*
X9276134Y-23663174D01*
X9276134Y-23663174D02*
X9295182Y-23653650D01*
X9295182Y-23653650D02*
X9323754Y-23653650D01*
X9323754Y-23653650D02*
X9342801Y-23663174D01*
X9342801Y-23663174D02*
X9352325Y-23672698D01*
X9352325Y-23672698D02*
X9361849Y-23691746D01*
X9361849Y-23691746D02*
X9361849Y-23748888D01*
X9361849Y-23748888D02*
X9352325Y-23767936D01*
X9352325Y-23767936D02*
X9342801Y-23777460D01*
X9342801Y-23777460D02*
X9323754Y-23786984D01*
X9323754Y-23786984D02*
X9295182Y-23786984D01*
X9418992Y-23653650D02*
X9495182Y-23653650D01*
X9447563Y-23586984D02*
X9447563Y-23758412D01*
X9447563Y-23758412D02*
X9457087Y-23777460D01*
X9457087Y-23777460D02*
X9476134Y-23786984D01*
X9476134Y-23786984D02*
X9495182Y-23786984D01*
X9714230Y-23653650D02*
X9714230Y-23853650D01*
X9714230Y-23663174D02*
X9733277Y-23653650D01*
X9733277Y-23653650D02*
X9771373Y-23653650D01*
X9771373Y-23653650D02*
X9790420Y-23663174D01*
X9790420Y-23663174D02*
X9799944Y-23672698D01*
X9799944Y-23672698D02*
X9809468Y-23691746D01*
X9809468Y-23691746D02*
X9809468Y-23748888D01*
X9809468Y-23748888D02*
X9799944Y-23767936D01*
X9799944Y-23767936D02*
X9790420Y-23777460D01*
X9790420Y-23777460D02*
X9771373Y-23786984D01*
X9771373Y-23786984D02*
X9733277Y-23786984D01*
X9733277Y-23786984D02*
X9714230Y-23777460D01*
X9923754Y-23786984D02*
X9904706Y-23777460D01*
X9904706Y-23777460D02*
X9895182Y-23758412D01*
X9895182Y-23758412D02*
X9895182Y-23586984D01*
X10085658Y-23786984D02*
X10085658Y-23682222D01*
X10085658Y-23682222D02*
X10076135Y-23663174D01*
X10076135Y-23663174D02*
X10057087Y-23653650D01*
X10057087Y-23653650D02*
X10018992Y-23653650D01*
X10018992Y-23653650D02*
X9999944Y-23663174D01*
X10085658Y-23777460D02*
X10066611Y-23786984D01*
X10066611Y-23786984D02*
X10018992Y-23786984D01*
X10018992Y-23786984D02*
X9999944Y-23777460D01*
X9999944Y-23777460D02*
X9990420Y-23758412D01*
X9990420Y-23758412D02*
X9990420Y-23739365D01*
X9990420Y-23739365D02*
X9999944Y-23720317D01*
X9999944Y-23720317D02*
X10018992Y-23710793D01*
X10018992Y-23710793D02*
X10066611Y-23710793D01*
X10066611Y-23710793D02*
X10085658Y-23701269D01*
X10152325Y-23653650D02*
X10228515Y-23653650D01*
X10180896Y-23586984D02*
X10180896Y-23758412D01*
X10180896Y-23758412D02*
X10190420Y-23777460D01*
X10190420Y-23777460D02*
X10209468Y-23786984D01*
X10209468Y-23786984D02*
X10228515Y-23786984D01*
X10371373Y-23777460D02*
X10352325Y-23786984D01*
X10352325Y-23786984D02*
X10314230Y-23786984D01*
X10314230Y-23786984D02*
X10295182Y-23777460D01*
X10295182Y-23777460D02*
X10285658Y-23758412D01*
X10285658Y-23758412D02*
X10285658Y-23682222D01*
X10285658Y-23682222D02*
X10295182Y-23663174D01*
X10295182Y-23663174D02*
X10314230Y-23653650D01*
X10314230Y-23653650D02*
X10352325Y-23653650D01*
X10352325Y-23653650D02*
X10371373Y-23663174D01*
X10371373Y-23663174D02*
X10380896Y-23682222D01*
X10380896Y-23682222D02*
X10380896Y-23701269D01*
X10380896Y-23701269D02*
X10285658Y-23720317D01*
X10552325Y-23786984D02*
X10552325Y-23586984D01*
X10552325Y-23777460D02*
X10533277Y-23786984D01*
X10533277Y-23786984D02*
X10495182Y-23786984D01*
X10495182Y-23786984D02*
X10476135Y-23777460D01*
X10476135Y-23777460D02*
X10466611Y-23767936D01*
X10466611Y-23767936D02*
X10457087Y-23748888D01*
X10457087Y-23748888D02*
X10457087Y-23691746D01*
X10457087Y-23691746D02*
X10466611Y-23672698D01*
X10466611Y-23672698D02*
X10476135Y-23663174D01*
X10476135Y-23663174D02*
X10495182Y-23653650D01*
X10495182Y-23653650D02*
X10533277Y-23653650D01*
X10533277Y-23653650D02*
X10552325Y-23663174D01*
X10628516Y-23863174D02*
X10638039Y-23853650D01*
X10638039Y-23853650D02*
X10657087Y-23825079D01*
X10657087Y-23825079D02*
X10666611Y-23806031D01*
X10666611Y-23806031D02*
X10676135Y-23777460D01*
X10676135Y-23777460D02*
X10685658Y-23729841D01*
X10685658Y-23729841D02*
X10685658Y-23691746D01*
X10685658Y-23691746D02*
X10676135Y-23644127D01*
X10676135Y-23644127D02*
X10666611Y-23615555D01*
X10666611Y-23615555D02*
X10657087Y-23596508D01*
X10657087Y-23596508D02*
X10638039Y-23567936D01*
X10638039Y-23567936D02*
X10628516Y-23558412D01*
M02*
