%TF.GenerationSoftware,KiCad,Pcbnew,8.0.5-8.0.5-0~ubuntu24.04.1*%
%TF.CreationDate,2024-09-18T19:03:42+02:00*%
%TF.ProjectId,v_ggtermometer,76e46767-7465-4726-9d6f-6d657465722e,rev?*%
%TF.SameCoordinates,Original*%
%TF.FileFunction,Soldermask,Bot*%
%TF.FilePolarity,Negative*%
%FSLAX46Y46*%
G04 Gerber Fmt 4.6, Leading zero omitted, Abs format (unit mm)*
G04 Created by KiCad (PCBNEW 8.0.5-8.0.5-0~ubuntu24.04.1) date 2024-09-18 19:03:42*
%MOMM*%
%LPD*%
G01*
G04 APERTURE LIST*
G04 Aperture macros list*
%AMRoundRect*
0 Rectangle with rounded corners*
0 $1 Rounding radius*
0 $2 $3 $4 $5 $6 $7 $8 $9 X,Y pos of 4 corners*
0 Add a 4 corners polygon primitive as box body*
4,1,4,$2,$3,$4,$5,$6,$7,$8,$9,$2,$3,0*
0 Add four circle primitives for the rounded corners*
1,1,$1+$1,$2,$3*
1,1,$1+$1,$4,$5*
1,1,$1+$1,$6,$7*
1,1,$1+$1,$8,$9*
0 Add four rect primitives between the rounded corners*
20,1,$1+$1,$2,$3,$4,$5,0*
20,1,$1+$1,$4,$5,$6,$7,0*
20,1,$1+$1,$6,$7,$8,$9,0*
20,1,$1+$1,$8,$9,$2,$3,0*%
G04 Aperture macros list end*
%ADD10C,0.000000*%
%ADD11C,1.000000*%
%ADD12C,5.000000*%
%ADD13C,2.000000*%
%ADD14C,1.700000*%
%ADD15O,1.700000X1.700000*%
%ADD16R,1.700000X1.700000*%
%ADD17RoundRect,0.250000X0.600000X0.750000X-0.600000X0.750000X-0.600000X-0.750000X0.600000X-0.750000X0*%
%ADD18O,1.700000X2.000000*%
%ADD19C,2.500000*%
%ADD20C,0.650000*%
%ADD21R,1.240000X0.600000*%
%ADD22R,1.240000X0.300000*%
%ADD23O,1.800000X1.000000*%
%ADD24O,2.100000X1.000000*%
G04 APERTURE END LIST*
D10*
G36*
X62230322Y-218462505D02*
G01*
X62247436Y-218464144D01*
X62264516Y-218466134D01*
X62281564Y-218468415D01*
X62315577Y-218473614D01*
X62349501Y-218479268D01*
X62350735Y-218479626D01*
X62352008Y-218479920D01*
X62353313Y-218480162D01*
X62354642Y-218480368D01*
X62360030Y-218481109D01*
X62361355Y-218481346D01*
X62362654Y-218481631D01*
X62363921Y-218481981D01*
X62365146Y-218482407D01*
X62365741Y-218482654D01*
X62366322Y-218482926D01*
X62366889Y-218483225D01*
X62367440Y-218483551D01*
X62367975Y-218483908D01*
X62368493Y-218484297D01*
X62368992Y-218484720D01*
X62369472Y-218485178D01*
X62369556Y-218485517D01*
X62369630Y-218485857D01*
X62369691Y-218486197D01*
X62369738Y-218486535D01*
X62369769Y-218486871D01*
X62369782Y-218487203D01*
X62369776Y-218487531D01*
X62369748Y-218487855D01*
X62369696Y-218488174D01*
X62369661Y-218488331D01*
X62369620Y-218488487D01*
X62369571Y-218488641D01*
X62369516Y-218488793D01*
X62369454Y-218488943D01*
X62369384Y-218489092D01*
X62369306Y-218489238D01*
X62369221Y-218489382D01*
X62369127Y-218489524D01*
X62369025Y-218489664D01*
X62368915Y-218489801D01*
X62368796Y-218489936D01*
X62368667Y-218490068D01*
X62368530Y-218490198D01*
X62365259Y-218492301D01*
X62361940Y-218494328D01*
X62358576Y-218496281D01*
X62355170Y-218498161D01*
X62348242Y-218501714D01*
X62341175Y-218505000D01*
X62333992Y-218508037D01*
X62326714Y-218510838D01*
X62319361Y-218513421D01*
X62311956Y-218515800D01*
X62301469Y-218518621D01*
X62290904Y-218521121D01*
X62280269Y-218523301D01*
X62269575Y-218525162D01*
X62258830Y-218526706D01*
X62248043Y-218527934D01*
X62237225Y-218528848D01*
X62226383Y-218529447D01*
X62215527Y-218529735D01*
X62204667Y-218529711D01*
X62193812Y-218529378D01*
X62182970Y-218528736D01*
X62172152Y-218527787D01*
X62161366Y-218526533D01*
X62150622Y-218524973D01*
X62139928Y-218523111D01*
X62134568Y-218522148D01*
X62129234Y-218521065D01*
X62123928Y-218519864D01*
X62118653Y-218518545D01*
X62113410Y-218517109D01*
X62108201Y-218515558D01*
X62103029Y-218513892D01*
X62097895Y-218512113D01*
X62092801Y-218510221D01*
X62087750Y-218508218D01*
X62082743Y-218506104D01*
X62077783Y-218503881D01*
X62072870Y-218501549D01*
X62068008Y-218499110D01*
X62063198Y-218496565D01*
X62058442Y-218493914D01*
X62058018Y-218493769D01*
X62057598Y-218493595D01*
X62057185Y-218493393D01*
X62056780Y-218493164D01*
X62056385Y-218492911D01*
X62056002Y-218492636D01*
X62055631Y-218492339D01*
X62055276Y-218492023D01*
X62054938Y-218491689D01*
X62054618Y-218491339D01*
X62054319Y-218490976D01*
X62054041Y-218490599D01*
X62053787Y-218490212D01*
X62053557Y-218489816D01*
X62053355Y-218489413D01*
X62053182Y-218489004D01*
X62053039Y-218488592D01*
X62052927Y-218488177D01*
X62052850Y-218487762D01*
X62052808Y-218487348D01*
X62052803Y-218486938D01*
X62052837Y-218486532D01*
X62052912Y-218486132D01*
X62053029Y-218485741D01*
X62053189Y-218485360D01*
X62053396Y-218484991D01*
X62053650Y-218484635D01*
X62053952Y-218484294D01*
X62054306Y-218483970D01*
X62054712Y-218483665D01*
X62055172Y-218483379D01*
X62055688Y-218483116D01*
X62064209Y-218481108D01*
X62072779Y-218479295D01*
X62081388Y-218477643D01*
X62090025Y-218476115D01*
X62124659Y-218470525D01*
X62146710Y-218467506D01*
X62168802Y-218464649D01*
X62179868Y-218463426D01*
X62190950Y-218462417D01*
X62202050Y-218461681D01*
X62213169Y-218461275D01*
X62230322Y-218462505D01*
G37*
G36*
X62244689Y-217802280D02*
G01*
X62273687Y-217805620D01*
X62288288Y-217807785D01*
X62302936Y-217810318D01*
X62317615Y-217813244D01*
X62332310Y-217816590D01*
X62347006Y-217820384D01*
X62361686Y-217824651D01*
X62376336Y-217829418D01*
X62390940Y-217834713D01*
X62405483Y-217840562D01*
X62419948Y-217846992D01*
X62434321Y-217854029D01*
X62448586Y-217861701D01*
X62458637Y-217867576D01*
X62468560Y-217873812D01*
X62478348Y-217880404D01*
X62487995Y-217887351D01*
X62497495Y-217894648D01*
X62506842Y-217902294D01*
X62516030Y-217910284D01*
X62525053Y-217918615D01*
X62533904Y-217927285D01*
X62542578Y-217936290D01*
X62551069Y-217945628D01*
X62559370Y-217955295D01*
X62567475Y-217965288D01*
X62575379Y-217975603D01*
X62583075Y-217986239D01*
X62590557Y-217997191D01*
X62623822Y-217991631D01*
X62656995Y-217988129D01*
X62689981Y-217986660D01*
X62722682Y-217987197D01*
X62755003Y-217989713D01*
X62786847Y-217994181D01*
X62818117Y-218000573D01*
X62848717Y-218008864D01*
X62878550Y-218019026D01*
X62907521Y-218031032D01*
X62935532Y-218044855D01*
X62962488Y-218060468D01*
X62988291Y-218077846D01*
X63012845Y-218096959D01*
X63036054Y-218117783D01*
X63057822Y-218140289D01*
X63076620Y-218162828D01*
X63093676Y-218186732D01*
X63108946Y-218211924D01*
X63122389Y-218238327D01*
X63133962Y-218265862D01*
X63143624Y-218294453D01*
X63151333Y-218324023D01*
X63157046Y-218354493D01*
X63160722Y-218385787D01*
X63162319Y-218417827D01*
X63161795Y-218450535D01*
X63159107Y-218483835D01*
X63154215Y-218517648D01*
X63147075Y-218551898D01*
X63137646Y-218586507D01*
X63125886Y-218621397D01*
X63211245Y-218635087D01*
X63293869Y-218650421D01*
X63334027Y-218658855D01*
X63373345Y-218667879D01*
X63411773Y-218677554D01*
X63449259Y-218687939D01*
X63485749Y-218699094D01*
X63521194Y-218711080D01*
X63555540Y-218723955D01*
X63588737Y-218737780D01*
X63620731Y-218752615D01*
X63651472Y-218768519D01*
X63680907Y-218785553D01*
X63708985Y-218803776D01*
X63725148Y-218815408D01*
X63740803Y-218827732D01*
X63755894Y-218840733D01*
X63770365Y-218854395D01*
X63784160Y-218868703D01*
X63797224Y-218883642D01*
X63809499Y-218899195D01*
X63820930Y-218915349D01*
X63831461Y-218932087D01*
X63841036Y-218949394D01*
X63849599Y-218967254D01*
X63857094Y-218985653D01*
X63863464Y-219004574D01*
X63868654Y-219024003D01*
X63872607Y-219043923D01*
X63875268Y-219064320D01*
X63876655Y-219085005D01*
X63876836Y-219105803D01*
X63875825Y-219126723D01*
X63873638Y-219147771D01*
X63870290Y-219168957D01*
X63865798Y-219190288D01*
X63860177Y-219211771D01*
X63853443Y-219233416D01*
X63845610Y-219255228D01*
X63836695Y-219277217D01*
X63826714Y-219299389D01*
X63815681Y-219321754D01*
X63803613Y-219344318D01*
X63790524Y-219367089D01*
X63776432Y-219390076D01*
X63761350Y-219413286D01*
X63760558Y-219414456D01*
X63759749Y-219415615D01*
X63758924Y-219416763D01*
X63758084Y-219417899D01*
X63757227Y-219419023D01*
X63756356Y-219420135D01*
X63755468Y-219421235D01*
X63754565Y-219422322D01*
X63729429Y-219451051D01*
X63703967Y-219477988D01*
X63678203Y-219503146D01*
X63652163Y-219526540D01*
X63625872Y-219548182D01*
X63599354Y-219568084D01*
X63572634Y-219586261D01*
X63545737Y-219602725D01*
X63518688Y-219617490D01*
X63491511Y-219630567D01*
X63464231Y-219641972D01*
X63436874Y-219651715D01*
X63409463Y-219659812D01*
X63382024Y-219666274D01*
X63354581Y-219671115D01*
X63327160Y-219674347D01*
X63299903Y-219676024D01*
X63272948Y-219676234D01*
X63246305Y-219675041D01*
X63219987Y-219672513D01*
X63194006Y-219668717D01*
X63168374Y-219663718D01*
X63143104Y-219657583D01*
X63118206Y-219650378D01*
X63093695Y-219642170D01*
X63069580Y-219633025D01*
X63045876Y-219623009D01*
X63022593Y-219612189D01*
X62999745Y-219600631D01*
X62977342Y-219588402D01*
X62955398Y-219575567D01*
X62933923Y-219562194D01*
X62924048Y-219555765D01*
X62914255Y-219549207D01*
X62904544Y-219542530D01*
X62894910Y-219535743D01*
X62885351Y-219528858D01*
X62875865Y-219521882D01*
X62857096Y-219507700D01*
X62865854Y-219547831D01*
X62872920Y-219586966D01*
X62878313Y-219625096D01*
X62882053Y-219662210D01*
X62884156Y-219698299D01*
X62884641Y-219733353D01*
X62883527Y-219767362D01*
X62880833Y-219800315D01*
X62876576Y-219832204D01*
X62870775Y-219863018D01*
X62863449Y-219892747D01*
X62854615Y-219921381D01*
X62844293Y-219948911D01*
X62832501Y-219975326D01*
X62819257Y-220000616D01*
X62804579Y-220024773D01*
X62790930Y-220044359D01*
X62776272Y-220062868D01*
X62760666Y-220080284D01*
X62744170Y-220096590D01*
X62726844Y-220111769D01*
X62708748Y-220125803D01*
X62689939Y-220138677D01*
X62670479Y-220150373D01*
X62650425Y-220160874D01*
X62629838Y-220170164D01*
X62608776Y-220178225D01*
X62587299Y-220185041D01*
X62565466Y-220190595D01*
X62543337Y-220194870D01*
X62520970Y-220197848D01*
X62498425Y-220199514D01*
X62480172Y-220199913D01*
X62461886Y-220199497D01*
X62443580Y-220198278D01*
X62425269Y-220196267D01*
X62406968Y-220193474D01*
X62388690Y-220189909D01*
X62370451Y-220185585D01*
X62352265Y-220180512D01*
X62334146Y-220174700D01*
X62316109Y-220168161D01*
X62298167Y-220160906D01*
X62280336Y-220152944D01*
X62262630Y-220144288D01*
X62245063Y-220134948D01*
X62227650Y-220124934D01*
X62210405Y-220114258D01*
X62193172Y-220124932D01*
X62175772Y-220134944D01*
X62158219Y-220144283D01*
X62140527Y-220152939D01*
X62122711Y-220160901D01*
X62104786Y-220168156D01*
X62086765Y-220174696D01*
X62068663Y-220180508D01*
X62050495Y-220185582D01*
X62032274Y-220189907D01*
X62014016Y-220193472D01*
X61995734Y-220196266D01*
X61977443Y-220198278D01*
X61959157Y-220199498D01*
X61940890Y-220199913D01*
X61922658Y-220199514D01*
X61900138Y-220197846D01*
X61877798Y-220194861D01*
X61855695Y-220190578D01*
X61833890Y-220185013D01*
X61812443Y-220178184D01*
X61791413Y-220170108D01*
X61770858Y-220160803D01*
X61750840Y-220150285D01*
X61731416Y-220138572D01*
X61712648Y-220125681D01*
X61694593Y-220111629D01*
X61677312Y-220096433D01*
X61660864Y-220080111D01*
X61645308Y-220062680D01*
X61630705Y-220044158D01*
X61617113Y-220024560D01*
X61602512Y-220000406D01*
X61589343Y-219975122D01*
X61577624Y-219948718D01*
X61567373Y-219921202D01*
X61558608Y-219892586D01*
X61551348Y-219862878D01*
X61545610Y-219832088D01*
X61541412Y-219800227D01*
X61538774Y-219767303D01*
X61537712Y-219733327D01*
X61537719Y-219732926D01*
X61743172Y-219732926D01*
X61743642Y-219752833D01*
X61744800Y-219771873D01*
X61749048Y-219807346D01*
X61755654Y-219839336D01*
X61759759Y-219854021D01*
X61764355Y-219867831D01*
X61769408Y-219880765D01*
X61774886Y-219892820D01*
X61780756Y-219903997D01*
X61786985Y-219914293D01*
X61793860Y-219924322D01*
X61801003Y-219933646D01*
X61808419Y-219942276D01*
X61816113Y-219950227D01*
X61824088Y-219957510D01*
X61832350Y-219964138D01*
X61840902Y-219970124D01*
X61849749Y-219975480D01*
X61858895Y-219980219D01*
X61868344Y-219984354D01*
X61878102Y-219987897D01*
X61888172Y-219990861D01*
X61898559Y-219993258D01*
X61909267Y-219995101D01*
X61920301Y-219996403D01*
X61931665Y-219997176D01*
X61943372Y-219997371D01*
X61955418Y-219996916D01*
X61967778Y-219995796D01*
X61980425Y-219993994D01*
X61993336Y-219991491D01*
X62006485Y-219988271D01*
X62019846Y-219984317D01*
X62033394Y-219979611D01*
X62047105Y-219974137D01*
X62060952Y-219967878D01*
X62074912Y-219960815D01*
X62088958Y-219952933D01*
X62103066Y-219944214D01*
X62117209Y-219934641D01*
X62131364Y-219924196D01*
X62145505Y-219912863D01*
X62148963Y-219911260D01*
X62152476Y-219909790D01*
X62156039Y-219908454D01*
X62159648Y-219907253D01*
X62163299Y-219906189D01*
X62166990Y-219905263D01*
X62170715Y-219904475D01*
X62174471Y-219903827D01*
X62176576Y-219902736D01*
X62178703Y-219901696D01*
X62180853Y-219900707D01*
X62183023Y-219899768D01*
X62185214Y-219898881D01*
X62187423Y-219898046D01*
X62189652Y-219897263D01*
X62191897Y-219896532D01*
X62194159Y-219895853D01*
X62196436Y-219895228D01*
X62198728Y-219894655D01*
X62201034Y-219894136D01*
X62203352Y-219893671D01*
X62205682Y-219893259D01*
X62208023Y-219892902D01*
X62210375Y-219892600D01*
X62212728Y-219892902D01*
X62215071Y-219893258D01*
X62217403Y-219893669D01*
X62219723Y-219894134D01*
X62222031Y-219894653D01*
X62224325Y-219895225D01*
X62226604Y-219895850D01*
X62228868Y-219896529D01*
X62231115Y-219897260D01*
X62233345Y-219898043D01*
X62235557Y-219898879D01*
X62237749Y-219899766D01*
X62239921Y-219900704D01*
X62242073Y-219901694D01*
X62244202Y-219902735D01*
X62246308Y-219903826D01*
X62250064Y-219904474D01*
X62253790Y-219905262D01*
X62257480Y-219906189D01*
X62261132Y-219907253D01*
X62264741Y-219908454D01*
X62268304Y-219909790D01*
X62271816Y-219911260D01*
X62275275Y-219912863D01*
X62289409Y-219924191D01*
X62303562Y-219934632D01*
X62317707Y-219944203D01*
X62331819Y-219952921D01*
X62345873Y-219960803D01*
X62359844Y-219967865D01*
X62373708Y-219974126D01*
X62387437Y-219979602D01*
X62401008Y-219984309D01*
X62414396Y-219988265D01*
X62427574Y-219991487D01*
X62440518Y-219993992D01*
X62453203Y-219995796D01*
X62465603Y-219996917D01*
X62477693Y-219997371D01*
X62489449Y-219997176D01*
X62500863Y-219996400D01*
X62511950Y-219995094D01*
X62522713Y-219993244D01*
X62533155Y-219990838D01*
X62543282Y-219987863D01*
X62553098Y-219984308D01*
X62557889Y-219982309D01*
X62562605Y-219980161D01*
X62567244Y-219977861D01*
X62571808Y-219975408D01*
X62576297Y-219972800D01*
X62580712Y-219970037D01*
X62585053Y-219967116D01*
X62589320Y-219964036D01*
X62593514Y-219960796D01*
X62597636Y-219957393D01*
X62601686Y-219953827D01*
X62605664Y-219950096D01*
X62609572Y-219946197D01*
X62613409Y-219942131D01*
X62620874Y-219933487D01*
X62628063Y-219924151D01*
X62634980Y-219914111D01*
X62639968Y-219906042D01*
X62644746Y-219897430D01*
X62649298Y-219888276D01*
X62653607Y-219878580D01*
X62657656Y-219868341D01*
X62661428Y-219857561D01*
X62664906Y-219846240D01*
X62668074Y-219834378D01*
X62670915Y-219821975D01*
X62673411Y-219809032D01*
X62675547Y-219795549D01*
X62677305Y-219781527D01*
X62678669Y-219766965D01*
X62679621Y-219751865D01*
X62680146Y-219736226D01*
X62680225Y-219720049D01*
X62679413Y-219694227D01*
X62677397Y-219667108D01*
X62674125Y-219638699D01*
X62669547Y-219609006D01*
X62663611Y-219578036D01*
X62656264Y-219545794D01*
X62647456Y-219512288D01*
X62637136Y-219477524D01*
X62625250Y-219441507D01*
X62611749Y-219404245D01*
X62596581Y-219365743D01*
X62579693Y-219326009D01*
X62561035Y-219285048D01*
X62540554Y-219242867D01*
X62518201Y-219199473D01*
X62493922Y-219154871D01*
X62461299Y-219162467D01*
X62428111Y-219169547D01*
X62394264Y-219175965D01*
X62359664Y-219181576D01*
X62324217Y-219186232D01*
X62287831Y-219189790D01*
X62250411Y-219192103D01*
X62211865Y-219193025D01*
X62211408Y-219192963D01*
X62210952Y-219193026D01*
X62191535Y-219192747D01*
X62172412Y-219192103D01*
X62135000Y-219189789D01*
X62098622Y-219186231D01*
X62063184Y-219181573D01*
X62028593Y-219175962D01*
X61994754Y-219169544D01*
X61961573Y-219162465D01*
X61928957Y-219154871D01*
X61908754Y-219191826D01*
X61889897Y-219227942D01*
X61872354Y-219263217D01*
X61856091Y-219297651D01*
X61841075Y-219331240D01*
X61827275Y-219363985D01*
X61814656Y-219395883D01*
X61803185Y-219426934D01*
X61792831Y-219457135D01*
X61783560Y-219486487D01*
X61775339Y-219514986D01*
X61768135Y-219542633D01*
X61761915Y-219569424D01*
X61756646Y-219595360D01*
X61752296Y-219620439D01*
X61748832Y-219644659D01*
X61746220Y-219668019D01*
X61744428Y-219690518D01*
X61743423Y-219712154D01*
X61743172Y-219732926D01*
X61537719Y-219732926D01*
X61538246Y-219698308D01*
X61540393Y-219662256D01*
X61544172Y-219625181D01*
X61549600Y-219587092D01*
X61556696Y-219548000D01*
X61565478Y-219507913D01*
X61546786Y-219522036D01*
X61537342Y-219528985D01*
X61527827Y-219535844D01*
X61518237Y-219542605D01*
X61508570Y-219549257D01*
X61498820Y-219555790D01*
X61488985Y-219562194D01*
X61467511Y-219575567D01*
X61445567Y-219588402D01*
X61423164Y-219600631D01*
X61400315Y-219612189D01*
X61377033Y-219623009D01*
X61353328Y-219633025D01*
X61329214Y-219642170D01*
X61304702Y-219650378D01*
X61279805Y-219657583D01*
X61254534Y-219663718D01*
X61228903Y-219668717D01*
X61202922Y-219672513D01*
X61176604Y-219675041D01*
X61149961Y-219676234D01*
X61123005Y-219676024D01*
X61095749Y-219674347D01*
X61068328Y-219671114D01*
X61040885Y-219666274D01*
X61013446Y-219659811D01*
X60986035Y-219651715D01*
X60958678Y-219641971D01*
X60931398Y-219630567D01*
X60904221Y-219617489D01*
X60877172Y-219602725D01*
X60850274Y-219586261D01*
X60823555Y-219568084D01*
X60797037Y-219548181D01*
X60770745Y-219526540D01*
X60744706Y-219503146D01*
X60718942Y-219477987D01*
X60693480Y-219451050D01*
X60668344Y-219422322D01*
X60667441Y-219421235D01*
X60666553Y-219420135D01*
X60665681Y-219419023D01*
X60664825Y-219417899D01*
X60663984Y-219416763D01*
X60663159Y-219415615D01*
X60662351Y-219414456D01*
X60661558Y-219413286D01*
X60646477Y-219390076D01*
X60632384Y-219367089D01*
X60619296Y-219344317D01*
X60607227Y-219321753D01*
X60596195Y-219299389D01*
X60586213Y-219277216D01*
X60577298Y-219255228D01*
X60569466Y-219233415D01*
X60562731Y-219211771D01*
X60557110Y-219190288D01*
X60552618Y-219168957D01*
X60549271Y-219147771D01*
X60547084Y-219126722D01*
X60546073Y-219105803D01*
X60546191Y-219092202D01*
X60748692Y-219092202D01*
X60748699Y-219101214D01*
X60749279Y-219110863D01*
X60750471Y-219121151D01*
X60752315Y-219132083D01*
X60754851Y-219143660D01*
X60758117Y-219155886D01*
X60762153Y-219168764D01*
X60766999Y-219182297D01*
X60772694Y-219196488D01*
X60779277Y-219211340D01*
X60786788Y-219226857D01*
X60795266Y-219243040D01*
X60804750Y-219259894D01*
X60815281Y-219277422D01*
X60826898Y-219295625D01*
X60846838Y-219318234D01*
X60866471Y-219338990D01*
X60885803Y-219357960D01*
X60904844Y-219375212D01*
X60923602Y-219390812D01*
X60942085Y-219404828D01*
X60960301Y-219417327D01*
X60978260Y-219428376D01*
X60995970Y-219438042D01*
X61013439Y-219446392D01*
X61030676Y-219453493D01*
X61047689Y-219459412D01*
X61064486Y-219464218D01*
X61081076Y-219467976D01*
X61097468Y-219470753D01*
X61113670Y-219472618D01*
X61129999Y-219473613D01*
X61146383Y-219473716D01*
X61162818Y-219472945D01*
X61179303Y-219471318D01*
X61195832Y-219468854D01*
X61212403Y-219465572D01*
X61229012Y-219461488D01*
X61245655Y-219456623D01*
X61262330Y-219450994D01*
X61279032Y-219444619D01*
X61295759Y-219437517D01*
X61312506Y-219429707D01*
X61329270Y-219421206D01*
X61346048Y-219412033D01*
X61362836Y-219402206D01*
X61379631Y-219391743D01*
X61404598Y-219375074D01*
X61428992Y-219357525D01*
X61452820Y-219339190D01*
X61476089Y-219320163D01*
X61498807Y-219300538D01*
X61520978Y-219280408D01*
X61542611Y-219259866D01*
X61563712Y-219239006D01*
X61604345Y-219196705D01*
X61642930Y-219154255D01*
X61679521Y-219112403D01*
X61714174Y-219071897D01*
X61714119Y-219071866D01*
X62708704Y-219071866D01*
X62743358Y-219112374D01*
X62779952Y-219154230D01*
X62818541Y-219196684D01*
X62859177Y-219238989D01*
X62880280Y-219259851D01*
X62901915Y-219280395D01*
X62924089Y-219300528D01*
X62946809Y-219320155D01*
X62970081Y-219339184D01*
X62993912Y-219357521D01*
X63018308Y-219375072D01*
X63043278Y-219391743D01*
X63060072Y-219402206D01*
X63076861Y-219412033D01*
X63093639Y-219421206D01*
X63110403Y-219429707D01*
X63127150Y-219437518D01*
X63143876Y-219444619D01*
X63160579Y-219450994D01*
X63177253Y-219456623D01*
X63193897Y-219461489D01*
X63210506Y-219465572D01*
X63227076Y-219468854D01*
X63243606Y-219471318D01*
X63260090Y-219472945D01*
X63276526Y-219473716D01*
X63292910Y-219473613D01*
X63309238Y-219472618D01*
X63325440Y-219470753D01*
X63341832Y-219467976D01*
X63358423Y-219464218D01*
X63375220Y-219459412D01*
X63392233Y-219453493D01*
X63409469Y-219446392D01*
X63426938Y-219438042D01*
X63444648Y-219428376D01*
X63462607Y-219417327D01*
X63480824Y-219404828D01*
X63499307Y-219390812D01*
X63518065Y-219375212D01*
X63537106Y-219357960D01*
X63556438Y-219338990D01*
X63576070Y-219318234D01*
X63596011Y-219295625D01*
X63607627Y-219277422D01*
X63618158Y-219259894D01*
X63627643Y-219243040D01*
X63636121Y-219226857D01*
X63643632Y-219211340D01*
X63650215Y-219196488D01*
X63655910Y-219182297D01*
X63660755Y-219168764D01*
X63664792Y-219155886D01*
X63668058Y-219143660D01*
X63670593Y-219132083D01*
X63672437Y-219121151D01*
X63673630Y-219110863D01*
X63674210Y-219101214D01*
X63674217Y-219092202D01*
X63673691Y-219083824D01*
X63672705Y-219075750D01*
X63671320Y-219067938D01*
X63669507Y-219060360D01*
X63667237Y-219052989D01*
X63664483Y-219045798D01*
X63661217Y-219038758D01*
X63657411Y-219031842D01*
X63653037Y-219025023D01*
X63648066Y-219018273D01*
X63642471Y-219011565D01*
X63636223Y-219004870D01*
X63629295Y-218998161D01*
X63621658Y-218991411D01*
X63613285Y-218984592D01*
X63604147Y-218977676D01*
X63594216Y-218970636D01*
X63573708Y-218957655D01*
X63550597Y-218945081D01*
X63525001Y-218932913D01*
X63497039Y-218921150D01*
X63466830Y-218909791D01*
X63434493Y-218898834D01*
X63363911Y-218878124D01*
X63286244Y-218859012D01*
X63202443Y-218841488D01*
X63113459Y-218825543D01*
X63020245Y-218811169D01*
X63002862Y-218833202D01*
X62985097Y-218854337D01*
X62966971Y-218874604D01*
X62948507Y-218894031D01*
X62929727Y-218912645D01*
X62910654Y-218930475D01*
X62891309Y-218947550D01*
X62871716Y-218963897D01*
X62851896Y-218979544D01*
X62831873Y-218994521D01*
X62811668Y-219008854D01*
X62791304Y-219022573D01*
X62770803Y-219035705D01*
X62750188Y-219048280D01*
X62729481Y-219060324D01*
X62708704Y-219071866D01*
X61714119Y-219071866D01*
X61693394Y-219060354D01*
X61672683Y-219048310D01*
X61652063Y-219035737D01*
X61631557Y-219022605D01*
X61611187Y-219008887D01*
X61590975Y-218994554D01*
X61570944Y-218979579D01*
X61551118Y-218963932D01*
X61531517Y-218947585D01*
X61512165Y-218930511D01*
X61493085Y-218912681D01*
X61474299Y-218894067D01*
X61455829Y-218874640D01*
X61437697Y-218854372D01*
X61419928Y-218833235D01*
X61402542Y-218811200D01*
X61309348Y-218825573D01*
X61220384Y-218841515D01*
X61177785Y-218850078D01*
X61136601Y-218859036D01*
X61096950Y-218868391D01*
X61058950Y-218878144D01*
X61022722Y-218888296D01*
X60988383Y-218898849D01*
X60956053Y-218909803D01*
X60925851Y-218921160D01*
X60897895Y-218932920D01*
X60872304Y-218945086D01*
X60849197Y-218957657D01*
X60828693Y-218970636D01*
X60818762Y-218977676D01*
X60809624Y-218984592D01*
X60801250Y-218991411D01*
X60793614Y-218998161D01*
X60786685Y-219004870D01*
X60780438Y-219011565D01*
X60774842Y-219018273D01*
X60769872Y-219025023D01*
X60765497Y-219031842D01*
X60761691Y-219038758D01*
X60758425Y-219045798D01*
X60755672Y-219052989D01*
X60753402Y-219060360D01*
X60751589Y-219067938D01*
X60750203Y-219075750D01*
X60749218Y-219083824D01*
X60748692Y-219092202D01*
X60546191Y-219092202D01*
X60546253Y-219085005D01*
X60547640Y-219064320D01*
X60548806Y-219054063D01*
X60550301Y-219043923D01*
X60552120Y-219033902D01*
X60554255Y-219024003D01*
X60556699Y-219014226D01*
X60559444Y-219004574D01*
X60562486Y-218995049D01*
X60565815Y-218985653D01*
X60573309Y-218967254D01*
X60581872Y-218949394D01*
X60591447Y-218932087D01*
X60601978Y-218915349D01*
X60613409Y-218899195D01*
X60625685Y-218883642D01*
X60638748Y-218868703D01*
X60652543Y-218854395D01*
X60667014Y-218840733D01*
X60682105Y-218827732D01*
X60697760Y-218815408D01*
X60713923Y-218803776D01*
X60741998Y-218785555D01*
X60771431Y-218768523D01*
X60802169Y-218752621D01*
X60834160Y-218737789D01*
X60861727Y-218726309D01*
X61596178Y-218726309D01*
X61613127Y-218744915D01*
X61630444Y-218762620D01*
X61648129Y-218779474D01*
X61666182Y-218795525D01*
X61684602Y-218810821D01*
X61703390Y-218825411D01*
X61722545Y-218839342D01*
X61742066Y-218852663D01*
X61761954Y-218865422D01*
X61782208Y-218877668D01*
X61802827Y-218889449D01*
X61823812Y-218900814D01*
X61866877Y-218922485D01*
X61911400Y-218943070D01*
X61947242Y-218952876D01*
X61983201Y-218961849D01*
X62019455Y-218969850D01*
X62056184Y-218976742D01*
X62093565Y-218982388D01*
X62131777Y-218986650D01*
X62151250Y-218988219D01*
X62170999Y-218989391D01*
X62191044Y-218990149D01*
X62211409Y-218990474D01*
X62231772Y-218990149D01*
X62251816Y-218989391D01*
X62271564Y-218988219D01*
X62291037Y-218986650D01*
X62310259Y-218984700D01*
X62329250Y-218982387D01*
X62366633Y-218976742D01*
X62403363Y-218969849D01*
X62439618Y-218961848D01*
X62475577Y-218952876D01*
X62511417Y-218943070D01*
X62555942Y-218922485D01*
X62577657Y-218911810D01*
X62599008Y-218900814D01*
X62619993Y-218889449D01*
X62640613Y-218877668D01*
X62660866Y-218865422D01*
X62680754Y-218852663D01*
X62700275Y-218839342D01*
X62719430Y-218825411D01*
X62738217Y-218810821D01*
X62756637Y-218795525D01*
X62774690Y-218779474D01*
X62792374Y-218762620D01*
X62809691Y-218744915D01*
X62826639Y-218726309D01*
X62791496Y-218703273D01*
X62756308Y-218680924D01*
X62721063Y-218659373D01*
X62685747Y-218638730D01*
X62650350Y-218619107D01*
X62614860Y-218600612D01*
X62579263Y-218583356D01*
X62543548Y-218567451D01*
X62529277Y-218581155D01*
X62514287Y-218594491D01*
X62498547Y-218607395D01*
X62482031Y-218619799D01*
X62464710Y-218631638D01*
X62446555Y-218642845D01*
X62427540Y-218653355D01*
X62407634Y-218663102D01*
X62386812Y-218672020D01*
X62365043Y-218680042D01*
X62342300Y-218687103D01*
X62318556Y-218693137D01*
X62293780Y-218698078D01*
X62267947Y-218701859D01*
X62241027Y-218704415D01*
X62212992Y-218705680D01*
X62211926Y-218705533D01*
X62210861Y-218705376D01*
X62210337Y-218705456D01*
X62209812Y-218705533D01*
X62209287Y-218705608D01*
X62208761Y-218705680D01*
X62180560Y-218704413D01*
X62153518Y-218701846D01*
X62127604Y-218698048D01*
X62102786Y-218693086D01*
X62079034Y-218687028D01*
X62056315Y-218679943D01*
X62034599Y-218671897D01*
X62013854Y-218662960D01*
X61994050Y-218653199D01*
X61975154Y-218642682D01*
X61957137Y-218631476D01*
X61939965Y-218619651D01*
X61923609Y-218607274D01*
X61908036Y-218594413D01*
X61893216Y-218581136D01*
X61879118Y-218567511D01*
X61843419Y-218583414D01*
X61807840Y-218600665D01*
X61772368Y-218619154D01*
X61736990Y-218638770D01*
X61701694Y-218659404D01*
X61666468Y-218680945D01*
X61631301Y-218703284D01*
X61596178Y-218726309D01*
X60861727Y-218726309D01*
X60867353Y-218723966D01*
X60901696Y-218711093D01*
X60937137Y-218699110D01*
X60973624Y-218687957D01*
X61011105Y-218677574D01*
X61049529Y-218667902D01*
X61128997Y-218650448D01*
X61211613Y-218635116D01*
X61296961Y-218621428D01*
X61285199Y-218586535D01*
X61275768Y-218551924D01*
X61268626Y-218517672D01*
X61263732Y-218483857D01*
X61261044Y-218450555D01*
X61260658Y-218426435D01*
X61456677Y-218426435D01*
X61457384Y-218445579D01*
X61459590Y-218465531D01*
X61463370Y-218486308D01*
X61468799Y-218507928D01*
X61475954Y-218530406D01*
X61484908Y-218553759D01*
X61531006Y-218523738D01*
X61574042Y-218497012D01*
X62145048Y-218497012D01*
X62159625Y-218499048D01*
X62167186Y-218499981D01*
X62175033Y-218500830D01*
X62183244Y-218501577D01*
X62191895Y-218502202D01*
X62201064Y-218502685D01*
X62210831Y-218503006D01*
X62220413Y-218502683D01*
X62229427Y-218502197D01*
X62237947Y-218501566D01*
X62246050Y-218500811D01*
X62253811Y-218499952D01*
X62261304Y-218499010D01*
X62275792Y-218496952D01*
X62275792Y-218496951D01*
X62259167Y-218494548D01*
X62242551Y-218492040D01*
X62234344Y-218490860D01*
X62226255Y-218489789D01*
X62218323Y-218488874D01*
X62210587Y-218488158D01*
X62202781Y-218488880D01*
X62194793Y-218489801D01*
X62186660Y-218490877D01*
X62178416Y-218492062D01*
X62161741Y-218494584D01*
X62145048Y-218497012D01*
X61574042Y-218497012D01*
X61577660Y-218494765D01*
X61624921Y-218466988D01*
X61672839Y-218440556D01*
X61721467Y-218415619D01*
X61770856Y-218392326D01*
X61821056Y-218370826D01*
X61846476Y-218360795D01*
X61872119Y-218351268D01*
X61889139Y-218345409D01*
X61906505Y-218339920D01*
X61924169Y-218334769D01*
X61942080Y-218329923D01*
X61960190Y-218325348D01*
X61978450Y-218321014D01*
X62015217Y-218312930D01*
X62015143Y-218312870D01*
X62406718Y-218312870D01*
X62443751Y-218320950D01*
X62462142Y-218325287D01*
X62480379Y-218329866D01*
X62498408Y-218334720D01*
X62516178Y-218339883D01*
X62533636Y-218345388D01*
X62550728Y-218351268D01*
X62576371Y-218360796D01*
X62601791Y-218370828D01*
X62626994Y-218381347D01*
X62651989Y-218392332D01*
X62701375Y-218415629D01*
X62750001Y-218440570D01*
X62797919Y-218467006D01*
X62845180Y-218494788D01*
X62891836Y-218523765D01*
X62937940Y-218553789D01*
X62941618Y-218544690D01*
X62945047Y-218535711D01*
X62948228Y-218526851D01*
X62951161Y-218518112D01*
X62953846Y-218509495D01*
X62956283Y-218501001D01*
X62958474Y-218492631D01*
X62960417Y-218484386D01*
X62962114Y-218476267D01*
X62963565Y-218468275D01*
X62964770Y-218460411D01*
X62965730Y-218452676D01*
X62966444Y-218445071D01*
X62966914Y-218437597D01*
X62967139Y-218430254D01*
X62967119Y-218423045D01*
X62967120Y-218423045D01*
X62966629Y-218411776D01*
X62965618Y-218400802D01*
X62964107Y-218390120D01*
X62962113Y-218379726D01*
X62959657Y-218369615D01*
X62956755Y-218359782D01*
X62953427Y-218350223D01*
X62949690Y-218340934D01*
X62945565Y-218331911D01*
X62941068Y-218323148D01*
X62936218Y-218314643D01*
X62931035Y-218306389D01*
X62925536Y-218298383D01*
X62919740Y-218290621D01*
X62913666Y-218283098D01*
X62907331Y-218275810D01*
X62893706Y-218261938D01*
X62878721Y-218249059D01*
X62862465Y-218237239D01*
X62845025Y-218226545D01*
X62826489Y-218217046D01*
X62806946Y-218208809D01*
X62786482Y-218201901D01*
X62765186Y-218196389D01*
X62743146Y-218192342D01*
X62720450Y-218189826D01*
X62697184Y-218188908D01*
X62673438Y-218189658D01*
X62649300Y-218192140D01*
X62624856Y-218196425D01*
X62600195Y-218202577D01*
X62575405Y-218210666D01*
X62565713Y-218214372D01*
X62555797Y-218218483D01*
X62545680Y-218222989D01*
X62535386Y-218227880D01*
X62524938Y-218233145D01*
X62514361Y-218238775D01*
X62503679Y-218244759D01*
X62492914Y-218251087D01*
X62482092Y-218257748D01*
X62471236Y-218264733D01*
X62460369Y-218272032D01*
X62449516Y-218279634D01*
X62438701Y-218287529D01*
X62427947Y-218295706D01*
X62417278Y-218304157D01*
X62406718Y-218312870D01*
X62015143Y-218312870D01*
X62004725Y-218304197D01*
X61994126Y-218295730D01*
X61983443Y-218287538D01*
X61972698Y-218279632D01*
X61961915Y-218272021D01*
X61951117Y-218264716D01*
X61940327Y-218257727D01*
X61929569Y-218251063D01*
X61918865Y-218244734D01*
X61908239Y-218238751D01*
X61897714Y-218233124D01*
X61887313Y-218227861D01*
X61877059Y-218222975D01*
X61866976Y-218218473D01*
X61857086Y-218214367D01*
X61847413Y-218210666D01*
X61835010Y-218206375D01*
X61822628Y-218202577D01*
X61810278Y-218199263D01*
X61797971Y-218196424D01*
X61785719Y-218194053D01*
X61773531Y-218192140D01*
X61761420Y-218190678D01*
X61749396Y-218189657D01*
X61737470Y-218189070D01*
X61725653Y-218188908D01*
X61713956Y-218189163D01*
X61702390Y-218189826D01*
X61690966Y-218190888D01*
X61679696Y-218192342D01*
X61668589Y-218194178D01*
X61657657Y-218196389D01*
X61636363Y-218201901D01*
X61615900Y-218208809D01*
X61596357Y-218217047D01*
X61577822Y-218226546D01*
X61560383Y-218237239D01*
X61552101Y-218243012D01*
X61544127Y-218249059D01*
X61536470Y-218255370D01*
X61529142Y-218261938D01*
X61522154Y-218268754D01*
X61515517Y-218275810D01*
X61505369Y-218287783D01*
X61495967Y-218300399D01*
X61487389Y-218313673D01*
X61479707Y-218327622D01*
X61472998Y-218342264D01*
X61467338Y-218357614D01*
X61462800Y-218373690D01*
X61459461Y-218390507D01*
X61457395Y-218408083D01*
X61456677Y-218426435D01*
X61260658Y-218426435D01*
X61260520Y-218417844D01*
X61262117Y-218385803D01*
X61265793Y-218354507D01*
X61271507Y-218324035D01*
X61279217Y-218294463D01*
X61288880Y-218265870D01*
X61300454Y-218238333D01*
X61313898Y-218211929D01*
X61329170Y-218186735D01*
X61346226Y-218162829D01*
X61365026Y-218140289D01*
X61386802Y-218117774D01*
X61410020Y-218096943D01*
X61434584Y-218077823D01*
X61440368Y-218073928D01*
X62029669Y-218073928D01*
X62041457Y-218080759D01*
X62053234Y-218087861D01*
X62064987Y-218095236D01*
X62076706Y-218102888D01*
X62088381Y-218110817D01*
X62100000Y-218119028D01*
X62111552Y-218127522D01*
X62123025Y-218136302D01*
X62134410Y-218145371D01*
X62145694Y-218154731D01*
X62156867Y-218164384D01*
X62167918Y-218174334D01*
X62178836Y-218184583D01*
X62189609Y-218195133D01*
X62200227Y-218205987D01*
X62210678Y-218217147D01*
X62221229Y-218205935D01*
X62231950Y-218195035D01*
X62242828Y-218184442D01*
X62253852Y-218174155D01*
X62265012Y-218164171D01*
X62276294Y-218154486D01*
X62287688Y-218145100D01*
X62299182Y-218136008D01*
X62310763Y-218127208D01*
X62322422Y-218118697D01*
X62334145Y-218110474D01*
X62345922Y-218102534D01*
X62369589Y-218087496D01*
X62393331Y-218073563D01*
X62393331Y-218073562D01*
X62388091Y-218068388D01*
X62382805Y-218063384D01*
X62377458Y-218058573D01*
X62372034Y-218053977D01*
X62369287Y-218051767D01*
X62366516Y-218049618D01*
X62363717Y-218047534D01*
X62360888Y-218045517D01*
X62358029Y-218043570D01*
X62355136Y-218041696D01*
X62352207Y-218039897D01*
X62349242Y-218038177D01*
X62342249Y-218034426D01*
X62335022Y-218030910D01*
X62327564Y-218027625D01*
X62319878Y-218024563D01*
X62311968Y-218021720D01*
X62303835Y-218019090D01*
X62295484Y-218016668D01*
X62286917Y-218014446D01*
X62278137Y-218012421D01*
X62269148Y-218010585D01*
X62259952Y-218008934D01*
X62250553Y-218007462D01*
X62231156Y-218005031D01*
X62210982Y-218003246D01*
X62190902Y-218005437D01*
X62181143Y-218006739D01*
X62171575Y-218008186D01*
X62162204Y-218009787D01*
X62153032Y-218011546D01*
X62144064Y-218013472D01*
X62135303Y-218015570D01*
X62126754Y-218017847D01*
X62118419Y-218020310D01*
X62110304Y-218022966D01*
X62102412Y-218025821D01*
X62094747Y-218028881D01*
X62087312Y-218032154D01*
X62080111Y-218035646D01*
X62073149Y-218039363D01*
X62070218Y-218041054D01*
X62067325Y-218042821D01*
X62064468Y-218044660D01*
X62061645Y-218046569D01*
X62058854Y-218048544D01*
X62056093Y-218050584D01*
X62053360Y-218052686D01*
X62050653Y-218054847D01*
X62045307Y-218059334D01*
X62040038Y-218064024D01*
X62034832Y-218068896D01*
X62029669Y-218073928D01*
X61440368Y-218073928D01*
X61460397Y-218060440D01*
X61487363Y-218044823D01*
X61515385Y-218030997D01*
X61544367Y-218018990D01*
X61574212Y-218008829D01*
X61604824Y-218000540D01*
X61636106Y-217994151D01*
X61667963Y-217989689D01*
X61700296Y-217987180D01*
X61733010Y-217986652D01*
X61766009Y-217988132D01*
X61799195Y-217991646D01*
X61832473Y-217997222D01*
X61839975Y-217986299D01*
X61847689Y-217975698D01*
X61855609Y-217965423D01*
X61863727Y-217955475D01*
X61872037Y-217945858D01*
X61880532Y-217936574D01*
X61889205Y-217927626D01*
X61898050Y-217919017D01*
X61907059Y-217910750D01*
X61916227Y-217902827D01*
X61925546Y-217895251D01*
X61935009Y-217888025D01*
X61944610Y-217881152D01*
X61954341Y-217874634D01*
X61964197Y-217868474D01*
X61974171Y-217862674D01*
X61988306Y-217855105D01*
X62002527Y-217848158D01*
X62016816Y-217841806D01*
X62031158Y-217836020D01*
X62045538Y-217830771D01*
X62059939Y-217826030D01*
X62074346Y-217821769D01*
X62088743Y-217817959D01*
X62103115Y-217814571D01*
X62117445Y-217811577D01*
X62131718Y-217808948D01*
X62145917Y-217806655D01*
X62174035Y-217802964D01*
X62201672Y-217800273D01*
X62203490Y-217800799D01*
X62205299Y-217801360D01*
X62207097Y-217801955D01*
X62208883Y-217802583D01*
X62210660Y-217801908D01*
X62212450Y-217801267D01*
X62214251Y-217800660D01*
X62216064Y-217800087D01*
X62244689Y-217802280D01*
G37*
G36*
X62218914Y-217976343D02*
G01*
X62224504Y-217976637D01*
X62230092Y-217977162D01*
X62235678Y-217977936D01*
X62245961Y-217979167D01*
X62256248Y-217980624D01*
X62266521Y-217982321D01*
X62276762Y-217984275D01*
X62286951Y-217986501D01*
X62297070Y-217989015D01*
X62307100Y-217991832D01*
X62317023Y-217994967D01*
X62326821Y-217998437D01*
X62336473Y-218002257D01*
X62345963Y-218006443D01*
X62355272Y-218011009D01*
X62364380Y-218015973D01*
X62373269Y-218021348D01*
X62381921Y-218027151D01*
X62390317Y-218033397D01*
X62401925Y-218043628D01*
X62407660Y-218048859D01*
X62413271Y-218054220D01*
X62416011Y-218056962D01*
X62418698Y-218059751D01*
X62421325Y-218062592D01*
X62423884Y-218065491D01*
X62426367Y-218068452D01*
X62428769Y-218071480D01*
X62431081Y-218074579D01*
X62433295Y-218077756D01*
X62433296Y-218077759D01*
X62433360Y-218078179D01*
X62433404Y-218078580D01*
X62433425Y-218078963D01*
X62433423Y-218079330D01*
X62433414Y-218079508D01*
X62433399Y-218079682D01*
X62433378Y-218079853D01*
X62433350Y-218080020D01*
X62433317Y-218080185D01*
X62433277Y-218080347D01*
X62433232Y-218080506D01*
X62433179Y-218080662D01*
X62433121Y-218080817D01*
X62433056Y-218080969D01*
X62432985Y-218081119D01*
X62432907Y-218081267D01*
X62432822Y-218081414D01*
X62432731Y-218081559D01*
X62432632Y-218081703D01*
X62432527Y-218081845D01*
X62432415Y-218081987D01*
X62432296Y-218082128D01*
X62432036Y-218082408D01*
X62431748Y-218082688D01*
X62431430Y-218082967D01*
X62418007Y-218090106D01*
X62404735Y-218097548D01*
X62391619Y-218105281D01*
X62378662Y-218113289D01*
X62365868Y-218121561D01*
X62353242Y-218130082D01*
X62340787Y-218138840D01*
X62328508Y-218147819D01*
X62321275Y-218153180D01*
X62314130Y-218158647D01*
X62300095Y-218169890D01*
X62286384Y-218181516D01*
X62272978Y-218193494D01*
X62259858Y-218205794D01*
X62247005Y-218218385D01*
X62234401Y-218231236D01*
X62222027Y-218244315D01*
X62221622Y-218244654D01*
X62221222Y-218245027D01*
X62220827Y-218245430D01*
X62220435Y-218245859D01*
X62219659Y-218246782D01*
X62218888Y-218247765D01*
X62217336Y-218249796D01*
X62216542Y-218250784D01*
X62215730Y-218251714D01*
X62215314Y-218252148D01*
X62214891Y-218252557D01*
X62214460Y-218252936D01*
X62214021Y-218253283D01*
X62213572Y-218253592D01*
X62213112Y-218253862D01*
X62212642Y-218254087D01*
X62212160Y-218254264D01*
X62211665Y-218254390D01*
X62211157Y-218254461D01*
X62210634Y-218254472D01*
X62210097Y-218254421D01*
X62209545Y-218254304D01*
X62208976Y-218254117D01*
X62208389Y-218253856D01*
X62207785Y-218253517D01*
X62196683Y-218241182D01*
X62185321Y-218229092D01*
X62173707Y-218217252D01*
X62161843Y-218205669D01*
X62149734Y-218194347D01*
X62137387Y-218183293D01*
X62124804Y-218172511D01*
X62111992Y-218162008D01*
X62098954Y-218151788D01*
X62085696Y-218141858D01*
X62072222Y-218132222D01*
X62058538Y-218122887D01*
X62044647Y-218113858D01*
X62030556Y-218105141D01*
X62016267Y-218096740D01*
X62001787Y-218088662D01*
X62001401Y-218088348D01*
X62000986Y-218088048D01*
X62000545Y-218087759D01*
X62000082Y-218087480D01*
X61999098Y-218086945D01*
X61998058Y-218086433D01*
X61995904Y-218085427D01*
X61994837Y-218084910D01*
X61993808Y-218084366D01*
X61993314Y-218084082D01*
X61992840Y-218083786D01*
X61992386Y-218083478D01*
X61991957Y-218083156D01*
X61991554Y-218082818D01*
X61991182Y-218082464D01*
X61990843Y-218082092D01*
X61990539Y-218081699D01*
X61990275Y-218081286D01*
X61990052Y-218080849D01*
X61989874Y-218080389D01*
X61989744Y-218079902D01*
X61989664Y-218079389D01*
X61989638Y-218078847D01*
X61989668Y-218078274D01*
X61989758Y-218077670D01*
X61990770Y-218076161D01*
X61991825Y-218074675D01*
X61992920Y-218073211D01*
X61994051Y-218071767D01*
X61995213Y-218070341D01*
X61996402Y-218068932D01*
X61998848Y-218066155D01*
X62001356Y-218063422D01*
X62003894Y-218060719D01*
X62008935Y-218055342D01*
X62015941Y-218048391D01*
X62023247Y-218041810D01*
X62030834Y-218035592D01*
X62038684Y-218029731D01*
X62046779Y-218024221D01*
X62055100Y-218019056D01*
X62063629Y-218014230D01*
X62072347Y-218009736D01*
X62081237Y-218005570D01*
X62090279Y-218001723D01*
X62099456Y-217998191D01*
X62108749Y-217994968D01*
X62118139Y-217992046D01*
X62127609Y-217989421D01*
X62137140Y-217987085D01*
X62146714Y-217985033D01*
X62168760Y-217981008D01*
X62179858Y-217979184D01*
X62190992Y-217977685D01*
X62196568Y-217977104D01*
X62202151Y-217976661D01*
X62207736Y-217976374D01*
X62213325Y-217976262D01*
X62218914Y-217976343D01*
G37*
D11*
%TO.C,*%
X71900000Y-209900000D03*
%TD*%
D12*
%TO.C,REF\u002A\u002A*%
X69000000Y-127500000D03*
%TD*%
D11*
%TO.C,REF\u002A\u002A*%
X68700000Y-209900000D03*
%TD*%
D12*
%TO.C,REF\u002A\u002A*%
X69000000Y-87500000D03*
%TD*%
D11*
%TO.C,REF\u002A\u002A*%
X68700000Y-203400000D03*
%TD*%
D13*
%TO.C,SW3*%
X65950000Y-155450000D03*
X65950000Y-161950000D03*
X61450000Y-155450000D03*
X61450000Y-161950000D03*
%TD*%
%TO.C,SW1*%
X61450000Y-171550000D03*
X61450000Y-165050000D03*
X65950000Y-171550000D03*
X65950000Y-165050000D03*
%TD*%
D14*
%TO.C,J2*%
X71400000Y-166170000D03*
D15*
X71400000Y-168710000D03*
D16*
X71400000Y-171250000D03*
D15*
X71400000Y-173790000D03*
X71400000Y-176330000D03*
X71400000Y-178870000D03*
X71400000Y-181410000D03*
X71400000Y-183950000D03*
%TD*%
D11*
%TO.C,*%
X67200000Y-206700000D03*
%TD*%
%TO.C,REF\u002A\u002A*%
X71900000Y-203400000D03*
%TD*%
D17*
%TO.C,J8*%
X70250000Y-198975000D03*
D18*
X67750000Y-198975000D03*
%TD*%
D19*
%TO.C,BT1*%
X49250000Y-148500000D03*
X49250000Y-220500000D03*
%TD*%
D20*
%TO.C,J1*%
X66640190Y-213585190D03*
X66640190Y-219365190D03*
D21*
X65520190Y-213275190D03*
X65520190Y-214075190D03*
D22*
X65520190Y-215225190D03*
X65520190Y-216225190D03*
X65520190Y-216725190D03*
X65520190Y-217725190D03*
D21*
X65520190Y-218875190D03*
X65520190Y-219675190D03*
X65520190Y-219675190D03*
X65520190Y-218875190D03*
D22*
X65520190Y-218225190D03*
X65520190Y-217225190D03*
X65520190Y-215725190D03*
X65520190Y-214725190D03*
D21*
X65520190Y-214075190D03*
X65520190Y-213275190D03*
D23*
X70320190Y-212155190D03*
D24*
X66120190Y-212155190D03*
D23*
X70320190Y-220795190D03*
D24*
X66120190Y-220795190D03*
%TD*%
M02*
