%TF.GenerationSoftware,KiCad,Pcbnew,8.0.5-8.0.5-0~ubuntu24.04.1*%
%TF.CreationDate,2024-10-11T17:30:16+02:00*%
%TF.ProjectId,v_ggtermometer,76e46767-7465-4726-9d6f-6d657465722e,rev?*%
%TF.SameCoordinates,Original*%
%TF.FileFunction,Copper,L2,Bot*%
%TF.FilePolarity,Positive*%
%FSLAX46Y46*%
G04 Gerber Fmt 4.6, Leading zero omitted, Abs format (unit mm)*
G04 Created by KiCad (PCBNEW 8.0.5-8.0.5-0~ubuntu24.04.1) date 2024-10-11 17:30:16*
%MOMM*%
%LPD*%
G01*
G04 APERTURE LIST*
G04 Aperture macros list*
%AMRoundRect*
0 Rectangle with rounded corners*
0 $1 Rounding radius*
0 $2 $3 $4 $5 $6 $7 $8 $9 X,Y pos of 4 corners*
0 Add a 4 corners polygon primitive as box body*
4,1,4,$2,$3,$4,$5,$6,$7,$8,$9,$2,$3,0*
0 Add four circle primitives for the rounded corners*
1,1,$1+$1,$2,$3*
1,1,$1+$1,$4,$5*
1,1,$1+$1,$6,$7*
1,1,$1+$1,$8,$9*
0 Add four rect primitives between the rounded corners*
20,1,$1+$1,$2,$3,$4,$5,0*
20,1,$1+$1,$4,$5,$6,$7,0*
20,1,$1+$1,$6,$7,$8,$9,0*
20,1,$1+$1,$8,$9,$2,$3,0*%
G04 Aperture macros list end*
%TA.AperFunction,WasherPad*%
%ADD10C,5.000000*%
%TD*%
%TA.AperFunction,ComponentPad*%
%ADD11C,2.000000*%
%TD*%
%TA.AperFunction,ComponentPad*%
%ADD12C,1.700000*%
%TD*%
%TA.AperFunction,ComponentPad*%
%ADD13O,1.700000X1.700000*%
%TD*%
%TA.AperFunction,ComponentPad*%
%ADD14R,1.700000X1.700000*%
%TD*%
%TA.AperFunction,ComponentPad*%
%ADD15RoundRect,0.250000X0.600000X0.750000X-0.600000X0.750000X-0.600000X-0.750000X0.600000X-0.750000X0*%
%TD*%
%TA.AperFunction,ComponentPad*%
%ADD16O,1.700000X2.000000*%
%TD*%
%TA.AperFunction,ComponentPad*%
%ADD17C,2.500000*%
%TD*%
%TA.AperFunction,SMDPad,CuDef*%
%ADD18R,1.240000X0.600000*%
%TD*%
%TA.AperFunction,SMDPad,CuDef*%
%ADD19R,1.240000X0.300000*%
%TD*%
%TA.AperFunction,ComponentPad*%
%ADD20O,1.800000X1.000000*%
%TD*%
%TA.AperFunction,ComponentPad*%
%ADD21O,2.100000X1.000000*%
%TD*%
%TA.AperFunction,ViaPad*%
%ADD22C,0.600000*%
%TD*%
%TA.AperFunction,ViaPad*%
%ADD23C,0.700000*%
%TD*%
%TA.AperFunction,Conductor*%
%ADD24C,0.200000*%
%TD*%
%TA.AperFunction,Conductor*%
%ADD25C,0.500000*%
%TD*%
%TA.AperFunction,Conductor*%
%ADD26C,0.300000*%
%TD*%
G04 APERTURE END LIST*
D10*
%TO.P,REF\u002A\u002A,*%
%TO.N,*%
X69000000Y-127500000D03*
%TD*%
%TO.P,REF\u002A\u002A,*%
%TO.N,*%
X69000000Y-87500000D03*
%TD*%
D11*
%TO.P,SW3,1,A*%
%TO.N,IO20*%
X65950000Y-155450000D03*
X65950000Y-161950000D03*
%TO.P,SW3,3,B*%
%TO.N,GND*%
X61450000Y-155450000D03*
X61450000Y-161950000D03*
%TD*%
%TO.P,SW1,1,A*%
%TO.N,Net-(U1-GPIO3{slash}ADC1_CH3)*%
X61450000Y-171550000D03*
X61450000Y-165050000D03*
%TO.P,SW1,3,B*%
%TO.N,GND*%
X65950000Y-171550000D03*
X65950000Y-165050000D03*
%TD*%
D12*
%TO.P,J2,1,Pin_1*%
%TO.N,+5V*%
X71400000Y-166170000D03*
D13*
%TO.P,J2,2,Pin_2*%
%TO.N,+3.3V*%
X71400000Y-168710000D03*
D14*
%TO.P,J2,3,Pin_3*%
%TO.N,GND*%
X71400000Y-171250000D03*
D13*
%TO.P,J2,4,Pin_4*%
%TO.N,EN*%
X71400000Y-173790000D03*
%TO.P,J2,5,Pin_5*%
%TO.N,IO21*%
X71400000Y-176330000D03*
%TO.P,J2,6,Pin_6*%
%TO.N,IO20*%
X71400000Y-178870000D03*
%TO.P,J2,7,Pin_7*%
%TO.N,IO9*%
X71400000Y-181410000D03*
%TO.P,J2,8,Pin_8*%
%TO.N,IO1*%
X71400000Y-183950000D03*
%TD*%
D15*
%TO.P,J8,1,Pin_1*%
%TO.N,IO1*%
X70250000Y-198975000D03*
D16*
%TO.P,J8,2,Pin_2*%
%TO.N,+3.3V*%
X67750000Y-198975000D03*
%TD*%
D17*
%TO.P,BT1,1,+*%
%TO.N,VBAT*%
X49250000Y-148500000D03*
%TO.P,BT1,2,-*%
%TO.N,GND*%
X49250000Y-220500000D03*
%TD*%
D18*
%TO.P,J1,A1,GND*%
%TO.N,GND*%
X65520190Y-213275190D03*
%TO.P,J1,A4,VBUS*%
%TO.N,+5V*%
X65520190Y-214075190D03*
D19*
%TO.P,J1,A5,CC1*%
%TO.N,/CC1*%
X65520190Y-215225190D03*
%TO.P,J1,A6,D+*%
%TO.N,D+*%
X65520190Y-216225190D03*
%TO.P,J1,A7,D-*%
%TO.N,D-*%
X65520190Y-216725190D03*
%TO.P,J1,A8,SBU1*%
%TO.N,unconnected-(J1-SBU1-PadA8)*%
X65520190Y-217725190D03*
D18*
%TO.P,J1,A9,VBUS*%
%TO.N,+5V*%
X65520190Y-218875190D03*
%TO.P,J1,A12,GND*%
%TO.N,GND*%
X65520190Y-219675190D03*
%TO.P,J1,B1,GND*%
X65520190Y-219675190D03*
%TO.P,J1,B4,VBUS*%
%TO.N,+5V*%
X65520190Y-218875190D03*
D19*
%TO.P,J1,B5,CC2*%
%TO.N,/CC2*%
X65520190Y-218225190D03*
%TO.P,J1,B6,D+*%
%TO.N,D+*%
X65520190Y-217225190D03*
%TO.P,J1,B7,D-*%
%TO.N,D-*%
X65520190Y-215725190D03*
%TO.P,J1,B8,SBU2*%
%TO.N,unconnected-(J1-SBU2-PadB8)*%
X65520190Y-214725190D03*
D18*
%TO.P,J1,B9,VBUS*%
%TO.N,+5V*%
X65520190Y-214075190D03*
%TO.P,J1,B12,GND*%
%TO.N,GND*%
X65520190Y-213275190D03*
D20*
%TO.P,J1,S1,SHIELD*%
X70320190Y-212155190D03*
D21*
X66120190Y-212155190D03*
D20*
X70320190Y-220795190D03*
D21*
X66120190Y-220795190D03*
%TD*%
D22*
%TO.N,GND*%
X67010000Y-149910000D03*
X65562500Y-191250000D03*
X71700000Y-198200000D03*
X64250000Y-191250000D03*
X66750000Y-192500000D03*
X60775000Y-202000000D03*
X60075735Y-187575735D03*
X65510000Y-149910000D03*
X64250000Y-192500000D03*
X67200000Y-185150000D03*
X64250000Y-190000000D03*
X62250000Y-202000000D03*
X66000000Y-183600000D03*
X65500000Y-192500000D03*
X63725000Y-202000000D03*
X66548255Y-198121785D03*
X66260000Y-149910000D03*
X68868526Y-197299999D03*
%TO.N,EN*%
X68250000Y-181750000D03*
D23*
%TO.N,+3.3V*%
X65540380Y-195959620D03*
X60750000Y-196300000D03*
X69700000Y-193000000D03*
D22*
X61725000Y-207250000D03*
X59150000Y-180650000D03*
D23*
X64500000Y-182750000D03*
X68080762Y-185199999D03*
%TO.N,+5V*%
X67245190Y-214453428D03*
D22*
%TO.N,/l-blue*%
X55625600Y-85081700D03*
X53626100Y-87013200D03*
%TO.N,/green*%
X56720000Y-139250000D03*
X57541800Y-83208200D03*
X55449900Y-129395500D03*
X54522000Y-76740000D03*
X55130376Y-164736861D03*
X55750000Y-81416400D03*
%TO.N,/beige*%
X54752700Y-60304200D03*
X55766528Y-153430000D03*
X55373068Y-189030972D03*
X53227600Y-90848800D03*
X55750000Y-87250000D03*
X55000000Y-123250000D03*
X53950735Y-109200735D03*
X54876900Y-167400000D03*
%TO.N,/red*%
X55750000Y-139250000D03*
X55750000Y-195250000D03*
X53250000Y-195250000D03*
X55500000Y-169103000D03*
X57132300Y-111368200D03*
X55449900Y-99250000D03*
%TO.N,/orange*%
X55750000Y-175250000D03*
X55194800Y-67250000D03*
X55751600Y-97105300D03*
X56750000Y-169200000D03*
X57544500Y-121950000D03*
%TO.N,/l-green*%
X54854100Y-102872700D03*
X56720000Y-127250000D03*
X55750000Y-181136500D03*
X55235400Y-147250000D03*
X55700000Y-193200000D03*
X55221700Y-75052500D03*
%TO.N,/cyan*%
X56650000Y-177430001D03*
X56048400Y-103203700D03*
X55742600Y-73390600D03*
X56737200Y-129407400D03*
D23*
%TO.N,D-*%
X62140686Y-188640686D03*
%TO.N,D+*%
X61150000Y-188500000D03*
D22*
%TO.N,IO21*%
X66025735Y-185674265D03*
D23*
X57900100Y-109250000D03*
D22*
X59700000Y-179900000D03*
X61900000Y-180400000D03*
%TO.N,IO20*%
X62000000Y-190400000D03*
X54750000Y-217250000D03*
X59991421Y-184408579D03*
D23*
%TO.N,IO9*%
X69000000Y-189150000D03*
D22*
X54700000Y-209300000D03*
D23*
%TO.N,IO2*%
X57750000Y-77250000D03*
X70680762Y-195649999D03*
%TO.N,Net-(U1-GPIO3{slash}ADC1_CH3)*%
X70950000Y-194350000D03*
%TO.N,IO4*%
X67987499Y-193646250D03*
X58220000Y-186000000D03*
%TO.N,IO5*%
X55223619Y-161008217D03*
X68890537Y-193393412D03*
%TO.N,IO6*%
X59800000Y-205350000D03*
X69374310Y-191344926D03*
%TO.N,IO7*%
X51750000Y-189250000D03*
X57965000Y-188750000D03*
%TO.N,IO8*%
X70055380Y-189100000D03*
X58250000Y-218750000D03*
%TO.N,IO10*%
X70030000Y-188150000D03*
X58250000Y-222250000D03*
%TO.N,/CC2*%
X66801008Y-217480818D03*
%TO.N,/CC1*%
X66835570Y-215254810D03*
D22*
%TO.N,VBAT*%
X56750000Y-151250000D03*
D23*
%TO.N,VCC*%
X66900000Y-200600000D03*
X72500000Y-198800000D03*
%TD*%
D24*
%TO.N,GND*%
X60201470Y-187450000D02*
X60075735Y-187575735D01*
X65520190Y-220215190D02*
X66120190Y-220815190D01*
X65520190Y-212775190D02*
X66120190Y-212175190D01*
X65520190Y-219695190D02*
X65520190Y-220215190D01*
X65520190Y-213295190D02*
X65520190Y-212775190D01*
%TO.N,EN*%
X68250000Y-177040000D02*
X71500000Y-173790000D01*
X68250000Y-181750000D02*
X68250000Y-177040000D01*
%TO.N,+3.3V*%
X59150000Y-197900000D02*
X59150000Y-204700000D01*
X59150000Y-204700000D02*
X63834314Y-204700000D01*
X68080762Y-185199999D02*
X67530761Y-185750000D01*
X68873187Y-194330001D02*
X67374131Y-194330001D01*
X64748255Y-203786059D02*
X64748255Y-196751745D01*
X59150000Y-204700000D02*
X59150000Y-205750000D01*
X59150000Y-181381372D02*
X68368628Y-190600000D01*
X60650000Y-207250000D02*
X61725000Y-207250000D01*
X63834314Y-204700000D02*
X64748255Y-203786059D01*
X67169999Y-194330001D02*
X67374131Y-194330001D01*
X64500000Y-183300000D02*
X64500000Y-182750000D01*
X69700000Y-193000000D02*
X69700000Y-193503188D01*
X64748255Y-196751745D02*
X65540380Y-195959620D01*
X60750000Y-196300000D02*
X59150000Y-197900000D01*
X69700000Y-193503188D02*
X68873187Y-194330001D01*
X68368628Y-191668628D02*
X69700000Y-193000000D01*
X68368628Y-190600000D02*
X68368628Y-191668628D01*
X67530761Y-185750000D02*
X66950000Y-185750000D01*
X65540380Y-195959620D02*
X67169999Y-194330001D01*
X59150000Y-205750000D02*
X60650000Y-207250000D01*
X66950000Y-185750000D02*
X64500000Y-183300000D01*
X59150000Y-180650000D02*
X59150000Y-181381372D01*
%TO.N,+5V*%
X67245190Y-214453428D02*
X66953427Y-214453428D01*
X67485570Y-214985571D02*
X67485570Y-217715496D01*
X66505876Y-218695190D02*
X65795190Y-218695190D01*
X67485570Y-217715496D02*
X66505876Y-218695190D01*
X67245190Y-214745191D02*
X67485570Y-214985571D01*
X67245190Y-214453428D02*
X67245190Y-214745191D01*
X65705190Y-214260190D02*
X65520190Y-214075190D01*
X66953427Y-214453428D02*
X66760189Y-214260190D01*
X66760189Y-214260190D02*
X65705190Y-214260190D01*
%TO.N,/l-blue*%
X53694100Y-87013200D02*
X53626100Y-87013200D01*
X55625600Y-85081700D02*
X53694100Y-87013200D01*
%TO.N,/green*%
X53600000Y-157084314D02*
X58150000Y-152534314D01*
X55449900Y-137979900D02*
X56720000Y-139250000D01*
X53600000Y-163489328D02*
X53600000Y-157084314D01*
X56720000Y-148451757D02*
X56720000Y-139250000D01*
X58150000Y-152534314D02*
X58150000Y-149881757D01*
X55130376Y-164736861D02*
X54847533Y-164736861D01*
X54522000Y-80188400D02*
X54522000Y-76740000D01*
X55449900Y-129395500D02*
X55449900Y-137979900D01*
X57541800Y-83208200D02*
X55750000Y-81416400D01*
X55750000Y-81416400D02*
X54522000Y-80188400D01*
X54847533Y-164736861D02*
X53600000Y-163489328D01*
X58150000Y-149881757D02*
X56720000Y-148451757D01*
%TO.N,/beige*%
X53227600Y-90848800D02*
X55750000Y-88326400D01*
X54730400Y-188388304D02*
X55373068Y-189030972D01*
X54549900Y-60507000D02*
X54549900Y-73529800D01*
X55766528Y-153786414D02*
X55766528Y-153430000D01*
X54752700Y-60304200D02*
X54549900Y-60507000D01*
X53387600Y-77011600D02*
X53387600Y-81887800D01*
X54730400Y-170420000D02*
X54332600Y-170817800D01*
X56285700Y-86714300D02*
X55750000Y-87250000D01*
X55750000Y-88326400D02*
X55750000Y-87250000D01*
X54699200Y-75700000D02*
X53387600Y-77011600D01*
X55823400Y-74803300D02*
X55823400Y-75320300D01*
X54876900Y-167400000D02*
X54876900Y-165897600D01*
X54807500Y-75692500D02*
X54800000Y-75700000D01*
X53950735Y-109200735D02*
X53950735Y-122200735D01*
X54448200Y-147311329D02*
X57350000Y-150213129D01*
X54448200Y-123801800D02*
X54448200Y-147311329D01*
X53950735Y-122200735D02*
X55000000Y-123250000D01*
X55451200Y-75692500D02*
X54807500Y-75692500D01*
X56122942Y-153430000D02*
X55766528Y-153430000D01*
X55000000Y-123250000D02*
X54448200Y-123801800D01*
X52800000Y-163820700D02*
X52800000Y-156752942D01*
X54549900Y-73529800D02*
X55823400Y-74803300D01*
X54332600Y-170817800D02*
X54332600Y-180132600D01*
X54876900Y-165897600D02*
X52800000Y-163820700D01*
X54730400Y-180530400D02*
X54730400Y-188388304D01*
X54730400Y-167546500D02*
X54730400Y-170420000D01*
X57350000Y-150213129D02*
X57350000Y-152202942D01*
X53387600Y-81887800D02*
X56285700Y-84785900D01*
X56285700Y-84785900D02*
X56285700Y-86714300D01*
X54332600Y-180132600D02*
X54730400Y-180530400D01*
X54800000Y-75700000D02*
X54699200Y-75700000D01*
X55823400Y-75320300D02*
X55451200Y-75692500D01*
X52800000Y-156752942D02*
X55766528Y-153786414D01*
X54876900Y-167400000D02*
X54730400Y-167546500D01*
X57350000Y-152202942D02*
X56122942Y-153430000D01*
%TO.N,/red*%
X57750000Y-152368628D02*
X53200000Y-156918628D01*
X57132300Y-111368200D02*
X56850100Y-111086000D01*
X57750000Y-150047443D02*
X57750000Y-152368628D01*
X55500000Y-165955014D02*
X55500000Y-169103000D01*
X58615000Y-189019239D02*
X55000000Y-192634239D01*
X55750000Y-146916071D02*
X55835400Y-147001471D01*
X58234239Y-188100000D02*
X58615000Y-188480761D01*
X55500000Y-169352200D02*
X55500000Y-170218400D01*
X58615000Y-188480761D02*
X58615000Y-189019239D01*
X55136000Y-180370314D02*
X55136000Y-185736000D01*
X55136000Y-185736000D02*
X57500000Y-188100000D01*
X56850100Y-100650200D02*
X55449900Y-99250000D01*
X53200000Y-156918628D02*
X53200000Y-163655014D01*
X56850100Y-111086000D02*
X56850100Y-100650200D01*
X53200000Y-163655014D02*
X55500000Y-165955014D01*
X55000000Y-192634239D02*
X55000000Y-195250000D01*
X54732843Y-179967157D02*
X55136000Y-180370314D01*
X55750000Y-139250000D02*
X55750000Y-146916071D01*
X53250000Y-195250000D02*
X55550200Y-195250000D01*
X55500000Y-170218400D02*
X54734300Y-170984100D01*
X55550200Y-195250000D02*
X55750000Y-195250000D01*
X54734300Y-170984100D02*
X54734300Y-179965700D01*
X54734300Y-179965700D02*
X54732843Y-179967157D01*
X57500000Y-188100000D02*
X58234239Y-188100000D01*
X55835400Y-147001471D02*
X55835400Y-148132843D01*
X55835400Y-148132843D02*
X57750000Y-150047443D01*
%TO.N,/orange*%
X57732300Y-111020171D02*
X57250100Y-110537971D01*
X58541800Y-80226114D02*
X58541800Y-94315100D01*
X57250100Y-98603800D02*
X55751600Y-97105300D01*
X57544500Y-121950000D02*
X57732300Y-121762200D01*
X57732300Y-121762200D02*
X57732300Y-111020171D01*
X57250100Y-110537971D02*
X57250100Y-98603800D01*
X56623400Y-78307714D02*
X58541800Y-80226114D01*
X55194800Y-71994271D02*
X56623400Y-73422871D01*
X56750000Y-169200000D02*
X56750000Y-170688500D01*
X58541800Y-94315100D02*
X55751600Y-97105300D01*
X56623400Y-73422871D02*
X56623400Y-78307714D01*
X56750000Y-170688500D02*
X55750000Y-171688500D01*
X55750000Y-171688500D02*
X55750000Y-175250000D01*
X55194800Y-67250000D02*
X55194800Y-71994271D01*
%TO.N,/l-green*%
X55536000Y-180922500D02*
X55536000Y-180204628D01*
X55459400Y-128510600D02*
X54848200Y-129121800D01*
X54448200Y-94548200D02*
X54448200Y-102466800D01*
X57665686Y-187700000D02*
X55800000Y-185834314D01*
X55134300Y-179802928D02*
X55134300Y-171352300D01*
X54000000Y-157250000D02*
X58550000Y-152700000D01*
X56135400Y-130280900D02*
X56135400Y-129186700D01*
X55800000Y-181186500D02*
X55536000Y-180922500D01*
X52987600Y-90240271D02*
X52627600Y-90600271D01*
X58550000Y-149716071D02*
X57320000Y-148486071D01*
X54848200Y-146862800D02*
X55235400Y-147250000D01*
X58399925Y-187700000D02*
X57665686Y-187700000D01*
X55134300Y-171352300D02*
X56149200Y-170337400D01*
X56149200Y-164907156D02*
X54000000Y-162757956D01*
X54000000Y-162757956D02*
X54000000Y-157250000D01*
X52627600Y-90600271D02*
X52627600Y-92727600D01*
X59015000Y-189184925D02*
X59015000Y-188315075D01*
X57320000Y-148486071D02*
X57320000Y-131465500D01*
X56050100Y-126580100D02*
X56720000Y-127250000D01*
X54778700Y-75052500D02*
X52987600Y-76843600D01*
X52987600Y-76843600D02*
X52987600Y-90240271D01*
X57320000Y-131465500D02*
X56135400Y-130280900D01*
X54848200Y-129121800D02*
X54848200Y-146862800D01*
X56135400Y-129186700D02*
X55459400Y-128510600D01*
X55536000Y-180204628D02*
X55134300Y-179802928D01*
X56720000Y-127250000D02*
X55459400Y-128510600D01*
X55800000Y-185834314D02*
X55800000Y-181186500D01*
X55221700Y-75052500D02*
X54778700Y-75052500D01*
X54448200Y-102466800D02*
X54854100Y-102872700D01*
X52627600Y-92727600D02*
X54448200Y-94548200D01*
X56149200Y-170337400D02*
X56149200Y-164907156D01*
X59015000Y-188315075D02*
X58399925Y-187700000D01*
X55700000Y-192499925D02*
X59015000Y-189184925D01*
X58550000Y-152700000D02*
X58550000Y-149716071D01*
X55700000Y-193200000D02*
X55700000Y-192499925D01*
X56050100Y-104068700D02*
X56050100Y-126580100D01*
X54854100Y-102872700D02*
X56050100Y-104068700D01*
%TO.N,/cyan*%
X58950000Y-152865686D02*
X58950000Y-149550385D01*
X54848200Y-102003500D02*
X56048400Y-103203700D01*
X56737200Y-129407400D02*
X57344700Y-128799900D01*
X56450100Y-103605400D02*
X56048400Y-103203700D01*
X58141800Y-91282200D02*
X54848200Y-94575800D01*
X58950000Y-149550385D02*
X57720000Y-148320385D01*
X55742600Y-73390600D02*
X55742600Y-74156814D01*
X57720000Y-130390200D02*
X56737200Y-129407400D01*
X58141800Y-80391800D02*
X58141800Y-91282200D01*
X55742600Y-74156814D02*
X56223400Y-74637614D01*
X58320000Y-153495686D02*
X58950000Y-152865686D01*
X57344700Y-126767800D02*
X56450100Y-125873200D01*
X56223400Y-78473400D02*
X58141800Y-80391800D01*
X58320000Y-175422100D02*
X58320000Y-153495686D01*
X57344700Y-128799900D02*
X57344700Y-126767800D01*
X54848200Y-94575800D02*
X54848200Y-102003500D01*
X56650000Y-177092100D02*
X58320000Y-175422100D01*
X56650000Y-177430001D02*
X56650000Y-177092100D01*
X56450100Y-125873200D02*
X56450100Y-103605400D01*
X57720000Y-148320385D02*
X57720000Y-130390200D01*
X56223400Y-74637614D02*
X56223400Y-78473400D01*
%TO.N,D-*%
X66390190Y-215745190D02*
X64495190Y-215745190D01*
X66495190Y-215850190D02*
X66390190Y-215745190D01*
D25*
X57900000Y-192881371D02*
X57900000Y-212160050D01*
X62140686Y-188640686D02*
X62140685Y-188640686D01*
D24*
X66495190Y-216620190D02*
X66495190Y-215850190D01*
D25*
X61435140Y-215695190D02*
X64495190Y-215695190D01*
X57900000Y-212160050D02*
X61435140Y-215695190D01*
D24*
X66370190Y-216745190D02*
X66495190Y-216620190D01*
X65520190Y-216745190D02*
X66370190Y-216745190D01*
D25*
X62140685Y-188640686D02*
X57900000Y-192881371D01*
%TO.N,D+*%
X61150000Y-188641421D02*
X57200000Y-192591421D01*
D24*
X64650190Y-217245190D02*
X65520190Y-217245190D01*
X65520190Y-216245190D02*
X64650190Y-216245190D01*
D25*
X61250000Y-216500000D02*
X64450190Y-216500000D01*
X61150000Y-188500000D02*
X61150000Y-188641421D01*
D24*
X64650190Y-216245190D02*
X64600190Y-216295190D01*
D25*
X57200000Y-212450000D02*
X61250000Y-216500000D01*
X57200000Y-192591421D02*
X57200000Y-212450000D01*
D24*
X64600190Y-216295190D02*
X64600190Y-216745190D01*
X64600190Y-217195190D02*
X64650190Y-217245190D01*
X64600190Y-216745190D02*
X64600190Y-217195190D01*
%TO.N,IO21*%
X58720000Y-153661372D02*
X59350000Y-153031372D01*
X58120000Y-122223029D02*
X58144500Y-122198529D01*
X59350000Y-149384699D02*
X58120000Y-148154699D01*
X59350000Y-153031372D02*
X59350000Y-149384699D01*
X58120000Y-148154699D02*
X58120000Y-122223029D01*
X61900000Y-180400000D02*
X61900000Y-181548530D01*
X68050000Y-186150000D02*
X68980000Y-185220000D01*
X58144500Y-109494400D02*
X57900100Y-109250000D01*
X58720000Y-178920000D02*
X58720000Y-153661372D01*
X61900000Y-181548530D02*
X66025735Y-185674265D01*
X68980000Y-178850000D02*
X71500000Y-176330000D01*
X68980000Y-185220000D02*
X68980000Y-178850000D01*
X58144500Y-122198529D02*
X58144500Y-109494400D01*
X59700000Y-179900000D02*
X58720000Y-178920000D01*
X66501470Y-186150000D02*
X68050000Y-186150000D01*
X66025735Y-185674265D02*
X66501470Y-186150000D01*
%TO.N,IO20*%
X62790686Y-189609314D02*
X62790686Y-188371447D01*
X59415000Y-189350611D02*
X56300000Y-192465611D01*
X57000000Y-186468628D02*
X57831372Y-187300000D01*
X56350000Y-195001471D02*
X56350000Y-195498529D01*
X59990380Y-188740380D02*
X59415000Y-189315761D01*
X62790686Y-188371447D02*
X62269239Y-187850000D01*
X58565611Y-187300000D02*
X59990380Y-188724769D01*
X62000000Y-190400000D02*
X62790686Y-189609314D01*
X59415000Y-189315761D02*
X59415000Y-189350611D01*
X59990380Y-188724769D02*
X59990380Y-188740380D01*
X59991421Y-184408579D02*
X58091421Y-184408579D01*
X55500000Y-196348529D02*
X55500000Y-216500000D01*
X57000000Y-185500000D02*
X57000000Y-186468628D01*
X55500000Y-216500000D02*
X54750000Y-217250000D01*
X56350000Y-195498529D02*
X55500000Y-196348529D01*
X62269239Y-187850000D02*
X60880761Y-187850000D01*
X57831372Y-187300000D02*
X58565611Y-187300000D01*
X56300000Y-192465611D02*
X56300000Y-194951471D01*
X58091421Y-184408579D02*
X57000000Y-185500000D01*
X60880761Y-187850000D02*
X59990380Y-188740380D01*
X56300000Y-194951471D02*
X56350000Y-195001471D01*
%TO.N,IO9*%
X69380000Y-187750000D02*
X69380000Y-183530000D01*
X69000000Y-189150000D02*
X69380000Y-188770000D01*
X54700000Y-209300000D02*
X54150000Y-209850000D01*
X73350000Y-219296751D02*
X73350000Y-190250000D01*
X58080761Y-223000000D02*
X69646751Y-223000000D01*
X54150000Y-209850000D02*
X54150000Y-219069239D01*
X73350000Y-190250000D02*
X70600000Y-187500000D01*
X54150000Y-219069239D02*
X58080761Y-223000000D01*
X69380000Y-188770000D02*
X69380000Y-187750000D01*
X70600000Y-187500000D02*
X69380000Y-187500000D01*
X69646751Y-223000000D02*
X73350000Y-219296751D01*
X69380000Y-183530000D02*
X71500000Y-181410000D01*
%TO.N,IO2*%
X62750000Y-171011522D02*
X59120000Y-167381522D01*
X58520000Y-147989013D02*
X58520000Y-122388715D01*
X62750000Y-172088478D02*
X62750000Y-171011522D01*
X60700000Y-181800000D02*
X60700000Y-174138478D01*
X58544500Y-109524839D02*
X58941800Y-109127539D01*
X60700000Y-174138478D02*
X62750000Y-172088478D01*
X71600000Y-191210306D02*
X70289694Y-189900000D01*
X71600000Y-195084314D02*
X71600000Y-191210306D01*
X59120000Y-153827058D02*
X59750000Y-153197058D01*
X70680762Y-195649999D02*
X71034315Y-195649999D01*
X58941800Y-78441800D02*
X57750000Y-77250000D01*
X68800000Y-189900000D02*
X60700000Y-181800000D01*
X58941800Y-109127539D02*
X58941800Y-78441800D01*
X70289694Y-189900000D02*
X68800000Y-189900000D01*
X59750000Y-149219013D02*
X58520000Y-147989013D01*
X71034315Y-195649999D02*
X71600000Y-195084314D01*
X59120000Y-167381522D02*
X59120000Y-153827058D01*
X58520000Y-122388715D02*
X58544500Y-122364215D01*
X59750000Y-153197058D02*
X59750000Y-149219013D01*
X58544500Y-122364215D02*
X58544500Y-109524839D01*
%TO.N,Net-(U1-GPIO3{slash}ADC1_CH3)*%
X68834314Y-190500000D02*
X60300000Y-181965686D01*
X69448623Y-190500000D02*
X68834314Y-190500000D01*
X60300000Y-181965686D02*
X60300000Y-172700000D01*
X60300000Y-172700000D02*
X61450000Y-171550000D01*
X70950000Y-194350000D02*
X70950000Y-192001377D01*
X70950000Y-192001377D02*
X69448623Y-190500000D01*
%TO.N,IO4*%
X67987499Y-193646250D02*
X67568628Y-193227379D01*
X67568628Y-193227379D02*
X67568628Y-190931372D01*
X67568628Y-190931372D02*
X62637256Y-186000000D01*
X62637256Y-186000000D02*
X58220000Y-186000000D01*
%TO.N,IO5*%
X67968628Y-190765686D02*
X67968628Y-192471503D01*
X55223619Y-161008217D02*
X55223619Y-161494363D01*
X56000000Y-177176414D02*
X56000000Y-178797058D01*
X67968628Y-192471503D02*
X68890537Y-193393412D01*
X56000000Y-178797058D02*
X67968628Y-190765686D01*
X57920000Y-175256414D02*
X56000000Y-177176414D01*
X55223619Y-161494363D02*
X57920000Y-164190744D01*
X57920000Y-164190744D02*
X57920000Y-175256414D01*
%TO.N,IO6*%
X66768629Y-195899999D02*
X68300001Y-195899999D01*
X63650000Y-205450000D02*
X65148255Y-203951745D01*
X59900000Y-205450000D02*
X63650000Y-205450000D01*
X70350000Y-192320616D02*
X69374310Y-191344926D01*
X70350000Y-193850000D02*
X70350000Y-192320616D01*
X68300001Y-195899999D02*
X70350000Y-193850000D01*
X65148255Y-197520373D02*
X66768629Y-195899999D01*
X65148255Y-203951745D02*
X65148255Y-197520373D01*
X59800000Y-205350000D02*
X59900000Y-205450000D01*
%TO.N,IO7*%
X56415000Y-190300000D02*
X52800000Y-190300000D01*
X52800000Y-190300000D02*
X51750000Y-189250000D01*
X57965000Y-188750000D02*
X56415000Y-190300000D01*
%TO.N,IO8*%
X65548255Y-209548255D02*
X67895190Y-211895190D01*
X67895190Y-220854810D02*
X66900000Y-221850000D01*
X67895190Y-211895190D02*
X67895190Y-220854810D01*
X70055380Y-189100000D02*
X72000000Y-191044620D01*
X70950001Y-196299999D02*
X66934315Y-196299999D01*
X72000000Y-195250000D02*
X70950001Y-196299999D01*
X72000000Y-191044620D02*
X72000000Y-195250000D01*
X66900000Y-221850000D02*
X61350000Y-221850000D01*
X66934315Y-196299999D02*
X65548255Y-197686059D01*
X61350000Y-221850000D02*
X58250000Y-218750000D01*
X65548255Y-197686059D02*
X65548255Y-209548255D01*
%TO.N,IO10*%
X72400000Y-190520000D02*
X72400000Y-195600000D01*
X67100001Y-196699999D02*
X65948255Y-197851745D01*
X67065686Y-222250000D02*
X58250000Y-222250000D01*
X70030000Y-188150000D02*
X72400000Y-190520000D01*
X72400000Y-195600000D02*
X71300001Y-196699999D01*
X68295190Y-211729504D02*
X68295190Y-221020496D01*
X65948255Y-209382569D02*
X68295190Y-211729504D01*
X71300001Y-196699999D02*
X67100001Y-196699999D01*
X68295190Y-221020496D02*
X67065686Y-222250000D01*
X65948255Y-197851745D02*
X65948255Y-209382569D01*
%TO.N,/CC2*%
X66390190Y-218245190D02*
X65520190Y-218245190D01*
X66801008Y-217834372D02*
X66390190Y-218245190D01*
X66801008Y-217480818D02*
X66801008Y-217834372D01*
%TO.N,/CC1*%
X66825950Y-215245190D02*
X65520190Y-215245190D01*
X66835570Y-215254810D02*
X66825950Y-215245190D01*
D26*
%TO.N,VBAT*%
X54500000Y-151250000D02*
X51750000Y-148500000D01*
X56750000Y-151250000D02*
X54500000Y-151250000D01*
X51750000Y-148500000D02*
X49250000Y-148500000D01*
D24*
%TO.N,VCC*%
X71600000Y-200600000D02*
X66900000Y-200600000D01*
X72500000Y-198800000D02*
X72500000Y-199700000D01*
X72500000Y-199700000D02*
X71600000Y-200600000D01*
%TD*%
%TA.AperFunction,Conductor*%
%TO.N,GND*%
G36*
X71503234Y-34550711D02*
G01*
X71747989Y-34566753D01*
X71760817Y-34568442D01*
X71998217Y-34615664D01*
X72010706Y-34619011D01*
X72239901Y-34696812D01*
X72251857Y-34701765D01*
X72468933Y-34808815D01*
X72480148Y-34815290D01*
X72681386Y-34949754D01*
X72691652Y-34957630D01*
X72873636Y-35117225D01*
X72882774Y-35126363D01*
X73042367Y-35308345D01*
X73050245Y-35318613D01*
X73184709Y-35519851D01*
X73191184Y-35531066D01*
X73298234Y-35748142D01*
X73303190Y-35760107D01*
X73380985Y-35989284D01*
X73384337Y-36001792D01*
X73431556Y-36239177D01*
X73433246Y-36252016D01*
X73449288Y-36496765D01*
X73449500Y-36503240D01*
X73449500Y-189685521D01*
X73430593Y-189743712D01*
X73381093Y-189779676D01*
X73319907Y-189779676D01*
X73280496Y-189755525D01*
X72036536Y-188511565D01*
X70784511Y-187259540D01*
X70784508Y-187259538D01*
X70715992Y-187219980D01*
X70715988Y-187219978D01*
X70639564Y-187199500D01*
X70639562Y-187199500D01*
X69779500Y-187199500D01*
X69721309Y-187180593D01*
X69685345Y-187131093D01*
X69680500Y-187100500D01*
X69680500Y-183949996D01*
X70344417Y-183949996D01*
X70344417Y-183950003D01*
X70364698Y-184155929D01*
X70364699Y-184155934D01*
X70424768Y-184353954D01*
X70522316Y-184536452D01*
X70534285Y-184551036D01*
X70653590Y-184696410D01*
X70653595Y-184696414D01*
X70813547Y-184827683D01*
X70813548Y-184827683D01*
X70813550Y-184827685D01*
X70996046Y-184925232D01*
X71133997Y-184967078D01*
X71194065Y-184985300D01*
X71194070Y-184985301D01*
X71399997Y-185005583D01*
X71400000Y-185005583D01*
X71400003Y-185005583D01*
X71605929Y-184985301D01*
X71605934Y-184985300D01*
X71803954Y-184925232D01*
X71986450Y-184827685D01*
X72146410Y-184696410D01*
X72277685Y-184536450D01*
X72375232Y-184353954D01*
X72435300Y-184155934D01*
X72435301Y-184155929D01*
X72455583Y-183950003D01*
X72455583Y-183949996D01*
X72435301Y-183744070D01*
X72435300Y-183744065D01*
X72399326Y-183625474D01*
X72375232Y-183546046D01*
X72277685Y-183363550D01*
X72146410Y-183203590D01*
X72072119Y-183142621D01*
X71986452Y-183072316D01*
X71803954Y-182974768D01*
X71605934Y-182914699D01*
X71605929Y-182914698D01*
X71400003Y-182894417D01*
X71399997Y-182894417D01*
X71194070Y-182914698D01*
X71194065Y-182914699D01*
X70996045Y-182974768D01*
X70813547Y-183072316D01*
X70653595Y-183203585D01*
X70653585Y-183203595D01*
X70522316Y-183363547D01*
X70424768Y-183546045D01*
X70364699Y-183744065D01*
X70364698Y-183744070D01*
X70344417Y-183949996D01*
X69680500Y-183949996D01*
X69680500Y-183695478D01*
X69699407Y-183637287D01*
X69709490Y-183625480D01*
X70918559Y-182416410D01*
X70973074Y-182388635D01*
X71017299Y-182391679D01*
X71194065Y-182445300D01*
X71194070Y-182445301D01*
X71399997Y-182465583D01*
X71400000Y-182465583D01*
X71400003Y-182465583D01*
X71605929Y-182445301D01*
X71605934Y-182445300D01*
X71803954Y-182385232D01*
X71986450Y-182287685D01*
X72146410Y-182156410D01*
X72277685Y-181996450D01*
X72375232Y-181813954D01*
X72435300Y-181615934D01*
X72435301Y-181615929D01*
X72455583Y-181410003D01*
X72455583Y-181409996D01*
X72435301Y-181204070D01*
X72435300Y-181204065D01*
X72384837Y-181037711D01*
X72375232Y-181006046D01*
X72277685Y-180823550D01*
X72249543Y-180789259D01*
X72146414Y-180663595D01*
X72146410Y-180663590D01*
X72129853Y-180650002D01*
X71986452Y-180532316D01*
X71803954Y-180434768D01*
X71605934Y-180374699D01*
X71605929Y-180374698D01*
X71400003Y-180354417D01*
X71399997Y-180354417D01*
X71194070Y-180374698D01*
X71194065Y-180374699D01*
X70996045Y-180434768D01*
X70813547Y-180532316D01*
X70653595Y-180663585D01*
X70653585Y-180663595D01*
X70522316Y-180823547D01*
X70424768Y-181006045D01*
X70364699Y-181204065D01*
X70364698Y-181204070D01*
X70344417Y-181409996D01*
X70344417Y-181410003D01*
X70364698Y-181615929D01*
X70364699Y-181615934D01*
X70422325Y-181805901D01*
X70424768Y-181813954D01*
X70475951Y-181909711D01*
X70486707Y-181969942D01*
X70460006Y-182024993D01*
X70458645Y-182026382D01*
X69449504Y-183035524D01*
X69394987Y-183063301D01*
X69334555Y-183053730D01*
X69291290Y-183010465D01*
X69280500Y-182965520D01*
X69280500Y-179015478D01*
X69299407Y-178957287D01*
X69309490Y-178945480D01*
X69384974Y-178869996D01*
X70344417Y-178869996D01*
X70344417Y-178870003D01*
X70364698Y-179075929D01*
X70364699Y-179075934D01*
X70424768Y-179273954D01*
X70522316Y-179456452D01*
X70556028Y-179497530D01*
X70653590Y-179616410D01*
X70653595Y-179616414D01*
X70813547Y-179747683D01*
X70813548Y-179747683D01*
X70813550Y-179747685D01*
X70996046Y-179845232D01*
X71105767Y-179878515D01*
X71194065Y-179905300D01*
X71194070Y-179905301D01*
X71399997Y-179925583D01*
X71400000Y-179925583D01*
X71400003Y-179925583D01*
X71605929Y-179905301D01*
X71605934Y-179905300D01*
X71625054Y-179899500D01*
X71803954Y-179845232D01*
X71986450Y-179747685D01*
X72146410Y-179616410D01*
X72277685Y-179456450D01*
X72375232Y-179273954D01*
X72435300Y-179075934D01*
X72435301Y-179075929D01*
X72455583Y-178870003D01*
X72455583Y-178869996D01*
X72435301Y-178664070D01*
X72435300Y-178664065D01*
X72417078Y-178603997D01*
X72375232Y-178466046D01*
X72277685Y-178283550D01*
X72146410Y-178123590D01*
X72146404Y-178123585D01*
X71986452Y-177992316D01*
X71803954Y-177894768D01*
X71605934Y-177834699D01*
X71605929Y-177834698D01*
X71400003Y-177814417D01*
X71399997Y-177814417D01*
X71194070Y-177834698D01*
X71194065Y-177834699D01*
X70996045Y-177894768D01*
X70813547Y-177992316D01*
X70653595Y-178123585D01*
X70653585Y-178123595D01*
X70522316Y-178283547D01*
X70424768Y-178466045D01*
X70364699Y-178664065D01*
X70364698Y-178664070D01*
X70344417Y-178869996D01*
X69384974Y-178869996D01*
X70918559Y-177336410D01*
X70973074Y-177308635D01*
X71017299Y-177311679D01*
X71194065Y-177365300D01*
X71194070Y-177365301D01*
X71399997Y-177385583D01*
X71400000Y-177385583D01*
X71400003Y-177385583D01*
X71605929Y-177365301D01*
X71605934Y-177365300D01*
X71803954Y-177305232D01*
X71986450Y-177207685D01*
X72146410Y-177076410D01*
X72277685Y-176916450D01*
X72375232Y-176733954D01*
X72435300Y-176535934D01*
X72435301Y-176535929D01*
X72455583Y-176330003D01*
X72455583Y-176329996D01*
X72435301Y-176124070D01*
X72435300Y-176124065D01*
X72379960Y-175941633D01*
X72375232Y-175926046D01*
X72277685Y-175743550D01*
X72256037Y-175717172D01*
X72146414Y-175583595D01*
X72146410Y-175583590D01*
X72073033Y-175523371D01*
X71986452Y-175452316D01*
X71803954Y-175354768D01*
X71605934Y-175294699D01*
X71605929Y-175294698D01*
X71400003Y-175274417D01*
X71399997Y-175274417D01*
X71194070Y-175294698D01*
X71194065Y-175294699D01*
X70996045Y-175354768D01*
X70813547Y-175452316D01*
X70653595Y-175583585D01*
X70653585Y-175583595D01*
X70522316Y-175743547D01*
X70424768Y-175926045D01*
X70364699Y-176124065D01*
X70364698Y-176124070D01*
X70344417Y-176329996D01*
X70344417Y-176330003D01*
X70364698Y-176535929D01*
X70364699Y-176535934D01*
X70424768Y-176733954D01*
X70475951Y-176829711D01*
X70486707Y-176889942D01*
X70460006Y-176944993D01*
X70458645Y-176946382D01*
X68795489Y-178609540D01*
X68795488Y-178609539D01*
X68739540Y-178665488D01*
X68735236Y-178672944D01*
X68689765Y-178713885D01*
X68628915Y-178720279D01*
X68575928Y-178689686D01*
X68551042Y-178633790D01*
X68550500Y-178623443D01*
X68550500Y-177205478D01*
X68569407Y-177147287D01*
X68579490Y-177135480D01*
X70918559Y-174796410D01*
X70973074Y-174768635D01*
X71017299Y-174771679D01*
X71194065Y-174825300D01*
X71194070Y-174825301D01*
X71399997Y-174845583D01*
X71400000Y-174845583D01*
X71400003Y-174845583D01*
X71605929Y-174825301D01*
X71605934Y-174825300D01*
X71628334Y-174818505D01*
X71803954Y-174765232D01*
X71986450Y-174667685D01*
X72146410Y-174536410D01*
X72277685Y-174376450D01*
X72375232Y-174193954D01*
X72435300Y-173995934D01*
X72435301Y-173995929D01*
X72455583Y-173790003D01*
X72455583Y-173789996D01*
X72435301Y-173584070D01*
X72435300Y-173584065D01*
X72417078Y-173523997D01*
X72375232Y-173386046D01*
X72277685Y-173203550D01*
X72146410Y-173043590D01*
X72146404Y-173043585D01*
X71986452Y-172912316D01*
X71803954Y-172814768D01*
X71605934Y-172754699D01*
X71605929Y-172754698D01*
X71400003Y-172734417D01*
X71399997Y-172734417D01*
X71194070Y-172754698D01*
X71194065Y-172754699D01*
X70996045Y-172814768D01*
X70813547Y-172912316D01*
X70653595Y-173043585D01*
X70653585Y-173043595D01*
X70522316Y-173203547D01*
X70424768Y-173386045D01*
X70364699Y-173584065D01*
X70364698Y-173584070D01*
X70344417Y-173789996D01*
X70344417Y-173790003D01*
X70364698Y-173995929D01*
X70364699Y-173995934D01*
X70424768Y-174193954D01*
X70475951Y-174289711D01*
X70486707Y-174349942D01*
X70460006Y-174404993D01*
X70458645Y-174406382D01*
X68065489Y-176799540D01*
X68065488Y-176799539D01*
X68009539Y-176855489D01*
X67969980Y-176924007D01*
X67969978Y-176924011D01*
X67949500Y-177000435D01*
X67949500Y-181296105D01*
X67930593Y-181354296D01*
X67923258Y-181362289D01*
X67923509Y-181362506D01*
X67918872Y-181367856D01*
X67918872Y-181367857D01*
X67892287Y-181398538D01*
X67824622Y-181476628D01*
X67764834Y-181607543D01*
X67744353Y-181749997D01*
X67744353Y-181750002D01*
X67764834Y-181892456D01*
X67824622Y-182023371D01*
X67824623Y-182023373D01*
X67918872Y-182132143D01*
X67918873Y-182132144D01*
X68039942Y-182209950D01*
X68039947Y-182209953D01*
X68146403Y-182241211D01*
X68178035Y-182250499D01*
X68178036Y-182250499D01*
X68178039Y-182250500D01*
X68178041Y-182250500D01*
X68321959Y-182250500D01*
X68321961Y-182250500D01*
X68460053Y-182209953D01*
X68526979Y-182166942D01*
X68586151Y-182151388D01*
X68643168Y-182173586D01*
X68676247Y-182225059D01*
X68679500Y-182250227D01*
X68679500Y-184784350D01*
X68660593Y-184842541D01*
X68611093Y-184878505D01*
X68549907Y-184878505D01*
X68501958Y-184844618D01*
X68473383Y-184807378D01*
X68358387Y-184719138D01*
X68358383Y-184719136D01*
X68224471Y-184663669D01*
X68224470Y-184663668D01*
X68080762Y-184644749D01*
X67937053Y-184663668D01*
X67937052Y-184663669D01*
X67803140Y-184719136D01*
X67803136Y-184719138D01*
X67688143Y-184807376D01*
X67688139Y-184807380D01*
X67599901Y-184922373D01*
X67599899Y-184922377D01*
X67544432Y-185056289D01*
X67544431Y-185056290D01*
X67525512Y-185199998D01*
X67525512Y-185200000D01*
X67534295Y-185266718D01*
X67523145Y-185326878D01*
X67506147Y-185349642D01*
X67435285Y-185420504D01*
X67380771Y-185448281D01*
X67365283Y-185449500D01*
X67115479Y-185449500D01*
X67057288Y-185430593D01*
X67045475Y-185420504D01*
X64899728Y-183274757D01*
X64871951Y-183220240D01*
X64881522Y-183159808D01*
X64891190Y-183144485D01*
X64892619Y-183142622D01*
X64892621Y-183142621D01*
X64980861Y-183027625D01*
X65036330Y-182893709D01*
X65055250Y-182750000D01*
X65036330Y-182606291D01*
X64980861Y-182472375D01*
X64892621Y-182357379D01*
X64777625Y-182269139D01*
X64777621Y-182269137D01*
X64643709Y-182213670D01*
X64643708Y-182213669D01*
X64500000Y-182194750D01*
X64356291Y-182213669D01*
X64356290Y-182213670D01*
X64222378Y-182269137D01*
X64222374Y-182269139D01*
X64107381Y-182357377D01*
X64107377Y-182357381D01*
X64019139Y-182472374D01*
X64019137Y-182472378D01*
X63963670Y-182606290D01*
X63963669Y-182606291D01*
X63944750Y-182749999D01*
X63944750Y-182750000D01*
X63963670Y-182893709D01*
X63980756Y-182934959D01*
X63985555Y-182995954D01*
X63953585Y-183048123D01*
X63897057Y-183071537D01*
X63837563Y-183057253D01*
X63819287Y-183042846D01*
X62229496Y-181453055D01*
X62201719Y-181398538D01*
X62200500Y-181383051D01*
X62200500Y-180853893D01*
X62219407Y-180795702D01*
X62226741Y-180787711D01*
X62226491Y-180787494D01*
X62231128Y-180782143D01*
X62325377Y-180673373D01*
X62385165Y-180542457D01*
X62405575Y-180400500D01*
X62405647Y-180400002D01*
X62405647Y-180399997D01*
X62385165Y-180257543D01*
X62342932Y-180165067D01*
X62325377Y-180126627D01*
X62231128Y-180017857D01*
X62231127Y-180017856D01*
X62231126Y-180017855D01*
X62110057Y-179940049D01*
X62110054Y-179940047D01*
X62110053Y-179940047D01*
X62110050Y-179940046D01*
X61971964Y-179899500D01*
X61971961Y-179899500D01*
X61828039Y-179899500D01*
X61828035Y-179899500D01*
X61689949Y-179940046D01*
X61689942Y-179940049D01*
X61568873Y-180017855D01*
X61474622Y-180126628D01*
X61414834Y-180257543D01*
X61394353Y-180399997D01*
X61394353Y-180400002D01*
X61414834Y-180542456D01*
X61453267Y-180626610D01*
X61474623Y-180673373D01*
X61544795Y-180754357D01*
X61573509Y-180787494D01*
X61571471Y-180789259D01*
X61596925Y-180831458D01*
X61599500Y-180853893D01*
X61599500Y-181588094D01*
X61619976Y-181664511D01*
X61619978Y-181664515D01*
X61619979Y-181664519D01*
X61619980Y-181664520D01*
X61632188Y-181685666D01*
X61632189Y-181685666D01*
X61659540Y-181733041D01*
X63580970Y-183654471D01*
X65495188Y-185568689D01*
X65522965Y-185623206D01*
X65523177Y-185652780D01*
X65520088Y-185674267D01*
X65540569Y-185816721D01*
X65600357Y-185947636D01*
X65600358Y-185947638D01*
X65645729Y-185999999D01*
X65694608Y-186056409D01*
X65806047Y-186128026D01*
X65815682Y-186134218D01*
X65917077Y-186163990D01*
X65953770Y-186174764D01*
X65953771Y-186174764D01*
X65953774Y-186174765D01*
X65953776Y-186174765D01*
X66060256Y-186174765D01*
X66118447Y-186193672D01*
X66130260Y-186203761D01*
X66261010Y-186334511D01*
X66261009Y-186334511D01*
X66316959Y-186390460D01*
X66385477Y-186430019D01*
X66385481Y-186430021D01*
X66461905Y-186450499D01*
X66461907Y-186450500D01*
X66461908Y-186450500D01*
X68089563Y-186450500D01*
X68089563Y-186450499D01*
X68165989Y-186430021D01*
X68234511Y-186390460D01*
X68290460Y-186334511D01*
X68910496Y-185714475D01*
X68965013Y-185686698D01*
X69025445Y-185696269D01*
X69068710Y-185739534D01*
X69079500Y-185784479D01*
X69079500Y-188497462D01*
X69060593Y-188555653D01*
X69011093Y-188591617D01*
X68993423Y-188595615D01*
X68856291Y-188613670D01*
X68856290Y-188613670D01*
X68722378Y-188669137D01*
X68722374Y-188669139D01*
X68607381Y-188757377D01*
X68607377Y-188757381D01*
X68519139Y-188872374D01*
X68519138Y-188872375D01*
X68481588Y-188963031D01*
X68441851Y-189009556D01*
X68382356Y-189023840D01*
X68325828Y-189000425D01*
X68320120Y-188995149D01*
X61029496Y-181704525D01*
X61001719Y-181650008D01*
X61000500Y-181634521D01*
X61000500Y-174303956D01*
X61019407Y-174245765D01*
X61029490Y-174233958D01*
X62990460Y-172272989D01*
X63023891Y-172215084D01*
X63030021Y-172204467D01*
X63050500Y-172128040D01*
X63050500Y-171550000D01*
X64744859Y-171550000D01*
X64765379Y-171771445D01*
X64826239Y-171985347D01*
X64925366Y-172184421D01*
X64925375Y-172184436D01*
X65032407Y-172326168D01*
X65495606Y-171862968D01*
X65509890Y-171887708D01*
X65612292Y-171990110D01*
X65637028Y-172004391D01*
X65174544Y-172466874D01*
X65174545Y-172466876D01*
X65223736Y-172511720D01*
X65412823Y-172628797D01*
X65620200Y-172709136D01*
X65838804Y-172750000D01*
X66061196Y-172750000D01*
X66279799Y-172709136D01*
X66487176Y-172628797D01*
X66676259Y-172511722D01*
X66725453Y-172466875D01*
X66262970Y-172004392D01*
X66287708Y-171990110D01*
X66390110Y-171887708D01*
X66404392Y-171862970D01*
X66867591Y-172326169D01*
X66974624Y-172184436D01*
X66974633Y-172184421D01*
X67073760Y-171985347D01*
X67134620Y-171771445D01*
X67155140Y-171550000D01*
X67134620Y-171328554D01*
X67073760Y-171114652D01*
X66974633Y-170915578D01*
X66974624Y-170915563D01*
X66867590Y-170773829D01*
X66404391Y-171237028D01*
X66390110Y-171212292D01*
X66287708Y-171109890D01*
X66262968Y-171095607D01*
X66725453Y-170633123D01*
X66676260Y-170588277D01*
X66487176Y-170471202D01*
X66279799Y-170390863D01*
X66223285Y-170380299D01*
X70350000Y-170380299D01*
X70350000Y-171149999D01*
X70350001Y-171150000D01*
X70909157Y-171150000D01*
X70900000Y-171184174D01*
X70900000Y-171315826D01*
X70909157Y-171350000D01*
X70350001Y-171350000D01*
X70350000Y-171350001D01*
X70350000Y-172119700D01*
X70361603Y-172178036D01*
X70405806Y-172244189D01*
X70405810Y-172244193D01*
X70471963Y-172288396D01*
X70530299Y-172299999D01*
X70530303Y-172300000D01*
X71299999Y-172300000D01*
X71300000Y-172299999D01*
X71300000Y-171740842D01*
X71334174Y-171750000D01*
X71465826Y-171750000D01*
X71500000Y-171740842D01*
X71500000Y-172299999D01*
X71500001Y-172300000D01*
X72269697Y-172300000D01*
X72269700Y-172299999D01*
X72328036Y-172288396D01*
X72394189Y-172244193D01*
X72394193Y-172244189D01*
X72438396Y-172178036D01*
X72449999Y-172119700D01*
X72450000Y-172119697D01*
X72450000Y-171350001D01*
X72449999Y-171350000D01*
X71890843Y-171350000D01*
X71900000Y-171315826D01*
X71900000Y-171184174D01*
X71890843Y-171150000D01*
X72449999Y-171150000D01*
X72450000Y-171149999D01*
X72450000Y-170380302D01*
X72449999Y-170380299D01*
X72438396Y-170321963D01*
X72394193Y-170255810D01*
X72394189Y-170255806D01*
X72328036Y-170211603D01*
X72269700Y-170200000D01*
X71500001Y-170200000D01*
X71500000Y-170200001D01*
X71500000Y-170759157D01*
X71465826Y-170750000D01*
X71334174Y-170750000D01*
X71300000Y-170759157D01*
X71300000Y-170200001D01*
X71299999Y-170200000D01*
X70530299Y-170200000D01*
X70471963Y-170211603D01*
X70405810Y-170255806D01*
X70405806Y-170255810D01*
X70361603Y-170321963D01*
X70350000Y-170380299D01*
X66223285Y-170380299D01*
X66061196Y-170350000D01*
X65838804Y-170350000D01*
X65620200Y-170390863D01*
X65412821Y-170471202D01*
X65412816Y-170471205D01*
X65223742Y-170588275D01*
X65223739Y-170588277D01*
X65174545Y-170633123D01*
X65637029Y-171095607D01*
X65612292Y-171109890D01*
X65509890Y-171212292D01*
X65495607Y-171237029D01*
X65032409Y-170773831D01*
X64925369Y-170915573D01*
X64925364Y-170915582D01*
X64826239Y-171114652D01*
X64765379Y-171328554D01*
X64744859Y-171550000D01*
X63050500Y-171550000D01*
X63050500Y-170971960D01*
X63030021Y-170895533D01*
X63003675Y-170849901D01*
X62990460Y-170827011D01*
X62934511Y-170771061D01*
X62934511Y-170771062D01*
X60873445Y-168709996D01*
X70344417Y-168709996D01*
X70344417Y-168710003D01*
X70364698Y-168915929D01*
X70364699Y-168915934D01*
X70424768Y-169113954D01*
X70522316Y-169296452D01*
X70653585Y-169456404D01*
X70653590Y-169456410D01*
X70653595Y-169456414D01*
X70813547Y-169587683D01*
X70813548Y-169587683D01*
X70813550Y-169587685D01*
X70996046Y-169685232D01*
X71133997Y-169727078D01*
X71194065Y-169745300D01*
X71194070Y-169745301D01*
X71399997Y-169765583D01*
X71400000Y-169765583D01*
X71400003Y-169765583D01*
X71605929Y-169745301D01*
X71605934Y-169745300D01*
X71803954Y-169685232D01*
X71986450Y-169587685D01*
X72146410Y-169456410D01*
X72277685Y-169296450D01*
X72375232Y-169113954D01*
X72435300Y-168915934D01*
X72435301Y-168915929D01*
X72455583Y-168710003D01*
X72455583Y-168709996D01*
X72435301Y-168504070D01*
X72435300Y-168504065D01*
X72417078Y-168443997D01*
X72375232Y-168306046D01*
X72277685Y-168123550D01*
X72146410Y-167963590D01*
X72124978Y-167946001D01*
X71986452Y-167832316D01*
X71803954Y-167734768D01*
X71605934Y-167674699D01*
X71605929Y-167674698D01*
X71400003Y-167654417D01*
X71399997Y-167654417D01*
X71194070Y-167674698D01*
X71194065Y-167674699D01*
X70996045Y-167734768D01*
X70813547Y-167832316D01*
X70653595Y-167963585D01*
X70653585Y-167963595D01*
X70522316Y-168123547D01*
X70424768Y-168306045D01*
X70364699Y-168504065D01*
X70364698Y-168504070D01*
X70344417Y-168709996D01*
X60873445Y-168709996D01*
X59449496Y-167286047D01*
X59421719Y-167231530D01*
X59420500Y-167216043D01*
X59420500Y-165050000D01*
X60244357Y-165050000D01*
X60264885Y-165271536D01*
X60325771Y-165485528D01*
X60424942Y-165684689D01*
X60559019Y-165862236D01*
X60723438Y-166012124D01*
X60912599Y-166129247D01*
X61120060Y-166209618D01*
X61338757Y-166250500D01*
X61561243Y-166250500D01*
X61779940Y-166209618D01*
X61987401Y-166129247D01*
X62176562Y-166012124D01*
X62340981Y-165862236D01*
X62475058Y-165684689D01*
X62574229Y-165485528D01*
X62635115Y-165271536D01*
X62655643Y-165050000D01*
X64744859Y-165050000D01*
X64765379Y-165271445D01*
X64826239Y-165485347D01*
X64925366Y-165684421D01*
X64925375Y-165684436D01*
X65032407Y-165826168D01*
X65495606Y-165362968D01*
X65509890Y-165387708D01*
X65612292Y-165490110D01*
X65637028Y-165504391D01*
X65174544Y-165966874D01*
X65174545Y-165966876D01*
X65223736Y-166011720D01*
X65412823Y-166128797D01*
X65620200Y-166209136D01*
X65838804Y-166250000D01*
X66061196Y-166250000D01*
X66279799Y-166209136D01*
X66380830Y-166169996D01*
X70344417Y-166169996D01*
X70344417Y-166170003D01*
X70364698Y-166375929D01*
X70364699Y-166375934D01*
X70424768Y-166573954D01*
X70522316Y-166756452D01*
X70653585Y-166916404D01*
X70653590Y-166916410D01*
X70653595Y-166916414D01*
X70813547Y-167047683D01*
X70813548Y-167047683D01*
X70813550Y-167047685D01*
X70996046Y-167145232D01*
X71133997Y-167187078D01*
X71194065Y-167205300D01*
X71194070Y-167205301D01*
X71399997Y-167225583D01*
X71400000Y-167225583D01*
X71400003Y-167225583D01*
X71605929Y-167205301D01*
X71605934Y-167205300D01*
X71803954Y-167145232D01*
X71986450Y-167047685D01*
X72146410Y-166916410D01*
X72277685Y-166756450D01*
X72375232Y-166573954D01*
X72435300Y-166375934D01*
X72435301Y-166375929D01*
X72455583Y-166170003D01*
X72455583Y-166169996D01*
X72435301Y-165964070D01*
X72435300Y-165964065D01*
X72417078Y-165903997D01*
X72375232Y-165766046D01*
X72277685Y-165583550D01*
X72146410Y-165423590D01*
X72146404Y-165423585D01*
X71986452Y-165292316D01*
X71803954Y-165194768D01*
X71605934Y-165134699D01*
X71605929Y-165134698D01*
X71400003Y-165114417D01*
X71399997Y-165114417D01*
X71194070Y-165134698D01*
X71194065Y-165134699D01*
X70996045Y-165194768D01*
X70813547Y-165292316D01*
X70653595Y-165423585D01*
X70653585Y-165423595D01*
X70522316Y-165583547D01*
X70424768Y-165766045D01*
X70364699Y-165964065D01*
X70364698Y-165964070D01*
X70344417Y-166169996D01*
X66380830Y-166169996D01*
X66487176Y-166128797D01*
X66676259Y-166011722D01*
X66725453Y-165966875D01*
X66262970Y-165504392D01*
X66287708Y-165490110D01*
X66390110Y-165387708D01*
X66404392Y-165362970D01*
X66867591Y-165826169D01*
X66974624Y-165684436D01*
X66974633Y-165684421D01*
X67073760Y-165485347D01*
X67134620Y-165271445D01*
X67155140Y-165050000D01*
X67134620Y-164828554D01*
X67073760Y-164614652D01*
X66974633Y-164415578D01*
X66974624Y-164415563D01*
X66867590Y-164273829D01*
X66404391Y-164737028D01*
X66390110Y-164712292D01*
X66287708Y-164609890D01*
X66262968Y-164595607D01*
X66725453Y-164133123D01*
X66676260Y-164088277D01*
X66487176Y-163971202D01*
X66279799Y-163890863D01*
X66061196Y-163850000D01*
X65838804Y-163850000D01*
X65620200Y-163890863D01*
X65412821Y-163971202D01*
X65412816Y-163971205D01*
X65223742Y-164088275D01*
X65223739Y-164088277D01*
X65174545Y-164133123D01*
X65637029Y-164595607D01*
X65612292Y-164609890D01*
X65509890Y-164712292D01*
X65495607Y-164737029D01*
X65032409Y-164273831D01*
X64925369Y-164415573D01*
X64925364Y-164415582D01*
X64826239Y-164614652D01*
X64765379Y-164828554D01*
X64744859Y-165050000D01*
X62655643Y-165050000D01*
X62635115Y-164828464D01*
X62574229Y-164614472D01*
X62475058Y-164415311D01*
X62340981Y-164237764D01*
X62176562Y-164087876D01*
X61987401Y-163970753D01*
X61779940Y-163890382D01*
X61779939Y-163890381D01*
X61779937Y-163890381D01*
X61561243Y-163849500D01*
X61338757Y-163849500D01*
X61120062Y-163890381D01*
X61118818Y-163890863D01*
X60912599Y-163970753D01*
X60723438Y-164087876D01*
X60559020Y-164237763D01*
X60424943Y-164415309D01*
X60424938Y-164415318D01*
X60325772Y-164614469D01*
X60325771Y-164614472D01*
X60264885Y-164828464D01*
X60244357Y-165050000D01*
X59420500Y-165050000D01*
X59420500Y-161950000D01*
X60244859Y-161950000D01*
X60265379Y-162171445D01*
X60326239Y-162385347D01*
X60425366Y-162584421D01*
X60425375Y-162584436D01*
X60532407Y-162726168D01*
X60995606Y-162262968D01*
X61009890Y-162287708D01*
X61112292Y-162390110D01*
X61137028Y-162404391D01*
X60674544Y-162866874D01*
X60674545Y-162866876D01*
X60723736Y-162911720D01*
X60912823Y-163028797D01*
X61120200Y-163109136D01*
X61338804Y-163150000D01*
X61561196Y-163150000D01*
X61779799Y-163109136D01*
X61987176Y-163028797D01*
X62176259Y-162911722D01*
X62225453Y-162866875D01*
X61762970Y-162404392D01*
X61787708Y-162390110D01*
X61890110Y-162287708D01*
X61904392Y-162262970D01*
X62367591Y-162726169D01*
X62474624Y-162584436D01*
X62474633Y-162584421D01*
X62573760Y-162385347D01*
X62634620Y-162171445D01*
X62655140Y-161950000D01*
X64744357Y-161950000D01*
X64764885Y-162171536D01*
X64825771Y-162385528D01*
X64924942Y-162584689D01*
X65059019Y-162762236D01*
X65223438Y-162912124D01*
X65412599Y-163029247D01*
X65620060Y-163109618D01*
X65838757Y-163150500D01*
X66061243Y-163150500D01*
X66279940Y-163109618D01*
X66487401Y-163029247D01*
X66676562Y-162912124D01*
X66840981Y-162762236D01*
X66975058Y-162584689D01*
X67074229Y-162385528D01*
X67135115Y-162171536D01*
X67155643Y-161950000D01*
X67135115Y-161728464D01*
X67074229Y-161514472D01*
X66975058Y-161315311D01*
X66840981Y-161137764D01*
X66676562Y-160987876D01*
X66487401Y-160870753D01*
X66279940Y-160790382D01*
X66279939Y-160790381D01*
X66279937Y-160790381D01*
X66061243Y-160749500D01*
X65838757Y-160749500D01*
X65620062Y-160790381D01*
X65618818Y-160790863D01*
X65412599Y-160870753D01*
X65223438Y-160987876D01*
X65059019Y-161137764D01*
X65031784Y-161173829D01*
X64924943Y-161315309D01*
X64924938Y-161315318D01*
X64825772Y-161514469D01*
X64825771Y-161514472D01*
X64764885Y-161728464D01*
X64744357Y-161950000D01*
X62655140Y-161950000D01*
X62634620Y-161728554D01*
X62573760Y-161514652D01*
X62474633Y-161315578D01*
X62474624Y-161315563D01*
X62367590Y-161173829D01*
X61904391Y-161637028D01*
X61890110Y-161612292D01*
X61787708Y-161509890D01*
X61762968Y-161495607D01*
X62225453Y-161033123D01*
X62176260Y-160988277D01*
X61987176Y-160871202D01*
X61779799Y-160790863D01*
X61561196Y-160750000D01*
X61338804Y-160750000D01*
X61120200Y-160790863D01*
X60912821Y-160871202D01*
X60912816Y-160871205D01*
X60723742Y-160988275D01*
X60723739Y-160988277D01*
X60674545Y-161033123D01*
X61137029Y-161495607D01*
X61112292Y-161509890D01*
X61009890Y-161612292D01*
X60995607Y-161637029D01*
X60532409Y-161173831D01*
X60425369Y-161315573D01*
X60425364Y-161315582D01*
X60326239Y-161514652D01*
X60265379Y-161728554D01*
X60244859Y-161950000D01*
X59420500Y-161950000D01*
X59420500Y-155450000D01*
X60244859Y-155450000D01*
X60265379Y-155671445D01*
X60326239Y-155885347D01*
X60425366Y-156084421D01*
X60425375Y-156084436D01*
X60532407Y-156226168D01*
X60995606Y-155762968D01*
X61009890Y-155787708D01*
X61112292Y-155890110D01*
X61137028Y-155904391D01*
X60674544Y-156366874D01*
X60674545Y-156366876D01*
X60723736Y-156411720D01*
X60912823Y-156528797D01*
X61120200Y-156609136D01*
X61338804Y-156650000D01*
X61561196Y-156650000D01*
X61779799Y-156609136D01*
X61987176Y-156528797D01*
X62176259Y-156411722D01*
X62225453Y-156366875D01*
X61762970Y-155904392D01*
X61787708Y-155890110D01*
X61890110Y-155787708D01*
X61904392Y-155762970D01*
X62367591Y-156226169D01*
X62474624Y-156084436D01*
X62474633Y-156084421D01*
X62573760Y-155885347D01*
X62634620Y-155671445D01*
X62655140Y-155450000D01*
X64744357Y-155450000D01*
X64764885Y-155671536D01*
X64825771Y-155885528D01*
X64924942Y-156084689D01*
X65059019Y-156262236D01*
X65223438Y-156412124D01*
X65412599Y-156529247D01*
X65620060Y-156609618D01*
X65838757Y-156650500D01*
X66061243Y-156650500D01*
X66279940Y-156609618D01*
X66487401Y-156529247D01*
X66676562Y-156412124D01*
X66840981Y-156262236D01*
X66975058Y-156084689D01*
X67074229Y-155885528D01*
X67135115Y-155671536D01*
X67155643Y-155450000D01*
X67135115Y-155228464D01*
X67074229Y-155014472D01*
X66975058Y-154815311D01*
X66840981Y-154637764D01*
X66676562Y-154487876D01*
X66487401Y-154370753D01*
X66279940Y-154290382D01*
X66279939Y-154290381D01*
X66279937Y-154290381D01*
X66061243Y-154249500D01*
X65838757Y-154249500D01*
X65620062Y-154290381D01*
X65618818Y-154290863D01*
X65412599Y-154370753D01*
X65223438Y-154487876D01*
X65059020Y-154637763D01*
X64924943Y-154815309D01*
X64924938Y-154815318D01*
X64825772Y-155014469D01*
X64825771Y-155014472D01*
X64764885Y-155228464D01*
X64744357Y-155450000D01*
X62655140Y-155450000D01*
X62634620Y-155228554D01*
X62573760Y-155014652D01*
X62474633Y-154815578D01*
X62474624Y-154815563D01*
X62367590Y-154673829D01*
X61904391Y-155137028D01*
X61890110Y-155112292D01*
X61787708Y-155009890D01*
X61762968Y-154995607D01*
X62225453Y-154533123D01*
X62176260Y-154488277D01*
X61987176Y-154371202D01*
X61779799Y-154290863D01*
X61561196Y-154250000D01*
X61338804Y-154250000D01*
X61120200Y-154290863D01*
X60912821Y-154371202D01*
X60912816Y-154371205D01*
X60723742Y-154488275D01*
X60723739Y-154488277D01*
X60674545Y-154533123D01*
X61137029Y-154995607D01*
X61112292Y-155009890D01*
X61009890Y-155112292D01*
X60995607Y-155137029D01*
X60532409Y-154673831D01*
X60425369Y-154815573D01*
X60425364Y-154815582D01*
X60326239Y-155014652D01*
X60265379Y-155228554D01*
X60244859Y-155450000D01*
X59420500Y-155450000D01*
X59420500Y-153992536D01*
X59439407Y-153934345D01*
X59449490Y-153922538D01*
X59990460Y-153381569D01*
X60030022Y-153313046D01*
X60050500Y-153236620D01*
X60050500Y-153157496D01*
X60050500Y-149179451D01*
X60041065Y-149144239D01*
X60041065Y-149144238D01*
X60041065Y-149144237D01*
X60030021Y-149103023D01*
X60030020Y-149103021D01*
X59990463Y-149034506D01*
X59990462Y-149034505D01*
X59990461Y-149034504D01*
X59990460Y-149034502D01*
X58849496Y-147893538D01*
X58821719Y-147839021D01*
X58820500Y-147823534D01*
X58820500Y-127499993D01*
X66294564Y-127499993D01*
X66294564Y-127500006D01*
X66314289Y-127826105D01*
X66373178Y-128147450D01*
X66373178Y-128147451D01*
X66470373Y-128459362D01*
X66604457Y-128757283D01*
X66773467Y-129036859D01*
X66773469Y-129036862D01*
X66773470Y-129036863D01*
X66974952Y-129294036D01*
X67205964Y-129525048D01*
X67463137Y-129726530D01*
X67742721Y-129895545D01*
X68040639Y-130029627D01*
X68352547Y-130126821D01*
X68514114Y-130156429D01*
X68673895Y-130185710D01*
X68673892Y-130185710D01*
X68999994Y-130205436D01*
X69000000Y-130205436D01*
X69000006Y-130205436D01*
X69326105Y-130185710D01*
X69406441Y-130170987D01*
X69647453Y-130126821D01*
X69959361Y-130029627D01*
X70257279Y-129895545D01*
X70536863Y-129726530D01*
X70794036Y-129525048D01*
X71025048Y-129294036D01*
X71226530Y-129036863D01*
X71395545Y-128757279D01*
X71529627Y-128459361D01*
X71626821Y-128147453D01*
X71685710Y-127826104D01*
X71692736Y-127709953D01*
X71705436Y-127500006D01*
X71705436Y-127499993D01*
X71685710Y-127173894D01*
X71626821Y-126852549D01*
X71626821Y-126852548D01*
X71599419Y-126764611D01*
X71529627Y-126540639D01*
X71395545Y-126242721D01*
X71226530Y-125963137D01*
X71025048Y-125705964D01*
X70794036Y-125474952D01*
X70536863Y-125273470D01*
X70536862Y-125273469D01*
X70536859Y-125273467D01*
X70257283Y-125104457D01*
X69959362Y-124970373D01*
X69647450Y-124873178D01*
X69326104Y-124814289D01*
X69326107Y-124814289D01*
X69000006Y-124794564D01*
X68999994Y-124794564D01*
X68673894Y-124814289D01*
X68352549Y-124873178D01*
X68352548Y-124873178D01*
X68040637Y-124970373D01*
X67742716Y-125104457D01*
X67463140Y-125273467D01*
X67205970Y-125474947D01*
X67205967Y-125474949D01*
X66974949Y-125705967D01*
X66974947Y-125705970D01*
X66773467Y-125963140D01*
X66604457Y-126242716D01*
X66470373Y-126540637D01*
X66373178Y-126852548D01*
X66373178Y-126852549D01*
X66314289Y-127173894D01*
X66294564Y-127499993D01*
X58820500Y-127499993D01*
X58820500Y-122508244D01*
X58823874Y-122482620D01*
X58838003Y-122429888D01*
X58845000Y-122403777D01*
X58845000Y-109690317D01*
X58863907Y-109632126D01*
X58873990Y-109620319D01*
X59182260Y-109312050D01*
X59198236Y-109284379D01*
X59221821Y-109243528D01*
X59242300Y-109167101D01*
X59242300Y-87499993D01*
X66294564Y-87499993D01*
X66294564Y-87500006D01*
X66314289Y-87826105D01*
X66373178Y-88147450D01*
X66373178Y-88147451D01*
X66470373Y-88459362D01*
X66604457Y-88757283D01*
X66773467Y-89036859D01*
X66773469Y-89036862D01*
X66773470Y-89036863D01*
X66974952Y-89294036D01*
X67205964Y-89525048D01*
X67463137Y-89726530D01*
X67742721Y-89895545D01*
X68040639Y-90029627D01*
X68352547Y-90126821D01*
X68566779Y-90166080D01*
X68673895Y-90185710D01*
X68673892Y-90185710D01*
X68999994Y-90205436D01*
X69000000Y-90205436D01*
X69000006Y-90205436D01*
X69326105Y-90185710D01*
X69415842Y-90169265D01*
X69647453Y-90126821D01*
X69959361Y-90029627D01*
X70257279Y-89895545D01*
X70536863Y-89726530D01*
X70794036Y-89525048D01*
X71025048Y-89294036D01*
X71226530Y-89036863D01*
X71395545Y-88757279D01*
X71529627Y-88459361D01*
X71626821Y-88147453D01*
X71685710Y-87826104D01*
X71696252Y-87651826D01*
X71705436Y-87500006D01*
X71705436Y-87499993D01*
X71685710Y-87173894D01*
X71654231Y-87002117D01*
X71626821Y-86852547D01*
X71529627Y-86540639D01*
X71395545Y-86242721D01*
X71226530Y-85963137D01*
X71025048Y-85705964D01*
X70794036Y-85474952D01*
X70536863Y-85273470D01*
X70536862Y-85273469D01*
X70536859Y-85273467D01*
X70257283Y-85104457D01*
X70254450Y-85103182D01*
X70165704Y-85063240D01*
X69959362Y-84970373D01*
X69647450Y-84873178D01*
X69326104Y-84814289D01*
X69326107Y-84814289D01*
X69000006Y-84794564D01*
X68999994Y-84794564D01*
X68673894Y-84814289D01*
X68352549Y-84873178D01*
X68352548Y-84873178D01*
X68040637Y-84970373D01*
X67742716Y-85104457D01*
X67463140Y-85273467D01*
X67205970Y-85474947D01*
X67205967Y-85474949D01*
X66974949Y-85705967D01*
X66974947Y-85705970D01*
X66773467Y-85963140D01*
X66604457Y-86242716D01*
X66470373Y-86540637D01*
X66373178Y-86852548D01*
X66373178Y-86852549D01*
X66314289Y-87173894D01*
X66294564Y-87499993D01*
X59242300Y-87499993D01*
X59242300Y-78402238D01*
X59227573Y-78347276D01*
X59227573Y-78347275D01*
X59227573Y-78347274D01*
X59221824Y-78325817D01*
X59221823Y-78325815D01*
X59221822Y-78325814D01*
X59221822Y-78325812D01*
X59182260Y-78257289D01*
X58324612Y-77399641D01*
X58296837Y-77345127D01*
X58296465Y-77316723D01*
X58305250Y-77250000D01*
X58286330Y-77106291D01*
X58230861Y-76972375D01*
X58142621Y-76857379D01*
X58027625Y-76769139D01*
X58027621Y-76769137D01*
X57893709Y-76713670D01*
X57893708Y-76713669D01*
X57750000Y-76694750D01*
X57606291Y-76713669D01*
X57606290Y-76713670D01*
X57472378Y-76769137D01*
X57472374Y-76769139D01*
X57357381Y-76857377D01*
X57357377Y-76857381D01*
X57269139Y-76972374D01*
X57269137Y-76972378D01*
X57213670Y-77106290D01*
X57213669Y-77106291D01*
X57194750Y-77249999D01*
X57194750Y-77250000D01*
X57213669Y-77393708D01*
X57213670Y-77393709D01*
X57269139Y-77527625D01*
X57357379Y-77642621D01*
X57472375Y-77730861D01*
X57606291Y-77786330D01*
X57750000Y-77805250D01*
X57816719Y-77796465D01*
X57876876Y-77807614D01*
X57899643Y-77824614D01*
X58612304Y-78537275D01*
X58640081Y-78591792D01*
X58641300Y-78607279D01*
X58641300Y-79661635D01*
X58622393Y-79719826D01*
X58572893Y-79755790D01*
X58511707Y-79755790D01*
X58472296Y-79731639D01*
X56952896Y-78212239D01*
X56925119Y-78157722D01*
X56923900Y-78142235D01*
X56923900Y-73383308D01*
X56923899Y-73383306D01*
X56903421Y-73306882D01*
X56903419Y-73306878D01*
X56863860Y-73238360D01*
X56807911Y-73182410D01*
X56807911Y-73182411D01*
X55524296Y-71898796D01*
X55496519Y-71844279D01*
X55495300Y-71828792D01*
X55495300Y-67703893D01*
X55514207Y-67645702D01*
X55521541Y-67637711D01*
X55521291Y-67637494D01*
X55539200Y-67616826D01*
X55620177Y-67523373D01*
X55679965Y-67392457D01*
X55700447Y-67250000D01*
X55679965Y-67107543D01*
X55620177Y-66976627D01*
X55525928Y-66867857D01*
X55525927Y-66867856D01*
X55525926Y-66867855D01*
X55404857Y-66790049D01*
X55404854Y-66790047D01*
X55404853Y-66790047D01*
X55401151Y-66788960D01*
X55266764Y-66749500D01*
X55266761Y-66749500D01*
X55122839Y-66749500D01*
X55122835Y-66749500D01*
X54991860Y-66787958D01*
X54984751Y-66790046D01*
X54977953Y-66792042D01*
X54977048Y-66788960D01*
X54929700Y-66794374D01*
X54876435Y-66764266D01*
X54851041Y-66708599D01*
X54850400Y-66697354D01*
X54850400Y-60871252D01*
X54869307Y-60813061D01*
X54918807Y-60777097D01*
X54921481Y-60776271D01*
X54962753Y-60764153D01*
X55083828Y-60686343D01*
X55178077Y-60577573D01*
X55237865Y-60446657D01*
X55258347Y-60304200D01*
X55237865Y-60161743D01*
X55178077Y-60030827D01*
X55083828Y-59922057D01*
X55083827Y-59922056D01*
X55083826Y-59922055D01*
X54962757Y-59844249D01*
X54962754Y-59844247D01*
X54962753Y-59844247D01*
X54962750Y-59844246D01*
X54824664Y-59803700D01*
X54824661Y-59803700D01*
X54680739Y-59803700D01*
X54680735Y-59803700D01*
X54542649Y-59844246D01*
X54542642Y-59844249D01*
X54421573Y-59922055D01*
X54327322Y-60030828D01*
X54267534Y-60161743D01*
X54247053Y-60304197D01*
X54247053Y-60304202D01*
X54260256Y-60396035D01*
X54257891Y-60435745D01*
X54249400Y-60467435D01*
X54249400Y-73569364D01*
X54269878Y-73645788D01*
X54283363Y-73669143D01*
X54288300Y-73677695D01*
X54309440Y-73714311D01*
X54726455Y-74131326D01*
X55031938Y-74436809D01*
X55059715Y-74491326D01*
X55050144Y-74551758D01*
X55015458Y-74590097D01*
X54890573Y-74670356D01*
X54890571Y-74670358D01*
X54849436Y-74717831D01*
X54797040Y-74749427D01*
X54774617Y-74752000D01*
X54739135Y-74752000D01*
X54662711Y-74772478D01*
X54662707Y-74772480D01*
X54594191Y-74812038D01*
X52803089Y-76603140D01*
X52803088Y-76603139D01*
X52747139Y-76659089D01*
X52707580Y-76727607D01*
X52707578Y-76727611D01*
X52687100Y-76804035D01*
X52687100Y-90074792D01*
X52668193Y-90132983D01*
X52658104Y-90144796D01*
X52443089Y-90359811D01*
X52443088Y-90359810D01*
X52387139Y-90415760D01*
X52347580Y-90484278D01*
X52347578Y-90484282D01*
X52327100Y-90560706D01*
X52327100Y-92767164D01*
X52347578Y-92843588D01*
X52347580Y-92843592D01*
X52387138Y-92912108D01*
X52387140Y-92912111D01*
X54118705Y-94643676D01*
X54146481Y-94698191D01*
X54147700Y-94713678D01*
X54147700Y-102506364D01*
X54168178Y-102582788D01*
X54168180Y-102582792D01*
X54207739Y-102651310D01*
X54323553Y-102767125D01*
X54351330Y-102821641D01*
X54351542Y-102851215D01*
X54348453Y-102872702D01*
X54368934Y-103015156D01*
X54389982Y-103061243D01*
X54428723Y-103146073D01*
X54451856Y-103172770D01*
X54522973Y-103254844D01*
X54644042Y-103332650D01*
X54644047Y-103332653D01*
X54750503Y-103363911D01*
X54782135Y-103373199D01*
X54782136Y-103373199D01*
X54782139Y-103373200D01*
X54782141Y-103373200D01*
X54888621Y-103373200D01*
X54946812Y-103392107D01*
X54958625Y-103402196D01*
X55720604Y-104164175D01*
X55748381Y-104218692D01*
X55749600Y-104234179D01*
X55749600Y-126619664D01*
X55770077Y-126696085D01*
X55770081Y-126696093D01*
X55788638Y-126728237D01*
X55788639Y-126728237D01*
X55809638Y-126764609D01*
X55809640Y-126764611D01*
X56189453Y-127144425D01*
X56217230Y-127198941D01*
X56217442Y-127228515D01*
X56214353Y-127250002D01*
X56214353Y-127250003D01*
X56217441Y-127271482D01*
X56207007Y-127331771D01*
X56189453Y-127355573D01*
X55274889Y-128270139D01*
X55274889Y-128270140D01*
X55246930Y-128298098D01*
X55215515Y-128329509D01*
X55215486Y-128329541D01*
X54917704Y-128627324D01*
X54863187Y-128655102D01*
X54802755Y-128645531D01*
X54759490Y-128602266D01*
X54748700Y-128557321D01*
X54748700Y-123967277D01*
X54767607Y-123909086D01*
X54777685Y-123897285D01*
X54895475Y-123779494D01*
X54949990Y-123751719D01*
X54965477Y-123750500D01*
X55071959Y-123750500D01*
X55071961Y-123750500D01*
X55210053Y-123709953D01*
X55331128Y-123632143D01*
X55425377Y-123523373D01*
X55485165Y-123392457D01*
X55505647Y-123250000D01*
X55485165Y-123107543D01*
X55425377Y-122976627D01*
X55331128Y-122867857D01*
X55331127Y-122867856D01*
X55331126Y-122867855D01*
X55210057Y-122790049D01*
X55210054Y-122790047D01*
X55210053Y-122790047D01*
X55210050Y-122790046D01*
X55071964Y-122749500D01*
X55071961Y-122749500D01*
X54965479Y-122749500D01*
X54907288Y-122730593D01*
X54895475Y-122720504D01*
X54280231Y-122105260D01*
X54252454Y-122050743D01*
X54251235Y-122035256D01*
X54251235Y-109654628D01*
X54270142Y-109596437D01*
X54277476Y-109588446D01*
X54277226Y-109588229D01*
X54281863Y-109582878D01*
X54376112Y-109474108D01*
X54435900Y-109343192D01*
X54450229Y-109243529D01*
X54456382Y-109200737D01*
X54456382Y-109200732D01*
X54435900Y-109058278D01*
X54376112Y-108927362D01*
X54281863Y-108818592D01*
X54281862Y-108818591D01*
X54281861Y-108818590D01*
X54160792Y-108740784D01*
X54160789Y-108740782D01*
X54160788Y-108740782D01*
X54160785Y-108740781D01*
X54022699Y-108700235D01*
X54022696Y-108700235D01*
X53878774Y-108700235D01*
X53878770Y-108700235D01*
X53740684Y-108740781D01*
X53740677Y-108740784D01*
X53619608Y-108818590D01*
X53525357Y-108927363D01*
X53465569Y-109058278D01*
X53445088Y-109200732D01*
X53445088Y-109200737D01*
X53465569Y-109343191D01*
X53525358Y-109474108D01*
X53624244Y-109588229D01*
X53622206Y-109589994D01*
X53647660Y-109632193D01*
X53650235Y-109654628D01*
X53650235Y-122240299D01*
X53670713Y-122316723D01*
X53670714Y-122316724D01*
X53683585Y-122339017D01*
X53710275Y-122385246D01*
X54115075Y-122790046D01*
X54469453Y-123144424D01*
X54497230Y-123198941D01*
X54497442Y-123228515D01*
X54494353Y-123249999D01*
X54497442Y-123271483D01*
X54487007Y-123331772D01*
X54469453Y-123355574D01*
X54263689Y-123561339D01*
X54207739Y-123617289D01*
X54168180Y-123685807D01*
X54168178Y-123685811D01*
X54147700Y-123762235D01*
X54147700Y-147350893D01*
X54168177Y-147427314D01*
X54168181Y-147427322D01*
X54186230Y-147458586D01*
X54186231Y-147458586D01*
X54186232Y-147458587D01*
X54207740Y-147495840D01*
X57020505Y-150308605D01*
X57048281Y-150363120D01*
X57049500Y-150378607D01*
X57049500Y-150684062D01*
X57030593Y-150742253D01*
X56981093Y-150778217D01*
X56922609Y-150779052D01*
X56821964Y-150749500D01*
X56821961Y-150749500D01*
X56678039Y-150749500D01*
X56678035Y-150749500D01*
X56539949Y-150790046D01*
X56539942Y-150790049D01*
X56418871Y-150867856D01*
X56413520Y-150872494D01*
X56412031Y-150870776D01*
X56368659Y-150896928D01*
X56346241Y-150899500D01*
X54686189Y-150899500D01*
X54627998Y-150880593D01*
X54616185Y-150870504D01*
X53316506Y-149570825D01*
X51965212Y-148219530D01*
X51885288Y-148173386D01*
X51885287Y-148173385D01*
X51885284Y-148173384D01*
X51885285Y-148173384D01*
X51879130Y-148171735D01*
X51879130Y-148171736D01*
X51796144Y-148149500D01*
X51796142Y-148149500D01*
X50734583Y-148149500D01*
X50676392Y-148130593D01*
X50640428Y-148081093D01*
X50638612Y-148074803D01*
X50626611Y-148027414D01*
X50626610Y-148027409D01*
X50530049Y-147807272D01*
X50398571Y-147606031D01*
X50235764Y-147429175D01*
X50046067Y-147281528D01*
X49834659Y-147167119D01*
X49817796Y-147161330D01*
X49607297Y-147089066D01*
X49607294Y-147089065D01*
X49607293Y-147089065D01*
X49370192Y-147049500D01*
X49129808Y-147049500D01*
X48892706Y-147089065D01*
X48665340Y-147167119D01*
X48453932Y-147281528D01*
X48453929Y-147281530D01*
X48264239Y-147429172D01*
X48264236Y-147429174D01*
X48264236Y-147429175D01*
X48202869Y-147495838D01*
X48101425Y-147606035D01*
X47969953Y-147807267D01*
X47969950Y-147807272D01*
X47873388Y-148027414D01*
X47814379Y-148260437D01*
X47814379Y-148260438D01*
X47794529Y-148500000D01*
X47814379Y-148739561D01*
X47814379Y-148739562D01*
X47849815Y-148879496D01*
X47873390Y-148972591D01*
X47924520Y-149089157D01*
X47969950Y-149192727D01*
X47969953Y-149192732D01*
X48101425Y-149393964D01*
X48101427Y-149393966D01*
X48101429Y-149393969D01*
X48264236Y-149570825D01*
X48453933Y-149718472D01*
X48665344Y-149832882D01*
X48892703Y-149910934D01*
X49129808Y-149950500D01*
X49370192Y-149950500D01*
X49607297Y-149910934D01*
X49834656Y-149832882D01*
X50046067Y-149718472D01*
X50235764Y-149570825D01*
X50398571Y-149393969D01*
X50530049Y-149192728D01*
X50626610Y-148972591D01*
X50638612Y-148925197D01*
X50671226Y-148873428D01*
X50728040Y-148850716D01*
X50734583Y-148850500D01*
X51563810Y-148850500D01*
X51622001Y-148869407D01*
X51633814Y-148879496D01*
X54219531Y-151465212D01*
X54219530Y-151465212D01*
X54284787Y-151530468D01*
X54284789Y-151530470D01*
X54333702Y-151558710D01*
X54364712Y-151576614D01*
X54453856Y-151600500D01*
X56346241Y-151600500D01*
X56404432Y-151619407D01*
X56413403Y-151627640D01*
X56413520Y-151627506D01*
X56418871Y-151632143D01*
X56539942Y-151709950D01*
X56539947Y-151709953D01*
X56646403Y-151741211D01*
X56678035Y-151750499D01*
X56678036Y-151750499D01*
X56678039Y-151750500D01*
X56678041Y-151750500D01*
X56821959Y-151750500D01*
X56821961Y-151750500D01*
X56922610Y-151720947D01*
X56983769Y-151722694D01*
X57032222Y-151760057D01*
X57049500Y-151815937D01*
X57049500Y-152037462D01*
X57030593Y-152095653D01*
X57020504Y-152107466D01*
X56143388Y-152984581D01*
X56088871Y-153012358D01*
X56028439Y-153002787D01*
X56019861Y-152997861D01*
X55976585Y-152970049D01*
X55976582Y-152970047D01*
X55976581Y-152970047D01*
X55976578Y-152970046D01*
X55838492Y-152929500D01*
X55838489Y-152929500D01*
X55694567Y-152929500D01*
X55694563Y-152929500D01*
X55556477Y-152970046D01*
X55556470Y-152970049D01*
X55435401Y-153047855D01*
X55341150Y-153156628D01*
X55281362Y-153287543D01*
X55260881Y-153429997D01*
X55260881Y-153430002D01*
X55281361Y-153572454D01*
X55338757Y-153698132D01*
X55345731Y-153758918D01*
X55318707Y-153809262D01*
X52615489Y-156512482D01*
X52615488Y-156512481D01*
X52559539Y-156568431D01*
X52519980Y-156636949D01*
X52519978Y-156636953D01*
X52499500Y-156713377D01*
X52499500Y-156713380D01*
X52499500Y-163860262D01*
X52519979Y-163936689D01*
X52530848Y-163955514D01*
X52559540Y-164005211D01*
X54547405Y-165993076D01*
X54575181Y-166047591D01*
X54576400Y-166063078D01*
X54576400Y-166946105D01*
X54557493Y-167004296D01*
X54550158Y-167012289D01*
X54550409Y-167012506D01*
X54451522Y-167126628D01*
X54391734Y-167257543D01*
X54371253Y-167399997D01*
X54371253Y-167400002D01*
X54391734Y-167542455D01*
X54420953Y-167606434D01*
X54429900Y-167647561D01*
X54429900Y-170254521D01*
X54410993Y-170312712D01*
X54400904Y-170324525D01*
X54148089Y-170577340D01*
X54148088Y-170577339D01*
X54092139Y-170633289D01*
X54052580Y-170701807D01*
X54052578Y-170701811D01*
X54032100Y-170778235D01*
X54032100Y-180172164D01*
X54052578Y-180248588D01*
X54052579Y-180248590D01*
X54073028Y-180284007D01*
X54073028Y-180284010D01*
X54073029Y-180284010D01*
X54073030Y-180284011D01*
X54092140Y-180317111D01*
X54400905Y-180625876D01*
X54428681Y-180680391D01*
X54429900Y-180695878D01*
X54429900Y-188427868D01*
X54450377Y-188504289D01*
X54450377Y-188504290D01*
X54450379Y-188504293D01*
X54480156Y-188555869D01*
X54480157Y-188555870D01*
X54489938Y-188572813D01*
X54489940Y-188572815D01*
X54842521Y-188925397D01*
X54870298Y-188979913D01*
X54870509Y-189009486D01*
X54867422Y-189030969D01*
X54867421Y-189030974D01*
X54887902Y-189173428D01*
X54922872Y-189250000D01*
X54947691Y-189304345D01*
X55011188Y-189377625D01*
X55041941Y-189413116D01*
X55064518Y-189427625D01*
X55163015Y-189490925D01*
X55241054Y-189513839D01*
X55301103Y-189531471D01*
X55301104Y-189531471D01*
X55301107Y-189531472D01*
X55301109Y-189531472D01*
X55445027Y-189531472D01*
X55445029Y-189531472D01*
X55583121Y-189490925D01*
X55704196Y-189413115D01*
X55798445Y-189304345D01*
X55858233Y-189173429D01*
X55878715Y-189030972D01*
X55875166Y-189006291D01*
X55858233Y-188888515D01*
X55798445Y-188757599D01*
X55704196Y-188648829D01*
X55704195Y-188648828D01*
X55704194Y-188648827D01*
X55583125Y-188571021D01*
X55583122Y-188571019D01*
X55583121Y-188571019D01*
X55583118Y-188571018D01*
X55445032Y-188530472D01*
X55445029Y-188530472D01*
X55338547Y-188530472D01*
X55280356Y-188511565D01*
X55268543Y-188501476D01*
X55059896Y-188292829D01*
X55032119Y-188238312D01*
X55030900Y-188222825D01*
X55030900Y-186294879D01*
X55049807Y-186236688D01*
X55099307Y-186200724D01*
X55160493Y-186200724D01*
X55199904Y-186224875D01*
X57259540Y-188284511D01*
X57259539Y-188284511D01*
X57315489Y-188340460D01*
X57384007Y-188380019D01*
X57384005Y-188380019D01*
X57384009Y-188380020D01*
X57384011Y-188380021D01*
X57399528Y-188384179D01*
X57450841Y-188417502D01*
X57472768Y-188474624D01*
X57465369Y-188517689D01*
X57428669Y-188606293D01*
X57409750Y-188749999D01*
X57409750Y-188750000D01*
X57418533Y-188816717D01*
X57407383Y-188876878D01*
X57390384Y-188899643D01*
X56319525Y-189970504D01*
X56265008Y-189998281D01*
X56249521Y-189999500D01*
X52965479Y-189999500D01*
X52907288Y-189980593D01*
X52895475Y-189970504D01*
X52324614Y-189399643D01*
X52296837Y-189345126D01*
X52296465Y-189316723D01*
X52305250Y-189250000D01*
X52286330Y-189106291D01*
X52230861Y-188972375D01*
X52142621Y-188857379D01*
X52027625Y-188769139D01*
X52027621Y-188769137D01*
X51893709Y-188713670D01*
X51893708Y-188713669D01*
X51750000Y-188694750D01*
X51606291Y-188713669D01*
X51606290Y-188713670D01*
X51472378Y-188769137D01*
X51472374Y-188769139D01*
X51357381Y-188857377D01*
X51357377Y-188857381D01*
X51269139Y-188972374D01*
X51269137Y-188972378D01*
X51213670Y-189106290D01*
X51213669Y-189106291D01*
X51194750Y-189249999D01*
X51194750Y-189250000D01*
X51213669Y-189393708D01*
X51213670Y-189393709D01*
X51263428Y-189513839D01*
X51269139Y-189527625D01*
X51357379Y-189642621D01*
X51472375Y-189730861D01*
X51606291Y-189786330D01*
X51750000Y-189805250D01*
X51816719Y-189796465D01*
X51876876Y-189807614D01*
X51899643Y-189824614D01*
X52559540Y-190484511D01*
X52559539Y-190484511D01*
X52615489Y-190540460D01*
X52684007Y-190580019D01*
X52684011Y-190580021D01*
X52760435Y-190600499D01*
X52760437Y-190600500D01*
X56369759Y-190600500D01*
X56427950Y-190619407D01*
X56463914Y-190668907D01*
X56463914Y-190730093D01*
X56439763Y-190769504D01*
X54815489Y-192393779D01*
X54815488Y-192393778D01*
X54759539Y-192449728D01*
X54719980Y-192518246D01*
X54719978Y-192518250D01*
X54699500Y-192594674D01*
X54699500Y-194850500D01*
X54680593Y-194908691D01*
X54631093Y-194944655D01*
X54600500Y-194949500D01*
X53697083Y-194949500D01*
X53638892Y-194930593D01*
X53622264Y-194915331D01*
X53619811Y-194912500D01*
X53581128Y-194867857D01*
X53536638Y-194839265D01*
X53460057Y-194790049D01*
X53460054Y-194790047D01*
X53460053Y-194790047D01*
X53460050Y-194790046D01*
X53321964Y-194749500D01*
X53321961Y-194749500D01*
X53178039Y-194749500D01*
X53178035Y-194749500D01*
X53039949Y-194790046D01*
X53039942Y-194790049D01*
X52918873Y-194867855D01*
X52824622Y-194976628D01*
X52764834Y-195107543D01*
X52744353Y-195249997D01*
X52744353Y-195250002D01*
X52764834Y-195392456D01*
X52778916Y-195423290D01*
X52824623Y-195523373D01*
X52877736Y-195584669D01*
X52918873Y-195632144D01*
X52996443Y-195681995D01*
X53039947Y-195709953D01*
X53146403Y-195741211D01*
X53178035Y-195750499D01*
X53178036Y-195750499D01*
X53178039Y-195750500D01*
X53178041Y-195750500D01*
X53321959Y-195750500D01*
X53321961Y-195750500D01*
X53460053Y-195709953D01*
X53581128Y-195632143D01*
X53622264Y-195584668D01*
X53674660Y-195553073D01*
X53697083Y-195550500D01*
X54960438Y-195550500D01*
X55039562Y-195550500D01*
X55302917Y-195550500D01*
X55361108Y-195569407D01*
X55377733Y-195584667D01*
X55418872Y-195632143D01*
X55539947Y-195709953D01*
X55542314Y-195711474D01*
X55581045Y-195758840D01*
X55584539Y-195819925D01*
X55558795Y-195864761D01*
X55315489Y-196108068D01*
X55259539Y-196164018D01*
X55219980Y-196232536D01*
X55219978Y-196232540D01*
X55199500Y-196308964D01*
X55199500Y-208846972D01*
X55180593Y-208905163D01*
X55131093Y-208941127D01*
X55069907Y-208941127D01*
X55035671Y-208921793D01*
X55031127Y-208917856D01*
X54910057Y-208840049D01*
X54910054Y-208840047D01*
X54910053Y-208840047D01*
X54910050Y-208840046D01*
X54771964Y-208799500D01*
X54771961Y-208799500D01*
X54628039Y-208799500D01*
X54628035Y-208799500D01*
X54489949Y-208840046D01*
X54489942Y-208840049D01*
X54368873Y-208917855D01*
X54274622Y-209026628D01*
X54214834Y-209157543D01*
X54194353Y-209299996D01*
X54194353Y-209299998D01*
X54194353Y-209300000D01*
X54197442Y-209321483D01*
X54187007Y-209381772D01*
X54169453Y-209405574D01*
X53965489Y-209609539D01*
X53909539Y-209665489D01*
X53869980Y-209734007D01*
X53869978Y-209734011D01*
X53849500Y-209810435D01*
X53849500Y-219108803D01*
X53869977Y-219185224D01*
X53869979Y-219185229D01*
X53896324Y-219230860D01*
X53909350Y-219253421D01*
X53909540Y-219253750D01*
X57896250Y-223240460D01*
X57896252Y-223240461D01*
X57896254Y-223240463D01*
X57964769Y-223280020D01*
X57964767Y-223280020D01*
X57964771Y-223280021D01*
X57964773Y-223280022D01*
X58041199Y-223300500D01*
X58041201Y-223300500D01*
X69686314Y-223300500D01*
X69686314Y-223300499D01*
X69762740Y-223280021D01*
X69831262Y-223240460D01*
X69887211Y-223184511D01*
X73280496Y-219791226D01*
X73335013Y-219763449D01*
X73395445Y-219773020D01*
X73438710Y-219816285D01*
X73449500Y-219861230D01*
X73449500Y-222996759D01*
X73449288Y-223003234D01*
X73433246Y-223247983D01*
X73431556Y-223260822D01*
X73384337Y-223498207D01*
X73380985Y-223510715D01*
X73303190Y-223739892D01*
X73298234Y-223751857D01*
X73191184Y-223968933D01*
X73184709Y-223980148D01*
X73050245Y-224181386D01*
X73042363Y-224191659D01*
X72882784Y-224373626D01*
X72873626Y-224382784D01*
X72691659Y-224542363D01*
X72681386Y-224550245D01*
X72480148Y-224684709D01*
X72468933Y-224691184D01*
X72251857Y-224798234D01*
X72239892Y-224803190D01*
X72010715Y-224880985D01*
X71998207Y-224884337D01*
X71760822Y-224931556D01*
X71747983Y-224933246D01*
X71503235Y-224949288D01*
X71496760Y-224949500D01*
X41003240Y-224949500D01*
X40996765Y-224949288D01*
X40752016Y-224933246D01*
X40739177Y-224931556D01*
X40501792Y-224884337D01*
X40489284Y-224880985D01*
X40260107Y-224803190D01*
X40248142Y-224798234D01*
X40031066Y-224691184D01*
X40019851Y-224684709D01*
X39818613Y-224550245D01*
X39808345Y-224542367D01*
X39626363Y-224382774D01*
X39617225Y-224373636D01*
X39457630Y-224191652D01*
X39449754Y-224181386D01*
X39315290Y-223980148D01*
X39308815Y-223968933D01*
X39201765Y-223751857D01*
X39196812Y-223739901D01*
X39119011Y-223510706D01*
X39115664Y-223498217D01*
X39068442Y-223260817D01*
X39066753Y-223247983D01*
X39066260Y-223240463D01*
X39050712Y-223003234D01*
X39050500Y-222996759D01*
X39050500Y-220500000D01*
X47795031Y-220500000D01*
X47814874Y-220739478D01*
X47873865Y-220972428D01*
X47970392Y-221192488D01*
X47970395Y-221192493D01*
X48101824Y-221393660D01*
X48101827Y-221393663D01*
X48156031Y-221452544D01*
X48156032Y-221452545D01*
X48562513Y-221046062D01*
X48570343Y-221057780D01*
X48692220Y-221179657D01*
X48703935Y-221187484D01*
X48296285Y-221595135D01*
X48454203Y-221718048D01*
X48454206Y-221718050D01*
X48665542Y-221832420D01*
X48892829Y-221910447D01*
X49129850Y-221950000D01*
X49370150Y-221950000D01*
X49607170Y-221910447D01*
X49834457Y-221832420D01*
X50045791Y-221718051D01*
X50203712Y-221595134D01*
X49796063Y-221187485D01*
X49807780Y-221179657D01*
X49929657Y-221057780D01*
X49937485Y-221046063D01*
X50343966Y-221452544D01*
X50398178Y-221393654D01*
X50529604Y-221192493D01*
X50529607Y-221192488D01*
X50626134Y-220972428D01*
X50685125Y-220739478D01*
X50704968Y-220500000D01*
X50685125Y-220260521D01*
X50626134Y-220027571D01*
X50529607Y-219807511D01*
X50529604Y-219807506D01*
X50398175Y-219606339D01*
X50398172Y-219606336D01*
X50343967Y-219547454D01*
X49937485Y-219953935D01*
X49929657Y-219942220D01*
X49807780Y-219820343D01*
X49796063Y-219812513D01*
X50203713Y-219404864D01*
X50203713Y-219404863D01*
X50045796Y-219281951D01*
X50045793Y-219281949D01*
X49834457Y-219167579D01*
X49607170Y-219089552D01*
X49370150Y-219050000D01*
X49129850Y-219050000D01*
X48892829Y-219089552D01*
X48665542Y-219167579D01*
X48454206Y-219281949D01*
X48454203Y-219281951D01*
X48296285Y-219404863D01*
X48703936Y-219812514D01*
X48692220Y-219820343D01*
X48570343Y-219942220D01*
X48562514Y-219953936D01*
X48156032Y-219547454D01*
X48101821Y-219606344D01*
X47970395Y-219807506D01*
X47970392Y-219807511D01*
X47873865Y-220027571D01*
X47814874Y-220260521D01*
X47795031Y-220500000D01*
X39050500Y-220500000D01*
X39050500Y-36503240D01*
X39050712Y-36496765D01*
X39066753Y-36252016D01*
X39068443Y-36239177D01*
X39115665Y-36001778D01*
X39119010Y-35989297D01*
X39196814Y-35760093D01*
X39201761Y-35748149D01*
X39308815Y-35531066D01*
X39315286Y-35519856D01*
X39449757Y-35318608D01*
X39457624Y-35308354D01*
X39617232Y-35126355D01*
X39626355Y-35117232D01*
X39808354Y-34957624D01*
X39818608Y-34949757D01*
X40019856Y-34815286D01*
X40031066Y-34808815D01*
X40065283Y-34791940D01*
X40248149Y-34701761D01*
X40260093Y-34696814D01*
X40489297Y-34619010D01*
X40501778Y-34615665D01*
X40739184Y-34568442D01*
X40752008Y-34566753D01*
X40996765Y-34550711D01*
X41003240Y-34550500D01*
X41047595Y-34550500D01*
X71452405Y-34550500D01*
X71496760Y-34550500D01*
X71503234Y-34550711D01*
G37*
%TD.AperFunction*%
%TA.AperFunction,Conductor*%
G36*
X69467446Y-211456407D02*
G01*
X69503410Y-211505907D01*
X69503410Y-211567093D01*
X69476259Y-211606878D01*
X69477406Y-211608025D01*
X69376461Y-211708969D01*
X69299856Y-211823618D01*
X69247091Y-211951006D01*
X69247091Y-211951008D01*
X69226367Y-212055190D01*
X69636402Y-212055190D01*
X69620190Y-212115694D01*
X69620190Y-212194686D01*
X69636402Y-212255190D01*
X69226368Y-212255190D01*
X69247091Y-212359371D01*
X69247091Y-212359373D01*
X69299856Y-212486761D01*
X69376461Y-212601410D01*
X69473969Y-212698918D01*
X69588618Y-212775523D01*
X69716006Y-212828288D01*
X69851245Y-212855189D01*
X69851247Y-212855190D01*
X70220189Y-212855190D01*
X70220190Y-212855189D01*
X70220190Y-212455190D01*
X70420190Y-212455190D01*
X70420190Y-212855189D01*
X70420191Y-212855190D01*
X70789133Y-212855190D01*
X70789134Y-212855189D01*
X70924373Y-212828288D01*
X71051761Y-212775523D01*
X71166410Y-212698918D01*
X71263918Y-212601410D01*
X71340523Y-212486761D01*
X71393288Y-212359373D01*
X71393288Y-212359371D01*
X71414012Y-212255190D01*
X71003978Y-212255190D01*
X71020190Y-212194686D01*
X71020190Y-212115694D01*
X71003978Y-212055190D01*
X71414012Y-212055190D01*
X71393288Y-211951008D01*
X71393288Y-211951006D01*
X71340523Y-211823618D01*
X71263918Y-211708969D01*
X71162974Y-211608025D01*
X71164279Y-211606719D01*
X71135330Y-211561488D01*
X71138938Y-211500409D01*
X71177758Y-211453116D01*
X71231125Y-211437500D01*
X72950500Y-211437500D01*
X73008691Y-211456407D01*
X73044655Y-211505907D01*
X73049500Y-211536500D01*
X73049500Y-219131272D01*
X73030593Y-219189463D01*
X73020504Y-219201276D01*
X71563657Y-220658122D01*
X71509140Y-220685899D01*
X71448708Y-220676328D01*
X71405443Y-220633063D01*
X71396555Y-220607429D01*
X71393290Y-220591012D01*
X71393288Y-220591006D01*
X71340523Y-220463618D01*
X71263918Y-220348969D01*
X71166410Y-220251461D01*
X71051761Y-220174856D01*
X70924373Y-220122091D01*
X70789134Y-220095190D01*
X70420191Y-220095190D01*
X70420190Y-220095191D01*
X70420190Y-220495190D01*
X70220190Y-220495190D01*
X70220190Y-220095191D01*
X70220189Y-220095190D01*
X69851245Y-220095190D01*
X69716006Y-220122091D01*
X69588618Y-220174856D01*
X69473969Y-220251461D01*
X69376461Y-220348969D01*
X69299856Y-220463618D01*
X69247091Y-220591006D01*
X69247091Y-220591008D01*
X69226367Y-220695190D01*
X69636402Y-220695190D01*
X69620190Y-220755694D01*
X69620190Y-220834686D01*
X69636402Y-220895190D01*
X69226368Y-220895190D01*
X69247091Y-220999371D01*
X69247091Y-220999373D01*
X69299856Y-221126761D01*
X69376461Y-221241410D01*
X69473969Y-221338918D01*
X69588618Y-221415523D01*
X69716006Y-221468288D01*
X69851245Y-221495189D01*
X69851247Y-221495190D01*
X70220189Y-221495190D01*
X70220190Y-221495189D01*
X70220190Y-221095190D01*
X70420190Y-221095190D01*
X70420190Y-221495189D01*
X70420191Y-221495190D01*
X70487582Y-221495190D01*
X70545773Y-221514097D01*
X70581737Y-221563597D01*
X70581737Y-221624783D01*
X70557586Y-221664194D01*
X69551276Y-222670504D01*
X69496759Y-222698281D01*
X69481272Y-222699500D01*
X67257602Y-222699500D01*
X67199411Y-222680593D01*
X67163447Y-222631093D01*
X67163447Y-222569907D01*
X67199411Y-222520407D01*
X67208102Y-222514764D01*
X67228833Y-222502794D01*
X67250197Y-222490460D01*
X67306146Y-222434511D01*
X68535650Y-221205007D01*
X68564342Y-221155310D01*
X68575211Y-221136485D01*
X68595690Y-221060058D01*
X68595690Y-211689942D01*
X68575211Y-211613515D01*
X68574025Y-211611461D01*
X68559326Y-211586000D01*
X68546604Y-211526152D01*
X68571491Y-211470256D01*
X68624479Y-211439663D01*
X68645062Y-211437500D01*
X69409255Y-211437500D01*
X69467446Y-211456407D01*
G37*
%TD.AperFunction*%
%TA.AperFunction,Conductor*%
G36*
X56695445Y-195674797D02*
G01*
X56738710Y-195718062D01*
X56749500Y-195763007D01*
X56749500Y-212509308D01*
X56768400Y-212579848D01*
X56780200Y-212623886D01*
X56780202Y-212623890D01*
X56839507Y-212726609D01*
X56839509Y-212726611D01*
X56839511Y-212726614D01*
X60973386Y-216860489D01*
X60973388Y-216860490D01*
X60973390Y-216860492D01*
X61076108Y-216919797D01*
X61076110Y-216919797D01*
X61076113Y-216919799D01*
X61097644Y-216925568D01*
X61190691Y-216950500D01*
X64200690Y-216950500D01*
X64258881Y-216969407D01*
X64294845Y-217018907D01*
X64299690Y-217049500D01*
X64299690Y-217234754D01*
X64320168Y-217311178D01*
X64320169Y-217311179D01*
X64351144Y-217364829D01*
X64359730Y-217379701D01*
X64465679Y-217485650D01*
X64465681Y-217485651D01*
X64465683Y-217485653D01*
X64534198Y-217525210D01*
X64534196Y-217525210D01*
X64534200Y-217525211D01*
X64534202Y-217525212D01*
X64610628Y-217545690D01*
X64610635Y-217545690D01*
X64613604Y-217546081D01*
X64615546Y-217547007D01*
X64616896Y-217547369D01*
X64616829Y-217547618D01*
X64668831Y-217572417D01*
X64698031Y-217626186D01*
X64699690Y-217644235D01*
X64699690Y-217894941D01*
X64711811Y-217955876D01*
X64711811Y-217994504D01*
X64699690Y-218055438D01*
X64699690Y-218394941D01*
X64711811Y-218455876D01*
X64711811Y-218494504D01*
X64699690Y-218555438D01*
X64699690Y-219194940D01*
X64712066Y-219257156D01*
X64712066Y-219295783D01*
X64700190Y-219355487D01*
X64700190Y-219575189D01*
X64700191Y-219575190D01*
X65420189Y-219575190D01*
X65420190Y-219575189D01*
X65420190Y-219474690D01*
X65439097Y-219416499D01*
X65488597Y-219380535D01*
X65519190Y-219375690D01*
X65521190Y-219375690D01*
X65579381Y-219394597D01*
X65615345Y-219444097D01*
X65620190Y-219474690D01*
X65620190Y-219676190D01*
X65601283Y-219734381D01*
X65551783Y-219770345D01*
X65521190Y-219775190D01*
X64700191Y-219775190D01*
X64700190Y-219775191D01*
X64700190Y-219994890D01*
X64711793Y-220053226D01*
X64755996Y-220119379D01*
X64756000Y-220119383D01*
X64822153Y-220163586D01*
X64880489Y-220175189D01*
X64880493Y-220175190D01*
X64961233Y-220175190D01*
X65019424Y-220194097D01*
X65055388Y-220243597D01*
X65055388Y-220304783D01*
X65031237Y-220344194D01*
X65026461Y-220348969D01*
X64949856Y-220463618D01*
X64897091Y-220591006D01*
X64897091Y-220591008D01*
X64876367Y-220695190D01*
X65286402Y-220695190D01*
X65270190Y-220755694D01*
X65270190Y-220834686D01*
X65286402Y-220895190D01*
X64876368Y-220895190D01*
X64897091Y-220999371D01*
X64897091Y-220999373D01*
X64949856Y-221126761D01*
X65026461Y-221241410D01*
X65123969Y-221338918D01*
X65167769Y-221368184D01*
X65205649Y-221416234D01*
X65208051Y-221477372D01*
X65174059Y-221528246D01*
X65116655Y-221549424D01*
X65112768Y-221549500D01*
X61515479Y-221549500D01*
X61457288Y-221530593D01*
X61445475Y-221520504D01*
X58824614Y-218899643D01*
X58796837Y-218845126D01*
X58796465Y-218816723D01*
X58805250Y-218750000D01*
X58786330Y-218606291D01*
X58730861Y-218472375D01*
X58642621Y-218357379D01*
X58527625Y-218269139D01*
X58527621Y-218269137D01*
X58393709Y-218213670D01*
X58393708Y-218213669D01*
X58250000Y-218194750D01*
X58106291Y-218213669D01*
X58106290Y-218213670D01*
X57972378Y-218269137D01*
X57972374Y-218269139D01*
X57857381Y-218357377D01*
X57857377Y-218357381D01*
X57769139Y-218472374D01*
X57769137Y-218472378D01*
X57713670Y-218606290D01*
X57713669Y-218606291D01*
X57694750Y-218749999D01*
X57694750Y-218750000D01*
X57713669Y-218893708D01*
X57713670Y-218893709D01*
X57769139Y-219027625D01*
X57857379Y-219142621D01*
X57972375Y-219230861D01*
X58106291Y-219286330D01*
X58250000Y-219305250D01*
X58316719Y-219296465D01*
X58376876Y-219307614D01*
X58399643Y-219324614D01*
X60855525Y-221780496D01*
X60883302Y-221835013D01*
X60873731Y-221895445D01*
X60830466Y-221938710D01*
X60785521Y-221949500D01*
X58762129Y-221949500D01*
X58703938Y-221930593D01*
X58683587Y-221910767D01*
X58683341Y-221910447D01*
X58642621Y-221857379D01*
X58527625Y-221769139D01*
X58527621Y-221769137D01*
X58393709Y-221713670D01*
X58393708Y-221713669D01*
X58250000Y-221694750D01*
X58106291Y-221713669D01*
X58106290Y-221713670D01*
X57972378Y-221769137D01*
X57972374Y-221769139D01*
X57857381Y-221857377D01*
X57857377Y-221857381D01*
X57769139Y-221972374D01*
X57769137Y-221972378D01*
X57740598Y-222041279D01*
X57700862Y-222087805D01*
X57641367Y-222102089D01*
X57584839Y-222078674D01*
X57579130Y-222073398D01*
X54479496Y-218973764D01*
X54451719Y-218919247D01*
X54450500Y-218903760D01*
X54450500Y-217815937D01*
X54469407Y-217757746D01*
X54518907Y-217721782D01*
X54577389Y-217720947D01*
X54678039Y-217750500D01*
X54678041Y-217750500D01*
X54821959Y-217750500D01*
X54821961Y-217750500D01*
X54960053Y-217709953D01*
X55081128Y-217632143D01*
X55175377Y-217523373D01*
X55235165Y-217392457D01*
X55255647Y-217250000D01*
X55252558Y-217228517D01*
X55262990Y-217168228D01*
X55280547Y-217144423D01*
X55480482Y-216944488D01*
X55740460Y-216684511D01*
X55746594Y-216673886D01*
X55780021Y-216615989D01*
X55800500Y-216539562D01*
X55800500Y-196514007D01*
X55819407Y-196455816D01*
X55829490Y-196444009D01*
X56580498Y-195693001D01*
X56635013Y-195665226D01*
X56695445Y-195674797D01*
G37*
%TD.AperFunction*%
%TA.AperFunction,Conductor*%
G36*
X67540635Y-218182144D02*
G01*
X67583900Y-218225409D01*
X67594690Y-218270354D01*
X67594690Y-220689331D01*
X67575783Y-220747522D01*
X67565694Y-220759335D01*
X67539083Y-220785946D01*
X67484986Y-220813509D01*
X67484986Y-220824783D01*
X67460835Y-220864194D01*
X67458835Y-220866194D01*
X67404318Y-220893971D01*
X67388831Y-220895190D01*
X66953978Y-220895190D01*
X66970190Y-220834686D01*
X66970190Y-220755694D01*
X66953978Y-220695190D01*
X67364012Y-220695190D01*
X67343288Y-220591008D01*
X67343288Y-220591006D01*
X67290523Y-220463618D01*
X67213918Y-220348969D01*
X67116410Y-220251461D01*
X67001761Y-220174856D01*
X66874373Y-220122091D01*
X66739134Y-220095190D01*
X66439190Y-220095190D01*
X66380999Y-220076283D01*
X66345035Y-220026783D01*
X66340190Y-219996190D01*
X66340190Y-219957862D01*
X66359097Y-219899671D01*
X66408597Y-219863707D01*
X66464811Y-219862235D01*
X66571007Y-219890690D01*
X66571009Y-219890690D01*
X66709371Y-219890690D01*
X66709373Y-219890690D01*
X66843026Y-219854878D01*
X66962855Y-219785695D01*
X67060695Y-219687855D01*
X67129878Y-219568026D01*
X67165690Y-219434373D01*
X67165690Y-219296007D01*
X67129878Y-219162354D01*
X67060695Y-219042525D01*
X66962855Y-218944685D01*
X66896119Y-218906155D01*
X66855181Y-218860688D01*
X66848785Y-218799838D01*
X66875616Y-218750419D01*
X67425687Y-218200349D01*
X67480203Y-218172573D01*
X67540635Y-218182144D01*
G37*
%TD.AperFunction*%
%TA.AperFunction,Conductor*%
G36*
X57965445Y-153806269D02*
G01*
X58008710Y-153849534D01*
X58019500Y-153894479D01*
X58019500Y-163626265D01*
X58000593Y-163684456D01*
X57951093Y-163720420D01*
X57889907Y-163720420D01*
X57850496Y-163696269D01*
X55651070Y-161496843D01*
X55623293Y-161442326D01*
X55632864Y-161381894D01*
X55642524Y-161366583D01*
X55704480Y-161285842D01*
X55759949Y-161151926D01*
X55778869Y-161008217D01*
X55759949Y-160864508D01*
X55704480Y-160730592D01*
X55616240Y-160615596D01*
X55501244Y-160527356D01*
X55501240Y-160527354D01*
X55367328Y-160471887D01*
X55367327Y-160471886D01*
X55223619Y-160452967D01*
X55079910Y-160471886D01*
X55079909Y-160471887D01*
X54945997Y-160527354D01*
X54945993Y-160527356D01*
X54831000Y-160615594D01*
X54830996Y-160615598D01*
X54742758Y-160730591D01*
X54742756Y-160730595D01*
X54687289Y-160864507D01*
X54687288Y-160864508D01*
X54668369Y-161008216D01*
X54668369Y-161008217D01*
X54687288Y-161151925D01*
X54687289Y-161151926D01*
X54742758Y-161285842D01*
X54830998Y-161400838D01*
X54831002Y-161400841D01*
X54831003Y-161400842D01*
X54884386Y-161441804D01*
X54919042Y-161492228D01*
X54923119Y-161520346D01*
X54923119Y-161533927D01*
X54943597Y-161610351D01*
X54943599Y-161610355D01*
X54983157Y-161678871D01*
X54983159Y-161678874D01*
X57590505Y-164286220D01*
X57618281Y-164340735D01*
X57619500Y-164356222D01*
X57619500Y-175090935D01*
X57600593Y-175149126D01*
X57590504Y-175160939D01*
X55815489Y-176935954D01*
X55815488Y-176935953D01*
X55759539Y-176991903D01*
X55719980Y-177060421D01*
X55719978Y-177060425D01*
X55699500Y-177136849D01*
X55699500Y-178836622D01*
X55719977Y-178913043D01*
X55719977Y-178913044D01*
X55719979Y-178913047D01*
X55750544Y-178965988D01*
X55759540Y-178981569D01*
X62308467Y-185530496D01*
X62336244Y-185585013D01*
X62326673Y-185645445D01*
X62283408Y-185688710D01*
X62238463Y-185699500D01*
X58732129Y-185699500D01*
X58673938Y-185680593D01*
X58653587Y-185660767D01*
X58612625Y-185607384D01*
X58612624Y-185607383D01*
X58612621Y-185607379D01*
X58497625Y-185519139D01*
X58497621Y-185519137D01*
X58363709Y-185463670D01*
X58363708Y-185463669D01*
X58220000Y-185444750D01*
X58076291Y-185463669D01*
X58076290Y-185463670D01*
X57942378Y-185519137D01*
X57942374Y-185519139D01*
X57827381Y-185607377D01*
X57827377Y-185607381D01*
X57739139Y-185722374D01*
X57739137Y-185722378D01*
X57683670Y-185856290D01*
X57683669Y-185856291D01*
X57664750Y-185999999D01*
X57664750Y-186000000D01*
X57683669Y-186143708D01*
X57683670Y-186143709D01*
X57722182Y-186236688D01*
X57739139Y-186277625D01*
X57827379Y-186392621D01*
X57942375Y-186480861D01*
X58076291Y-186536330D01*
X58220000Y-186555250D01*
X58363709Y-186536330D01*
X58497625Y-186480861D01*
X58612621Y-186392621D01*
X58653587Y-186339232D01*
X58704011Y-186304577D01*
X58732129Y-186300500D01*
X62471777Y-186300500D01*
X62529968Y-186319407D01*
X62541781Y-186329496D01*
X67239132Y-191026847D01*
X67266909Y-191081364D01*
X67268128Y-191096851D01*
X67268128Y-193266943D01*
X67288605Y-193343364D01*
X67288607Y-193343369D01*
X67317042Y-193392620D01*
X67328166Y-193411888D01*
X67328168Y-193411890D01*
X67412883Y-193496606D01*
X67440660Y-193551123D01*
X67441032Y-193579530D01*
X67432249Y-193646247D01*
X67432249Y-193646250D01*
X67451168Y-193789958D01*
X67451169Y-193789959D01*
X67493690Y-193892616D01*
X67498490Y-193953613D01*
X67466521Y-194005782D01*
X67409993Y-194029196D01*
X67402226Y-194029501D01*
X67130434Y-194029501D01*
X67054010Y-194049979D01*
X67020419Y-194069373D01*
X67015221Y-194072375D01*
X67006386Y-194077475D01*
X66985488Y-194089540D01*
X65690022Y-195385004D01*
X65635506Y-195412781D01*
X65607097Y-195413153D01*
X65540381Y-195404370D01*
X65540380Y-195404370D01*
X65396671Y-195423289D01*
X65396670Y-195423290D01*
X65262758Y-195478757D01*
X65262754Y-195478759D01*
X65147761Y-195566997D01*
X65147757Y-195567001D01*
X65059519Y-195681994D01*
X65059517Y-195681998D01*
X65004050Y-195815910D01*
X65004049Y-195815911D01*
X64985130Y-195959619D01*
X64985130Y-195959621D01*
X64993913Y-196026339D01*
X64982763Y-196086499D01*
X64965764Y-196109263D01*
X64563744Y-196511284D01*
X64507794Y-196567234D01*
X64468235Y-196635752D01*
X64468233Y-196635756D01*
X64447755Y-196712180D01*
X64447755Y-203620580D01*
X64428848Y-203678771D01*
X64418759Y-203690584D01*
X63738839Y-204370504D01*
X63684322Y-204398281D01*
X63668835Y-204399500D01*
X59549500Y-204399500D01*
X59491309Y-204380593D01*
X59455345Y-204331093D01*
X59450500Y-204300500D01*
X59450500Y-198065478D01*
X59469407Y-198007287D01*
X59479490Y-197995480D01*
X60600357Y-196874612D01*
X60654872Y-196846837D01*
X60683275Y-196846465D01*
X60750000Y-196855250D01*
X60893709Y-196836330D01*
X61027625Y-196780861D01*
X61142621Y-196692621D01*
X61230861Y-196577625D01*
X61286330Y-196443709D01*
X61305250Y-196300000D01*
X61286330Y-196156291D01*
X61230861Y-196022375D01*
X61142621Y-195907379D01*
X61027625Y-195819139D01*
X61027621Y-195819137D01*
X60893709Y-195763670D01*
X60893708Y-195763669D01*
X60750000Y-195744750D01*
X60606291Y-195763669D01*
X60606290Y-195763670D01*
X60472378Y-195819137D01*
X60472374Y-195819139D01*
X60357381Y-195907377D01*
X60357377Y-195907381D01*
X60269139Y-196022374D01*
X60269137Y-196022378D01*
X60213670Y-196156290D01*
X60213669Y-196156291D01*
X60194750Y-196299999D01*
X60194750Y-196300000D01*
X60203533Y-196366717D01*
X60192383Y-196426878D01*
X60175384Y-196449643D01*
X58965489Y-197659540D01*
X58965488Y-197659539D01*
X58909539Y-197715489D01*
X58869980Y-197784007D01*
X58869978Y-197784011D01*
X58849500Y-197860435D01*
X58849500Y-205789564D01*
X58869978Y-205865988D01*
X58869979Y-205865989D01*
X58881723Y-205886330D01*
X58909540Y-205934511D01*
X60409540Y-207434511D01*
X60409539Y-207434511D01*
X60465489Y-207490460D01*
X60534007Y-207530019D01*
X60534011Y-207530021D01*
X60610435Y-207550499D01*
X60610437Y-207550500D01*
X60610438Y-207550500D01*
X60689562Y-207550500D01*
X61277917Y-207550500D01*
X61336108Y-207569407D01*
X61352733Y-207584667D01*
X61393872Y-207632143D01*
X61514947Y-207709953D01*
X61621403Y-207741211D01*
X61653035Y-207750499D01*
X61653036Y-207750499D01*
X61653039Y-207750500D01*
X61653041Y-207750500D01*
X61796959Y-207750500D01*
X61796961Y-207750500D01*
X61935053Y-207709953D01*
X62056128Y-207632143D01*
X62150377Y-207523373D01*
X62210165Y-207392457D01*
X62230647Y-207250000D01*
X62210165Y-207107543D01*
X62150377Y-206976627D01*
X62056128Y-206867857D01*
X62056127Y-206867856D01*
X62056126Y-206867855D01*
X61935057Y-206790049D01*
X61935054Y-206790047D01*
X61935053Y-206790047D01*
X61935050Y-206790046D01*
X61796964Y-206749500D01*
X61796961Y-206749500D01*
X61653039Y-206749500D01*
X61653035Y-206749500D01*
X61514949Y-206790046D01*
X61514942Y-206790049D01*
X61393876Y-206867854D01*
X61393871Y-206867858D01*
X61352736Y-206915331D01*
X61300340Y-206946927D01*
X61277917Y-206949500D01*
X60815479Y-206949500D01*
X60757288Y-206930593D01*
X60745475Y-206920504D01*
X59880291Y-206055320D01*
X59852514Y-206000803D01*
X59862085Y-205940371D01*
X59905350Y-205897106D01*
X59937374Y-205887163D01*
X59943709Y-205886330D01*
X60077625Y-205830861D01*
X60115934Y-205801464D01*
X60155693Y-205770958D01*
X60213369Y-205750534D01*
X60215960Y-205750500D01*
X63689563Y-205750500D01*
X63689563Y-205750499D01*
X63765989Y-205730021D01*
X63834511Y-205690460D01*
X63890460Y-205634511D01*
X65078751Y-204446220D01*
X65133268Y-204418443D01*
X65193700Y-204428014D01*
X65236965Y-204471279D01*
X65247755Y-204516224D01*
X65247755Y-209587819D01*
X65268232Y-209664240D01*
X65268233Y-209664242D01*
X65268234Y-209664244D01*
X65268946Y-209665477D01*
X65268949Y-209665490D01*
X65268952Y-209665489D01*
X65297241Y-209714486D01*
X65307795Y-209732766D01*
X66221005Y-210645976D01*
X66248781Y-210700491D01*
X66250000Y-210715978D01*
X66250000Y-211384373D01*
X66231093Y-211442564D01*
X66221004Y-211454377D01*
X66220190Y-211455191D01*
X66220190Y-211855190D01*
X66020190Y-211855190D01*
X66020190Y-211455191D01*
X66020189Y-211455190D01*
X65501245Y-211455190D01*
X65366006Y-211482091D01*
X65238618Y-211534856D01*
X65123969Y-211611461D01*
X65026461Y-211708969D01*
X64949856Y-211823618D01*
X64897091Y-211951006D01*
X64897091Y-211951008D01*
X64876367Y-212055190D01*
X65286402Y-212055190D01*
X65270190Y-212115694D01*
X65270190Y-212194686D01*
X65286402Y-212255190D01*
X64876368Y-212255190D01*
X64897091Y-212359371D01*
X64897091Y-212359373D01*
X64949856Y-212486761D01*
X65026461Y-212601410D01*
X65031237Y-212606186D01*
X65059014Y-212660703D01*
X65049443Y-212721135D01*
X65006178Y-212764400D01*
X64961233Y-212775190D01*
X64880489Y-212775190D01*
X64822153Y-212786793D01*
X64756000Y-212830996D01*
X64755996Y-212831000D01*
X64711793Y-212897153D01*
X64700190Y-212955489D01*
X64700190Y-213175189D01*
X64700191Y-213175190D01*
X65420189Y-213175190D01*
X65420190Y-213175189D01*
X65420190Y-212831190D01*
X65439097Y-212772999D01*
X65488597Y-212737035D01*
X65519190Y-212732190D01*
X65521190Y-212732190D01*
X65579381Y-212751097D01*
X65615345Y-212800597D01*
X65620190Y-212831190D01*
X65620190Y-213276190D01*
X65601283Y-213334381D01*
X65551783Y-213370345D01*
X65521190Y-213375190D01*
X64700191Y-213375190D01*
X64700190Y-213375191D01*
X64700190Y-213594890D01*
X64712066Y-213654594D01*
X64712066Y-213693222D01*
X64699690Y-213755438D01*
X64699690Y-214394941D01*
X64711811Y-214455876D01*
X64711811Y-214494504D01*
X64699690Y-214555438D01*
X64699690Y-214894941D01*
X64711811Y-214955876D01*
X64711811Y-214994504D01*
X64699690Y-215055438D01*
X64699690Y-215154574D01*
X64680783Y-215212765D01*
X64631283Y-215248729D01*
X64575069Y-215250201D01*
X64554501Y-215244690D01*
X64554499Y-215244690D01*
X61662751Y-215244690D01*
X61604560Y-215225783D01*
X61592747Y-215215694D01*
X58379496Y-212002443D01*
X58351719Y-211947926D01*
X58350500Y-211932439D01*
X58350500Y-193108981D01*
X58369407Y-193050790D01*
X58379490Y-193038983D01*
X58418473Y-193000000D01*
X63750000Y-193000000D01*
X67250000Y-193000000D01*
X67250000Y-191250000D01*
X65500000Y-189500000D01*
X63750000Y-189500000D01*
X63750000Y-193000000D01*
X58418473Y-193000000D01*
X61450041Y-189968431D01*
X61504556Y-189940656D01*
X61545333Y-189947114D01*
X61543554Y-189944345D01*
X61547048Y-189883259D01*
X61569295Y-189849177D01*
X62211187Y-189207285D01*
X62265702Y-189179510D01*
X62268170Y-189179151D01*
X62284395Y-189177016D01*
X62287708Y-189175644D01*
X62353300Y-189148475D01*
X62414297Y-189143674D01*
X62466466Y-189175644D01*
X62489881Y-189232172D01*
X62490186Y-189239939D01*
X62490186Y-189443835D01*
X62471279Y-189502026D01*
X62461190Y-189513838D01*
X62104523Y-189870504D01*
X62050008Y-189898281D01*
X62034521Y-189899500D01*
X61928035Y-189899500D01*
X61789949Y-189940046D01*
X61789947Y-189940047D01*
X61692825Y-190002463D01*
X61633649Y-190018016D01*
X61610723Y-190009089D01*
X61617824Y-190053924D01*
X61594864Y-190103266D01*
X61574623Y-190126626D01*
X61514834Y-190257543D01*
X61494353Y-190399997D01*
X61494353Y-190400002D01*
X61514834Y-190542456D01*
X61549977Y-190619407D01*
X61574623Y-190673373D01*
X61667034Y-190780022D01*
X61668873Y-190782144D01*
X61726856Y-190819407D01*
X61789947Y-190859953D01*
X61896403Y-190891211D01*
X61928035Y-190900499D01*
X61928036Y-190900499D01*
X61928039Y-190900500D01*
X61928041Y-190900500D01*
X62071959Y-190900500D01*
X62071961Y-190900500D01*
X62210053Y-190859953D01*
X62331128Y-190782143D01*
X62425377Y-190673373D01*
X62485165Y-190542457D01*
X62494082Y-190480435D01*
X62505647Y-190400002D01*
X62505647Y-190400000D01*
X62502558Y-190378518D01*
X62512990Y-190318228D01*
X62530543Y-190294427D01*
X63031146Y-189793825D01*
X63035473Y-189786330D01*
X63070707Y-189725303D01*
X63091186Y-189648876D01*
X63091186Y-188331885D01*
X63070707Y-188255458D01*
X63051866Y-188222825D01*
X63031146Y-188186936D01*
X62975197Y-188130986D01*
X62975197Y-188130987D01*
X62453750Y-187609540D01*
X62453747Y-187609538D01*
X62438092Y-187600499D01*
X62438092Y-187600500D01*
X62385228Y-187569979D01*
X62385227Y-187569978D01*
X62385226Y-187569978D01*
X62308803Y-187549500D01*
X62308801Y-187549500D01*
X60841199Y-187549500D01*
X60841196Y-187549500D01*
X60764773Y-187569978D01*
X60711908Y-187600500D01*
X60711907Y-187600499D01*
X60696250Y-187609539D01*
X60068188Y-188237599D01*
X60013672Y-188265376D01*
X59953240Y-188255805D01*
X59928181Y-188237599D01*
X59401020Y-187710438D01*
X58750122Y-187059540D01*
X58750119Y-187059538D01*
X58681603Y-187019980D01*
X58681599Y-187019978D01*
X58605175Y-186999500D01*
X58605173Y-186999500D01*
X57996851Y-186999500D01*
X57938660Y-186980593D01*
X57926847Y-186970504D01*
X57329496Y-186373153D01*
X57301719Y-186318636D01*
X57300500Y-186303149D01*
X57300500Y-185665479D01*
X57319407Y-185607288D01*
X57329496Y-185595475D01*
X58186896Y-184738075D01*
X58241413Y-184710298D01*
X58256900Y-184709079D01*
X59544338Y-184709079D01*
X59602529Y-184727986D01*
X59619154Y-184743246D01*
X59660293Y-184790722D01*
X59781368Y-184868532D01*
X59887824Y-184899790D01*
X59919456Y-184909078D01*
X59919457Y-184909078D01*
X59919460Y-184909079D01*
X59919462Y-184909079D01*
X60063380Y-184909079D01*
X60063382Y-184909079D01*
X60201474Y-184868532D01*
X60322549Y-184790722D01*
X60416798Y-184681952D01*
X60476586Y-184551036D01*
X60497068Y-184408579D01*
X60476586Y-184266122D01*
X60416798Y-184135206D01*
X60322549Y-184026436D01*
X60322548Y-184026435D01*
X60322547Y-184026434D01*
X60201478Y-183948628D01*
X60201475Y-183948626D01*
X60201474Y-183948626D01*
X60201471Y-183948625D01*
X60063385Y-183908079D01*
X60063382Y-183908079D01*
X59919460Y-183908079D01*
X59919456Y-183908079D01*
X59781370Y-183948625D01*
X59781363Y-183948628D01*
X59660297Y-184026433D01*
X59660292Y-184026437D01*
X59619157Y-184073910D01*
X59566761Y-184105506D01*
X59544338Y-184108079D01*
X58051856Y-184108079D01*
X57975433Y-184128557D01*
X57930798Y-184154326D01*
X57930797Y-184154328D01*
X57906910Y-184168119D01*
X56815489Y-185259540D01*
X56815488Y-185259539D01*
X56759539Y-185315489D01*
X56719980Y-185384007D01*
X56719978Y-185384011D01*
X56699500Y-185460435D01*
X56699500Y-186069835D01*
X56680593Y-186128026D01*
X56631093Y-186163990D01*
X56569907Y-186163990D01*
X56530496Y-186139839D01*
X56129496Y-185738839D01*
X56101719Y-185684322D01*
X56100500Y-185668835D01*
X56100500Y-181533210D01*
X56119407Y-181475019D01*
X56124666Y-181468396D01*
X56175377Y-181409873D01*
X56235165Y-181278957D01*
X56242005Y-181231380D01*
X56255647Y-181136502D01*
X56255647Y-181136497D01*
X56235165Y-180994043D01*
X56175377Y-180863127D01*
X56081128Y-180754357D01*
X56081127Y-180754356D01*
X56081126Y-180754355D01*
X55960052Y-180676546D01*
X55960050Y-180676545D01*
X55907607Y-180661146D01*
X55857101Y-180626610D01*
X55836540Y-180568983D01*
X55836500Y-180566157D01*
X55836500Y-180165067D01*
X55836500Y-180165066D01*
X55824419Y-180119979D01*
X55824419Y-180119978D01*
X55824419Y-180119977D01*
X55819918Y-180103183D01*
X55816022Y-180088640D01*
X55816020Y-180088636D01*
X55776463Y-180020121D01*
X55776459Y-180020116D01*
X55463796Y-179707452D01*
X55436019Y-179652936D01*
X55434800Y-179637449D01*
X55434800Y-175811327D01*
X55453707Y-175753136D01*
X55503207Y-175717172D01*
X55561689Y-175716337D01*
X55678039Y-175750500D01*
X55678041Y-175750500D01*
X55821959Y-175750500D01*
X55821961Y-175750500D01*
X55960053Y-175709953D01*
X56081128Y-175632143D01*
X56175377Y-175523373D01*
X56235165Y-175392457D01*
X56249220Y-175294699D01*
X56255647Y-175250002D01*
X56255647Y-175249997D01*
X56235165Y-175107543D01*
X56175377Y-174976628D01*
X56175377Y-174976627D01*
X56081128Y-174867857D01*
X56081127Y-174867856D01*
X56076491Y-174862506D01*
X56078524Y-174860743D01*
X56053067Y-174818505D01*
X56050500Y-174796105D01*
X56050500Y-171853978D01*
X56069407Y-171795787D01*
X56079490Y-171783980D01*
X56990460Y-170873011D01*
X57003803Y-170849901D01*
X57030020Y-170804492D01*
X57030020Y-170804490D01*
X57030022Y-170804488D01*
X57050500Y-170728062D01*
X57050500Y-170648938D01*
X57050500Y-169653893D01*
X57069407Y-169595702D01*
X57076741Y-169587711D01*
X57076491Y-169587494D01*
X57081128Y-169582143D01*
X57175377Y-169473373D01*
X57235165Y-169342457D01*
X57255647Y-169200000D01*
X57235165Y-169057543D01*
X57175377Y-168926627D01*
X57081128Y-168817857D01*
X57081127Y-168817856D01*
X57081126Y-168817855D01*
X56960057Y-168740049D01*
X56960054Y-168740047D01*
X56960053Y-168740047D01*
X56960050Y-168740046D01*
X56821964Y-168699500D01*
X56821961Y-168699500D01*
X56678039Y-168699500D01*
X56678035Y-168699500D01*
X56576591Y-168729287D01*
X56515431Y-168727539D01*
X56466978Y-168690176D01*
X56449700Y-168634297D01*
X56449700Y-164867594D01*
X56439215Y-164828464D01*
X56439215Y-164828463D01*
X56433901Y-164808631D01*
X56429222Y-164791168D01*
X56389660Y-164722645D01*
X54329496Y-162662481D01*
X54301719Y-162607964D01*
X54300500Y-162592477D01*
X54300500Y-157415479D01*
X54319407Y-157357288D01*
X54329496Y-157345475D01*
X57850496Y-153824475D01*
X57905013Y-153796698D01*
X57965445Y-153806269D01*
G37*
%TD.AperFunction*%
%TA.AperFunction,Conductor*%
G36*
X67525879Y-211950959D02*
G01*
X67528683Y-211953654D01*
X67565694Y-211990665D01*
X67593471Y-212045182D01*
X67594690Y-212060669D01*
X67594690Y-213854175D01*
X67575783Y-213912366D01*
X67526283Y-213948330D01*
X67465097Y-213948330D01*
X67457818Y-213945645D01*
X67388899Y-213917098D01*
X67388896Y-213917097D01*
X67388895Y-213917097D01*
X67245190Y-213898178D01*
X67245185Y-213898178D01*
X67241955Y-213898603D01*
X67239663Y-213898178D01*
X67238701Y-213898178D01*
X67238701Y-213897999D01*
X67181796Y-213887448D01*
X67139682Y-213843063D01*
X67131700Y-213782400D01*
X67133409Y-213774847D01*
X67165690Y-213654373D01*
X67165690Y-213516007D01*
X67129878Y-213382354D01*
X67060695Y-213262525D01*
X66962855Y-213164685D01*
X66843026Y-213095502D01*
X66709373Y-213059690D01*
X66571007Y-213059690D01*
X66541455Y-213067608D01*
X66464812Y-213088144D01*
X66403711Y-213084941D01*
X66356161Y-213046436D01*
X66340190Y-212992517D01*
X66340190Y-212954190D01*
X66359097Y-212895999D01*
X66408597Y-212860035D01*
X66439190Y-212855190D01*
X66739133Y-212855190D01*
X66739134Y-212855189D01*
X66874373Y-212828288D01*
X67001761Y-212775523D01*
X67116410Y-212698918D01*
X67213918Y-212601410D01*
X67290523Y-212486761D01*
X67343288Y-212359373D01*
X67343288Y-212359371D01*
X67364012Y-212255190D01*
X66953978Y-212255190D01*
X66970190Y-212194686D01*
X66970190Y-212115694D01*
X66953978Y-212055190D01*
X67364012Y-212055190D01*
X67364012Y-212055189D01*
X67361582Y-212042973D01*
X67368772Y-211982212D01*
X67410304Y-211937282D01*
X67470314Y-211925344D01*
X67525879Y-211950959D01*
G37*
%TD.AperFunction*%
%TA.AperFunction,Conductor*%
G36*
X70754254Y-188079225D02*
G01*
X73020504Y-190345475D01*
X73048281Y-190399992D01*
X73049500Y-190415479D01*
X73049500Y-198327004D01*
X73030593Y-198385195D01*
X72981093Y-198421159D01*
X72919907Y-198421159D01*
X72890232Y-198405546D01*
X72777625Y-198319139D01*
X72777621Y-198319137D01*
X72643709Y-198263670D01*
X72643708Y-198263669D01*
X72500000Y-198244750D01*
X72356291Y-198263669D01*
X72356290Y-198263670D01*
X72222378Y-198319137D01*
X72222374Y-198319139D01*
X72107381Y-198407377D01*
X72107377Y-198407381D01*
X72019139Y-198522374D01*
X72019137Y-198522378D01*
X71963670Y-198656290D01*
X71963669Y-198656291D01*
X71944750Y-198799999D01*
X71944750Y-198800000D01*
X71963669Y-198943708D01*
X71963670Y-198943709D01*
X72019139Y-199077625D01*
X72107379Y-199192621D01*
X72107383Y-199192624D01*
X72107384Y-199192625D01*
X72160767Y-199233587D01*
X72195423Y-199284011D01*
X72199500Y-199312129D01*
X72199500Y-199534521D01*
X72180593Y-199592712D01*
X72170504Y-199604525D01*
X71716525Y-200058504D01*
X71662008Y-200086281D01*
X71646521Y-200087500D01*
X71338017Y-200087500D01*
X71279826Y-200068593D01*
X71243862Y-200019093D01*
X71243862Y-199957907D01*
X71250488Y-199942242D01*
X71252785Y-199937892D01*
X71252793Y-199937882D01*
X71297646Y-199809699D01*
X71300499Y-199779273D01*
X71300500Y-199779273D01*
X71300500Y-198170727D01*
X71300499Y-198170725D01*
X71297646Y-198140305D01*
X71297646Y-198140301D01*
X71252793Y-198012118D01*
X71240509Y-197995474D01*
X71172154Y-197902855D01*
X71172152Y-197902853D01*
X71172150Y-197902850D01*
X71172146Y-197902847D01*
X71172144Y-197902845D01*
X71062883Y-197822207D01*
X70934703Y-197777355D01*
X70934694Y-197777353D01*
X70904274Y-197774500D01*
X70904266Y-197774500D01*
X69595734Y-197774500D01*
X69595725Y-197774500D01*
X69565305Y-197777353D01*
X69565296Y-197777355D01*
X69437116Y-197822207D01*
X69327855Y-197902845D01*
X69327845Y-197902855D01*
X69247207Y-198012116D01*
X69202355Y-198140296D01*
X69202353Y-198140305D01*
X69199500Y-198170725D01*
X69199500Y-199779274D01*
X69202353Y-199809694D01*
X69202355Y-199809703D01*
X69228531Y-199884508D01*
X69247207Y-199937882D01*
X69247211Y-199937887D01*
X69249512Y-199942242D01*
X69259985Y-200002525D01*
X69233024Y-200057450D01*
X69178929Y-200086039D01*
X69161983Y-200087500D01*
X68512139Y-200087500D01*
X68453948Y-200068593D01*
X68417984Y-200019093D01*
X68417984Y-199957907D01*
X68442133Y-199918498D01*
X68565977Y-199794655D01*
X68680941Y-199622598D01*
X68760130Y-199431420D01*
X68800500Y-199228465D01*
X68800500Y-198721535D01*
X68760130Y-198518580D01*
X68680941Y-198327402D01*
X68565977Y-198155345D01*
X68419655Y-198009023D01*
X68417057Y-198007287D01*
X68247597Y-197894058D01*
X68056418Y-197814869D01*
X67853467Y-197774500D01*
X67853465Y-197774500D01*
X67646535Y-197774500D01*
X67646532Y-197774500D01*
X67443581Y-197814869D01*
X67252402Y-197894058D01*
X67080348Y-198009020D01*
X66934020Y-198155348D01*
X66819058Y-198327402D01*
X66739869Y-198518581D01*
X66699500Y-198721532D01*
X66699500Y-199228467D01*
X66739869Y-199431418D01*
X66819058Y-199622597D01*
X66934020Y-199794651D01*
X66934023Y-199794655D01*
X67020971Y-199881603D01*
X67048747Y-199936118D01*
X67039176Y-199996550D01*
X66995911Y-200039815D01*
X66938045Y-200049758D01*
X66900002Y-200044750D01*
X66900000Y-200044750D01*
X66756291Y-200063669D01*
X66756290Y-200063670D01*
X66716953Y-200079964D01*
X66679068Y-200087500D01*
X66347755Y-200087500D01*
X66289564Y-200068593D01*
X66253600Y-200019093D01*
X66248755Y-199988500D01*
X66248755Y-198017224D01*
X66267662Y-197959033D01*
X66277751Y-197947220D01*
X67195476Y-197029495D01*
X67249993Y-197001718D01*
X67265480Y-197000499D01*
X71339564Y-197000499D01*
X71339564Y-197000498D01*
X71415990Y-196980020D01*
X71484512Y-196940459D01*
X71540461Y-196884510D01*
X72640460Y-195784511D01*
X72652493Y-195763669D01*
X72680020Y-195715992D01*
X72680020Y-195715990D01*
X72680022Y-195715988D01*
X72700500Y-195639562D01*
X72700500Y-195560438D01*
X72700500Y-190480438D01*
X72680021Y-190404011D01*
X72677706Y-190400002D01*
X72640460Y-190335489D01*
X72584511Y-190279539D01*
X72584511Y-190279540D01*
X70604614Y-188299643D01*
X70576837Y-188245126D01*
X70576465Y-188216723D01*
X70585250Y-188150000D01*
X70585250Y-188149997D01*
X70585250Y-188149229D01*
X70585420Y-188148705D01*
X70586097Y-188143565D01*
X70587049Y-188143690D01*
X70604157Y-188091038D01*
X70653657Y-188055074D01*
X70714843Y-188055074D01*
X70754254Y-188079225D01*
G37*
%TD.AperFunction*%
%TD*%
%TA.AperFunction,Conductor*%
%TO.N,GND*%
G36*
X67250000Y-191250000D02*
G01*
X67250000Y-193000000D01*
X63750000Y-193000000D01*
X63750000Y-189500000D01*
X65500000Y-189500000D01*
X67250000Y-191250000D01*
G37*
%TD.AperFunction*%
%TD*%
M02*
