%TF.GenerationSoftware,KiCad,Pcbnew,8.0.7*%
%TF.CreationDate,2025-01-01T13:35:27+01:00*%
%TF.ProjectId,v_ggtermometer,76e46767-7465-4726-9d6f-6d657465722e,rev?*%
%TF.SameCoordinates,Original*%
%TF.FileFunction,Soldermask,Bot*%
%TF.FilePolarity,Negative*%
%FSLAX46Y46*%
G04 Gerber Fmt 4.6, Leading zero omitted, Abs format (unit mm)*
G04 Created by KiCad (PCBNEW 8.0.7) date 2025-01-01 13:35:27*
%MOMM*%
%LPD*%
G01*
G04 APERTURE LIST*
G04 Aperture macros list*
%AMRoundRect*
0 Rectangle with rounded corners*
0 $1 Rounding radius*
0 $2 $3 $4 $5 $6 $7 $8 $9 X,Y pos of 4 corners*
0 Add a 4 corners polygon primitive as box body*
4,1,4,$2,$3,$4,$5,$6,$7,$8,$9,$2,$3,0*
0 Add four circle primitives for the rounded corners*
1,1,$1+$1,$2,$3*
1,1,$1+$1,$4,$5*
1,1,$1+$1,$6,$7*
1,1,$1+$1,$8,$9*
0 Add four rect primitives between the rounded corners*
20,1,$1+$1,$2,$3,$4,$5,0*
20,1,$1+$1,$4,$5,$6,$7,0*
20,1,$1+$1,$6,$7,$8,$9,0*
20,1,$1+$1,$8,$9,$2,$3,0*%
G04 Aperture macros list end*
%ADD10C,1.000000*%
%ADD11C,5.000000*%
%ADD12C,2.000000*%
%ADD13C,1.700000*%
%ADD14O,1.700000X1.700000*%
%ADD15R,1.700000X1.700000*%
%ADD16RoundRect,0.250000X0.600000X0.750000X-0.600000X0.750000X-0.600000X-0.750000X0.600000X-0.750000X0*%
%ADD17O,1.700000X2.000000*%
%ADD18C,2.500000*%
%ADD19C,0.650000*%
%ADD20R,1.240000X0.600000*%
%ADD21R,1.240000X0.300000*%
%ADD22O,1.800000X1.000000*%
%ADD23O,2.100000X1.000000*%
G04 APERTURE END LIST*
D10*
%TO.C,*%
X117450000Y-216150000D03*
%TD*%
D11*
%TO.C,REF\u002A\u002A*%
X114550000Y-133750000D03*
%TD*%
D10*
%TO.C,REF\u002A\u002A*%
X114250000Y-216150000D03*
%TD*%
D11*
%TO.C,REF\u002A\u002A*%
X114550000Y-93750000D03*
%TD*%
D10*
%TO.C,REF\u002A\u002A*%
X114250000Y-209650000D03*
%TD*%
D12*
%TO.C,SW3*%
X111500000Y-161700000D03*
X111500000Y-168200000D03*
X107000000Y-161700000D03*
X107000000Y-168200000D03*
%TD*%
%TO.C,SW1*%
X107000000Y-177800000D03*
X107000000Y-171300000D03*
X111500000Y-177800000D03*
X111500000Y-171300000D03*
%TD*%
D13*
%TO.C,J2*%
X116950000Y-172420000D03*
D14*
X116950000Y-174960000D03*
D15*
X116950000Y-177500000D03*
D14*
X116950000Y-180040000D03*
X116950000Y-182580000D03*
X116950000Y-185120000D03*
X116950000Y-187660000D03*
X116950000Y-190200000D03*
%TD*%
D10*
%TO.C,*%
X112750000Y-212950000D03*
%TD*%
%TO.C,REF\u002A\u002A*%
X117450000Y-209650000D03*
%TD*%
D16*
%TO.C,J8*%
X115800000Y-205225000D03*
D17*
X113300000Y-205225000D03*
%TD*%
D18*
%TO.C,BT1*%
X94800000Y-154750000D03*
X94800000Y-226750000D03*
%TD*%
D19*
%TO.C,J1*%
X112190190Y-219835190D03*
X112190190Y-225615190D03*
D20*
X111070190Y-219525190D03*
X111070190Y-220325190D03*
D21*
X111070190Y-221475190D03*
X111070190Y-222475190D03*
X111070190Y-222975190D03*
X111070190Y-223975190D03*
D20*
X111070190Y-225125190D03*
X111070190Y-225925190D03*
X111070190Y-225925190D03*
X111070190Y-225125190D03*
D21*
X111070190Y-224475190D03*
X111070190Y-223475190D03*
X111070190Y-221975190D03*
X111070190Y-220975190D03*
D20*
X111070190Y-220325190D03*
X111070190Y-219525190D03*
D22*
X115870190Y-218405190D03*
D23*
X111670190Y-218405190D03*
D22*
X115870190Y-227045190D03*
D23*
X111670190Y-227045190D03*
%TD*%
M02*
