%TF.GenerationSoftware,KiCad,Pcbnew,8.0.5-8.0.5-0~ubuntu24.04.1*%
%TF.CreationDate,2024-10-11T17:30:16+02:00*%
%TF.ProjectId,v_ggtermometer,76e46767-7465-4726-9d6f-6d657465722e,rev?*%
%TF.SameCoordinates,Original*%
%TF.FileFunction,Legend,Bot*%
%TF.FilePolarity,Positive*%
%FSLAX46Y46*%
G04 Gerber Fmt 4.6, Leading zero omitted, Abs format (unit mm)*
G04 Created by KiCad (PCBNEW 8.0.5-8.0.5-0~ubuntu24.04.1) date 2024-10-11 17:30:16*
%MOMM*%
%LPD*%
G01*
G04 APERTURE LIST*
%ADD10C,0.300000*%
%ADD11C,0.120000*%
G04 APERTURE END LIST*
D10*
G36*
X49526970Y-144910704D02*
G01*
X49526970Y-143112588D01*
X51156559Y-143112588D01*
X51156559Y-142574766D01*
X49526970Y-142574766D01*
X49526970Y-140785443D01*
X48964235Y-140785443D01*
X48964235Y-142574766D01*
X47341974Y-142574766D01*
X47341974Y-143112588D01*
X48964235Y-143112588D01*
X48964235Y-144910704D01*
X49526970Y-144910704D01*
G37*
D11*
%TO.C,J8*%
X65190000Y-196515000D02*
X65190000Y-202485000D01*
X65190000Y-202485000D02*
X72810000Y-202485000D01*
X65200000Y-196525000D02*
X65200000Y-197275000D01*
X65200000Y-197275000D02*
X67000000Y-197275000D01*
X65950000Y-198775000D02*
X65200000Y-198775000D01*
X65950000Y-201725000D02*
X65950000Y-198775000D01*
X67000000Y-196525000D02*
X65200000Y-196525000D01*
X67000000Y-197275000D02*
X67000000Y-196525000D01*
X68500000Y-196525000D02*
X68500000Y-197275000D01*
X68500000Y-197275000D02*
X69500000Y-197275000D01*
X69000000Y-201725000D02*
X65950000Y-201725000D01*
X69000000Y-201725000D02*
X72050000Y-201725000D01*
X69500000Y-196525000D02*
X68500000Y-196525000D01*
X69500000Y-197275000D02*
X69500000Y-196525000D01*
X71000000Y-196525000D02*
X71000000Y-197275000D01*
X71000000Y-197275000D02*
X72800000Y-197275000D01*
X72050000Y-198775000D02*
X72800000Y-198775000D01*
X72050000Y-201725000D02*
X72050000Y-198775000D01*
X72800000Y-196525000D02*
X71000000Y-196525000D01*
X72800000Y-197275000D02*
X72800000Y-196525000D01*
X72810000Y-196515000D02*
X65190000Y-196515000D01*
X72810000Y-202485000D02*
X72810000Y-196515000D01*
X73100000Y-196225000D02*
X71850000Y-196225000D01*
X73100000Y-197475000D02*
X73100000Y-196225000D01*
%TO.C,BT1*%
X39200000Y-145500000D02*
X59300000Y-145500000D01*
X39200000Y-223500000D02*
X39200000Y-145500000D01*
X59300000Y-145500000D02*
X59300000Y-223500000D01*
X59300000Y-223500000D02*
X39200000Y-223500000D01*
%TO.C,J1*%
X67395190Y-221055190D02*
X69315190Y-221055190D01*
X69315190Y-211895190D02*
X67395190Y-211895190D01*
X71325190Y-211895190D02*
X73030190Y-211895190D01*
X73030190Y-211895190D02*
X73030190Y-221055190D01*
X73030190Y-221055190D02*
X71325190Y-221055190D01*
%TD*%
M02*
