M48
; DRILL file {KiCad 8.0.7-8.0.7-0~ubuntu24.04.1} date 2024-12-04T16:15:17+0100
; FORMAT={-:-/ absolute / inch / decimal}
; #@! TF.CreationDate,2024-12-04T16:15:17+01:00
; #@! TF.GenerationSoftware,Kicad,Pcbnew,8.0.7-8.0.7-0~ubuntu24.04.1
; #@! TF.FileFunction,Plated,1,2,PTH
FMAT,2
INCH
; #@! TA.AperFunction,Plated,PTH,ViaDrill
T1C0.0118
; #@! TA.AperFunction,Plated,PTH,ComponentDrill
T2C0.0236
; #@! TA.AperFunction,Plated,PTH,ComponentDrill
T3C0.0394
; #@! TA.AperFunction,Plated,PTH,ComponentDrill
T4C0.0433
; #@! TA.AperFunction,Plated,PTH,ComponentDrill
T5C0.0689
%
G90
G05
T1
X0.4859Y1.3914
X0.544Y5.2654
X0.5449Y1.1552
X0.5597Y5.4164
X0.5725Y4.5429
X0.595Y5.8209
X0.602Y0.602
X0.604Y0.289
X0.6041Y6.468
X0.6081Y4.7921
X0.609Y2.2516
X0.6138Y3.9898
X0.619Y2.3565
X0.6215Y6.1945
X0.6225Y5.8873
X0.6226Y2.5033
X0.6231Y3.0449
X0.6285Y1.4
X0.6315Y4.9347
X0.6315Y3.7479
X0.6335Y2.1846
X0.6384Y5.4925
X0.6414Y1.2359
X0.6431Y5.9528
X0.6433Y5.6368
X0.6433Y5.4071
X0.6433Y3.3599
X0.6433Y1.9426
X0.6433Y1.7108
X0.6433Y1.1552
X0.6434Y5.0191
X0.644Y2.8016
X0.6551Y4.779
X0.6788Y1.8567
X0.6815Y3.8323
X0.6815Y3.3599
X0.6822Y3.7474
X0.6827Y2.8874
X0.6827Y2.1807
X0.6978Y4.4576
X0.7139Y5.5663
X0.714Y4.041
X0.7221Y5.8008
X0.728Y4.541
X0.7306Y1.4111
X0.7406Y1.5193
X0.7418Y0.23
X0.7418Y0.0922
X0.7772Y1.73
X0.7989Y1.7595
X0.8028Y0.7575
X0.8103Y1.582
X0.8137Y1.4573
X0.8402Y1.1138
X0.8412Y0.8894
X0.8559Y1.4209
X0.8786Y0.6827
X0.8855Y1.7398
X0.8894Y1.3461
X0.8949Y1.4154
X0.8993Y0.8894
X0.9573Y0.8894
X0.978Y1.3619
X0.978Y1.3126
X0.978Y1.2634
X0.9878Y1.6473
X1.0272Y1.2634
X1.0276Y2.9402
X1.0288Y1.1272
X1.0297Y1.3126
X1.0469Y1.6138
X1.0479Y1.5322
X1.0571Y2.9402
X1.0685Y1.0421
X1.0764Y1.2634
X1.0784Y0.2799
X1.0798Y0.3676
X1.0823Y0.9445
X1.0867Y2.9402
X1.0941Y1.5528
X1.0959Y0.3991
X1.1251Y1.2183
X1.1288Y1.5508
X1.1355Y1.6867
X1.1598Y1.0744
X1.1607Y1.2283
X1.165Y1.3953
X1.1797Y1.3089
X1.1926Y1.2437
X1.2056Y1.4347
X1.2066Y1.3973
X1.2312Y1.1394
X1.2418Y1.1906
X1.2713Y1.039
X1.3028Y1.0154
T3
X1.1158Y1.0085
X1.2142Y1.0085
X1.2595Y2.3
X1.2595Y2.2
X1.2595Y2.1
X1.2595Y2.0
X1.2595Y1.9
X1.2595Y1.8
X1.2595Y1.7
X1.2595Y1.6
T4
X0.8678Y2.7221
X0.8678Y2.4662
X0.8678Y2.3441
X0.8678Y2.0882
X1.0449Y2.7221
X1.0449Y2.4662
X1.0449Y2.3441
X1.0449Y2.0882
T5
X0.3874Y2.9957
X0.3874Y0.1611
T2
G00X1.0733Y0.4896
M15
G01X1.03Y0.4896
M16
G05
G00X1.0733Y0.1494
M15
G01X1.03Y0.1494
M16
G05
G00X1.2327Y0.4896
M15
G01X1.2012Y0.4896
M16
G05
G00X1.2327Y0.1494
M15
G01X1.2012Y0.1494
M16
G05
M30
