%TF.GenerationSoftware,KiCad,Pcbnew,8.0.7-8.0.7-0~ubuntu24.04.1*%
%TF.CreationDate,2024-12-04T16:15:17+01:00*%
%TF.ProjectId,v_ggtermometer,76e46767-7465-4726-9d6f-6d657465722e,rev?*%
%TF.SameCoordinates,Original*%
%TF.FileFunction,Copper,L2,Bot*%
%TF.FilePolarity,Positive*%
%FSLAX46Y46*%
G04 Gerber Fmt 4.6, Leading zero omitted, Abs format (unit mm)*
G04 Created by KiCad (PCBNEW 8.0.7-8.0.7-0~ubuntu24.04.1) date 2024-12-04 16:15:17*
%MOMM*%
%LPD*%
G01*
G04 APERTURE LIST*
G04 Aperture macros list*
%AMRoundRect*
0 Rectangle with rounded corners*
0 $1 Rounding radius*
0 $2 $3 $4 $5 $6 $7 $8 $9 X,Y pos of 4 corners*
0 Add a 4 corners polygon primitive as box body*
4,1,4,$2,$3,$4,$5,$6,$7,$8,$9,$2,$3,0*
0 Add four circle primitives for the rounded corners*
1,1,$1+$1,$2,$3*
1,1,$1+$1,$4,$5*
1,1,$1+$1,$6,$7*
1,1,$1+$1,$8,$9*
0 Add four rect primitives between the rounded corners*
20,1,$1+$1,$2,$3,$4,$5,0*
20,1,$1+$1,$4,$5,$6,$7,0*
20,1,$1+$1,$6,$7,$8,$9,0*
20,1,$1+$1,$8,$9,$2,$3,0*%
G04 Aperture macros list end*
%TA.AperFunction,WasherPad*%
%ADD10C,5.000000*%
%TD*%
%TA.AperFunction,ComponentPad*%
%ADD11C,2.000000*%
%TD*%
%TA.AperFunction,ComponentPad*%
%ADD12C,1.700000*%
%TD*%
%TA.AperFunction,ComponentPad*%
%ADD13O,1.700000X1.700000*%
%TD*%
%TA.AperFunction,ComponentPad*%
%ADD14R,1.700000X1.700000*%
%TD*%
%TA.AperFunction,ComponentPad*%
%ADD15RoundRect,0.250000X0.600000X0.750000X-0.600000X0.750000X-0.600000X-0.750000X0.600000X-0.750000X0*%
%TD*%
%TA.AperFunction,ComponentPad*%
%ADD16O,1.700000X2.000000*%
%TD*%
%TA.AperFunction,ComponentPad*%
%ADD17C,2.500000*%
%TD*%
%TA.AperFunction,SMDPad,CuDef*%
%ADD18R,1.240000X0.600000*%
%TD*%
%TA.AperFunction,SMDPad,CuDef*%
%ADD19R,1.240000X0.300000*%
%TD*%
%TA.AperFunction,ComponentPad*%
%ADD20O,1.800000X1.000000*%
%TD*%
%TA.AperFunction,ComponentPad*%
%ADD21O,2.100000X1.000000*%
%TD*%
%TA.AperFunction,ViaPad*%
%ADD22C,0.600000*%
%TD*%
%TA.AperFunction,ViaPad*%
%ADD23C,0.700000*%
%TD*%
%TA.AperFunction,Conductor*%
%ADD24C,0.200000*%
%TD*%
%TA.AperFunction,Conductor*%
%ADD25C,0.500000*%
%TD*%
%TA.AperFunction,Conductor*%
%ADD26C,0.300000*%
%TD*%
G04 APERTURE END LIST*
D10*
%TO.P,REF\u002A\u002A,*%
%TO.N,*%
X29590990Y97090990D03*
%TD*%
%TO.P,REF\u002A\u002A,*%
%TO.N,*%
X29590990Y137090990D03*
%TD*%
D11*
%TO.P,SW3,1,A*%
%TO.N,IO20*%
X26540990Y69140990D03*
X26540990Y62640990D03*
%TO.P,SW3,3,B*%
%TO.N,GND*%
X22040990Y69140990D03*
X22040990Y62640990D03*
%TD*%
%TO.P,SW1,1,A*%
%TO.N,Net-(U1-GPIO3{slash}ADC1_CH3)*%
X22040990Y53040990D03*
X22040990Y59540990D03*
%TO.P,SW1,3,B*%
%TO.N,GND*%
X26540990Y53040990D03*
X26540990Y59540990D03*
%TD*%
D12*
%TO.P,J2,1,Pin_1*%
%TO.N,+5V*%
X31990990Y58420990D03*
D13*
%TO.P,J2,2,Pin_2*%
%TO.N,+3.3V*%
X31990990Y55880990D03*
D14*
%TO.P,J2,3,Pin_3*%
%TO.N,GND*%
X31990990Y53340990D03*
D13*
%TO.P,J2,4,Pin_4*%
%TO.N,EN*%
X31990990Y50800990D03*
%TO.P,J2,5,Pin_5*%
%TO.N,IO21*%
X31990990Y48260990D03*
%TO.P,J2,6,Pin_6*%
%TO.N,IO20*%
X31990990Y45720990D03*
%TO.P,J2,7,Pin_7*%
%TO.N,IO9*%
X31990990Y43180990D03*
%TO.P,J2,8,Pin_8*%
%TO.N,IO1*%
X31990990Y40640990D03*
%TD*%
D15*
%TO.P,J8,1,Pin_1*%
%TO.N,IO1*%
X30840990Y25615990D03*
D16*
%TO.P,J8,2,Pin_2*%
%TO.N,+3.3V*%
X28340990Y25615990D03*
%TD*%
D17*
%TO.P,BT1,1,+*%
%TO.N,VBAT*%
X9840990Y76090990D03*
%TO.P,BT1,2,-*%
%TO.N,GND*%
X9840990Y4090990D03*
%TD*%
D18*
%TO.P,J1,A1,GND*%
%TO.N,GND*%
X26111180Y11315800D03*
%TO.P,J1,A4,VBUS*%
%TO.N,+5V*%
X26111180Y10515800D03*
D19*
%TO.P,J1,A5,CC1*%
%TO.N,/CC1*%
X26111180Y9365800D03*
%TO.P,J1,A6,D+*%
%TO.N,D+*%
X26111180Y8365800D03*
%TO.P,J1,A7,D-*%
%TO.N,D-*%
X26111180Y7865800D03*
%TO.P,J1,A8,SBU1*%
%TO.N,unconnected-(J1-SBU1-PadA8)*%
X26111180Y6865800D03*
D18*
%TO.P,J1,A9,VBUS*%
%TO.N,+5V*%
X26111180Y5715800D03*
%TO.P,J1,A12,GND*%
%TO.N,GND*%
X26111180Y4915800D03*
%TO.P,J1,B1,GND*%
X26111180Y4915800D03*
%TO.P,J1,B4,VBUS*%
%TO.N,+5V*%
X26111180Y5715800D03*
D19*
%TO.P,J1,B5,CC2*%
%TO.N,/CC2*%
X26111180Y6365800D03*
%TO.P,J1,B6,D+*%
%TO.N,D+*%
X26111180Y7365800D03*
%TO.P,J1,B7,D-*%
%TO.N,D-*%
X26111180Y8865800D03*
%TO.P,J1,B8,SBU2*%
%TO.N,unconnected-(J1-SBU2-PadB8)*%
X26111180Y9865800D03*
D18*
%TO.P,J1,B9,VBUS*%
%TO.N,+5V*%
X26111180Y10515800D03*
%TO.P,J1,B12,GND*%
%TO.N,GND*%
X26111180Y11315800D03*
D20*
%TO.P,J1,S1,SHIELD*%
X30911180Y12435800D03*
D21*
X26711180Y12435800D03*
D20*
X30911180Y3795800D03*
D21*
X26711180Y3795800D03*
%TD*%
D22*
%TO.N,GND*%
X27600990Y74680990D03*
X26153490Y33340990D03*
X32290990Y26390990D03*
X24840990Y33340990D03*
X27340990Y32090990D03*
X21365990Y22590990D03*
X20666725Y37015255D03*
X26100990Y74680990D03*
X24840990Y32090990D03*
X27790990Y39440990D03*
X24840990Y34590990D03*
X22840990Y22590990D03*
X26590990Y40990990D03*
X26090990Y32090990D03*
X24315990Y22590990D03*
X27139245Y26469205D03*
X26850990Y74680990D03*
X29459516Y27290991D03*
%TO.N,EN*%
X28840990Y42840990D03*
D23*
%TO.N,+3.3V*%
X26131370Y28631370D03*
X21340990Y28290990D03*
X30290990Y31590990D03*
D22*
X22315990Y17340990D03*
X19740990Y43940990D03*
D23*
X25090990Y41840990D03*
X28671752Y39390991D03*
%TO.N,+5V*%
X27836180Y10137562D03*
D22*
%TO.N,/l-blue*%
X16216590Y139509290D03*
X14217090Y137577790D03*
%TO.N,/green*%
X17310990Y85340990D03*
X18132790Y141382790D03*
X16040890Y95195490D03*
X15112990Y147850990D03*
X15721366Y59854129D03*
X16340990Y143174590D03*
%TO.N,/beige*%
X15343690Y164286790D03*
X16357518Y71160990D03*
X15964058Y35560018D03*
X13818590Y133742190D03*
X16340990Y137340990D03*
X15590990Y101340990D03*
X14541725Y115390255D03*
X15467890Y57190990D03*
%TO.N,/red*%
X16340990Y85340990D03*
X16340990Y29340990D03*
X13840990Y29340990D03*
X16090990Y55487990D03*
X17723290Y113222790D03*
X16040890Y125340990D03*
%TO.N,/orange*%
X16340990Y49340990D03*
X15785790Y157340990D03*
X16342590Y127485690D03*
X17340990Y55390990D03*
X18135490Y102640990D03*
%TO.N,/l-green*%
X15445090Y121718290D03*
X17310990Y97340990D03*
X16340990Y43454490D03*
X15826390Y77340990D03*
X16290990Y31390990D03*
X15812690Y149538490D03*
%TO.N,/cyan*%
X17240990Y47160989D03*
X16639390Y121387290D03*
X16333590Y151200390D03*
X17328190Y95183590D03*
D23*
%TO.N,D-*%
X22731676Y35950304D03*
%TO.N,D+*%
X21740990Y36090990D03*
D22*
%TO.N,IO21*%
X26616725Y38916725D03*
D23*
X18491090Y115340990D03*
D22*
X20290990Y44690990D03*
X22490990Y44190990D03*
%TO.N,IO20*%
X22590990Y34190990D03*
X15340990Y7340990D03*
X20582411Y40182411D03*
D23*
%TO.N,IO9*%
X29590990Y35440990D03*
D22*
X15290990Y15290990D03*
D23*
%TO.N,IO2*%
X18340990Y147340990D03*
X31271752Y28940991D03*
%TO.N,Net-(U1-GPIO3{slash}ADC1_CH3)*%
X31540990Y30240990D03*
%TO.N,IO4*%
X28578489Y30944740D03*
X18810990Y38590990D03*
%TO.N,IO5*%
X15814609Y63582773D03*
X29481527Y31197578D03*
%TO.N,IO6*%
X20390990Y19240990D03*
X29965300Y33246064D03*
%TO.N,IO7*%
X12340990Y35340990D03*
X18555990Y35840990D03*
%TO.N,IO8*%
X30646370Y35490990D03*
X18840990Y5840990D03*
%TO.N,IO10*%
X30620990Y36440990D03*
X18840990Y2340990D03*
%TO.N,/CC2*%
X27391998Y7110172D03*
%TO.N,/CC1*%
X27426560Y9336180D03*
D22*
%TO.N,VBAT*%
X17340990Y73340990D03*
D23*
%TO.N,VCC*%
X27490990Y23990990D03*
X33090990Y25790990D03*
%TD*%
D24*
%TO.N,GND*%
X20792460Y37140990D02*
X20666725Y37015255D01*
X26111180Y4375800D02*
X26711180Y3775800D01*
X26111180Y11815800D02*
X26711180Y12415800D01*
X26111180Y4895800D02*
X26111180Y4375800D01*
X26111180Y11295800D02*
X26111180Y11815800D01*
%TO.N,EN*%
X28840990Y47550990D02*
X32090990Y50800990D01*
X28840990Y42840990D02*
X28840990Y47550990D01*
%TO.N,+3.3V*%
X19740990Y26690990D02*
X19740990Y19890990D01*
X19740990Y19890990D02*
X24425304Y19890990D01*
X28671752Y39390991D02*
X28121751Y38840990D01*
X29464177Y30260989D02*
X27965121Y30260989D01*
X25339245Y20804931D02*
X25339245Y27839245D01*
X19740990Y19890990D02*
X19740990Y18840990D01*
X19740990Y43209618D02*
X28959618Y33990990D01*
X21240990Y17340990D02*
X22315990Y17340990D01*
X24425304Y19890990D02*
X25339245Y20804931D01*
X27760989Y30260989D02*
X27965121Y30260989D01*
X25090990Y41290990D02*
X25090990Y41840990D01*
X30290990Y31590990D02*
X30290990Y31087802D01*
X25339245Y27839245D02*
X26131370Y28631370D01*
X21340990Y28290990D02*
X19740990Y26690990D01*
X30290990Y31087802D02*
X29464177Y30260989D01*
X28959618Y32922362D02*
X30290990Y31590990D01*
X28959618Y33990990D02*
X28959618Y32922362D01*
X28121751Y38840990D02*
X27540990Y38840990D01*
X26131370Y28631370D02*
X27760989Y30260989D01*
X19740990Y18840990D02*
X21240990Y17340990D01*
X27540990Y38840990D02*
X25090990Y41290990D01*
X19740990Y43940990D02*
X19740990Y43209618D01*
%TO.N,+5V*%
X27836180Y10137562D02*
X27544417Y10137562D01*
X28076560Y9605419D02*
X28076560Y6875494D01*
X27096866Y5895800D02*
X26386180Y5895800D01*
X28076560Y6875494D02*
X27096866Y5895800D01*
X27836180Y9845799D02*
X28076560Y9605419D01*
X27836180Y10137562D02*
X27836180Y9845799D01*
X26296180Y10330800D02*
X26111180Y10515800D01*
X27544417Y10137562D02*
X27351179Y10330800D01*
X27351179Y10330800D02*
X26296180Y10330800D01*
%TO.N,/l-blue*%
X14285090Y137577790D02*
X14217090Y137577790D01*
X16216590Y139509290D02*
X14285090Y137577790D01*
%TO.N,/green*%
X14190990Y67506676D02*
X18740990Y72056676D01*
X16040890Y86611090D02*
X17310990Y85340990D01*
X14190990Y61101662D02*
X14190990Y67506676D01*
X17310990Y76139233D02*
X17310990Y85340990D01*
X18740990Y72056676D02*
X18740990Y74709233D01*
X15721366Y59854129D02*
X15438523Y59854129D01*
X15112990Y144402590D02*
X15112990Y147850990D01*
X16040890Y95195490D02*
X16040890Y86611090D01*
X18132790Y141382790D02*
X16340990Y143174590D01*
X16340990Y143174590D02*
X15112990Y144402590D01*
X15438523Y59854129D02*
X14190990Y61101662D01*
X18740990Y74709233D02*
X17310990Y76139233D01*
%TO.N,/beige*%
X13818590Y133742190D02*
X16340990Y136264590D01*
X15321390Y36202686D02*
X15964058Y35560018D01*
X15140890Y164083990D02*
X15140890Y151061190D01*
X16357518Y70804576D02*
X16357518Y71160990D01*
X15343690Y164286790D02*
X15140890Y164083990D01*
X13978590Y147579390D02*
X13978590Y142703190D01*
X15321390Y54170990D02*
X14923590Y53773190D01*
X16876690Y137876690D02*
X16340990Y137340990D01*
X16340990Y136264590D02*
X16340990Y137340990D01*
X15290190Y148890990D02*
X13978590Y147579390D01*
X16414390Y149787690D02*
X16414390Y149270690D01*
X15467890Y57190990D02*
X15467890Y58693390D01*
X15398490Y148898490D02*
X15390990Y148890990D01*
X14541725Y115390255D02*
X14541725Y102390255D01*
X15039190Y77279661D02*
X17940990Y74377861D01*
X15039190Y100789190D02*
X15039190Y77279661D01*
X14541725Y102390255D02*
X15590990Y101340990D01*
X16042190Y148898490D02*
X15398490Y148898490D01*
X16713932Y71160990D02*
X16357518Y71160990D01*
X15590990Y101340990D02*
X15039190Y100789190D01*
X13390990Y60770290D02*
X13390990Y67838048D01*
X15140890Y151061190D02*
X16414390Y149787690D01*
X14923590Y53773190D02*
X14923590Y44458390D01*
X15467890Y58693390D02*
X13390990Y60770290D01*
X15321390Y44060590D02*
X15321390Y36202686D01*
X15321390Y57044490D02*
X15321390Y54170990D01*
X17940990Y74377861D02*
X17940990Y72388048D01*
X13978590Y142703190D02*
X16876690Y139805090D01*
X16876690Y139805090D02*
X16876690Y137876690D01*
X14923590Y44458390D02*
X15321390Y44060590D01*
X15390990Y148890990D02*
X15290190Y148890990D01*
X16414390Y149270690D02*
X16042190Y148898490D01*
X13390990Y67838048D02*
X16357518Y70804576D01*
X15467890Y57190990D02*
X15321390Y57044490D01*
X17940990Y72388048D02*
X16713932Y71160990D01*
%TO.N,/red*%
X18340990Y72222362D02*
X13790990Y67672362D01*
X17723290Y113222790D02*
X17441090Y113504990D01*
X18340990Y74543547D02*
X18340990Y72222362D01*
X16090990Y58635976D02*
X16090990Y55487990D01*
X19205990Y35571751D02*
X15590990Y31956751D01*
X16340990Y77674919D02*
X16426390Y77589519D01*
X18825229Y36490990D02*
X19205990Y36110229D01*
X16090990Y55238790D02*
X16090990Y54372590D01*
X19205990Y36110229D02*
X19205990Y35571751D01*
X15726990Y44220676D02*
X15726990Y38854990D01*
X15726990Y38854990D02*
X18090990Y36490990D01*
X17441090Y123940790D02*
X16040890Y125340990D01*
X13790990Y67672362D02*
X13790990Y60935976D01*
X17441090Y113504990D02*
X17441090Y123940790D01*
X13790990Y60935976D02*
X16090990Y58635976D01*
X15590990Y31956751D02*
X15590990Y29340990D01*
X15323833Y44623833D02*
X15726990Y44220676D01*
X16340990Y85340990D02*
X16340990Y77674919D01*
X13840990Y29340990D02*
X16141190Y29340990D01*
X16090990Y54372590D02*
X15325290Y53606890D01*
X16141190Y29340990D02*
X16340990Y29340990D01*
X15325290Y53606890D02*
X15325290Y44625290D01*
X15325290Y44625290D02*
X15323833Y44623833D01*
X18090990Y36490990D02*
X18825229Y36490990D01*
X16426390Y77589519D02*
X16426390Y76458147D01*
X16426390Y76458147D02*
X18340990Y74543547D01*
%TO.N,/orange*%
X18323290Y113570819D02*
X17841090Y114053019D01*
X19132790Y144364876D02*
X19132790Y130275890D01*
X17841090Y125987190D02*
X16342590Y127485690D01*
X18135490Y102640990D02*
X18323290Y102828790D01*
X18323290Y102828790D02*
X18323290Y113570819D01*
X17841090Y114053019D02*
X17841090Y125987190D01*
X17214390Y146283276D02*
X19132790Y144364876D01*
X15785790Y152596719D02*
X17214390Y151168119D01*
X17340990Y55390990D02*
X17340990Y53902490D01*
X19132790Y130275890D02*
X16342590Y127485690D01*
X17214390Y151168119D02*
X17214390Y146283276D01*
X17340990Y53902490D02*
X16340990Y52902490D01*
X16340990Y52902490D02*
X16340990Y49340990D01*
X15785790Y157340990D02*
X15785790Y152596719D01*
%TO.N,/l-green*%
X16126990Y43668490D02*
X16126990Y44386362D01*
X16050390Y96080390D02*
X15439190Y95469190D01*
X15039190Y130042790D02*
X15039190Y122124190D01*
X18256676Y36890990D02*
X16390990Y38756676D01*
X15725290Y44788062D02*
X15725290Y53238690D01*
X14590990Y67340990D02*
X19140990Y71890990D01*
X16726390Y94310090D02*
X16726390Y95404290D01*
X16390990Y43404490D02*
X16126990Y43668490D01*
X13578590Y134350719D02*
X13218590Y133990719D01*
X19140990Y74874919D02*
X17910990Y76104919D01*
X15439190Y77728190D02*
X15826390Y77340990D01*
X18990915Y36890990D02*
X18256676Y36890990D01*
X15725290Y53238690D02*
X16740190Y54253590D01*
X16740190Y59683834D02*
X14590990Y61833034D01*
X14590990Y61833034D02*
X14590990Y67340990D01*
X13218590Y133990719D02*
X13218590Y131863390D01*
X19605990Y35406065D02*
X19605990Y36275915D01*
X17910990Y76104919D02*
X17910990Y93125490D01*
X16641090Y98010890D02*
X17310990Y97340990D01*
X15369690Y149538490D02*
X13578590Y147747390D01*
X13578590Y147747390D02*
X13578590Y134350719D01*
X17910990Y93125490D02*
X16726390Y94310090D01*
X15439190Y95469190D02*
X15439190Y77728190D01*
X16726390Y95404290D02*
X16050390Y96080390D01*
X16126990Y44386362D02*
X15725290Y44788062D01*
X17310990Y97340990D02*
X16050390Y96080390D01*
X16390990Y38756676D02*
X16390990Y43404490D01*
X15812690Y149538490D02*
X15369690Y149538490D01*
X15039190Y122124190D02*
X15445090Y121718290D01*
X13218590Y131863390D02*
X15039190Y130042790D01*
X16740190Y54253590D02*
X16740190Y59683834D01*
X19605990Y36275915D02*
X18990915Y36890990D01*
X16290990Y32091065D02*
X19605990Y35406065D01*
X19140990Y71890990D02*
X19140990Y74874919D01*
X16290990Y31390990D02*
X16290990Y32091065D01*
X16641090Y120522290D02*
X16641090Y98010890D01*
X15445090Y121718290D02*
X16641090Y120522290D01*
%TO.N,/cyan*%
X19540990Y71725304D02*
X19540990Y75040605D01*
X15439190Y122587490D02*
X16639390Y121387290D01*
X17328190Y95183590D02*
X17935690Y95791090D01*
X17041090Y120985590D02*
X16639390Y121387290D01*
X18732790Y133308790D02*
X15439190Y130015190D01*
X19540990Y75040605D02*
X18310990Y76270605D01*
X16333590Y151200390D02*
X16333590Y150434176D01*
X18310990Y94200790D02*
X17328190Y95183590D01*
X18732790Y144199190D02*
X18732790Y133308790D01*
X16333590Y150434176D02*
X16814390Y149953376D01*
X18910990Y71095304D02*
X19540990Y71725304D01*
X17935690Y97823190D02*
X17041090Y98717790D01*
X16814390Y146117590D02*
X18732790Y144199190D01*
X18910990Y49168890D02*
X18910990Y71095304D01*
X17935690Y95791090D02*
X17935690Y97823190D01*
X15439190Y130015190D02*
X15439190Y122587490D01*
X17240990Y47498890D02*
X18910990Y49168890D01*
X17240990Y47160989D02*
X17240990Y47498890D01*
X17041090Y98717790D02*
X17041090Y120985590D01*
X18310990Y76270605D02*
X18310990Y94200790D01*
X16814390Y149953376D02*
X16814390Y146117590D01*
%TO.N,D-*%
X26981180Y8845800D02*
X25086180Y8845800D01*
X27086180Y8740800D02*
X26981180Y8845800D01*
D25*
X18490990Y31709619D02*
X18490990Y12430940D01*
X22731676Y35950304D02*
X22731675Y35950304D01*
D24*
X27086180Y7970800D02*
X27086180Y8740800D01*
D25*
X22026130Y8895800D02*
X25086180Y8895800D01*
X18490990Y12430940D02*
X22026130Y8895800D01*
D24*
X26961180Y7845800D02*
X27086180Y7970800D01*
X26111180Y7845800D02*
X26961180Y7845800D01*
D25*
X22731675Y35950304D02*
X18490990Y31709619D01*
%TO.N,D+*%
X21740990Y35949569D02*
X17790990Y31999569D01*
D24*
X25241180Y7345800D02*
X26111180Y7345800D01*
X26111180Y8345800D02*
X25241180Y8345800D01*
D25*
X21840990Y8090990D02*
X25041180Y8090990D01*
X21740990Y36090990D02*
X21740990Y35949569D01*
D24*
X25241180Y8345800D02*
X25191180Y8295800D01*
D25*
X17790990Y12140990D02*
X21840990Y8090990D01*
X17790990Y31999569D02*
X17790990Y12140990D01*
D24*
X25191180Y8295800D02*
X25191180Y7845800D01*
X25191180Y7395800D02*
X25241180Y7345800D01*
X25191180Y7845800D02*
X25191180Y7395800D01*
%TO.N,IO21*%
X19310990Y70929618D02*
X19940990Y71559618D01*
X18710990Y102367961D02*
X18735490Y102392461D01*
X19940990Y75206291D02*
X18710990Y76436291D01*
X19940990Y71559618D02*
X19940990Y75206291D01*
X18710990Y76436291D02*
X18710990Y102367961D01*
X22490990Y44190990D02*
X22490990Y43042460D01*
X28640990Y38440990D02*
X29570990Y39370990D01*
X18735490Y115096590D02*
X18491090Y115340990D01*
X19310990Y45670990D02*
X19310990Y70929618D01*
X22490990Y43042460D02*
X26616725Y38916725D01*
X29570990Y45740990D02*
X32090990Y48260990D01*
X29570990Y39370990D02*
X29570990Y45740990D01*
X18735490Y102392461D02*
X18735490Y115096590D01*
X20290990Y44690990D02*
X19310990Y45670990D01*
X27092460Y38440990D02*
X28640990Y38440990D01*
X26616725Y38916725D02*
X27092460Y38440990D01*
%TO.N,IO20*%
X23381676Y34981676D02*
X23381676Y36219543D01*
X20005990Y35240379D02*
X16890990Y32125379D01*
X17590990Y38122362D02*
X18422362Y37290990D01*
X16940990Y29589519D02*
X16940990Y29092461D01*
X20581370Y35850610D02*
X20005990Y35275229D01*
X23381676Y36219543D02*
X22860229Y36740990D01*
X19156601Y37290990D02*
X20581370Y35866221D01*
X22590990Y34190990D02*
X23381676Y34981676D01*
X20005990Y35275229D02*
X20005990Y35240379D01*
X20581370Y35866221D02*
X20581370Y35850610D01*
X20582411Y40182411D02*
X18682411Y40182411D01*
X16090990Y28242461D02*
X16090990Y8090990D01*
X17590990Y39090990D02*
X17590990Y38122362D01*
X16090990Y8090990D02*
X15340990Y7340990D01*
X16940990Y29092461D02*
X16090990Y28242461D01*
X22860229Y36740990D02*
X21471751Y36740990D01*
X18422362Y37290990D02*
X19156601Y37290990D01*
X16890990Y32125379D02*
X16890990Y29639519D01*
X18682411Y40182411D02*
X17590990Y39090990D01*
X21471751Y36740990D02*
X20581370Y35850610D01*
X16890990Y29639519D02*
X16940990Y29589519D01*
%TO.N,IO9*%
X29970990Y36840990D02*
X29970990Y41060990D01*
X29590990Y35440990D02*
X29970990Y35820990D01*
X15290990Y15290990D02*
X14740990Y14740990D01*
X33940990Y5294239D02*
X33940990Y34340990D01*
X18671751Y1590990D02*
X30237741Y1590990D01*
X14740990Y14740990D02*
X14740990Y5521751D01*
X33940990Y34340990D02*
X31190990Y37090990D01*
X14740990Y5521751D02*
X18671751Y1590990D01*
X29970990Y35820990D02*
X29970990Y36840990D01*
X31190990Y37090990D02*
X29970990Y37090990D01*
X30237741Y1590990D02*
X33940990Y5294239D01*
X29970990Y41060990D02*
X32090990Y43180990D01*
%TO.N,IO2*%
X23340990Y53579468D02*
X19710990Y57209468D01*
X19110990Y76601977D02*
X19110990Y102202275D01*
X23340990Y52502512D02*
X23340990Y53579468D01*
X21290990Y42790990D02*
X21290990Y50452512D01*
X19135490Y115066151D02*
X19532790Y115463451D01*
X21290990Y50452512D02*
X23340990Y52502512D01*
X32190990Y33380684D02*
X30880684Y34690990D01*
X32190990Y29506676D02*
X32190990Y33380684D01*
X19710990Y70763932D02*
X20340990Y71393932D01*
X31271752Y28940991D02*
X31625305Y28940991D01*
X19532790Y146149190D02*
X18340990Y147340990D01*
X29390990Y34690990D02*
X21290990Y42790990D01*
X19532790Y115463451D02*
X19532790Y146149190D01*
X30880684Y34690990D02*
X29390990Y34690990D01*
X20340990Y75371977D02*
X19110990Y76601977D01*
X31625305Y28940991D02*
X32190990Y29506676D01*
X19710990Y57209468D02*
X19710990Y70763932D01*
X19110990Y102202275D02*
X19135490Y102226775D01*
X20340990Y71393932D02*
X20340990Y75371977D01*
X19135490Y102226775D02*
X19135490Y115066151D01*
%TO.N,Net-(U1-GPIO3{slash}ADC1_CH3)*%
X29425304Y34090990D02*
X20890990Y42625304D01*
X30039613Y34090990D02*
X29425304Y34090990D01*
X20890990Y42625304D02*
X20890990Y51890990D01*
X20890990Y51890990D02*
X22040990Y53040990D01*
X31540990Y30240990D02*
X31540990Y32589613D01*
X31540990Y32589613D02*
X30039613Y34090990D01*
%TO.N,IO4*%
X28578489Y30944740D02*
X28159618Y31363611D01*
X28159618Y31363611D02*
X28159618Y33659618D01*
X28159618Y33659618D02*
X23228246Y38590990D01*
X23228246Y38590990D02*
X18810990Y38590990D01*
%TO.N,IO5*%
X28559618Y33825304D02*
X28559618Y32119487D01*
X15814609Y63582773D02*
X15814609Y63096627D01*
X16590990Y47414576D02*
X16590990Y45793932D01*
X28559618Y32119487D02*
X29481527Y31197578D01*
X16590990Y45793932D02*
X28559618Y33825304D01*
X18510990Y49334576D02*
X16590990Y47414576D01*
X15814609Y63096627D02*
X18510990Y60400246D01*
X18510990Y60400246D02*
X18510990Y49334576D01*
%TO.N,IO6*%
X27359619Y28690991D02*
X28890991Y28690991D01*
X24240990Y19140990D02*
X25739245Y20639245D01*
X20490990Y19140990D02*
X24240990Y19140990D01*
X30940990Y32270374D02*
X29965300Y33246064D01*
X30940990Y30740990D02*
X30940990Y32270374D01*
X28890991Y28690991D02*
X30940990Y30740990D01*
X25739245Y27070617D02*
X27359619Y28690991D01*
X25739245Y20639245D02*
X25739245Y27070617D01*
X20390990Y19240990D02*
X20490990Y19140990D01*
%TO.N,IO7*%
X17005990Y34290990D02*
X13390990Y34290990D01*
X13390990Y34290990D02*
X12340990Y35340990D01*
X18555990Y35840990D02*
X17005990Y34290990D01*
%TO.N,IO8*%
X26139245Y15042735D02*
X28486180Y12695800D01*
X28486180Y3736180D02*
X27490990Y2740990D01*
X28486180Y12695800D02*
X28486180Y3736180D01*
X30646370Y35490990D02*
X32590990Y33546370D01*
X31540991Y28290991D02*
X27525305Y28290991D01*
X32590990Y29340990D02*
X31540991Y28290991D01*
X32590990Y33546370D02*
X32590990Y29340990D01*
X27490990Y2740990D02*
X21940990Y2740990D01*
X27525305Y28290991D02*
X26139245Y26904931D01*
X21940990Y2740990D02*
X18840990Y5840990D01*
X26139245Y26904931D02*
X26139245Y15042735D01*
%TO.N,IO10*%
X32990990Y34070990D02*
X32990990Y28990990D01*
X27690991Y27890991D02*
X26539245Y26739245D01*
X27656676Y2340990D02*
X18840990Y2340990D01*
X30620990Y36440990D02*
X32990990Y34070990D01*
X32990990Y28990990D02*
X31890991Y27890991D01*
X28886180Y12861486D02*
X28886180Y3570494D01*
X26539245Y15208421D02*
X28886180Y12861486D01*
X31890991Y27890991D02*
X27690991Y27890991D01*
X28886180Y3570494D02*
X27656676Y2340990D01*
X26539245Y26739245D02*
X26539245Y15208421D01*
%TO.N,/CC2*%
X26981180Y6345800D02*
X26111180Y6345800D01*
X27391998Y6756618D02*
X26981180Y6345800D01*
X27391998Y7110172D02*
X27391998Y6756618D01*
%TO.N,/CC1*%
X27416940Y9345800D02*
X26111180Y9345800D01*
X27426560Y9336180D02*
X27416940Y9345800D01*
D26*
%TO.N,VBAT*%
X15090990Y73340990D02*
X12340990Y76090990D01*
X17340990Y73340990D02*
X15090990Y73340990D01*
X12340990Y76090990D02*
X9840990Y76090990D01*
D24*
%TO.N,VCC*%
X32190990Y23990990D02*
X27490990Y23990990D01*
X33090990Y25790990D02*
X33090990Y24890990D01*
X33090990Y24890990D02*
X32190990Y23990990D01*
%TD*%
%TA.AperFunction,Conductor*%
%TO.N,GND*%
G36*
X32094224Y190040279D02*
G01*
X32338979Y190024237D01*
X32351807Y190022548D01*
X32589207Y189975326D01*
X32601696Y189971979D01*
X32830891Y189894178D01*
X32842847Y189889225D01*
X33059923Y189782175D01*
X33071138Y189775700D01*
X33272376Y189641236D01*
X33282642Y189633360D01*
X33464626Y189473765D01*
X33473764Y189464627D01*
X33633357Y189282645D01*
X33641235Y189272377D01*
X33775699Y189071139D01*
X33782174Y189059924D01*
X33889224Y188842848D01*
X33894180Y188830883D01*
X33971975Y188601706D01*
X33975327Y188589198D01*
X34022546Y188351813D01*
X34024236Y188338974D01*
X34040278Y188094225D01*
X34040490Y188087750D01*
X34040490Y34905469D01*
X34021583Y34847278D01*
X33972083Y34811314D01*
X33910897Y34811314D01*
X33871486Y34835465D01*
X32627526Y36079425D01*
X31375501Y37331450D01*
X31375498Y37331452D01*
X31306982Y37371010D01*
X31306978Y37371012D01*
X31230554Y37391490D01*
X31230552Y37391490D01*
X30370490Y37391490D01*
X30312299Y37410397D01*
X30276335Y37459897D01*
X30271490Y37490490D01*
X30271490Y40640994D01*
X30935407Y40640994D01*
X30935407Y40640987D01*
X30955688Y40435061D01*
X30955689Y40435056D01*
X31015758Y40237036D01*
X31113306Y40054538D01*
X31125275Y40039954D01*
X31244580Y39894580D01*
X31244585Y39894576D01*
X31404537Y39763307D01*
X31404538Y39763307D01*
X31404540Y39763305D01*
X31587036Y39665758D01*
X31724987Y39623912D01*
X31785055Y39605690D01*
X31785060Y39605689D01*
X31990987Y39585407D01*
X31990990Y39585407D01*
X31990993Y39585407D01*
X32196919Y39605689D01*
X32196924Y39605690D01*
X32394944Y39665758D01*
X32577440Y39763305D01*
X32737400Y39894580D01*
X32868675Y40054540D01*
X32966222Y40237036D01*
X33026290Y40435056D01*
X33026291Y40435061D01*
X33046573Y40640987D01*
X33046573Y40640994D01*
X33026291Y40846920D01*
X33026290Y40846925D01*
X32990316Y40965516D01*
X32966222Y41044944D01*
X32868675Y41227440D01*
X32737400Y41387400D01*
X32663109Y41448369D01*
X32577442Y41518674D01*
X32394944Y41616222D01*
X32196924Y41676291D01*
X32196919Y41676292D01*
X31990993Y41696573D01*
X31990987Y41696573D01*
X31785060Y41676292D01*
X31785055Y41676291D01*
X31587035Y41616222D01*
X31404537Y41518674D01*
X31244585Y41387405D01*
X31244575Y41387395D01*
X31113306Y41227443D01*
X31015758Y41044945D01*
X30955689Y40846925D01*
X30955688Y40846920D01*
X30935407Y40640994D01*
X30271490Y40640994D01*
X30271490Y40895512D01*
X30290397Y40953703D01*
X30300480Y40965510D01*
X31509549Y42174580D01*
X31564064Y42202355D01*
X31608289Y42199311D01*
X31785055Y42145690D01*
X31785060Y42145689D01*
X31990987Y42125407D01*
X31990990Y42125407D01*
X31990993Y42125407D01*
X32196919Y42145689D01*
X32196924Y42145690D01*
X32394944Y42205758D01*
X32577440Y42303305D01*
X32737400Y42434580D01*
X32868675Y42594540D01*
X32966222Y42777036D01*
X33026290Y42975056D01*
X33026291Y42975061D01*
X33046573Y43180987D01*
X33046573Y43180994D01*
X33026291Y43386920D01*
X33026290Y43386925D01*
X32975827Y43553279D01*
X32966222Y43584944D01*
X32868675Y43767440D01*
X32840533Y43801731D01*
X32737404Y43927395D01*
X32737400Y43927400D01*
X32720843Y43940988D01*
X32577442Y44058674D01*
X32394944Y44156222D01*
X32196924Y44216291D01*
X32196919Y44216292D01*
X31990993Y44236573D01*
X31990987Y44236573D01*
X31785060Y44216292D01*
X31785055Y44216291D01*
X31587035Y44156222D01*
X31404537Y44058674D01*
X31244585Y43927405D01*
X31244575Y43927395D01*
X31113306Y43767443D01*
X31015758Y43584945D01*
X30955689Y43386925D01*
X30955688Y43386920D01*
X30935407Y43180994D01*
X30935407Y43180987D01*
X30955688Y42975061D01*
X30955689Y42975056D01*
X31013315Y42785089D01*
X31015758Y42777036D01*
X31066941Y42681279D01*
X31077697Y42621048D01*
X31050996Y42565997D01*
X31049635Y42564608D01*
X30040494Y41555466D01*
X29985977Y41527689D01*
X29925545Y41537260D01*
X29882280Y41580525D01*
X29871490Y41625470D01*
X29871490Y45575512D01*
X29890397Y45633703D01*
X29900480Y45645510D01*
X29975964Y45720994D01*
X30935407Y45720994D01*
X30935407Y45720987D01*
X30955688Y45515061D01*
X30955689Y45515056D01*
X31015758Y45317036D01*
X31113306Y45134538D01*
X31147018Y45093460D01*
X31244580Y44974580D01*
X31244585Y44974576D01*
X31404537Y44843307D01*
X31404538Y44843307D01*
X31404540Y44843305D01*
X31587036Y44745758D01*
X31696757Y44712475D01*
X31785055Y44685690D01*
X31785060Y44685689D01*
X31990987Y44665407D01*
X31990990Y44665407D01*
X31990993Y44665407D01*
X32196919Y44685689D01*
X32196924Y44685690D01*
X32216044Y44691490D01*
X32394944Y44745758D01*
X32577440Y44843305D01*
X32737400Y44974580D01*
X32868675Y45134540D01*
X32966222Y45317036D01*
X33026290Y45515056D01*
X33026291Y45515061D01*
X33046573Y45720987D01*
X33046573Y45720994D01*
X33026291Y45926920D01*
X33026290Y45926925D01*
X33008068Y45986993D01*
X32966222Y46124944D01*
X32868675Y46307440D01*
X32737400Y46467400D01*
X32737394Y46467405D01*
X32577442Y46598674D01*
X32394944Y46696222D01*
X32196924Y46756291D01*
X32196919Y46756292D01*
X31990993Y46776573D01*
X31990987Y46776573D01*
X31785060Y46756292D01*
X31785055Y46756291D01*
X31587035Y46696222D01*
X31404537Y46598674D01*
X31244585Y46467405D01*
X31244575Y46467395D01*
X31113306Y46307443D01*
X31015758Y46124945D01*
X30955689Y45926925D01*
X30955688Y45926920D01*
X30935407Y45720994D01*
X29975964Y45720994D01*
X31509549Y47254580D01*
X31564064Y47282355D01*
X31608289Y47279311D01*
X31785055Y47225690D01*
X31785060Y47225689D01*
X31990987Y47205407D01*
X31990990Y47205407D01*
X31990993Y47205407D01*
X32196919Y47225689D01*
X32196924Y47225690D01*
X32394944Y47285758D01*
X32577440Y47383305D01*
X32737400Y47514580D01*
X32868675Y47674540D01*
X32966222Y47857036D01*
X33026290Y48055056D01*
X33026291Y48055061D01*
X33046573Y48260987D01*
X33046573Y48260994D01*
X33026291Y48466920D01*
X33026290Y48466925D01*
X32970950Y48649357D01*
X32966222Y48664944D01*
X32868675Y48847440D01*
X32847027Y48873818D01*
X32737404Y49007395D01*
X32737400Y49007400D01*
X32664023Y49067619D01*
X32577442Y49138674D01*
X32394944Y49236222D01*
X32196924Y49296291D01*
X32196919Y49296292D01*
X31990993Y49316573D01*
X31990987Y49316573D01*
X31785060Y49296292D01*
X31785055Y49296291D01*
X31587035Y49236222D01*
X31404537Y49138674D01*
X31244585Y49007405D01*
X31244575Y49007395D01*
X31113306Y48847443D01*
X31015758Y48664945D01*
X30955689Y48466925D01*
X30955688Y48466920D01*
X30935407Y48260994D01*
X30935407Y48260987D01*
X30955688Y48055061D01*
X30955689Y48055056D01*
X31015758Y47857036D01*
X31066941Y47761279D01*
X31077697Y47701048D01*
X31050996Y47645997D01*
X31049635Y47644608D01*
X29386479Y45981450D01*
X29386478Y45981451D01*
X29330530Y45925502D01*
X29326226Y45918046D01*
X29280755Y45877105D01*
X29219905Y45870711D01*
X29166918Y45901304D01*
X29142032Y45957200D01*
X29141490Y45967547D01*
X29141490Y47385512D01*
X29160397Y47443703D01*
X29170480Y47455510D01*
X31509549Y49794580D01*
X31564064Y49822355D01*
X31608289Y49819311D01*
X31785055Y49765690D01*
X31785060Y49765689D01*
X31990987Y49745407D01*
X31990990Y49745407D01*
X31990993Y49745407D01*
X32196919Y49765689D01*
X32196924Y49765690D01*
X32219324Y49772485D01*
X32394944Y49825758D01*
X32577440Y49923305D01*
X32737400Y50054580D01*
X32868675Y50214540D01*
X32966222Y50397036D01*
X33026290Y50595056D01*
X33026291Y50595061D01*
X33046573Y50800987D01*
X33046573Y50800994D01*
X33026291Y51006920D01*
X33026290Y51006925D01*
X33008068Y51066993D01*
X32966222Y51204944D01*
X32868675Y51387440D01*
X32737400Y51547400D01*
X32737394Y51547405D01*
X32577442Y51678674D01*
X32394944Y51776222D01*
X32196924Y51836291D01*
X32196919Y51836292D01*
X31990993Y51856573D01*
X31990987Y51856573D01*
X31785060Y51836292D01*
X31785055Y51836291D01*
X31587035Y51776222D01*
X31404537Y51678674D01*
X31244585Y51547405D01*
X31244575Y51547395D01*
X31113306Y51387443D01*
X31015758Y51204945D01*
X30955689Y51006925D01*
X30955688Y51006920D01*
X30935407Y50800994D01*
X30935407Y50800987D01*
X30955688Y50595061D01*
X30955689Y50595056D01*
X31015758Y50397036D01*
X31066941Y50301279D01*
X31077697Y50241048D01*
X31050996Y50185997D01*
X31049635Y50184608D01*
X28656479Y47791450D01*
X28656478Y47791451D01*
X28600529Y47735501D01*
X28560970Y47666983D01*
X28560968Y47666979D01*
X28540490Y47590555D01*
X28540490Y43294885D01*
X28521583Y43236694D01*
X28514248Y43228701D01*
X28514499Y43228484D01*
X28509862Y43223134D01*
X28509862Y43223133D01*
X28483277Y43192452D01*
X28415612Y43114362D01*
X28355824Y42983447D01*
X28335343Y42840993D01*
X28335343Y42840988D01*
X28355824Y42698534D01*
X28415612Y42567619D01*
X28415613Y42567617D01*
X28509862Y42458847D01*
X28509863Y42458846D01*
X28630932Y42381040D01*
X28630937Y42381037D01*
X28737393Y42349779D01*
X28769025Y42340491D01*
X28769026Y42340491D01*
X28769029Y42340490D01*
X28769031Y42340490D01*
X28912949Y42340490D01*
X28912951Y42340490D01*
X29051043Y42381037D01*
X29117969Y42424048D01*
X29177141Y42439602D01*
X29234158Y42417404D01*
X29267237Y42365931D01*
X29270490Y42340763D01*
X29270490Y39806640D01*
X29251583Y39748449D01*
X29202083Y39712485D01*
X29140897Y39712485D01*
X29092948Y39746372D01*
X29064373Y39783612D01*
X28949377Y39871852D01*
X28949373Y39871854D01*
X28815461Y39927321D01*
X28815460Y39927322D01*
X28671752Y39946241D01*
X28528043Y39927322D01*
X28528042Y39927321D01*
X28394130Y39871854D01*
X28394126Y39871852D01*
X28279133Y39783614D01*
X28279129Y39783610D01*
X28190891Y39668617D01*
X28190889Y39668613D01*
X28135422Y39534701D01*
X28135421Y39534700D01*
X28116502Y39390992D01*
X28116502Y39390990D01*
X28125285Y39324272D01*
X28114135Y39264112D01*
X28097137Y39241348D01*
X28026275Y39170486D01*
X27971761Y39142709D01*
X27956273Y39141490D01*
X27706469Y39141490D01*
X27648278Y39160397D01*
X27636465Y39170486D01*
X25490718Y41316233D01*
X25462941Y41370750D01*
X25472512Y41431182D01*
X25482180Y41446505D01*
X25483609Y41448368D01*
X25483611Y41448369D01*
X25571851Y41563365D01*
X25627320Y41697281D01*
X25646240Y41840990D01*
X25627320Y41984699D01*
X25571851Y42118615D01*
X25483611Y42233611D01*
X25368615Y42321851D01*
X25368611Y42321853D01*
X25234699Y42377320D01*
X25234698Y42377321D01*
X25090990Y42396240D01*
X24947281Y42377321D01*
X24947280Y42377320D01*
X24813368Y42321853D01*
X24813364Y42321851D01*
X24698371Y42233613D01*
X24698367Y42233609D01*
X24610129Y42118616D01*
X24610127Y42118612D01*
X24554660Y41984700D01*
X24554659Y41984699D01*
X24535740Y41840991D01*
X24535740Y41840990D01*
X24554660Y41697281D01*
X24571746Y41656031D01*
X24576545Y41595036D01*
X24544575Y41542867D01*
X24488047Y41519453D01*
X24428553Y41533737D01*
X24410277Y41548144D01*
X22820486Y43137935D01*
X22792709Y43192452D01*
X22791490Y43207939D01*
X22791490Y43737097D01*
X22810397Y43795288D01*
X22817731Y43803279D01*
X22817481Y43803496D01*
X22822118Y43808847D01*
X22916367Y43917617D01*
X22976155Y44048533D01*
X22996565Y44190490D01*
X22996637Y44190988D01*
X22996637Y44190993D01*
X22976155Y44333447D01*
X22933922Y44425923D01*
X22916367Y44464363D01*
X22822118Y44573133D01*
X22822117Y44573134D01*
X22822116Y44573135D01*
X22701047Y44650941D01*
X22701044Y44650943D01*
X22701043Y44650943D01*
X22701040Y44650944D01*
X22562954Y44691490D01*
X22562951Y44691490D01*
X22419029Y44691490D01*
X22419025Y44691490D01*
X22280939Y44650944D01*
X22280932Y44650941D01*
X22159863Y44573135D01*
X22065612Y44464362D01*
X22005824Y44333447D01*
X21985343Y44190993D01*
X21985343Y44190988D01*
X22005824Y44048534D01*
X22044257Y43964380D01*
X22065613Y43917617D01*
X22135785Y43836633D01*
X22164499Y43803496D01*
X22162461Y43801731D01*
X22187915Y43759532D01*
X22190490Y43737097D01*
X22190490Y43002896D01*
X22210966Y42926479D01*
X22210968Y42926475D01*
X22210969Y42926471D01*
X22210970Y42926470D01*
X22223178Y42905324D01*
X22223179Y42905324D01*
X22250530Y42857949D01*
X24171960Y40936519D01*
X26086178Y39022301D01*
X26113955Y38967784D01*
X26114167Y38938210D01*
X26111078Y38916723D01*
X26131559Y38774269D01*
X26191347Y38643354D01*
X26191348Y38643352D01*
X26236719Y38590991D01*
X26285598Y38534581D01*
X26397037Y38462964D01*
X26406672Y38456772D01*
X26508067Y38427000D01*
X26544760Y38416226D01*
X26544761Y38416226D01*
X26544764Y38416225D01*
X26544766Y38416225D01*
X26651246Y38416225D01*
X26709437Y38397318D01*
X26721250Y38387229D01*
X26852000Y38256479D01*
X26851999Y38256479D01*
X26907949Y38200530D01*
X26976467Y38160971D01*
X26976471Y38160969D01*
X27052895Y38140491D01*
X27052897Y38140490D01*
X27052898Y38140490D01*
X28680553Y38140490D01*
X28680553Y38140491D01*
X28756979Y38160969D01*
X28825501Y38200530D01*
X28881450Y38256479D01*
X29501486Y38876515D01*
X29556003Y38904292D01*
X29616435Y38894721D01*
X29659700Y38851456D01*
X29670490Y38806511D01*
X29670490Y36093528D01*
X29651583Y36035337D01*
X29602083Y35999373D01*
X29584413Y35995375D01*
X29447281Y35977320D01*
X29447280Y35977320D01*
X29313368Y35921853D01*
X29313364Y35921851D01*
X29198371Y35833613D01*
X29198367Y35833609D01*
X29110129Y35718616D01*
X29110128Y35718615D01*
X29072578Y35627959D01*
X29032841Y35581434D01*
X28973346Y35567150D01*
X28916818Y35590565D01*
X28911110Y35595841D01*
X21620486Y42886465D01*
X21592709Y42940982D01*
X21591490Y42956469D01*
X21591490Y50287034D01*
X21610397Y50345225D01*
X21620480Y50357032D01*
X23581450Y52318001D01*
X23614881Y52375906D01*
X23621011Y52386523D01*
X23641490Y52462950D01*
X23641490Y53040990D01*
X25335849Y53040990D01*
X25356369Y52819545D01*
X25417229Y52605643D01*
X25516356Y52406569D01*
X25516365Y52406554D01*
X25623397Y52264822D01*
X26086596Y52728022D01*
X26100880Y52703282D01*
X26203282Y52600880D01*
X26228018Y52586599D01*
X25765534Y52124116D01*
X25765535Y52124114D01*
X25814726Y52079270D01*
X26003813Y51962193D01*
X26211190Y51881854D01*
X26429794Y51840990D01*
X26652186Y51840990D01*
X26870789Y51881854D01*
X27078166Y51962193D01*
X27267249Y52079268D01*
X27316443Y52124115D01*
X26853960Y52586598D01*
X26878698Y52600880D01*
X26981100Y52703282D01*
X26995382Y52728020D01*
X27458581Y52264821D01*
X27565614Y52406554D01*
X27565623Y52406569D01*
X27664750Y52605643D01*
X27725610Y52819545D01*
X27746130Y53040990D01*
X27725610Y53262436D01*
X27664750Y53476338D01*
X27565623Y53675412D01*
X27565614Y53675427D01*
X27458580Y53817161D01*
X26995381Y53353962D01*
X26981100Y53378698D01*
X26878698Y53481100D01*
X26853958Y53495383D01*
X27316443Y53957867D01*
X27316443Y53957868D01*
X27267253Y54002711D01*
X27078166Y54119788D01*
X26870789Y54200127D01*
X26814275Y54210691D01*
X30940990Y54210691D01*
X30940990Y53440991D01*
X30940991Y53440990D01*
X31500147Y53440990D01*
X31490990Y53406816D01*
X31490990Y53275164D01*
X31500147Y53240990D01*
X30940991Y53240990D01*
X30940990Y53240989D01*
X30940990Y52471290D01*
X30952593Y52412954D01*
X30996796Y52346801D01*
X30996800Y52346797D01*
X31062953Y52302594D01*
X31121289Y52290991D01*
X31121293Y52290990D01*
X31890989Y52290990D01*
X31890990Y52290991D01*
X31890990Y52850148D01*
X31925164Y52840990D01*
X32056816Y52840990D01*
X32090990Y52850148D01*
X32090990Y52290991D01*
X32090991Y52290990D01*
X32860687Y52290990D01*
X32860690Y52290991D01*
X32919026Y52302594D01*
X32985179Y52346797D01*
X32985183Y52346801D01*
X33029386Y52412954D01*
X33040989Y52471290D01*
X33040990Y52471293D01*
X33040990Y53240989D01*
X33040989Y53240990D01*
X32481833Y53240990D01*
X32490990Y53275164D01*
X32490990Y53406816D01*
X32481833Y53440990D01*
X33040989Y53440990D01*
X33040990Y53440991D01*
X33040990Y54210688D01*
X33040989Y54210691D01*
X33029386Y54269027D01*
X32985183Y54335180D01*
X32985179Y54335184D01*
X32919026Y54379387D01*
X32860690Y54390990D01*
X32090991Y54390990D01*
X32090990Y54390989D01*
X32090990Y53831833D01*
X32056816Y53840990D01*
X31925164Y53840990D01*
X31890990Y53831833D01*
X31890990Y54390989D01*
X31890989Y54390990D01*
X31121289Y54390990D01*
X31062953Y54379387D01*
X30996800Y54335184D01*
X30996796Y54335180D01*
X30952593Y54269027D01*
X30940990Y54210691D01*
X26814275Y54210691D01*
X26652186Y54240990D01*
X26429794Y54240990D01*
X26211190Y54200127D01*
X26003811Y54119788D01*
X26003806Y54119785D01*
X25814732Y54002715D01*
X25814729Y54002713D01*
X25765535Y53957867D01*
X26228019Y53495383D01*
X26203282Y53481100D01*
X26100880Y53378698D01*
X26086597Y53353961D01*
X25623399Y53817159D01*
X25516359Y53675417D01*
X25516354Y53675408D01*
X25417229Y53476338D01*
X25356369Y53262436D01*
X25335849Y53040990D01*
X23641490Y53040990D01*
X23641490Y53619030D01*
X23621011Y53695457D01*
X23594665Y53741089D01*
X23581450Y53763979D01*
X23525501Y53819929D01*
X23525501Y53819928D01*
X21464435Y55880994D01*
X30935407Y55880994D01*
X30935407Y55880987D01*
X30955688Y55675061D01*
X30955689Y55675056D01*
X31015758Y55477036D01*
X31113306Y55294538D01*
X31244575Y55134586D01*
X31244580Y55134580D01*
X31244585Y55134576D01*
X31404537Y55003307D01*
X31404538Y55003307D01*
X31404540Y55003305D01*
X31587036Y54905758D01*
X31724987Y54863912D01*
X31785055Y54845690D01*
X31785060Y54845689D01*
X31990987Y54825407D01*
X31990990Y54825407D01*
X31990993Y54825407D01*
X32196919Y54845689D01*
X32196924Y54845690D01*
X32394944Y54905758D01*
X32577440Y55003305D01*
X32737400Y55134580D01*
X32868675Y55294540D01*
X32966222Y55477036D01*
X33026290Y55675056D01*
X33026291Y55675061D01*
X33046573Y55880987D01*
X33046573Y55880994D01*
X33026291Y56086920D01*
X33026290Y56086925D01*
X33008068Y56146993D01*
X32966222Y56284944D01*
X32868675Y56467440D01*
X32737400Y56627400D01*
X32715968Y56644989D01*
X32577442Y56758674D01*
X32394944Y56856222D01*
X32196924Y56916291D01*
X32196919Y56916292D01*
X31990993Y56936573D01*
X31990987Y56936573D01*
X31785060Y56916292D01*
X31785055Y56916291D01*
X31587035Y56856222D01*
X31404537Y56758674D01*
X31244585Y56627405D01*
X31244575Y56627395D01*
X31113306Y56467443D01*
X31015758Y56284945D01*
X30955689Y56086925D01*
X30955688Y56086920D01*
X30935407Y55880994D01*
X21464435Y55880994D01*
X20040486Y57304943D01*
X20012709Y57359460D01*
X20011490Y57374947D01*
X20011490Y59540990D01*
X20835347Y59540990D01*
X20855875Y59319454D01*
X20916761Y59105462D01*
X21015932Y58906301D01*
X21150009Y58728754D01*
X21314428Y58578866D01*
X21503589Y58461743D01*
X21711050Y58381372D01*
X21929747Y58340490D01*
X22152233Y58340490D01*
X22370930Y58381372D01*
X22578391Y58461743D01*
X22767552Y58578866D01*
X22931971Y58728754D01*
X23066048Y58906301D01*
X23165219Y59105462D01*
X23226105Y59319454D01*
X23246633Y59540990D01*
X25335849Y59540990D01*
X25356369Y59319545D01*
X25417229Y59105643D01*
X25516356Y58906569D01*
X25516365Y58906554D01*
X25623397Y58764822D01*
X26086596Y59228022D01*
X26100880Y59203282D01*
X26203282Y59100880D01*
X26228018Y59086599D01*
X25765534Y58624116D01*
X25765535Y58624114D01*
X25814726Y58579270D01*
X26003813Y58462193D01*
X26211190Y58381854D01*
X26429794Y58340990D01*
X26652186Y58340990D01*
X26870789Y58381854D01*
X26971820Y58420994D01*
X30935407Y58420994D01*
X30935407Y58420987D01*
X30955688Y58215061D01*
X30955689Y58215056D01*
X31015758Y58017036D01*
X31113306Y57834538D01*
X31244575Y57674586D01*
X31244580Y57674580D01*
X31244585Y57674576D01*
X31404537Y57543307D01*
X31404538Y57543307D01*
X31404540Y57543305D01*
X31587036Y57445758D01*
X31724987Y57403912D01*
X31785055Y57385690D01*
X31785060Y57385689D01*
X31990987Y57365407D01*
X31990990Y57365407D01*
X31990993Y57365407D01*
X32196919Y57385689D01*
X32196924Y57385690D01*
X32394944Y57445758D01*
X32577440Y57543305D01*
X32737400Y57674580D01*
X32868675Y57834540D01*
X32966222Y58017036D01*
X33026290Y58215056D01*
X33026291Y58215061D01*
X33046573Y58420987D01*
X33046573Y58420994D01*
X33026291Y58626920D01*
X33026290Y58626925D01*
X33008068Y58686993D01*
X32966222Y58824944D01*
X32868675Y59007440D01*
X32737400Y59167400D01*
X32737394Y59167405D01*
X32577442Y59298674D01*
X32394944Y59396222D01*
X32196924Y59456291D01*
X32196919Y59456292D01*
X31990993Y59476573D01*
X31990987Y59476573D01*
X31785060Y59456292D01*
X31785055Y59456291D01*
X31587035Y59396222D01*
X31404537Y59298674D01*
X31244585Y59167405D01*
X31244575Y59167395D01*
X31113306Y59007443D01*
X31015758Y58824945D01*
X30955689Y58626925D01*
X30955688Y58626920D01*
X30935407Y58420994D01*
X26971820Y58420994D01*
X27078166Y58462193D01*
X27267249Y58579268D01*
X27316443Y58624115D01*
X26853960Y59086598D01*
X26878698Y59100880D01*
X26981100Y59203282D01*
X26995382Y59228020D01*
X27458581Y58764821D01*
X27565614Y58906554D01*
X27565623Y58906569D01*
X27664750Y59105643D01*
X27725610Y59319545D01*
X27746130Y59540990D01*
X27725610Y59762436D01*
X27664750Y59976338D01*
X27565623Y60175412D01*
X27565614Y60175427D01*
X27458580Y60317161D01*
X26995381Y59853962D01*
X26981100Y59878698D01*
X26878698Y59981100D01*
X26853958Y59995383D01*
X27316443Y60457867D01*
X27316443Y60457868D01*
X27267253Y60502711D01*
X27078166Y60619788D01*
X26870789Y60700127D01*
X26652186Y60740990D01*
X26429794Y60740990D01*
X26211190Y60700127D01*
X26003811Y60619788D01*
X26003806Y60619785D01*
X25814732Y60502715D01*
X25814729Y60502713D01*
X25765535Y60457867D01*
X26228019Y59995383D01*
X26203282Y59981100D01*
X26100880Y59878698D01*
X26086597Y59853961D01*
X25623399Y60317159D01*
X25516359Y60175417D01*
X25516354Y60175408D01*
X25417229Y59976338D01*
X25356369Y59762436D01*
X25335849Y59540990D01*
X23246633Y59540990D01*
X23226105Y59762526D01*
X23165219Y59976518D01*
X23066048Y60175679D01*
X22931971Y60353226D01*
X22767552Y60503114D01*
X22578391Y60620237D01*
X22370930Y60700608D01*
X22370929Y60700609D01*
X22370927Y60700609D01*
X22152233Y60741490D01*
X21929747Y60741490D01*
X21711052Y60700609D01*
X21709808Y60700127D01*
X21503589Y60620237D01*
X21314428Y60503114D01*
X21150010Y60353227D01*
X21015933Y60175681D01*
X21015928Y60175672D01*
X20916762Y59976521D01*
X20916761Y59976518D01*
X20855875Y59762526D01*
X20835347Y59540990D01*
X20011490Y59540990D01*
X20011490Y62640990D01*
X20835849Y62640990D01*
X20856369Y62419545D01*
X20917229Y62205643D01*
X21016356Y62006569D01*
X21016365Y62006554D01*
X21123397Y61864822D01*
X21586596Y62328022D01*
X21600880Y62303282D01*
X21703282Y62200880D01*
X21728018Y62186599D01*
X21265534Y61724116D01*
X21265535Y61724114D01*
X21314726Y61679270D01*
X21503813Y61562193D01*
X21711190Y61481854D01*
X21929794Y61440990D01*
X22152186Y61440990D01*
X22370789Y61481854D01*
X22578166Y61562193D01*
X22767249Y61679268D01*
X22816443Y61724115D01*
X22353960Y62186598D01*
X22378698Y62200880D01*
X22481100Y62303282D01*
X22495382Y62328020D01*
X22958581Y61864821D01*
X23065614Y62006554D01*
X23065623Y62006569D01*
X23164750Y62205643D01*
X23225610Y62419545D01*
X23246130Y62640990D01*
X25335347Y62640990D01*
X25355875Y62419454D01*
X25416761Y62205462D01*
X25515932Y62006301D01*
X25650009Y61828754D01*
X25814428Y61678866D01*
X26003589Y61561743D01*
X26211050Y61481372D01*
X26429747Y61440490D01*
X26652233Y61440490D01*
X26870930Y61481372D01*
X27078391Y61561743D01*
X27267552Y61678866D01*
X27431971Y61828754D01*
X27566048Y62006301D01*
X27665219Y62205462D01*
X27726105Y62419454D01*
X27746633Y62640990D01*
X27726105Y62862526D01*
X27665219Y63076518D01*
X27566048Y63275679D01*
X27431971Y63453226D01*
X27267552Y63603114D01*
X27078391Y63720237D01*
X26870930Y63800608D01*
X26870929Y63800609D01*
X26870927Y63800609D01*
X26652233Y63841490D01*
X26429747Y63841490D01*
X26211052Y63800609D01*
X26209808Y63800127D01*
X26003589Y63720237D01*
X25814428Y63603114D01*
X25650009Y63453226D01*
X25622774Y63417161D01*
X25515933Y63275681D01*
X25515928Y63275672D01*
X25416762Y63076521D01*
X25416761Y63076518D01*
X25355875Y62862526D01*
X25335347Y62640990D01*
X23246130Y62640990D01*
X23225610Y62862436D01*
X23164750Y63076338D01*
X23065623Y63275412D01*
X23065614Y63275427D01*
X22958580Y63417161D01*
X22495381Y62953962D01*
X22481100Y62978698D01*
X22378698Y63081100D01*
X22353958Y63095383D01*
X22816443Y63557867D01*
X22816443Y63557868D01*
X22767253Y63602711D01*
X22578166Y63719788D01*
X22370789Y63800127D01*
X22152186Y63840990D01*
X21929794Y63840990D01*
X21711190Y63800127D01*
X21503811Y63719788D01*
X21503806Y63719785D01*
X21314732Y63602715D01*
X21314729Y63602713D01*
X21265535Y63557867D01*
X21728019Y63095383D01*
X21703282Y63081100D01*
X21600880Y62978698D01*
X21586597Y62953961D01*
X21123399Y63417159D01*
X21016359Y63275417D01*
X21016354Y63275408D01*
X20917229Y63076338D01*
X20856369Y62862436D01*
X20835849Y62640990D01*
X20011490Y62640990D01*
X20011490Y69140990D01*
X20835849Y69140990D01*
X20856369Y68919545D01*
X20917229Y68705643D01*
X21016356Y68506569D01*
X21016365Y68506554D01*
X21123397Y68364822D01*
X21586596Y68828022D01*
X21600880Y68803282D01*
X21703282Y68700880D01*
X21728018Y68686599D01*
X21265534Y68224116D01*
X21265535Y68224114D01*
X21314726Y68179270D01*
X21503813Y68062193D01*
X21711190Y67981854D01*
X21929794Y67940990D01*
X22152186Y67940990D01*
X22370789Y67981854D01*
X22578166Y68062193D01*
X22767249Y68179268D01*
X22816443Y68224115D01*
X22353960Y68686598D01*
X22378698Y68700880D01*
X22481100Y68803282D01*
X22495382Y68828020D01*
X22958581Y68364821D01*
X23065614Y68506554D01*
X23065623Y68506569D01*
X23164750Y68705643D01*
X23225610Y68919545D01*
X23246130Y69140990D01*
X25335347Y69140990D01*
X25355875Y68919454D01*
X25416761Y68705462D01*
X25515932Y68506301D01*
X25650009Y68328754D01*
X25814428Y68178866D01*
X26003589Y68061743D01*
X26211050Y67981372D01*
X26429747Y67940490D01*
X26652233Y67940490D01*
X26870930Y67981372D01*
X27078391Y68061743D01*
X27267552Y68178866D01*
X27431971Y68328754D01*
X27566048Y68506301D01*
X27665219Y68705462D01*
X27726105Y68919454D01*
X27746633Y69140990D01*
X27726105Y69362526D01*
X27665219Y69576518D01*
X27566048Y69775679D01*
X27431971Y69953226D01*
X27267552Y70103114D01*
X27078391Y70220237D01*
X26870930Y70300608D01*
X26870929Y70300609D01*
X26870927Y70300609D01*
X26652233Y70341490D01*
X26429747Y70341490D01*
X26211052Y70300609D01*
X26209808Y70300127D01*
X26003589Y70220237D01*
X25814428Y70103114D01*
X25650010Y69953227D01*
X25515933Y69775681D01*
X25515928Y69775672D01*
X25416762Y69576521D01*
X25416761Y69576518D01*
X25355875Y69362526D01*
X25335347Y69140990D01*
X23246130Y69140990D01*
X23225610Y69362436D01*
X23164750Y69576338D01*
X23065623Y69775412D01*
X23065614Y69775427D01*
X22958580Y69917161D01*
X22495381Y69453962D01*
X22481100Y69478698D01*
X22378698Y69581100D01*
X22353958Y69595383D01*
X22816443Y70057867D01*
X22816443Y70057868D01*
X22767253Y70102711D01*
X22578166Y70219788D01*
X22370789Y70300127D01*
X22152186Y70340990D01*
X21929794Y70340990D01*
X21711190Y70300127D01*
X21503811Y70219788D01*
X21503806Y70219785D01*
X21314732Y70102715D01*
X21314729Y70102713D01*
X21265535Y70057867D01*
X21728019Y69595383D01*
X21703282Y69581100D01*
X21600880Y69478698D01*
X21586597Y69453961D01*
X21123399Y69917159D01*
X21016359Y69775417D01*
X21016354Y69775408D01*
X20917229Y69576338D01*
X20856369Y69362436D01*
X20835849Y69140990D01*
X20011490Y69140990D01*
X20011490Y70598454D01*
X20030397Y70656645D01*
X20040480Y70668452D01*
X20581450Y71209421D01*
X20621012Y71277944D01*
X20641490Y71354370D01*
X20641490Y71433494D01*
X20641490Y75411539D01*
X20632055Y75446751D01*
X20632055Y75446752D01*
X20632055Y75446753D01*
X20621011Y75487967D01*
X20621010Y75487969D01*
X20581453Y75556484D01*
X20581452Y75556485D01*
X20581451Y75556486D01*
X20581450Y75556488D01*
X19440486Y76697452D01*
X19412709Y76751969D01*
X19411490Y76767456D01*
X19411490Y97090997D01*
X26885554Y97090997D01*
X26885554Y97090984D01*
X26905279Y96764885D01*
X26964168Y96443540D01*
X26964168Y96443539D01*
X27061363Y96131628D01*
X27195447Y95833707D01*
X27364457Y95554131D01*
X27364459Y95554128D01*
X27364460Y95554127D01*
X27565942Y95296954D01*
X27796954Y95065942D01*
X28054127Y94864460D01*
X28333711Y94695445D01*
X28631629Y94561363D01*
X28943537Y94464169D01*
X29105104Y94434561D01*
X29264885Y94405280D01*
X29264882Y94405280D01*
X29590984Y94385554D01*
X29590990Y94385554D01*
X29590996Y94385554D01*
X29917095Y94405280D01*
X29997431Y94420003D01*
X30238443Y94464169D01*
X30550351Y94561363D01*
X30848269Y94695445D01*
X31127853Y94864460D01*
X31385026Y95065942D01*
X31616038Y95296954D01*
X31817520Y95554127D01*
X31986535Y95833711D01*
X32120617Y96131629D01*
X32217811Y96443537D01*
X32276700Y96764886D01*
X32283726Y96881037D01*
X32296426Y97090984D01*
X32296426Y97090997D01*
X32276700Y97417096D01*
X32217811Y97738441D01*
X32217811Y97738442D01*
X32190409Y97826379D01*
X32120617Y98050351D01*
X31986535Y98348269D01*
X31817520Y98627853D01*
X31616038Y98885026D01*
X31385026Y99116038D01*
X31127853Y99317520D01*
X31127852Y99317521D01*
X31127849Y99317523D01*
X30848273Y99486533D01*
X30550352Y99620617D01*
X30238440Y99717812D01*
X29917094Y99776701D01*
X29917097Y99776701D01*
X29590996Y99796426D01*
X29590984Y99796426D01*
X29264884Y99776701D01*
X28943539Y99717812D01*
X28943538Y99717812D01*
X28631627Y99620617D01*
X28333706Y99486533D01*
X28054130Y99317523D01*
X27796960Y99116043D01*
X27796957Y99116041D01*
X27565939Y98885023D01*
X27565937Y98885020D01*
X27364457Y98627850D01*
X27195447Y98348274D01*
X27061363Y98050353D01*
X26964168Y97738442D01*
X26964168Y97738441D01*
X26905279Y97417096D01*
X26885554Y97090997D01*
X19411490Y97090997D01*
X19411490Y102082746D01*
X19414864Y102108370D01*
X19428993Y102161102D01*
X19435990Y102187213D01*
X19435990Y114900673D01*
X19454897Y114958864D01*
X19464980Y114970671D01*
X19773250Y115278940D01*
X19789226Y115306611D01*
X19812811Y115347462D01*
X19833290Y115423889D01*
X19833290Y137090997D01*
X26885554Y137090997D01*
X26885554Y137090984D01*
X26905279Y136764885D01*
X26964168Y136443540D01*
X26964168Y136443539D01*
X27061363Y136131628D01*
X27195447Y135833707D01*
X27364457Y135554131D01*
X27364459Y135554128D01*
X27364460Y135554127D01*
X27565942Y135296954D01*
X27796954Y135065942D01*
X28054127Y134864460D01*
X28333711Y134695445D01*
X28631629Y134561363D01*
X28943537Y134464169D01*
X29157769Y134424910D01*
X29264885Y134405280D01*
X29264882Y134405280D01*
X29590984Y134385554D01*
X29590990Y134385554D01*
X29590996Y134385554D01*
X29917095Y134405280D01*
X30006832Y134421725D01*
X30238443Y134464169D01*
X30550351Y134561363D01*
X30848269Y134695445D01*
X31127853Y134864460D01*
X31385026Y135065942D01*
X31616038Y135296954D01*
X31817520Y135554127D01*
X31986535Y135833711D01*
X32120617Y136131629D01*
X32217811Y136443537D01*
X32276700Y136764886D01*
X32287242Y136939164D01*
X32296426Y137090984D01*
X32296426Y137090997D01*
X32276700Y137417096D01*
X32245221Y137588873D01*
X32217811Y137738443D01*
X32120617Y138050351D01*
X31986535Y138348269D01*
X31817520Y138627853D01*
X31616038Y138885026D01*
X31385026Y139116038D01*
X31127853Y139317520D01*
X31127852Y139317521D01*
X31127849Y139317523D01*
X30848273Y139486533D01*
X30845440Y139487808D01*
X30756694Y139527750D01*
X30550352Y139620617D01*
X30238440Y139717812D01*
X29917094Y139776701D01*
X29917097Y139776701D01*
X29590996Y139796426D01*
X29590984Y139796426D01*
X29264884Y139776701D01*
X28943539Y139717812D01*
X28943538Y139717812D01*
X28631627Y139620617D01*
X28333706Y139486533D01*
X28054130Y139317523D01*
X27796960Y139116043D01*
X27796957Y139116041D01*
X27565939Y138885023D01*
X27565937Y138885020D01*
X27364457Y138627850D01*
X27195447Y138348274D01*
X27061363Y138050353D01*
X26964168Y137738442D01*
X26964168Y137738441D01*
X26905279Y137417096D01*
X26885554Y137090997D01*
X19833290Y137090997D01*
X19833290Y146188752D01*
X19818563Y146243714D01*
X19818563Y146243715D01*
X19818563Y146243716D01*
X19812814Y146265173D01*
X19812813Y146265175D01*
X19812812Y146265176D01*
X19812812Y146265178D01*
X19773250Y146333701D01*
X18915602Y147191349D01*
X18887827Y147245863D01*
X18887455Y147274267D01*
X18896240Y147340990D01*
X18877320Y147484699D01*
X18821851Y147618615D01*
X18733611Y147733611D01*
X18618615Y147821851D01*
X18618611Y147821853D01*
X18484699Y147877320D01*
X18484698Y147877321D01*
X18340990Y147896240D01*
X18197281Y147877321D01*
X18197280Y147877320D01*
X18063368Y147821853D01*
X18063364Y147821851D01*
X17948371Y147733613D01*
X17948367Y147733609D01*
X17860129Y147618616D01*
X17860127Y147618612D01*
X17804660Y147484700D01*
X17804659Y147484699D01*
X17785740Y147340991D01*
X17785740Y147340990D01*
X17804659Y147197282D01*
X17804660Y147197281D01*
X17860129Y147063365D01*
X17948369Y146948369D01*
X18063365Y146860129D01*
X18197281Y146804660D01*
X18340990Y146785740D01*
X18407709Y146794525D01*
X18467866Y146783376D01*
X18490633Y146766376D01*
X19203294Y146053715D01*
X19231071Y145999198D01*
X19232290Y145983711D01*
X19232290Y144929355D01*
X19213383Y144871164D01*
X19163883Y144835200D01*
X19102697Y144835200D01*
X19063286Y144859351D01*
X17543886Y146378751D01*
X17516109Y146433268D01*
X17514890Y146448755D01*
X17514890Y151207682D01*
X17514889Y151207684D01*
X17494411Y151284108D01*
X17494409Y151284112D01*
X17454850Y151352630D01*
X17398901Y151408580D01*
X17398901Y151408579D01*
X16115286Y152692194D01*
X16087509Y152746711D01*
X16086290Y152762198D01*
X16086290Y156887097D01*
X16105197Y156945288D01*
X16112531Y156953279D01*
X16112281Y156953496D01*
X16130190Y156974164D01*
X16211167Y157067617D01*
X16270955Y157198533D01*
X16291437Y157340990D01*
X16270955Y157483447D01*
X16211167Y157614363D01*
X16116918Y157723133D01*
X16116917Y157723134D01*
X16116916Y157723135D01*
X15995847Y157800941D01*
X15995844Y157800943D01*
X15995843Y157800943D01*
X15992141Y157802030D01*
X15857754Y157841490D01*
X15857751Y157841490D01*
X15713829Y157841490D01*
X15713825Y157841490D01*
X15582850Y157803032D01*
X15575741Y157800944D01*
X15568943Y157798948D01*
X15568038Y157802030D01*
X15520690Y157796616D01*
X15467425Y157826724D01*
X15442031Y157882391D01*
X15441390Y157893636D01*
X15441390Y163719738D01*
X15460297Y163777929D01*
X15509797Y163813893D01*
X15512471Y163814719D01*
X15553743Y163826837D01*
X15674818Y163904647D01*
X15769067Y164013417D01*
X15828855Y164144333D01*
X15849337Y164286790D01*
X15828855Y164429247D01*
X15769067Y164560163D01*
X15674818Y164668933D01*
X15674817Y164668934D01*
X15674816Y164668935D01*
X15553747Y164746741D01*
X15553744Y164746743D01*
X15553743Y164746743D01*
X15553740Y164746744D01*
X15415654Y164787290D01*
X15415651Y164787290D01*
X15271729Y164787290D01*
X15271725Y164787290D01*
X15133639Y164746744D01*
X15133632Y164746741D01*
X15012563Y164668935D01*
X14918312Y164560162D01*
X14858524Y164429247D01*
X14838043Y164286793D01*
X14838043Y164286788D01*
X14851246Y164194955D01*
X14848881Y164155245D01*
X14840390Y164123555D01*
X14840390Y151021626D01*
X14860868Y150945202D01*
X14874353Y150921847D01*
X14879290Y150913295D01*
X14900430Y150876679D01*
X15317445Y150459664D01*
X15622928Y150154181D01*
X15650705Y150099664D01*
X15641134Y150039232D01*
X15606448Y150000893D01*
X15481563Y149920634D01*
X15481561Y149920632D01*
X15440426Y149873159D01*
X15388030Y149841563D01*
X15365607Y149838990D01*
X15330125Y149838990D01*
X15253701Y149818512D01*
X15253697Y149818510D01*
X15185181Y149778952D01*
X13394079Y147987850D01*
X13394078Y147987851D01*
X13338129Y147931901D01*
X13298570Y147863383D01*
X13298568Y147863379D01*
X13278090Y147786955D01*
X13278090Y134516198D01*
X13259183Y134458007D01*
X13249094Y134446194D01*
X13034079Y134231179D01*
X13034078Y134231180D01*
X12978129Y134175230D01*
X12938570Y134106712D01*
X12938568Y134106708D01*
X12918090Y134030284D01*
X12918090Y131823826D01*
X12938568Y131747402D01*
X12938570Y131747398D01*
X12978128Y131678882D01*
X12978130Y131678879D01*
X14709695Y129947314D01*
X14737471Y129892799D01*
X14738690Y129877312D01*
X14738690Y122084626D01*
X14759168Y122008202D01*
X14759170Y122008198D01*
X14798729Y121939680D01*
X14914543Y121823865D01*
X14942320Y121769349D01*
X14942532Y121739775D01*
X14939443Y121718288D01*
X14959924Y121575834D01*
X14980972Y121529747D01*
X15019713Y121444917D01*
X15042846Y121418220D01*
X15113963Y121336146D01*
X15235032Y121258340D01*
X15235037Y121258337D01*
X15341493Y121227079D01*
X15373125Y121217791D01*
X15373126Y121217791D01*
X15373129Y121217790D01*
X15373131Y121217790D01*
X15479611Y121217790D01*
X15537802Y121198883D01*
X15549615Y121188794D01*
X16311594Y120426815D01*
X16339371Y120372298D01*
X16340590Y120356811D01*
X16340590Y97971326D01*
X16361067Y97894905D01*
X16361071Y97894897D01*
X16379628Y97862753D01*
X16379629Y97862753D01*
X16400628Y97826381D01*
X16400630Y97826379D01*
X16780443Y97446565D01*
X16808220Y97392049D01*
X16808432Y97362475D01*
X16805343Y97340988D01*
X16805343Y97340987D01*
X16808431Y97319508D01*
X16797997Y97259219D01*
X16780443Y97235417D01*
X15865879Y96320851D01*
X15865879Y96320850D01*
X15837920Y96292892D01*
X15806505Y96261481D01*
X15806476Y96261449D01*
X15508694Y95963666D01*
X15454177Y95935888D01*
X15393745Y95945459D01*
X15350480Y95988724D01*
X15339690Y96033669D01*
X15339690Y100623713D01*
X15358597Y100681904D01*
X15368675Y100693705D01*
X15486465Y100811496D01*
X15540980Y100839271D01*
X15556467Y100840490D01*
X15662949Y100840490D01*
X15662951Y100840490D01*
X15801043Y100881037D01*
X15922118Y100958847D01*
X16016367Y101067617D01*
X16076155Y101198533D01*
X16096637Y101340990D01*
X16076155Y101483447D01*
X16016367Y101614363D01*
X15922118Y101723133D01*
X15922117Y101723134D01*
X15922116Y101723135D01*
X15801047Y101800941D01*
X15801044Y101800943D01*
X15801043Y101800943D01*
X15801040Y101800944D01*
X15662954Y101841490D01*
X15662951Y101841490D01*
X15556469Y101841490D01*
X15498278Y101860397D01*
X15486465Y101870486D01*
X14871221Y102485730D01*
X14843444Y102540247D01*
X14842225Y102555734D01*
X14842225Y114936362D01*
X14861132Y114994553D01*
X14868466Y115002544D01*
X14868216Y115002761D01*
X14872853Y115008112D01*
X14967102Y115116882D01*
X15026890Y115247798D01*
X15041219Y115347461D01*
X15047372Y115390253D01*
X15047372Y115390258D01*
X15026890Y115532712D01*
X14967102Y115663628D01*
X14872853Y115772398D01*
X14872852Y115772399D01*
X14872851Y115772400D01*
X14751782Y115850206D01*
X14751779Y115850208D01*
X14751778Y115850208D01*
X14751775Y115850209D01*
X14613689Y115890755D01*
X14613686Y115890755D01*
X14469764Y115890755D01*
X14469760Y115890755D01*
X14331674Y115850209D01*
X14331667Y115850206D01*
X14210598Y115772400D01*
X14116347Y115663627D01*
X14056559Y115532712D01*
X14036078Y115390258D01*
X14036078Y115390253D01*
X14056559Y115247799D01*
X14116348Y115116882D01*
X14215234Y115002761D01*
X14213196Y115000996D01*
X14238650Y114958797D01*
X14241225Y114936362D01*
X14241225Y102350691D01*
X14261703Y102274267D01*
X14261704Y102274266D01*
X14274575Y102251973D01*
X14301265Y102205744D01*
X14706065Y101800944D01*
X15060443Y101446566D01*
X15088220Y101392049D01*
X15088432Y101362475D01*
X15085343Y101340991D01*
X15088432Y101319507D01*
X15077997Y101259218D01*
X15060443Y101235416D01*
X14854679Y101029651D01*
X14798729Y100973701D01*
X14759170Y100905183D01*
X14759168Y100905179D01*
X14738690Y100828755D01*
X14738690Y77240097D01*
X14759167Y77163676D01*
X14759171Y77163668D01*
X14777220Y77132404D01*
X14777221Y77132404D01*
X14777222Y77132403D01*
X14798730Y77095150D01*
X17611495Y74282385D01*
X17639271Y74227870D01*
X17640490Y74212383D01*
X17640490Y73906928D01*
X17621583Y73848737D01*
X17572083Y73812773D01*
X17513599Y73811938D01*
X17412954Y73841490D01*
X17412951Y73841490D01*
X17269029Y73841490D01*
X17269025Y73841490D01*
X17130939Y73800944D01*
X17130932Y73800941D01*
X17009861Y73723134D01*
X17004510Y73718496D01*
X17003021Y73720214D01*
X16959649Y73694062D01*
X16937231Y73691490D01*
X15277179Y73691490D01*
X15218988Y73710397D01*
X15207175Y73720486D01*
X13907496Y75020165D01*
X12556202Y76371460D01*
X12476278Y76417604D01*
X12476277Y76417605D01*
X12476274Y76417606D01*
X12476275Y76417606D01*
X12470120Y76419255D01*
X12470120Y76419254D01*
X12387134Y76441490D01*
X12387132Y76441490D01*
X11325573Y76441490D01*
X11267382Y76460397D01*
X11231418Y76509897D01*
X11229602Y76516187D01*
X11217601Y76563576D01*
X11217600Y76563581D01*
X11121039Y76783718D01*
X10989561Y76984959D01*
X10826754Y77161815D01*
X10637057Y77309462D01*
X10425649Y77423871D01*
X10408786Y77429660D01*
X10198287Y77501924D01*
X10198284Y77501925D01*
X10198283Y77501925D01*
X9961182Y77541490D01*
X9720798Y77541490D01*
X9483696Y77501925D01*
X9256330Y77423871D01*
X9044922Y77309462D01*
X9044919Y77309460D01*
X8855229Y77161818D01*
X8855226Y77161816D01*
X8855226Y77161815D01*
X8793859Y77095152D01*
X8692415Y76984955D01*
X8560943Y76783723D01*
X8560940Y76783718D01*
X8464378Y76563576D01*
X8405369Y76330553D01*
X8405369Y76330552D01*
X8385519Y76090990D01*
X8405369Y75851429D01*
X8405369Y75851428D01*
X8440805Y75711494D01*
X8464380Y75618399D01*
X8515510Y75501833D01*
X8560940Y75398263D01*
X8560943Y75398258D01*
X8692415Y75197026D01*
X8692417Y75197024D01*
X8692419Y75197021D01*
X8855226Y75020165D01*
X9044923Y74872518D01*
X9256334Y74758108D01*
X9483693Y74680056D01*
X9720798Y74640490D01*
X9961182Y74640490D01*
X10198287Y74680056D01*
X10425646Y74758108D01*
X10637057Y74872518D01*
X10826754Y75020165D01*
X10989561Y75197021D01*
X11121039Y75398262D01*
X11217600Y75618399D01*
X11229602Y75665793D01*
X11262216Y75717562D01*
X11319030Y75740274D01*
X11325573Y75740490D01*
X12154800Y75740490D01*
X12212991Y75721583D01*
X12224804Y75711494D01*
X14810521Y73125778D01*
X14810520Y73125778D01*
X14875777Y73060522D01*
X14875779Y73060520D01*
X14924692Y73032280D01*
X14955702Y73014376D01*
X15044846Y72990490D01*
X16937231Y72990490D01*
X16995422Y72971583D01*
X17004393Y72963350D01*
X17004510Y72963484D01*
X17009861Y72958847D01*
X17130932Y72881040D01*
X17130937Y72881037D01*
X17237393Y72849779D01*
X17269025Y72840491D01*
X17269026Y72840491D01*
X17269029Y72840490D01*
X17269031Y72840490D01*
X17412949Y72840490D01*
X17412951Y72840490D01*
X17513600Y72870043D01*
X17574759Y72868296D01*
X17623212Y72830933D01*
X17640490Y72775053D01*
X17640490Y72553528D01*
X17621583Y72495337D01*
X17611494Y72483524D01*
X16734378Y71606409D01*
X16679861Y71578632D01*
X16619429Y71588203D01*
X16610851Y71593129D01*
X16567575Y71620941D01*
X16567572Y71620943D01*
X16567571Y71620943D01*
X16567568Y71620944D01*
X16429482Y71661490D01*
X16429479Y71661490D01*
X16285557Y71661490D01*
X16285553Y71661490D01*
X16147467Y71620944D01*
X16147460Y71620941D01*
X16026391Y71543135D01*
X15932140Y71434362D01*
X15872352Y71303447D01*
X15851871Y71160993D01*
X15851871Y71160988D01*
X15872351Y71018536D01*
X15929747Y70892858D01*
X15936721Y70832072D01*
X15909697Y70781728D01*
X13206479Y68078508D01*
X13206478Y68078509D01*
X13150529Y68022559D01*
X13110970Y67954041D01*
X13110968Y67954037D01*
X13090490Y67877613D01*
X13090490Y67877610D01*
X13090490Y60730728D01*
X13110969Y60654301D01*
X13121838Y60635476D01*
X13150530Y60585779D01*
X15138395Y58597914D01*
X15166171Y58543399D01*
X15167390Y58527912D01*
X15167390Y57644885D01*
X15148483Y57586694D01*
X15141148Y57578701D01*
X15141399Y57578484D01*
X15042512Y57464362D01*
X14982724Y57333447D01*
X14962243Y57190993D01*
X14962243Y57190988D01*
X14982724Y57048535D01*
X15011943Y56984556D01*
X15020890Y56943429D01*
X15020890Y54336469D01*
X15001983Y54278278D01*
X14991894Y54266465D01*
X14739079Y54013650D01*
X14739078Y54013651D01*
X14683129Y53957701D01*
X14643570Y53889183D01*
X14643568Y53889179D01*
X14623090Y53812755D01*
X14623090Y44418826D01*
X14643568Y44342402D01*
X14643569Y44342400D01*
X14664018Y44306983D01*
X14664018Y44306980D01*
X14664019Y44306980D01*
X14664020Y44306979D01*
X14683130Y44273879D01*
X14991895Y43965114D01*
X15019671Y43910599D01*
X15020890Y43895112D01*
X15020890Y36163122D01*
X15041367Y36086701D01*
X15041367Y36086700D01*
X15041369Y36086697D01*
X15071146Y36035121D01*
X15071147Y36035120D01*
X15080928Y36018177D01*
X15080930Y36018175D01*
X15433511Y35665593D01*
X15461288Y35611077D01*
X15461499Y35581504D01*
X15458412Y35560021D01*
X15458411Y35560016D01*
X15478892Y35417562D01*
X15513862Y35340990D01*
X15538681Y35286645D01*
X15602178Y35213365D01*
X15632931Y35177874D01*
X15655508Y35163365D01*
X15754005Y35100065D01*
X15832044Y35077151D01*
X15892093Y35059519D01*
X15892094Y35059519D01*
X15892097Y35059518D01*
X15892099Y35059518D01*
X16036017Y35059518D01*
X16036019Y35059518D01*
X16174111Y35100065D01*
X16295186Y35177875D01*
X16389435Y35286645D01*
X16449223Y35417561D01*
X16469705Y35560018D01*
X16466156Y35584699D01*
X16449223Y35702475D01*
X16389435Y35833391D01*
X16295186Y35942161D01*
X16295185Y35942162D01*
X16295184Y35942163D01*
X16174115Y36019969D01*
X16174112Y36019971D01*
X16174111Y36019971D01*
X16174108Y36019972D01*
X16036022Y36060518D01*
X16036019Y36060518D01*
X15929537Y36060518D01*
X15871346Y36079425D01*
X15859533Y36089514D01*
X15650886Y36298161D01*
X15623109Y36352678D01*
X15621890Y36368165D01*
X15621890Y38296111D01*
X15640797Y38354302D01*
X15690297Y38390266D01*
X15751483Y38390266D01*
X15790894Y38366115D01*
X17850530Y36306479D01*
X17850529Y36306479D01*
X17906479Y36250530D01*
X17974997Y36210971D01*
X17974995Y36210971D01*
X17974999Y36210970D01*
X17975001Y36210969D01*
X17990518Y36206811D01*
X18041831Y36173488D01*
X18063758Y36116366D01*
X18056359Y36073301D01*
X18019659Y35984697D01*
X18000740Y35840991D01*
X18000740Y35840990D01*
X18009523Y35774273D01*
X17998373Y35714112D01*
X17981374Y35691347D01*
X16910515Y34620486D01*
X16855998Y34592709D01*
X16840511Y34591490D01*
X13556469Y34591490D01*
X13498278Y34610397D01*
X13486465Y34620486D01*
X12915604Y35191347D01*
X12887827Y35245864D01*
X12887455Y35274267D01*
X12896240Y35340990D01*
X12877320Y35484699D01*
X12821851Y35618615D01*
X12733611Y35733611D01*
X12618615Y35821851D01*
X12618611Y35821853D01*
X12484699Y35877320D01*
X12484698Y35877321D01*
X12340990Y35896240D01*
X12197281Y35877321D01*
X12197280Y35877320D01*
X12063368Y35821853D01*
X12063364Y35821851D01*
X11948371Y35733613D01*
X11948367Y35733609D01*
X11860129Y35618616D01*
X11860127Y35618612D01*
X11804660Y35484700D01*
X11804659Y35484699D01*
X11785740Y35340991D01*
X11785740Y35340990D01*
X11804659Y35197282D01*
X11804660Y35197281D01*
X11854418Y35077151D01*
X11860129Y35063365D01*
X11948369Y34948369D01*
X12063365Y34860129D01*
X12197281Y34804660D01*
X12340990Y34785740D01*
X12407709Y34794525D01*
X12467866Y34783376D01*
X12490633Y34766376D01*
X13150530Y34106479D01*
X13150529Y34106479D01*
X13206479Y34050530D01*
X13274997Y34010971D01*
X13275001Y34010969D01*
X13351425Y33990491D01*
X13351427Y33990490D01*
X16960749Y33990490D01*
X17018940Y33971583D01*
X17054904Y33922083D01*
X17054904Y33860897D01*
X17030753Y33821486D01*
X15406479Y32197211D01*
X15406478Y32197212D01*
X15350529Y32141262D01*
X15310970Y32072744D01*
X15310968Y32072740D01*
X15290490Y31996316D01*
X15290490Y29740490D01*
X15271583Y29682299D01*
X15222083Y29646335D01*
X15191490Y29641490D01*
X14288073Y29641490D01*
X14229882Y29660397D01*
X14213254Y29675659D01*
X14210801Y29678490D01*
X14172118Y29723133D01*
X14127628Y29751725D01*
X14051047Y29800941D01*
X14051044Y29800943D01*
X14051043Y29800943D01*
X14051040Y29800944D01*
X13912954Y29841490D01*
X13912951Y29841490D01*
X13769029Y29841490D01*
X13769025Y29841490D01*
X13630939Y29800944D01*
X13630932Y29800941D01*
X13509863Y29723135D01*
X13415612Y29614362D01*
X13355824Y29483447D01*
X13335343Y29340993D01*
X13335343Y29340988D01*
X13355824Y29198534D01*
X13369906Y29167700D01*
X13415613Y29067617D01*
X13468726Y29006321D01*
X13509863Y28958846D01*
X13587433Y28908995D01*
X13630937Y28881037D01*
X13737393Y28849779D01*
X13769025Y28840491D01*
X13769026Y28840491D01*
X13769029Y28840490D01*
X13769031Y28840490D01*
X13912949Y28840490D01*
X13912951Y28840490D01*
X14051043Y28881037D01*
X14172118Y28958847D01*
X14213254Y29006322D01*
X14265650Y29037917D01*
X14288073Y29040490D01*
X15551428Y29040490D01*
X15630552Y29040490D01*
X15893907Y29040490D01*
X15952098Y29021583D01*
X15968723Y29006323D01*
X16009862Y28958847D01*
X16130937Y28881037D01*
X16133304Y28879516D01*
X16172035Y28832150D01*
X16175529Y28771065D01*
X16149785Y28726229D01*
X15906479Y28482922D01*
X15850529Y28426972D01*
X15810970Y28358454D01*
X15810968Y28358450D01*
X15790490Y28282026D01*
X15790490Y15744018D01*
X15771583Y15685827D01*
X15722083Y15649863D01*
X15660897Y15649863D01*
X15626661Y15669197D01*
X15622117Y15673134D01*
X15501047Y15750941D01*
X15501044Y15750943D01*
X15501043Y15750943D01*
X15501040Y15750944D01*
X15362954Y15791490D01*
X15362951Y15791490D01*
X15219029Y15791490D01*
X15219025Y15791490D01*
X15080939Y15750944D01*
X15080932Y15750941D01*
X14959863Y15673135D01*
X14865612Y15564362D01*
X14805824Y15433447D01*
X14785343Y15290994D01*
X14785343Y15290992D01*
X14785343Y15290990D01*
X14788432Y15269507D01*
X14777997Y15209218D01*
X14760443Y15185416D01*
X14556479Y14981451D01*
X14500529Y14925501D01*
X14460970Y14856983D01*
X14460968Y14856979D01*
X14440490Y14780555D01*
X14440490Y5482187D01*
X14460967Y5405766D01*
X14460969Y5405761D01*
X14487314Y5360130D01*
X14500340Y5337569D01*
X14500530Y5337240D01*
X18487240Y1350530D01*
X18487242Y1350529D01*
X18487244Y1350527D01*
X18555759Y1310970D01*
X18555757Y1310970D01*
X18555761Y1310969D01*
X18555763Y1310968D01*
X18632189Y1290490D01*
X18632191Y1290490D01*
X30277304Y1290490D01*
X30277304Y1290491D01*
X30353730Y1310969D01*
X30422252Y1350530D01*
X30478201Y1406479D01*
X33871486Y4799764D01*
X33926003Y4827541D01*
X33986435Y4817970D01*
X34029700Y4774705D01*
X34040490Y4729760D01*
X34040490Y1594231D01*
X34040278Y1587756D01*
X34024236Y1343007D01*
X34022546Y1330168D01*
X33975327Y1092783D01*
X33971975Y1080275D01*
X33894180Y851098D01*
X33889224Y839133D01*
X33782174Y622057D01*
X33775699Y610842D01*
X33641235Y409604D01*
X33633353Y399331D01*
X33473774Y217364D01*
X33464616Y208206D01*
X33282649Y48627D01*
X33272376Y40745D01*
X33071138Y-93719D01*
X33059923Y-100194D01*
X32842847Y-207244D01*
X32830882Y-212200D01*
X32601705Y-289995D01*
X32589197Y-293347D01*
X32351812Y-340566D01*
X32338973Y-342256D01*
X32094225Y-358298D01*
X32087750Y-358510D01*
X1594230Y-358510D01*
X1587755Y-358298D01*
X1343006Y-342256D01*
X1330167Y-340566D01*
X1092782Y-293347D01*
X1080274Y-289995D01*
X851097Y-212200D01*
X839132Y-207244D01*
X622056Y-100194D01*
X610841Y-93719D01*
X409603Y40745D01*
X399335Y48623D01*
X217353Y208216D01*
X208215Y217354D01*
X48620Y399338D01*
X40744Y409604D01*
X-93720Y610842D01*
X-100195Y622057D01*
X-207245Y839133D01*
X-212198Y851089D01*
X-289999Y1080284D01*
X-293346Y1092773D01*
X-340568Y1330173D01*
X-342257Y1343007D01*
X-342750Y1350527D01*
X-358298Y1587756D01*
X-358510Y1594231D01*
X-358510Y4090990D01*
X8386021Y4090990D01*
X8405864Y3851512D01*
X8464855Y3618562D01*
X8561382Y3398502D01*
X8561385Y3398497D01*
X8692811Y3197335D01*
X8747021Y3138447D01*
X9153502Y3544929D01*
X9161333Y3533210D01*
X9283210Y3411333D01*
X9294925Y3403505D01*
X8887277Y2995856D01*
X9045198Y2872939D01*
X9256532Y2758570D01*
X9483819Y2680543D01*
X9720840Y2640990D01*
X9961140Y2640990D01*
X10198160Y2680543D01*
X10425447Y2758570D01*
X10636783Y2872940D01*
X10636787Y2872943D01*
X10794702Y2995855D01*
X10387053Y3403504D01*
X10398770Y3411333D01*
X10520647Y3533210D01*
X10528476Y3544927D01*
X10934958Y3138445D01*
X10934958Y3138446D01*
X10989162Y3197327D01*
X10989165Y3197330D01*
X11120594Y3398497D01*
X11120597Y3398502D01*
X11217124Y3618562D01*
X11276115Y3851512D01*
X11295958Y4090990D01*
X11276115Y4330469D01*
X11217124Y4563419D01*
X11120597Y4783479D01*
X11120594Y4783484D01*
X10989168Y4984646D01*
X10934957Y5043535D01*
X10528475Y4637054D01*
X10520647Y4648770D01*
X10398770Y4770647D01*
X10387052Y4778477D01*
X10794701Y5186126D01*
X10636781Y5309042D01*
X10425447Y5423411D01*
X10198160Y5501438D01*
X9961140Y5540990D01*
X9720840Y5540990D01*
X9483819Y5501438D01*
X9256532Y5423411D01*
X9045196Y5309041D01*
X9045193Y5309039D01*
X8887276Y5186127D01*
X9294926Y4778476D01*
X9283210Y4770647D01*
X9161333Y4648770D01*
X9153503Y4637054D01*
X8747021Y5043536D01*
X8692811Y4984646D01*
X8561385Y4783484D01*
X8561382Y4783479D01*
X8464855Y4563419D01*
X8405864Y4330469D01*
X8386021Y4090990D01*
X-358510Y4090990D01*
X-358510Y188087750D01*
X-358298Y188094225D01*
X-342257Y188338974D01*
X-340567Y188351813D01*
X-293345Y188589212D01*
X-290000Y188601693D01*
X-212196Y188830897D01*
X-207249Y188842841D01*
X-100195Y189059924D01*
X-93724Y189071134D01*
X40747Y189272382D01*
X48614Y189282636D01*
X208222Y189464635D01*
X217345Y189473758D01*
X399344Y189633366D01*
X409598Y189641233D01*
X610846Y189775704D01*
X622056Y189782175D01*
X656273Y189799050D01*
X839139Y189889229D01*
X851083Y189894176D01*
X1080287Y189971980D01*
X1092768Y189975325D01*
X1330174Y190022548D01*
X1342998Y190024237D01*
X1587755Y190040279D01*
X1594230Y190040490D01*
X1638585Y190040490D01*
X32043395Y190040490D01*
X32087750Y190040490D01*
X32094224Y190040279D01*
G37*
%TD.AperFunction*%
%TA.AperFunction,Conductor*%
G36*
X30058436Y13134583D02*
G01*
X30094400Y13085083D01*
X30094400Y13023897D01*
X30067249Y12984112D01*
X30068396Y12982965D01*
X29967451Y12882021D01*
X29890846Y12767372D01*
X29838081Y12639984D01*
X29838081Y12639982D01*
X29817357Y12535800D01*
X30227392Y12535800D01*
X30211180Y12475296D01*
X30211180Y12396304D01*
X30227392Y12335800D01*
X29817358Y12335800D01*
X29838081Y12231619D01*
X29838081Y12231617D01*
X29890846Y12104229D01*
X29967451Y11989580D01*
X30064959Y11892072D01*
X30179608Y11815467D01*
X30306996Y11762702D01*
X30442235Y11735801D01*
X30442237Y11735800D01*
X30811179Y11735800D01*
X30811180Y11735801D01*
X30811180Y12135800D01*
X31011180Y12135800D01*
X31011180Y11735801D01*
X31011181Y11735800D01*
X31380123Y11735800D01*
X31380124Y11735801D01*
X31515363Y11762702D01*
X31642751Y11815467D01*
X31757400Y11892072D01*
X31854908Y11989580D01*
X31931513Y12104229D01*
X31984278Y12231617D01*
X31984278Y12231619D01*
X32005002Y12335800D01*
X31594968Y12335800D01*
X31611180Y12396304D01*
X31611180Y12475296D01*
X31594968Y12535800D01*
X32005002Y12535800D01*
X31984278Y12639982D01*
X31984278Y12639984D01*
X31931513Y12767372D01*
X31854908Y12882021D01*
X31753964Y12982965D01*
X31755269Y12984271D01*
X31726320Y13029502D01*
X31729928Y13090581D01*
X31768748Y13137874D01*
X31822115Y13153490D01*
X33541490Y13153490D01*
X33599681Y13134583D01*
X33635645Y13085083D01*
X33640490Y13054490D01*
X33640490Y5459718D01*
X33621583Y5401527D01*
X33611494Y5389714D01*
X32154647Y3932868D01*
X32100130Y3905091D01*
X32039698Y3914662D01*
X31996433Y3957927D01*
X31987545Y3983561D01*
X31984280Y3999978D01*
X31984278Y3999984D01*
X31931513Y4127372D01*
X31854908Y4242021D01*
X31757400Y4339529D01*
X31642751Y4416134D01*
X31515363Y4468899D01*
X31380124Y4495800D01*
X31011181Y4495800D01*
X31011180Y4495799D01*
X31011180Y4095800D01*
X30811180Y4095800D01*
X30811180Y4495799D01*
X30811179Y4495800D01*
X30442235Y4495800D01*
X30306996Y4468899D01*
X30179608Y4416134D01*
X30064959Y4339529D01*
X29967451Y4242021D01*
X29890846Y4127372D01*
X29838081Y3999984D01*
X29838081Y3999982D01*
X29817357Y3895800D01*
X30227392Y3895800D01*
X30211180Y3835296D01*
X30211180Y3756304D01*
X30227392Y3695800D01*
X29817358Y3695800D01*
X29838081Y3591619D01*
X29838081Y3591617D01*
X29890846Y3464229D01*
X29967451Y3349580D01*
X30064959Y3252072D01*
X30179608Y3175467D01*
X30306996Y3122702D01*
X30442235Y3095801D01*
X30442237Y3095800D01*
X30811179Y3095800D01*
X30811180Y3095801D01*
X30811180Y3495800D01*
X31011180Y3495800D01*
X31011180Y3095801D01*
X31011181Y3095800D01*
X31078572Y3095800D01*
X31136763Y3076893D01*
X31172727Y3027393D01*
X31172727Y2966207D01*
X31148576Y2926796D01*
X30142266Y1920486D01*
X30087749Y1892709D01*
X30072262Y1891490D01*
X27848592Y1891490D01*
X27790401Y1910397D01*
X27754437Y1959897D01*
X27754437Y2021083D01*
X27790401Y2070583D01*
X27799092Y2076226D01*
X27819823Y2088196D01*
X27841187Y2100530D01*
X27897136Y2156479D01*
X29126640Y3385983D01*
X29155332Y3435680D01*
X29166201Y3454505D01*
X29186680Y3530932D01*
X29186680Y12901048D01*
X29166201Y12977475D01*
X29165015Y12979529D01*
X29150316Y13004990D01*
X29137594Y13064838D01*
X29162481Y13120734D01*
X29215469Y13151327D01*
X29236052Y13153490D01*
X30000245Y13153490D01*
X30058436Y13134583D01*
G37*
%TD.AperFunction*%
%TA.AperFunction,Conductor*%
G36*
X17286435Y28916193D02*
G01*
X17329700Y28872928D01*
X17340490Y28827983D01*
X17340490Y12081682D01*
X17359390Y12011142D01*
X17371190Y11967104D01*
X17371192Y11967100D01*
X17430497Y11864381D01*
X17430499Y11864379D01*
X17430501Y11864376D01*
X21564376Y7730501D01*
X21564378Y7730500D01*
X21564380Y7730498D01*
X21667098Y7671193D01*
X21667100Y7671193D01*
X21667103Y7671191D01*
X21688634Y7665422D01*
X21781681Y7640490D01*
X24791680Y7640490D01*
X24849871Y7621583D01*
X24885835Y7572083D01*
X24890680Y7541490D01*
X24890680Y7356236D01*
X24911158Y7279812D01*
X24911159Y7279811D01*
X24942134Y7226161D01*
X24950720Y7211289D01*
X25056669Y7105340D01*
X25056671Y7105339D01*
X25056673Y7105337D01*
X25125188Y7065780D01*
X25125186Y7065780D01*
X25125190Y7065779D01*
X25125192Y7065778D01*
X25201618Y7045300D01*
X25201625Y7045300D01*
X25204594Y7044909D01*
X25206536Y7043983D01*
X25207886Y7043621D01*
X25207819Y7043372D01*
X25259821Y7018573D01*
X25289021Y6964804D01*
X25290680Y6946755D01*
X25290680Y6696049D01*
X25302801Y6635114D01*
X25302801Y6596486D01*
X25290680Y6535552D01*
X25290680Y6196049D01*
X25302801Y6135114D01*
X25302801Y6096486D01*
X25290680Y6035552D01*
X25290680Y5396050D01*
X25303056Y5333834D01*
X25303056Y5295207D01*
X25291180Y5235503D01*
X25291180Y5015801D01*
X25291181Y5015800D01*
X26012180Y5015800D01*
X26070371Y4996893D01*
X26106335Y4947393D01*
X26111180Y4916800D01*
X26111180Y4915800D01*
X26112180Y4915800D01*
X26170371Y4896893D01*
X26206335Y4847393D01*
X26211180Y4816800D01*
X26211180Y4409800D01*
X26192273Y4351609D01*
X26142773Y4315645D01*
X26112180Y4310800D01*
X26110180Y4310800D01*
X26051989Y4329707D01*
X26016025Y4379207D01*
X26011180Y4409800D01*
X26011180Y4815800D01*
X25291181Y4815800D01*
X25291180Y4815799D01*
X25291180Y4596100D01*
X25302783Y4537764D01*
X25346986Y4471611D01*
X25346990Y4471607D01*
X25413143Y4427404D01*
X25471479Y4415801D01*
X25471483Y4415800D01*
X25552223Y4415800D01*
X25610414Y4396893D01*
X25646378Y4347393D01*
X25646378Y4286207D01*
X25622227Y4246796D01*
X25617451Y4242021D01*
X25540846Y4127372D01*
X25488081Y3999984D01*
X25488081Y3999982D01*
X25467357Y3895800D01*
X25877392Y3895800D01*
X25861180Y3835296D01*
X25861180Y3756304D01*
X25877392Y3695800D01*
X25467358Y3695800D01*
X25488081Y3591619D01*
X25488081Y3591617D01*
X25540846Y3464229D01*
X25617451Y3349580D01*
X25714959Y3252072D01*
X25758759Y3222806D01*
X25796639Y3174756D01*
X25799041Y3113618D01*
X25765049Y3062744D01*
X25707645Y3041566D01*
X25703758Y3041490D01*
X22106469Y3041490D01*
X22048278Y3060397D01*
X22036465Y3070486D01*
X19415604Y5691347D01*
X19387827Y5745864D01*
X19387455Y5774267D01*
X19396240Y5840990D01*
X19377320Y5984699D01*
X19321851Y6118615D01*
X19233611Y6233611D01*
X19118615Y6321851D01*
X19118611Y6321853D01*
X18984699Y6377320D01*
X18984698Y6377321D01*
X18840990Y6396240D01*
X18697281Y6377321D01*
X18697280Y6377320D01*
X18563368Y6321853D01*
X18563364Y6321851D01*
X18448371Y6233613D01*
X18448367Y6233609D01*
X18360129Y6118616D01*
X18360127Y6118612D01*
X18304660Y5984700D01*
X18304659Y5984699D01*
X18285740Y5840991D01*
X18285740Y5840990D01*
X18304659Y5697282D01*
X18304660Y5697281D01*
X18360129Y5563365D01*
X18448369Y5448369D01*
X18563365Y5360129D01*
X18697281Y5304660D01*
X18840990Y5285740D01*
X18907709Y5294525D01*
X18967866Y5283376D01*
X18990633Y5266376D01*
X21446515Y2810494D01*
X21474292Y2755977D01*
X21464721Y2695545D01*
X21421456Y2652280D01*
X21376511Y2641490D01*
X19353119Y2641490D01*
X19294928Y2660397D01*
X19274577Y2680223D01*
X19274331Y2680543D01*
X19233611Y2733611D01*
X19118615Y2821851D01*
X19118611Y2821853D01*
X18984699Y2877320D01*
X18984698Y2877321D01*
X18840990Y2896240D01*
X18697281Y2877321D01*
X18697280Y2877320D01*
X18563368Y2821853D01*
X18563364Y2821851D01*
X18448371Y2733613D01*
X18448367Y2733609D01*
X18360129Y2618616D01*
X18360127Y2618612D01*
X18331588Y2549711D01*
X18291852Y2503185D01*
X18232357Y2488901D01*
X18175829Y2512316D01*
X18170120Y2517592D01*
X15070486Y5617226D01*
X15042709Y5671743D01*
X15041490Y5687230D01*
X15041490Y6775053D01*
X15060397Y6833244D01*
X15109897Y6869208D01*
X15168379Y6870043D01*
X15269029Y6840490D01*
X15269031Y6840490D01*
X15412949Y6840490D01*
X15412951Y6840490D01*
X15551043Y6881037D01*
X15672118Y6958847D01*
X15766367Y7067617D01*
X15826155Y7198533D01*
X15846637Y7340990D01*
X15843548Y7362473D01*
X15853980Y7422762D01*
X15871537Y7446567D01*
X16071472Y7646502D01*
X16331450Y7906479D01*
X16337584Y7917104D01*
X16371011Y7975001D01*
X16391490Y8051428D01*
X16391490Y28076983D01*
X16410397Y28135174D01*
X16420480Y28146981D01*
X17171488Y28897989D01*
X17226003Y28925764D01*
X17286435Y28916193D01*
G37*
%TD.AperFunction*%
%TA.AperFunction,Conductor*%
G36*
X28131625Y6408846D02*
G01*
X28174890Y6365581D01*
X28185680Y6320636D01*
X28185680Y3901659D01*
X28166773Y3843468D01*
X28156684Y3831655D01*
X28130073Y3805044D01*
X28075976Y3777481D01*
X28075976Y3766207D01*
X28051825Y3726796D01*
X28049825Y3724796D01*
X27995308Y3697019D01*
X27979821Y3695800D01*
X27544968Y3695800D01*
X27561180Y3756304D01*
X27561180Y3835296D01*
X27544968Y3895800D01*
X27955002Y3895800D01*
X27934278Y3999982D01*
X27934278Y3999984D01*
X27881513Y4127372D01*
X27804908Y4242021D01*
X27707400Y4339529D01*
X27592751Y4416134D01*
X27465363Y4468899D01*
X27330124Y4495800D01*
X27030180Y4495800D01*
X26971989Y4514707D01*
X26936025Y4564207D01*
X26931180Y4594800D01*
X26931180Y4633128D01*
X26950087Y4691319D01*
X26999587Y4727283D01*
X27055801Y4728755D01*
X27161997Y4700300D01*
X27161999Y4700300D01*
X27300361Y4700300D01*
X27300363Y4700300D01*
X27434016Y4736112D01*
X27553845Y4805295D01*
X27651685Y4903135D01*
X27720868Y5022964D01*
X27756680Y5156617D01*
X27756680Y5294983D01*
X27720868Y5428636D01*
X27651685Y5548465D01*
X27553845Y5646305D01*
X27487109Y5684835D01*
X27446171Y5730302D01*
X27439775Y5791152D01*
X27466606Y5840571D01*
X28016677Y6390641D01*
X28071193Y6418417D01*
X28131625Y6408846D01*
G37*
%TD.AperFunction*%
%TA.AperFunction,Conductor*%
G36*
X18556435Y70784721D02*
G01*
X18599700Y70741456D01*
X18610490Y70696511D01*
X18610490Y60964725D01*
X18591583Y60906534D01*
X18542083Y60870570D01*
X18480897Y60870570D01*
X18441486Y60894721D01*
X16242060Y63094147D01*
X16214283Y63148664D01*
X16223854Y63209096D01*
X16233514Y63224407D01*
X16295470Y63305148D01*
X16350939Y63439064D01*
X16369859Y63582773D01*
X16350939Y63726482D01*
X16295470Y63860398D01*
X16207230Y63975394D01*
X16092234Y64063634D01*
X16092230Y64063636D01*
X15958318Y64119103D01*
X15958317Y64119104D01*
X15814609Y64138023D01*
X15670900Y64119104D01*
X15670899Y64119103D01*
X15536987Y64063636D01*
X15536983Y64063634D01*
X15421990Y63975396D01*
X15421986Y63975392D01*
X15333748Y63860399D01*
X15333746Y63860395D01*
X15278279Y63726483D01*
X15278278Y63726482D01*
X15259359Y63582774D01*
X15259359Y63582773D01*
X15278278Y63439065D01*
X15278279Y63439064D01*
X15333748Y63305148D01*
X15421988Y63190152D01*
X15421992Y63190149D01*
X15421993Y63190148D01*
X15475376Y63149186D01*
X15510032Y63098762D01*
X15514109Y63070644D01*
X15514109Y63057063D01*
X15534587Y62980639D01*
X15534589Y62980635D01*
X15574147Y62912119D01*
X15574149Y62912116D01*
X18181495Y60304770D01*
X18209271Y60250255D01*
X18210490Y60234768D01*
X18210490Y49500055D01*
X18191583Y49441864D01*
X18181494Y49430051D01*
X16406479Y47655036D01*
X16406478Y47655037D01*
X16350529Y47599087D01*
X16310970Y47530569D01*
X16310968Y47530565D01*
X16290490Y47454141D01*
X16290490Y45754368D01*
X16310967Y45677947D01*
X16310967Y45677946D01*
X16310969Y45677943D01*
X16341534Y45625002D01*
X16350530Y45609421D01*
X22899457Y39060494D01*
X22927234Y39005977D01*
X22917663Y38945545D01*
X22874398Y38902280D01*
X22829453Y38891490D01*
X19323119Y38891490D01*
X19264928Y38910397D01*
X19244577Y38930223D01*
X19203615Y38983606D01*
X19203614Y38983607D01*
X19203611Y38983611D01*
X19088615Y39071851D01*
X19088611Y39071853D01*
X18954699Y39127320D01*
X18954698Y39127321D01*
X18810990Y39146240D01*
X18667281Y39127321D01*
X18667280Y39127320D01*
X18533368Y39071853D01*
X18533364Y39071851D01*
X18418371Y38983613D01*
X18418367Y38983609D01*
X18330129Y38868616D01*
X18330127Y38868612D01*
X18274660Y38734700D01*
X18274659Y38734699D01*
X18255740Y38590991D01*
X18255740Y38590990D01*
X18274659Y38447282D01*
X18274660Y38447281D01*
X18313172Y38354302D01*
X18330129Y38313365D01*
X18418369Y38198369D01*
X18533365Y38110129D01*
X18667281Y38054660D01*
X18810990Y38035740D01*
X18954699Y38054660D01*
X19088615Y38110129D01*
X19203611Y38198369D01*
X19244577Y38251758D01*
X19295001Y38286413D01*
X19323119Y38290490D01*
X23062767Y38290490D01*
X23120958Y38271583D01*
X23132771Y38261494D01*
X27830122Y33564143D01*
X27857899Y33509626D01*
X27859118Y33494139D01*
X27859118Y31324047D01*
X27879595Y31247626D01*
X27879597Y31247621D01*
X27908032Y31198370D01*
X27919156Y31179102D01*
X27919158Y31179100D01*
X28003873Y31094384D01*
X28031650Y31039867D01*
X28032022Y31011460D01*
X28023239Y30944743D01*
X28023239Y30944740D01*
X28042158Y30801032D01*
X28042159Y30801031D01*
X28084680Y30698374D01*
X28089480Y30637377D01*
X28057511Y30585208D01*
X28000983Y30561794D01*
X27993216Y30561489D01*
X27721424Y30561489D01*
X27645000Y30541011D01*
X27611409Y30521617D01*
X27606211Y30518615D01*
X27597376Y30513515D01*
X27576478Y30501450D01*
X26281012Y29205986D01*
X26226496Y29178209D01*
X26198087Y29177837D01*
X26131371Y29186620D01*
X26131370Y29186620D01*
X25987661Y29167701D01*
X25987660Y29167700D01*
X25853748Y29112233D01*
X25853744Y29112231D01*
X25738751Y29023993D01*
X25738747Y29023989D01*
X25650509Y28908996D01*
X25650507Y28908992D01*
X25595040Y28775080D01*
X25595039Y28775079D01*
X25576120Y28631371D01*
X25576120Y28631369D01*
X25584903Y28564651D01*
X25573753Y28504491D01*
X25556754Y28481727D01*
X25154734Y28079706D01*
X25098784Y28023756D01*
X25059225Y27955238D01*
X25059223Y27955234D01*
X25038745Y27878810D01*
X25038745Y20970410D01*
X25019838Y20912219D01*
X25009749Y20900406D01*
X24329829Y20220486D01*
X24275312Y20192709D01*
X24259825Y20191490D01*
X20140490Y20191490D01*
X20082299Y20210397D01*
X20046335Y20259897D01*
X20041490Y20290490D01*
X20041490Y26525512D01*
X20060397Y26583703D01*
X20070480Y26595510D01*
X21191347Y27716378D01*
X21245862Y27744153D01*
X21274265Y27744525D01*
X21340990Y27735740D01*
X21484699Y27754660D01*
X21618615Y27810129D01*
X21733611Y27898369D01*
X21821851Y28013365D01*
X21877320Y28147281D01*
X21896240Y28290990D01*
X21877320Y28434699D01*
X21821851Y28568615D01*
X21733611Y28683611D01*
X21618615Y28771851D01*
X21618611Y28771853D01*
X21484699Y28827320D01*
X21484698Y28827321D01*
X21340990Y28846240D01*
X21197281Y28827321D01*
X21197280Y28827320D01*
X21063368Y28771853D01*
X21063364Y28771851D01*
X20948371Y28683613D01*
X20948367Y28683609D01*
X20860129Y28568616D01*
X20860127Y28568612D01*
X20804660Y28434700D01*
X20804659Y28434699D01*
X20785740Y28290991D01*
X20785740Y28290990D01*
X20794523Y28224273D01*
X20783373Y28164112D01*
X20766374Y28141347D01*
X19556479Y26931450D01*
X19556478Y26931451D01*
X19500529Y26875501D01*
X19460970Y26806983D01*
X19460968Y26806979D01*
X19440490Y26730555D01*
X19440490Y18801426D01*
X19460968Y18725002D01*
X19460969Y18725001D01*
X19472713Y18704660D01*
X19500530Y18656479D01*
X21000530Y17156479D01*
X21000529Y17156479D01*
X21056479Y17100530D01*
X21124997Y17060971D01*
X21125001Y17060969D01*
X21201425Y17040491D01*
X21201427Y17040490D01*
X21201428Y17040490D01*
X21280552Y17040490D01*
X21868907Y17040490D01*
X21927098Y17021583D01*
X21943723Y17006323D01*
X21984862Y16958847D01*
X22105937Y16881037D01*
X22212393Y16849779D01*
X22244025Y16840491D01*
X22244026Y16840491D01*
X22244029Y16840490D01*
X22244031Y16840490D01*
X22387949Y16840490D01*
X22387951Y16840490D01*
X22526043Y16881037D01*
X22647118Y16958847D01*
X22741367Y17067617D01*
X22801155Y17198533D01*
X22821637Y17340990D01*
X22801155Y17483447D01*
X22741367Y17614363D01*
X22647118Y17723133D01*
X22647117Y17723134D01*
X22647116Y17723135D01*
X22526047Y17800941D01*
X22526044Y17800943D01*
X22526043Y17800943D01*
X22526040Y17800944D01*
X22387954Y17841490D01*
X22387951Y17841490D01*
X22244029Y17841490D01*
X22244025Y17841490D01*
X22105939Y17800944D01*
X22105932Y17800941D01*
X21984866Y17723136D01*
X21984861Y17723132D01*
X21943726Y17675659D01*
X21891330Y17644063D01*
X21868907Y17641490D01*
X21406469Y17641490D01*
X21348278Y17660397D01*
X21336465Y17670486D01*
X20471281Y18535670D01*
X20443504Y18590187D01*
X20453075Y18650619D01*
X20496340Y18693884D01*
X20528364Y18703827D01*
X20534699Y18704660D01*
X20668615Y18760129D01*
X20706924Y18789526D01*
X20746683Y18820032D01*
X20804359Y18840456D01*
X20806950Y18840490D01*
X24280553Y18840490D01*
X24280553Y18840491D01*
X24356979Y18860969D01*
X24425501Y18900530D01*
X24481450Y18956479D01*
X25669741Y20144770D01*
X25724258Y20172547D01*
X25784690Y20162976D01*
X25827955Y20119711D01*
X25838745Y20074766D01*
X25838745Y15003171D01*
X25859222Y14926750D01*
X25859223Y14926748D01*
X25859224Y14926746D01*
X25859936Y14925513D01*
X25859939Y14925500D01*
X25859942Y14925501D01*
X25888231Y14876504D01*
X25898785Y14858224D01*
X26811995Y13945014D01*
X26839771Y13890499D01*
X26840990Y13875012D01*
X26840990Y13206617D01*
X26822083Y13148426D01*
X26811994Y13136613D01*
X26811180Y13135799D01*
X26811180Y12735800D01*
X26611180Y12735800D01*
X26611180Y13135799D01*
X26611179Y13135800D01*
X26092235Y13135800D01*
X25956996Y13108899D01*
X25829608Y13056134D01*
X25714959Y12979529D01*
X25617451Y12882021D01*
X25540846Y12767372D01*
X25488081Y12639984D01*
X25488081Y12639982D01*
X25467357Y12535800D01*
X25877392Y12535800D01*
X25861180Y12475296D01*
X25861180Y12396304D01*
X25877392Y12335800D01*
X25467358Y12335800D01*
X25488081Y12231619D01*
X25488081Y12231617D01*
X25540846Y12104229D01*
X25617451Y11989580D01*
X25622227Y11984804D01*
X25650004Y11930287D01*
X25640433Y11869855D01*
X25597168Y11826590D01*
X25552223Y11815800D01*
X25471479Y11815800D01*
X25413143Y11804197D01*
X25346990Y11759994D01*
X25346986Y11759990D01*
X25302783Y11693837D01*
X25291180Y11635501D01*
X25291180Y11415801D01*
X25291181Y11415800D01*
X26012180Y11415800D01*
X26070371Y11396893D01*
X26106335Y11347393D01*
X26111180Y11316800D01*
X26111180Y11314800D01*
X26092273Y11256609D01*
X26042773Y11220645D01*
X26012180Y11215800D01*
X25291181Y11215800D01*
X25291180Y11215799D01*
X25291180Y10996100D01*
X25303056Y10936396D01*
X25303056Y10897768D01*
X25290680Y10835552D01*
X25290680Y10196049D01*
X25302801Y10135114D01*
X25302801Y10096486D01*
X25290680Y10035552D01*
X25290680Y9696049D01*
X25302801Y9635114D01*
X25302801Y9596486D01*
X25290680Y9535552D01*
X25290680Y9436416D01*
X25271773Y9378225D01*
X25222273Y9342261D01*
X25166059Y9340789D01*
X25145491Y9346300D01*
X25145489Y9346300D01*
X22253741Y9346300D01*
X22195550Y9365207D01*
X22183737Y9375296D01*
X18970486Y12588547D01*
X18942709Y12643064D01*
X18941490Y12658551D01*
X18941490Y31482009D01*
X18960397Y31540200D01*
X18970480Y31552007D01*
X19009463Y31590990D01*
X24340990Y31590990D01*
X27840990Y31590990D01*
X27840990Y33340990D01*
X26090990Y35090990D01*
X24340990Y35090990D01*
X24340990Y31590990D01*
X19009463Y31590990D01*
X22041031Y34622559D01*
X22095546Y34650334D01*
X22136323Y34643876D01*
X22134544Y34646645D01*
X22138038Y34707731D01*
X22160285Y34741813D01*
X22802177Y35383705D01*
X22856692Y35411480D01*
X22859160Y35411839D01*
X22875385Y35413974D01*
X22878698Y35415346D01*
X22944290Y35442515D01*
X23005287Y35447316D01*
X23057456Y35415346D01*
X23080871Y35358818D01*
X23081176Y35351051D01*
X23081176Y35147155D01*
X23062269Y35088964D01*
X23052180Y35077152D01*
X22695513Y34720486D01*
X22640998Y34692709D01*
X22625511Y34691490D01*
X22519025Y34691490D01*
X22380939Y34650944D01*
X22380937Y34650943D01*
X22283815Y34588527D01*
X22224639Y34572974D01*
X22201713Y34581901D01*
X22208814Y34537066D01*
X22185854Y34487724D01*
X22165613Y34464364D01*
X22105824Y34333447D01*
X22085343Y34190993D01*
X22085343Y34190988D01*
X22105824Y34048534D01*
X22140967Y33971583D01*
X22165613Y33917617D01*
X22258024Y33810968D01*
X22259863Y33808846D01*
X22317846Y33771583D01*
X22380937Y33731037D01*
X22487393Y33699779D01*
X22519025Y33690491D01*
X22519026Y33690491D01*
X22519029Y33690490D01*
X22519031Y33690490D01*
X22662949Y33690490D01*
X22662951Y33690490D01*
X22801043Y33731037D01*
X22922118Y33808847D01*
X23016367Y33917617D01*
X23076155Y34048533D01*
X23085072Y34110555D01*
X23096637Y34190988D01*
X23096637Y34190990D01*
X23093548Y34212472D01*
X23103980Y34272762D01*
X23121533Y34296563D01*
X23622136Y34797165D01*
X23626463Y34804660D01*
X23661697Y34865687D01*
X23682176Y34942114D01*
X23682176Y36259105D01*
X23661697Y36335532D01*
X23642856Y36368165D01*
X23622136Y36404054D01*
X23566187Y36460004D01*
X23566187Y36460003D01*
X23044740Y36981450D01*
X23044737Y36981452D01*
X23029082Y36990491D01*
X23029082Y36990490D01*
X22976218Y37021011D01*
X22976217Y37021012D01*
X22976216Y37021012D01*
X22899793Y37041490D01*
X22899791Y37041490D01*
X21432189Y37041490D01*
X21432186Y37041490D01*
X21355763Y37021012D01*
X21302898Y36990490D01*
X21302897Y36990491D01*
X21287240Y36981451D01*
X20659178Y36353391D01*
X20604662Y36325614D01*
X20544230Y36335185D01*
X20519171Y36353391D01*
X19992010Y36880552D01*
X19341112Y37531450D01*
X19341109Y37531452D01*
X19272593Y37571010D01*
X19272589Y37571012D01*
X19196165Y37591490D01*
X19196163Y37591490D01*
X18587841Y37591490D01*
X18529650Y37610397D01*
X18517837Y37620486D01*
X17920486Y38217837D01*
X17892709Y38272354D01*
X17891490Y38287841D01*
X17891490Y38925511D01*
X17910397Y38983702D01*
X17920486Y38995515D01*
X18777886Y39852915D01*
X18832403Y39880692D01*
X18847890Y39881911D01*
X20135328Y39881911D01*
X20193519Y39863004D01*
X20210144Y39847744D01*
X20251283Y39800268D01*
X20372358Y39722458D01*
X20478814Y39691200D01*
X20510446Y39681912D01*
X20510447Y39681912D01*
X20510450Y39681911D01*
X20510452Y39681911D01*
X20654370Y39681911D01*
X20654372Y39681911D01*
X20792464Y39722458D01*
X20913539Y39800268D01*
X21007788Y39909038D01*
X21067576Y40039954D01*
X21088058Y40182411D01*
X21067576Y40324868D01*
X21007788Y40455784D01*
X20913539Y40564554D01*
X20913538Y40564555D01*
X20913537Y40564556D01*
X20792468Y40642362D01*
X20792465Y40642364D01*
X20792464Y40642364D01*
X20792461Y40642365D01*
X20654375Y40682911D01*
X20654372Y40682911D01*
X20510450Y40682911D01*
X20510446Y40682911D01*
X20372360Y40642365D01*
X20372353Y40642362D01*
X20251287Y40564557D01*
X20251282Y40564553D01*
X20210147Y40517080D01*
X20157751Y40485484D01*
X20135328Y40482911D01*
X18642846Y40482911D01*
X18566423Y40462433D01*
X18521788Y40436664D01*
X18521787Y40436662D01*
X18497900Y40422871D01*
X17406479Y39331450D01*
X17406478Y39331451D01*
X17350529Y39275501D01*
X17310970Y39206983D01*
X17310968Y39206979D01*
X17290490Y39130555D01*
X17290490Y38521155D01*
X17271583Y38462964D01*
X17222083Y38427000D01*
X17160897Y38427000D01*
X17121486Y38451151D01*
X16720486Y38852151D01*
X16692709Y38906668D01*
X16691490Y38922155D01*
X16691490Y43057780D01*
X16710397Y43115971D01*
X16715656Y43122594D01*
X16766367Y43181117D01*
X16826155Y43312033D01*
X16832995Y43359610D01*
X16846637Y43454488D01*
X16846637Y43454493D01*
X16826155Y43596947D01*
X16766367Y43727863D01*
X16672118Y43836633D01*
X16672117Y43836634D01*
X16672116Y43836635D01*
X16551042Y43914444D01*
X16551040Y43914445D01*
X16498597Y43929844D01*
X16448091Y43964380D01*
X16427530Y44022007D01*
X16427490Y44024833D01*
X16427490Y44425923D01*
X16427490Y44425924D01*
X16415409Y44471011D01*
X16415409Y44471012D01*
X16415409Y44471013D01*
X16410908Y44487807D01*
X16407012Y44502350D01*
X16407010Y44502354D01*
X16367453Y44570869D01*
X16367449Y44570874D01*
X16054786Y44883538D01*
X16027009Y44938054D01*
X16025790Y44953541D01*
X16025790Y48779663D01*
X16044697Y48837854D01*
X16094197Y48873818D01*
X16152679Y48874653D01*
X16269029Y48840490D01*
X16269031Y48840490D01*
X16412949Y48840490D01*
X16412951Y48840490D01*
X16551043Y48881037D01*
X16672118Y48958847D01*
X16766367Y49067617D01*
X16826155Y49198533D01*
X16840210Y49296291D01*
X16846637Y49340988D01*
X16846637Y49340993D01*
X16826155Y49483447D01*
X16766367Y49614362D01*
X16766367Y49614363D01*
X16672118Y49723133D01*
X16672117Y49723134D01*
X16667481Y49728484D01*
X16669514Y49730247D01*
X16644057Y49772485D01*
X16641490Y49794885D01*
X16641490Y52737012D01*
X16660397Y52795203D01*
X16670480Y52807010D01*
X17581450Y53717979D01*
X17594793Y53741089D01*
X17621010Y53786498D01*
X17621010Y53786500D01*
X17621012Y53786502D01*
X17641490Y53862928D01*
X17641490Y53942052D01*
X17641490Y54937097D01*
X17660397Y54995288D01*
X17667731Y55003279D01*
X17667481Y55003496D01*
X17672118Y55008847D01*
X17766367Y55117617D01*
X17826155Y55248533D01*
X17846637Y55390990D01*
X17826155Y55533447D01*
X17766367Y55664363D01*
X17672118Y55773133D01*
X17672117Y55773134D01*
X17672116Y55773135D01*
X17551047Y55850941D01*
X17551044Y55850943D01*
X17551043Y55850943D01*
X17551040Y55850944D01*
X17412954Y55891490D01*
X17412951Y55891490D01*
X17269029Y55891490D01*
X17269025Y55891490D01*
X17167581Y55861703D01*
X17106421Y55863451D01*
X17057968Y55900814D01*
X17040690Y55956693D01*
X17040690Y59723396D01*
X17030205Y59762526D01*
X17030205Y59762527D01*
X17024891Y59782359D01*
X17020212Y59799822D01*
X16980650Y59868345D01*
X14920486Y61928509D01*
X14892709Y61983026D01*
X14891490Y61998513D01*
X14891490Y67175511D01*
X14910397Y67233702D01*
X14920486Y67245515D01*
X18441486Y70766515D01*
X18496003Y70794292D01*
X18556435Y70784721D01*
G37*
%TD.AperFunction*%
%TA.AperFunction,Conductor*%
G36*
X28116869Y12640031D02*
G01*
X28119673Y12637336D01*
X28156684Y12600325D01*
X28184461Y12545808D01*
X28185680Y12530321D01*
X28185680Y10736815D01*
X28166773Y10678624D01*
X28117273Y10642660D01*
X28056087Y10642660D01*
X28048808Y10645345D01*
X27979889Y10673892D01*
X27979886Y10673893D01*
X27979885Y10673893D01*
X27836180Y10692812D01*
X27836175Y10692812D01*
X27832945Y10692387D01*
X27830653Y10692812D01*
X27829691Y10692812D01*
X27829691Y10692991D01*
X27772786Y10703542D01*
X27730672Y10747927D01*
X27722690Y10808590D01*
X27724399Y10816143D01*
X27756680Y10936617D01*
X27756680Y11074983D01*
X27720868Y11208636D01*
X27651685Y11328465D01*
X27553845Y11426305D01*
X27434016Y11495488D01*
X27300363Y11531300D01*
X27161997Y11531300D01*
X27132445Y11523382D01*
X27055802Y11502846D01*
X26994701Y11506049D01*
X26947151Y11544554D01*
X26931180Y11598473D01*
X26931180Y11636800D01*
X26950087Y11694991D01*
X26999587Y11730955D01*
X27030180Y11735800D01*
X27330123Y11735800D01*
X27330124Y11735801D01*
X27465363Y11762702D01*
X27592751Y11815467D01*
X27707400Y11892072D01*
X27804908Y11989580D01*
X27881513Y12104229D01*
X27934278Y12231617D01*
X27934278Y12231619D01*
X27955002Y12335800D01*
X27544968Y12335800D01*
X27561180Y12396304D01*
X27561180Y12475296D01*
X27544968Y12535800D01*
X27955002Y12535800D01*
X27955002Y12535801D01*
X27952572Y12548017D01*
X27959762Y12608778D01*
X28001294Y12653708D01*
X28061304Y12665646D01*
X28116869Y12640031D01*
G37*
%TD.AperFunction*%
%TA.AperFunction,Conductor*%
G36*
X31345244Y36511765D02*
G01*
X33611494Y34245515D01*
X33639271Y34190998D01*
X33640490Y34175511D01*
X33640490Y26263986D01*
X33621583Y26205795D01*
X33572083Y26169831D01*
X33510897Y26169831D01*
X33481222Y26185444D01*
X33368615Y26271851D01*
X33368611Y26271853D01*
X33234699Y26327320D01*
X33234698Y26327321D01*
X33090990Y26346240D01*
X32947281Y26327321D01*
X32947280Y26327320D01*
X32813368Y26271853D01*
X32813364Y26271851D01*
X32698371Y26183613D01*
X32698367Y26183609D01*
X32610129Y26068616D01*
X32610127Y26068612D01*
X32554660Y25934700D01*
X32554659Y25934699D01*
X32535740Y25790991D01*
X32535740Y25790990D01*
X32554659Y25647282D01*
X32554660Y25647281D01*
X32610129Y25513365D01*
X32698369Y25398369D01*
X32698373Y25398366D01*
X32698374Y25398365D01*
X32751757Y25357403D01*
X32786413Y25306979D01*
X32790490Y25278861D01*
X32790490Y25056469D01*
X32771583Y24998278D01*
X32761494Y24986465D01*
X32307515Y24532486D01*
X32252998Y24504709D01*
X32237511Y24503490D01*
X31929007Y24503490D01*
X31870816Y24522397D01*
X31834852Y24571897D01*
X31834852Y24633083D01*
X31841478Y24648748D01*
X31843775Y24653098D01*
X31843783Y24653108D01*
X31888636Y24781291D01*
X31891489Y24811717D01*
X31891490Y24811717D01*
X31891490Y26420263D01*
X31891489Y26420265D01*
X31888636Y26450685D01*
X31888636Y26450689D01*
X31843783Y26578872D01*
X31831499Y26595516D01*
X31763144Y26688135D01*
X31763142Y26688137D01*
X31763140Y26688140D01*
X31763136Y26688143D01*
X31763134Y26688145D01*
X31653873Y26768783D01*
X31525693Y26813635D01*
X31525684Y26813637D01*
X31495264Y26816490D01*
X31495256Y26816490D01*
X30186724Y26816490D01*
X30186715Y26816490D01*
X30156295Y26813637D01*
X30156286Y26813635D01*
X30028106Y26768783D01*
X29918845Y26688145D01*
X29918835Y26688135D01*
X29838197Y26578874D01*
X29793345Y26450694D01*
X29793343Y26450685D01*
X29790490Y26420265D01*
X29790490Y24811716D01*
X29793343Y24781296D01*
X29793345Y24781287D01*
X29819521Y24706482D01*
X29838197Y24653108D01*
X29838201Y24653103D01*
X29840502Y24648748D01*
X29850975Y24588465D01*
X29824014Y24533540D01*
X29769919Y24504951D01*
X29752973Y24503490D01*
X29103129Y24503490D01*
X29044938Y24522397D01*
X29008974Y24571897D01*
X29008974Y24633083D01*
X29033123Y24672492D01*
X29156967Y24796335D01*
X29271931Y24968392D01*
X29351120Y25159570D01*
X29391490Y25362525D01*
X29391490Y25869455D01*
X29351120Y26072410D01*
X29271931Y26263588D01*
X29156967Y26435645D01*
X29010645Y26581967D01*
X29008047Y26583703D01*
X28838587Y26696932D01*
X28647408Y26776121D01*
X28444457Y26816490D01*
X28444455Y26816490D01*
X28237525Y26816490D01*
X28237522Y26816490D01*
X28034571Y26776121D01*
X27843392Y26696932D01*
X27671338Y26581970D01*
X27525010Y26435642D01*
X27410048Y26263588D01*
X27330859Y26072409D01*
X27290490Y25869458D01*
X27290490Y25362523D01*
X27330859Y25159572D01*
X27410048Y24968393D01*
X27525010Y24796339D01*
X27525013Y24796335D01*
X27611961Y24709387D01*
X27639737Y24654872D01*
X27630166Y24594440D01*
X27586901Y24551175D01*
X27529035Y24541232D01*
X27490992Y24546240D01*
X27490990Y24546240D01*
X27347281Y24527321D01*
X27347280Y24527320D01*
X27307943Y24511026D01*
X27270058Y24503490D01*
X26938745Y24503490D01*
X26880554Y24522397D01*
X26844590Y24571897D01*
X26839745Y24602490D01*
X26839745Y26573766D01*
X26858652Y26631957D01*
X26868741Y26643770D01*
X27786466Y27561495D01*
X27840983Y27589272D01*
X27856470Y27590491D01*
X31930554Y27590491D01*
X31930554Y27590492D01*
X32006980Y27610970D01*
X32075502Y27650531D01*
X32131451Y27706480D01*
X33231450Y28806479D01*
X33243483Y28827321D01*
X33271010Y28874998D01*
X33271010Y28875000D01*
X33271012Y28875002D01*
X33291490Y28951428D01*
X33291490Y29030552D01*
X33291490Y34110552D01*
X33271011Y34186979D01*
X33268696Y34190988D01*
X33231450Y34255501D01*
X33175501Y34311451D01*
X33175501Y34311450D01*
X31195604Y36291347D01*
X31167827Y36345864D01*
X31167455Y36374267D01*
X31176240Y36440990D01*
X31176240Y36440993D01*
X31176240Y36441761D01*
X31176410Y36442285D01*
X31177087Y36447425D01*
X31178039Y36447300D01*
X31195147Y36499952D01*
X31244647Y36535916D01*
X31305833Y36535916D01*
X31345244Y36511765D01*
G37*
%TD.AperFunction*%
%TD*%
%TA.AperFunction,Conductor*%
%TO.N,GND*%
G36*
X27840990Y33340990D02*
G01*
X27840990Y31590990D01*
X24340990Y31590990D01*
X24340990Y35090990D01*
X26090990Y35090990D01*
X27840990Y33340990D01*
G37*
%TD.AperFunction*%
%TD*%
M02*
